%TF.GenerationSoftware,KiCad,Pcbnew,10.0.0*%
%TF.CreationDate,2026-04-19T17:04:42-06:00*%
%TF.ProjectId,Basic Pixels_NeoBlade_V1.0,42617369-6320-4506-9978-656c735f4e65,rev?*%
%TF.SameCoordinates,PX81390e0PY57bcf00*%
%TF.FileFunction,Copper,L1,Top*%
%TF.FilePolarity,Positive*%
%FSLAX46Y46*%
G04 Gerber Fmt 4.6, Leading zero omitted, Abs format (unit mm)*
G04 Created by KiCad (PCBNEW 10.0.0) date 2026-04-19 17:04:42*
%MOMM*%
%LPD*%
G01*
G04 APERTURE LIST*
G04 Aperture macros list*
%AMRoundRect*
0 Rectangle with rounded corners*
0 $1 Rounding radius*
0 $2 $3 $4 $5 $6 $7 $8 $9 X,Y pos of 4 corners*
0 Add a 4 corners polygon primitive as box body*
4,1,4,$2,$3,$4,$5,$6,$7,$8,$9,$2,$3,0*
0 Add four circle primitives for the rounded corners*
1,1,$1+$1,$2,$3*
1,1,$1+$1,$4,$5*
1,1,$1+$1,$6,$7*
1,1,$1+$1,$8,$9*
0 Add four rect primitives between the rounded corners*
20,1,$1+$1,$2,$3,$4,$5,0*
20,1,$1+$1,$4,$5,$6,$7,0*
20,1,$1+$1,$6,$7,$8,$9,0*
20,1,$1+$1,$8,$9,$2,$3,0*%
G04 Aperture macros list end*
%TA.AperFunction,SMDPad,CuDef*%
%ADD10RoundRect,0.090000X0.360000X-0.660000X0.360000X0.660000X-0.360000X0.660000X-0.360000X-0.660000X0*%
%TD*%
%TA.AperFunction,ComponentPad*%
%ADD11R,1.700000X1.700000*%
%TD*%
%TA.AperFunction,ComponentPad*%
%ADD12C,1.700000*%
%TD*%
%TA.AperFunction,SMDPad,CuDef*%
%ADD13RoundRect,0.225000X-0.225000X-0.250000X0.225000X-0.250000X0.225000X0.250000X-0.225000X0.250000X0*%
%TD*%
%TA.AperFunction,Conductor*%
%ADD14C,0.500000*%
%TD*%
%TA.AperFunction,Conductor*%
%ADD15C,1.000000*%
%TD*%
G04 APERTURE END LIST*
D10*
%TO.P,D7,1,VDD_1*%
%TO.N,+5V*%
X43350000Y6550000D03*
%TO.P,D7,2,DOUT_2*%
%TO.N,Net-(D7-DOUT)*%
X46650000Y6550000D03*
%TO.P,D7,3,VSS_3*%
%TO.N,GND*%
X46650000Y11450000D03*
%TO.P,D7,4,DIN_4*%
%TO.N,Net-(D6-DOUT)*%
X43350000Y11450000D03*
%TD*%
%TO.P,D6,1,VDD_1*%
%TO.N,+5V*%
X37350000Y6500000D03*
%TO.P,D6,2,DOUT_2*%
%TO.N,Net-(D6-DOUT)*%
X40650000Y6500000D03*
%TO.P,D6,3,VSS_3*%
%TO.N,GND*%
X40650000Y11400000D03*
%TO.P,D6,4,DIN_4*%
%TO.N,Net-(D5-DOUT)*%
X37350000Y11400000D03*
%TD*%
%TO.P,D5,1,VDD_1*%
%TO.N,+5V*%
X31350000Y6500000D03*
%TO.P,D5,2,DOUT_2*%
%TO.N,Net-(D5-DOUT)*%
X34650000Y6500000D03*
%TO.P,D5,3,VSS_3*%
%TO.N,GND*%
X34650000Y11400000D03*
%TO.P,D5,4,DIN_4*%
%TO.N,Net-(D4-DOUT)*%
X31350000Y11400000D03*
%TD*%
%TO.P,D4,1,VDD_1*%
%TO.N,+5V*%
X25350000Y6500000D03*
%TO.P,D4,2,DOUT_2*%
%TO.N,Net-(D4-DOUT)*%
X28650000Y6500000D03*
%TO.P,D4,3,VSS_3*%
%TO.N,GND*%
X28650000Y11400000D03*
%TO.P,D4,4,DIN_4*%
%TO.N,Net-(D3-DOUT)*%
X25350000Y11400000D03*
%TD*%
%TO.P,D3,1,VDD_1*%
%TO.N,+5V*%
X19350000Y6500000D03*
%TO.P,D3,2,DOUT_2*%
%TO.N,Net-(D3-DOUT)*%
X22650000Y6500000D03*
%TO.P,D3,3,VSS_3*%
%TO.N,GND*%
X22650000Y11400000D03*
%TO.P,D3,4,DIN_4*%
%TO.N,Net-(D2-DOUT)*%
X19350000Y11400000D03*
%TD*%
%TO.P,D2,1,VDD_1*%
%TO.N,+5V*%
X13350000Y6500000D03*
%TO.P,D2,2,DOUT_2*%
%TO.N,Net-(D2-DOUT)*%
X16650000Y6500000D03*
%TO.P,D2,3,VSS_3*%
%TO.N,GND*%
X16650000Y11400000D03*
%TO.P,D2,4,DIN_4*%
%TO.N,Net-(D1-DOUT)*%
X13350000Y11400000D03*
%TD*%
%TO.P,D1,4,DIN_4*%
%TO.N,Net-(D1-DIN)*%
X7580000Y11400000D03*
%TO.P,D1,3,VSS_3*%
%TO.N,GND*%
X10880000Y11400000D03*
%TO.P,D1,2,DOUT_2*%
%TO.N,Net-(D1-DOUT)*%
X10880000Y6500000D03*
%TO.P,D1,1,VDD_1*%
%TO.N,+5V*%
X7580000Y6500000D03*
%TD*%
D11*
%TO.P,J1,1,Pin_1_1*%
%TO.N,+5V*%
X3500000Y4500000D03*
D12*
%TO.P,J1,2,Pin_2_2*%
%TO.N,Net-(D1-DIN)*%
X3500000Y7040000D03*
%TO.P,J1,3,Pin_3_3*%
%TO.N,Net-(D7-DOUT)*%
X3500000Y9580000D03*
%TO.P,J1,4,Pin_4_4*%
%TO.N,GND*%
X3500000Y12120000D03*
%TD*%
D13*
%TO.P,C7,1*%
%TO.N,+5V*%
X42950000Y4500000D03*
%TO.P,C7,2*%
%TO.N,GND*%
X44500000Y4500000D03*
%TD*%
%TO.P,C6,1*%
%TO.N,+5V*%
X37000000Y4500000D03*
%TO.P,C6,2*%
%TO.N,GND*%
X38550000Y4500000D03*
%TD*%
%TO.P,C5,1*%
%TO.N,+5V*%
X30950000Y4500000D03*
%TO.P,C5,2*%
%TO.N,GND*%
X32500000Y4500000D03*
%TD*%
%TO.P,C4,1*%
%TO.N,+5V*%
X25000000Y4500000D03*
%TO.P,C4,2*%
%TO.N,GND*%
X26550000Y4500000D03*
%TD*%
%TO.P,C3,1*%
%TO.N,+5V*%
X19000000Y4500000D03*
%TO.P,C3,2*%
%TO.N,GND*%
X20550000Y4500000D03*
%TD*%
%TO.P,C2,1*%
%TO.N,+5V*%
X13000000Y4500000D03*
%TO.P,C2,2*%
%TO.N,GND*%
X14550000Y4500000D03*
%TD*%
%TO.P,C1,1*%
%TO.N,+5V*%
X7225000Y4500000D03*
%TO.P,C1,2*%
%TO.N,GND*%
X8775000Y4500000D03*
%TD*%
%TO.N,GND*%
D14*
X10880000Y13380000D02*
X11000000Y13500000D01*
X10880000Y11400000D02*
X10880000Y13380000D01*
X11000000Y13500000D02*
X17000000Y13500000D01*
X16650000Y13150000D02*
X17000000Y13500000D01*
X16650000Y11400000D02*
X16650000Y13150000D01*
X17000000Y13500000D02*
X22500000Y13500000D01*
X22650000Y13350000D02*
X22500000Y13500000D01*
X22650000Y11400000D02*
X22650000Y13350000D01*
X4880000Y13500000D02*
X11000000Y13500000D01*
X28650000Y11400000D02*
X28650000Y13150000D01*
X29000000Y13500000D02*
X34500000Y13500000D01*
X28650000Y13150000D02*
X29000000Y13500000D01*
X26550000Y5050000D02*
X26550000Y4500000D01*
X27000000Y5500000D02*
X26550000Y5050000D01*
X27000000Y9000000D02*
X27000000Y5500000D01*
X28650000Y11400000D02*
X28650000Y10650000D01*
X28650000Y10650000D02*
X27000000Y9000000D01*
X34650000Y13350000D02*
X34500000Y13500000D01*
X34650000Y11400000D02*
X34650000Y13350000D01*
X34500000Y13500000D02*
X40500000Y13500000D01*
X40650000Y11400000D02*
X40650000Y13350000D01*
X40500000Y13500000D02*
X44600000Y13500000D01*
X40650000Y13350000D02*
X40500000Y13500000D01*
X22500000Y13500000D02*
X29000000Y13500000D01*
X3500000Y12120000D02*
X4880000Y13500000D01*
X44600000Y13500000D02*
X46650000Y11450000D01*
X45000000Y8500000D02*
X45000000Y5000000D01*
X46650000Y10150000D02*
X45000000Y8500000D01*
X46650000Y11450000D02*
X46650000Y10150000D01*
X45000000Y5000000D02*
X44500000Y4500000D01*
X38550000Y5550000D02*
X38550000Y4500000D01*
X39000000Y6000000D02*
X38550000Y5550000D01*
X39000000Y9750000D02*
X39000000Y6000000D01*
X40650000Y11400000D02*
X39000000Y9750000D01*
X33000000Y5500000D02*
X32500000Y5000000D01*
X33000000Y8500000D02*
X33000000Y5500000D01*
X32500000Y5000000D02*
X32500000Y4500000D01*
X34650000Y10150000D02*
X33000000Y8500000D01*
X34650000Y11400000D02*
X34650000Y10150000D01*
X21000000Y5500000D02*
X20550000Y5050000D01*
X21000000Y9000000D02*
X21000000Y5500000D01*
X20550000Y5050000D02*
X20550000Y4500000D01*
X22650000Y10650000D02*
X21000000Y9000000D01*
X22650000Y11400000D02*
X22650000Y10650000D01*
X15000000Y6000000D02*
X14550000Y5550000D01*
X15000000Y8500000D02*
X15000000Y6000000D01*
X16650000Y10150000D02*
X15000000Y8500000D01*
X14550000Y5550000D02*
X14550000Y4500000D01*
X16650000Y11400000D02*
X16650000Y10150000D01*
X9000000Y5500000D02*
X9000000Y9520000D01*
X9000000Y9520000D02*
X10880000Y11400000D01*
X8775000Y5275000D02*
X9000000Y5500000D01*
X8775000Y4500000D02*
X8775000Y5275000D01*
%TO.N,Net-(D7-DOUT)*%
D15*
X1000000Y3000000D02*
X1000000Y8500000D01*
X1000000Y8500000D02*
X2080000Y9580000D01*
X3000000Y1000000D02*
X1000000Y3000000D01*
X45000000Y1000000D02*
X3000000Y1000000D01*
X46650000Y2650000D02*
X45000000Y1000000D01*
X2080000Y9580000D02*
X3500000Y9580000D01*
X46650000Y6550000D02*
X46650000Y2650000D01*
%TO.N,+5V*%
X25000000Y4500000D02*
X25000000Y3000000D01*
X25000000Y3000000D02*
X31000000Y3000000D01*
X19000000Y3000000D02*
X25000000Y3000000D01*
X19000000Y4500000D02*
X19000000Y3000000D01*
X30950000Y4500000D02*
X30950000Y3050000D01*
X31000000Y3000000D02*
X37000000Y3000000D01*
X30950000Y3050000D02*
X31000000Y3000000D01*
X37000000Y4500000D02*
X37000000Y3000000D01*
X37000000Y3000000D02*
X41450000Y3000000D01*
X41450000Y3000000D02*
X42950000Y4500000D01*
X12500000Y3000000D02*
X19000000Y3000000D01*
X7225000Y4500000D02*
X7225000Y4025000D01*
X7225000Y4025000D02*
X8250000Y3000000D01*
X12500000Y3000000D02*
X8250000Y3000000D01*
X13000000Y3500000D02*
X12500000Y3000000D01*
X13000000Y4500000D02*
X13000000Y3500000D01*
X3500000Y4500000D02*
X7225000Y4500000D01*
%TO.N,Net-(D1-DIN)*%
X7580000Y10080000D02*
X4540000Y7040000D01*
X7580000Y11400000D02*
X7580000Y10080000D01*
X4540000Y7040000D02*
X3500000Y7040000D01*
%TO.N,+5V*%
X7225000Y6145000D02*
X7580000Y6500000D01*
X7225000Y4500000D02*
X7225000Y6145000D01*
X13000000Y6150000D02*
X13350000Y6500000D01*
X13000000Y4500000D02*
X13000000Y6150000D01*
X19000000Y6150000D02*
X19350000Y6500000D01*
X19000000Y4500000D02*
X19000000Y6150000D01*
X25000000Y6150000D02*
X25350000Y6500000D01*
X25000000Y4500000D02*
X25000000Y6150000D01*
X30950000Y6100000D02*
X31350000Y6500000D01*
X30950000Y4500000D02*
X30950000Y6100000D01*
X37000000Y6150000D02*
X37350000Y6500000D01*
X37000000Y4500000D02*
X37000000Y6150000D01*
X42950000Y6150000D02*
X43350000Y6550000D01*
X42950000Y4500000D02*
X42950000Y6150000D01*
%TO.N,Net-(D6-DOUT)*%
X43350000Y10350000D02*
X40650000Y7650000D01*
X43350000Y11450000D02*
X43350000Y10350000D01*
X40650000Y7650000D02*
X40650000Y6500000D01*
%TO.N,Net-(D5-DOUT)*%
X34650000Y7650000D02*
X34650000Y6500000D01*
X37350000Y10350000D02*
X34650000Y7650000D01*
X37350000Y11400000D02*
X37350000Y10350000D01*
%TO.N,Net-(D4-DOUT)*%
X28650000Y7650000D02*
X28650000Y6500000D01*
X31350000Y10350000D02*
X28650000Y7650000D01*
X31350000Y11400000D02*
X31350000Y10350000D01*
%TO.N,Net-(D3-DOUT)*%
X22650000Y7650000D02*
X22650000Y6500000D01*
X25350000Y10350000D02*
X22650000Y7650000D01*
X25350000Y11400000D02*
X25350000Y10350000D01*
%TO.N,Net-(D2-DOUT)*%
X19350000Y10350000D02*
X19350000Y11400000D01*
X16650000Y7650000D02*
X19350000Y10350000D01*
X16650000Y6500000D02*
X16650000Y7650000D01*
%TO.N,Net-(D1-DOUT)*%
X13350000Y9850000D02*
X13350000Y11400000D01*
X10880000Y7380000D02*
X13350000Y9850000D01*
X10880000Y6500000D02*
X10880000Y7380000D01*
%TD*%
%TA.AperFunction,Conductor*%
%TO.N,GND*%
G36*
X48442539Y14479815D02*
G01*
X48488294Y14427011D01*
X48499500Y14375500D01*
X48499500Y624500D01*
X48479815Y557461D01*
X48427011Y511706D01*
X48375500Y500500D01*
X46921889Y500500D01*
X46854850Y520185D01*
X46809095Y572989D01*
X46799151Y642147D01*
X46828176Y705703D01*
X46834208Y712181D01*
X47312932Y1190905D01*
X47794517Y1672490D01*
X47933343Y1863566D01*
X48040568Y2074008D01*
X48085913Y2213566D01*
X48113553Y2298632D01*
X48145576Y2500816D01*
X48150500Y2531903D01*
X48150500Y6668098D01*
X48113553Y6901369D01*
X48106569Y6922863D01*
X48100500Y6961182D01*
X48100500Y7293255D01*
X48100500Y7293266D01*
X48097713Y7340052D01*
X48064320Y7493555D01*
X48053446Y7543544D01*
X48053443Y7543555D01*
X47971464Y7734994D01*
X47971463Y7734996D01*
X47971462Y7734998D01*
X47854731Y7907469D01*
X47707469Y8054731D01*
X47534998Y8171462D01*
X47534996Y8171463D01*
X47534993Y8171465D01*
X47343554Y8253444D01*
X47343543Y8253447D01*
X47140057Y8297713D01*
X47125431Y8298584D01*
X47093266Y8300500D01*
X46206734Y8300500D01*
X46176460Y8298697D01*
X46159942Y8297713D01*
X45956456Y8253447D01*
X45956445Y8253444D01*
X45765006Y8171465D01*
X45592530Y8054731D01*
X45445269Y7907470D01*
X45328535Y7734994D01*
X45246556Y7543555D01*
X45246553Y7543544D01*
X45202287Y7340058D01*
X45202287Y7340052D01*
X45199500Y7293266D01*
X45199500Y7293255D01*
X45199500Y6961182D01*
X45187503Y6920329D01*
X45187586Y6906115D01*
X45186447Y6901370D01*
X45149500Y6668098D01*
X45149500Y5544823D01*
X45129815Y5477784D01*
X45077011Y5432029D01*
X45007853Y5422085D01*
X44988536Y5426461D01*
X44850246Y5469648D01*
X44831156Y5482383D01*
X44809908Y5491054D01*
X44802642Y5501404D01*
X44792122Y5508421D01*
X44782946Y5529457D01*
X44769761Y5548238D01*
X44769022Y5561381D01*
X44764188Y5572464D01*
X44767310Y5591828D01*
X44766044Y5614368D01*
X44797712Y5759943D01*
X44797712Y5759944D01*
X44797713Y5759948D01*
X44800500Y5806734D01*
X44800500Y6138822D01*
X44806570Y6177142D01*
X44813551Y6198629D01*
X44813552Y6198631D01*
X44830663Y6306674D01*
X44850499Y6431903D01*
X44850499Y6668097D01*
X44813552Y6901368D01*
X44812010Y6906115D01*
X44806568Y6922863D01*
X44800500Y6961178D01*
X44800500Y7293255D01*
X44800500Y7293266D01*
X44797713Y7340052D01*
X44764320Y7493555D01*
X44753446Y7543544D01*
X44753443Y7543555D01*
X44671464Y7734994D01*
X44671463Y7734996D01*
X44671462Y7734998D01*
X44554731Y7907469D01*
X44407469Y8054731D01*
X44234998Y8171462D01*
X44234996Y8171463D01*
X44234993Y8171465D01*
X44043554Y8253444D01*
X44043543Y8253447D01*
X43840057Y8297713D01*
X43825431Y8298584D01*
X43793266Y8300500D01*
X43793255Y8300500D01*
X43721890Y8300500D01*
X43654851Y8320185D01*
X43609096Y8372989D01*
X43599152Y8442147D01*
X43628177Y8505703D01*
X43634209Y8512181D01*
X43994518Y8872490D01*
X44494518Y9372490D01*
X44633343Y9563567D01*
X44740568Y9774008D01*
X44813553Y9998632D01*
X44815093Y10008353D01*
X44850500Y10231903D01*
X44850500Y10751330D01*
X45700000Y10751330D01*
X45715185Y10635981D01*
X45715187Y10635976D01*
X45774633Y10492459D01*
X45774633Y10492458D01*
X45869207Y10369208D01*
X45992458Y10274634D01*
X46135975Y10215188D01*
X46135980Y10215186D01*
X46251329Y10200000D01*
X46400000Y10200000D01*
X46900000Y10200000D01*
X47048671Y10200000D01*
X47164019Y10215186D01*
X47164024Y10215188D01*
X47307541Y10274634D01*
X47307542Y10274634D01*
X47430792Y10369208D01*
X47525366Y10492458D01*
X47525366Y10492459D01*
X47584812Y10635976D01*
X47584814Y10635981D01*
X47600000Y10751330D01*
X47600000Y11200000D01*
X46900000Y11200000D01*
X46900000Y10200000D01*
X46400000Y10200000D01*
X46400000Y11200000D01*
X45700000Y11200000D01*
X45700000Y10751330D01*
X44850500Y10751330D01*
X44850500Y11568098D01*
X44813553Y11801369D01*
X44806569Y11822863D01*
X44800500Y11861182D01*
X44800500Y12148671D01*
X45700000Y12148671D01*
X45700000Y11700000D01*
X46400000Y11700000D01*
X46900000Y11700000D01*
X47600000Y11700000D01*
X47600000Y12148671D01*
X47584814Y12264020D01*
X47584812Y12264025D01*
X47525366Y12407542D01*
X47525366Y12407543D01*
X47430792Y12530793D01*
X47307541Y12625367D01*
X47164024Y12684813D01*
X47164019Y12684815D01*
X47048671Y12700000D01*
X46900000Y12700000D01*
X46900000Y11700000D01*
X46400000Y11700000D01*
X46400000Y12700000D01*
X46251329Y12700000D01*
X46135980Y12684815D01*
X46135975Y12684813D01*
X45992458Y12625367D01*
X45992457Y12625367D01*
X45869207Y12530793D01*
X45774633Y12407543D01*
X45774633Y12407542D01*
X45715187Y12264025D01*
X45715185Y12264020D01*
X45700000Y12148671D01*
X44800500Y12148671D01*
X44800500Y12193255D01*
X44800500Y12193266D01*
X44797713Y12240052D01*
X44772154Y12357543D01*
X44753446Y12443544D01*
X44753443Y12443555D01*
X44671464Y12634994D01*
X44671463Y12634996D01*
X44671462Y12634998D01*
X44554731Y12807469D01*
X44407469Y12954731D01*
X44234998Y13071462D01*
X44234996Y13071463D01*
X44234993Y13071465D01*
X44043554Y13153444D01*
X44043543Y13153447D01*
X43840057Y13197713D01*
X43825431Y13198584D01*
X43793266Y13200500D01*
X42906734Y13200500D01*
X42876460Y13198697D01*
X42859942Y13197713D01*
X42656456Y13153447D01*
X42656445Y13153444D01*
X42465006Y13071465D01*
X42292530Y12954731D01*
X42145269Y12807470D01*
X42028535Y12634994D01*
X41946556Y12443555D01*
X41946553Y12443544D01*
X41902287Y12240058D01*
X41902287Y12240052D01*
X41899500Y12193266D01*
X41899500Y12193255D01*
X41899500Y11861182D01*
X41893431Y11822863D01*
X41886446Y11801369D01*
X41849500Y11568098D01*
X41849500Y11022890D01*
X41829815Y10955851D01*
X41813181Y10935209D01*
X41811681Y10933709D01*
X41750358Y10900224D01*
X41680666Y10905208D01*
X41624733Y10947080D01*
X41600316Y11012544D01*
X41600000Y11021390D01*
X41600000Y11150000D01*
X40900000Y11150000D01*
X40900000Y10130301D01*
X40909790Y10112372D01*
X40904806Y10042680D01*
X40876305Y9998333D01*
X39505484Y8627512D01*
X39366657Y8436435D01*
X39278155Y8262738D01*
X39259433Y8225997D01*
X39186446Y8001369D01*
X39149500Y7768098D01*
X39149500Y6381903D01*
X39186446Y6148636D01*
X39186447Y6148631D01*
X39193431Y6127137D01*
X39195426Y6057296D01*
X39159345Y5997464D01*
X39112347Y5974358D01*
X39188486Y5805980D01*
X39199445Y5758587D01*
X39199499Y5756747D01*
X39202287Y5709943D01*
X39235255Y5558394D01*
X39230271Y5488702D01*
X39188399Y5432769D01*
X39122935Y5408352D01*
X39080840Y5412577D01*
X38865688Y5472461D01*
X38844621Y5485583D01*
X38821642Y5494959D01*
X38815481Y5503733D01*
X38806381Y5509401D01*
X38795753Y5531829D01*
X38781491Y5552140D01*
X38780866Y5563244D01*
X38776461Y5572540D01*
X38779167Y5593457D01*
X38777771Y5618277D01*
X38797713Y5709948D01*
X38800500Y5756734D01*
X38800500Y6088822D01*
X38806569Y6127137D01*
X38810365Y6138822D01*
X38813553Y6148632D01*
X38829973Y6252311D01*
X38850500Y6381903D01*
X38850500Y6618098D01*
X38813553Y6851370D01*
X38806569Y6872864D01*
X38800500Y6911183D01*
X38800500Y7243255D01*
X38800500Y7243266D01*
X38797713Y7290052D01*
X38797016Y7293255D01*
X38753446Y7493544D01*
X38753443Y7493555D01*
X38671464Y7684994D01*
X38671463Y7684996D01*
X38671462Y7684998D01*
X38554731Y7857469D01*
X38407469Y8004731D01*
X38234998Y8121462D01*
X38234996Y8121463D01*
X38234993Y8121465D01*
X38043554Y8203444D01*
X38043543Y8203447D01*
X37840057Y8247713D01*
X37825431Y8248584D01*
X37793266Y8250500D01*
X37793255Y8250500D01*
X37671890Y8250500D01*
X37604851Y8270185D01*
X37559096Y8322989D01*
X37549152Y8392147D01*
X37578177Y8455703D01*
X37584209Y8462181D01*
X37994518Y8872490D01*
X38494518Y9372490D01*
X38633343Y9563567D01*
X38740568Y9774008D01*
X38813553Y9998632D01*
X38815093Y10008353D01*
X38850500Y10231903D01*
X38850500Y10701330D01*
X39700000Y10701330D01*
X39715185Y10585981D01*
X39715187Y10585976D01*
X39774633Y10442459D01*
X39774633Y10442458D01*
X39869207Y10319208D01*
X39992458Y10224634D01*
X40135975Y10165188D01*
X40135980Y10165186D01*
X40251329Y10150000D01*
X40400000Y10150000D01*
X40400000Y11150000D01*
X39700000Y11150000D01*
X39700000Y10701330D01*
X38850500Y10701330D01*
X38850500Y11518098D01*
X38813553Y11751369D01*
X38806569Y11772863D01*
X38800500Y11811182D01*
X38800500Y12098671D01*
X39700000Y12098671D01*
X39700000Y11650000D01*
X40400000Y11650000D01*
X40900000Y11650000D01*
X41600000Y11650000D01*
X41600000Y12098671D01*
X41584814Y12214020D01*
X41584812Y12214025D01*
X41525366Y12357542D01*
X41525366Y12357543D01*
X41430792Y12480793D01*
X41307541Y12575367D01*
X41164024Y12634813D01*
X41164019Y12634815D01*
X41048671Y12650000D01*
X40900000Y12650000D01*
X40900000Y11650000D01*
X40400000Y11650000D01*
X40400000Y12650000D01*
X40251329Y12650000D01*
X40135980Y12634815D01*
X40135975Y12634813D01*
X39992458Y12575367D01*
X39992457Y12575367D01*
X39869207Y12480793D01*
X39774633Y12357543D01*
X39774633Y12357542D01*
X39715187Y12214025D01*
X39715185Y12214020D01*
X39700000Y12098671D01*
X38800500Y12098671D01*
X38800500Y12143255D01*
X38800500Y12143266D01*
X38797713Y12190052D01*
X38797016Y12193255D01*
X38753446Y12393544D01*
X38753443Y12393555D01*
X38747453Y12407542D01*
X38694674Y12530793D01*
X38671464Y12584994D01*
X38671463Y12584996D01*
X38671462Y12584998D01*
X38554731Y12757469D01*
X38407469Y12904731D01*
X38234998Y13021462D01*
X38234996Y13021463D01*
X38234993Y13021465D01*
X38043554Y13103444D01*
X38043543Y13103447D01*
X37840057Y13147713D01*
X37825431Y13148584D01*
X37793266Y13150500D01*
X36906734Y13150500D01*
X36876460Y13148697D01*
X36859942Y13147713D01*
X36656456Y13103447D01*
X36656445Y13103444D01*
X36465006Y13021465D01*
X36292530Y12904731D01*
X36145269Y12757470D01*
X36028535Y12584994D01*
X35946556Y12393555D01*
X35946553Y12393544D01*
X35902287Y12190058D01*
X35902287Y12190052D01*
X35899500Y12143266D01*
X35899500Y12143255D01*
X35899500Y11811182D01*
X35893431Y11772863D01*
X35886446Y11751369D01*
X35849500Y11518098D01*
X35849500Y11022890D01*
X35829815Y10955851D01*
X35813181Y10935209D01*
X35811681Y10933709D01*
X35750358Y10900224D01*
X35680666Y10905208D01*
X35624733Y10947080D01*
X35600316Y11012544D01*
X35600000Y11021390D01*
X35600000Y11150000D01*
X34900000Y11150000D01*
X34900000Y10130301D01*
X34909790Y10112372D01*
X34904806Y10042680D01*
X34876305Y9998333D01*
X33505484Y8627512D01*
X33366657Y8436435D01*
X33278155Y8262738D01*
X33259433Y8225997D01*
X33186446Y8001369D01*
X33149500Y7768098D01*
X33149500Y6381903D01*
X33186446Y6148636D01*
X33186447Y6148631D01*
X33193431Y6127137D01*
X33195426Y6057296D01*
X33159345Y5997464D01*
X33112348Y5974358D01*
X33188486Y5805980D01*
X33199445Y5758587D01*
X33199499Y5756747D01*
X33202287Y5709943D01*
X33241414Y5530079D01*
X33236430Y5460387D01*
X33194558Y5404454D01*
X33129093Y5380037D01*
X33077112Y5387466D01*
X32854577Y5470037D01*
X32833467Y5485784D01*
X32810313Y5498331D01*
X32805904Y5506344D01*
X32798572Y5511813D01*
X32789325Y5536477D01*
X32776632Y5559547D01*
X32776614Y5570380D01*
X32774044Y5577236D01*
X32776584Y5589013D01*
X32776547Y5612650D01*
X32797712Y5709943D01*
X32797712Y5709945D01*
X32797713Y5709948D01*
X32800500Y5756734D01*
X32800500Y6088822D01*
X32806570Y6127142D01*
X32813551Y6148629D01*
X32813552Y6148631D01*
X32830663Y6256674D01*
X32850499Y6381903D01*
X32850499Y6618097D01*
X32813552Y6851368D01*
X32806569Y6872859D01*
X32800500Y6911178D01*
X32800500Y7243255D01*
X32800500Y7243266D01*
X32797713Y7290052D01*
X32797016Y7293255D01*
X32753446Y7493544D01*
X32753443Y7493555D01*
X32671464Y7684994D01*
X32671463Y7684996D01*
X32671462Y7684998D01*
X32554731Y7857469D01*
X32407469Y8004731D01*
X32234998Y8121462D01*
X32234996Y8121463D01*
X32234993Y8121465D01*
X32043554Y8203444D01*
X32043543Y8203447D01*
X31840057Y8247713D01*
X31825431Y8248584D01*
X31793266Y8250500D01*
X31793255Y8250500D01*
X31671890Y8250500D01*
X31604851Y8270185D01*
X31559096Y8322989D01*
X31549152Y8392147D01*
X31578177Y8455703D01*
X31584209Y8462181D01*
X31994518Y8872490D01*
X32494518Y9372490D01*
X32633343Y9563567D01*
X32740568Y9774008D01*
X32813553Y9998632D01*
X32815093Y10008353D01*
X32850500Y10231903D01*
X32850500Y10701330D01*
X33700000Y10701330D01*
X33715185Y10585981D01*
X33715187Y10585976D01*
X33774633Y10442459D01*
X33774633Y10442458D01*
X33869207Y10319208D01*
X33992458Y10224634D01*
X34135975Y10165188D01*
X34135980Y10165186D01*
X34251329Y10150000D01*
X34400000Y10150000D01*
X34400000Y11150000D01*
X33700000Y11150000D01*
X33700000Y10701330D01*
X32850500Y10701330D01*
X32850500Y11518098D01*
X32813553Y11751369D01*
X32806569Y11772863D01*
X32800500Y11811182D01*
X32800500Y12098671D01*
X33700000Y12098671D01*
X33700000Y11650000D01*
X34400000Y11650000D01*
X34900000Y11650000D01*
X35600000Y11650000D01*
X35600000Y12098671D01*
X35584814Y12214020D01*
X35584812Y12214025D01*
X35525366Y12357542D01*
X35525366Y12357543D01*
X35430792Y12480793D01*
X35307541Y12575367D01*
X35164024Y12634813D01*
X35164019Y12634815D01*
X35048671Y12650000D01*
X34900000Y12650000D01*
X34900000Y11650000D01*
X34400000Y11650000D01*
X34400000Y12650000D01*
X34251329Y12650000D01*
X34135980Y12634815D01*
X34135975Y12634813D01*
X33992458Y12575367D01*
X33992457Y12575367D01*
X33869207Y12480793D01*
X33774633Y12357543D01*
X33774633Y12357542D01*
X33715187Y12214025D01*
X33715185Y12214020D01*
X33700000Y12098671D01*
X32800500Y12098671D01*
X32800500Y12143255D01*
X32800500Y12143266D01*
X32797713Y12190052D01*
X32797016Y12193255D01*
X32753446Y12393544D01*
X32753443Y12393555D01*
X32747453Y12407542D01*
X32694674Y12530793D01*
X32671464Y12584994D01*
X32671463Y12584996D01*
X32671462Y12584998D01*
X32554731Y12757469D01*
X32407469Y12904731D01*
X32234998Y13021462D01*
X32234996Y13021463D01*
X32234993Y13021465D01*
X32043554Y13103444D01*
X32043543Y13103447D01*
X31840057Y13147713D01*
X31825431Y13148584D01*
X31793266Y13150500D01*
X30906734Y13150500D01*
X30876460Y13148697D01*
X30859942Y13147713D01*
X30656456Y13103447D01*
X30656445Y13103444D01*
X30465006Y13021465D01*
X30292530Y12904731D01*
X30145269Y12757470D01*
X30028535Y12584994D01*
X29946556Y12393555D01*
X29946553Y12393544D01*
X29902287Y12190058D01*
X29902287Y12190052D01*
X29899500Y12143266D01*
X29899500Y12143255D01*
X29899500Y11811182D01*
X29893431Y11772863D01*
X29886446Y11751369D01*
X29849500Y11518098D01*
X29849500Y11022890D01*
X29829815Y10955851D01*
X29813181Y10935209D01*
X29811681Y10933709D01*
X29750358Y10900224D01*
X29680666Y10905208D01*
X29624733Y10947080D01*
X29600316Y11012544D01*
X29600000Y11021390D01*
X29600000Y11150000D01*
X28900000Y11150000D01*
X28900000Y10130301D01*
X28909790Y10112372D01*
X28904806Y10042680D01*
X28876305Y9998333D01*
X27505484Y8627512D01*
X27366657Y8436435D01*
X27278155Y8262738D01*
X27259433Y8225997D01*
X27186446Y8001369D01*
X27149500Y7768098D01*
X27149500Y6381903D01*
X27186446Y6148636D01*
X27186447Y6148631D01*
X27193431Y6127137D01*
X27195426Y6057296D01*
X27159345Y5997464D01*
X27112347Y5974358D01*
X27188486Y5805980D01*
X27199445Y5758587D01*
X27199499Y5756747D01*
X27202287Y5709943D01*
X27235255Y5558394D01*
X27230271Y5488702D01*
X27188399Y5432769D01*
X27122935Y5408352D01*
X27080840Y5412577D01*
X26865688Y5472461D01*
X26844621Y5485583D01*
X26821642Y5494959D01*
X26815481Y5503733D01*
X26806381Y5509401D01*
X26795753Y5531829D01*
X26781491Y5552140D01*
X26780866Y5563244D01*
X26776461Y5572540D01*
X26779167Y5593457D01*
X26777771Y5618277D01*
X26797713Y5709948D01*
X26800500Y5756734D01*
X26800500Y6088822D01*
X26806569Y6127137D01*
X26810365Y6138822D01*
X26813553Y6148632D01*
X26829973Y6252311D01*
X26850500Y6381903D01*
X26850500Y6618098D01*
X26813553Y6851370D01*
X26806569Y6872864D01*
X26800500Y6911183D01*
X26800500Y7243255D01*
X26800500Y7243266D01*
X26797713Y7290052D01*
X26797016Y7293255D01*
X26753446Y7493544D01*
X26753443Y7493555D01*
X26671464Y7684994D01*
X26671463Y7684996D01*
X26671462Y7684998D01*
X26554731Y7857469D01*
X26407469Y8004731D01*
X26234998Y8121462D01*
X26234996Y8121463D01*
X26234993Y8121465D01*
X26043554Y8203444D01*
X26043543Y8203447D01*
X25840057Y8247713D01*
X25825431Y8248584D01*
X25793266Y8250500D01*
X25793255Y8250500D01*
X25671890Y8250500D01*
X25604851Y8270185D01*
X25559096Y8322989D01*
X25549152Y8392147D01*
X25578177Y8455703D01*
X25584209Y8462181D01*
X25994518Y8872490D01*
X26494518Y9372490D01*
X26633343Y9563567D01*
X26740568Y9774008D01*
X26813553Y9998632D01*
X26815093Y10008353D01*
X26850500Y10231903D01*
X26850500Y10701330D01*
X27700000Y10701330D01*
X27715185Y10585981D01*
X27715187Y10585976D01*
X27774633Y10442459D01*
X27774633Y10442458D01*
X27869207Y10319208D01*
X27992458Y10224634D01*
X28135975Y10165188D01*
X28135980Y10165186D01*
X28251329Y10150000D01*
X28400000Y10150000D01*
X28400000Y11150000D01*
X27700000Y11150000D01*
X27700000Y10701330D01*
X26850500Y10701330D01*
X26850500Y11518098D01*
X26813553Y11751369D01*
X26806569Y11772863D01*
X26800500Y11811182D01*
X26800500Y12098671D01*
X27700000Y12098671D01*
X27700000Y11650000D01*
X28400000Y11650000D01*
X28900000Y11650000D01*
X29600000Y11650000D01*
X29600000Y12098671D01*
X29584814Y12214020D01*
X29584812Y12214025D01*
X29525366Y12357542D01*
X29525366Y12357543D01*
X29430792Y12480793D01*
X29307541Y12575367D01*
X29164024Y12634813D01*
X29164019Y12634815D01*
X29048671Y12650000D01*
X28900000Y12650000D01*
X28900000Y11650000D01*
X28400000Y11650000D01*
X28400000Y12650000D01*
X28251329Y12650000D01*
X28135980Y12634815D01*
X28135975Y12634813D01*
X27992458Y12575367D01*
X27992457Y12575367D01*
X27869207Y12480793D01*
X27774633Y12357543D01*
X27774633Y12357542D01*
X27715187Y12214025D01*
X27715185Y12214020D01*
X27700000Y12098671D01*
X26800500Y12098671D01*
X26800500Y12143255D01*
X26800500Y12143266D01*
X26797713Y12190052D01*
X26797016Y12193255D01*
X26753446Y12393544D01*
X26753443Y12393555D01*
X26747453Y12407542D01*
X26694674Y12530793D01*
X26671464Y12584994D01*
X26671463Y12584996D01*
X26671462Y12584998D01*
X26554731Y12757469D01*
X26407469Y12904731D01*
X26234998Y13021462D01*
X26234996Y13021463D01*
X26234993Y13021465D01*
X26043554Y13103444D01*
X26043543Y13103447D01*
X25840057Y13147713D01*
X25825431Y13148584D01*
X25793266Y13150500D01*
X24906734Y13150500D01*
X24876460Y13148697D01*
X24859942Y13147713D01*
X24656456Y13103447D01*
X24656445Y13103444D01*
X24465006Y13021465D01*
X24292530Y12904731D01*
X24145269Y12757470D01*
X24028535Y12584994D01*
X23946556Y12393555D01*
X23946553Y12393544D01*
X23902287Y12190058D01*
X23902287Y12190052D01*
X23899500Y12143266D01*
X23899500Y12143255D01*
X23899500Y11811182D01*
X23893431Y11772863D01*
X23886446Y11751369D01*
X23849500Y11518098D01*
X23849500Y11022890D01*
X23829815Y10955851D01*
X23813181Y10935209D01*
X23811681Y10933709D01*
X23750358Y10900224D01*
X23680666Y10905208D01*
X23624733Y10947080D01*
X23600316Y11012544D01*
X23600000Y11021390D01*
X23600000Y11150000D01*
X22900000Y11150000D01*
X22900000Y10130301D01*
X22909790Y10112372D01*
X22904806Y10042680D01*
X22876305Y9998333D01*
X21505484Y8627512D01*
X21366657Y8436435D01*
X21278155Y8262738D01*
X21259433Y8225997D01*
X21186446Y8001369D01*
X21149500Y7768098D01*
X21149500Y6381903D01*
X21186446Y6148636D01*
X21186447Y6148631D01*
X21193431Y6127137D01*
X21195426Y6057296D01*
X21159345Y5997464D01*
X21112347Y5974358D01*
X21188486Y5805980D01*
X21199445Y5758587D01*
X21199499Y5756747D01*
X21202287Y5709943D01*
X21235255Y5558394D01*
X21230271Y5488702D01*
X21188399Y5432769D01*
X21122935Y5408352D01*
X21080840Y5412577D01*
X20865688Y5472461D01*
X20844621Y5485583D01*
X20821642Y5494959D01*
X20815481Y5503733D01*
X20806381Y5509401D01*
X20795753Y5531829D01*
X20781491Y5552140D01*
X20780866Y5563244D01*
X20776461Y5572540D01*
X20779167Y5593457D01*
X20777771Y5618277D01*
X20797713Y5709948D01*
X20800500Y5756734D01*
X20800500Y6088822D01*
X20806569Y6127137D01*
X20810365Y6138822D01*
X20813553Y6148632D01*
X20829973Y6252311D01*
X20850500Y6381903D01*
X20850500Y6618098D01*
X20813553Y6851370D01*
X20806569Y6872864D01*
X20800500Y6911183D01*
X20800500Y7243255D01*
X20800500Y7243266D01*
X20797713Y7290052D01*
X20797016Y7293255D01*
X20753446Y7493544D01*
X20753443Y7493555D01*
X20671464Y7684994D01*
X20671463Y7684996D01*
X20671462Y7684998D01*
X20554731Y7857469D01*
X20407469Y8004731D01*
X20234998Y8121462D01*
X20234996Y8121463D01*
X20234993Y8121465D01*
X20043554Y8203444D01*
X20043543Y8203447D01*
X19840057Y8247713D01*
X19825431Y8248584D01*
X19793266Y8250500D01*
X19793255Y8250500D01*
X19671890Y8250500D01*
X19604851Y8270185D01*
X19559096Y8322989D01*
X19549152Y8392147D01*
X19578177Y8455703D01*
X19584209Y8462181D01*
X19994518Y8872490D01*
X20494518Y9372490D01*
X20633343Y9563567D01*
X20740568Y9774008D01*
X20813553Y9998632D01*
X20815093Y10008353D01*
X20850500Y10231903D01*
X20850500Y10701330D01*
X21700000Y10701330D01*
X21715185Y10585981D01*
X21715187Y10585976D01*
X21774633Y10442459D01*
X21774633Y10442458D01*
X21869207Y10319208D01*
X21992458Y10224634D01*
X22135975Y10165188D01*
X22135980Y10165186D01*
X22251329Y10150000D01*
X22400000Y10150000D01*
X22400000Y11150000D01*
X21700000Y11150000D01*
X21700000Y10701330D01*
X20850500Y10701330D01*
X20850500Y11518098D01*
X20813553Y11751369D01*
X20806569Y11772863D01*
X20800500Y11811182D01*
X20800500Y12098671D01*
X21700000Y12098671D01*
X21700000Y11650000D01*
X22400000Y11650000D01*
X22900000Y11650000D01*
X23600000Y11650000D01*
X23600000Y12098671D01*
X23584814Y12214020D01*
X23584812Y12214025D01*
X23525366Y12357542D01*
X23525366Y12357543D01*
X23430792Y12480793D01*
X23307541Y12575367D01*
X23164024Y12634813D01*
X23164019Y12634815D01*
X23048671Y12650000D01*
X22900000Y12650000D01*
X22900000Y11650000D01*
X22400000Y11650000D01*
X22400000Y12650000D01*
X22251329Y12650000D01*
X22135980Y12634815D01*
X22135975Y12634813D01*
X21992458Y12575367D01*
X21992457Y12575367D01*
X21869207Y12480793D01*
X21774633Y12357543D01*
X21774633Y12357542D01*
X21715187Y12214025D01*
X21715185Y12214020D01*
X21700000Y12098671D01*
X20800500Y12098671D01*
X20800500Y12143255D01*
X20800500Y12143266D01*
X20797713Y12190052D01*
X20797016Y12193255D01*
X20753446Y12393544D01*
X20753443Y12393555D01*
X20747453Y12407542D01*
X20694674Y12530793D01*
X20671464Y12584994D01*
X20671463Y12584996D01*
X20671462Y12584998D01*
X20554731Y12757469D01*
X20407469Y12904731D01*
X20234998Y13021462D01*
X20234996Y13021463D01*
X20234993Y13021465D01*
X20043554Y13103444D01*
X20043543Y13103447D01*
X19840057Y13147713D01*
X19825431Y13148584D01*
X19793266Y13150500D01*
X18906734Y13150500D01*
X18876460Y13148697D01*
X18859942Y13147713D01*
X18656456Y13103447D01*
X18656445Y13103444D01*
X18465006Y13021465D01*
X18292530Y12904731D01*
X18145269Y12757470D01*
X18028535Y12584994D01*
X17946556Y12393555D01*
X17946553Y12393544D01*
X17902287Y12190058D01*
X17902287Y12190052D01*
X17899500Y12143266D01*
X17899500Y12143255D01*
X17899500Y11811182D01*
X17893431Y11772863D01*
X17886446Y11751369D01*
X17849500Y11518098D01*
X17849500Y11022890D01*
X17829815Y10955851D01*
X17813181Y10935209D01*
X17811681Y10933709D01*
X17750358Y10900224D01*
X17680666Y10905208D01*
X17624733Y10947080D01*
X17600316Y11012544D01*
X17600000Y11021390D01*
X17600000Y11150000D01*
X16900000Y11150000D01*
X16900000Y10130301D01*
X16909790Y10112372D01*
X16904806Y10042680D01*
X16876305Y9998333D01*
X15505484Y8627512D01*
X15366657Y8436435D01*
X15278155Y8262738D01*
X15259433Y8225997D01*
X15186446Y8001369D01*
X15149500Y7768098D01*
X15149500Y6381903D01*
X15186446Y6148636D01*
X15186447Y6148631D01*
X15193431Y6127137D01*
X15195426Y6057296D01*
X15159345Y5997464D01*
X15112347Y5974358D01*
X15188486Y5805980D01*
X15199445Y5758587D01*
X15199499Y5756747D01*
X15202287Y5709943D01*
X15235255Y5558394D01*
X15230271Y5488702D01*
X15188399Y5432769D01*
X15122935Y5408352D01*
X15080840Y5412577D01*
X14865688Y5472461D01*
X14844621Y5485583D01*
X14821642Y5494959D01*
X14815481Y5503733D01*
X14806381Y5509401D01*
X14795753Y5531829D01*
X14781491Y5552140D01*
X14780866Y5563244D01*
X14776461Y5572540D01*
X14779167Y5593457D01*
X14777771Y5618277D01*
X14797713Y5709948D01*
X14800500Y5756734D01*
X14800500Y6088822D01*
X14806569Y6127137D01*
X14810365Y6138822D01*
X14813553Y6148632D01*
X14829973Y6252311D01*
X14850500Y6381903D01*
X14850500Y6618098D01*
X14813553Y6851370D01*
X14806569Y6872864D01*
X14800500Y6911183D01*
X14800500Y7243255D01*
X14800500Y7243266D01*
X14797713Y7290052D01*
X14797016Y7293255D01*
X14753446Y7493544D01*
X14753443Y7493555D01*
X14671464Y7684994D01*
X14671463Y7684996D01*
X14671462Y7684998D01*
X14554731Y7857469D01*
X14407469Y8004731D01*
X14234998Y8121462D01*
X14234993Y8121464D01*
X14234992Y8121465D01*
X14059274Y8196712D01*
X14005396Y8241197D01*
X13984122Y8307749D01*
X14002206Y8375238D01*
X14020401Y8398376D01*
X14494517Y8872490D01*
X14633343Y9063566D01*
X14740568Y9274007D01*
X14800582Y9458712D01*
X14813553Y9498632D01*
X14837448Y9649500D01*
X14850500Y9731903D01*
X14850500Y10701330D01*
X15700000Y10701330D01*
X15715185Y10585981D01*
X15715187Y10585976D01*
X15774633Y10442459D01*
X15774633Y10442458D01*
X15869207Y10319208D01*
X15992458Y10224634D01*
X16135975Y10165188D01*
X16135980Y10165186D01*
X16251329Y10150000D01*
X16400000Y10150000D01*
X16400000Y11150000D01*
X15700000Y11150000D01*
X15700000Y10701330D01*
X14850500Y10701330D01*
X14850500Y11518098D01*
X14813553Y11751369D01*
X14806569Y11772863D01*
X14800500Y11811182D01*
X14800500Y12098671D01*
X15700000Y12098671D01*
X15700000Y11650000D01*
X16400000Y11650000D01*
X16900000Y11650000D01*
X17600000Y11650000D01*
X17600000Y12098671D01*
X17584814Y12214020D01*
X17584812Y12214025D01*
X17525366Y12357542D01*
X17525366Y12357543D01*
X17430792Y12480793D01*
X17307541Y12575367D01*
X17164024Y12634813D01*
X17164019Y12634815D01*
X17048671Y12650000D01*
X16900000Y12650000D01*
X16900000Y11650000D01*
X16400000Y11650000D01*
X16400000Y12650000D01*
X16251329Y12650000D01*
X16135980Y12634815D01*
X16135975Y12634813D01*
X15992458Y12575367D01*
X15992457Y12575367D01*
X15869207Y12480793D01*
X15774633Y12357543D01*
X15774633Y12357542D01*
X15715187Y12214025D01*
X15715185Y12214020D01*
X15700000Y12098671D01*
X14800500Y12098671D01*
X14800500Y12143255D01*
X14800500Y12143266D01*
X14797713Y12190052D01*
X14797016Y12193255D01*
X14753446Y12393544D01*
X14753443Y12393555D01*
X14747453Y12407542D01*
X14694674Y12530793D01*
X14671464Y12584994D01*
X14671463Y12584996D01*
X14671462Y12584998D01*
X14554731Y12757469D01*
X14407469Y12904731D01*
X14234998Y13021462D01*
X14234996Y13021463D01*
X14234993Y13021465D01*
X14043554Y13103444D01*
X14043543Y13103447D01*
X13840057Y13147713D01*
X13825431Y13148584D01*
X13793266Y13150500D01*
X12906734Y13150500D01*
X12876460Y13148697D01*
X12859942Y13147713D01*
X12656456Y13103447D01*
X12656445Y13103444D01*
X12465006Y13021465D01*
X12292530Y12904731D01*
X12145269Y12757470D01*
X12028535Y12584994D01*
X11951574Y12405271D01*
X11907089Y12351393D01*
X11840537Y12330119D01*
X11773048Y12348203D01*
X11739210Y12378597D01*
X11660792Y12480793D01*
X11537541Y12575367D01*
X11394024Y12634813D01*
X11394019Y12634815D01*
X11278671Y12650000D01*
X11130000Y12650000D01*
X11130000Y10150000D01*
X11228611Y10150000D01*
X11295650Y10130315D01*
X11341405Y10077511D01*
X11351349Y10008353D01*
X11322324Y9944797D01*
X11316292Y9938319D01*
X9735485Y8357513D01*
X9735484Y8357512D01*
X9596655Y8166433D01*
X9531250Y8038065D01*
X9531250Y8038064D01*
X9489433Y7955997D01*
X9416446Y7731369D01*
X9379500Y7498098D01*
X9379500Y6381903D01*
X9416446Y6148636D01*
X9416447Y6148631D01*
X9423431Y6127137D01*
X9425426Y6057296D01*
X9389345Y5997464D01*
X9342347Y5974358D01*
X9418486Y5805980D01*
X9429445Y5758587D01*
X9429499Y5756747D01*
X9432287Y5709943D01*
X9465643Y5556609D01*
X9460659Y5486917D01*
X9418787Y5430984D01*
X9353323Y5406567D01*
X9310639Y5410957D01*
X9094990Y5472127D01*
X9074237Y5485196D01*
X9051531Y5494461D01*
X9045195Y5503484D01*
X9035866Y5509359D01*
X9025473Y5531572D01*
X9011381Y5551643D01*
X9010738Y5563068D01*
X9006258Y5572645D01*
X9009037Y5593325D01*
X9007662Y5617777D01*
X9027713Y5709948D01*
X9030500Y5756734D01*
X9030500Y6088822D01*
X9036569Y6127137D01*
X9040365Y6138822D01*
X9043553Y6148632D01*
X9059973Y6252311D01*
X9080500Y6381903D01*
X9080500Y6618098D01*
X9043553Y6851370D01*
X9036569Y6872864D01*
X9030500Y6911183D01*
X9030500Y7243255D01*
X9030500Y7243266D01*
X9027713Y7290052D01*
X9027016Y7293255D01*
X8983446Y7493544D01*
X8983443Y7493555D01*
X8901464Y7684994D01*
X8901463Y7684996D01*
X8901462Y7684998D01*
X8784731Y7857469D01*
X8637469Y8004731D01*
X8464998Y8121462D01*
X8464996Y8121463D01*
X8464993Y8121465D01*
X8273554Y8203444D01*
X8273543Y8203447D01*
X8127428Y8235232D01*
X8066105Y8268717D01*
X8032620Y8330040D01*
X8037604Y8399731D01*
X8066103Y8444077D01*
X8724517Y9102490D01*
X8863343Y9293566D01*
X8970568Y9504008D01*
X9017841Y9649500D01*
X9043553Y9728632D01*
X9059973Y9832311D01*
X9080500Y9961903D01*
X9080500Y10701330D01*
X9930000Y10701330D01*
X9945185Y10585981D01*
X9945187Y10585976D01*
X10004633Y10442459D01*
X10004633Y10442458D01*
X10099207Y10319208D01*
X10222458Y10224634D01*
X10365975Y10165188D01*
X10365980Y10165186D01*
X10481329Y10150000D01*
X10630000Y10150000D01*
X10630000Y11150000D01*
X9930000Y11150000D01*
X9930000Y10701330D01*
X9080500Y10701330D01*
X9080500Y11518098D01*
X9043553Y11751369D01*
X9036569Y11772863D01*
X9030500Y11811182D01*
X9030500Y12098671D01*
X9930000Y12098671D01*
X9930000Y11650000D01*
X10630000Y11650000D01*
X10630000Y12650000D01*
X10481329Y12650000D01*
X10365980Y12634815D01*
X10365975Y12634813D01*
X10222458Y12575367D01*
X10222457Y12575367D01*
X10099207Y12480793D01*
X10004633Y12357543D01*
X10004633Y12357542D01*
X9945187Y12214025D01*
X9945185Y12214020D01*
X9930000Y12098671D01*
X9030500Y12098671D01*
X9030500Y12143255D01*
X9030500Y12143266D01*
X9027713Y12190052D01*
X9027016Y12193255D01*
X8983446Y12393544D01*
X8983443Y12393555D01*
X8977453Y12407542D01*
X8924674Y12530793D01*
X8901464Y12584994D01*
X8901463Y12584996D01*
X8901462Y12584998D01*
X8784731Y12757469D01*
X8637469Y12904731D01*
X8464998Y13021462D01*
X8464996Y13021463D01*
X8464993Y13021465D01*
X8273554Y13103444D01*
X8273543Y13103447D01*
X8070057Y13147713D01*
X8055431Y13148584D01*
X8023266Y13150500D01*
X7136734Y13150500D01*
X7106460Y13148697D01*
X7089942Y13147713D01*
X6886456Y13103447D01*
X6886445Y13103444D01*
X6695006Y13021465D01*
X6522530Y12904731D01*
X6375269Y12757470D01*
X6258535Y12584994D01*
X6176556Y12393555D01*
X6176553Y12393544D01*
X6132287Y12190058D01*
X6132287Y12190052D01*
X6129500Y12143266D01*
X6129500Y12143255D01*
X6129500Y11811182D01*
X6123431Y11772863D01*
X6116446Y11751369D01*
X6079500Y11518098D01*
X6079500Y10752890D01*
X6059815Y10685851D01*
X6043181Y10665209D01*
X5470900Y10092929D01*
X5409577Y10059444D01*
X5339885Y10064428D01*
X5283952Y10106300D01*
X5263446Y10148513D01*
X5256054Y10176100D01*
X5163224Y10400212D01*
X5041936Y10610289D01*
X4894265Y10802738D01*
X4894260Y10802744D01*
X4722743Y10974261D01*
X4570434Y11091132D01*
X4529232Y11147560D01*
X4525077Y11217306D01*
X4545603Y11262394D01*
X4654622Y11412446D01*
X4751095Y11601783D01*
X4816757Y11803870D01*
X4816757Y11803873D01*
X4850000Y12013754D01*
X4850000Y12226247D01*
X4816757Y12436128D01*
X4816757Y12436131D01*
X4751095Y12638218D01*
X4654624Y12827551D01*
X4615270Y12881718D01*
X4615269Y12881718D01*
X3982962Y12249411D01*
X3965925Y12312993D01*
X3900099Y12427007D01*
X3807007Y12520099D01*
X3692993Y12585925D01*
X3629409Y12602963D01*
X4261716Y13235272D01*
X4207550Y13274625D01*
X4018217Y13371096D01*
X3816129Y13436758D01*
X3606246Y13470000D01*
X3393754Y13470000D01*
X3183872Y13436758D01*
X3183869Y13436758D01*
X2981782Y13371096D01*
X2792439Y13274620D01*
X2738282Y13235273D01*
X2738282Y13235272D01*
X3370591Y12602963D01*
X3307007Y12585925D01*
X3192993Y12520099D01*
X3099901Y12427007D01*
X3034075Y12312993D01*
X3017037Y12249409D01*
X2384728Y12881718D01*
X2384727Y12881718D01*
X2345380Y12827561D01*
X2248904Y12638218D01*
X2183242Y12436131D01*
X2183242Y12436128D01*
X2150000Y12226247D01*
X2150000Y12013754D01*
X2183242Y11803873D01*
X2183242Y11803870D01*
X2248904Y11601783D01*
X2345379Y11412443D01*
X2443503Y11277385D01*
X2466983Y11211579D01*
X2451157Y11143525D01*
X2401051Y11094830D01*
X2343185Y11080500D01*
X1961903Y11080500D01*
X1728631Y11043554D01*
X1504003Y10970567D01*
X1293563Y10863341D01*
X1102496Y10724524D01*
X1102491Y10724520D01*
X712181Y10334209D01*
X650858Y10300724D01*
X581166Y10305708D01*
X525233Y10347580D01*
X500816Y10413044D01*
X500500Y10421890D01*
X500500Y14375500D01*
X520185Y14442539D01*
X572989Y14488294D01*
X624500Y14499500D01*
X48375500Y14499500D01*
X48442539Y14479815D01*
G37*
%TD.AperFunction*%
%TA.AperFunction,Conductor*%
G36*
X44693039Y4480315D02*
G01*
X44738794Y4427511D01*
X44750000Y4376000D01*
X44750000Y3525001D01*
X44773308Y3525001D01*
X44773322Y3525002D01*
X44872605Y3535144D01*
X44986495Y3572884D01*
X45056324Y3575286D01*
X45116366Y3539555D01*
X45147559Y3477034D01*
X45149500Y3455178D01*
X45149500Y3322889D01*
X45129815Y3255850D01*
X45113181Y3235208D01*
X44414792Y2536819D01*
X44353469Y2503334D01*
X44327111Y2500500D01*
X43371889Y2500500D01*
X43304850Y2520185D01*
X43259095Y2572989D01*
X43249151Y2642147D01*
X43278176Y2705703D01*
X43284208Y2712181D01*
X43571526Y2999500D01*
X43710651Y3138626D01*
X43747047Y3163841D01*
X43782239Y3179824D01*
X43963567Y3305449D01*
X44119551Y3461433D01*
X44126604Y3471614D01*
X44180958Y3515511D01*
X44228531Y3525001D01*
X44250000Y3525002D01*
X44250000Y3626541D01*
X44261101Y3677822D01*
X44336403Y3843605D01*
X44336404Y3843607D01*
X44390304Y4057515D01*
X44391184Y4068698D01*
X44396870Y4097293D01*
X44413553Y4148632D01*
X44450500Y4381908D01*
X44450500Y4381914D01*
X44450801Y4385729D01*
X44475685Y4451018D01*
X44531916Y4492488D01*
X44574419Y4500000D01*
X44626000Y4500000D01*
X44693039Y4480315D01*
G37*
%TD.AperFunction*%
%TD*%
M02*
