%TF.GenerationSoftware,KiCad,Pcbnew,9.0.6*%
%TF.CreationDate,2026-03-17T19:15:20-06:00*%
%TF.ProjectId,Saber_V1,53616265-725f-4563-912e-6b696361645f,rev?*%
%TF.SameCoordinates,PX73df160PY6516e80*%
%TF.FileFunction,Paste,Top*%
%TF.FilePolarity,Positive*%
%FSLAX46Y46*%
G04 Gerber Fmt 4.6, Leading zero omitted, Abs format (unit mm)*
G04 Created by KiCad (PCBNEW 9.0.6) date 2026-03-17 19:15:20*
%MOMM*%
%LPD*%
G01*
G04 APERTURE LIST*
G04 Aperture macros list*
%AMRoundRect*
0 Rectangle with rounded corners*
0 $1 Rounding radius*
0 $2 $3 $4 $5 $6 $7 $8 $9 X,Y pos of 4 corners*
0 Add a 4 corners polygon primitive as box body*
4,1,4,$2,$3,$4,$5,$6,$7,$8,$9,$2,$3,0*
0 Add four circle primitives for the rounded corners*
1,1,$1+$1,$2,$3*
1,1,$1+$1,$4,$5*
1,1,$1+$1,$6,$7*
1,1,$1+$1,$8,$9*
0 Add four rect primitives between the rounded corners*
20,1,$1+$1,$2,$3,$4,$5,0*
20,1,$1+$1,$4,$5,$6,$7,0*
20,1,$1+$1,$6,$7,$8,$9,0*
20,1,$1+$1,$8,$9,$2,$3,0*%
G04 Aperture macros list end*
%ADD10R,0.800000X1.800000*%
%ADD11R,0.800000X0.900000*%
%ADD12RoundRect,0.200000X-0.200000X-0.275000X0.200000X-0.275000X0.200000X0.275000X-0.200000X0.275000X0*%
%ADD13RoundRect,0.200000X0.275000X-0.200000X0.275000X0.200000X-0.275000X0.200000X-0.275000X-0.200000X0*%
%ADD14RoundRect,0.200000X0.200000X0.275000X-0.200000X0.275000X-0.200000X-0.275000X0.200000X-0.275000X0*%
G04 APERTURE END LIST*
D10*
%TO.C,D8*%
X9775523Y11571939D03*
D11*
X9775523Y13401939D03*
%TD*%
D12*
%TO.C,R8*%
X20175000Y3267311D03*
X21825000Y3267311D03*
%TD*%
D10*
%TO.C,D50*%
X44155294Y23890873D03*
D11*
X44155294Y22060873D03*
%TD*%
D12*
%TO.C,R17*%
X45055955Y26568201D03*
X46705955Y26568201D03*
%TD*%
D10*
%TO.C,D17*%
X13226091Y5944419D03*
D11*
X13226091Y7774419D03*
%TD*%
D10*
%TO.C,D60*%
X50985169Y5927605D03*
D11*
X50985169Y7757605D03*
%TD*%
D10*
%TO.C,D70*%
X57890788Y11572499D03*
D11*
X57890788Y13402499D03*
%TD*%
D12*
%TO.C,R14*%
X34720244Y3205964D03*
X36370244Y3205964D03*
%TD*%
%TO.C,R30*%
X72675000Y26500000D03*
X74325000Y26500000D03*
%TD*%
D10*
%TO.C,D48*%
X40660541Y5943591D03*
D11*
X40660541Y7773591D03*
%TD*%
D10*
%TO.C,D82*%
X68158822Y11581814D03*
D11*
X68158822Y13411814D03*
%TD*%
D10*
%TO.C,D76*%
X64736586Y11571344D03*
D11*
X64736586Y13401344D03*
%TD*%
D10*
%TO.C,D61*%
X54450830Y18501461D03*
D11*
X54450830Y16671461D03*
%TD*%
D10*
%TO.C,D41*%
X33781474Y5955446D03*
D11*
X33781474Y7785446D03*
%TD*%
D13*
%TO.C,R27*%
X71255427Y26416938D03*
X71255427Y28066938D03*
%TD*%
D10*
%TO.C,D2*%
X2775523Y23951939D03*
D11*
X2775523Y22121939D03*
%TD*%
D10*
%TO.C,D34*%
X26941612Y18486482D03*
D11*
X26941612Y16656482D03*
%TD*%
D10*
%TO.C,D9*%
X9706848Y5941870D03*
D11*
X9706848Y7771870D03*
%TD*%
D10*
%TO.C,D35*%
X30391420Y18496190D03*
D11*
X30391420Y16666190D03*
%TD*%
D10*
%TO.C,D37*%
X33815156Y18490937D03*
D11*
X33815156Y16660937D03*
%TD*%
D10*
%TO.C,D26*%
X23492109Y23928132D03*
D11*
X23492109Y22098132D03*
%TD*%
D10*
%TO.C,D75*%
X68142456Y22443510D03*
D11*
X68142456Y24273510D03*
%TD*%
D10*
%TO.C,D24*%
X20079644Y5956743D03*
D11*
X20079644Y7786743D03*
%TD*%
D10*
%TO.C,D6*%
X6275523Y7311939D03*
D11*
X6275523Y5481939D03*
%TD*%
D10*
%TO.C,D56*%
X51035681Y18474848D03*
D11*
X51035681Y16644848D03*
%TD*%
D10*
%TO.C,D66*%
X57876948Y7375654D03*
D11*
X57876948Y5545654D03*
%TD*%
D10*
%TO.C,D15*%
X16596729Y22571940D03*
D11*
X16596729Y24401940D03*
%TD*%
D12*
%TO.C,R26*%
X65577049Y3317766D03*
X67227049Y3317766D03*
%TD*%
%TO.C,R5*%
X14067232Y26670933D03*
X15717232Y26670933D03*
%TD*%
D10*
%TO.C,D7*%
X6275523Y11571939D03*
D11*
X6275523Y13401939D03*
%TD*%
D10*
%TO.C,D55*%
X47590750Y18478395D03*
D11*
X47590750Y16648395D03*
%TD*%
D10*
%TO.C,D58*%
X47563615Y11547467D03*
D11*
X47563615Y13377467D03*
%TD*%
D10*
%TO.C,D74*%
X64729935Y23831478D03*
D11*
X64729935Y22001478D03*
%TD*%
D10*
%TO.C,D19*%
X16623034Y18475500D03*
D11*
X16623034Y16645500D03*
%TD*%
D10*
%TO.C,D69*%
X61311077Y23834009D03*
D11*
X61311077Y22004009D03*
%TD*%
D12*
%TO.C,R3*%
X9675000Y3190203D03*
X11325000Y3190203D03*
%TD*%
D10*
%TO.C,D28*%
X23520786Y11576733D03*
D11*
X23520786Y13406733D03*
%TD*%
D10*
%TO.C,D4*%
X2775523Y11571939D03*
D11*
X2775523Y13401939D03*
%TD*%
D12*
%TO.C,R11*%
X30675000Y3239309D03*
X32325000Y3239309D03*
%TD*%
D10*
%TO.C,D31*%
X26917210Y11571940D03*
D11*
X26917210Y13401940D03*
%TD*%
D10*
%TO.C,D84*%
X71500000Y6000000D03*
D11*
X71500000Y7830000D03*
%TD*%
D12*
%TO.C,R13*%
X34761817Y26617630D03*
X36411817Y26617630D03*
%TD*%
D10*
%TO.C,D38*%
X33829340Y23917317D03*
D11*
X33829340Y22087317D03*
%TD*%
D10*
%TO.C,D23*%
X20108985Y11556750D03*
D11*
X20108985Y13386750D03*
%TD*%
D10*
%TO.C,D49*%
X44163647Y18493063D03*
D11*
X44163647Y16663063D03*
%TD*%
D10*
%TO.C,D27*%
X26958804Y22564047D03*
D11*
X26958804Y24394047D03*
%TD*%
D10*
%TO.C,D80*%
X71555874Y18551780D03*
D11*
X71555874Y16721780D03*
%TD*%
D10*
%TO.C,D68*%
X61321727Y18523392D03*
D11*
X61321727Y16693392D03*
%TD*%
D10*
%TO.C,D32*%
X30361990Y11588435D03*
D11*
X30361990Y13418435D03*
%TD*%
D10*
%TO.C,D81*%
X71554904Y23821255D03*
D11*
X71554904Y21991255D03*
%TD*%
D10*
%TO.C,D40*%
X33791198Y11573562D03*
D11*
X33791198Y13403562D03*
%TD*%
D10*
%TO.C,D83*%
X71571868Y11594924D03*
D11*
X71571868Y13424924D03*
%TD*%
D10*
%TO.C,D53*%
X44146547Y5932651D03*
D11*
X44146547Y7762651D03*
%TD*%
D10*
%TO.C,D13*%
X13194470Y18454774D03*
D11*
X13194470Y16624774D03*
%TD*%
D10*
%TO.C,D77*%
X64687756Y6001920D03*
D11*
X64687756Y7831920D03*
%TD*%
D10*
%TO.C,D71*%
X61308457Y11563579D03*
D11*
X61308457Y13393579D03*
%TD*%
D10*
%TO.C,D10*%
X6275523Y18451939D03*
D11*
X6275523Y16621939D03*
%TD*%
D10*
%TO.C,D21*%
X20034620Y23935925D03*
D11*
X20034620Y22105925D03*
%TD*%
D10*
%TO.C,D45*%
X40749660Y23891911D03*
D11*
X40749660Y22061911D03*
%TD*%
D10*
%TO.C,D42*%
X37247314Y7327533D03*
D11*
X37247314Y5497533D03*
%TD*%
D10*
%TO.C,D43*%
X37268499Y18487137D03*
D11*
X37268499Y16657137D03*
%TD*%
D10*
%TO.C,D11*%
X9775523Y18451939D03*
D11*
X9775523Y16621939D03*
%TD*%
D12*
%TO.C,R29*%
X72675000Y28000000D03*
X74325000Y28000000D03*
%TD*%
D10*
%TO.C,D65*%
X54420762Y5983249D03*
D11*
X54420762Y7813249D03*
%TD*%
D12*
%TO.C,R2*%
X3685590Y3171137D03*
X5335590Y3171137D03*
%TD*%
D10*
%TO.C,D30*%
X26940438Y7337089D03*
D11*
X26940438Y5507089D03*
%TD*%
D10*
%TO.C,D47*%
X40721164Y11562701D03*
D11*
X40721164Y13392701D03*
%TD*%
D10*
%TO.C,D18*%
X16676625Y7329176D03*
D11*
X16676625Y5499176D03*
%TD*%
D10*
%TO.C,D14*%
X13166248Y23951939D03*
D11*
X13166248Y22121939D03*
%TD*%
D10*
%TO.C,D5*%
X2775523Y5931939D03*
D11*
X2775523Y7761939D03*
%TD*%
D12*
%TO.C,R10*%
X24450523Y3261939D03*
X26100523Y3261939D03*
%TD*%
D10*
%TO.C,D67*%
X57884042Y18501854D03*
D11*
X57884042Y16671854D03*
%TD*%
D10*
%TO.C,D57*%
X51054903Y23845898D03*
D11*
X51054903Y22015898D03*
%TD*%
D10*
%TO.C,D72*%
X61296511Y6002803D03*
D11*
X61296511Y7832803D03*
%TD*%
D12*
%TO.C,R6*%
X14450523Y3261939D03*
X16100523Y3261939D03*
%TD*%
D10*
%TO.C,D44*%
X40733936Y18476355D03*
D11*
X40733936Y16646355D03*
%TD*%
D10*
%TO.C,D54*%
X47578750Y7291203D03*
D11*
X47578750Y5461203D03*
%TD*%
D12*
%TO.C,R7*%
X20175000Y26665430D03*
X21825000Y26665430D03*
%TD*%
%TO.C,R1*%
X3722601Y26702624D03*
X5372601Y26702624D03*
%TD*%
%TO.C,R20*%
X51175000Y3207921D03*
X52825000Y3207921D03*
%TD*%
%TO.C,R23*%
X61675000Y26660294D03*
X63325000Y26660294D03*
%TD*%
D10*
%TO.C,D46*%
X37275523Y11571939D03*
D11*
X37275523Y13401939D03*
%TD*%
D12*
%TO.C,R19*%
X51175000Y26621963D03*
X52825000Y26621963D03*
%TD*%
D10*
%TO.C,D78*%
X68095872Y7380134D03*
D11*
X68095872Y5550134D03*
%TD*%
D12*
%TO.C,R21*%
X55336394Y26556291D03*
X56986394Y26556291D03*
%TD*%
D10*
%TO.C,D29*%
X23526915Y5957868D03*
D11*
X23526915Y7787868D03*
%TD*%
D12*
%TO.C,R22*%
X55315877Y3285996D03*
X56965877Y3285996D03*
%TD*%
D10*
%TO.C,D63*%
X57888246Y22468509D03*
D11*
X57888246Y24298509D03*
%TD*%
D10*
%TO.C,D22*%
X16688793Y11568229D03*
D11*
X16688793Y13398229D03*
%TD*%
D10*
%TO.C,D3*%
X6275523Y22571939D03*
D11*
X6275523Y24401939D03*
%TD*%
D12*
%TO.C,R18*%
X45038737Y3241287D03*
X46688737Y3241287D03*
%TD*%
D10*
%TO.C,D16*%
X13275523Y11571939D03*
D11*
X13275523Y13401939D03*
%TD*%
D10*
%TO.C,D12*%
X9743199Y23941098D03*
D11*
X9743199Y22111098D03*
%TD*%
D10*
%TO.C,D62*%
X54464508Y23857447D03*
D11*
X54464508Y22027447D03*
%TD*%
D12*
%TO.C,R16*%
X40675000Y3232885D03*
X42325000Y3232885D03*
%TD*%
D10*
%TO.C,D36*%
X30384138Y23935390D03*
D11*
X30384138Y22105390D03*
%TD*%
D12*
%TO.C,R12*%
X30675000Y26615327D03*
X32325000Y26615327D03*
%TD*%
D10*
%TO.C,D1*%
X2775523Y18451939D03*
D11*
X2775523Y16621939D03*
%TD*%
D12*
%TO.C,R24*%
X61675000Y3302932D03*
X63325000Y3302932D03*
%TD*%
%TO.C,R4*%
X9675000Y26707102D03*
X11325000Y26707102D03*
%TD*%
%TO.C,R15*%
X40675000Y26593530D03*
X42325000Y26593530D03*
%TD*%
%TO.C,R25*%
X65629884Y26519274D03*
X67279884Y26519274D03*
%TD*%
D10*
%TO.C,D79*%
X68141817Y18534780D03*
D11*
X68141817Y16704780D03*
%TD*%
D10*
%TO.C,D73*%
X64732126Y18538732D03*
D11*
X64732126Y16708732D03*
%TD*%
D10*
%TO.C,D39*%
X37292139Y22523329D03*
D11*
X37292139Y24353329D03*
%TD*%
D10*
%TO.C,D59*%
X50986692Y11560726D03*
D11*
X50986692Y13390726D03*
%TD*%
D10*
%TO.C,D64*%
X54434267Y11558680D03*
D11*
X54434267Y13388680D03*
%TD*%
D10*
%TO.C,D51*%
X47597342Y22494649D03*
D11*
X47597342Y24324649D03*
%TD*%
D12*
%TO.C,R9*%
X24399500Y26663305D03*
X26049500Y26663305D03*
%TD*%
D10*
%TO.C,D25*%
X23516713Y18480696D03*
D11*
X23516713Y16650696D03*
%TD*%
D14*
%TO.C,R31*%
X77325000Y26500000D03*
X75675000Y26500000D03*
%TD*%
D12*
%TO.C,R28*%
X71675000Y3296361D03*
X73325000Y3296361D03*
%TD*%
D10*
%TO.C,D52*%
X44162443Y11546161D03*
D11*
X44162443Y13376161D03*
%TD*%
D10*
%TO.C,D20*%
X20058321Y18474029D03*
D11*
X20058321Y16644029D03*
%TD*%
D10*
%TO.C,D33*%
X30352388Y5966623D03*
D11*
X30352388Y7796623D03*
%TD*%
M02*
