%TF.GenerationSoftware,KiCad,Pcbnew,9.0.6*%
%TF.CreationDate,2026-03-15T14:55:48-06:00*%
%TF.ProjectId,Saber_V1,53616265-725f-4563-912e-6b696361645f,rev?*%
%TF.SameCoordinates,PX73df160PY6516e80*%
%TF.FileFunction,Copper,L1,Top*%
%TF.FilePolarity,Positive*%
%FSLAX46Y46*%
G04 Gerber Fmt 4.6, Leading zero omitted, Abs format (unit mm)*
G04 Created by KiCad (PCBNEW 9.0.6) date 2026-03-15 14:55:48*
%MOMM*%
%LPD*%
G01*
G04 APERTURE LIST*
G04 Aperture macros list*
%AMRoundRect*
0 Rectangle with rounded corners*
0 $1 Rounding radius*
0 $2 $3 $4 $5 $6 $7 $8 $9 X,Y pos of 4 corners*
0 Add a 4 corners polygon primitive as box body*
4,1,4,$2,$3,$4,$5,$6,$7,$8,$9,$2,$3,0*
0 Add four circle primitives for the rounded corners*
1,1,$1+$1,$2,$3*
1,1,$1+$1,$4,$5*
1,1,$1+$1,$6,$7*
1,1,$1+$1,$8,$9*
0 Add four rect primitives between the rounded corners*
20,1,$1+$1,$2,$3,$4,$5,0*
20,1,$1+$1,$4,$5,$6,$7,0*
20,1,$1+$1,$6,$7,$8,$9,0*
20,1,$1+$1,$8,$9,$2,$3,0*%
G04 Aperture macros list end*
%TA.AperFunction,SMDPad,CuDef*%
%ADD10RoundRect,0.200000X0.200000X0.275000X-0.200000X0.275000X-0.200000X-0.275000X0.200000X-0.275000X0*%
%TD*%
%TA.AperFunction,SMDPad,CuDef*%
%ADD11RoundRect,0.200000X-0.200000X-0.275000X0.200000X-0.275000X0.200000X0.275000X-0.200000X0.275000X0*%
%TD*%
%TA.AperFunction,SMDPad,CuDef*%
%ADD12RoundRect,0.200000X0.275000X-0.200000X0.275000X0.200000X-0.275000X0.200000X-0.275000X-0.200000X0*%
%TD*%
%TA.AperFunction,ComponentPad*%
%ADD13R,1.700000X1.700000*%
%TD*%
%TA.AperFunction,ComponentPad*%
%ADD14C,1.700000*%
%TD*%
%TA.AperFunction,SMDPad,CuDef*%
%ADD15R,0.800000X1.800000*%
%TD*%
%TA.AperFunction,SMDPad,CuDef*%
%ADD16R,0.800000X0.900000*%
%TD*%
%TA.AperFunction,Conductor*%
%ADD17C,0.500000*%
%TD*%
%TA.AperFunction,Conductor*%
%ADD18C,0.400000*%
%TD*%
G04 APERTURE END LIST*
D10*
%TO.P,R31,1*%
%TO.N,Net-(D85-K)*%
X77325000Y26500000D03*
%TO.P,R31,2*%
%TO.N,Net-(R30-Pad2)*%
X75675000Y26500000D03*
%TD*%
D11*
%TO.P,R30,1*%
%TO.N,Net-(R29-Pad1)*%
X72675000Y26500000D03*
%TO.P,R30,2*%
%TO.N,Net-(R30-Pad2)*%
X74325000Y26500000D03*
%TD*%
%TO.P,R29,1*%
%TO.N,Net-(R29-Pad1)*%
X72675000Y28000000D03*
%TO.P,R29,2*%
%TO.N,GND2*%
X74325000Y28000000D03*
%TD*%
%TO.P,R28,1*%
%TO.N,Net-(D84-K)*%
X71675000Y3296361D03*
%TO.P,R28,2*%
%TO.N,GND*%
X73325000Y3296361D03*
%TD*%
D12*
%TO.P,R27,1*%
%TO.N,Net-(D81-K)*%
X71255427Y26416938D03*
%TO.P,R27,2*%
%TO.N,GND*%
X71255427Y28066938D03*
%TD*%
D11*
%TO.P,R26,1*%
%TO.N,Net-(D77-K)*%
X65577049Y3317766D03*
%TO.P,R26,2*%
%TO.N,Net-(D78-A)*%
X67227049Y3317766D03*
%TD*%
%TO.P,R25,1*%
%TO.N,Net-(D74-K)*%
X65629884Y26519274D03*
%TO.P,R25,2*%
%TO.N,Net-(D75-A)*%
X67279884Y26519274D03*
%TD*%
%TO.P,R24,1*%
%TO.N,Net-(D72-K)*%
X61675000Y3302932D03*
%TO.P,R24,2*%
%TO.N,GND*%
X63325000Y3302932D03*
%TD*%
%TO.P,R23,1*%
%TO.N,Net-(D69-K)*%
X61675000Y26660294D03*
%TO.P,R23,2*%
%TO.N,GND*%
X63325000Y26660294D03*
%TD*%
%TO.P,R22,1*%
%TO.N,Net-(D65-K)*%
X55315877Y3285996D03*
%TO.P,R22,2*%
%TO.N,Net-(D66-A)*%
X56965877Y3285996D03*
%TD*%
%TO.P,R21,1*%
%TO.N,Net-(D62-K)*%
X55336394Y26556291D03*
%TO.P,R21,2*%
%TO.N,Net-(D63-A)*%
X56986394Y26556291D03*
%TD*%
%TO.P,R20,1*%
%TO.N,Net-(D60-K)*%
X51175000Y3207921D03*
%TO.P,R20,2*%
%TO.N,GND*%
X52825000Y3207921D03*
%TD*%
%TO.P,R19,1*%
%TO.N,Net-(D57-K)*%
X51175000Y26621963D03*
%TO.P,R19,2*%
%TO.N,GND*%
X52825000Y26621963D03*
%TD*%
%TO.P,R18,1*%
%TO.N,Net-(D53-K)*%
X45038737Y3241287D03*
%TO.P,R18,2*%
%TO.N,Net-(D54-A)*%
X46688737Y3241287D03*
%TD*%
%TO.P,R17,1*%
%TO.N,Net-(D50-K)*%
X45055955Y26568201D03*
%TO.P,R17,2*%
%TO.N,Net-(D51-A)*%
X46705955Y26568201D03*
%TD*%
%TO.P,R16,1*%
%TO.N,Net-(D48-K)*%
X40675000Y3232885D03*
%TO.P,R16,2*%
%TO.N,GND*%
X42325000Y3232885D03*
%TD*%
%TO.P,R15,1*%
%TO.N,Net-(D45-K)*%
X40675000Y26593530D03*
%TO.P,R15,2*%
%TO.N,GND*%
X42325000Y26593530D03*
%TD*%
%TO.P,R14,1*%
%TO.N,Net-(D41-K)*%
X34720244Y3205964D03*
%TO.P,R14,2*%
%TO.N,Net-(D42-A)*%
X36370244Y3205964D03*
%TD*%
%TO.P,R13,1*%
%TO.N,Net-(D38-K)*%
X34761817Y26617630D03*
%TO.P,R13,2*%
%TO.N,Net-(D39-A)*%
X36411817Y26617630D03*
%TD*%
%TO.P,R12,1*%
%TO.N,Net-(D36-K)*%
X30675000Y26615327D03*
%TO.P,R12,2*%
%TO.N,GND*%
X32325000Y26615327D03*
%TD*%
%TO.P,R11,1*%
%TO.N,Net-(D33-K)*%
X30675000Y3239309D03*
%TO.P,R11,2*%
%TO.N,GND*%
X32325000Y3239309D03*
%TD*%
%TO.P,R10,1*%
%TO.N,Net-(D29-K)*%
X24450523Y3261939D03*
%TO.P,R10,2*%
%TO.N,Net-(D30-A)*%
X26100523Y3261939D03*
%TD*%
%TO.P,R9,1*%
%TO.N,Net-(D26-K)*%
X24399500Y26663305D03*
%TO.P,R9,2*%
%TO.N,Net-(D27-A)*%
X26049500Y26663305D03*
%TD*%
%TO.P,R8,1*%
%TO.N,Net-(D24-K)*%
X20175000Y3267311D03*
%TO.P,R8,2*%
%TO.N,GND*%
X21825000Y3267311D03*
%TD*%
%TO.P,R7,1*%
%TO.N,Net-(D21-K)*%
X20175000Y26665430D03*
%TO.P,R7,2*%
%TO.N,GND*%
X21825000Y26665430D03*
%TD*%
%TO.P,R6,1*%
%TO.N,Net-(D17-K)*%
X14450523Y3261939D03*
%TO.P,R6,2*%
%TO.N,Net-(D18-A)*%
X16100523Y3261939D03*
%TD*%
%TO.P,R5,1*%
%TO.N,Net-(D14-K)*%
X14067232Y26670933D03*
%TO.P,R5,2*%
%TO.N,Net-(D15-A)*%
X15717232Y26670933D03*
%TD*%
%TO.P,R4,1*%
%TO.N,Net-(D12-K)*%
X9675000Y26707102D03*
%TO.P,R4,2*%
%TO.N,GND*%
X11325000Y26707102D03*
%TD*%
%TO.P,R3,1*%
%TO.N,Net-(D9-K)*%
X9675000Y3190203D03*
%TO.P,R3,2*%
%TO.N,GND*%
X11325000Y3190203D03*
%TD*%
%TO.P,R2,1*%
%TO.N,Net-(D5-K)*%
X3685590Y3171137D03*
%TO.P,R2,2*%
%TO.N,Net-(D6-A)*%
X5335590Y3171137D03*
%TD*%
%TO.P,R1,1*%
%TO.N,Net-(D2-K)*%
X3722601Y26702624D03*
%TO.P,R1,2*%
%TO.N,Net-(D3-A)*%
X5372601Y26702624D03*
%TD*%
D13*
%TO.P,J1,1,Pin_1*%
%TO.N,+12V*%
X76000000Y9420000D03*
D14*
%TO.P,J1,2,Pin_2*%
X76000000Y11960000D03*
%TO.P,J1,3,Pin_3*%
%TO.N,GND*%
X76000000Y14500000D03*
%TO.P,J1,4,Pin_4*%
%TO.N,GND2*%
X76000000Y17040000D03*
%TD*%
D13*
%TO.P,D85,1,K*%
%TO.N,Net-(D85-K)*%
X76000000Y23775000D03*
D14*
%TO.P,D85,2,A*%
%TO.N,+12V*%
X76000000Y21235000D03*
%TD*%
D15*
%TO.P,D84,1,K*%
%TO.N,Net-(D84-K)*%
X71500000Y6000000D03*
D16*
%TO.P,D84,2,A*%
%TO.N,Net-(D83-K)*%
X71500000Y7830000D03*
%TD*%
D15*
%TO.P,D83,1,K*%
%TO.N,Net-(D83-K)*%
X71571868Y11594924D03*
D16*
%TO.P,D83,2,A*%
%TO.N,Net-(D82-K)*%
X71571868Y13424924D03*
%TD*%
D15*
%TO.P,D82,1,K*%
%TO.N,Net-(D82-K)*%
X68158822Y11581814D03*
D16*
%TO.P,D82,2,A*%
%TO.N,+12V*%
X68158822Y13411814D03*
%TD*%
D15*
%TO.P,D81,1,K*%
%TO.N,Net-(D81-K)*%
X71554904Y23821255D03*
D16*
%TO.P,D81,2,A*%
%TO.N,Net-(D80-K)*%
X71554904Y21991255D03*
%TD*%
D15*
%TO.P,D80,1,K*%
%TO.N,Net-(D80-K)*%
X71555874Y18551780D03*
D16*
%TO.P,D80,2,A*%
%TO.N,Net-(D79-K)*%
X71555874Y16721780D03*
%TD*%
D15*
%TO.P,D79,1,K*%
%TO.N,Net-(D79-K)*%
X68141817Y18534780D03*
D16*
%TO.P,D79,2,A*%
%TO.N,+12V*%
X68141817Y16704780D03*
%TD*%
D15*
%TO.P,D78,1,K*%
%TO.N,GND*%
X68095872Y7380134D03*
D16*
%TO.P,D78,2,A*%
%TO.N,Net-(D78-A)*%
X68095872Y5550134D03*
%TD*%
D15*
%TO.P,D77,1,K*%
%TO.N,Net-(D77-K)*%
X64687756Y6001920D03*
D16*
%TO.P,D77,2,A*%
%TO.N,Net-(D76-K)*%
X64687756Y7831920D03*
%TD*%
D15*
%TO.P,D76,1,K*%
%TO.N,Net-(D76-K)*%
X64736586Y11571344D03*
D16*
%TO.P,D76,2,A*%
%TO.N,+12V*%
X64736586Y13401344D03*
%TD*%
D15*
%TO.P,D75,1,K*%
%TO.N,GND*%
X68142456Y22443510D03*
D16*
%TO.P,D75,2,A*%
%TO.N,Net-(D75-A)*%
X68142456Y24273510D03*
%TD*%
D15*
%TO.P,D74,1,K*%
%TO.N,Net-(D74-K)*%
X64729935Y23831478D03*
D16*
%TO.P,D74,2,A*%
%TO.N,Net-(D73-K)*%
X64729935Y22001478D03*
%TD*%
D15*
%TO.P,D73,1,K*%
%TO.N,Net-(D73-K)*%
X64732126Y18538732D03*
D16*
%TO.P,D73,2,A*%
%TO.N,+12V*%
X64732126Y16708732D03*
%TD*%
D15*
%TO.P,D72,1,K*%
%TO.N,Net-(D72-K)*%
X61296511Y6002803D03*
D16*
%TO.P,D72,2,A*%
%TO.N,Net-(D71-K)*%
X61296511Y7832803D03*
%TD*%
D15*
%TO.P,D71,1,K*%
%TO.N,Net-(D71-K)*%
X61308457Y11563579D03*
D16*
%TO.P,D71,2,A*%
%TO.N,Net-(D70-K)*%
X61308457Y13393579D03*
%TD*%
D15*
%TO.P,D70,1,K*%
%TO.N,Net-(D70-K)*%
X57890788Y11572499D03*
D16*
%TO.P,D70,2,A*%
%TO.N,+12V*%
X57890788Y13402499D03*
%TD*%
D15*
%TO.P,D69,1,K*%
%TO.N,Net-(D69-K)*%
X61311077Y23834009D03*
D16*
%TO.P,D69,2,A*%
%TO.N,Net-(D68-K)*%
X61311077Y22004009D03*
%TD*%
D15*
%TO.P,D68,1,K*%
%TO.N,Net-(D68-K)*%
X61321727Y18523392D03*
D16*
%TO.P,D68,2,A*%
%TO.N,Net-(D67-K)*%
X61321727Y16693392D03*
%TD*%
D15*
%TO.P,D67,1,K*%
%TO.N,Net-(D67-K)*%
X57884042Y18501854D03*
D16*
%TO.P,D67,2,A*%
%TO.N,+12V*%
X57884042Y16671854D03*
%TD*%
D15*
%TO.P,D66,1,K*%
%TO.N,GND*%
X57876948Y7375654D03*
D16*
%TO.P,D66,2,A*%
%TO.N,Net-(D66-A)*%
X57876948Y5545654D03*
%TD*%
D15*
%TO.P,D65,1,K*%
%TO.N,Net-(D65-K)*%
X54420762Y5983249D03*
D16*
%TO.P,D65,2,A*%
%TO.N,Net-(D64-K)*%
X54420762Y7813249D03*
%TD*%
D15*
%TO.P,D64,1,K*%
%TO.N,Net-(D64-K)*%
X54434267Y11558680D03*
D16*
%TO.P,D64,2,A*%
%TO.N,+12V*%
X54434267Y13388680D03*
%TD*%
D15*
%TO.P,D63,1,K*%
%TO.N,GND*%
X57888246Y22468509D03*
D16*
%TO.P,D63,2,A*%
%TO.N,Net-(D63-A)*%
X57888246Y24298509D03*
%TD*%
D15*
%TO.P,D62,1,K*%
%TO.N,Net-(D62-K)*%
X54464508Y23857447D03*
D16*
%TO.P,D62,2,A*%
%TO.N,Net-(D61-K)*%
X54464508Y22027447D03*
%TD*%
D15*
%TO.P,D61,1,K*%
%TO.N,Net-(D61-K)*%
X54450830Y18501461D03*
D16*
%TO.P,D61,2,A*%
%TO.N,+12V*%
X54450830Y16671461D03*
%TD*%
D15*
%TO.P,D60,1,K*%
%TO.N,Net-(D60-K)*%
X50985169Y5927605D03*
D16*
%TO.P,D60,2,A*%
%TO.N,Net-(D59-K)*%
X50985169Y7757605D03*
%TD*%
D15*
%TO.P,D59,1,K*%
%TO.N,Net-(D59-K)*%
X50986692Y11560726D03*
D16*
%TO.P,D59,2,A*%
%TO.N,Net-(D58-K)*%
X50986692Y13390726D03*
%TD*%
D15*
%TO.P,D58,1,K*%
%TO.N,Net-(D58-K)*%
X47563615Y11547467D03*
D16*
%TO.P,D58,2,A*%
%TO.N,+12V*%
X47563615Y13377467D03*
%TD*%
D15*
%TO.P,D57,1,K*%
%TO.N,Net-(D57-K)*%
X51054903Y23845898D03*
D16*
%TO.P,D57,2,A*%
%TO.N,Net-(D56-K)*%
X51054903Y22015898D03*
%TD*%
D15*
%TO.P,D56,1,K*%
%TO.N,Net-(D56-K)*%
X51035681Y18474848D03*
D16*
%TO.P,D56,2,A*%
%TO.N,Net-(D55-K)*%
X51035681Y16644848D03*
%TD*%
D15*
%TO.P,D55,1,K*%
%TO.N,Net-(D55-K)*%
X47590750Y18478395D03*
D16*
%TO.P,D55,2,A*%
%TO.N,+12V*%
X47590750Y16648395D03*
%TD*%
D15*
%TO.P,D54,1,K*%
%TO.N,GND*%
X47578750Y7291203D03*
D16*
%TO.P,D54,2,A*%
%TO.N,Net-(D54-A)*%
X47578750Y5461203D03*
%TD*%
D15*
%TO.P,D53,1,K*%
%TO.N,Net-(D53-K)*%
X44146547Y5932651D03*
D16*
%TO.P,D53,2,A*%
%TO.N,Net-(D52-K)*%
X44146547Y7762651D03*
%TD*%
D15*
%TO.P,D52,1,K*%
%TO.N,Net-(D52-K)*%
X44162443Y11546161D03*
D16*
%TO.P,D52,2,A*%
%TO.N,+12V*%
X44162443Y13376161D03*
%TD*%
D15*
%TO.P,D51,1,K*%
%TO.N,GND*%
X47597342Y22494649D03*
D16*
%TO.P,D51,2,A*%
%TO.N,Net-(D51-A)*%
X47597342Y24324649D03*
%TD*%
D15*
%TO.P,D50,1,K*%
%TO.N,Net-(D50-K)*%
X44155294Y23890873D03*
D16*
%TO.P,D50,2,A*%
%TO.N,Net-(D49-K)*%
X44155294Y22060873D03*
%TD*%
D15*
%TO.P,D49,1,K*%
%TO.N,Net-(D49-K)*%
X44163647Y18493063D03*
D16*
%TO.P,D49,2,A*%
%TO.N,+12V*%
X44163647Y16663063D03*
%TD*%
D15*
%TO.P,D48,1,K*%
%TO.N,Net-(D48-K)*%
X40660541Y5943591D03*
D16*
%TO.P,D48,2,A*%
%TO.N,Net-(D47-K)*%
X40660541Y7773591D03*
%TD*%
D15*
%TO.P,D47,1,K*%
%TO.N,Net-(D47-K)*%
X40721164Y11562701D03*
D16*
%TO.P,D47,2,A*%
%TO.N,Net-(D46-K)*%
X40721164Y13392701D03*
%TD*%
D15*
%TO.P,D46,1,K*%
%TO.N,Net-(D46-K)*%
X37275523Y11571939D03*
D16*
%TO.P,D46,2,A*%
%TO.N,+12V*%
X37275523Y13401939D03*
%TD*%
D15*
%TO.P,D45,1,K*%
%TO.N,Net-(D45-K)*%
X40749660Y23891911D03*
D16*
%TO.P,D45,2,A*%
%TO.N,Net-(D44-K)*%
X40749660Y22061911D03*
%TD*%
D15*
%TO.P,D44,1,K*%
%TO.N,Net-(D44-K)*%
X40733936Y18476355D03*
D16*
%TO.P,D44,2,A*%
%TO.N,Net-(D43-K)*%
X40733936Y16646355D03*
%TD*%
D15*
%TO.P,D43,1,K*%
%TO.N,Net-(D43-K)*%
X37268499Y18487137D03*
D16*
%TO.P,D43,2,A*%
%TO.N,+12V*%
X37268499Y16657137D03*
%TD*%
D15*
%TO.P,D42,1,K*%
%TO.N,GND*%
X37247314Y7327533D03*
D16*
%TO.P,D42,2,A*%
%TO.N,Net-(D42-A)*%
X37247314Y5497533D03*
%TD*%
D15*
%TO.P,D41,1,K*%
%TO.N,Net-(D41-K)*%
X33781474Y5955446D03*
D16*
%TO.P,D41,2,A*%
%TO.N,Net-(D40-K)*%
X33781474Y7785446D03*
%TD*%
D15*
%TO.P,D40,1,K*%
%TO.N,Net-(D40-K)*%
X33791198Y11573562D03*
D16*
%TO.P,D40,2,A*%
%TO.N,+12V*%
X33791198Y13403562D03*
%TD*%
D15*
%TO.P,D39,1,K*%
%TO.N,GND*%
X37292139Y22523329D03*
D16*
%TO.P,D39,2,A*%
%TO.N,Net-(D39-A)*%
X37292139Y24353329D03*
%TD*%
D15*
%TO.P,D38,1,K*%
%TO.N,Net-(D38-K)*%
X33829340Y23917317D03*
D16*
%TO.P,D38,2,A*%
%TO.N,Net-(D37-K)*%
X33829340Y22087317D03*
%TD*%
D15*
%TO.P,D37,1,K*%
%TO.N,Net-(D37-K)*%
X33815156Y18490937D03*
D16*
%TO.P,D37,2,A*%
%TO.N,+12V*%
X33815156Y16660937D03*
%TD*%
D15*
%TO.P,D36,1,K*%
%TO.N,Net-(D36-K)*%
X30384138Y23935390D03*
D16*
%TO.P,D36,2,A*%
%TO.N,Net-(D35-K)*%
X30384138Y22105390D03*
%TD*%
D15*
%TO.P,D35,1,K*%
%TO.N,Net-(D35-K)*%
X30391420Y18496190D03*
D16*
%TO.P,D35,2,A*%
%TO.N,Net-(D34-K)*%
X30391420Y16666190D03*
%TD*%
D15*
%TO.P,D34,1,K*%
%TO.N,Net-(D34-K)*%
X26941612Y18486482D03*
D16*
%TO.P,D34,2,A*%
%TO.N,+12V*%
X26941612Y16656482D03*
%TD*%
D15*
%TO.P,D33,1,K*%
%TO.N,Net-(D33-K)*%
X30352388Y5966623D03*
D16*
%TO.P,D33,2,A*%
%TO.N,Net-(D32-K)*%
X30352388Y7796623D03*
%TD*%
D15*
%TO.P,D32,1,K*%
%TO.N,Net-(D32-K)*%
X30361990Y11588435D03*
D16*
%TO.P,D32,2,A*%
%TO.N,Net-(D31-K)*%
X30361990Y13418435D03*
%TD*%
D15*
%TO.P,D31,1,K*%
%TO.N,Net-(D31-K)*%
X26917210Y11571940D03*
D16*
%TO.P,D31,2,A*%
%TO.N,+12V*%
X26917210Y13401940D03*
%TD*%
D15*
%TO.P,D30,1,K*%
%TO.N,GND*%
X26940438Y7337089D03*
D16*
%TO.P,D30,2,A*%
%TO.N,Net-(D30-A)*%
X26940438Y5507089D03*
%TD*%
D15*
%TO.P,D29,1,K*%
%TO.N,Net-(D29-K)*%
X23526915Y5957868D03*
D16*
%TO.P,D29,2,A*%
%TO.N,Net-(D28-K)*%
X23526915Y7787868D03*
%TD*%
D15*
%TO.P,D28,1,K*%
%TO.N,Net-(D28-K)*%
X23520786Y11576733D03*
D16*
%TO.P,D28,2,A*%
%TO.N,+12V*%
X23520786Y13406733D03*
%TD*%
D15*
%TO.P,D27,1,K*%
%TO.N,GND*%
X26958804Y22564047D03*
D16*
%TO.P,D27,2,A*%
%TO.N,Net-(D27-A)*%
X26958804Y24394047D03*
%TD*%
D15*
%TO.P,D26,1,K*%
%TO.N,Net-(D26-K)*%
X23492109Y23928132D03*
D16*
%TO.P,D26,2,A*%
%TO.N,Net-(D25-K)*%
X23492109Y22098132D03*
%TD*%
D15*
%TO.P,D25,1,K*%
%TO.N,Net-(D25-K)*%
X23516713Y18480696D03*
D16*
%TO.P,D25,2,A*%
%TO.N,+12V*%
X23516713Y16650696D03*
%TD*%
D15*
%TO.P,D24,1,K*%
%TO.N,Net-(D24-K)*%
X20079644Y5956743D03*
D16*
%TO.P,D24,2,A*%
%TO.N,Net-(D23-K)*%
X20079644Y7786743D03*
%TD*%
D15*
%TO.P,D23,1,K*%
%TO.N,Net-(D23-K)*%
X20108985Y11556750D03*
D16*
%TO.P,D23,2,A*%
%TO.N,Net-(D22-K)*%
X20108985Y13386750D03*
%TD*%
D15*
%TO.P,D22,1,K*%
%TO.N,Net-(D22-K)*%
X16688793Y11568229D03*
D16*
%TO.P,D22,2,A*%
%TO.N,+12V*%
X16688793Y13398229D03*
%TD*%
D15*
%TO.P,D21,1,K*%
%TO.N,Net-(D21-K)*%
X20034620Y23935925D03*
D16*
%TO.P,D21,2,A*%
%TO.N,Net-(D20-K)*%
X20034620Y22105925D03*
%TD*%
D15*
%TO.P,D20,1,K*%
%TO.N,Net-(D20-K)*%
X20058321Y18474029D03*
D16*
%TO.P,D20,2,A*%
%TO.N,Net-(D19-K)*%
X20058321Y16644029D03*
%TD*%
D15*
%TO.P,D19,1,K*%
%TO.N,Net-(D19-K)*%
X16623034Y18475500D03*
D16*
%TO.P,D19,2,A*%
%TO.N,+12V*%
X16623034Y16645500D03*
%TD*%
D15*
%TO.P,D18,1,K*%
%TO.N,GND*%
X16676625Y7329176D03*
D16*
%TO.P,D18,2,A*%
%TO.N,Net-(D18-A)*%
X16676625Y5499176D03*
%TD*%
D15*
%TO.P,D17,1,K*%
%TO.N,Net-(D17-K)*%
X13226091Y5944419D03*
D16*
%TO.P,D17,2,A*%
%TO.N,Net-(D16-K)*%
X13226091Y7774419D03*
%TD*%
D15*
%TO.P,D16,1,K*%
%TO.N,Net-(D16-K)*%
X13275523Y11571939D03*
D16*
%TO.P,D16,2,A*%
%TO.N,+12V*%
X13275523Y13401939D03*
%TD*%
D15*
%TO.P,D15,1,K*%
%TO.N,GND*%
X16596729Y22571940D03*
D16*
%TO.P,D15,2,A*%
%TO.N,Net-(D15-A)*%
X16596729Y24401940D03*
%TD*%
D15*
%TO.P,D14,1,K*%
%TO.N,Net-(D14-K)*%
X13166248Y23951939D03*
D16*
%TO.P,D14,2,A*%
%TO.N,Net-(D13-K)*%
X13166248Y22121939D03*
%TD*%
D15*
%TO.P,D13,1,K*%
%TO.N,Net-(D13-K)*%
X13194470Y18454774D03*
D16*
%TO.P,D13,2,A*%
%TO.N,+12V*%
X13194470Y16624774D03*
%TD*%
D15*
%TO.P,D12,1,K*%
%TO.N,Net-(D12-K)*%
X9743199Y23941098D03*
D16*
%TO.P,D12,2,A*%
%TO.N,Net-(D11-K)*%
X9743199Y22111098D03*
%TD*%
D15*
%TO.P,D11,1,K*%
%TO.N,Net-(D11-K)*%
X9775523Y18451939D03*
D16*
%TO.P,D11,2,A*%
%TO.N,Net-(D10-K)*%
X9775523Y16621939D03*
%TD*%
D15*
%TO.P,D10,1,K*%
%TO.N,Net-(D10-K)*%
X6275523Y18451939D03*
D16*
%TO.P,D10,2,A*%
%TO.N,+12V*%
X6275523Y16621939D03*
%TD*%
D15*
%TO.P,D9,1,K*%
%TO.N,Net-(D9-K)*%
X9706848Y5941870D03*
D16*
%TO.P,D9,2,A*%
%TO.N,Net-(D8-K)*%
X9706848Y7771870D03*
%TD*%
D15*
%TO.P,D8,1,K*%
%TO.N,Net-(D8-K)*%
X9775523Y11571939D03*
D16*
%TO.P,D8,2,A*%
%TO.N,Net-(D7-K)*%
X9775523Y13401939D03*
%TD*%
D15*
%TO.P,D7,1,K*%
%TO.N,Net-(D7-K)*%
X6275523Y11571939D03*
D16*
%TO.P,D7,2,A*%
%TO.N,+12V*%
X6275523Y13401939D03*
%TD*%
D15*
%TO.P,D6,1,K*%
%TO.N,GND*%
X6275523Y7311939D03*
D16*
%TO.P,D6,2,A*%
%TO.N,Net-(D6-A)*%
X6275523Y5481939D03*
%TD*%
D15*
%TO.P,D5,1,K*%
%TO.N,Net-(D5-K)*%
X2775523Y5931939D03*
D16*
%TO.P,D5,2,A*%
%TO.N,Net-(D4-K)*%
X2775523Y7761939D03*
%TD*%
D15*
%TO.P,D4,1,K*%
%TO.N,Net-(D4-K)*%
X2775523Y11571939D03*
D16*
%TO.P,D4,2,A*%
%TO.N,+12V*%
X2775523Y13401939D03*
%TD*%
D15*
%TO.P,D3,1,K*%
%TO.N,GND*%
X6275523Y22571939D03*
D16*
%TO.P,D3,2,A*%
%TO.N,Net-(D3-A)*%
X6275523Y24401939D03*
%TD*%
D15*
%TO.P,D2,1,K*%
%TO.N,Net-(D2-K)*%
X2775523Y23951939D03*
D16*
%TO.P,D2,2,A*%
%TO.N,Net-(D1-K)*%
X2775523Y22121939D03*
%TD*%
D15*
%TO.P,D1,1,K*%
%TO.N,Net-(D1-K)*%
X2775523Y18451939D03*
D16*
%TO.P,D1,2,A*%
%TO.N,+12V*%
X2775523Y16621939D03*
%TD*%
D17*
%TO.N,+12V*%
X58000000Y15041212D02*
X65500000Y15041212D01*
%TO.N,Net-(D81-K)*%
X71228447Y24147712D02*
X71554904Y23821255D01*
X71228447Y26538346D02*
X71228447Y24147712D01*
%TO.N,Net-(D69-K)*%
X61311077Y26296371D02*
X61675000Y26660294D01*
X61311077Y23834009D02*
X61311077Y26296371D01*
%TO.N,Net-(D57-K)*%
X51054903Y26501866D02*
X51175000Y26621963D01*
X51054903Y23845898D02*
X51054903Y26501866D01*
%TO.N,Net-(D45-K)*%
X40749660Y26518870D02*
X40675000Y26593530D01*
X40749660Y23891911D02*
X40749660Y26518870D01*
%TO.N,Net-(D36-K)*%
X30384138Y26324465D02*
X30675000Y26615327D01*
X30384138Y23935390D02*
X30384138Y26324465D01*
%TO.N,Net-(D21-K)*%
X20034620Y26525050D02*
X20175000Y26665430D01*
X20034620Y23935925D02*
X20034620Y26525050D01*
%TO.N,Net-(D12-K)*%
X9743199Y26638903D02*
X9675000Y26707102D01*
X9743199Y23941098D02*
X9743199Y26638903D01*
%TO.N,Net-(D9-K)*%
X9706848Y3222051D02*
X9675000Y3190203D01*
X9706848Y5941870D02*
X9706848Y3222051D01*
%TO.N,Net-(D24-K)*%
X20079644Y3362667D02*
X20175000Y3267311D01*
X20079644Y5956743D02*
X20079644Y3362667D01*
%TO.N,Net-(D33-K)*%
X30352388Y3561921D02*
X30675000Y3239309D01*
X30352388Y5966623D02*
X30352388Y3561921D01*
%TO.N,Net-(D48-K)*%
X40660541Y3247344D02*
X40675000Y3232885D01*
X40660541Y5943591D02*
X40660541Y3247344D01*
%TO.N,Net-(D60-K)*%
X50985169Y3397752D02*
X51175000Y3207921D01*
X50985169Y5927605D02*
X50985169Y3397752D01*
%TO.N,Net-(D72-K)*%
X61296511Y3681421D02*
X61675000Y3302932D01*
X61296511Y6002803D02*
X61296511Y3681421D01*
D18*
%TO.N,Net-(D84-K)*%
X71500000Y3471361D02*
X71675000Y3296361D01*
X71500000Y6000000D02*
X71500000Y3471361D01*
D17*
%TO.N,+12V*%
X73500000Y14460000D02*
X76000000Y11960000D01*
X73500000Y15500000D02*
X73500000Y14460000D01*
X73077610Y14882390D02*
X76000000Y11960000D01*
X72882390Y14882390D02*
X73077610Y14882390D01*
X73500000Y18735000D02*
X76000000Y21235000D01*
X72882390Y14882390D02*
X73500000Y15500000D01*
X68158822Y14882390D02*
X72882390Y14882390D01*
X73500000Y15500000D02*
X73500000Y18735000D01*
X76000000Y9420000D02*
X76000000Y11960000D01*
%TO.N,GND2*%
X78500000Y19540000D02*
X76000000Y17040000D01*
X78500000Y27500000D02*
X78500000Y19540000D01*
X78000000Y28000000D02*
X78500000Y27500000D01*
X74325000Y28000000D02*
X78000000Y28000000D01*
%TO.N,Net-(R29-Pad1)*%
X72675000Y26500000D02*
X72675000Y28000000D01*
%TO.N,Net-(R30-Pad2)*%
X75675000Y26500000D02*
X74325000Y26500000D01*
%TO.N,Net-(D85-K)*%
X76000000Y25175000D02*
X77325000Y26500000D01*
X76000000Y23775000D02*
X76000000Y25175000D01*
%TO.N,+12V*%
X68158822Y14882390D02*
X68000000Y15041212D01*
X68158822Y13411814D02*
X68158822Y14882390D01*
X64732126Y15809086D02*
X65500000Y15041212D01*
X64732126Y16708732D02*
X64732126Y15809086D01*
X65500000Y15041212D02*
X68000000Y15041212D01*
X57890788Y14932000D02*
X58000000Y15041212D01*
X57890788Y13402499D02*
X57890788Y14932000D01*
X54450830Y16090382D02*
X55500000Y15041212D01*
X55500000Y15041212D02*
X58000000Y15041212D01*
X54450830Y16671461D02*
X54450830Y16090382D01*
X47563615Y14977597D02*
X47500000Y15041212D01*
X47500000Y15041212D02*
X54275523Y15041212D01*
X47563615Y13377467D02*
X47563615Y14977597D01*
X44163647Y16377565D02*
X45500000Y15041212D01*
X44275523Y15041212D02*
X45500000Y15041212D01*
X44163647Y16663063D02*
X44163647Y16377565D01*
X37275523Y14765689D02*
X37000000Y15041212D01*
X37000000Y15041212D02*
X44275523Y15041212D01*
X37275523Y13401939D02*
X37275523Y14765689D01*
X33815156Y16226056D02*
X35000000Y15041212D01*
X33815156Y16660937D02*
X33815156Y16226056D01*
X35000000Y15041212D02*
X37000000Y15041212D01*
X26917210Y13401940D02*
X26917210Y14958422D01*
X26917210Y14958422D02*
X27000000Y15041212D01*
X24500000Y15041212D02*
X27000000Y15041212D01*
X23516713Y16024499D02*
X24500000Y15041212D01*
X27000000Y15041212D02*
X33775523Y15041212D01*
X23516713Y16650696D02*
X23516713Y16024499D01*
X13194470Y15846742D02*
X14000000Y15041212D01*
X13194470Y16624774D02*
X13194470Y15846742D01*
X6275523Y15041212D02*
X14000000Y15041212D01*
X54275523Y15041212D02*
X55500000Y15041212D01*
X45500000Y15041212D02*
X47500000Y15041212D01*
X33775523Y15041212D02*
X35000000Y15041212D01*
X16775523Y15041212D02*
X23275523Y15041212D01*
X23775523Y15041212D02*
X24500000Y15041212D01*
X16688793Y14954482D02*
X16775523Y15041212D01*
X23275523Y15041212D02*
X23775523Y15041212D01*
X16688793Y13398229D02*
X16688793Y14954482D01*
X6275523Y13401939D02*
X6275523Y15041212D01*
X14000000Y15041212D02*
X16775523Y15041212D01*
X3496250Y15041212D02*
X6275523Y15041212D01*
X2775523Y15761939D02*
X3496250Y15041212D01*
X2775523Y16621939D02*
X2775523Y15761939D01*
D18*
%TO.N,Net-(D82-K)*%
X70001932Y13424924D02*
X71571868Y13424924D01*
X68158822Y11581814D02*
X70001932Y13424924D01*
D17*
%TO.N,Net-(D83-K)*%
X71571868Y7901868D02*
X71500000Y7830000D01*
X71571868Y11594924D02*
X71571868Y7901868D01*
D18*
%TO.N,Net-(D70-K)*%
X58086083Y11572499D02*
X59907163Y13393579D01*
X59907163Y13393579D02*
X61308457Y13393579D01*
X57890788Y11572499D02*
X58086083Y11572499D01*
D17*
%TO.N,Net-(D71-K)*%
X61308457Y7844749D02*
X61296511Y7832803D01*
X61308457Y11563579D02*
X61308457Y7844749D01*
D18*
%TO.N,Net-(D58-K)*%
X49406874Y13390726D02*
X50986692Y13390726D01*
X47563615Y11547467D02*
X49406874Y13390726D01*
D17*
%TO.N,Net-(D59-K)*%
X50986692Y7759128D02*
X50985169Y7757605D01*
X50986692Y11560726D02*
X50986692Y7759128D01*
D18*
%TO.N,Net-(D46-K)*%
X39906285Y13392701D02*
X40721164Y13392701D01*
X38085523Y11571939D02*
X39906285Y13392701D01*
X37275523Y11571939D02*
X38085523Y11571939D01*
D17*
%TO.N,Net-(D47-K)*%
X40721164Y7834214D02*
X40660541Y7773591D01*
X40721164Y11562701D02*
X40721164Y7834214D01*
D18*
%TO.N,Net-(D31-K)*%
X28932019Y13418435D02*
X30361990Y13418435D01*
X27085524Y11571940D02*
X28932019Y13418435D01*
X26917210Y11571940D02*
X27085524Y11571940D01*
D17*
%TO.N,Net-(D32-K)*%
X30361990Y7806225D02*
X30352388Y7796623D01*
X30361990Y11588435D02*
X30361990Y7806225D01*
D18*
%TO.N,Net-(D22-K)*%
X18507314Y13386750D02*
X20108985Y13386750D01*
X16688793Y11568229D02*
X18507314Y13386750D01*
D17*
%TO.N,Net-(D23-K)*%
X20108985Y7816084D02*
X20079644Y7786743D01*
X20108985Y11556750D02*
X20108985Y7816084D01*
D18*
%TO.N,Net-(D79-K)*%
X70315682Y16721780D02*
X71555874Y16721780D01*
X68502682Y18534780D02*
X70315682Y16721780D01*
X68141817Y18534780D02*
X68502682Y18534780D01*
D17*
%TO.N,Net-(D80-K)*%
X71554904Y18552750D02*
X71555874Y18551780D01*
X71554904Y21991255D02*
X71554904Y18552750D01*
D18*
%TO.N,Net-(D67-K)*%
X60275523Y16693392D02*
X61321727Y16693392D01*
X59775523Y17193392D02*
X60275523Y16693392D01*
X59775523Y17761939D02*
X59775523Y17193392D01*
X59035608Y18501854D02*
X59775523Y17761939D01*
X57884042Y18501854D02*
X59035608Y18501854D01*
D17*
%TO.N,Net-(D68-K)*%
X61321727Y21993359D02*
X61311077Y22004009D01*
X61321727Y18523392D02*
X61321727Y21993359D01*
D18*
%TO.N,Net-(D55-K)*%
X49892614Y16644848D02*
X51035681Y16644848D01*
X48059067Y18478395D02*
X49892614Y16644848D01*
X47590750Y18478395D02*
X48059067Y18478395D01*
D17*
%TO.N,Net-(D56-K)*%
X51054903Y18494070D02*
X51035681Y18474848D01*
X51054903Y22015898D02*
X51054903Y18494070D01*
D18*
%TO.N,Net-(D43-K)*%
X38050325Y18487137D02*
X39891107Y16646355D01*
X39891107Y16646355D02*
X40733936Y16646355D01*
X37268499Y18487137D02*
X38050325Y18487137D01*
D17*
%TO.N,Net-(D44-K)*%
X40749660Y18492079D02*
X40733936Y18476355D01*
X40749660Y22061911D02*
X40749660Y18492079D01*
D18*
%TO.N,Net-(D34-K)*%
X29371272Y16666190D02*
X30391420Y16666190D01*
X27550980Y18486482D02*
X29371272Y16666190D01*
X26941612Y18486482D02*
X27550980Y18486482D01*
D17*
%TO.N,Net-(D35-K)*%
X30391420Y22098108D02*
X30384138Y22105390D01*
X30391420Y18496190D02*
X30391420Y22098108D01*
D18*
%TO.N,Net-(D10-K)*%
X8275523Y16761939D02*
X8275523Y17761939D01*
X8415523Y16621939D02*
X8275523Y16761939D01*
X9775523Y16621939D02*
X8415523Y16621939D01*
%TO.N,Net-(D19-K)*%
X18775523Y16761939D02*
X18775523Y17761939D01*
X18775523Y17761939D02*
X18061962Y18475500D01*
X18893433Y16644029D02*
X18775523Y16761939D01*
X20058321Y16644029D02*
X18893433Y16644029D01*
X16623034Y18475500D02*
X18061962Y18475500D01*
D17*
%TO.N,Net-(D20-K)*%
X20034620Y18497730D02*
X20058321Y18474029D01*
X20034620Y22105925D02*
X20034620Y18497730D01*
D18*
%TO.N,Net-(D75-A)*%
X67279884Y25136082D02*
X68142456Y24273510D01*
X67279884Y26519274D02*
X67279884Y25136082D01*
%TO.N,Net-(D74-K)*%
X64729935Y25619325D02*
X65629884Y26519274D01*
X64729935Y23831478D02*
X64729935Y25619325D01*
%TO.N,Net-(D63-A)*%
X56986394Y25200361D02*
X57888246Y24298509D01*
X56986394Y26556291D02*
X56986394Y25200361D01*
%TO.N,Net-(D62-K)*%
X54464508Y25684405D02*
X55336394Y26556291D01*
X54464508Y23857447D02*
X54464508Y25684405D01*
%TO.N,Net-(D51-A)*%
X46705955Y25216036D02*
X47597342Y24324649D01*
X46705955Y26568201D02*
X46705955Y25216036D01*
%TO.N,Net-(D39-A)*%
X36411817Y25233651D02*
X37292139Y24353329D01*
X36411817Y26617630D02*
X36411817Y25233651D01*
%TO.N,Net-(D38-K)*%
X33829340Y25685153D02*
X34761817Y26617630D01*
X33829340Y23917317D02*
X33829340Y25685153D01*
%TO.N,Net-(D50-K)*%
X44155294Y25667540D02*
X45055955Y26568201D01*
X44155294Y23890873D02*
X44155294Y25667540D01*
%TO.N,Net-(D27-A)*%
X26049500Y25303351D02*
X26958804Y24394047D01*
X26049500Y26663305D02*
X26049500Y25303351D01*
%TO.N,Net-(D26-K)*%
X23492109Y23928132D02*
X23492109Y25755914D01*
X23492109Y25755914D02*
X24399500Y26663305D01*
%TO.N,Net-(D15-A)*%
X15717232Y25281437D02*
X16596729Y24401940D01*
X15717232Y26670933D02*
X15717232Y25281437D01*
%TO.N,Net-(D14-K)*%
X13166248Y25769949D02*
X14067232Y26670933D01*
X13166248Y23951939D02*
X13166248Y25769949D01*
D17*
%TO.N,Net-(D11-K)*%
X9775523Y22078774D02*
X9743199Y22111098D01*
X9775523Y18451939D02*
X9775523Y22078774D01*
D18*
%TO.N,Net-(D7-K)*%
X8415523Y13401939D02*
X9775523Y13401939D01*
X6585523Y11571939D02*
X8415523Y13401939D01*
X6275523Y11571939D02*
X6585523Y11571939D01*
D17*
%TO.N,Net-(D8-K)*%
X9706848Y11503264D02*
X9775523Y11571939D01*
X9706848Y7771870D02*
X9706848Y11503264D01*
D18*
%TO.N,Net-(D78-A)*%
X68095872Y4186589D02*
X67227049Y3317766D01*
X68095872Y5550134D02*
X68095872Y4186589D01*
%TO.N,Net-(D77-K)*%
X64687756Y4207059D02*
X65577049Y3317766D01*
X64687756Y6001920D02*
X64687756Y4207059D01*
%TO.N,Net-(D66-A)*%
X57876948Y4197067D02*
X56965877Y3285996D01*
X57876948Y5545654D02*
X57876948Y4197067D01*
%TO.N,Net-(D65-K)*%
X54420762Y4181111D02*
X55315877Y3285996D01*
X54420762Y5983249D02*
X54420762Y4181111D01*
%TO.N,Net-(D54-A)*%
X47578750Y4131300D02*
X46688737Y3241287D01*
X47578750Y5461203D02*
X47578750Y4131300D01*
%TO.N,Net-(D53-K)*%
X44146547Y4133477D02*
X45038737Y3241287D01*
X44146547Y5932651D02*
X44146547Y4133477D01*
%TO.N,Net-(D42-A)*%
X37247314Y5497533D02*
X37247314Y4083034D01*
X37247314Y4083034D02*
X36370244Y3205964D01*
%TO.N,Net-(D41-K)*%
X33781474Y4144734D02*
X34720244Y3205964D01*
X33781474Y5955446D02*
X33781474Y4144734D01*
%TO.N,Net-(D30-A)*%
X26940438Y5507089D02*
X26940438Y4101854D01*
X26940438Y4101854D02*
X26100523Y3261939D01*
%TO.N,Net-(D29-K)*%
X23526915Y4185547D02*
X24450523Y3261939D01*
X23526915Y5957868D02*
X23526915Y4185547D01*
%TO.N,Net-(D18-A)*%
X16676625Y3838041D02*
X16100523Y3261939D01*
X16676625Y5499176D02*
X16676625Y3838041D01*
%TO.N,Net-(D17-K)*%
X13226091Y4486371D02*
X14450523Y3261939D01*
X13226091Y5944419D02*
X13226091Y4486371D01*
%TO.N,Net-(D6-A)*%
X6275523Y4111070D02*
X5335590Y3171137D01*
X6275523Y5481939D02*
X6275523Y4111070D01*
%TO.N,Net-(D5-K)*%
X2775523Y4081204D02*
X3685590Y3171137D01*
X2775523Y5931939D02*
X2775523Y4081204D01*
D17*
%TO.N,Net-(D4-K)*%
X2775523Y11571939D02*
X2775523Y7761939D01*
%TO.N,Net-(D16-K)*%
X13275523Y7823851D02*
X13226091Y7774419D01*
X13275523Y11571939D02*
X13275523Y7823851D01*
%TO.N,Net-(D28-K)*%
X23520786Y7793997D02*
X23526915Y7787868D01*
X23520786Y11576733D02*
X23520786Y7793997D01*
%TO.N,Net-(D40-K)*%
X33791198Y7795170D02*
X33781474Y7785446D01*
X33791198Y11573562D02*
X33791198Y7795170D01*
%TO.N,Net-(D52-K)*%
X44162443Y7778547D02*
X44146547Y7762651D01*
X44162443Y11546161D02*
X44162443Y7778547D01*
%TO.N,Net-(D64-K)*%
X54434267Y7826754D02*
X54420762Y7813249D01*
X54434267Y11558680D02*
X54434267Y7826754D01*
%TO.N,Net-(D76-K)*%
X64736586Y7880750D02*
X64687756Y7831920D01*
X64736586Y11571344D02*
X64736586Y7880750D01*
%TO.N,Net-(D73-K)*%
X64732126Y21999287D02*
X64729935Y22001478D01*
X64732126Y18538732D02*
X64732126Y21999287D01*
%TO.N,Net-(D61-K)*%
X54450830Y22013769D02*
X54464508Y22027447D01*
X54450830Y18501461D02*
X54450830Y22013769D01*
%TO.N,Net-(D49-K)*%
X44163647Y22052520D02*
X44155294Y22060873D01*
X44163647Y18493063D02*
X44163647Y22052520D01*
%TO.N,Net-(D37-K)*%
X33815156Y22073133D02*
X33829340Y22087317D01*
X33815156Y18490937D02*
X33815156Y22073133D01*
%TO.N,Net-(D25-K)*%
X23516713Y18480696D02*
X23516713Y22073528D01*
X23516713Y22073528D02*
X23492109Y22098132D01*
%TO.N,+12V*%
X64747056Y13411814D02*
X64736586Y13401344D01*
X68158822Y13411814D02*
X64747056Y13411814D01*
X64736078Y16704780D02*
X64732126Y16708732D01*
X68141817Y16704780D02*
X64736078Y16704780D01*
X57890788Y13402499D02*
X54448086Y13402499D01*
X54448086Y13402499D02*
X54434267Y13388680D01*
X54451223Y16671854D02*
X54450830Y16671461D01*
X57884042Y16671854D02*
X54451223Y16671854D01*
X44163749Y13377467D02*
X44162443Y13376161D01*
X47563615Y13377467D02*
X44163749Y13377467D01*
X44178315Y16648395D02*
X44163647Y16663063D01*
X47590750Y16648395D02*
X44178315Y16648395D01*
X33792821Y13401939D02*
X33791198Y13403562D01*
X37275523Y13401939D02*
X33792821Y13401939D01*
X33818956Y16657137D02*
X33815156Y16660937D01*
X37268499Y16657137D02*
X33818956Y16657137D01*
X23525579Y13401940D02*
X23520786Y13406733D01*
X26917210Y13401940D02*
X23525579Y13401940D01*
X23522499Y16656482D02*
X23516713Y16650696D01*
X26941612Y16656482D02*
X23522499Y16656482D01*
X16688793Y13398229D02*
X13279233Y13398229D01*
X13279233Y13398229D02*
X13275523Y13401939D01*
X13215196Y16645500D02*
X13194470Y16624774D01*
X16623034Y16645500D02*
X13215196Y16645500D01*
D18*
%TO.N,Net-(D13-K)*%
X13166248Y22121939D02*
X13166248Y18482996D01*
X13166248Y18482996D02*
X13194470Y18454774D01*
%TO.N,Net-(D10-K)*%
X8275523Y17761939D02*
X7585523Y18451939D01*
X7585523Y18451939D02*
X6275523Y18451939D01*
D17*
%TO.N,+12V*%
X2775523Y13401939D02*
X6275523Y13401939D01*
X2775523Y16621939D02*
X6275523Y16621939D01*
D18*
%TO.N,Net-(D3-A)*%
X5372601Y25304861D02*
X6275523Y24401939D01*
X5372601Y26702624D02*
X5372601Y25304861D01*
D17*
%TO.N,Net-(D2-K)*%
X2775523Y25755546D02*
X3722601Y26702624D01*
X2775523Y23951939D02*
X2775523Y25755546D01*
%TO.N,Net-(D1-K)*%
X2775523Y18451939D02*
X2775523Y22121939D01*
%TD*%
%TA.AperFunction,Conductor*%
%TO.N,GND*%
G36*
X72123872Y29479815D02*
G01*
X72169627Y29427011D01*
X72179571Y29357853D01*
X72150546Y29294297D01*
X72092829Y29256840D01*
X72071046Y29250232D01*
X72071043Y29250231D01*
X71888546Y29152683D01*
X71728589Y29021410D01*
X71718827Y29009514D01*
X71661081Y28970180D01*
X71611755Y28964689D01*
X71587001Y28966938D01*
X71505427Y28966938D01*
X71505427Y28716005D01*
X71500088Y28680010D01*
X71439699Y28480933D01*
X71424500Y28326605D01*
X71424500Y28190938D01*
X71404815Y28123899D01*
X71352011Y28078144D01*
X71300500Y28066938D01*
X71255427Y28066938D01*
X71255427Y27940938D01*
X71235742Y27873899D01*
X71182938Y27828144D01*
X71131427Y27816938D01*
X70280428Y27816938D01*
X70280428Y27810356D01*
X70286835Y27739836D01*
X70286836Y27739831D01*
X70337408Y27577540D01*
X70340487Y27570700D01*
X70337695Y27569444D01*
X70351958Y27515419D01*
X70330439Y27448946D01*
X70306670Y27422974D01*
X70234017Y27363349D01*
X70102744Y27203391D01*
X70102742Y27203388D01*
X70069516Y27141227D01*
X70005196Y27020895D01*
X69945126Y26822871D01*
X69934878Y26718816D01*
X69929927Y26668546D01*
X69929927Y26165330D01*
X69932747Y26136698D01*
X69945126Y26011006D01*
X69954125Y25981340D01*
X70005195Y25812984D01*
X70102742Y25630488D01*
X70102747Y25630482D01*
X70106126Y25625425D01*
X70104055Y25624042D01*
X70127110Y25569789D01*
X70127947Y25555409D01*
X70127947Y24234323D01*
X70127947Y24061101D01*
X70155045Y23890011D01*
X70197563Y23759154D01*
X70208575Y23725265D01*
X70289427Y23566583D01*
X70288048Y23565881D01*
X70304404Y23507903D01*
X70304404Y22847304D01*
X70307221Y22805756D01*
X70330741Y22711180D01*
X70330741Y22651330D01*
X70307221Y22556755D01*
X70307221Y22556750D01*
X70304404Y22515209D01*
X70304404Y21467301D01*
X70305550Y21450403D01*
X70307221Y21425756D01*
X70351867Y21246234D01*
X70351868Y21246232D01*
X70434059Y21080507D01*
X70434884Y21079216D01*
X70435149Y21078309D01*
X70437049Y21074478D01*
X70436367Y21074141D01*
X70454404Y21012433D01*
X70454404Y19979085D01*
X70436881Y19919121D01*
X70438019Y19918556D01*
X70352838Y19746804D01*
X70352837Y19746802D01*
X70308191Y19567280D01*
X70305374Y19525732D01*
X70305374Y18517081D01*
X70285689Y18450042D01*
X70232885Y18404287D01*
X70163727Y18394343D01*
X70100171Y18423368D01*
X70093693Y18429400D01*
X69428636Y19094457D01*
X69395151Y19155780D01*
X69392317Y19182138D01*
X69392317Y19508732D01*
X69392117Y19511685D01*
X69389500Y19550275D01*
X69386187Y19563595D01*
X69371838Y19621294D01*
X69344854Y19729801D01*
X69262659Y19895533D01*
X69204766Y19967554D01*
X69146757Y20039721D01*
X69043529Y20122698D01*
X69002570Y20155622D01*
X69002568Y20155623D01*
X69002567Y20155624D01*
X68836840Y20237816D01*
X68836838Y20237817D01*
X68657314Y20282463D01*
X68657318Y20282463D01*
X68626156Y20284576D01*
X68615771Y20285280D01*
X67667863Y20285280D01*
X67655994Y20284476D01*
X67626317Y20282463D01*
X67446795Y20237817D01*
X67446793Y20237816D01*
X67281066Y20155624D01*
X67136876Y20039721D01*
X67020973Y19895531D01*
X66938781Y19729804D01*
X66938780Y19729802D01*
X66894134Y19550280D01*
X66893462Y19540367D01*
X66891518Y19511690D01*
X66891317Y19508732D01*
X66891317Y17929280D01*
X66871632Y17862241D01*
X66818828Y17816486D01*
X66767317Y17805280D01*
X66106626Y17805280D01*
X66039587Y17824965D01*
X65993832Y17877769D01*
X65982626Y17929280D01*
X65982626Y19512684D01*
X65981723Y19526000D01*
X65979809Y19554227D01*
X65935163Y19733753D01*
X65852968Y19899485D01*
X65852967Y19899486D01*
X65852967Y19899487D01*
X65852142Y19900778D01*
X65851876Y19901686D01*
X65849981Y19905508D01*
X65850661Y19905846D01*
X65832626Y19967554D01*
X65832626Y21026084D01*
X65849510Y21083848D01*
X65847790Y21084701D01*
X65887141Y21164047D01*
X65932972Y21256457D01*
X65977618Y21435983D01*
X65980435Y21477524D01*
X65980435Y21495666D01*
X67242456Y21495666D01*
X67248857Y21436138D01*
X67248859Y21436131D01*
X67299101Y21301424D01*
X67299105Y21301417D01*
X67385265Y21186323D01*
X67385268Y21186320D01*
X67500362Y21100160D01*
X67500369Y21100156D01*
X67635076Y21049914D01*
X67635083Y21049912D01*
X67694611Y21043511D01*
X67694628Y21043510D01*
X67892456Y21043510D01*
X68392456Y21043510D01*
X68590284Y21043510D01*
X68590300Y21043511D01*
X68649828Y21049912D01*
X68649835Y21049914D01*
X68784542Y21100156D01*
X68784549Y21100160D01*
X68899643Y21186320D01*
X68899646Y21186323D01*
X68985806Y21301417D01*
X68985810Y21301424D01*
X69036052Y21436131D01*
X69036054Y21436138D01*
X69042455Y21495666D01*
X69042456Y21495683D01*
X69042456Y22193510D01*
X68392456Y22193510D01*
X68392456Y21043510D01*
X67892456Y21043510D01*
X67892456Y22193510D01*
X67242456Y22193510D01*
X67242456Y21495666D01*
X65980435Y21495666D01*
X65980435Y22525432D01*
X65977618Y22566973D01*
X65973178Y22584825D01*
X65966272Y22612596D01*
X65954097Y22661554D01*
X65954097Y22721404D01*
X65954242Y22721985D01*
X65977618Y22815983D01*
X65980435Y22857524D01*
X65980435Y24805432D01*
X65977618Y24846973D01*
X65976987Y24849509D01*
X65965936Y24893949D01*
X65932972Y25026499D01*
X65931272Y25029927D01*
X65930864Y25032234D01*
X65930654Y25032807D01*
X65930756Y25032845D01*
X65919122Y25098732D01*
X65946099Y25163183D01*
X66003639Y25202818D01*
X66012786Y25205441D01*
X66021382Y25207553D01*
X66035818Y25208974D01*
X66072588Y25220128D01*
X66075809Y25220919D01*
X66107526Y25219498D01*
X66139255Y25219781D01*
X66142168Y25217946D01*
X66145609Y25217791D01*
X66171515Y25199453D01*
X66198368Y25182533D01*
X66199826Y25179414D01*
X66202637Y25177424D01*
X66214518Y25147987D01*
X66227959Y25119239D01*
X66228385Y25113634D01*
X66228789Y25112633D01*
X66228555Y25111401D01*
X66229384Y25100497D01*
X66229384Y25032613D01*
X66269752Y24829670D01*
X66269754Y24829662D01*
X66322317Y24702763D01*
X66348943Y24638484D01*
X66352144Y24633694D01*
X66463908Y24466425D01*
X66614548Y24315785D01*
X66614570Y24315765D01*
X66855637Y24074698D01*
X66889122Y24013375D01*
X66891956Y23987017D01*
X66891956Y23749559D01*
X66894773Y23708011D01*
X66939419Y23528489D01*
X66939420Y23528487D01*
X67021612Y23362760D01*
X67137515Y23218570D01*
X67196144Y23171443D01*
X67236062Y23114099D01*
X67242456Y23074796D01*
X67242456Y22693510D01*
X69042456Y22693510D01*
X69042456Y23074796D01*
X69062141Y23141835D01*
X69088768Y23171443D01*
X69147396Y23218570D01*
X69151122Y23223205D01*
X69263298Y23362757D01*
X69345493Y23528489D01*
X69390139Y23708015D01*
X69392956Y23749556D01*
X69392956Y24797464D01*
X69390139Y24839005D01*
X69388157Y24846973D01*
X69374451Y24902086D01*
X69345493Y25018531D01*
X69263298Y25184263D01*
X69209150Y25251626D01*
X69147396Y25328451D01*
X69043802Y25411722D01*
X69003209Y25444352D01*
X69003207Y25444353D01*
X69003206Y25444354D01*
X68837479Y25526546D01*
X68837477Y25526547D01*
X68657953Y25571193D01*
X68657957Y25571193D01*
X68626795Y25573306D01*
X68616410Y25574010D01*
X68616408Y25574010D01*
X68519651Y25574010D01*
X68452612Y25593695D01*
X68406857Y25646499D01*
X68396913Y25715657D01*
X68410291Y25756461D01*
X68455116Y25840320D01*
X68515184Y26038340D01*
X68530384Y26192666D01*
X68530384Y26845882D01*
X68515184Y27000208D01*
X68455116Y27198228D01*
X68357569Y27380724D01*
X68278741Y27476777D01*
X68226294Y27540685D01*
X68066336Y27671957D01*
X68066337Y27671957D01*
X68066334Y27671959D01*
X67883838Y27769506D01*
X67685818Y27829574D01*
X67685816Y27829575D01*
X67685818Y27829575D01*
X67566689Y27841308D01*
X67531492Y27844774D01*
X67028276Y27844774D01*
X66990182Y27841023D01*
X66873951Y27829575D01*
X66750024Y27791982D01*
X66678591Y27770313D01*
X66675927Y27769505D01*
X66513338Y27682598D01*
X66444935Y27668356D01*
X66396430Y27682598D01*
X66233840Y27769505D01*
X66233839Y27769506D01*
X66233838Y27769506D01*
X66035818Y27829574D01*
X66035816Y27829575D01*
X66035818Y27829575D01*
X65916689Y27841308D01*
X65881492Y27844774D01*
X65378276Y27844774D01*
X65340182Y27841023D01*
X65223951Y27829575D01*
X65100024Y27791982D01*
X65028591Y27770313D01*
X65025927Y27769505D01*
X64934969Y27720886D01*
X64843434Y27671959D01*
X64843432Y27671958D01*
X64843431Y27671957D01*
X64683473Y27540685D01*
X64552201Y27380727D01*
X64552199Y27380724D01*
X64509541Y27300917D01*
X64454651Y27198227D01*
X64434396Y27131456D01*
X64396098Y27073017D01*
X64332286Y27044561D01*
X64263219Y27055122D01*
X64210826Y27101347D01*
X64197351Y27130561D01*
X64168018Y27224691D01*
X64080072Y27370172D01*
X63959877Y27490367D01*
X63814395Y27578314D01*
X63814396Y27578314D01*
X63652105Y27628885D01*
X63652106Y27628885D01*
X63581572Y27635294D01*
X63575000Y27635294D01*
X63575000Y25685295D01*
X63578934Y25681361D01*
X63597122Y25673055D01*
X63622474Y25665610D01*
X63628401Y25658770D01*
X63636638Y25655008D01*
X63650927Y25632774D01*
X63668229Y25612806D01*
X63670516Y25602292D01*
X63674412Y25596230D01*
X63679435Y25561295D01*
X63679435Y25323399D01*
X63659750Y25256360D01*
X63652082Y25245712D01*
X63609092Y25192231D01*
X63609090Y25192228D01*
X63526899Y25026502D01*
X63526898Y25026500D01*
X63482252Y24846978D01*
X63481078Y24829662D01*
X63479607Y24807961D01*
X63479435Y24805430D01*
X63479435Y22857527D01*
X63482252Y22815979D01*
X63505772Y22721403D01*
X63505772Y22661553D01*
X63482252Y22566978D01*
X63482252Y22566973D01*
X63479607Y22527961D01*
X63479435Y22525430D01*
X63479435Y21477527D01*
X63482252Y21435979D01*
X63526898Y21256457D01*
X63526899Y21256455D01*
X63609089Y21090731D01*
X63612104Y21086015D01*
X63631626Y21019229D01*
X63631626Y19967554D01*
X63613590Y19905846D01*
X63614271Y19905508D01*
X63612375Y19901686D01*
X63612110Y19900778D01*
X63611284Y19899487D01*
X63529090Y19733756D01*
X63529089Y19733754D01*
X63484443Y19554232D01*
X63481626Y19512684D01*
X63481626Y17564781D01*
X63484443Y17523233D01*
X63507963Y17428657D01*
X63507963Y17368807D01*
X63484443Y17274232D01*
X63481626Y17232684D01*
X63481626Y16265712D01*
X63461941Y16198673D01*
X63409137Y16152918D01*
X63357626Y16141712D01*
X62696227Y16141712D01*
X62629188Y16161397D01*
X62583433Y16214201D01*
X62572227Y16265712D01*
X62572227Y17217344D01*
X62572227Y17217346D01*
X62569410Y17258887D01*
X62545889Y17353468D01*
X62545889Y17413318D01*
X62561867Y17477564D01*
X62569410Y17507897D01*
X62572227Y17549438D01*
X62572227Y19497346D01*
X62569410Y19538887D01*
X62567719Y19545685D01*
X62558483Y19582826D01*
X62524764Y19718413D01*
X62442569Y19884145D01*
X62442568Y19884146D01*
X62442568Y19884147D01*
X62441743Y19885438D01*
X62441477Y19886346D01*
X62439582Y19890168D01*
X62440262Y19890506D01*
X62422227Y19952214D01*
X62422227Y21044654D01*
X62435139Y21099748D01*
X62458690Y21147236D01*
X62514114Y21258988D01*
X62558760Y21438514D01*
X62561577Y21480055D01*
X62561577Y22527963D01*
X62558760Y22569504D01*
X62555803Y22581393D01*
X62538041Y22652817D01*
X62535239Y22664085D01*
X62535239Y22723935D01*
X62538196Y22735823D01*
X62558760Y22818514D01*
X62561577Y22860055D01*
X62561577Y24807963D01*
X62558760Y24849504D01*
X62555803Y24861393D01*
X62541726Y24917999D01*
X62514114Y25029030D01*
X62431919Y25194762D01*
X62431918Y25194763D01*
X62431918Y25194764D01*
X62431093Y25196055D01*
X62430827Y25196963D01*
X62428932Y25200785D01*
X62429612Y25201123D01*
X62426113Y25213093D01*
X62416600Y25227896D01*
X62411577Y25262831D01*
X62411577Y25408033D01*
X62431262Y25475072D01*
X62456913Y25503887D01*
X62461445Y25507607D01*
X62461450Y25507609D01*
X62621410Y25638884D01*
X62681036Y25711540D01*
X62738778Y25750872D01*
X62808623Y25752743D01*
X62828328Y25744385D01*
X62828765Y25745353D01*
X62835606Y25742274D01*
X62997894Y25691704D01*
X62997893Y25691704D01*
X63068408Y25685296D01*
X63068426Y25685295D01*
X63074999Y25685296D01*
X63075000Y25685296D01*
X63075000Y27635294D01*
X63074999Y27635295D01*
X63068436Y27635294D01*
X63068417Y27635293D01*
X62997897Y27628886D01*
X62997892Y27628885D01*
X62835601Y27578313D01*
X62828762Y27575234D01*
X62827509Y27578018D01*
X62773424Y27563764D01*
X62706961Y27585314D01*
X62681034Y27609051D01*
X62676201Y27614940D01*
X62621410Y27681704D01*
X62621408Y27681706D01*
X62621407Y27681707D01*
X62516243Y27768012D01*
X62461450Y27812979D01*
X62278954Y27910526D01*
X62080934Y27970594D01*
X62080932Y27970595D01*
X62080934Y27970595D01*
X61961805Y27982328D01*
X61926608Y27985794D01*
X61423392Y27985794D01*
X61385298Y27982043D01*
X61269067Y27970595D01*
X61071043Y27910525D01*
X60976121Y27859787D01*
X60888550Y27812979D01*
X60888548Y27812978D01*
X60888547Y27812977D01*
X60728589Y27681705D01*
X60599786Y27524755D01*
X60597315Y27521744D01*
X60561630Y27454983D01*
X60499769Y27339251D01*
X60439699Y27141227D01*
X60424499Y26986891D01*
X60424350Y26983856D01*
X60423102Y26983918D01*
X60404815Y26921636D01*
X60400818Y26915789D01*
X60369845Y26873160D01*
X60291205Y26718819D01*
X60237674Y26554069D01*
X60210577Y26382982D01*
X60210577Y25262831D01*
X60192541Y25201123D01*
X60193222Y25200785D01*
X60191326Y25196963D01*
X60191061Y25196055D01*
X60190235Y25194764D01*
X60108041Y25029033D01*
X60108040Y25029031D01*
X60063394Y24849509D01*
X60063222Y24846973D01*
X60060577Y24807963D01*
X60060577Y22860055D01*
X60060749Y22857524D01*
X60063394Y22818510D01*
X60086914Y22723934D01*
X60086914Y22664084D01*
X60063395Y22569510D01*
X60063394Y22569510D01*
X60063222Y22566973D01*
X60060577Y22527963D01*
X60060577Y21480055D01*
X60060749Y21477524D01*
X60063394Y21438510D01*
X60108040Y21258988D01*
X60108041Y21258986D01*
X60190233Y21093257D01*
X60193870Y21088734D01*
X60220532Y21024152D01*
X60221227Y21011042D01*
X60221227Y19952214D01*
X60203191Y19890506D01*
X60203872Y19890168D01*
X60201976Y19886346D01*
X60201711Y19885438D01*
X60200885Y19884147D01*
X60118691Y19718416D01*
X60118690Y19718414D01*
X60074044Y19538892D01*
X60073170Y19526000D01*
X60071586Y19502632D01*
X60071227Y19497344D01*
X60071227Y19251229D01*
X60064997Y19230015D01*
X60063433Y19207961D01*
X60055346Y19197146D01*
X60051542Y19184190D01*
X60034833Y19169713D01*
X60021593Y19152004D01*
X60008942Y19147278D01*
X59998738Y19138435D01*
X59976854Y19135289D01*
X59956143Y19127550D01*
X59942946Y19130413D01*
X59929580Y19128491D01*
X59909468Y19137676D01*
X59887861Y19142363D01*
X59870063Y19155672D01*
X59866024Y19157516D01*
X59859595Y19163499D01*
X59858704Y19164389D01*
X59858657Y19164447D01*
X59858652Y19164441D01*
X59851585Y19171508D01*
X59851585Y19171509D01*
X59705263Y19317831D01*
X59533206Y19432795D01*
X59477143Y19456017D01*
X59342028Y19511984D01*
X59342022Y19511986D01*
X59199341Y19540367D01*
X59137430Y19572752D01*
X59103198Y19632058D01*
X59099492Y19646961D01*
X59087079Y19696875D01*
X59004884Y19862607D01*
X58931229Y19954237D01*
X58888982Y20006795D01*
X58773979Y20099237D01*
X58744795Y20122696D01*
X58744793Y20122697D01*
X58744792Y20122698D01*
X58579065Y20204890D01*
X58579063Y20204891D01*
X58399539Y20249537D01*
X58399543Y20249537D01*
X58368381Y20251650D01*
X58357996Y20252354D01*
X57410088Y20252354D01*
X57398219Y20251550D01*
X57368542Y20249537D01*
X57189020Y20204891D01*
X57189018Y20204890D01*
X57023291Y20122698D01*
X56879101Y20006795D01*
X56763198Y19862605D01*
X56681006Y19696878D01*
X56681005Y19696876D01*
X56636359Y19517354D01*
X56633542Y19475806D01*
X56633542Y17896354D01*
X56613857Y17829315D01*
X56561053Y17783560D01*
X56509542Y17772354D01*
X55825330Y17772354D01*
X55758291Y17792039D01*
X55712536Y17844843D01*
X55701330Y17896354D01*
X55701330Y19475413D01*
X55700373Y19489529D01*
X55698513Y19516956D01*
X55698415Y19517349D01*
X55684096Y19574928D01*
X55653867Y19696482D01*
X55571672Y19862214D01*
X55571671Y19862215D01*
X55571671Y19862216D01*
X55570846Y19863507D01*
X55570580Y19864415D01*
X55568685Y19868237D01*
X55569365Y19868575D01*
X55551330Y19930283D01*
X55551330Y21030713D01*
X55571015Y21097752D01*
X55578686Y21108404D01*
X55583524Y21114423D01*
X55585350Y21116694D01*
X55667545Y21282426D01*
X55712191Y21461952D01*
X55715008Y21503493D01*
X55715008Y21520665D01*
X56988246Y21520665D01*
X56994647Y21461137D01*
X56994649Y21461130D01*
X57044891Y21326423D01*
X57044895Y21326416D01*
X57131055Y21211322D01*
X57131058Y21211319D01*
X57246152Y21125159D01*
X57246159Y21125155D01*
X57380866Y21074913D01*
X57380873Y21074911D01*
X57440401Y21068510D01*
X57440418Y21068509D01*
X57638246Y21068509D01*
X58138246Y21068509D01*
X58336074Y21068509D01*
X58336090Y21068510D01*
X58395618Y21074911D01*
X58395625Y21074913D01*
X58530332Y21125155D01*
X58530339Y21125159D01*
X58645433Y21211319D01*
X58645436Y21211322D01*
X58731596Y21326416D01*
X58731600Y21326423D01*
X58781842Y21461130D01*
X58781844Y21461137D01*
X58788245Y21520665D01*
X58788246Y21520682D01*
X58788246Y22218509D01*
X58138246Y22218509D01*
X58138246Y21068509D01*
X57638246Y21068509D01*
X57638246Y22218509D01*
X56988246Y22218509D01*
X56988246Y21520665D01*
X55715008Y21520665D01*
X55715008Y22551401D01*
X55712191Y22592942D01*
X55688670Y22687523D01*
X55688670Y22747373D01*
X55688675Y22747391D01*
X55712191Y22841952D01*
X55715008Y22883493D01*
X55715008Y24831401D01*
X55712191Y24872942D01*
X55711111Y24877283D01*
X55700779Y24918829D01*
X55667545Y25052468D01*
X55658866Y25069967D01*
X55655461Y25089247D01*
X55647274Y25107029D01*
X55649511Y25122942D01*
X55646716Y25138770D01*
X55654276Y25156833D01*
X55657002Y25176218D01*
X55667487Y25188396D01*
X55673693Y25203221D01*
X55689817Y25214329D01*
X55702592Y25229164D01*
X55723889Y25237799D01*
X55731233Y25242857D01*
X55734651Y25243926D01*
X55741244Y25245885D01*
X55742328Y25245991D01*
X55776296Y25256296D01*
X55776589Y25256382D01*
X55811235Y25256490D01*
X55845765Y25256798D01*
X55846082Y25256598D01*
X55846458Y25256599D01*
X55875636Y25237976D01*
X55904878Y25219550D01*
X55905036Y25219211D01*
X55905354Y25219008D01*
X55919843Y25187540D01*
X55934469Y25156256D01*
X55934512Y25155681D01*
X55934576Y25155543D01*
X55934541Y25155300D01*
X55935894Y25137514D01*
X55935894Y25096892D01*
X55976262Y24893949D01*
X55976264Y24893941D01*
X55994670Y24849504D01*
X56055453Y24702763D01*
X56098401Y24638486D01*
X56170418Y24530704D01*
X56321058Y24380064D01*
X56321080Y24380044D01*
X56601427Y24099697D01*
X56634912Y24038374D01*
X56637746Y24012016D01*
X56637746Y23774558D01*
X56640563Y23733010D01*
X56685209Y23553488D01*
X56685210Y23553486D01*
X56767402Y23387759D01*
X56883305Y23243569D01*
X56941934Y23196442D01*
X56981852Y23139098D01*
X56988246Y23099795D01*
X56988246Y22718509D01*
X58788246Y22718509D01*
X58788246Y23099795D01*
X58807931Y23166834D01*
X58834558Y23196442D01*
X58893186Y23243569D01*
X58932100Y23291980D01*
X59009088Y23387756D01*
X59091283Y23553488D01*
X59135929Y23733014D01*
X59138746Y23774555D01*
X59138746Y24822463D01*
X59135929Y24864004D01*
X59135724Y24864827D01*
X59116126Y24943632D01*
X59091283Y25043530D01*
X59009088Y25209262D01*
X58951512Y25280889D01*
X58893186Y25353450D01*
X58780096Y25444354D01*
X58748999Y25469351D01*
X58748997Y25469352D01*
X58748996Y25469353D01*
X58583269Y25551545D01*
X58583267Y25551546D01*
X58403743Y25596192D01*
X58403747Y25596192D01*
X58372585Y25598305D01*
X58362200Y25599009D01*
X58362198Y25599009D01*
X58219738Y25599009D01*
X58152699Y25618694D01*
X58106944Y25671498D01*
X58097000Y25740656D01*
X58110380Y25781462D01*
X58161624Y25877333D01*
X58161624Y25877334D01*
X58161626Y25877337D01*
X58221694Y26075357D01*
X58236894Y26229683D01*
X58236894Y26882899D01*
X58221694Y27037225D01*
X58161626Y27235245D01*
X58064079Y27417741D01*
X57989620Y27508470D01*
X57932804Y27577702D01*
X57806074Y27681705D01*
X57772844Y27708976D01*
X57590348Y27806523D01*
X57392328Y27866591D01*
X57392326Y27866592D01*
X57392328Y27866592D01*
X57271395Y27878502D01*
X57238002Y27881791D01*
X56734786Y27881791D01*
X56701393Y27878502D01*
X56580461Y27866592D01*
X56382437Y27806522D01*
X56219848Y27719615D01*
X56151445Y27705373D01*
X56102940Y27719615D01*
X55940350Y27806522D01*
X55940349Y27806523D01*
X55940348Y27806523D01*
X55742328Y27866591D01*
X55742326Y27866592D01*
X55742328Y27866592D01*
X55621395Y27878502D01*
X55588002Y27881791D01*
X55084786Y27881791D01*
X55051393Y27878502D01*
X54930461Y27866592D01*
X54732437Y27806522D01*
X54622292Y27747648D01*
X54549944Y27708976D01*
X54549942Y27708975D01*
X54549941Y27708974D01*
X54389983Y27577702D01*
X54258711Y27417744D01*
X54258709Y27417741D01*
X54238923Y27380724D01*
X54161163Y27235248D01*
X54161162Y27235246D01*
X54161162Y27235245D01*
X54157961Y27224691D01*
X54101093Y27037224D01*
X54091708Y26941932D01*
X54087425Y26898437D01*
X54085894Y26882896D01*
X54085894Y26842785D01*
X54066209Y26775746D01*
X54049575Y26755104D01*
X53702753Y26408282D01*
X53641430Y26374797D01*
X53615072Y26371963D01*
X53075000Y26371963D01*
X53075000Y25646964D01*
X53081581Y25646964D01*
X53152102Y25653372D01*
X53152104Y25653372D01*
X53253116Y25684849D01*
X53280524Y25685301D01*
X53307655Y25689202D01*
X53314953Y25685869D01*
X53322977Y25686001D01*
X53346279Y25671564D01*
X53371211Y25660177D01*
X53375548Y25653428D01*
X53382370Y25649201D01*
X53394166Y25624458D01*
X53408985Y25601399D01*
X53410636Y25589910D01*
X53412438Y25586132D01*
X53414008Y25566464D01*
X53414008Y25349368D01*
X53394323Y25282329D01*
X53386655Y25271681D01*
X53343665Y25218200D01*
X53343663Y25218197D01*
X53261472Y25052471D01*
X53261471Y25052469D01*
X53216825Y24872947D01*
X53214008Y24831399D01*
X53214008Y22883496D01*
X53216825Y22841948D01*
X53240345Y22747372D01*
X53240345Y22687522D01*
X53216825Y22592947D01*
X53214008Y22551399D01*
X53214008Y21503496D01*
X53216825Y21461948D01*
X53261471Y21282426D01*
X53261472Y21282424D01*
X53337418Y21129291D01*
X53350330Y21074197D01*
X53350330Y19930283D01*
X53332294Y19868575D01*
X53332975Y19868237D01*
X53331079Y19864415D01*
X53330814Y19863507D01*
X53329988Y19862216D01*
X53247794Y19696485D01*
X53247793Y19696483D01*
X53203147Y19516961D01*
X53201343Y19490348D01*
X53200330Y19475415D01*
X53200330Y17527507D01*
X53201044Y17516983D01*
X53203147Y17485962D01*
X53226667Y17391386D01*
X53226667Y17331536D01*
X53203147Y17236961D01*
X53200330Y17195413D01*
X53200330Y16265712D01*
X53180645Y16198673D01*
X53127841Y16152918D01*
X53076330Y16141712D01*
X52410181Y16141712D01*
X52343142Y16161397D01*
X52297387Y16214201D01*
X52286181Y16265712D01*
X52286181Y17168800D01*
X52286079Y17170309D01*
X52283364Y17210343D01*
X52281908Y17216196D01*
X52267477Y17274227D01*
X52259843Y17304924D01*
X52259843Y17364774D01*
X52271916Y17413318D01*
X52283364Y17459353D01*
X52286181Y17500894D01*
X52286181Y19448802D01*
X52283364Y19490343D01*
X52281908Y19496196D01*
X52268458Y19550280D01*
X52238718Y19669869D01*
X52189363Y19769384D01*
X52168315Y19811825D01*
X52155403Y19866919D01*
X52155403Y21037076D01*
X52173439Y21098784D01*
X52172758Y21099121D01*
X52174657Y21102952D01*
X52174923Y21103859D01*
X52175739Y21105138D01*
X52175745Y21105145D01*
X52257940Y21270877D01*
X52302586Y21450403D01*
X52305403Y21491944D01*
X52305403Y22539852D01*
X52302586Y22581393D01*
X52301474Y22585863D01*
X52286546Y22645891D01*
X52279065Y22675974D01*
X52279065Y22735824D01*
X52284632Y22758207D01*
X52302586Y22830403D01*
X52305403Y22871944D01*
X52305403Y24819852D01*
X52302586Y24861393D01*
X52301935Y24864009D01*
X52290661Y24909344D01*
X52257940Y25040919D01*
X52175745Y25206651D01*
X52175744Y25206652D01*
X52175744Y25206653D01*
X52174919Y25207944D01*
X52174653Y25208852D01*
X52172758Y25212674D01*
X52173438Y25213012D01*
X52155403Y25274720D01*
X52155403Y25593258D01*
X52175088Y25660297D01*
X52227892Y25706052D01*
X52297050Y25715996D01*
X52330298Y25706332D01*
X52335606Y25703943D01*
X52497894Y25653373D01*
X52497893Y25653373D01*
X52568408Y25646965D01*
X52568426Y25646964D01*
X52574999Y25646965D01*
X52575000Y25646965D01*
X52575000Y26871963D01*
X53075000Y26871963D01*
X53724999Y26871963D01*
X53724999Y26953546D01*
X53718591Y27024066D01*
X53718590Y27024071D01*
X53668018Y27186360D01*
X53580072Y27331841D01*
X53459877Y27452036D01*
X53314395Y27539983D01*
X53314396Y27539983D01*
X53152105Y27590554D01*
X53152106Y27590554D01*
X53081572Y27596963D01*
X53075000Y27596963D01*
X53075000Y26871963D01*
X52575000Y26871963D01*
X52575000Y27596963D01*
X52574999Y27596964D01*
X52568436Y27596963D01*
X52568417Y27596962D01*
X52497897Y27590555D01*
X52497892Y27590554D01*
X52335601Y27539982D01*
X52328762Y27536903D01*
X52327509Y27539687D01*
X52273424Y27525433D01*
X52206961Y27546983D01*
X52181034Y27570720D01*
X52121410Y27643373D01*
X52121408Y27643375D01*
X52121407Y27643376D01*
X52013996Y27731525D01*
X51961450Y27774648D01*
X51778954Y27872195D01*
X51580934Y27932263D01*
X51580932Y27932264D01*
X51580934Y27932264D01*
X51461805Y27943997D01*
X51426608Y27947463D01*
X50923392Y27947463D01*
X50885298Y27943712D01*
X50769067Y27932264D01*
X50602680Y27881791D01*
X50576664Y27873899D01*
X50571043Y27872194D01*
X50467668Y27816938D01*
X50388550Y27774648D01*
X50388548Y27774647D01*
X50388547Y27774646D01*
X50228589Y27643374D01*
X50097317Y27483416D01*
X50097315Y27483413D01*
X50068580Y27429654D01*
X49999769Y27300920D01*
X49939699Y27102896D01*
X49931282Y27017430D01*
X49924500Y26948571D01*
X49924500Y26295355D01*
X49928621Y26253512D01*
X49939699Y26141031D01*
X49949064Y26110160D01*
X49954403Y26074165D01*
X49954403Y25274720D01*
X49936367Y25213012D01*
X49937048Y25212674D01*
X49935152Y25208852D01*
X49934887Y25207944D01*
X49934061Y25206653D01*
X49851867Y25040922D01*
X49851866Y25040920D01*
X49807220Y24861398D01*
X49804403Y24819850D01*
X49804403Y22871947D01*
X49807220Y22830399D01*
X49830740Y22735823D01*
X49830740Y22675973D01*
X49807220Y22581398D01*
X49807220Y22581393D01*
X49804403Y22539852D01*
X49804403Y21491944D01*
X49804720Y21487270D01*
X49807220Y21450399D01*
X49851866Y21270877D01*
X49851867Y21270875D01*
X49934058Y21105150D01*
X49934883Y21103859D01*
X49935148Y21102952D01*
X49937048Y21099121D01*
X49936366Y21098784D01*
X49954403Y21037076D01*
X49954403Y19928480D01*
X49934718Y19861441D01*
X49927052Y19850795D01*
X49914838Y19835600D01*
X49832645Y19669872D01*
X49832644Y19669870D01*
X49787998Y19490348D01*
X49786637Y19470274D01*
X49785578Y19454648D01*
X49785181Y19448800D01*
X49785181Y18537274D01*
X49765496Y18470235D01*
X49712692Y18424480D01*
X49643534Y18414536D01*
X49579978Y18443561D01*
X49573500Y18449593D01*
X48879384Y19143709D01*
X48878427Y19144666D01*
X48877520Y19145574D01*
X48875565Y19149159D01*
X48871094Y19152869D01*
X48871085Y19152880D01*
X48872779Y19154267D01*
X48860340Y19177078D01*
X48844084Y19206849D01*
X48844078Y19206899D01*
X48844069Y19206916D01*
X48844072Y19206960D01*
X48841250Y19233207D01*
X48841250Y19452347D01*
X48841001Y19456017D01*
X48838433Y19493890D01*
X48834741Y19508734D01*
X48812420Y19598489D01*
X48793787Y19673416D01*
X48711592Y19839148D01*
X48657978Y19905846D01*
X48595690Y19983336D01*
X48484413Y20072783D01*
X48451503Y20099237D01*
X48451501Y20099238D01*
X48451500Y20099239D01*
X48285773Y20181431D01*
X48285771Y20181432D01*
X48106247Y20226078D01*
X48106251Y20226078D01*
X48075089Y20228191D01*
X48064704Y20228895D01*
X47116796Y20228895D01*
X47104927Y20228091D01*
X47075250Y20226078D01*
X46895728Y20181432D01*
X46895726Y20181431D01*
X46729999Y20099239D01*
X46585809Y19983336D01*
X46469906Y19839146D01*
X46387714Y19673419D01*
X46387713Y19673417D01*
X46343067Y19493895D01*
X46340250Y19452347D01*
X46340250Y17872895D01*
X46320565Y17805856D01*
X46267761Y17760101D01*
X46216250Y17748895D01*
X45538147Y17748895D01*
X45471108Y17768580D01*
X45425353Y17821384D01*
X45414147Y17872895D01*
X45414147Y19467015D01*
X45413926Y19470274D01*
X45411330Y19508558D01*
X45410552Y19511685D01*
X45396728Y19567275D01*
X45366684Y19688084D01*
X45284489Y19853816D01*
X45284488Y19853817D01*
X45284488Y19853818D01*
X45283663Y19855109D01*
X45283397Y19856017D01*
X45281502Y19859839D01*
X45282182Y19860177D01*
X45264147Y19921885D01*
X45264147Y21096886D01*
X45277059Y21151980D01*
X45330129Y21258988D01*
X45358331Y21315852D01*
X45402977Y21495378D01*
X45405794Y21536919D01*
X45405794Y21546805D01*
X46697342Y21546805D01*
X46703743Y21487277D01*
X46703745Y21487270D01*
X46753987Y21352563D01*
X46753991Y21352556D01*
X46840151Y21237462D01*
X46840154Y21237459D01*
X46955248Y21151299D01*
X46955255Y21151295D01*
X47089962Y21101053D01*
X47089969Y21101051D01*
X47149497Y21094650D01*
X47149514Y21094649D01*
X47347342Y21094649D01*
X47847342Y21094649D01*
X48045170Y21094649D01*
X48045186Y21094650D01*
X48104714Y21101051D01*
X48104721Y21101053D01*
X48239428Y21151295D01*
X48239435Y21151299D01*
X48354529Y21237459D01*
X48354532Y21237462D01*
X48440692Y21352556D01*
X48440696Y21352563D01*
X48490938Y21487270D01*
X48490940Y21487277D01*
X48497341Y21546805D01*
X48497342Y21546822D01*
X48497342Y22244649D01*
X47847342Y22244649D01*
X47847342Y21094649D01*
X47347342Y21094649D01*
X47347342Y22244649D01*
X46697342Y22244649D01*
X46697342Y21546805D01*
X45405794Y21546805D01*
X45405794Y22584827D01*
X45402977Y22626368D01*
X45402237Y22629342D01*
X45389327Y22681255D01*
X45379456Y22720949D01*
X45379456Y22780799D01*
X45386033Y22807243D01*
X45402977Y22875378D01*
X45405794Y22916919D01*
X45405794Y24864827D01*
X45402977Y24906368D01*
X45402237Y24909342D01*
X45389752Y24959547D01*
X45358331Y25085894D01*
X45358328Y25085899D01*
X45356235Y25091599D01*
X45351594Y25161314D01*
X45385381Y25222472D01*
X45441866Y25254482D01*
X45451046Y25256834D01*
X45461889Y25257901D01*
X45498054Y25268872D01*
X45500692Y25269547D01*
X45533003Y25268420D01*
X45565326Y25268708D01*
X45567706Y25267209D01*
X45570519Y25267110D01*
X45597094Y25248691D01*
X45624439Y25231460D01*
X45625630Y25228912D01*
X45627944Y25227308D01*
X45640343Y25197441D01*
X45654030Y25168166D01*
X45654373Y25163646D01*
X45654734Y25162778D01*
X45654527Y25161627D01*
X45655455Y25149424D01*
X45655455Y25112567D01*
X45695823Y24909624D01*
X45695825Y24909616D01*
X45767717Y24736053D01*
X45775014Y24718438D01*
X45889978Y24546381D01*
X46036300Y24400059D01*
X46036301Y24400059D01*
X46043368Y24392992D01*
X46043367Y24392992D01*
X46043371Y24392989D01*
X46310523Y24125837D01*
X46344008Y24064514D01*
X46346842Y24038156D01*
X46346842Y23800698D01*
X46349659Y23759150D01*
X46394305Y23579628D01*
X46394306Y23579626D01*
X46476498Y23413899D01*
X46592401Y23269709D01*
X46651030Y23222582D01*
X46690948Y23165238D01*
X46697342Y23125935D01*
X46697342Y22744649D01*
X48497342Y22744649D01*
X48497342Y23125935D01*
X48517027Y23192974D01*
X48543654Y23222582D01*
X48602282Y23269709D01*
X48626528Y23299872D01*
X48718184Y23413896D01*
X48800379Y23579628D01*
X48845025Y23759154D01*
X48847842Y23800695D01*
X48847842Y24848603D01*
X48845025Y24890144D01*
X48837595Y24920019D01*
X48828499Y24956598D01*
X48800379Y25069670D01*
X48718184Y25235402D01*
X48656058Y25312689D01*
X48602282Y25379590D01*
X48475286Y25481672D01*
X48458095Y25495491D01*
X48458093Y25495492D01*
X48458092Y25495493D01*
X48292365Y25577685D01*
X48292363Y25577686D01*
X48112839Y25622332D01*
X48112843Y25622332D01*
X48080291Y25624539D01*
X48071296Y25625149D01*
X48071294Y25625149D01*
X47946905Y25625149D01*
X47879866Y25644834D01*
X47834111Y25697638D01*
X47824167Y25766796D01*
X47837547Y25807603D01*
X47852877Y25836283D01*
X47881187Y25889247D01*
X47941255Y26087267D01*
X47956455Y26241593D01*
X47956455Y26894809D01*
X47941255Y27049135D01*
X47881187Y27247155D01*
X47783640Y27429651D01*
X47716671Y27511254D01*
X47652365Y27589612D01*
X47496795Y27717283D01*
X47492405Y27720886D01*
X47314483Y27815988D01*
X47309911Y27818432D01*
X47309910Y27818433D01*
X47309909Y27818433D01*
X47111889Y27878501D01*
X47111887Y27878502D01*
X47111889Y27878502D01*
X46992760Y27890235D01*
X46957563Y27893701D01*
X46454347Y27893701D01*
X46416253Y27889950D01*
X46300022Y27878502D01*
X46101998Y27818432D01*
X45939409Y27731525D01*
X45871006Y27717283D01*
X45822501Y27731525D01*
X45659911Y27818432D01*
X45659910Y27818433D01*
X45659909Y27818433D01*
X45461889Y27878501D01*
X45461887Y27878502D01*
X45461889Y27878502D01*
X45342760Y27890235D01*
X45307563Y27893701D01*
X44804347Y27893701D01*
X44766253Y27889950D01*
X44650022Y27878502D01*
X44451998Y27818432D01*
X44360466Y27769506D01*
X44269505Y27720886D01*
X44269503Y27720885D01*
X44269502Y27720884D01*
X44109544Y27589612D01*
X43978272Y27429654D01*
X43978270Y27429651D01*
X43954968Y27386056D01*
X43880724Y27247158D01*
X43820654Y27049134D01*
X43810323Y26944238D01*
X43805813Y26898437D01*
X43805455Y26894806D01*
X43805455Y26854695D01*
X43785770Y26787656D01*
X43769136Y26767014D01*
X43485638Y26483516D01*
X43373005Y26370885D01*
X43311682Y26337401D01*
X43241990Y26342386D01*
X43240210Y26343530D01*
X42575000Y26343530D01*
X42575000Y25618531D01*
X42581581Y25618531D01*
X42652102Y25624939D01*
X42652107Y25624940D01*
X42814396Y25675512D01*
X42916644Y25737322D01*
X42923739Y25739196D01*
X42929283Y25743999D01*
X42957062Y25747994D01*
X42984199Y25755158D01*
X42991178Y25752899D01*
X42998441Y25753943D01*
X43023974Y25742283D01*
X43050672Y25733640D01*
X43055321Y25727967D01*
X43061997Y25724918D01*
X43077172Y25701305D01*
X43094960Y25679600D01*
X43096735Y25670864D01*
X43099771Y25666140D01*
X43104794Y25631205D01*
X43104794Y25382794D01*
X43085109Y25315755D01*
X43077441Y25305107D01*
X43034451Y25251626D01*
X43034449Y25251623D01*
X42952258Y25085897D01*
X42952257Y25085895D01*
X42907611Y24906373D01*
X42907320Y24902084D01*
X42904794Y24864827D01*
X42904794Y22916919D01*
X42905085Y22912633D01*
X42907611Y22875374D01*
X42931131Y22780798D01*
X42931131Y22720948D01*
X42907611Y22626373D01*
X42907320Y22622084D01*
X42904794Y22584827D01*
X42904794Y21536919D01*
X42905085Y21532633D01*
X42907611Y21495374D01*
X42952257Y21315852D01*
X42952258Y21315850D01*
X43034449Y21150125D01*
X43034450Y21150124D01*
X43034452Y21150120D01*
X43035792Y21148452D01*
X43036294Y21147236D01*
X43038073Y21144454D01*
X43037574Y21144136D01*
X43062452Y21083870D01*
X43063147Y21070763D01*
X43063147Y19921885D01*
X43045111Y19860177D01*
X43045792Y19859839D01*
X43043896Y19856017D01*
X43043631Y19855109D01*
X43042805Y19853818D01*
X42960611Y19688087D01*
X42960610Y19688085D01*
X42915964Y19508563D01*
X42914673Y19489524D01*
X42913717Y19475415D01*
X42913147Y19467015D01*
X42913147Y17519112D01*
X42915964Y17477564D01*
X42939484Y17382988D01*
X42939484Y17323138D01*
X42915964Y17228563D01*
X42914673Y17209524D01*
X42913717Y17195415D01*
X42913147Y17187015D01*
X42913147Y16265712D01*
X42893462Y16198673D01*
X42840658Y16152918D01*
X42789147Y16141712D01*
X42108436Y16141712D01*
X42041397Y16161397D01*
X41995642Y16214201D01*
X41984436Y16265712D01*
X41984436Y17170307D01*
X41984142Y17174648D01*
X41981619Y17211850D01*
X41980539Y17216191D01*
X41969920Y17258892D01*
X41958098Y17306431D01*
X41958098Y17366281D01*
X41959178Y17370621D01*
X41981619Y17460860D01*
X41984436Y17502401D01*
X41984436Y19450309D01*
X41981619Y19491850D01*
X41981110Y19493895D01*
X41956755Y19591831D01*
X41936973Y19671376D01*
X41863070Y19820388D01*
X41850160Y19875480D01*
X41850160Y21083089D01*
X41868196Y21144797D01*
X41867515Y21145134D01*
X41869414Y21148965D01*
X41869680Y21149872D01*
X41870496Y21151151D01*
X41870502Y21151158D01*
X41952697Y21316890D01*
X41997343Y21496416D01*
X42000160Y21537957D01*
X42000160Y22585865D01*
X41997343Y22627406D01*
X41996728Y22629877D01*
X41985111Y22676593D01*
X41973822Y22721987D01*
X41973822Y22781837D01*
X41979771Y22805756D01*
X41997343Y22876416D01*
X42000160Y22917957D01*
X42000160Y24865865D01*
X41997343Y24907406D01*
X41996793Y24909616D01*
X41982414Y24967435D01*
X41952697Y25086932D01*
X41870502Y25252664D01*
X41870501Y25252665D01*
X41870501Y25252666D01*
X41869676Y25253957D01*
X41869410Y25254865D01*
X41867515Y25258687D01*
X41868195Y25259025D01*
X41864696Y25270995D01*
X41855183Y25285798D01*
X41850160Y25320733D01*
X41850160Y25503232D01*
X41869845Y25570271D01*
X41922649Y25616026D01*
X41991807Y25625970D01*
X41997749Y25624953D01*
X42068408Y25618532D01*
X42068426Y25618531D01*
X42074999Y25618532D01*
X42075000Y25618532D01*
X42075000Y26843530D01*
X42575000Y26843530D01*
X43224999Y26843530D01*
X43224999Y26925113D01*
X43218591Y26995633D01*
X43218590Y26995638D01*
X43168018Y27157927D01*
X43080072Y27303408D01*
X42959877Y27423603D01*
X42814395Y27511550D01*
X42814396Y27511550D01*
X42652105Y27562121D01*
X42652106Y27562121D01*
X42581572Y27568530D01*
X42575000Y27568530D01*
X42575000Y26843530D01*
X42075000Y26843530D01*
X42075000Y27568530D01*
X42074999Y27568531D01*
X42068436Y27568530D01*
X42068417Y27568529D01*
X41997897Y27562122D01*
X41997892Y27562121D01*
X41835601Y27511549D01*
X41828762Y27508470D01*
X41827509Y27511254D01*
X41773424Y27497000D01*
X41706961Y27518550D01*
X41681034Y27542287D01*
X41621410Y27614940D01*
X41621408Y27614942D01*
X41621407Y27614943D01*
X41511216Y27705373D01*
X41461450Y27746215D01*
X41278954Y27843762D01*
X41080934Y27903830D01*
X41080932Y27903831D01*
X41080934Y27903831D01*
X40961805Y27915564D01*
X40926608Y27919030D01*
X40423392Y27919030D01*
X40385298Y27915279D01*
X40269067Y27903831D01*
X40071043Y27843761D01*
X40008548Y27810356D01*
X39888550Y27746215D01*
X39888548Y27746214D01*
X39888547Y27746213D01*
X39728589Y27614941D01*
X39615203Y27476777D01*
X39597315Y27454980D01*
X39560476Y27386059D01*
X39499769Y27272487D01*
X39439699Y27074463D01*
X39430944Y26985565D01*
X39424500Y26920138D01*
X39424500Y26266922D01*
X39428167Y26229687D01*
X39439699Y26112598D01*
X39462224Y26038342D01*
X39492457Y25938676D01*
X39499769Y25914574D01*
X39539459Y25840320D01*
X39597315Y25732080D01*
X39621013Y25703204D01*
X39648326Y25638895D01*
X39649160Y25624539D01*
X39649160Y25320733D01*
X39631124Y25259025D01*
X39631805Y25258687D01*
X39629909Y25254865D01*
X39629644Y25253957D01*
X39628818Y25252666D01*
X39546624Y25086935D01*
X39546623Y25086933D01*
X39501977Y24907411D01*
X39501616Y24902086D01*
X39499160Y24865865D01*
X39499160Y22917957D01*
X39499521Y22912637D01*
X39501977Y22876412D01*
X39525497Y22781836D01*
X39525497Y22721986D01*
X39501977Y22627411D01*
X39501616Y22622086D01*
X39499160Y22585865D01*
X39499160Y21537957D01*
X39499521Y21532637D01*
X39501977Y21496412D01*
X39546623Y21316890D01*
X39546624Y21316888D01*
X39628815Y21151163D01*
X39629640Y21149872D01*
X39629905Y21148965D01*
X39631805Y21145134D01*
X39631123Y21144797D01*
X39649160Y21083089D01*
X39649160Y19925635D01*
X39629475Y19858596D01*
X39621815Y19847958D01*
X39614734Y19839148D01*
X39613090Y19837103D01*
X39530900Y19671379D01*
X39530899Y19671377D01*
X39486253Y19491855D01*
X39483436Y19450307D01*
X39483436Y18839020D01*
X39463751Y18771981D01*
X39410947Y18726226D01*
X39341789Y18716282D01*
X39278233Y18745307D01*
X39271755Y18751339D01*
X38873372Y19149721D01*
X38873369Y19149725D01*
X38873369Y19149724D01*
X38866302Y19156791D01*
X38866302Y19156792D01*
X38719980Y19303114D01*
X38719979Y19303115D01*
X38719978Y19303116D01*
X38719975Y19303118D01*
X38571381Y19402405D01*
X38526575Y19456017D01*
X38516555Y19497119D01*
X38516182Y19502632D01*
X38471536Y19682158D01*
X38389341Y19847890D01*
X38337379Y19912533D01*
X38273439Y19992078D01*
X38140125Y20099239D01*
X38129252Y20107979D01*
X38129250Y20107980D01*
X38129249Y20107981D01*
X37963522Y20190173D01*
X37963520Y20190174D01*
X37783996Y20234820D01*
X37784000Y20234820D01*
X37752112Y20236982D01*
X37742453Y20237637D01*
X36794545Y20237637D01*
X36784886Y20236982D01*
X36752999Y20234820D01*
X36573477Y20190174D01*
X36573475Y20190173D01*
X36407748Y20107981D01*
X36263558Y19992078D01*
X36147655Y19847888D01*
X36065463Y19682161D01*
X36065462Y19682159D01*
X36020816Y19502637D01*
X36019927Y19489529D01*
X36018066Y19462071D01*
X36017999Y19461089D01*
X36017999Y17881637D01*
X35998314Y17814598D01*
X35945510Y17768843D01*
X35893999Y17757637D01*
X35189656Y17757637D01*
X35122617Y17777322D01*
X35076862Y17830126D01*
X35065656Y17881637D01*
X35065656Y19464889D01*
X35065512Y19467017D01*
X35062839Y19506432D01*
X35062310Y19508558D01*
X35040437Y19596513D01*
X35018193Y19685958D01*
X34935998Y19851690D01*
X34935997Y19851691D01*
X34935997Y19851692D01*
X34935172Y19852983D01*
X34934906Y19853891D01*
X34933011Y19857713D01*
X34933691Y19858051D01*
X34915656Y19919759D01*
X34915656Y21089953D01*
X34935341Y21156992D01*
X34943010Y21167642D01*
X34943987Y21168857D01*
X34950182Y21176564D01*
X35032377Y21342296D01*
X35077023Y21521822D01*
X35079840Y21563363D01*
X35079840Y21575485D01*
X36392139Y21575485D01*
X36398540Y21515957D01*
X36398542Y21515950D01*
X36448784Y21381243D01*
X36448788Y21381236D01*
X36534948Y21266142D01*
X36534951Y21266139D01*
X36650045Y21179979D01*
X36650052Y21179975D01*
X36784759Y21129733D01*
X36784766Y21129731D01*
X36844294Y21123330D01*
X36844311Y21123329D01*
X37042139Y21123329D01*
X37542139Y21123329D01*
X37739967Y21123329D01*
X37739983Y21123330D01*
X37799511Y21129731D01*
X37799518Y21129733D01*
X37934225Y21179975D01*
X37934232Y21179979D01*
X38049326Y21266139D01*
X38049329Y21266142D01*
X38135489Y21381236D01*
X38135493Y21381243D01*
X38185735Y21515950D01*
X38185737Y21515957D01*
X38192138Y21575485D01*
X38192139Y21575502D01*
X38192139Y22273329D01*
X37542139Y22273329D01*
X37542139Y21123329D01*
X37042139Y21123329D01*
X37042139Y22273329D01*
X36392139Y22273329D01*
X36392139Y21575485D01*
X35079840Y21575485D01*
X35079840Y22611271D01*
X35077023Y22652812D01*
X35074849Y22661552D01*
X35063821Y22705898D01*
X35053502Y22747393D01*
X35053502Y22807243D01*
X35056192Y22818057D01*
X35077023Y22901822D01*
X35079840Y22943363D01*
X35079840Y24891271D01*
X35077023Y24932812D01*
X35074333Y24943627D01*
X35066525Y24975025D01*
X35032377Y25112338D01*
X35026273Y25124645D01*
X35021825Y25149831D01*
X35013494Y25174015D01*
X35015849Y25183665D01*
X35014122Y25193446D01*
X35023997Y25217043D01*
X35030064Y25241891D01*
X35037262Y25248736D01*
X35041098Y25257899D01*
X35062163Y25272410D01*
X35080700Y25290034D01*
X35093009Y25293659D01*
X35098637Y25297535D01*
X35114070Y25301530D01*
X35119598Y25302588D01*
X35167751Y25307330D01*
X35207593Y25319417D01*
X35214025Y25320646D01*
X35242543Y25317882D01*
X35271188Y25318137D01*
X35276876Y25314553D01*
X35283568Y25313904D01*
X35306063Y25296162D01*
X35330301Y25280889D01*
X35333147Y25274800D01*
X35338428Y25270635D01*
X35347761Y25243543D01*
X35359892Y25217595D01*
X35360796Y25205704D01*
X35361185Y25204575D01*
X35360953Y25203629D01*
X35361317Y25198853D01*
X35361317Y25130182D01*
X35401685Y24927239D01*
X35401687Y24927231D01*
X35480875Y24736055D01*
X35595841Y24563994D01*
X35746481Y24413354D01*
X35746503Y24413334D01*
X36005320Y24154517D01*
X36038805Y24093194D01*
X36041639Y24066836D01*
X36041639Y23829378D01*
X36044456Y23787830D01*
X36089102Y23608308D01*
X36089103Y23608306D01*
X36171295Y23442579D01*
X36171296Y23442578D01*
X36171297Y23442576D01*
X36194351Y23413896D01*
X36287198Y23298389D01*
X36345827Y23251262D01*
X36385745Y23193918D01*
X36392139Y23154615D01*
X36392139Y22773329D01*
X38192139Y22773329D01*
X38192139Y23154615D01*
X38211824Y23221654D01*
X38238451Y23251262D01*
X38297079Y23298389D01*
X38336154Y23347000D01*
X38412981Y23442576D01*
X38495176Y23608308D01*
X38539822Y23787834D01*
X38542639Y23829375D01*
X38542639Y24877283D01*
X38539822Y24918824D01*
X38539524Y24920021D01*
X38515026Y25018531D01*
X38495176Y25098350D01*
X38412981Y25264082D01*
X38353564Y25337999D01*
X38297079Y25408270D01*
X38173496Y25507609D01*
X38152892Y25524171D01*
X38152890Y25524172D01*
X38152889Y25524173D01*
X37987162Y25606365D01*
X37987160Y25606366D01*
X37807636Y25651012D01*
X37807640Y25651012D01*
X37776478Y25653125D01*
X37766093Y25653829D01*
X37766091Y25653829D01*
X37641676Y25653829D01*
X37574637Y25673514D01*
X37528882Y25726318D01*
X37518938Y25795476D01*
X37532318Y25836283D01*
X37534476Y25840320D01*
X37587049Y25938676D01*
X37647117Y26136696D01*
X37662317Y26291022D01*
X37662317Y26944238D01*
X37647117Y27098564D01*
X37587049Y27296584D01*
X37489502Y27479080D01*
X37433776Y27546983D01*
X37358227Y27639041D01*
X37235406Y27739836D01*
X37198267Y27770315D01*
X37028371Y27861128D01*
X37015773Y27867861D01*
X37015772Y27867862D01*
X37015771Y27867862D01*
X36817751Y27927930D01*
X36817749Y27927931D01*
X36817751Y27927931D01*
X36698622Y27939664D01*
X36663425Y27943130D01*
X36160209Y27943130D01*
X36122115Y27939379D01*
X36005884Y27927931D01*
X35807860Y27867861D01*
X35645271Y27780954D01*
X35576868Y27766712D01*
X35528363Y27780954D01*
X35365773Y27867861D01*
X35365772Y27867862D01*
X35365771Y27867862D01*
X35167751Y27927930D01*
X35167749Y27927931D01*
X35167751Y27927931D01*
X35048622Y27939664D01*
X35013425Y27943130D01*
X34510209Y27943130D01*
X34472115Y27939379D01*
X34355884Y27927931D01*
X34157860Y27867861D01*
X34065387Y27818432D01*
X33975367Y27770315D01*
X33975365Y27770314D01*
X33975364Y27770313D01*
X33815406Y27639041D01*
X33684134Y27479083D01*
X33684132Y27479080D01*
X33651347Y27417744D01*
X33586586Y27296587D01*
X33526516Y27098563D01*
X33516379Y26995633D01*
X33511726Y26948385D01*
X33511317Y26944235D01*
X33511317Y26904125D01*
X33502672Y26874685D01*
X33496149Y26844698D01*
X33492394Y26839683D01*
X33491632Y26837086D01*
X33474998Y26816444D01*
X33436680Y26778126D01*
X33375357Y26744641D01*
X33305665Y26749625D01*
X33249732Y26791497D01*
X33225315Y26856961D01*
X33224999Y26865807D01*
X33224999Y26946910D01*
X33218591Y27017430D01*
X33218590Y27017435D01*
X33168018Y27179724D01*
X33080072Y27325205D01*
X32959877Y27445400D01*
X32814395Y27533347D01*
X32814396Y27533347D01*
X32652105Y27583918D01*
X32652106Y27583918D01*
X32581572Y27590327D01*
X32575000Y27590327D01*
X32575000Y25640328D01*
X32581581Y25640328D01*
X32643619Y25645965D01*
X32657988Y25643128D01*
X32672487Y25645212D01*
X32691577Y25636494D01*
X32712165Y25632428D01*
X32722719Y25622272D01*
X32736043Y25616187D01*
X32747389Y25598532D01*
X32762510Y25583981D01*
X32766571Y25568684D01*
X32773817Y25557409D01*
X32778840Y25522474D01*
X32778840Y25409238D01*
X32759155Y25342199D01*
X32751487Y25331551D01*
X32708497Y25278070D01*
X32708495Y25278067D01*
X32626304Y25112341D01*
X32626303Y25112339D01*
X32581657Y24932817D01*
X32580084Y24909616D01*
X32578840Y24891271D01*
X32578840Y22943363D01*
X32580044Y22925603D01*
X32581657Y22901818D01*
X32605177Y22807242D01*
X32605177Y22747392D01*
X32581657Y22652817D01*
X32580102Y22629879D01*
X32578840Y22611271D01*
X32578840Y21563363D01*
X32579962Y21546822D01*
X32581657Y21521818D01*
X32604530Y21429847D01*
X32626303Y21342296D01*
X32701744Y21190181D01*
X32714656Y21135089D01*
X32714656Y19919759D01*
X32696620Y19858051D01*
X32697301Y19857713D01*
X32695405Y19853891D01*
X32695140Y19852983D01*
X32694314Y19851692D01*
X32612120Y19685961D01*
X32612119Y19685959D01*
X32567473Y19506437D01*
X32566426Y19490995D01*
X32564656Y19464891D01*
X32564656Y17516983D01*
X32565645Y17502404D01*
X32567473Y17475438D01*
X32590993Y17380862D01*
X32590993Y17321012D01*
X32567473Y17226437D01*
X32566484Y17211855D01*
X32564829Y17187434D01*
X32564656Y17184889D01*
X32564656Y16265712D01*
X32544971Y16198673D01*
X32492167Y16152918D01*
X32440656Y16141712D01*
X31765920Y16141712D01*
X31698881Y16161397D01*
X31653126Y16214201D01*
X31641920Y16265712D01*
X31641920Y17190142D01*
X31641920Y17190144D01*
X31639103Y17231685D01*
X31615582Y17326266D01*
X31615582Y17386116D01*
X31618720Y17398732D01*
X31639103Y17480695D01*
X31641920Y17522236D01*
X31641920Y19470144D01*
X31639103Y19511685D01*
X31637694Y19517349D01*
X31619777Y19589398D01*
X31594457Y19691211D01*
X31512262Y19856943D01*
X31512261Y19856944D01*
X31512261Y19856945D01*
X31511436Y19858236D01*
X31511170Y19859144D01*
X31509275Y19862966D01*
X31509955Y19863304D01*
X31491920Y19925012D01*
X31491920Y21139244D01*
X31504832Y21194338D01*
X31526219Y21237462D01*
X31587175Y21360369D01*
X31631821Y21539895D01*
X31634638Y21581436D01*
X31634638Y22629344D01*
X31631821Y22670885D01*
X31630401Y22676593D01*
X31613477Y22744649D01*
X31608300Y22765466D01*
X31608300Y22825316D01*
X31609720Y22831023D01*
X31631821Y22919895D01*
X31634638Y22961436D01*
X31634638Y24909344D01*
X31631821Y24950885D01*
X31630401Y24956593D01*
X31612387Y25029031D01*
X31587175Y25130411D01*
X31504980Y25296143D01*
X31504979Y25296144D01*
X31504979Y25296145D01*
X31504154Y25297436D01*
X31503888Y25298344D01*
X31501993Y25302166D01*
X31502673Y25302504D01*
X31499174Y25314474D01*
X31489661Y25329277D01*
X31484638Y25364212D01*
X31484638Y25423024D01*
X31504323Y25490063D01*
X31529974Y25518878D01*
X31574487Y25555409D01*
X31621410Y25593917D01*
X31681036Y25666573D01*
X31738778Y25705905D01*
X31808623Y25707776D01*
X31828328Y25699418D01*
X31828765Y25700386D01*
X31835606Y25697307D01*
X31997894Y25646737D01*
X31997893Y25646737D01*
X32068408Y25640329D01*
X32068426Y25640328D01*
X32074999Y25640329D01*
X32075000Y25640329D01*
X32075000Y27590327D01*
X32074999Y27590328D01*
X32068436Y27590327D01*
X32068417Y27590326D01*
X31997897Y27583919D01*
X31997892Y27583918D01*
X31835601Y27533346D01*
X31828762Y27530267D01*
X31827509Y27533051D01*
X31773424Y27518797D01*
X31706961Y27540347D01*
X31681034Y27564084D01*
X31621410Y27636737D01*
X31621408Y27636739D01*
X31621407Y27636740D01*
X31518876Y27720884D01*
X31461450Y27768012D01*
X31278954Y27865559D01*
X31080934Y27925627D01*
X31080932Y27925628D01*
X31080934Y27925628D01*
X30961805Y27937361D01*
X30926608Y27940827D01*
X30423392Y27940827D01*
X30385298Y27937076D01*
X30269067Y27925628D01*
X30098540Y27873899D01*
X30072329Y27865948D01*
X30071043Y27865558D01*
X29972673Y27812977D01*
X29888550Y27768012D01*
X29888548Y27768011D01*
X29888547Y27768010D01*
X29728589Y27636738D01*
X29599207Y27479083D01*
X29597315Y27476777D01*
X29565761Y27417744D01*
X29499769Y27294284D01*
X29439699Y27096260D01*
X29431053Y27008466D01*
X29425136Y26948385D01*
X29424500Y26941932D01*
X29424500Y26894899D01*
X29410985Y26838604D01*
X29364266Y26746913D01*
X29310735Y26582163D01*
X29283638Y26411076D01*
X29283638Y25364212D01*
X29265602Y25302504D01*
X29266283Y25302166D01*
X29264387Y25298344D01*
X29264122Y25297436D01*
X29263296Y25296145D01*
X29181102Y25130414D01*
X29181101Y25130412D01*
X29136455Y24950890D01*
X29134851Y24927231D01*
X29133657Y24909616D01*
X29133638Y24909342D01*
X29133638Y22961439D01*
X29136455Y22919891D01*
X29159975Y22825315D01*
X29159975Y22765465D01*
X29136455Y22670890D01*
X29135963Y22663632D01*
X29133638Y22629344D01*
X29133638Y21581436D01*
X29134042Y21575485D01*
X29136455Y21539891D01*
X29181101Y21360369D01*
X29181102Y21360367D01*
X29263292Y21194643D01*
X29263294Y21194640D01*
X29263296Y21194637D01*
X29263561Y21194308D01*
X29263661Y21194065D01*
X29266917Y21188971D01*
X29266004Y21188389D01*
X29290224Y21129728D01*
X29290920Y21116613D01*
X29290920Y19925012D01*
X29272884Y19863304D01*
X29273565Y19862966D01*
X29271669Y19859144D01*
X29271404Y19858236D01*
X29270578Y19856945D01*
X29188384Y19691214D01*
X29188383Y19691212D01*
X29143737Y19511690D01*
X29142234Y19489528D01*
X29140929Y19470269D01*
X29140920Y19470142D01*
X29140920Y18681536D01*
X29121235Y18614497D01*
X29068431Y18568742D01*
X28999273Y18558798D01*
X28935717Y18587823D01*
X28929239Y18593855D01*
X28374027Y19149066D01*
X28366958Y19156135D01*
X28366957Y19156137D01*
X28228428Y19294666D01*
X28194946Y19355986D01*
X28192112Y19382344D01*
X28192112Y19460434D01*
X28192068Y19461089D01*
X28189295Y19501977D01*
X28187658Y19508558D01*
X28173971Y19563596D01*
X28144649Y19681503D01*
X28062454Y19847235D01*
X28000111Y19924792D01*
X27946552Y19991423D01*
X27816027Y20096342D01*
X27802365Y20107324D01*
X27802363Y20107325D01*
X27802362Y20107326D01*
X27636635Y20189518D01*
X27636633Y20189519D01*
X27457109Y20234165D01*
X27457113Y20234165D01*
X27425951Y20236278D01*
X27415566Y20236982D01*
X26467658Y20236982D01*
X26455789Y20236178D01*
X26426112Y20234165D01*
X26246590Y20189519D01*
X26246588Y20189518D01*
X26080861Y20107326D01*
X25936671Y19991423D01*
X25820768Y19847233D01*
X25738576Y19681506D01*
X25738575Y19681504D01*
X25693929Y19501982D01*
X25692820Y19485630D01*
X25691157Y19461091D01*
X25691112Y19460434D01*
X25691112Y17880982D01*
X25671427Y17813943D01*
X25618623Y17768188D01*
X25567112Y17756982D01*
X24891213Y17756982D01*
X24824174Y17776667D01*
X24778419Y17829471D01*
X24767213Y17880982D01*
X24767213Y19454648D01*
X24766821Y19460434D01*
X24764396Y19496191D01*
X24764164Y19497122D01*
X24744815Y19574928D01*
X24719750Y19675717D01*
X24637555Y19841449D01*
X24637554Y19841450D01*
X24637554Y19841451D01*
X24636729Y19842742D01*
X24636463Y19843650D01*
X24634568Y19847472D01*
X24635248Y19847810D01*
X24617213Y19909518D01*
X24617213Y21166914D01*
X24630124Y21222007D01*
X24695146Y21353111D01*
X24739792Y21532637D01*
X24742609Y21574178D01*
X24742609Y21616203D01*
X26058804Y21616203D01*
X26065205Y21556675D01*
X26065207Y21556668D01*
X26115449Y21421961D01*
X26115453Y21421954D01*
X26201613Y21306860D01*
X26201616Y21306857D01*
X26316710Y21220697D01*
X26316717Y21220693D01*
X26451424Y21170451D01*
X26451431Y21170449D01*
X26510959Y21164048D01*
X26510976Y21164047D01*
X26708804Y21164047D01*
X27208804Y21164047D01*
X27406632Y21164047D01*
X27406648Y21164048D01*
X27466176Y21170449D01*
X27466183Y21170451D01*
X27600890Y21220693D01*
X27600897Y21220697D01*
X27715991Y21306857D01*
X27715994Y21306860D01*
X27802154Y21421954D01*
X27802158Y21421961D01*
X27852400Y21556668D01*
X27852402Y21556675D01*
X27858803Y21616203D01*
X27858804Y21616220D01*
X27858804Y22314047D01*
X27208804Y22314047D01*
X27208804Y21164047D01*
X26708804Y21164047D01*
X26708804Y22314047D01*
X26058804Y22314047D01*
X26058804Y21616203D01*
X24742609Y21616203D01*
X24742609Y22622086D01*
X24739792Y22663627D01*
X24739678Y22664084D01*
X24725424Y22721403D01*
X24716271Y22758208D01*
X24716271Y22818058D01*
X24716384Y22818510D01*
X24739792Y22912637D01*
X24742609Y22954178D01*
X24742609Y24902086D01*
X24739792Y24943627D01*
X24733871Y24967434D01*
X24721164Y25018532D01*
X24695146Y25123153D01*
X24671391Y25171051D01*
X24667017Y25195815D01*
X24658655Y25219534D01*
X24661044Y25229635D01*
X24659239Y25239856D01*
X24668949Y25263056D01*
X24674738Y25287528D01*
X24682208Y25294734D01*
X24686216Y25304308D01*
X24706927Y25318575D01*
X24725028Y25336033D01*
X24737806Y25339846D01*
X24743755Y25343943D01*
X24758314Y25347768D01*
X24764262Y25348950D01*
X24805434Y25353005D01*
X24844852Y25364963D01*
X24850835Y25366151D01*
X24879801Y25363553D01*
X24908871Y25363812D01*
X24914177Y25360469D01*
X24920425Y25359908D01*
X24943384Y25342065D01*
X24967984Y25326564D01*
X24970640Y25320882D01*
X24975593Y25317033D01*
X24985262Y25289607D01*
X24997575Y25263270D01*
X24998407Y25252321D01*
X24998824Y25251139D01*
X24998576Y25250094D01*
X24999000Y25244528D01*
X24999000Y25199882D01*
X25039368Y24996939D01*
X25039370Y24996931D01*
X25117933Y24807263D01*
X25118559Y24805753D01*
X25162159Y24740500D01*
X25233524Y24633694D01*
X25384164Y24483054D01*
X25384186Y24483034D01*
X25671985Y24195235D01*
X25705470Y24133912D01*
X25708304Y24107554D01*
X25708304Y23870096D01*
X25711121Y23828548D01*
X25755767Y23649026D01*
X25755768Y23649024D01*
X25837960Y23483297D01*
X25953863Y23339107D01*
X26012492Y23291980D01*
X26052410Y23234636D01*
X26058804Y23195333D01*
X26058804Y22814047D01*
X27858804Y22814047D01*
X27858804Y23195333D01*
X27878489Y23262372D01*
X27905116Y23291980D01*
X27963744Y23339107D01*
X27970089Y23347000D01*
X28079646Y23483294D01*
X28161841Y23649026D01*
X28206487Y23828552D01*
X28209304Y23870093D01*
X28209304Y24918001D01*
X28206487Y24959542D01*
X28204524Y24967434D01*
X28191309Y25020574D01*
X28161841Y25139068D01*
X28079646Y25304800D01*
X28019528Y25379589D01*
X27963744Y25448988D01*
X27861589Y25531102D01*
X27819557Y25564889D01*
X27819555Y25564890D01*
X27819554Y25564891D01*
X27653827Y25647083D01*
X27653825Y25647084D01*
X27474301Y25691730D01*
X27474305Y25691730D01*
X27443143Y25693843D01*
X27432758Y25694547D01*
X27432756Y25694547D01*
X27276709Y25694547D01*
X27209670Y25714232D01*
X27163915Y25767036D01*
X27153971Y25836194D01*
X27167349Y25876998D01*
X27224732Y25984351D01*
X27284800Y26182371D01*
X27300000Y26336697D01*
X27300000Y26989913D01*
X27284800Y27144239D01*
X27224732Y27342259D01*
X27127185Y27524755D01*
X27067925Y27596964D01*
X26995910Y27684716D01*
X26847487Y27806522D01*
X26835950Y27815990D01*
X26653454Y27913537D01*
X26455434Y27973605D01*
X26455432Y27973606D01*
X26455434Y27973606D01*
X26336305Y27985339D01*
X26301108Y27988805D01*
X25797892Y27988805D01*
X25759798Y27985054D01*
X25643567Y27973606D01*
X25445543Y27913536D01*
X25282954Y27826629D01*
X25214551Y27812387D01*
X25166046Y27826629D01*
X25003456Y27913536D01*
X25003455Y27913537D01*
X25003454Y27913537D01*
X24805434Y27973605D01*
X24805432Y27973606D01*
X24805434Y27973606D01*
X24686305Y27985339D01*
X24651108Y27988805D01*
X24147892Y27988805D01*
X24109798Y27985054D01*
X23993567Y27973606D01*
X23795543Y27913536D01*
X23721389Y27873899D01*
X23613050Y27815990D01*
X23613048Y27815989D01*
X23613047Y27815988D01*
X23453089Y27684716D01*
X23322371Y27525433D01*
X23321815Y27524755D01*
X23305709Y27494623D01*
X23224269Y27342262D01*
X23164199Y27144238D01*
X23154953Y27050352D01*
X23149210Y26992038D01*
X23149000Y26989910D01*
X23149000Y26949799D01*
X23129315Y26882760D01*
X23112681Y26862118D01*
X22702312Y26451749D01*
X22640989Y26418264D01*
X22614631Y26415430D01*
X22075000Y26415430D01*
X22075000Y25690431D01*
X22081581Y25690431D01*
X22152102Y25696839D01*
X22152107Y25696840D01*
X22280718Y25736917D01*
X22308125Y25737369D01*
X22335256Y25741270D01*
X22342554Y25737937D01*
X22350578Y25738069D01*
X22373880Y25723632D01*
X22398812Y25712245D01*
X22403149Y25705496D01*
X22409971Y25701269D01*
X22421767Y25676526D01*
X22436586Y25653467D01*
X22438237Y25641978D01*
X22440039Y25638200D01*
X22441608Y25618539D01*
X22441609Y25618532D01*
X22441609Y25420053D01*
X22421924Y25353014D01*
X22414256Y25342366D01*
X22371266Y25288885D01*
X22371264Y25288882D01*
X22289073Y25123156D01*
X22289072Y25123154D01*
X22244426Y24943632D01*
X22243315Y24927239D01*
X22242138Y24909879D01*
X22241609Y24902084D01*
X22241609Y22954181D01*
X22244426Y22912633D01*
X22267946Y22818057D01*
X22267946Y22758207D01*
X22244426Y22663632D01*
X22243592Y22651330D01*
X22242138Y22629879D01*
X22241609Y22622084D01*
X22241609Y21574181D01*
X22244426Y21532633D01*
X22289072Y21353111D01*
X22289073Y21353109D01*
X22371265Y21187381D01*
X22371267Y21187379D01*
X22388858Y21165495D01*
X22415518Y21100913D01*
X22416213Y21087806D01*
X22416213Y19909518D01*
X22398177Y19847810D01*
X22398858Y19847472D01*
X22396962Y19843650D01*
X22396697Y19842742D01*
X22395871Y19841451D01*
X22313677Y19675720D01*
X22313676Y19675718D01*
X22269030Y19496196D01*
X22267017Y19466519D01*
X22266213Y19454650D01*
X22266213Y17506742D01*
X22266610Y17500894D01*
X22269030Y17465197D01*
X22292550Y17370621D01*
X22292550Y17310771D01*
X22269030Y17216196D01*
X22266213Y17174648D01*
X22266213Y16265712D01*
X22246528Y16198673D01*
X22193724Y16152918D01*
X22142213Y16141712D01*
X21432821Y16141712D01*
X21365782Y16161397D01*
X21320027Y16214201D01*
X21308821Y16265712D01*
X21308821Y17167981D01*
X21308821Y17167983D01*
X21306004Y17209524D01*
X21305800Y17210343D01*
X21287977Y17282013D01*
X21282483Y17304105D01*
X21282483Y17363955D01*
X21283062Y17366281D01*
X21306004Y17458534D01*
X21308821Y17500075D01*
X21308821Y19447983D01*
X21306004Y19489524D01*
X21305800Y19490343D01*
X21294819Y19534500D01*
X21261358Y19669050D01*
X21179163Y19834782D01*
X21168579Y19847949D01*
X21162472Y19855547D01*
X21135814Y19920132D01*
X21135120Y19933233D01*
X21135120Y21127103D01*
X21153156Y21188811D01*
X21152475Y21189148D01*
X21154374Y21192979D01*
X21154640Y21193886D01*
X21155456Y21195165D01*
X21155462Y21195172D01*
X21237657Y21360904D01*
X21282303Y21540430D01*
X21285120Y21581971D01*
X21285120Y22629879D01*
X21282303Y22671420D01*
X21281015Y22676598D01*
X21264092Y22744649D01*
X21258782Y22766001D01*
X21258782Y22825851D01*
X21260069Y22831024D01*
X21282303Y22920430D01*
X21285120Y22961971D01*
X21285120Y24909879D01*
X21282303Y24951420D01*
X21281015Y24956598D01*
X21265613Y25018532D01*
X21237657Y25130946D01*
X21155462Y25296678D01*
X21155461Y25296679D01*
X21155461Y25296680D01*
X21154636Y25297971D01*
X21154370Y25298879D01*
X21152475Y25302701D01*
X21153155Y25303039D01*
X21135120Y25364747D01*
X21135120Y25616359D01*
X21142112Y25640174D01*
X21144986Y25664830D01*
X21153465Y25678836D01*
X21154805Y25683398D01*
X21163258Y25695013D01*
X21181035Y25716675D01*
X21238777Y25756007D01*
X21308622Y25757879D01*
X21328328Y25749521D01*
X21328765Y25750489D01*
X21335606Y25747410D01*
X21497894Y25696840D01*
X21497893Y25696840D01*
X21568408Y25690432D01*
X21568426Y25690431D01*
X21574999Y25690432D01*
X21575000Y25690432D01*
X21575000Y26915430D01*
X22075000Y26915430D01*
X22724999Y26915430D01*
X22724999Y26997013D01*
X22718591Y27067533D01*
X22718590Y27067538D01*
X22668018Y27229827D01*
X22580072Y27375308D01*
X22459877Y27495503D01*
X22314395Y27583450D01*
X22314396Y27583450D01*
X22152105Y27634021D01*
X22152106Y27634021D01*
X22081572Y27640430D01*
X22075000Y27640430D01*
X22075000Y26915430D01*
X21575000Y26915430D01*
X21575000Y27640430D01*
X21574999Y27640431D01*
X21568436Y27640430D01*
X21568417Y27640429D01*
X21497897Y27634022D01*
X21497892Y27634021D01*
X21335601Y27583449D01*
X21328762Y27580370D01*
X21327509Y27583154D01*
X21273424Y27568900D01*
X21206961Y27590450D01*
X21181034Y27614187D01*
X21180416Y27614940D01*
X21121410Y27686840D01*
X21121408Y27686842D01*
X21121407Y27686843D01*
X20970904Y27810356D01*
X20961450Y27818115D01*
X20788563Y27910526D01*
X20778956Y27915661D01*
X20778955Y27915662D01*
X20778954Y27915662D01*
X20580934Y27975730D01*
X20580932Y27975731D01*
X20580934Y27975731D01*
X20461805Y27987464D01*
X20426608Y27990930D01*
X19923392Y27990930D01*
X19885298Y27987179D01*
X19769067Y27975731D01*
X19571043Y27915661D01*
X19489724Y27872194D01*
X19388550Y27818115D01*
X19388548Y27818114D01*
X19388547Y27818113D01*
X19228589Y27686841D01*
X19097317Y27526883D01*
X19097315Y27526880D01*
X19080073Y27494623D01*
X18999769Y27344387D01*
X18939699Y27146363D01*
X18929673Y27044561D01*
X18924500Y26992038D01*
X18924500Y26338822D01*
X18933523Y26247212D01*
X18934120Y26235058D01*
X18934120Y25364747D01*
X18916084Y25303039D01*
X18916765Y25302701D01*
X18914869Y25298879D01*
X18914604Y25297971D01*
X18913778Y25296680D01*
X18831584Y25130949D01*
X18831583Y25130947D01*
X18786937Y24951425D01*
X18785675Y24932817D01*
X18784120Y24909879D01*
X18784120Y22961971D01*
X18785327Y22944168D01*
X18786937Y22920426D01*
X18810457Y22825850D01*
X18810457Y22766000D01*
X18786937Y22671425D01*
X18785206Y22645893D01*
X18784120Y22629879D01*
X18784120Y21581971D01*
X18785104Y21567466D01*
X18786937Y21540426D01*
X18831583Y21360904D01*
X18831584Y21360902D01*
X18913775Y21195177D01*
X18914600Y21193886D01*
X18914865Y21192979D01*
X18916765Y21189148D01*
X18916083Y21188811D01*
X18934120Y21127103D01*
X18934120Y19857070D01*
X18921209Y19801979D01*
X18857451Y19673419D01*
X18855283Y19669048D01*
X18810638Y19489528D01*
X18810638Y19489524D01*
X18808968Y19464889D01*
X18808858Y19463273D01*
X18784682Y19397719D01*
X18728902Y19355642D01*
X18659229Y19350402D01*
X18616252Y19368561D01*
X18565600Y19402405D01*
X18559560Y19406441D01*
X18502541Y19430059D01*
X18368382Y19485630D01*
X18368374Y19485632D01*
X18165431Y19526000D01*
X18165427Y19526000D01*
X17958951Y19526000D01*
X17891912Y19545685D01*
X17846157Y19598489D01*
X17838618Y19620068D01*
X17826071Y19670521D01*
X17743876Y19836253D01*
X17676751Y19919759D01*
X17627974Y19980441D01*
X17513095Y20072783D01*
X17483787Y20096342D01*
X17483785Y20096343D01*
X17483784Y20096344D01*
X17318057Y20178536D01*
X17318055Y20178537D01*
X17138531Y20223183D01*
X17138535Y20223183D01*
X17107373Y20225296D01*
X17096988Y20226000D01*
X16149080Y20226000D01*
X16137211Y20225196D01*
X16107534Y20223183D01*
X15928012Y20178537D01*
X15928010Y20178536D01*
X15762283Y20096344D01*
X15618093Y19980441D01*
X15502190Y19836251D01*
X15419998Y19670524D01*
X15419997Y19670522D01*
X15375351Y19491000D01*
X15372534Y19449452D01*
X15372534Y17870000D01*
X15352849Y17802961D01*
X15300045Y17757206D01*
X15248534Y17746000D01*
X14568970Y17746000D01*
X14501931Y17765685D01*
X14456176Y17818489D01*
X14444970Y17870000D01*
X14444970Y19428726D01*
X14443664Y19447983D01*
X14442153Y19470269D01*
X14438332Y19485632D01*
X14430445Y19517349D01*
X14397507Y19649795D01*
X14322033Y19801976D01*
X14315314Y19815524D01*
X14315312Y19815527D01*
X14244101Y19904118D01*
X14217442Y19968702D01*
X14216748Y19981805D01*
X14216748Y21080019D01*
X14236433Y21147058D01*
X14244097Y21157702D01*
X14287090Y21211186D01*
X14369285Y21376918D01*
X14413931Y21556444D01*
X14416748Y21597985D01*
X14416748Y21624096D01*
X15696729Y21624096D01*
X15703130Y21564568D01*
X15703132Y21564561D01*
X15753374Y21429854D01*
X15753378Y21429847D01*
X15839538Y21314753D01*
X15839541Y21314750D01*
X15954635Y21228590D01*
X15954642Y21228586D01*
X16089349Y21178344D01*
X16089356Y21178342D01*
X16148884Y21171941D01*
X16148901Y21171940D01*
X16346729Y21171940D01*
X16846729Y21171940D01*
X17044557Y21171940D01*
X17044573Y21171941D01*
X17104101Y21178342D01*
X17104108Y21178344D01*
X17238815Y21228586D01*
X17238822Y21228590D01*
X17353916Y21314750D01*
X17353919Y21314753D01*
X17440079Y21429847D01*
X17440083Y21429854D01*
X17490325Y21564561D01*
X17490327Y21564568D01*
X17496728Y21624096D01*
X17496729Y21624113D01*
X17496729Y22321940D01*
X16846729Y22321940D01*
X16846729Y21171940D01*
X16346729Y21171940D01*
X16346729Y22321940D01*
X15696729Y22321940D01*
X15696729Y21624096D01*
X14416748Y21624096D01*
X14416748Y22645893D01*
X14413931Y22687434D01*
X14413909Y22687521D01*
X14396331Y22758206D01*
X14390410Y22782015D01*
X14390410Y22841865D01*
X14394935Y22860058D01*
X14413931Y22936444D01*
X14416748Y22977985D01*
X14416748Y24925893D01*
X14413931Y24967434D01*
X14406595Y24996931D01*
X14397721Y25032617D01*
X14369285Y25146960D01*
X14352880Y25180037D01*
X14348681Y25203813D01*
X14340275Y25226440D01*
X14342716Y25237593D01*
X14340730Y25248839D01*
X14350052Y25271112D01*
X14355214Y25294694D01*
X14363297Y25302758D01*
X14367707Y25313291D01*
X14387590Y25326988D01*
X14404683Y25344036D01*
X14418515Y25348290D01*
X14425246Y25352926D01*
X14437767Y25356328D01*
X14444720Y25357832D01*
X14473166Y25360633D01*
X14511584Y25372288D01*
X14516529Y25373356D01*
X14546531Y25371172D01*
X14576603Y25371440D01*
X14581013Y25368661D01*
X14586214Y25368282D01*
X14610269Y25350227D01*
X14635716Y25334192D01*
X14637924Y25329469D01*
X14642094Y25326339D01*
X14652569Y25298144D01*
X14665307Y25270898D01*
X14665979Y25262048D01*
X14666427Y25260844D01*
X14666163Y25259639D01*
X14666732Y25252156D01*
X14666732Y25177968D01*
X14707100Y24975025D01*
X14707102Y24975017D01*
X14776587Y24807265D01*
X14786291Y24783839D01*
X14901255Y24611782D01*
X15047577Y24465460D01*
X15047578Y24465460D01*
X15054645Y24458393D01*
X15054644Y24458393D01*
X15054648Y24458390D01*
X15309910Y24203128D01*
X15343395Y24141805D01*
X15346229Y24115447D01*
X15346229Y23877989D01*
X15349046Y23836441D01*
X15376695Y23725265D01*
X15393692Y23656919D01*
X15393692Y23656918D01*
X15393693Y23656917D01*
X15475885Y23491190D01*
X15475886Y23491189D01*
X15475887Y23491187D01*
X15482232Y23483294D01*
X15591788Y23347000D01*
X15650417Y23299873D01*
X15690335Y23242529D01*
X15696729Y23203226D01*
X15696729Y22821940D01*
X17496729Y22821940D01*
X17496729Y23203226D01*
X17516414Y23270265D01*
X17543041Y23299873D01*
X17601669Y23347000D01*
X17634432Y23387759D01*
X17717571Y23491187D01*
X17799766Y23656919D01*
X17844412Y23836445D01*
X17847229Y23877986D01*
X17847229Y24925894D01*
X17844412Y24967435D01*
X17842526Y24975017D01*
X17826137Y25040920D01*
X17799766Y25146961D01*
X17717571Y25312693D01*
X17665779Y25377124D01*
X17601669Y25456881D01*
X17483900Y25551546D01*
X17457482Y25572782D01*
X17457480Y25572783D01*
X17457479Y25572784D01*
X17291752Y25654976D01*
X17291750Y25654977D01*
X17112226Y25699623D01*
X17112230Y25699623D01*
X17081068Y25701736D01*
X17070683Y25702440D01*
X17070681Y25702440D01*
X16944583Y25702440D01*
X16877544Y25722125D01*
X16831789Y25774929D01*
X16821845Y25844087D01*
X16835225Y25884894D01*
X16851019Y25914442D01*
X16892464Y25991979D01*
X16952532Y26189999D01*
X16967732Y26344325D01*
X16967732Y26997541D01*
X16952532Y27151867D01*
X16892464Y27349887D01*
X16794917Y27532383D01*
X16721336Y27622042D01*
X16663642Y27692344D01*
X16542231Y27791982D01*
X16503682Y27823618D01*
X16321186Y27921165D01*
X16123166Y27981233D01*
X16123164Y27981234D01*
X16123166Y27981234D01*
X16004037Y27992967D01*
X15968840Y27996433D01*
X15465624Y27996433D01*
X15427530Y27992682D01*
X15311299Y27981234D01*
X15135924Y27928035D01*
X15127988Y27925627D01*
X15113275Y27921164D01*
X14950686Y27834257D01*
X14882283Y27820015D01*
X14833778Y27834257D01*
X14671188Y27921164D01*
X14671187Y27921165D01*
X14671186Y27921165D01*
X14473166Y27981233D01*
X14473164Y27981234D01*
X14473166Y27981234D01*
X14354037Y27992967D01*
X14318840Y27996433D01*
X13815624Y27996433D01*
X13777530Y27992682D01*
X13661299Y27981234D01*
X13485924Y27928035D01*
X13477988Y27925627D01*
X13463275Y27921164D01*
X13353130Y27862290D01*
X13280782Y27823618D01*
X13280780Y27823617D01*
X13280779Y27823616D01*
X13120821Y27692344D01*
X12993256Y27536903D01*
X12989547Y27532383D01*
X12978411Y27511549D01*
X12892001Y27349890D01*
X12831931Y27151866D01*
X12821363Y27044561D01*
X12818692Y27017435D01*
X12816732Y26997538D01*
X12816732Y26957427D01*
X12797047Y26890388D01*
X12780413Y26869746D01*
X12496595Y26585929D01*
X12496595Y26585928D01*
X12496593Y26585926D01*
X12411799Y26501132D01*
X12384065Y26473398D01*
X12322742Y26439914D01*
X12253050Y26444898D01*
X12234061Y26457102D01*
X11575000Y26457102D01*
X11575000Y25732103D01*
X11581581Y25732103D01*
X11652102Y25738511D01*
X11652107Y25738512D01*
X11814396Y25789084D01*
X11927598Y25857516D01*
X11995152Y25875352D01*
X12061626Y25853835D01*
X12105914Y25799794D01*
X12115748Y25751399D01*
X12115748Y25443860D01*
X12096063Y25376821D01*
X12088395Y25366173D01*
X12045405Y25312692D01*
X12045403Y25312689D01*
X11963212Y25146963D01*
X11963211Y25146961D01*
X11918565Y24967439D01*
X11918565Y24967435D01*
X11918565Y24967434D01*
X11915748Y24925893D01*
X11915748Y22977985D01*
X11916483Y22967147D01*
X11918565Y22936440D01*
X11942085Y22841864D01*
X11942085Y22782014D01*
X11918565Y22687439D01*
X11915748Y22645891D01*
X11915748Y21597988D01*
X11918565Y21556440D01*
X11963211Y21376918D01*
X11963212Y21376916D01*
X12045404Y21211188D01*
X12059168Y21194065D01*
X12088394Y21157707D01*
X12115054Y21093124D01*
X12115748Y21080019D01*
X12115748Y19911587D01*
X12096063Y19844548D01*
X12088397Y19833901D01*
X12073627Y19815527D01*
X11991434Y19649798D01*
X11991433Y19649796D01*
X11946787Y19470274D01*
X11943970Y19428726D01*
X11943970Y17480828D01*
X11943969Y17480828D01*
X11946787Y17439275D01*
X11970307Y17344699D01*
X11970307Y17284849D01*
X11946787Y17190274D01*
X11943970Y17148726D01*
X11943970Y16265712D01*
X11924285Y16198673D01*
X11871481Y16152918D01*
X11819970Y16141712D01*
X11150023Y16141712D01*
X11082984Y16161397D01*
X11037229Y16214201D01*
X11026023Y16265712D01*
X11026023Y17145891D01*
X11025831Y17148728D01*
X11023206Y17187434D01*
X11017712Y17209524D01*
X11005435Y17258892D01*
X10999685Y17282015D01*
X10999685Y17341865D01*
X11004559Y17361461D01*
X11023206Y17436444D01*
X11026023Y17477985D01*
X11026023Y19425893D01*
X11023206Y19467434D01*
X11021123Y19475808D01*
X11002087Y19552354D01*
X10978560Y19646960D01*
X10896365Y19812692D01*
X10896364Y19812693D01*
X10896364Y19812694D01*
X10895539Y19813985D01*
X10895273Y19814893D01*
X10893378Y19818715D01*
X10894058Y19819053D01*
X10876023Y19880761D01*
X10876023Y21195446D01*
X10888934Y21250539D01*
X10946236Y21366077D01*
X10990882Y21545603D01*
X10993699Y21587144D01*
X10993699Y22635052D01*
X10990882Y22676593D01*
X10988164Y22687521D01*
X10970586Y22758206D01*
X10967361Y22771174D01*
X10967361Y22831024D01*
X10972341Y22851046D01*
X10990882Y22925603D01*
X10993699Y22967144D01*
X10993699Y24915052D01*
X10990882Y24956593D01*
X10990147Y24959547D01*
X10979955Y25000532D01*
X10946236Y25136119D01*
X10864041Y25301851D01*
X10864040Y25301852D01*
X10864040Y25301853D01*
X10863215Y25303144D01*
X10862949Y25304052D01*
X10861054Y25307874D01*
X10861734Y25308212D01*
X10858235Y25320182D01*
X10848722Y25334985D01*
X10843699Y25369920D01*
X10843699Y25618089D01*
X10863384Y25685128D01*
X10916188Y25730883D01*
X10985346Y25740827D01*
X10991895Y25739705D01*
X10997895Y25738512D01*
X11068408Y25732104D01*
X11068426Y25732103D01*
X11074999Y25732104D01*
X11075000Y25732104D01*
X11075000Y26957102D01*
X11575000Y26957102D01*
X12224999Y26957102D01*
X12224999Y27038685D01*
X12218591Y27109205D01*
X12218590Y27109210D01*
X12168018Y27271499D01*
X12080072Y27416980D01*
X11959877Y27537175D01*
X11814395Y27625122D01*
X11814396Y27625122D01*
X11652105Y27675693D01*
X11652106Y27675693D01*
X11581572Y27682102D01*
X11575000Y27682102D01*
X11575000Y26957102D01*
X11075000Y26957102D01*
X11075000Y27682102D01*
X11074999Y27682103D01*
X11068436Y27682102D01*
X11068417Y27682101D01*
X10997897Y27675694D01*
X10997892Y27675693D01*
X10835601Y27625121D01*
X10828762Y27622042D01*
X10827509Y27624826D01*
X10773424Y27610572D01*
X10706961Y27632122D01*
X10681034Y27655859D01*
X10621410Y27728512D01*
X10621408Y27728514D01*
X10621407Y27728515D01*
X10518486Y27812979D01*
X10461450Y27859787D01*
X10278954Y27957334D01*
X10080934Y28017402D01*
X10080932Y28017403D01*
X10080934Y28017403D01*
X9961805Y28029136D01*
X9926608Y28032602D01*
X9423392Y28032602D01*
X9385298Y28028851D01*
X9269067Y28017403D01*
X9149831Y27981233D01*
X9087846Y27962430D01*
X9071043Y27957333D01*
X8993084Y27915662D01*
X8888550Y27859787D01*
X8888548Y27859786D01*
X8888547Y27859785D01*
X8728589Y27728513D01*
X8597317Y27568555D01*
X8597315Y27568552D01*
X8570720Y27518797D01*
X8499769Y27386059D01*
X8499768Y27386057D01*
X8499768Y27386056D01*
X8498151Y27380724D01*
X8439699Y27188035D01*
X8430661Y27096261D01*
X8424500Y27033710D01*
X8424500Y26380494D01*
X8427030Y26354808D01*
X8439699Y26226170D01*
X8458155Y26165330D01*
X8499768Y26028148D01*
X8580558Y25877001D01*
X8597317Y25845649D01*
X8614551Y25824650D01*
X8641865Y25760341D01*
X8642699Y25745984D01*
X8642699Y25369920D01*
X8624663Y25308212D01*
X8625344Y25307874D01*
X8623448Y25304052D01*
X8623183Y25303144D01*
X8622357Y25301853D01*
X8540163Y25136122D01*
X8540162Y25136120D01*
X8495516Y24956598D01*
X8492699Y24915050D01*
X8492699Y22967147D01*
X8495516Y22925599D01*
X8519036Y22831023D01*
X8519036Y22771173D01*
X8495516Y22676598D01*
X8494637Y22663632D01*
X8492699Y22635052D01*
X8492699Y21587144D01*
X8493490Y21575485D01*
X8495516Y21545599D01*
X8540162Y21366077D01*
X8540163Y21366075D01*
X8622356Y21200345D01*
X8622357Y21200344D01*
X8647668Y21168857D01*
X8674328Y21104274D01*
X8675023Y21091168D01*
X8675023Y19880761D01*
X8656987Y19819053D01*
X8657668Y19818715D01*
X8655772Y19814893D01*
X8655507Y19813985D01*
X8654681Y19812694D01*
X8572487Y19646963D01*
X8572486Y19646961D01*
X8527840Y19467439D01*
X8525023Y19425891D01*
X8525023Y19297434D01*
X8505338Y19230395D01*
X8452534Y19184640D01*
X8383376Y19174696D01*
X8319820Y19203721D01*
X8313342Y19209753D01*
X8255180Y19267915D01*
X8083923Y19382344D01*
X8083121Y19382880D01*
X7891943Y19462069D01*
X7891935Y19462071D01*
X7688992Y19502439D01*
X7688988Y19502439D01*
X7611440Y19502439D01*
X7544401Y19522124D01*
X7498646Y19574928D01*
X7491107Y19596507D01*
X7478560Y19646960D01*
X7396365Y19812692D01*
X7338927Y19884147D01*
X7280463Y19956880D01*
X7177404Y20039721D01*
X7136276Y20072781D01*
X7136274Y20072782D01*
X7136273Y20072783D01*
X6970546Y20154975D01*
X6970544Y20154976D01*
X6791020Y20199622D01*
X6791024Y20199622D01*
X6759862Y20201735D01*
X6749477Y20202439D01*
X5801569Y20202439D01*
X5789700Y20201635D01*
X5760023Y20199622D01*
X5580501Y20154976D01*
X5580499Y20154975D01*
X5414772Y20072783D01*
X5270582Y19956880D01*
X5154679Y19812690D01*
X5072487Y19646963D01*
X5072486Y19646961D01*
X5027840Y19467439D01*
X5025023Y19425891D01*
X5025023Y17846439D01*
X5005338Y17779400D01*
X4952534Y17733645D01*
X4901023Y17722439D01*
X4150023Y17722439D01*
X4082984Y17742124D01*
X4037229Y17794928D01*
X4026023Y17846439D01*
X4026023Y19425891D01*
X4024525Y19447983D01*
X4023206Y19467434D01*
X4021123Y19475808D01*
X4002087Y19552354D01*
X3978560Y19646960D01*
X3896365Y19812692D01*
X3896364Y19812693D01*
X3896364Y19812694D01*
X3895539Y19813985D01*
X3895273Y19814893D01*
X3893378Y19818715D01*
X3894058Y19819053D01*
X3876023Y19880761D01*
X3876023Y21143117D01*
X3894059Y21204825D01*
X3893378Y21205162D01*
X3895277Y21208993D01*
X3895543Y21209900D01*
X3896359Y21211179D01*
X3896365Y21211186D01*
X3978560Y21376918D01*
X4023206Y21556444D01*
X4026023Y21597985D01*
X4026023Y21624095D01*
X5375523Y21624095D01*
X5381924Y21564567D01*
X5381926Y21564560D01*
X5432168Y21429853D01*
X5432172Y21429846D01*
X5518332Y21314752D01*
X5518335Y21314749D01*
X5633429Y21228589D01*
X5633436Y21228585D01*
X5768143Y21178343D01*
X5768150Y21178341D01*
X5827678Y21171940D01*
X5827695Y21171939D01*
X6025523Y21171939D01*
X6525523Y21171939D01*
X6723351Y21171939D01*
X6723367Y21171940D01*
X6782895Y21178341D01*
X6782902Y21178343D01*
X6917609Y21228585D01*
X6917616Y21228589D01*
X7032710Y21314749D01*
X7032713Y21314752D01*
X7118873Y21429846D01*
X7118877Y21429853D01*
X7169119Y21564560D01*
X7169121Y21564567D01*
X7175522Y21624095D01*
X7175523Y21624112D01*
X7175523Y22321939D01*
X6525523Y22321939D01*
X6525523Y21171939D01*
X6025523Y21171939D01*
X6025523Y22321939D01*
X5375523Y22321939D01*
X5375523Y21624095D01*
X4026023Y21624095D01*
X4026023Y22645893D01*
X4023206Y22687434D01*
X4023184Y22687521D01*
X4005606Y22758206D01*
X3999685Y22782015D01*
X3999685Y22841865D01*
X4004210Y22860058D01*
X4023206Y22936444D01*
X4026023Y22977985D01*
X4026023Y24925893D01*
X4023206Y24967434D01*
X3978560Y25146960D01*
X3949317Y25205923D01*
X3944612Y25232562D01*
X3936435Y25258345D01*
X3938626Y25266452D01*
X3937166Y25274724D01*
X3947612Y25299683D01*
X3954672Y25325792D01*
X3960898Y25331427D01*
X3964142Y25339176D01*
X3986422Y25354524D01*
X4006478Y25372673D01*
X4017106Y25375662D01*
X4021681Y25378812D01*
X4040121Y25383344D01*
X4044158Y25384014D01*
X4128535Y25392324D01*
X4169845Y25404856D01*
X4177816Y25406177D01*
X4204799Y25402889D01*
X4231972Y25403131D01*
X4238965Y25398725D01*
X4247172Y25397724D01*
X4268090Y25380373D01*
X4291085Y25365883D01*
X4294586Y25358394D01*
X4300949Y25353116D01*
X4309165Y25327210D01*
X4320676Y25302589D01*
X4321843Y25287238D01*
X4322072Y25286516D01*
X4321936Y25286014D01*
X4322101Y25283847D01*
X4322101Y25201392D01*
X4362469Y24998449D01*
X4362471Y24998441D01*
X4412656Y24877283D01*
X4441660Y24807263D01*
X4556624Y24635206D01*
X4702946Y24488884D01*
X4702947Y24488884D01*
X4710014Y24481817D01*
X4710013Y24481817D01*
X4710017Y24481814D01*
X4988704Y24203127D01*
X5022189Y24141804D01*
X5025023Y24115446D01*
X5025023Y23877988D01*
X5027840Y23836440D01*
X5072486Y23656919D01*
X5072486Y23656918D01*
X5072486Y23656917D01*
X5072487Y23656916D01*
X5154679Y23491189D01*
X5154680Y23491188D01*
X5154681Y23491186D01*
X5161025Y23483294D01*
X5270582Y23346999D01*
X5329211Y23299872D01*
X5369129Y23242528D01*
X5375523Y23203225D01*
X5375523Y22821939D01*
X7175523Y22821939D01*
X7175523Y23203225D01*
X7195208Y23270264D01*
X7221835Y23299872D01*
X7280463Y23346999D01*
X7293132Y23362760D01*
X7396365Y23491186D01*
X7478560Y23656918D01*
X7523206Y23836444D01*
X7526023Y23877985D01*
X7526023Y24925893D01*
X7523206Y24967434D01*
X7515870Y24996931D01*
X7510499Y25018531D01*
X7478560Y25146960D01*
X7396365Y25312692D01*
X7323862Y25402889D01*
X7280463Y25456880D01*
X7162693Y25551546D01*
X7136276Y25572781D01*
X7136274Y25572782D01*
X7136273Y25572783D01*
X6970546Y25654975D01*
X6970544Y25654976D01*
X6791020Y25699622D01*
X6791024Y25699622D01*
X6759862Y25701735D01*
X6749477Y25702439D01*
X6749475Y25702439D01*
X6583012Y25702439D01*
X6515973Y25722124D01*
X6470218Y25774928D01*
X6460274Y25844086D01*
X6473654Y25884893D01*
X6473655Y25884894D01*
X6547833Y26023670D01*
X6607901Y26221690D01*
X6623101Y26376016D01*
X6623101Y27029232D01*
X6607901Y27183558D01*
X6547833Y27381578D01*
X6450286Y27564074D01*
X6388763Y27639041D01*
X6319011Y27724035D01*
X6159053Y27855307D01*
X6159054Y27855307D01*
X6159051Y27855309D01*
X5976555Y27952856D01*
X5778535Y28012924D01*
X5778533Y28012925D01*
X5778535Y28012925D01*
X5659406Y28024658D01*
X5624209Y28028124D01*
X5120993Y28028124D01*
X5082899Y28024373D01*
X4966668Y28012925D01*
X4768644Y27952855D01*
X4606055Y27865948D01*
X4537652Y27851706D01*
X4489147Y27865948D01*
X4326557Y27952855D01*
X4326556Y27952856D01*
X4326555Y27952856D01*
X4128535Y28012924D01*
X4128533Y28012925D01*
X4128535Y28012925D01*
X4009406Y28024658D01*
X3974209Y28028124D01*
X3470993Y28028124D01*
X3432899Y28024373D01*
X3316668Y28012925D01*
X3118644Y27952855D01*
X3008499Y27893981D01*
X2936151Y27855309D01*
X2936149Y27855308D01*
X2936148Y27855307D01*
X2776190Y27724035D01*
X2648572Y27568529D01*
X2644916Y27564074D01*
X2622292Y27521747D01*
X2547370Y27381581D01*
X2487300Y27183557D01*
X2474181Y27050352D01*
X2448020Y26985565D01*
X2438459Y26974825D01*
X2058595Y26594960D01*
X1936111Y26472477D01*
X1936111Y26472476D01*
X1936109Y26472474D01*
X1896723Y26418264D01*
X1834291Y26332335D01*
X1755651Y26177994D01*
X1702120Y26013244D01*
X1675023Y25842157D01*
X1675023Y25380761D01*
X1656987Y25319053D01*
X1657668Y25318715D01*
X1655772Y25314893D01*
X1655507Y25313985D01*
X1654681Y25312694D01*
X1572487Y25146963D01*
X1572486Y25146961D01*
X1527840Y24967439D01*
X1527840Y24967435D01*
X1527840Y24967434D01*
X1525023Y24925893D01*
X1525023Y22977985D01*
X1525758Y22967147D01*
X1527840Y22936440D01*
X1551360Y22841864D01*
X1551360Y22782014D01*
X1527840Y22687439D01*
X1525023Y22645891D01*
X1525023Y21597988D01*
X1527840Y21556440D01*
X1572486Y21376918D01*
X1572487Y21376916D01*
X1654678Y21211191D01*
X1655503Y21209900D01*
X1655768Y21208993D01*
X1657668Y21205162D01*
X1656986Y21204825D01*
X1675023Y21143117D01*
X1675023Y19880761D01*
X1656987Y19819053D01*
X1657668Y19818715D01*
X1655772Y19814893D01*
X1655507Y19813985D01*
X1654681Y19812694D01*
X1572487Y19646963D01*
X1572486Y19646961D01*
X1527840Y19467439D01*
X1526576Y19448800D01*
X1525023Y19425893D01*
X1525023Y17477985D01*
X1525196Y17475438D01*
X1527840Y17436440D01*
X1551360Y17341864D01*
X1551360Y17282014D01*
X1527840Y17187439D01*
X1525023Y17145891D01*
X1525023Y16097988D01*
X1527840Y16056440D01*
X1572486Y15876918D01*
X1572487Y15876916D01*
X1654680Y15711186D01*
X1658302Y15705520D01*
X1656595Y15704429D01*
X1678102Y15655888D01*
X1700955Y15511595D01*
X1702121Y15504238D01*
X1727381Y15426495D01*
X1755651Y15339492D01*
X1804585Y15243453D01*
X1834291Y15185151D01*
X1936109Y15045011D01*
X1936111Y15045009D01*
X2122970Y14858150D01*
X2156455Y14796827D01*
X2151471Y14727135D01*
X2109599Y14671202D01*
X2086247Y14658524D01*
X2086525Y14657963D01*
X1914772Y14572783D01*
X1770582Y14456880D01*
X1654679Y14312690D01*
X1572487Y14146963D01*
X1572486Y14146961D01*
X1527840Y13967439D01*
X1527840Y13967434D01*
X1525023Y13925893D01*
X1525023Y12877985D01*
X1525783Y12866775D01*
X1527840Y12836440D01*
X1551360Y12741864D01*
X1551360Y12682014D01*
X1527840Y12587439D01*
X1526142Y12562389D01*
X1525023Y12545893D01*
X1525023Y10597985D01*
X1525783Y10586775D01*
X1527840Y10556440D01*
X1566770Y10399903D01*
X1572486Y10376918D01*
X1572486Y10376917D01*
X1572487Y10376916D01*
X1654678Y10211191D01*
X1655503Y10209900D01*
X1655768Y10208993D01*
X1657668Y10205162D01*
X1656986Y10204825D01*
X1675023Y10143117D01*
X1675023Y8740761D01*
X1656987Y8679053D01*
X1657668Y8678715D01*
X1655772Y8674893D01*
X1655507Y8673985D01*
X1654681Y8672694D01*
X1572487Y8506963D01*
X1572486Y8506961D01*
X1527840Y8327439D01*
X1525023Y8285891D01*
X1525023Y7237988D01*
X1527840Y7196440D01*
X1551360Y7101864D01*
X1551360Y7042014D01*
X1527840Y6947439D01*
X1525023Y6905891D01*
X1525023Y4957988D01*
X1527840Y4916440D01*
X1572486Y4736918D01*
X1572487Y4736916D01*
X1654679Y4571188D01*
X1670435Y4551587D01*
X1697669Y4517707D01*
X1724329Y4453124D01*
X1725023Y4440019D01*
X1725023Y3977735D01*
X1765391Y3774792D01*
X1765393Y3774784D01*
X1836027Y3604258D01*
X1844582Y3583606D01*
X1889213Y3516811D01*
X1959547Y3411547D01*
X2110187Y3260907D01*
X2110209Y3260887D01*
X2398771Y2972325D01*
X2432256Y2911002D01*
X2435090Y2884645D01*
X2435090Y2844529D01*
X2438903Y2805815D01*
X2450289Y2690205D01*
X2472372Y2617407D01*
X2510358Y2492183D01*
X2607905Y2309687D01*
X2636157Y2275262D01*
X2739179Y2149727D01*
X2818153Y2084916D01*
X2899140Y2018452D01*
X3081636Y1920905D01*
X3279656Y1860837D01*
X3279655Y1860837D01*
X3318237Y1857037D01*
X3433982Y1845637D01*
X3433985Y1845637D01*
X3937195Y1845637D01*
X3937198Y1845637D01*
X4091524Y1860837D01*
X4289544Y1920905D01*
X4452139Y2007815D01*
X4520539Y2022056D01*
X4569039Y2007816D01*
X4731636Y1920905D01*
X4929656Y1860837D01*
X4929655Y1860837D01*
X4968237Y1857037D01*
X5083982Y1845637D01*
X5083985Y1845637D01*
X5587195Y1845637D01*
X5587198Y1845637D01*
X5741524Y1860837D01*
X5939544Y1920905D01*
X6122040Y2018452D01*
X6282000Y2149727D01*
X6413275Y2309687D01*
X6510822Y2492183D01*
X6570890Y2690203D01*
X6586090Y2844529D01*
X6586090Y2884645D01*
X6605775Y2951684D01*
X6622405Y2972322D01*
X6945174Y3295091D01*
X6945178Y3295093D01*
X7091500Y3441415D01*
X7206464Y3613472D01*
X7285653Y3804650D01*
X7326023Y4007605D01*
X7326023Y4440019D01*
X7345708Y4507058D01*
X7353372Y4517702D01*
X7396365Y4571186D01*
X7478560Y4736918D01*
X7523206Y4916444D01*
X7526023Y4957985D01*
X7526023Y6005893D01*
X7523206Y6047434D01*
X7518919Y6064671D01*
X7507361Y6111149D01*
X7478560Y6226960D01*
X7396365Y6392692D01*
X7280463Y6536879D01*
X7279524Y6537634D01*
X7221834Y6584008D01*
X7181916Y6641352D01*
X7175523Y6680654D01*
X7175523Y7061939D01*
X5375523Y7061939D01*
X5375523Y6680654D01*
X5355838Y6613615D01*
X5329212Y6584008D01*
X5270587Y6536883D01*
X5270584Y6536881D01*
X5154679Y6392690D01*
X5072487Y6226963D01*
X5072486Y6226961D01*
X5027840Y6047439D01*
X5025023Y6005891D01*
X5025023Y4957988D01*
X5027840Y4916440D01*
X5071823Y4739584D01*
X5072486Y4736918D01*
X5106844Y4667642D01*
X5118995Y4598837D01*
X5092018Y4534385D01*
X5034478Y4494749D01*
X5007910Y4489145D01*
X4929657Y4481438D01*
X4731633Y4421368D01*
X4569044Y4334461D01*
X4500641Y4320219D01*
X4452136Y4334461D01*
X4289546Y4421368D01*
X4289545Y4421369D01*
X4289544Y4421369D01*
X4091524Y4481437D01*
X4091522Y4481438D01*
X4091524Y4481438D01*
X4041745Y4486340D01*
X3976958Y4512501D01*
X3936599Y4569535D01*
X3933482Y4639336D01*
X3942808Y4664832D01*
X3978560Y4736918D01*
X4023206Y4916444D01*
X4026023Y4957985D01*
X4026023Y6905893D01*
X4023206Y6947434D01*
X4020102Y6959914D01*
X4006279Y7015500D01*
X3999685Y7042015D01*
X3999685Y7101865D01*
X4000869Y7106623D01*
X4023206Y7196444D01*
X4026023Y7237985D01*
X4026023Y8259784D01*
X5375523Y8259784D01*
X5375523Y7561939D01*
X6025523Y7561939D01*
X6525523Y7561939D01*
X7175523Y7561939D01*
X7175523Y8259767D01*
X7175522Y8259784D01*
X7169121Y8319312D01*
X7169119Y8319319D01*
X7118877Y8454026D01*
X7118873Y8454033D01*
X7032713Y8569127D01*
X7032710Y8569130D01*
X6917616Y8655290D01*
X6917609Y8655294D01*
X6782902Y8705536D01*
X6782895Y8705538D01*
X6723367Y8711939D01*
X6525523Y8711939D01*
X6525523Y7561939D01*
X6025523Y7561939D01*
X6025523Y8711939D01*
X5827678Y8711939D01*
X5768150Y8705538D01*
X5768143Y8705536D01*
X5633436Y8655294D01*
X5633429Y8655290D01*
X5518335Y8569130D01*
X5518332Y8569127D01*
X5432172Y8454033D01*
X5432168Y8454026D01*
X5381926Y8319319D01*
X5381924Y8319312D01*
X5375523Y8259784D01*
X4026023Y8259784D01*
X4026023Y8285893D01*
X4023206Y8327434D01*
X4023070Y8327979D01*
X4009379Y8383034D01*
X3978560Y8506960D01*
X3896365Y8672692D01*
X3896364Y8672693D01*
X3896364Y8672694D01*
X3895539Y8673985D01*
X3895273Y8674893D01*
X3893378Y8678715D01*
X3894058Y8679053D01*
X3876023Y8740761D01*
X3876023Y10143117D01*
X3894059Y10204825D01*
X3893378Y10205162D01*
X3895277Y10208993D01*
X3895543Y10209900D01*
X3896359Y10211179D01*
X3896365Y10211186D01*
X3978560Y10376918D01*
X4023206Y10556444D01*
X4026023Y10597985D01*
X4026023Y12177440D01*
X4045708Y12244478D01*
X4098512Y12290233D01*
X4150023Y12301439D01*
X4901023Y12301439D01*
X4968062Y12281754D01*
X5013817Y12228950D01*
X5025023Y12177440D01*
X5025023Y10597985D01*
X5025783Y10586775D01*
X5027840Y10556440D01*
X5066770Y10399903D01*
X5072486Y10376918D01*
X5072486Y10376917D01*
X5072487Y10376916D01*
X5154679Y10211189D01*
X5154680Y10211188D01*
X5154681Y10211186D01*
X5180515Y10179047D01*
X5270582Y10066999D01*
X5301027Y10042527D01*
X5414770Y9951097D01*
X5580502Y9868902D01*
X5760024Y9824257D01*
X5760025Y9824257D01*
X5760028Y9824256D01*
X5801569Y9821439D01*
X5801571Y9821439D01*
X6749475Y9821439D01*
X6749477Y9821439D01*
X6791018Y9824256D01*
X6970544Y9868902D01*
X7136276Y9951097D01*
X7280463Y10066999D01*
X7396365Y10211186D01*
X7478560Y10376918D01*
X7523206Y10556444D01*
X7526023Y10597985D01*
X7526023Y10975446D01*
X7545708Y11042485D01*
X7562342Y11063127D01*
X8313342Y11814127D01*
X8374665Y11847612D01*
X8444357Y11842628D01*
X8500290Y11800756D01*
X8524707Y11735292D01*
X8525023Y11726446D01*
X8525023Y10597985D01*
X8525783Y10586775D01*
X8527840Y10556440D01*
X8572486Y10376917D01*
X8593436Y10334677D01*
X8606348Y10279582D01*
X8606348Y8750692D01*
X8588312Y8688984D01*
X8588993Y8688646D01*
X8587097Y8684824D01*
X8586832Y8683916D01*
X8586006Y8682625D01*
X8503812Y8516894D01*
X8503811Y8516892D01*
X8459165Y8337370D01*
X8458026Y8320575D01*
X8456348Y8295824D01*
X8456348Y7247916D01*
X8457315Y7233654D01*
X8459165Y7206371D01*
X8482685Y7111795D01*
X8482685Y7051945D01*
X8459165Y6957370D01*
X8458026Y6940575D01*
X8456348Y6915824D01*
X8456348Y4967916D01*
X8457315Y4953654D01*
X8459165Y4926371D01*
X8503811Y4746849D01*
X8503812Y4746847D01*
X8586003Y4581122D01*
X8586828Y4579831D01*
X8587093Y4578924D01*
X8588993Y4575093D01*
X8588311Y4574756D01*
X8606348Y4513048D01*
X8606348Y4099615D01*
X8591706Y4041162D01*
X8499769Y3869162D01*
X8439699Y3671136D01*
X8431259Y3585438D01*
X8424500Y3516811D01*
X8424500Y2863595D01*
X8427136Y2836834D01*
X8439699Y2709271D01*
X8465017Y2625808D01*
X8499768Y2511249D01*
X8597315Y2328753D01*
X8621962Y2298720D01*
X8728589Y2168793D01*
X8794589Y2114629D01*
X8888550Y2037518D01*
X9071046Y1939971D01*
X9269066Y1879903D01*
X9269065Y1879903D01*
X9307647Y1876103D01*
X9423392Y1864703D01*
X9423395Y1864703D01*
X9926605Y1864703D01*
X9926608Y1864703D01*
X10080934Y1879903D01*
X10278954Y1939971D01*
X10461450Y2037518D01*
X10621410Y2168793D01*
X10681036Y2241449D01*
X10738778Y2280781D01*
X10808623Y2282652D01*
X10828328Y2274294D01*
X10828765Y2275262D01*
X10835606Y2272183D01*
X10997894Y2221613D01*
X10997893Y2221613D01*
X11068408Y2215205D01*
X11068426Y2215204D01*
X11575000Y2215204D01*
X11581581Y2215204D01*
X11652102Y2221612D01*
X11652107Y2221613D01*
X11814396Y2272185D01*
X11959877Y2360131D01*
X12080072Y2480326D01*
X12168019Y2625808D01*
X12218590Y2788097D01*
X12225000Y2858631D01*
X12225000Y2940203D01*
X11575000Y2940203D01*
X11575000Y2215204D01*
X11068426Y2215204D01*
X11074999Y2215205D01*
X11075000Y2215205D01*
X11075000Y4165203D01*
X11074999Y4165204D01*
X11068436Y4165203D01*
X11068417Y4165202D01*
X10997897Y4158795D01*
X10997894Y4158795D01*
X10968237Y4149553D01*
X10940830Y4149102D01*
X10913701Y4145201D01*
X10906400Y4148536D01*
X10898377Y4148403D01*
X10875079Y4162839D01*
X10850145Y4174226D01*
X10845806Y4180978D01*
X10838985Y4185204D01*
X10827189Y4209947D01*
X10812371Y4233004D01*
X10810719Y4244494D01*
X10808917Y4248273D01*
X10807348Y4267939D01*
X10807348Y4513048D01*
X10825384Y4574756D01*
X10824703Y4575093D01*
X10826602Y4578924D01*
X10826868Y4579831D01*
X10827684Y4581110D01*
X10827690Y4581117D01*
X10909885Y4746849D01*
X10954531Y4926375D01*
X10957348Y4967916D01*
X10957348Y6915824D01*
X10954531Y6957365D01*
X10950552Y6973363D01*
X10934558Y7037679D01*
X10931010Y7051946D01*
X10931010Y7111796D01*
X10931060Y7111994D01*
X10954531Y7206375D01*
X10957348Y7247916D01*
X10957348Y8295824D01*
X10954531Y8337365D01*
X10952764Y8344469D01*
X10940075Y8395495D01*
X10909885Y8516891D01*
X10827690Y8682623D01*
X10827689Y8682624D01*
X10827689Y8682625D01*
X10826864Y8683916D01*
X10826598Y8684824D01*
X10824703Y8688646D01*
X10825383Y8688984D01*
X10807348Y8750692D01*
X10807348Y10056787D01*
X10827033Y10123826D01*
X10834696Y10134469D01*
X10896365Y10211186D01*
X10978560Y10376918D01*
X11023206Y10556444D01*
X11026023Y10597985D01*
X11026023Y12545893D01*
X11023206Y12587434D01*
X11022802Y12589057D01*
X11006096Y12656236D01*
X10999685Y12682015D01*
X10999685Y12741865D01*
X11000089Y12743487D01*
X11023206Y12836444D01*
X11026023Y12877985D01*
X11026023Y13816712D01*
X11045708Y13883751D01*
X11098512Y13929506D01*
X11150023Y13940712D01*
X11901023Y13940712D01*
X11968062Y13921027D01*
X12013817Y13868223D01*
X12025023Y13816712D01*
X12025023Y12877985D01*
X12025783Y12866775D01*
X12027840Y12836440D01*
X12051360Y12741864D01*
X12051360Y12682014D01*
X12027840Y12587439D01*
X12026142Y12562389D01*
X12025023Y12545893D01*
X12025023Y10597985D01*
X12025783Y10586775D01*
X12027840Y10556440D01*
X12066770Y10399903D01*
X12072486Y10376918D01*
X12072486Y10376917D01*
X12072487Y10376916D01*
X12154678Y10211191D01*
X12155503Y10209900D01*
X12155768Y10208993D01*
X12157668Y10205162D01*
X12156986Y10204825D01*
X12175023Y10143117D01*
X12175023Y8815634D01*
X12155338Y8748595D01*
X12147671Y8737948D01*
X12105247Y8685171D01*
X12105246Y8685169D01*
X12023055Y8519443D01*
X12023054Y8519441D01*
X11978408Y8339919D01*
X11975591Y8298371D01*
X11975591Y7250468D01*
X11978408Y7208920D01*
X12001928Y7114344D01*
X12001928Y7054494D01*
X11978408Y6959919D01*
X11975591Y6918371D01*
X11975591Y4970468D01*
X11978408Y4928920D01*
X12023054Y4749398D01*
X12023055Y4749396D01*
X12105247Y4583668D01*
X12117843Y4567998D01*
X12148237Y4530187D01*
X12174897Y4465604D01*
X12175591Y4452499D01*
X12175591Y4382902D01*
X12215959Y4179959D01*
X12215961Y4179951D01*
X12271386Y4046143D01*
X12278855Y3976673D01*
X12247580Y3914194D01*
X12187491Y3878542D01*
X12117666Y3881036D01*
X12069144Y3911009D01*
X11959877Y4020276D01*
X11814395Y4108223D01*
X11814396Y4108223D01*
X11652105Y4158794D01*
X11652106Y4158794D01*
X11581572Y4165203D01*
X11575000Y4165203D01*
X11575000Y3440203D01*
X12224999Y3440203D01*
X12224999Y3521786D01*
X12218591Y3592306D01*
X12218590Y3592311D01*
X12175507Y3730569D01*
X12174355Y3800429D01*
X12211156Y3859822D01*
X12274224Y3889890D01*
X12343537Y3881088D01*
X12396994Y3836351D01*
X12410113Y3816717D01*
X12410116Y3816713D01*
X12560755Y3666074D01*
X12560777Y3666054D01*
X13163704Y3063127D01*
X13197189Y3001804D01*
X13200023Y2975447D01*
X13200023Y2935331D01*
X13202252Y2912701D01*
X13215222Y2781007D01*
X13236983Y2709271D01*
X13275291Y2582985D01*
X13372838Y2400489D01*
X13391418Y2377849D01*
X13504112Y2240529D01*
X13596047Y2165081D01*
X13664073Y2109254D01*
X13846569Y2011707D01*
X14044589Y1951639D01*
X14044588Y1951639D01*
X14083170Y1947839D01*
X14198915Y1936439D01*
X14198918Y1936439D01*
X14702128Y1936439D01*
X14702131Y1936439D01*
X14856457Y1951639D01*
X15054477Y2011707D01*
X15217072Y2098617D01*
X15285472Y2112858D01*
X15333972Y2098618D01*
X15496569Y2011707D01*
X15694589Y1951639D01*
X15694588Y1951639D01*
X15733170Y1947839D01*
X15848915Y1936439D01*
X15848918Y1936439D01*
X16352128Y1936439D01*
X16352131Y1936439D01*
X16506457Y1951639D01*
X16704477Y2011707D01*
X16886973Y2109254D01*
X17046933Y2240529D01*
X17178208Y2400489D01*
X17275755Y2582985D01*
X17335823Y2781005D01*
X17351023Y2935331D01*
X17351023Y2975446D01*
X17370708Y3042484D01*
X17387337Y3063122D01*
X17492602Y3168386D01*
X17607566Y3340443D01*
X17686755Y3531621D01*
X17727125Y3734576D01*
X17727125Y4457256D01*
X17746810Y4524295D01*
X17754474Y4534939D01*
X17797467Y4588423D01*
X17879662Y4754155D01*
X17924308Y4933681D01*
X17927125Y4975222D01*
X17927125Y6023130D01*
X17924308Y6064671D01*
X17879662Y6244197D01*
X17797467Y6409929D01*
X17681565Y6554116D01*
X17671721Y6562029D01*
X17622936Y6601245D01*
X17583018Y6658589D01*
X17576625Y6697891D01*
X17576625Y7079176D01*
X15776625Y7079176D01*
X15776625Y6697891D01*
X15756940Y6630852D01*
X15730314Y6601245D01*
X15671689Y6554120D01*
X15671686Y6554118D01*
X15555781Y6409927D01*
X15473589Y6244200D01*
X15473588Y6244198D01*
X15428942Y6064676D01*
X15427773Y6047439D01*
X15426125Y6023130D01*
X15426125Y4975222D01*
X15426632Y4967750D01*
X15428942Y4933677D01*
X15473588Y4754155D01*
X15473589Y4754153D01*
X15519827Y4660922D01*
X15521070Y4653884D01*
X15525302Y4648124D01*
X15527065Y4619937D01*
X15531979Y4592117D01*
X15529218Y4585523D01*
X15529665Y4578391D01*
X15515909Y4553726D01*
X15505002Y4527665D01*
X15498287Y4522125D01*
X15495635Y4517369D01*
X15467193Y4496470D01*
X15333977Y4425263D01*
X15265575Y4411021D01*
X15217069Y4425263D01*
X15054479Y4512170D01*
X15054478Y4512171D01*
X15054477Y4512171D01*
X14856457Y4572239D01*
X14856455Y4572240D01*
X14856457Y4572240D01*
X14737328Y4583973D01*
X14702131Y4587439D01*
X14702128Y4587439D01*
X14662016Y4587439D01*
X14632575Y4596084D01*
X14602589Y4602607D01*
X14597573Y4606362D01*
X14594977Y4607124D01*
X14574335Y4623758D01*
X14482597Y4715496D01*
X14449112Y4776819D01*
X14449942Y4833100D01*
X14473774Y4928924D01*
X14476591Y4970465D01*
X14476591Y6918373D01*
X14473774Y6959914D01*
X14471030Y6970946D01*
X14459473Y7017420D01*
X14450253Y7054495D01*
X14450253Y7114345D01*
X14452468Y7123249D01*
X14473774Y7208924D01*
X14476591Y7250465D01*
X14476591Y8277021D01*
X15776625Y8277021D01*
X15776625Y7579176D01*
X16426625Y7579176D01*
X16926625Y7579176D01*
X17576625Y7579176D01*
X17576625Y8277004D01*
X17576624Y8277021D01*
X17570223Y8336549D01*
X17570221Y8336556D01*
X17519979Y8471263D01*
X17519975Y8471270D01*
X17433815Y8586364D01*
X17433812Y8586367D01*
X17318718Y8672527D01*
X17318711Y8672531D01*
X17184004Y8722773D01*
X17183997Y8722775D01*
X17124469Y8729176D01*
X16926625Y8729176D01*
X16926625Y7579176D01*
X16426625Y7579176D01*
X16426625Y8729176D01*
X16228780Y8729176D01*
X16169252Y8722775D01*
X16169245Y8722773D01*
X16034538Y8672531D01*
X16034531Y8672527D01*
X15919437Y8586367D01*
X15919434Y8586364D01*
X15833274Y8471270D01*
X15833270Y8471263D01*
X15783028Y8336556D01*
X15783026Y8336549D01*
X15776625Y8277021D01*
X14476591Y8277021D01*
X14476591Y8298373D01*
X14473774Y8339914D01*
X14471030Y8350946D01*
X14450552Y8433290D01*
X14429128Y8519440D01*
X14427749Y8522221D01*
X14388935Y8600484D01*
X14376023Y8655578D01*
X14376023Y10143117D01*
X14394059Y10204825D01*
X14393378Y10205162D01*
X14395277Y10208993D01*
X14395543Y10209900D01*
X14396359Y10211179D01*
X14396365Y10211186D01*
X14478560Y10376918D01*
X14523206Y10556444D01*
X14526023Y10597985D01*
X14526023Y12173729D01*
X14545708Y12240768D01*
X14598512Y12286523D01*
X14650023Y12297729D01*
X15314293Y12297729D01*
X15381332Y12278044D01*
X15427087Y12225240D01*
X15438293Y12173729D01*
X15438293Y10594278D01*
X15441110Y10552730D01*
X15485756Y10373208D01*
X15485757Y10373206D01*
X15567949Y10207479D01*
X15567950Y10207478D01*
X15567951Y10207476D01*
X15584006Y10187503D01*
X15683852Y10063289D01*
X15765966Y9997284D01*
X15828040Y9947387D01*
X15993772Y9865192D01*
X16173294Y9820547D01*
X16173295Y9820547D01*
X16173298Y9820546D01*
X16214839Y9817729D01*
X16214841Y9817729D01*
X17162745Y9817729D01*
X17162747Y9817729D01*
X17204288Y9820546D01*
X17383814Y9865192D01*
X17549546Y9947387D01*
X17693733Y10063289D01*
X17809635Y10207476D01*
X17891830Y10373208D01*
X17936476Y10552734D01*
X17939293Y10594275D01*
X17939293Y11281736D01*
X17958978Y11348775D01*
X17975612Y11369417D01*
X18646804Y12040609D01*
X18708127Y12074094D01*
X18777819Y12069110D01*
X18833752Y12027238D01*
X18858169Y11961774D01*
X18858485Y11952928D01*
X18858485Y10582799D01*
X18861302Y10541251D01*
X18905948Y10361729D01*
X18905949Y10361727D01*
X18988140Y10196002D01*
X18988965Y10194711D01*
X18989230Y10193804D01*
X18991130Y10189973D01*
X18990448Y10189636D01*
X19008485Y10127928D01*
X19008485Y8802964D01*
X18988800Y8735925D01*
X18981134Y8725279D01*
X18958800Y8697494D01*
X18958799Y8697493D01*
X18876608Y8531767D01*
X18876607Y8531765D01*
X18831961Y8352243D01*
X18829144Y8310695D01*
X18829144Y7262792D01*
X18831961Y7221244D01*
X18855481Y7126668D01*
X18855481Y7066818D01*
X18831961Y6972243D01*
X18831125Y6959914D01*
X18829144Y6930697D01*
X18829144Y4982789D01*
X18829323Y4980155D01*
X18831961Y4941244D01*
X18876607Y4761722D01*
X18876608Y4761720D01*
X18958799Y4595995D01*
X18959624Y4594704D01*
X18959889Y4593797D01*
X18961789Y4589966D01*
X18961107Y4589629D01*
X18979144Y4527921D01*
X18979144Y3896671D01*
X18973805Y3860676D01*
X18939699Y3748244D01*
X18931605Y3666054D01*
X18924500Y3593919D01*
X18924500Y2940703D01*
X18924963Y2936006D01*
X18939699Y2786379D01*
X18963090Y2709269D01*
X18999768Y2588357D01*
X19097315Y2405861D01*
X19112775Y2387023D01*
X19228589Y2245901D01*
X19288520Y2196718D01*
X19388550Y2114626D01*
X19571046Y2017079D01*
X19769066Y1957011D01*
X19769065Y1957011D01*
X19807647Y1953211D01*
X19923392Y1941811D01*
X19923395Y1941811D01*
X20426605Y1941811D01*
X20426608Y1941811D01*
X20580934Y1957011D01*
X20778954Y2017079D01*
X20961450Y2114626D01*
X21121410Y2245901D01*
X21181036Y2318557D01*
X21238778Y2357889D01*
X21308623Y2359760D01*
X21328328Y2351402D01*
X21328765Y2352370D01*
X21335606Y2349291D01*
X21497894Y2298721D01*
X21497893Y2298721D01*
X21568408Y2292313D01*
X21568426Y2292312D01*
X22075000Y2292312D01*
X22081581Y2292312D01*
X22152102Y2298720D01*
X22152107Y2298721D01*
X22314396Y2349293D01*
X22459877Y2437239D01*
X22580072Y2557434D01*
X22668019Y2702916D01*
X22718590Y2865205D01*
X22725000Y2935739D01*
X22725000Y3017311D01*
X22075000Y3017311D01*
X22075000Y2292312D01*
X21568426Y2292312D01*
X21574999Y2292313D01*
X21575000Y2292313D01*
X21575000Y4242311D01*
X21574999Y4242312D01*
X21568436Y4242311D01*
X21568417Y4242310D01*
X21497897Y4235903D01*
X21497891Y4235902D01*
X21341035Y4187023D01*
X21313627Y4186572D01*
X21286497Y4182670D01*
X21279198Y4186004D01*
X21271174Y4185871D01*
X21247873Y4200309D01*
X21222941Y4211695D01*
X21218602Y4218446D01*
X21211782Y4222672D01*
X21199987Y4247413D01*
X21185167Y4270473D01*
X21183514Y4281964D01*
X21181714Y4285741D01*
X21180144Y4305408D01*
X21180144Y4527921D01*
X21198180Y4589629D01*
X21197499Y4589966D01*
X21199398Y4593797D01*
X21199664Y4594704D01*
X21200480Y4595983D01*
X21200486Y4595990D01*
X21282681Y4761722D01*
X21327327Y4941248D01*
X21330144Y4982789D01*
X21330144Y6930697D01*
X21327327Y6972238D01*
X21303806Y7066819D01*
X21303806Y7126669D01*
X21307122Y7140000D01*
X21327327Y7221248D01*
X21330144Y7262789D01*
X21330144Y8310697D01*
X21327327Y8352238D01*
X21282681Y8531764D01*
X21222396Y8653318D01*
X21209485Y8708411D01*
X21209485Y10127928D01*
X21227521Y10189636D01*
X21226840Y10189973D01*
X21228739Y10193804D01*
X21229005Y10194711D01*
X21229821Y10195990D01*
X21229827Y10195997D01*
X21312022Y10361729D01*
X21356668Y10541255D01*
X21359485Y10582796D01*
X21359485Y12530704D01*
X21356668Y12572245D01*
X21354968Y12579079D01*
X21333147Y12666824D01*
X21333147Y12726676D01*
X21333585Y12728435D01*
X21356668Y12821255D01*
X21359485Y12862796D01*
X21359485Y13816712D01*
X21379170Y13883751D01*
X21431974Y13929506D01*
X21483485Y13940712D01*
X22146286Y13940712D01*
X22213325Y13921027D01*
X22259080Y13868223D01*
X22270286Y13816712D01*
X22270286Y12882779D01*
X22273103Y12841238D01*
X22280706Y12810666D01*
X22296623Y12746658D01*
X22296623Y12686808D01*
X22273103Y12592233D01*
X22271879Y12574180D01*
X22270286Y12550687D01*
X22270286Y10602779D01*
X22270863Y10594275D01*
X22273103Y10561234D01*
X22317749Y10381712D01*
X22317750Y10381710D01*
X22399941Y10215985D01*
X22400766Y10214694D01*
X22401031Y10213787D01*
X22402931Y10209956D01*
X22402249Y10209619D01*
X22420286Y10147911D01*
X22420286Y8756339D01*
X22407374Y8701245D01*
X22323879Y8532892D01*
X22323878Y8532890D01*
X22279232Y8353368D01*
X22276415Y8311820D01*
X22276415Y7263917D01*
X22279232Y7222369D01*
X22302752Y7127793D01*
X22302752Y7067943D01*
X22279232Y6973368D01*
X22278320Y6959919D01*
X22276415Y6931822D01*
X22276415Y4983914D01*
X22277116Y4973582D01*
X22279232Y4942369D01*
X22323878Y4762847D01*
X22323879Y4762845D01*
X22406071Y4597117D01*
X22421124Y4578391D01*
X22449061Y4543636D01*
X22458300Y4521254D01*
X22471392Y4500883D01*
X22473894Y4483478D01*
X22475721Y4479053D01*
X22476415Y4465948D01*
X22476415Y4303364D01*
X22456730Y4236325D01*
X22403926Y4190570D01*
X22334768Y4180626D01*
X22315525Y4184978D01*
X22152101Y4235903D01*
X22081572Y4242311D01*
X22075000Y4242311D01*
X22075000Y3517311D01*
X22658157Y3517311D01*
X22687600Y3508666D01*
X22717583Y3502143D01*
X22722598Y3498389D01*
X22725196Y3497626D01*
X22745832Y3480998D01*
X22857260Y3369570D01*
X22857262Y3369569D01*
X22864332Y3362499D01*
X23163704Y3063127D01*
X23197189Y3001804D01*
X23200023Y2975447D01*
X23200023Y2935331D01*
X23202252Y2912701D01*
X23215222Y2781007D01*
X23236983Y2709271D01*
X23275291Y2582985D01*
X23372838Y2400489D01*
X23391418Y2377849D01*
X23504112Y2240529D01*
X23596047Y2165081D01*
X23664073Y2109254D01*
X23846569Y2011707D01*
X24044589Y1951639D01*
X24044588Y1951639D01*
X24083170Y1947839D01*
X24198915Y1936439D01*
X24198918Y1936439D01*
X24702128Y1936439D01*
X24702131Y1936439D01*
X24856457Y1951639D01*
X25054477Y2011707D01*
X25217072Y2098617D01*
X25285472Y2112858D01*
X25333972Y2098618D01*
X25496569Y2011707D01*
X25694589Y1951639D01*
X25694588Y1951639D01*
X25733170Y1947839D01*
X25848915Y1936439D01*
X25848918Y1936439D01*
X26352128Y1936439D01*
X26352131Y1936439D01*
X26506457Y1951639D01*
X26704477Y2011707D01*
X26886973Y2109254D01*
X27046933Y2240529D01*
X27178208Y2400489D01*
X27275755Y2582985D01*
X27335823Y2781005D01*
X27351023Y2935331D01*
X27351023Y2975447D01*
X27370708Y3042486D01*
X27387338Y3063124D01*
X27610089Y3285875D01*
X27610093Y3285877D01*
X27756415Y3432199D01*
X27871379Y3604256D01*
X27950568Y3795434D01*
X27990938Y3998389D01*
X27990938Y4465169D01*
X28010623Y4532208D01*
X28018287Y4542852D01*
X28061280Y4596336D01*
X28143475Y4762068D01*
X28188121Y4941594D01*
X28190938Y4983135D01*
X28190938Y6031043D01*
X28188121Y6072584D01*
X28187747Y6074086D01*
X28154886Y6206225D01*
X28143475Y6252110D01*
X28061280Y6417842D01*
X27945378Y6562029D01*
X27943832Y6563272D01*
X27886749Y6609158D01*
X27846831Y6666502D01*
X27840438Y6705804D01*
X27840438Y7087089D01*
X26040438Y7087089D01*
X26040438Y6705804D01*
X26020753Y6638765D01*
X25994127Y6609158D01*
X25935502Y6562033D01*
X25935499Y6562031D01*
X25819594Y6417840D01*
X25737402Y6252113D01*
X25737401Y6252111D01*
X25692755Y6072589D01*
X25690742Y6042912D01*
X25689938Y6031043D01*
X25689938Y4983135D01*
X25690475Y4975222D01*
X25692755Y4941590D01*
X25737401Y4762068D01*
X25748552Y4739584D01*
X25760702Y4670778D01*
X25733725Y4606327D01*
X25676185Y4566692D01*
X25673459Y4565831D01*
X25496569Y4512172D01*
X25333977Y4425263D01*
X25265574Y4411021D01*
X25217069Y4425263D01*
X25054479Y4512170D01*
X25054478Y4512171D01*
X25054477Y4512171D01*
X24958731Y4541215D01*
X24856456Y4572240D01*
X24824440Y4575393D01*
X24759654Y4601555D01*
X24719296Y4658591D01*
X24716180Y4728391D01*
X24725508Y4753889D01*
X24729952Y4762847D01*
X24774598Y4942373D01*
X24777415Y4983914D01*
X24777415Y6931822D01*
X24774598Y6973363D01*
X24773754Y6976755D01*
X24757727Y7041203D01*
X24751077Y7067944D01*
X24751077Y7127794D01*
X24753255Y7136549D01*
X24774598Y7222373D01*
X24777415Y7263914D01*
X24777415Y8284934D01*
X26040438Y8284934D01*
X26040438Y7587089D01*
X26690438Y7587089D01*
X27190438Y7587089D01*
X27840438Y7587089D01*
X27840438Y8284917D01*
X27840437Y8284934D01*
X27834036Y8344462D01*
X27834034Y8344469D01*
X27783792Y8479176D01*
X27783788Y8479183D01*
X27697628Y8594277D01*
X27697625Y8594280D01*
X27582531Y8680440D01*
X27582524Y8680444D01*
X27447817Y8730686D01*
X27447810Y8730688D01*
X27388282Y8737089D01*
X27190438Y8737089D01*
X27190438Y7587089D01*
X26690438Y7587089D01*
X26690438Y8737089D01*
X26492593Y8737089D01*
X26433065Y8730688D01*
X26433058Y8730686D01*
X26298351Y8680444D01*
X26298344Y8680440D01*
X26183250Y8594280D01*
X26183247Y8594277D01*
X26097087Y8479183D01*
X26097083Y8479176D01*
X26046841Y8344469D01*
X26046839Y8344462D01*
X26040438Y8284934D01*
X24777415Y8284934D01*
X24777415Y8311822D01*
X24774598Y8353363D01*
X24773754Y8356755D01*
X24749564Y8454026D01*
X24729952Y8532889D01*
X24647757Y8698621D01*
X24647754Y8698625D01*
X24644135Y8704287D01*
X24645487Y8705152D01*
X24621979Y8762124D01*
X24621286Y8775212D01*
X24621286Y10147911D01*
X24639322Y10209619D01*
X24638641Y10209956D01*
X24640540Y10213787D01*
X24640806Y10214694D01*
X24641622Y10215973D01*
X24641628Y10215980D01*
X24723823Y10381712D01*
X24768469Y10561238D01*
X24771286Y10602779D01*
X24771286Y12177440D01*
X24790971Y12244479D01*
X24843775Y12290234D01*
X24895286Y12301440D01*
X25542710Y12301440D01*
X25609749Y12281755D01*
X25655504Y12228951D01*
X25666710Y12177440D01*
X25666710Y10597986D01*
X25667609Y10584729D01*
X25669527Y10556441D01*
X25708457Y10399903D01*
X25714173Y10376919D01*
X25714173Y10376918D01*
X25714174Y10376917D01*
X25796366Y10211190D01*
X25796367Y10211189D01*
X25796368Y10211187D01*
X25815406Y10187503D01*
X25912269Y10067000D01*
X25924975Y10056787D01*
X26056457Y9951098D01*
X26222189Y9868903D01*
X26401711Y9824258D01*
X26401712Y9824258D01*
X26401715Y9824257D01*
X26443256Y9821440D01*
X26443258Y9821440D01*
X27391162Y9821440D01*
X27391164Y9821440D01*
X27432705Y9824257D01*
X27612231Y9868903D01*
X27777963Y9951098D01*
X27922150Y10067000D01*
X28038052Y10211187D01*
X28120247Y10376919D01*
X28164893Y10556445D01*
X28167710Y10597986D01*
X28167710Y11117133D01*
X28187395Y11184172D01*
X28204029Y11204814D01*
X28899809Y11900594D01*
X28961132Y11934079D01*
X29030824Y11929095D01*
X29086757Y11887223D01*
X29111174Y11821759D01*
X29111490Y11812913D01*
X29111490Y10614481D01*
X29111939Y10607863D01*
X29114307Y10572936D01*
X29158953Y10393414D01*
X29158954Y10393412D01*
X29241145Y10227687D01*
X29241970Y10226396D01*
X29242235Y10225489D01*
X29244135Y10221658D01*
X29243453Y10221321D01*
X29261490Y10159613D01*
X29261490Y8788287D01*
X29241805Y8721248D01*
X29234140Y8710604D01*
X29231548Y8707380D01*
X29231545Y8707376D01*
X29149352Y8541647D01*
X29149351Y8541645D01*
X29104705Y8362123D01*
X29104111Y8353363D01*
X29101888Y8320577D01*
X29101888Y7272669D01*
X29102482Y7263914D01*
X29104705Y7231124D01*
X29128225Y7136548D01*
X29128225Y7076698D01*
X29104705Y6982123D01*
X29104111Y6973363D01*
X29101888Y6940577D01*
X29101888Y4992669D01*
X29102482Y4983914D01*
X29104705Y4951124D01*
X29149351Y4771602D01*
X29149352Y4771600D01*
X29231543Y4605875D01*
X29232368Y4604584D01*
X29232633Y4603677D01*
X29234533Y4599846D01*
X29233851Y4599509D01*
X29251888Y4537801D01*
X29251888Y3648532D01*
X29251888Y3475310D01*
X29257044Y3442754D01*
X29278347Y3308250D01*
X29278986Y3304220D01*
X29332515Y3139476D01*
X29408393Y2990555D01*
X29410985Y2985469D01*
X29424500Y2929174D01*
X29424500Y2912701D01*
X29429178Y2865205D01*
X29439699Y2758377D01*
X29465017Y2674914D01*
X29499768Y2560355D01*
X29597315Y2377859D01*
X29623074Y2346471D01*
X29728589Y2217899D01*
X29822425Y2140891D01*
X29888550Y2086624D01*
X30071046Y1989077D01*
X30269066Y1929009D01*
X30269065Y1929009D01*
X30307647Y1925209D01*
X30423392Y1913809D01*
X30423395Y1913809D01*
X30926605Y1913809D01*
X30926608Y1913809D01*
X31080934Y1929009D01*
X31278954Y1989077D01*
X31461450Y2086624D01*
X31621410Y2217899D01*
X31681036Y2290555D01*
X31738778Y2329887D01*
X31808623Y2331758D01*
X31828328Y2323400D01*
X31828765Y2324368D01*
X31835606Y2321289D01*
X31997894Y2270719D01*
X31997893Y2270719D01*
X32068408Y2264311D01*
X32068426Y2264310D01*
X32074999Y2264311D01*
X32075000Y2264311D01*
X32075000Y4214309D01*
X32074999Y4214310D01*
X32068436Y4214309D01*
X32068417Y4214308D01*
X31997897Y4207901D01*
X31997892Y4207900D01*
X31835601Y4157328D01*
X31828762Y4154249D01*
X31827509Y4157033D01*
X31773424Y4142779D01*
X31706961Y4164329D01*
X31681034Y4188066D01*
X31678979Y4190570D01*
X31621410Y4260719D01*
X31621408Y4260721D01*
X31621407Y4260722D01*
X31498223Y4361816D01*
X31497253Y4363240D01*
X31495685Y4363956D01*
X31477657Y4392008D01*
X31458889Y4419561D01*
X31458544Y4421749D01*
X31457911Y4422734D01*
X31452888Y4457669D01*
X31452888Y4537801D01*
X31470924Y4599509D01*
X31470243Y4599846D01*
X31472142Y4603677D01*
X31472408Y4604584D01*
X31473224Y4605863D01*
X31473230Y4605870D01*
X31555425Y4771602D01*
X31600071Y4951128D01*
X31602888Y4992669D01*
X31602888Y6940577D01*
X31600071Y6982118D01*
X31576550Y7076699D01*
X31576550Y7136549D01*
X31578106Y7142803D01*
X31600071Y7231128D01*
X31602888Y7272669D01*
X31602888Y8320577D01*
X31600071Y8362118D01*
X31594869Y8383034D01*
X31582370Y8433297D01*
X31555425Y8541644D01*
X31478772Y8696202D01*
X31475401Y8702999D01*
X31462490Y8758093D01*
X31462490Y10159613D01*
X31480526Y10221321D01*
X31479845Y10221658D01*
X31481744Y10225489D01*
X31482010Y10226396D01*
X31482826Y10227675D01*
X31482832Y10227682D01*
X31565027Y10393414D01*
X31609673Y10572940D01*
X31612490Y10614481D01*
X31612490Y12562389D01*
X31609673Y12603930D01*
X31586152Y12698511D01*
X31586152Y12758361D01*
X31609672Y12852936D01*
X31609671Y12852936D01*
X31609673Y12852940D01*
X31612490Y12894481D01*
X31612490Y13816712D01*
X31632175Y13883751D01*
X31684979Y13929506D01*
X31736490Y13940712D01*
X32416698Y13940712D01*
X32483737Y13921027D01*
X32529492Y13868223D01*
X32540698Y13816712D01*
X32540698Y12879608D01*
X32541375Y12869628D01*
X32543515Y12838063D01*
X32567035Y12743487D01*
X32567035Y12683637D01*
X32543515Y12589062D01*
X32542506Y12574180D01*
X32540698Y12547516D01*
X32540698Y10599608D01*
X32541060Y10594275D01*
X32543515Y10558063D01*
X32588161Y10378541D01*
X32588162Y10378539D01*
X32670353Y10212814D01*
X32671178Y10211523D01*
X32671443Y10210616D01*
X32673343Y10206785D01*
X32672661Y10206448D01*
X32690698Y10144740D01*
X32690698Y8777263D01*
X32671013Y8710224D01*
X32663348Y8699579D01*
X32660633Y8696202D01*
X32660632Y8696201D01*
X32578438Y8530470D01*
X32578437Y8530468D01*
X32533791Y8350946D01*
X32530974Y8309398D01*
X32530974Y7261495D01*
X32533791Y7219947D01*
X32557311Y7125371D01*
X32557311Y7065521D01*
X32533791Y6970946D01*
X32532245Y6948146D01*
X32530974Y6929400D01*
X32530974Y4981492D01*
X32531511Y4973579D01*
X32533791Y4939947D01*
X32578437Y4760425D01*
X32578438Y4760423D01*
X32660630Y4594695D01*
X32678681Y4572239D01*
X32703620Y4541214D01*
X32712859Y4518832D01*
X32725951Y4498461D01*
X32728453Y4481056D01*
X32730280Y4476631D01*
X32730974Y4463526D01*
X32730974Y4336512D01*
X32711289Y4269473D01*
X32658485Y4223718D01*
X32595757Y4213020D01*
X32581566Y4214309D01*
X32575000Y4214309D01*
X32575000Y2264310D01*
X32581581Y2264310D01*
X32652102Y2270718D01*
X32652107Y2270719D01*
X32814396Y2321291D01*
X32959877Y2409237D01*
X33080072Y2529432D01*
X33168019Y2674914D01*
X33218590Y2837204D01*
X33222582Y2881136D01*
X33248251Y2946119D01*
X33304978Y2986909D01*
X33374752Y2990555D01*
X33435421Y2955899D01*
X33467723Y2893944D01*
X33469476Y2882072D01*
X33484943Y2725032D01*
X33514978Y2626020D01*
X33545012Y2527010D01*
X33642559Y2344514D01*
X33661559Y2321362D01*
X33773833Y2184554D01*
X33859038Y2114629D01*
X33933794Y2053279D01*
X34116290Y1955732D01*
X34314310Y1895664D01*
X34314309Y1895664D01*
X34352891Y1891864D01*
X34468636Y1880464D01*
X34468639Y1880464D01*
X34971849Y1880464D01*
X34971852Y1880464D01*
X35126178Y1895664D01*
X35324198Y1955732D01*
X35486793Y2042642D01*
X35555193Y2056883D01*
X35603693Y2042643D01*
X35766290Y1955732D01*
X35964310Y1895664D01*
X35964309Y1895664D01*
X36002891Y1891864D01*
X36118636Y1880464D01*
X36118639Y1880464D01*
X36621849Y1880464D01*
X36621852Y1880464D01*
X36776178Y1895664D01*
X36974198Y1955732D01*
X37156694Y2053279D01*
X37316654Y2184554D01*
X37447929Y2344514D01*
X37545476Y2527010D01*
X37605544Y2725030D01*
X37620744Y2879356D01*
X37620744Y2919472D01*
X37640429Y2986511D01*
X37657059Y3007149D01*
X37916965Y3267055D01*
X37916969Y3267057D01*
X38063291Y3413379D01*
X38178255Y3585436D01*
X38257444Y3776614D01*
X38297814Y3979569D01*
X38297814Y4455613D01*
X38317499Y4522652D01*
X38325163Y4533296D01*
X38368156Y4586780D01*
X38450351Y4752512D01*
X38494997Y4932038D01*
X38497814Y4973579D01*
X38497814Y6021487D01*
X38494997Y6063028D01*
X38494588Y6064671D01*
X38481916Y6115629D01*
X38450351Y6242554D01*
X38368156Y6408286D01*
X38252254Y6552473D01*
X38240366Y6562029D01*
X38193625Y6599602D01*
X38153707Y6656946D01*
X38147314Y6696248D01*
X38147314Y7077533D01*
X36347314Y7077533D01*
X36347314Y6696248D01*
X36327629Y6629209D01*
X36301003Y6599602D01*
X36242378Y6552477D01*
X36242375Y6552475D01*
X36126470Y6408284D01*
X36044278Y6242557D01*
X36044277Y6242555D01*
X35999631Y6063033D01*
X35997618Y6033356D01*
X35996926Y6023130D01*
X35996814Y6021485D01*
X35996814Y4973582D01*
X35999631Y4932034D01*
X36044277Y4752512D01*
X36072468Y4695669D01*
X36084619Y4626864D01*
X36057641Y4562412D01*
X36000102Y4522777D01*
X35973537Y4517173D01*
X35964310Y4516265D01*
X35801405Y4466848D01*
X35769785Y4457256D01*
X35766287Y4456195D01*
X35603698Y4369288D01*
X35535295Y4355046D01*
X35486790Y4369288D01*
X35324200Y4456195D01*
X35324199Y4456196D01*
X35324198Y4456196D01*
X35126178Y4516264D01*
X35126176Y4516265D01*
X35126178Y4516265D01*
X35056721Y4523105D01*
X35054384Y4523336D01*
X34989598Y4549496D01*
X34949239Y4606530D01*
X34946122Y4676330D01*
X34955447Y4701824D01*
X34984511Y4760425D01*
X35029157Y4939951D01*
X35031974Y4981492D01*
X35031974Y6929400D01*
X35029157Y6970941D01*
X35028834Y6972238D01*
X35012560Y7037680D01*
X35005636Y7065522D01*
X35005636Y7125372D01*
X35005959Y7126668D01*
X35029157Y7219951D01*
X35031974Y7261492D01*
X35031974Y8275378D01*
X36347314Y8275378D01*
X36347314Y7577533D01*
X36997314Y7577533D01*
X37497314Y7577533D01*
X38147314Y7577533D01*
X38147314Y8275361D01*
X38147313Y8275378D01*
X38140912Y8334906D01*
X38140910Y8334913D01*
X38090668Y8469620D01*
X38090664Y8469627D01*
X38004504Y8584721D01*
X38004501Y8584724D01*
X37889407Y8670884D01*
X37889400Y8670888D01*
X37754693Y8721130D01*
X37754686Y8721132D01*
X37695158Y8727533D01*
X37497314Y8727533D01*
X37497314Y7577533D01*
X36997314Y7577533D01*
X36997314Y8727533D01*
X36799469Y8727533D01*
X36739941Y8721132D01*
X36739934Y8721130D01*
X36605227Y8670888D01*
X36605220Y8670884D01*
X36490126Y8584724D01*
X36490123Y8584721D01*
X36403963Y8469627D01*
X36403959Y8469620D01*
X36353717Y8334913D01*
X36353715Y8334906D01*
X36347314Y8275378D01*
X35031974Y8275378D01*
X35031974Y8309400D01*
X35029157Y8350941D01*
X35028834Y8352238D01*
X34999234Y8471263D01*
X34984511Y8530467D01*
X34920667Y8659198D01*
X34904610Y8691574D01*
X34891698Y8746668D01*
X34891698Y10144740D01*
X34909734Y10206448D01*
X34909053Y10206785D01*
X34910952Y10210616D01*
X34911218Y10211523D01*
X34912034Y10212802D01*
X34912040Y10212809D01*
X34994235Y10378541D01*
X35038881Y10558067D01*
X35041698Y10599608D01*
X35041698Y12177440D01*
X35061383Y12244478D01*
X35114187Y12290233D01*
X35165698Y12301439D01*
X35901023Y12301439D01*
X35968062Y12281754D01*
X36013817Y12228950D01*
X36025023Y12177440D01*
X36025023Y10597985D01*
X36025783Y10586775D01*
X36027840Y10556440D01*
X36066770Y10399903D01*
X36072486Y10376918D01*
X36072486Y10376917D01*
X36072487Y10376916D01*
X36154679Y10211189D01*
X36154680Y10211188D01*
X36154681Y10211186D01*
X36180515Y10179047D01*
X36270582Y10066999D01*
X36301027Y10042527D01*
X36414770Y9951097D01*
X36580502Y9868902D01*
X36760024Y9824257D01*
X36760025Y9824257D01*
X36760028Y9824256D01*
X36801569Y9821439D01*
X36801571Y9821439D01*
X37749475Y9821439D01*
X37749477Y9821439D01*
X37791018Y9824256D01*
X37970544Y9868902D01*
X38136276Y9951097D01*
X38280463Y10066999D01*
X38396365Y10211186D01*
X38478560Y10376918D01*
X38519909Y10543185D01*
X38524524Y10561743D01*
X38526629Y10561220D01*
X38536957Y10583102D01*
X38550603Y10613796D01*
X38551960Y10614891D01*
X38552443Y10615913D01*
X38577042Y10637176D01*
X38582412Y10640705D01*
X38583121Y10640998D01*
X38597900Y10650873D01*
X38755178Y10755962D01*
X38901500Y10902284D01*
X38901501Y10902286D01*
X38908567Y10909352D01*
X38908569Y10909356D01*
X39258984Y11259770D01*
X39320306Y11293254D01*
X39389998Y11288270D01*
X39445931Y11246398D01*
X39470348Y11180934D01*
X39470664Y11172088D01*
X39470664Y10588747D01*
X39470937Y10584726D01*
X39473481Y10547202D01*
X39518127Y10367680D01*
X39518128Y10367678D01*
X39600319Y10201953D01*
X39601144Y10200662D01*
X39601409Y10199755D01*
X39603309Y10195924D01*
X39602627Y10195587D01*
X39620664Y10133879D01*
X39620664Y8828728D01*
X39600979Y8761689D01*
X39593312Y8751041D01*
X39539695Y8684339D01*
X39457505Y8518615D01*
X39457504Y8518613D01*
X39412858Y8339091D01*
X39411517Y8319312D01*
X39410112Y8298583D01*
X39410041Y8297543D01*
X39410041Y7249640D01*
X39412858Y7208092D01*
X39436378Y7113516D01*
X39436378Y7053666D01*
X39412858Y6959091D01*
X39410041Y6917543D01*
X39410041Y4969640D01*
X39412858Y4928092D01*
X39457504Y4748570D01*
X39457505Y4748568D01*
X39539696Y4582843D01*
X39540521Y4581552D01*
X39540786Y4580645D01*
X39542686Y4576814D01*
X39542004Y4576477D01*
X39560041Y4514769D01*
X39560041Y4055662D01*
X39545399Y3997208D01*
X39499769Y3911842D01*
X39439699Y3713818D01*
X39428909Y3604258D01*
X39424500Y3559493D01*
X39424500Y2906277D01*
X39428704Y2863595D01*
X39439699Y2751953D01*
X39452647Y2709269D01*
X39499768Y2553931D01*
X39597315Y2371435D01*
X39617802Y2346471D01*
X39728589Y2211475D01*
X39811200Y2143679D01*
X39888550Y2080200D01*
X40071046Y1982653D01*
X40269066Y1922585D01*
X40269065Y1922585D01*
X40286123Y1920905D01*
X40423392Y1907385D01*
X40423395Y1907385D01*
X40926605Y1907385D01*
X40926608Y1907385D01*
X41080934Y1922585D01*
X41278954Y1982653D01*
X41461450Y2080200D01*
X41621410Y2211475D01*
X41681036Y2284131D01*
X41738778Y2323463D01*
X41808623Y2325334D01*
X41828328Y2316976D01*
X41828765Y2317944D01*
X41835606Y2314865D01*
X41997894Y2264295D01*
X41997893Y2264295D01*
X42068408Y2257887D01*
X42068426Y2257886D01*
X42575000Y2257886D01*
X42581581Y2257886D01*
X42652102Y2264294D01*
X42652107Y2264295D01*
X42814396Y2314867D01*
X42959877Y2402813D01*
X43080072Y2523008D01*
X43168019Y2668490D01*
X43218590Y2830779D01*
X43225000Y2901313D01*
X43225000Y2982885D01*
X42575000Y2982885D01*
X42575000Y2257886D01*
X42068426Y2257886D01*
X42074999Y2257887D01*
X42075000Y2257887D01*
X42075000Y4207885D01*
X42074999Y4207886D01*
X42068436Y4207885D01*
X42068417Y4207884D01*
X41997897Y4201477D01*
X41921931Y4177805D01*
X41894523Y4177354D01*
X41867394Y4173453D01*
X41860093Y4176788D01*
X41852071Y4176655D01*
X41828774Y4191090D01*
X41803838Y4202478D01*
X41799499Y4209230D01*
X41792678Y4213456D01*
X41780881Y4238200D01*
X41766064Y4261256D01*
X41764412Y4272744D01*
X41762610Y4276524D01*
X41761041Y4296191D01*
X41761041Y4514769D01*
X41761131Y4515076D01*
X41779077Y4576477D01*
X41778396Y4576814D01*
X41780295Y4580645D01*
X41780561Y4581552D01*
X41781377Y4582831D01*
X41781383Y4582838D01*
X41863578Y4748570D01*
X41908224Y4928096D01*
X41911041Y4969637D01*
X41911041Y6917545D01*
X41908224Y6959086D01*
X41904673Y6973363D01*
X41888679Y7037679D01*
X41884703Y7053667D01*
X41884703Y7113517D01*
X41887124Y7123249D01*
X41908224Y7208096D01*
X41911041Y7249637D01*
X41911041Y8297545D01*
X41908224Y8339086D01*
X41906885Y8344469D01*
X41899518Y8374091D01*
X41863578Y8518612D01*
X41834576Y8577090D01*
X41821664Y8632185D01*
X41821664Y10133879D01*
X41839700Y10195587D01*
X41839019Y10195924D01*
X41840918Y10199755D01*
X41841184Y10200662D01*
X41842000Y10201941D01*
X41842006Y10201948D01*
X41924201Y10367680D01*
X41968847Y10547206D01*
X41971664Y10588747D01*
X41971664Y12536655D01*
X41968847Y12578196D01*
X41968627Y12579079D01*
X41945326Y12672775D01*
X41945326Y12732627D01*
X41945545Y12733505D01*
X41968847Y12827206D01*
X41971664Y12868747D01*
X41971664Y13816712D01*
X41991349Y13883751D01*
X42044153Y13929506D01*
X42095664Y13940712D01*
X42787943Y13940712D01*
X42854982Y13921027D01*
X42900737Y13868223D01*
X42911943Y13816712D01*
X42911943Y12852210D01*
X42914760Y12810662D01*
X42938280Y12716086D01*
X42938280Y12656236D01*
X42914760Y12561661D01*
X42911943Y12520113D01*
X42911943Y10572210D01*
X42914760Y10530662D01*
X42959406Y10351140D01*
X42959407Y10351138D01*
X43041598Y10185413D01*
X43042423Y10184122D01*
X43042688Y10183215D01*
X43044588Y10179384D01*
X43043906Y10179047D01*
X43061943Y10117339D01*
X43061943Y8762145D01*
X43042258Y8695106D01*
X43034592Y8684460D01*
X43025703Y8673402D01*
X43025702Y8673401D01*
X42943511Y8507675D01*
X42943510Y8507673D01*
X42898864Y8328151D01*
X42896047Y8286603D01*
X42896047Y7238700D01*
X42898864Y7197152D01*
X42922384Y7102576D01*
X42922384Y7042726D01*
X42898864Y6948151D01*
X42896047Y6906603D01*
X42896047Y4958700D01*
X42898864Y4917152D01*
X42943510Y4737630D01*
X42943511Y4737628D01*
X43025703Y4571900D01*
X43044442Y4548588D01*
X43068693Y4518419D01*
X43077932Y4496037D01*
X43091024Y4475666D01*
X43093526Y4458261D01*
X43095353Y4453836D01*
X43096047Y4440731D01*
X43096047Y4200498D01*
X43076362Y4133459D01*
X43023558Y4087704D01*
X42954400Y4077760D01*
X42907897Y4094381D01*
X42814395Y4150905D01*
X42814396Y4150905D01*
X42652105Y4201476D01*
X42652106Y4201476D01*
X42581572Y4207885D01*
X42575000Y4207885D01*
X42575000Y3482885D01*
X43260144Y3482885D01*
X43289580Y3474242D01*
X43319570Y3467718D01*
X43324586Y3463963D01*
X43327183Y3463200D01*
X43347825Y3446567D01*
X43476892Y3317500D01*
X43476895Y3317498D01*
X43481234Y3313159D01*
X43751918Y3042475D01*
X43785403Y2981152D01*
X43788237Y2954795D01*
X43788237Y2914679D01*
X43790249Y2894255D01*
X43803436Y2760355D01*
X43829354Y2674914D01*
X43863505Y2562333D01*
X43961052Y2379837D01*
X43984388Y2351402D01*
X44092326Y2219877D01*
X44185175Y2143679D01*
X44252287Y2088602D01*
X44434783Y1991055D01*
X44632803Y1930987D01*
X44632802Y1930987D01*
X44671384Y1927187D01*
X44787129Y1915787D01*
X44787132Y1915787D01*
X45290342Y1915787D01*
X45290345Y1915787D01*
X45444671Y1930987D01*
X45642691Y1991055D01*
X45805286Y2077965D01*
X45873686Y2092206D01*
X45922186Y2077966D01*
X46084783Y1991055D01*
X46282803Y1930987D01*
X46282802Y1930987D01*
X46321384Y1927187D01*
X46437129Y1915787D01*
X46437132Y1915787D01*
X46940342Y1915787D01*
X46940345Y1915787D01*
X47094671Y1930987D01*
X47292691Y1991055D01*
X47475187Y2088602D01*
X47635147Y2219877D01*
X47766422Y2379837D01*
X47863969Y2562333D01*
X47924037Y2760353D01*
X47939237Y2914679D01*
X47939237Y2954795D01*
X47958922Y3021834D01*
X47975552Y3042472D01*
X48248401Y3315321D01*
X48248405Y3315323D01*
X48394727Y3461645D01*
X48509691Y3633702D01*
X48588880Y3824880D01*
X48629250Y4027835D01*
X48629250Y4419283D01*
X48648935Y4486322D01*
X48656599Y4496966D01*
X48699592Y4550450D01*
X48781787Y4716182D01*
X48826433Y4895708D01*
X48829250Y4937249D01*
X48829250Y5985157D01*
X48826433Y6026698D01*
X48825352Y6031043D01*
X48804317Y6115629D01*
X48781787Y6206224D01*
X48699592Y6371956D01*
X48583690Y6516143D01*
X48557894Y6536879D01*
X48525061Y6563272D01*
X48485143Y6620616D01*
X48478750Y6659918D01*
X48478750Y7041203D01*
X46678750Y7041203D01*
X46678750Y6659918D01*
X46659065Y6592879D01*
X46632439Y6563272D01*
X46573814Y6516147D01*
X46573811Y6516145D01*
X46457906Y6371954D01*
X46375714Y6206227D01*
X46375713Y6206225D01*
X46331067Y6026703D01*
X46330713Y6021485D01*
X46328250Y5985157D01*
X46328250Y4937249D01*
X46328604Y4932034D01*
X46331067Y4895704D01*
X46360487Y4777409D01*
X46375713Y4716182D01*
X46375714Y4716180D01*
X46375715Y4716176D01*
X46375740Y4716108D01*
X46375742Y4716064D01*
X46377336Y4709658D01*
X46376188Y4709373D01*
X46380379Y4646392D01*
X46346590Y4585236D01*
X46288474Y4553876D01*
X46288632Y4553355D01*
X46286067Y4552578D01*
X46285102Y4552056D01*
X46283548Y4551736D01*
X46282811Y4551590D01*
X46125905Y4503993D01*
X46101105Y4496470D01*
X46084780Y4491518D01*
X45922191Y4404611D01*
X45853788Y4390369D01*
X45805283Y4404611D01*
X45642693Y4491518D01*
X45642692Y4491519D01*
X45642691Y4491519D01*
X45444671Y4551587D01*
X45444669Y4551588D01*
X45444667Y4551588D01*
X45438695Y4552776D01*
X45438925Y4553935D01*
X45379973Y4577747D01*
X45339620Y4634785D01*
X45336510Y4704585D01*
X45345834Y4730071D01*
X45349584Y4737630D01*
X45394230Y4917156D01*
X45397047Y4958697D01*
X45397047Y6906605D01*
X45394230Y6948146D01*
X45391937Y6957365D01*
X45377480Y7015500D01*
X45370709Y7042727D01*
X45370709Y7102577D01*
X45372574Y7110074D01*
X45394230Y7197156D01*
X45397047Y7238697D01*
X45397047Y8239048D01*
X46678750Y8239048D01*
X46678750Y7541203D01*
X47328750Y7541203D01*
X47828750Y7541203D01*
X48478750Y7541203D01*
X48478750Y8239031D01*
X48478749Y8239048D01*
X48472348Y8298576D01*
X48472346Y8298583D01*
X48422104Y8433290D01*
X48422100Y8433297D01*
X48335940Y8548391D01*
X48335937Y8548394D01*
X48220843Y8634554D01*
X48220836Y8634558D01*
X48086129Y8684800D01*
X48086122Y8684802D01*
X48026594Y8691203D01*
X47828750Y8691203D01*
X47828750Y7541203D01*
X47328750Y7541203D01*
X47328750Y8691203D01*
X47130905Y8691203D01*
X47071377Y8684802D01*
X47071370Y8684800D01*
X46936663Y8634558D01*
X46936656Y8634554D01*
X46821562Y8548394D01*
X46821559Y8548391D01*
X46735399Y8433297D01*
X46735395Y8433290D01*
X46685153Y8298583D01*
X46685151Y8298576D01*
X46678750Y8239048D01*
X45397047Y8239048D01*
X45397047Y8286605D01*
X45394230Y8328146D01*
X45391937Y8337365D01*
X45377480Y8395500D01*
X45349584Y8507672D01*
X45275855Y8656334D01*
X45262943Y8711428D01*
X45262943Y10117339D01*
X45280979Y10179047D01*
X45280298Y10179384D01*
X45282197Y10183215D01*
X45282463Y10184122D01*
X45283279Y10185401D01*
X45283285Y10185408D01*
X45365480Y10351140D01*
X45410126Y10530666D01*
X45412943Y10572207D01*
X45412943Y12152967D01*
X45432628Y12220006D01*
X45485432Y12265761D01*
X45536943Y12276967D01*
X46189115Y12276967D01*
X46256154Y12257282D01*
X46301909Y12204478D01*
X46313115Y12152967D01*
X46313115Y10573513D01*
X46314273Y10556441D01*
X46315932Y10531968D01*
X46360578Y10352446D01*
X46360579Y10352444D01*
X46442771Y10186717D01*
X46442772Y10186716D01*
X46442773Y10186714D01*
X46455653Y10170691D01*
X46558674Y10042527D01*
X46640788Y9976522D01*
X46702862Y9926625D01*
X46868594Y9844430D01*
X47048116Y9799785D01*
X47048117Y9799785D01*
X47048120Y9799784D01*
X47089661Y9796967D01*
X47089663Y9796967D01*
X48037567Y9796967D01*
X48037569Y9796967D01*
X48079110Y9799784D01*
X48258636Y9844430D01*
X48424368Y9926625D01*
X48568555Y10042527D01*
X48684457Y10186714D01*
X48766652Y10352446D01*
X48811298Y10531972D01*
X48814115Y10573513D01*
X48814115Y11260974D01*
X48833800Y11328013D01*
X48850434Y11348655D01*
X49524511Y12022732D01*
X49585834Y12056217D01*
X49655526Y12051233D01*
X49711459Y12009361D01*
X49735876Y11943897D01*
X49736192Y11935051D01*
X49736192Y10586772D01*
X49737180Y10572207D01*
X49739009Y10545227D01*
X49783655Y10365705D01*
X49783656Y10365703D01*
X49865847Y10199978D01*
X49866672Y10198687D01*
X49866937Y10197780D01*
X49868837Y10193949D01*
X49868155Y10193612D01*
X49886192Y10131904D01*
X49886192Y8738810D01*
X49866673Y8672029D01*
X49864325Y8668357D01*
X49782133Y8502629D01*
X49782132Y8502627D01*
X49737486Y8323105D01*
X49737229Y8319312D01*
X49734669Y8281559D01*
X49734669Y7233651D01*
X49735434Y7222373D01*
X49737486Y7192106D01*
X49761006Y7097530D01*
X49761006Y7037680D01*
X49737486Y6943105D01*
X49736721Y6931822D01*
X49734669Y6901559D01*
X49734669Y4953651D01*
X49735434Y4942373D01*
X49737486Y4912106D01*
X49782132Y4732584D01*
X49782133Y4732582D01*
X49864324Y4566857D01*
X49865149Y4565566D01*
X49865414Y4564659D01*
X49867314Y4560828D01*
X49866632Y4560491D01*
X49884669Y4498783D01*
X49884669Y3311142D01*
X49911766Y3140054D01*
X49918431Y3119542D01*
X49924500Y3081224D01*
X49924500Y2881313D01*
X49924693Y2879356D01*
X49939699Y2726989D01*
X49950858Y2690203D01*
X49999768Y2528967D01*
X50097315Y2346471D01*
X50117921Y2321362D01*
X50228589Y2186511D01*
X50306377Y2122673D01*
X50388550Y2055236D01*
X50571046Y1957689D01*
X50769066Y1897621D01*
X50769065Y1897621D01*
X50788935Y1895664D01*
X50923392Y1882421D01*
X50923395Y1882421D01*
X51426605Y1882421D01*
X51426608Y1882421D01*
X51580934Y1897621D01*
X51778954Y1957689D01*
X51961450Y2055236D01*
X52121410Y2186511D01*
X52181036Y2259167D01*
X52238778Y2298499D01*
X52308623Y2300370D01*
X52328328Y2292012D01*
X52328765Y2292980D01*
X52335606Y2289901D01*
X52497894Y2239331D01*
X52497893Y2239331D01*
X52568408Y2232923D01*
X52568426Y2232922D01*
X53075000Y2232922D01*
X53081581Y2232922D01*
X53152102Y2239330D01*
X53152107Y2239331D01*
X53314396Y2289903D01*
X53459877Y2377849D01*
X53580072Y2498044D01*
X53668019Y2643526D01*
X53718590Y2805815D01*
X53725000Y2876349D01*
X53725000Y2957921D01*
X53075000Y2957921D01*
X53075000Y2232922D01*
X52568426Y2232922D01*
X52574999Y2232923D01*
X52575000Y2232923D01*
X52575000Y4182921D01*
X52574999Y4182922D01*
X52568436Y4182921D01*
X52568417Y4182920D01*
X52497897Y4176513D01*
X52497892Y4176512D01*
X52335601Y4125940D01*
X52328762Y4122861D01*
X52327513Y4125636D01*
X52307564Y4120389D01*
X52274175Y4111373D01*
X52273774Y4111501D01*
X52273367Y4111393D01*
X52240509Y4122064D01*
X52207582Y4132519D01*
X52207176Y4132888D01*
X52206914Y4132973D01*
X52181420Y4156210D01*
X52181268Y4156393D01*
X52121410Y4229331D01*
X52119531Y4230874D01*
X52114202Y4237302D01*
X52102580Y4264298D01*
X52088499Y4290093D01*
X52087509Y4299305D01*
X52086574Y4301477D01*
X52087000Y4304043D01*
X52085669Y4316435D01*
X52085669Y4498783D01*
X52103705Y4560491D01*
X52103024Y4560828D01*
X52104923Y4564659D01*
X52105189Y4565566D01*
X52106005Y4566845D01*
X52106011Y4566852D01*
X52188206Y4732584D01*
X52232852Y4912110D01*
X52235669Y4953651D01*
X52235669Y6901559D01*
X52232852Y6943100D01*
X52229304Y6957365D01*
X52209331Y7037679D01*
X52209331Y7097531D01*
X52212451Y7110074D01*
X52232852Y7192110D01*
X52235669Y7233651D01*
X52235669Y8281559D01*
X52232852Y8323100D01*
X52229507Y8336549D01*
X52200292Y8454026D01*
X52188206Y8502626D01*
X52107221Y8665919D01*
X52103024Y8674381D01*
X52104425Y8675077D01*
X52087192Y8734044D01*
X52087192Y10131904D01*
X52105228Y10193612D01*
X52104547Y10193949D01*
X52106446Y10197780D01*
X52106712Y10198687D01*
X52107528Y10199966D01*
X52107534Y10199973D01*
X52189729Y10365705D01*
X52234375Y10545231D01*
X52237192Y10586772D01*
X52237192Y12534680D01*
X52234375Y12576221D01*
X52233665Y12579074D01*
X52210854Y12670800D01*
X52210854Y12730652D01*
X52211917Y12734924D01*
X52234375Y12825231D01*
X52237192Y12866772D01*
X52237192Y13816712D01*
X52256877Y13883751D01*
X52309681Y13929506D01*
X52361192Y13940712D01*
X53059767Y13940712D01*
X53126806Y13921027D01*
X53172561Y13868223D01*
X53183767Y13816712D01*
X53183767Y12864726D01*
X53184566Y12852940D01*
X53186584Y12823181D01*
X53210104Y12728605D01*
X53210104Y12668755D01*
X53186584Y12574180D01*
X53185735Y12561661D01*
X53183767Y12532634D01*
X53183767Y10584726D01*
X53184527Y10573516D01*
X53186584Y10543181D01*
X53231230Y10363659D01*
X53231231Y10363657D01*
X53313422Y10197932D01*
X53314247Y10196641D01*
X53314512Y10195734D01*
X53316412Y10191903D01*
X53315730Y10191566D01*
X53333767Y10129858D01*
X53333767Y8809770D01*
X53314082Y8742731D01*
X53306417Y8732086D01*
X53299920Y8724005D01*
X53299920Y8724004D01*
X53217726Y8558273D01*
X53217725Y8558271D01*
X53173079Y8378749D01*
X53170262Y8337201D01*
X53170262Y7289298D01*
X53173079Y7247750D01*
X53196599Y7153174D01*
X53196599Y7093324D01*
X53173079Y6998749D01*
X53170262Y6957201D01*
X53170262Y5009298D01*
X53173079Y4967750D01*
X53217725Y4788228D01*
X53217726Y4788226D01*
X53299918Y4622498D01*
X53314318Y4604584D01*
X53342908Y4569017D01*
X53352147Y4546635D01*
X53365239Y4526264D01*
X53367741Y4508859D01*
X53369568Y4504434D01*
X53370262Y4491329D01*
X53370262Y4277053D01*
X53350577Y4210014D01*
X53297773Y4164259D01*
X53228615Y4154315D01*
X53209373Y4158667D01*
X53152103Y4176512D01*
X53081572Y4182921D01*
X53075000Y4182921D01*
X53075000Y3457921D01*
X53606958Y3457921D01*
X53636394Y3449278D01*
X53666384Y3442754D01*
X53671400Y3438999D01*
X53673997Y3438236D01*
X53694633Y3421608D01*
X53751107Y3365134D01*
X53751109Y3365133D01*
X53758179Y3358063D01*
X54029058Y3087184D01*
X54062543Y3025861D01*
X54065377Y2999503D01*
X54065377Y2959388D01*
X54069780Y2914683D01*
X54080576Y2805064D01*
X54104854Y2725030D01*
X54140645Y2607042D01*
X54238192Y2424546D01*
X54267520Y2388810D01*
X54369466Y2264586D01*
X54452165Y2196718D01*
X54529427Y2133311D01*
X54711923Y2035764D01*
X54909943Y1975696D01*
X54909942Y1975696D01*
X54948524Y1971896D01*
X55064269Y1960496D01*
X55064272Y1960496D01*
X55567482Y1960496D01*
X55567485Y1960496D01*
X55721811Y1975696D01*
X55919831Y2035764D01*
X56082426Y2122674D01*
X56150826Y2136915D01*
X56199326Y2122675D01*
X56361923Y2035764D01*
X56559943Y1975696D01*
X56559942Y1975696D01*
X56598524Y1971896D01*
X56714269Y1960496D01*
X56714272Y1960496D01*
X57217482Y1960496D01*
X57217485Y1960496D01*
X57371811Y1975696D01*
X57569831Y2035764D01*
X57752327Y2133311D01*
X57912287Y2264586D01*
X58043562Y2424546D01*
X58141109Y2607042D01*
X58201177Y2805062D01*
X58216377Y2959388D01*
X58216377Y2999503D01*
X58236062Y3066542D01*
X58252696Y3087184D01*
X58460604Y3295091D01*
X58692925Y3527412D01*
X58807889Y3699469D01*
X58887078Y3890647D01*
X58927448Y4093602D01*
X58927448Y4300532D01*
X58927448Y4503734D01*
X58947133Y4570773D01*
X58954797Y4581417D01*
X58997790Y4634901D01*
X59079985Y4800633D01*
X59124631Y4980159D01*
X59127448Y5021700D01*
X59127448Y6069608D01*
X59124631Y6111149D01*
X59079985Y6290675D01*
X58997790Y6456407D01*
X58881888Y6600594D01*
X58871234Y6609158D01*
X58823259Y6647723D01*
X58783341Y6705067D01*
X58776948Y6744369D01*
X58776948Y7125654D01*
X56976948Y7125654D01*
X56976948Y6744369D01*
X56957263Y6677330D01*
X56930637Y6647723D01*
X56872012Y6600598D01*
X56872009Y6600596D01*
X56756104Y6456405D01*
X56673912Y6290678D01*
X56673911Y6290676D01*
X56629265Y6111154D01*
X56626448Y6069606D01*
X56626448Y5021703D01*
X56629265Y4980155D01*
X56673911Y4800633D01*
X56673912Y4800631D01*
X56685429Y4777409D01*
X56697581Y4708604D01*
X56670604Y4644152D01*
X56613065Y4604517D01*
X56586498Y4598912D01*
X56559943Y4596297D01*
X56361920Y4536227D01*
X56199331Y4449320D01*
X56130928Y4435078D01*
X56082423Y4449320D01*
X55919833Y4536227D01*
X55919832Y4536228D01*
X55919831Y4536228D01*
X55721811Y4596296D01*
X55721809Y4596297D01*
X55721807Y4596297D01*
X55721805Y4596298D01*
X55716329Y4596837D01*
X55651544Y4623002D01*
X55611188Y4680038D01*
X55608076Y4749839D01*
X55617400Y4775327D01*
X55623799Y4788228D01*
X55668445Y4967754D01*
X55671262Y5009295D01*
X55671262Y6957203D01*
X55668445Y6998744D01*
X55663800Y7017420D01*
X55655215Y7051944D01*
X55644924Y7093325D01*
X55644924Y7153175D01*
X55649568Y7171846D01*
X55668445Y7247754D01*
X55671262Y7289295D01*
X55671262Y8323499D01*
X56976948Y8323499D01*
X56976948Y7625654D01*
X57626948Y7625654D01*
X58126948Y7625654D01*
X58776948Y7625654D01*
X58776948Y8323482D01*
X58776947Y8323499D01*
X58770546Y8383027D01*
X58770544Y8383034D01*
X58720302Y8517741D01*
X58720298Y8517748D01*
X58634138Y8632842D01*
X58634135Y8632845D01*
X58519041Y8719005D01*
X58519034Y8719009D01*
X58384327Y8769251D01*
X58384320Y8769253D01*
X58324792Y8775654D01*
X58126948Y8775654D01*
X58126948Y7625654D01*
X57626948Y7625654D01*
X57626948Y8775654D01*
X57429103Y8775654D01*
X57369575Y8769253D01*
X57369568Y8769251D01*
X57234861Y8719009D01*
X57234854Y8719005D01*
X57119760Y8632845D01*
X57119757Y8632842D01*
X57033597Y8517748D01*
X57033593Y8517741D01*
X56983351Y8383034D01*
X56983349Y8383027D01*
X56976948Y8323499D01*
X55671262Y8323499D01*
X55671262Y8337203D01*
X55668445Y8378744D01*
X55663800Y8397420D01*
X55649723Y8454026D01*
X55623799Y8558270D01*
X55552890Y8701245D01*
X55547679Y8711753D01*
X55534767Y8766847D01*
X55534767Y10129858D01*
X55552803Y10191566D01*
X55552122Y10191903D01*
X55554021Y10195734D01*
X55554287Y10196641D01*
X55555103Y10197920D01*
X55555109Y10197927D01*
X55637304Y10363659D01*
X55681950Y10543185D01*
X55684767Y10584726D01*
X55684767Y12177999D01*
X55704452Y12245038D01*
X55757256Y12290793D01*
X55808767Y12301999D01*
X56516288Y12301999D01*
X56583327Y12282314D01*
X56629082Y12229510D01*
X56640288Y12177999D01*
X56640288Y10598545D01*
X56641086Y10586775D01*
X56643105Y10557000D01*
X56687751Y10377478D01*
X56687752Y10377476D01*
X56769944Y10211749D01*
X56769945Y10211748D01*
X56769946Y10211746D01*
X56797458Y10177520D01*
X56885847Y10067559D01*
X56967961Y10001554D01*
X57030035Y9951657D01*
X57195767Y9869462D01*
X57375289Y9824817D01*
X57375290Y9824817D01*
X57375293Y9824816D01*
X57416834Y9821999D01*
X57416836Y9821999D01*
X58364740Y9821999D01*
X58364742Y9821999D01*
X58406283Y9824816D01*
X58585809Y9869462D01*
X58751541Y9951657D01*
X58895728Y10067559D01*
X59011630Y10211746D01*
X59093825Y10377478D01*
X59138471Y10557004D01*
X59141288Y10598545D01*
X59141288Y11090711D01*
X59160973Y11157750D01*
X59177607Y11178392D01*
X59846276Y11847061D01*
X59907599Y11880546D01*
X59977291Y11875562D01*
X60033224Y11833690D01*
X60057641Y11768226D01*
X60057957Y11759380D01*
X60057957Y10589625D01*
X60058649Y10579425D01*
X60060774Y10548080D01*
X60105420Y10368558D01*
X60105421Y10368556D01*
X60187612Y10202831D01*
X60188437Y10201540D01*
X60188702Y10200633D01*
X60190602Y10196802D01*
X60189920Y10196465D01*
X60207957Y10134757D01*
X60207957Y8827383D01*
X60188272Y8760344D01*
X60180606Y8749698D01*
X60175667Y8743555D01*
X60175666Y8743553D01*
X60093475Y8577827D01*
X60093474Y8577825D01*
X60048828Y8398303D01*
X60046011Y8356755D01*
X60046011Y7308852D01*
X60048828Y7267304D01*
X60072348Y7172728D01*
X60072348Y7112878D01*
X60048828Y7018303D01*
X60046011Y6976755D01*
X60046011Y5028852D01*
X60048828Y4987304D01*
X60093474Y4807782D01*
X60093475Y4807780D01*
X60175666Y4642055D01*
X60176491Y4640764D01*
X60176756Y4639857D01*
X60178656Y4636026D01*
X60177974Y4635689D01*
X60196011Y4573981D01*
X60196011Y3768032D01*
X60196011Y3594810D01*
X60197496Y3585436D01*
X60214974Y3475079D01*
X60223109Y3423720D01*
X60276310Y3259984D01*
X60276639Y3258974D01*
X60355279Y3104633D01*
X60401040Y3041649D01*
X60423299Y2979265D01*
X60424202Y2979353D01*
X60424500Y2976328D01*
X60424500Y2976324D01*
X60426621Y2954794D01*
X60439699Y2822000D01*
X60459624Y2756317D01*
X60499768Y2623978D01*
X60597315Y2441482D01*
X60611214Y2424546D01*
X60728589Y2281522D01*
X60801590Y2221613D01*
X60888550Y2150247D01*
X61071046Y2052700D01*
X61269066Y1992632D01*
X61269065Y1992632D01*
X61285077Y1991055D01*
X61423392Y1977432D01*
X61423395Y1977432D01*
X61926605Y1977432D01*
X61926608Y1977432D01*
X62080934Y1992632D01*
X62278954Y2052700D01*
X62461450Y2150247D01*
X62621410Y2281522D01*
X62681036Y2354178D01*
X62738778Y2393510D01*
X62808623Y2395381D01*
X62828328Y2387023D01*
X62828765Y2387991D01*
X62835606Y2384912D01*
X62997894Y2334342D01*
X62997893Y2334342D01*
X63068408Y2327934D01*
X63068426Y2327933D01*
X63074999Y2327934D01*
X63075000Y2327934D01*
X63075000Y4277932D01*
X63074999Y4277933D01*
X63068436Y4277932D01*
X63068417Y4277931D01*
X62997897Y4271524D01*
X62997892Y4271523D01*
X62835601Y4220951D01*
X62828762Y4217872D01*
X62827509Y4220656D01*
X62773424Y4206402D01*
X62706961Y4227952D01*
X62681034Y4251689D01*
X62675311Y4258663D01*
X62621410Y4324342D01*
X62621408Y4324344D01*
X62621407Y4324345D01*
X62461449Y4455618D01*
X62456390Y4458998D01*
X62457230Y4460256D01*
X62452555Y4464849D01*
X62439808Y4470670D01*
X62428125Y4488850D01*
X62412710Y4503993D01*
X62408849Y4518843D01*
X62402034Y4529448D01*
X62397011Y4564383D01*
X62397011Y4573981D01*
X62415047Y4635689D01*
X62414366Y4636026D01*
X62416265Y4639857D01*
X62416531Y4640764D01*
X62417347Y4642043D01*
X62417353Y4642050D01*
X62499548Y4807782D01*
X62544194Y4987308D01*
X62547011Y5028849D01*
X62547011Y6976757D01*
X62544194Y7018298D01*
X62535192Y7054494D01*
X62525008Y7095446D01*
X62520673Y7112879D01*
X62520673Y7172729D01*
X62529040Y7206371D01*
X62544194Y7267308D01*
X62547011Y7308849D01*
X62547011Y8356757D01*
X62544194Y8398298D01*
X62499548Y8577824D01*
X62421867Y8734453D01*
X62408957Y8789546D01*
X62408957Y10134757D01*
X62426993Y10196465D01*
X62426312Y10196802D01*
X62428211Y10200633D01*
X62428477Y10201540D01*
X62429293Y10202819D01*
X62429299Y10202826D01*
X62511494Y10368558D01*
X62556140Y10548084D01*
X62558957Y10589625D01*
X62558957Y12537533D01*
X62556140Y12579074D01*
X62553657Y12589057D01*
X62536951Y12656236D01*
X62532619Y12673655D01*
X62532619Y12733505D01*
X62535102Y12743487D01*
X62556140Y12828084D01*
X62558957Y12869625D01*
X62558957Y13816712D01*
X62578642Y13883751D01*
X62631446Y13929506D01*
X62682957Y13940712D01*
X63362086Y13940712D01*
X63429125Y13921027D01*
X63474880Y13868223D01*
X63486086Y13816712D01*
X63486086Y12877393D01*
X63488903Y12835845D01*
X63512423Y12741269D01*
X63512423Y12681419D01*
X63488903Y12586844D01*
X63488044Y12574175D01*
X63486237Y12547516D01*
X63486086Y12545296D01*
X63486086Y10597393D01*
X63488903Y10555845D01*
X63533549Y10376323D01*
X63533550Y10376321D01*
X63615741Y10210596D01*
X63616566Y10209305D01*
X63616831Y10208398D01*
X63618731Y10204567D01*
X63618049Y10204230D01*
X63636086Y10142522D01*
X63636086Y8872386D01*
X63616401Y8805347D01*
X63608734Y8794699D01*
X63579309Y8758093D01*
X63568486Y8744628D01*
X63566910Y8742668D01*
X63484720Y8576944D01*
X63484719Y8576942D01*
X63440073Y8397420D01*
X63437256Y8355876D01*
X63437256Y7307969D01*
X63440073Y7266421D01*
X63463593Y7171845D01*
X63463593Y7111995D01*
X63440073Y7017420D01*
X63437256Y6975872D01*
X63437256Y5027969D01*
X63440073Y4986421D01*
X63484719Y4806899D01*
X63484720Y4806897D01*
X63566912Y4641169D01*
X63577445Y4628066D01*
X63609902Y4587688D01*
X63619141Y4565306D01*
X63632233Y4544935D01*
X63634735Y4527530D01*
X63636562Y4523105D01*
X63637256Y4510000D01*
X63637256Y4391550D01*
X63617571Y4324511D01*
X63600937Y4303869D01*
X63575000Y4277932D01*
X63575000Y2327933D01*
X63581581Y2327933D01*
X63652102Y2334341D01*
X63652107Y2334342D01*
X63814396Y2384914D01*
X63959877Y2472860D01*
X64080072Y2593055D01*
X64159569Y2724559D01*
X64211097Y2771746D01*
X64279956Y2783585D01*
X64344285Y2756317D01*
X64383659Y2698598D01*
X64384333Y2696448D01*
X64400387Y2643526D01*
X64401818Y2638809D01*
X64426275Y2593055D01*
X64499364Y2456316D01*
X64534018Y2414089D01*
X64630638Y2296356D01*
X64700126Y2239330D01*
X64790599Y2165081D01*
X64973095Y2067534D01*
X65171115Y2007466D01*
X65171114Y2007466D01*
X65209696Y2003666D01*
X65325441Y1992266D01*
X65325444Y1992266D01*
X65828654Y1992266D01*
X65828657Y1992266D01*
X65982983Y2007466D01*
X66181003Y2067534D01*
X66343598Y2154444D01*
X66411998Y2168685D01*
X66460498Y2154445D01*
X66623095Y2067534D01*
X66821115Y2007466D01*
X66821114Y2007466D01*
X66859696Y2003666D01*
X66975441Y1992266D01*
X66975444Y1992266D01*
X67478654Y1992266D01*
X67478657Y1992266D01*
X67632983Y2007466D01*
X67831003Y2067534D01*
X68013499Y2165081D01*
X68173459Y2296356D01*
X68304734Y2456316D01*
X68402281Y2638812D01*
X68462349Y2836832D01*
X68477549Y2991158D01*
X68477549Y3031274D01*
X68497234Y3098313D01*
X68513864Y3118951D01*
X68765523Y3370610D01*
X68765527Y3370612D01*
X68911849Y3516934D01*
X69026813Y3688991D01*
X69106002Y3880169D01*
X69146372Y4083124D01*
X69146372Y4508214D01*
X69166057Y4575253D01*
X69173721Y4585897D01*
X69216714Y4639381D01*
X69298909Y4805113D01*
X69343555Y4984639D01*
X69346372Y5026180D01*
X69346372Y6074088D01*
X69343555Y6115629D01*
X69298909Y6295155D01*
X69216714Y6460887D01*
X69100812Y6605074D01*
X69090187Y6613615D01*
X69042183Y6652203D01*
X69002265Y6709547D01*
X68995872Y6748849D01*
X68995872Y7130134D01*
X67195872Y7130134D01*
X67195872Y6748849D01*
X67176187Y6681810D01*
X67149561Y6652203D01*
X67090936Y6605078D01*
X67090933Y6605076D01*
X66975028Y6460885D01*
X66892836Y6295158D01*
X66892835Y6295156D01*
X66848189Y6115634D01*
X66845372Y6074086D01*
X66845372Y5026183D01*
X66848189Y4984635D01*
X66892835Y4805113D01*
X66892836Y4805109D01*
X66894697Y4801358D01*
X66895142Y4798833D01*
X66895153Y4798805D01*
X66895148Y4798804D01*
X66906846Y4732553D01*
X66879868Y4668102D01*
X66822327Y4628468D01*
X66819605Y4627609D01*
X66635959Y4571900D01*
X66623092Y4567997D01*
X66460503Y4481090D01*
X66392100Y4466848D01*
X66343595Y4481090D01*
X66181005Y4567997D01*
X66181004Y4567998D01*
X66181003Y4567998D01*
X66087713Y4596297D01*
X65982975Y4628069D01*
X65977201Y4629217D01*
X65915292Y4661605D01*
X65880720Y4722322D01*
X65884463Y4792091D01*
X65890306Y4805920D01*
X65890793Y4806899D01*
X65935439Y4986425D01*
X65938256Y5027966D01*
X65938256Y6975874D01*
X65935439Y7017415D01*
X65935219Y7018298D01*
X65922957Y7067605D01*
X65911918Y7111996D01*
X65911918Y7171846D01*
X65912138Y7172728D01*
X65935439Y7266425D01*
X65938256Y7307966D01*
X65938256Y8327979D01*
X67195872Y8327979D01*
X67195872Y7630134D01*
X67845872Y7630134D01*
X68345872Y7630134D01*
X68995872Y7630134D01*
X68995872Y8327962D01*
X68995871Y8327979D01*
X68989470Y8387507D01*
X68989468Y8387514D01*
X68939226Y8522221D01*
X68939222Y8522228D01*
X68853062Y8637322D01*
X68853059Y8637325D01*
X68737965Y8723485D01*
X68737958Y8723489D01*
X68603251Y8773731D01*
X68603244Y8773733D01*
X68543716Y8780134D01*
X68345872Y8780134D01*
X68345872Y7630134D01*
X67845872Y7630134D01*
X67845872Y8780134D01*
X67648027Y8780134D01*
X67588499Y8773733D01*
X67588492Y8773731D01*
X67453785Y8723489D01*
X67453778Y8723485D01*
X67338684Y8637325D01*
X67338681Y8637322D01*
X67252521Y8522228D01*
X67252517Y8522221D01*
X67202275Y8387514D01*
X67202273Y8387507D01*
X67195872Y8327979D01*
X65938256Y8327979D01*
X65938256Y8355874D01*
X65935439Y8397415D01*
X65935219Y8398298D01*
X65915104Y8479183D01*
X65890793Y8576941D01*
X65849996Y8659201D01*
X65837086Y8714292D01*
X65837086Y10142522D01*
X65855122Y10204230D01*
X65854441Y10204567D01*
X65856340Y10208398D01*
X65856606Y10209305D01*
X65857422Y10210584D01*
X65857428Y10210591D01*
X65939623Y10376323D01*
X65984269Y10555849D01*
X65987086Y10597390D01*
X65987086Y12187314D01*
X66006771Y12254353D01*
X66059575Y12300108D01*
X66111086Y12311314D01*
X66784322Y12311314D01*
X66851361Y12291629D01*
X66897116Y12238825D01*
X66908322Y12187314D01*
X66908322Y10607860D01*
X66908992Y10597986D01*
X66911139Y10566315D01*
X66955785Y10386793D01*
X66955786Y10386791D01*
X67037978Y10221064D01*
X67037979Y10221063D01*
X67037980Y10221061D01*
X67061418Y10191903D01*
X67153881Y10076874D01*
X67196611Y10042527D01*
X67298069Y9960972D01*
X67463801Y9878777D01*
X67643323Y9834132D01*
X67643324Y9834132D01*
X67643327Y9834131D01*
X67684868Y9831314D01*
X67684870Y9831314D01*
X68632774Y9831314D01*
X68632776Y9831314D01*
X68674317Y9834131D01*
X68853843Y9878777D01*
X69019575Y9960972D01*
X69163762Y10076874D01*
X69279664Y10221061D01*
X69361859Y10386793D01*
X69406505Y10566319D01*
X69409322Y10607860D01*
X69409322Y11295321D01*
X69429007Y11362360D01*
X69445641Y11383002D01*
X70109687Y12047048D01*
X70171010Y12080533D01*
X70240702Y12075549D01*
X70296635Y12033677D01*
X70321052Y11968213D01*
X70321368Y11959367D01*
X70321368Y10620970D01*
X70322257Y10607863D01*
X70324185Y10579425D01*
X70368831Y10399903D01*
X70368832Y10399901D01*
X70451023Y10234176D01*
X70451848Y10232885D01*
X70452113Y10231978D01*
X70454013Y10228147D01*
X70453331Y10227810D01*
X70471368Y10166102D01*
X70471368Y8899126D01*
X70451683Y8832087D01*
X70444015Y8821439D01*
X70379157Y8740753D01*
X70379155Y8740750D01*
X70296964Y8575024D01*
X70296963Y8575022D01*
X70252317Y8395500D01*
X70249500Y8353952D01*
X70249500Y7306049D01*
X70252317Y7264501D01*
X70275837Y7169925D01*
X70275837Y7110075D01*
X70252317Y7015500D01*
X70249500Y6973952D01*
X70249500Y5026049D01*
X70252317Y4984501D01*
X70296963Y4804979D01*
X70296964Y4804977D01*
X70379156Y4639249D01*
X70392216Y4623002D01*
X70422146Y4585768D01*
X70448806Y4521185D01*
X70449500Y4508080D01*
X70449500Y3827996D01*
X70444161Y3792003D01*
X70439700Y3777298D01*
X70439699Y3777295D01*
X70427966Y3658167D01*
X70424500Y3622969D01*
X70424500Y2969753D01*
X70427824Y2936006D01*
X70439699Y2815429D01*
X70458954Y2751953D01*
X70499768Y2617407D01*
X70597315Y2434911D01*
X70605823Y2424544D01*
X70728589Y2274951D01*
X70823918Y2196718D01*
X70888550Y2143676D01*
X71071046Y2046129D01*
X71269066Y1986061D01*
X71269065Y1986061D01*
X71307647Y1982261D01*
X71423392Y1970861D01*
X71423395Y1970861D01*
X71926605Y1970861D01*
X71926608Y1970861D01*
X72080934Y1986061D01*
X72278954Y2046129D01*
X72461450Y2143676D01*
X72621410Y2274951D01*
X72681036Y2347607D01*
X72738778Y2386939D01*
X72808623Y2388810D01*
X72828328Y2380452D01*
X72828765Y2381420D01*
X72835606Y2378341D01*
X72997894Y2327771D01*
X72997893Y2327771D01*
X73068408Y2321363D01*
X73068426Y2321362D01*
X73575000Y2321362D01*
X73581581Y2321362D01*
X73652102Y2327770D01*
X73652107Y2327771D01*
X73814396Y2378343D01*
X73959877Y2466289D01*
X74080072Y2586484D01*
X74168019Y2731966D01*
X74218590Y2894255D01*
X74225000Y2964789D01*
X74225000Y3046361D01*
X73575000Y3046361D01*
X73575000Y2321362D01*
X73068426Y2321362D01*
X73074999Y2321363D01*
X73075000Y2321363D01*
X73075000Y3546361D01*
X73575000Y3546361D01*
X74224999Y3546361D01*
X74224999Y3627944D01*
X74218591Y3698464D01*
X74218590Y3698469D01*
X74168018Y3860758D01*
X74080072Y4006239D01*
X73959877Y4126434D01*
X73814395Y4214381D01*
X73814396Y4214381D01*
X73652105Y4264952D01*
X73652106Y4264952D01*
X73581572Y4271361D01*
X73575000Y4271361D01*
X73575000Y3546361D01*
X73075000Y3546361D01*
X73075000Y4271361D01*
X73074999Y4271362D01*
X73068436Y4271361D01*
X73068417Y4271360D01*
X72997897Y4264953D01*
X72997892Y4264952D01*
X72835601Y4214380D01*
X72828762Y4211301D01*
X72827509Y4214085D01*
X72810647Y4209641D01*
X72780833Y4199846D01*
X72777127Y4200808D01*
X72773424Y4199831D01*
X72743573Y4209510D01*
X72713202Y4217387D01*
X72709538Y4220546D01*
X72706961Y4221381D01*
X72685806Y4239640D01*
X72683334Y4242316D01*
X72621410Y4317771D01*
X72589227Y4344183D01*
X72583418Y4350471D01*
X72571547Y4374417D01*
X72556500Y4396508D01*
X72554593Y4408619D01*
X72552386Y4413071D01*
X72553010Y4418673D01*
X72550500Y4434614D01*
X72550500Y4508080D01*
X72570185Y4575119D01*
X72577849Y4585763D01*
X72620842Y4639247D01*
X72703037Y4804979D01*
X72747683Y4984505D01*
X72750500Y5026046D01*
X72750500Y6973954D01*
X72747683Y7015495D01*
X72747204Y7017420D01*
X72727800Y7095446D01*
X72724162Y7110076D01*
X72724162Y7169926D01*
X72724640Y7171846D01*
X72747683Y7264505D01*
X72750500Y7306046D01*
X72750500Y8353954D01*
X72747683Y8395495D01*
X72747204Y8397420D01*
X72728840Y8471263D01*
X72703037Y8575021D01*
X72685279Y8610826D01*
X72672368Y8665919D01*
X72672368Y10166102D01*
X72690404Y10227810D01*
X72689723Y10228147D01*
X72691622Y10231978D01*
X72691888Y10232885D01*
X72692704Y10234164D01*
X72692710Y10234171D01*
X72774905Y10399903D01*
X72819551Y10579429D01*
X72822368Y10620970D01*
X72822368Y12568878D01*
X72819551Y12610419D01*
X72796030Y12705000D01*
X72796030Y12764850D01*
X72810057Y12821251D01*
X72819551Y12859429D01*
X72822368Y12900970D01*
X72822368Y13281928D01*
X72842053Y13348967D01*
X72894857Y13394722D01*
X72964015Y13404666D01*
X73027571Y13375641D01*
X73034049Y13369609D01*
X74263181Y12140477D01*
X74296666Y12079154D01*
X74299500Y12052796D01*
X74299500Y11848550D01*
X74299501Y11848534D01*
X74328594Y11627548D01*
X74328595Y11627543D01*
X74328596Y11627537D01*
X74386290Y11412220D01*
X74386293Y11412210D01*
X74471593Y11206278D01*
X74471598Y11206267D01*
X74572393Y11031687D01*
X74588866Y10963787D01*
X74566014Y10897760D01*
X74549382Y10880125D01*
X74549813Y10879694D01*
X74545063Y10874945D01*
X74429156Y10730751D01*
X74346964Y10565024D01*
X74346963Y10565022D01*
X74302317Y10385500D01*
X74299500Y10343952D01*
X74299500Y8496049D01*
X74302317Y8454501D01*
X74346963Y8274979D01*
X74346964Y8274977D01*
X74429156Y8109250D01*
X74545059Y7965060D01*
X74627173Y7899055D01*
X74689247Y7849158D01*
X74854979Y7766963D01*
X75034501Y7722318D01*
X75034502Y7722318D01*
X75034505Y7722317D01*
X75076046Y7719500D01*
X75076048Y7719500D01*
X76923952Y7719500D01*
X76923954Y7719500D01*
X76965495Y7722317D01*
X77145021Y7766963D01*
X77310753Y7849158D01*
X77454940Y7965060D01*
X77570842Y8109247D01*
X77653037Y8274979D01*
X77697683Y8454505D01*
X77700500Y8496046D01*
X77700500Y10343954D01*
X77697683Y10385495D01*
X77694100Y10399901D01*
X77686756Y10429434D01*
X77653037Y10565021D01*
X77570842Y10730753D01*
X77454940Y10874940D01*
X77454939Y10874941D01*
X77450190Y10879689D01*
X77451655Y10881155D01*
X77417386Y10930382D01*
X77414806Y11000204D01*
X77427601Y11031679D01*
X77528405Y11206274D01*
X77613710Y11412219D01*
X77671404Y11627537D01*
X77700500Y11848543D01*
X77700500Y12071457D01*
X77671404Y12292463D01*
X77613710Y12507781D01*
X77603416Y12532632D01*
X77547832Y12666824D01*
X77528405Y12713726D01*
X77416948Y12906774D01*
X77281247Y13083624D01*
X77281242Y13083630D01*
X77123629Y13241243D01*
X77123622Y13241249D01*
X76946782Y13376942D01*
X76946780Y13376943D01*
X76946774Y13376948D01*
X76753726Y13488405D01*
X76753722Y13488407D01*
X76613167Y13546627D01*
X76572939Y13573507D01*
X76129408Y14017038D01*
X76192993Y14034075D01*
X76307007Y14099901D01*
X76400099Y14192993D01*
X76465925Y14307007D01*
X76482962Y14370592D01*
X77115270Y13738283D01*
X77115270Y13738284D01*
X77154622Y13792446D01*
X77251095Y13981783D01*
X77316757Y14183870D01*
X77316757Y14183873D01*
X77350000Y14393754D01*
X77350000Y14606247D01*
X77316757Y14816128D01*
X77316757Y14816131D01*
X77251095Y15018218D01*
X77154624Y15207551D01*
X77115270Y15261718D01*
X77115269Y15261718D01*
X76482962Y14629410D01*
X76465925Y14692993D01*
X76400099Y14807007D01*
X76307007Y14900099D01*
X76192993Y14965925D01*
X76129408Y14982963D01*
X76572939Y15426495D01*
X76613160Y15453372D01*
X76753726Y15511595D01*
X76946774Y15623052D01*
X77123624Y15758753D01*
X77281247Y15916376D01*
X77416948Y16093226D01*
X77528405Y16286274D01*
X77613710Y16492219D01*
X77671404Y16707537D01*
X77700500Y16928543D01*
X77700500Y17132797D01*
X77720185Y17199836D01*
X77736819Y17220478D01*
X78445621Y17929280D01*
X79287821Y18771480D01*
X79349142Y18804963D01*
X79418834Y18799979D01*
X79474767Y18758107D01*
X79499184Y18692643D01*
X79499500Y18683797D01*
X79499500Y624500D01*
X79479815Y557461D01*
X79427011Y511706D01*
X79375500Y500500D01*
X624500Y500500D01*
X557461Y520185D01*
X511706Y572989D01*
X500500Y624500D01*
X500500Y28323511D01*
X70280427Y28323511D01*
X70280427Y28316938D01*
X71005427Y28316938D01*
X71005427Y28966938D01*
X71005426Y28966939D01*
X70923844Y28966938D01*
X70853324Y28960530D01*
X70853319Y28960529D01*
X70691030Y28909957D01*
X70545549Y28822011D01*
X70425354Y28701816D01*
X70337407Y28556334D01*
X70286836Y28394045D01*
X70280427Y28323511D01*
X500500Y28323511D01*
X500500Y29375500D01*
X520185Y29442539D01*
X572989Y29488294D01*
X624500Y29499500D01*
X72056833Y29499500D01*
X72123872Y29479815D01*
G37*
%TD.AperFunction*%
%TA.AperFunction,Conductor*%
G36*
X74805703Y15828979D02*
G01*
X74812181Y15822947D01*
X74876370Y15758758D01*
X74876376Y15758753D01*
X75053226Y15623052D01*
X75246274Y15511595D01*
X75246277Y15511594D01*
X75246282Y15511591D01*
X75376101Y15457819D01*
X75386827Y15453376D01*
X75386830Y15453375D01*
X75427059Y15426495D01*
X75870591Y14982963D01*
X75807007Y14965925D01*
X75692993Y14900099D01*
X75599901Y14807007D01*
X75534075Y14692993D01*
X75517037Y14629409D01*
X74884728Y15261718D01*
X74884727Y15261718D01*
X74845380Y15207560D01*
X74845378Y15207557D01*
X74834984Y15187157D01*
X74787009Y15136361D01*
X74719188Y15119567D01*
X74653053Y15142105D01*
X74609602Y15196821D01*
X74600500Y15243453D01*
X74600500Y15735266D01*
X74620185Y15802305D01*
X74672989Y15848060D01*
X74742147Y15858004D01*
X74805703Y15828979D01*
G37*
%TD.AperFunction*%
%TD*%
M02*
