%TF.GenerationSoftware,KiCad,Pcbnew,9.0.7*%
%TF.CreationDate,2026-03-09T15:49:37-06:00*%
%TF.ProjectId,PhotoeyeOnlyEye PCB_V1,50686f74-6f65-4796-954f-6e6c79457965,rev?*%
%TF.SameCoordinates,PX68e7780PY6422c40*%
%TF.FileFunction,Copper,L1,Top*%
%TF.FilePolarity,Positive*%
%FSLAX46Y46*%
G04 Gerber Fmt 4.6, Leading zero omitted, Abs format (unit mm)*
G04 Created by KiCad (PCBNEW 9.0.7) date 2026-03-09 15:49:37*
%MOMM*%
%LPD*%
G01*
G04 APERTURE LIST*
G04 Aperture macros list*
%AMRoundRect*
0 Rectangle with rounded corners*
0 $1 Rounding radius*
0 $2 $3 $4 $5 $6 $7 $8 $9 X,Y pos of 4 corners*
0 Add a 4 corners polygon primitive as box body*
4,1,4,$2,$3,$4,$5,$6,$7,$8,$9,$2,$3,0*
0 Add four circle primitives for the rounded corners*
1,1,$1+$1,$2,$3*
1,1,$1+$1,$4,$5*
1,1,$1+$1,$6,$7*
1,1,$1+$1,$8,$9*
0 Add four rect primitives between the rounded corners*
20,1,$1+$1,$2,$3,$4,$5,0*
20,1,$1+$1,$4,$5,$6,$7,0*
20,1,$1+$1,$6,$7,$8,$9,0*
20,1,$1+$1,$8,$9,$2,$3,0*%
G04 Aperture macros list end*
%TA.AperFunction,SMDPad,CuDef*%
%ADD10RoundRect,0.200000X-0.275000X0.200000X-0.275000X-0.200000X0.275000X-0.200000X0.275000X0.200000X0*%
%TD*%
%TA.AperFunction,SMDPad,CuDef*%
%ADD11RoundRect,0.250000X0.250000X2.500000X-0.250000X2.500000X-0.250000X-2.500000X0.250000X-2.500000X0*%
%TD*%
%TA.AperFunction,SMDPad,CuDef*%
%ADD12RoundRect,0.250000X0.550000X1.250000X-0.550000X1.250000X-0.550000X-1.250000X0.550000X-1.250000X0*%
%TD*%
%TA.AperFunction,ComponentPad*%
%ADD13C,2.000000*%
%TD*%
%TA.AperFunction,ComponentPad*%
%ADD14R,2.000000X2.000000*%
%TD*%
%TA.AperFunction,Conductor*%
%ADD15C,0.500000*%
%TD*%
G04 APERTURE END LIST*
D10*
%TO.P,R3,1*%
%TO.N,GND*%
X17500000Y5025000D03*
%TO.P,R3,2*%
%TO.N,Net-(U2-K)*%
X17500000Y3375000D03*
%TD*%
D11*
%TO.P,J1,1,Pin_1*%
%TO.N,+3.3V*%
X11250000Y14700000D03*
%TO.P,J1,2,Pin_2*%
%TO.N,GND*%
X9250000Y14700000D03*
%TO.P,J1,3,Pin_3*%
%TO.N,/sensorValue*%
X7250000Y14700000D03*
D12*
%TO.P,J1,MP,Pin_1*%
%TO.N,GND*%
X13650000Y12450000D03*
X4850000Y12450000D03*
%TD*%
D13*
%TO.P,R2,1*%
%TO.N,/sensorValue*%
X7250000Y8600000D03*
%TO.P,R2,2*%
%TO.N,GND*%
X2250000Y6100000D03*
%TO.P,R2,3*%
X7250000Y3600000D03*
%TD*%
D14*
%TO.P,U2,1,A*%
%TO.N,+3.3V*%
X11500000Y4200000D03*
D13*
%TO.P,U2,2,K*%
%TO.N,Net-(U2-K)*%
X14000000Y4200000D03*
%TO.P,U2,3,E*%
%TO.N,+3.3V*%
X14000000Y7000000D03*
%TO.P,U2,4,C*%
%TO.N,/sensorValue*%
X11500000Y7000000D03*
%TD*%
D15*
%TO.N,GND*%
X4600000Y3600000D02*
X7250000Y3600000D01*
X10000000Y19000000D02*
X9500000Y19000000D01*
X2250000Y6100000D02*
X2250000Y5950000D01*
X9250000Y18750000D02*
X9250000Y14700000D01*
X4850000Y17850000D02*
X4850000Y17050000D01*
X2250000Y6100000D02*
X2250000Y10250000D01*
X9500000Y19000000D02*
X9250000Y18750000D01*
X17500000Y10200000D02*
X15250000Y12450000D01*
X17500000Y5025000D02*
X17500000Y10200000D01*
X2250000Y10250000D02*
X4850000Y12850000D01*
X13650000Y12850000D02*
X13650000Y18350000D01*
X13000000Y19000000D02*
X10000000Y19000000D01*
X15250000Y12450000D02*
X13650000Y12450000D01*
X6000000Y19000000D02*
X4850000Y17850000D01*
X13650000Y18350000D02*
X13000000Y19000000D01*
X10000000Y19000000D02*
X6000000Y19000000D01*
X2250000Y5950000D02*
X4600000Y3600000D01*
X4850000Y12450000D02*
X4850000Y17050000D01*
%TO.N,+3.3V*%
X14000000Y6700000D02*
X11500000Y4200000D01*
X14000000Y7000000D02*
X14000000Y6700000D01*
X14000000Y8447312D02*
X14000000Y7000000D01*
X11250000Y11197313D02*
X14000000Y8447312D01*
X11250000Y15100000D02*
X11250000Y11197313D01*
%TO.N,/sensorValue*%
X9500000Y8600000D02*
X9900000Y8600000D01*
X9900000Y8600000D02*
X11500000Y7000000D01*
X9500000Y8600000D02*
X7250000Y8600000D01*
X7250000Y15100000D02*
X7250000Y8600000D01*
%TO.N,Net-(U2-K)*%
X14825000Y3375000D02*
X14000000Y4200000D01*
X17500000Y3375000D02*
X14825000Y3375000D01*
%TD*%
%TA.AperFunction,Conductor*%
%TO.N,GND*%
G36*
X19442539Y19479815D02*
G01*
X19488294Y19427011D01*
X19499500Y19375500D01*
X19499500Y624500D01*
X19479815Y557461D01*
X19427011Y511706D01*
X19375500Y500500D01*
X624500Y500500D01*
X557461Y520185D01*
X511706Y572989D01*
X500500Y624500D01*
X500500Y3718053D01*
X5750000Y3718053D01*
X5750000Y3481948D01*
X5786934Y3248753D01*
X5859897Y3024198D01*
X5967087Y2813826D01*
X6027338Y2730896D01*
X6027340Y2730895D01*
X6807861Y3511416D01*
X6830667Y3426306D01*
X6889910Y3323694D01*
X6973694Y3239910D01*
X7076306Y3180667D01*
X7161415Y3157862D01*
X6380893Y2377342D01*
X6463828Y2317086D01*
X6674197Y2209898D01*
X6898752Y2136935D01*
X6898751Y2136935D01*
X7131948Y2100000D01*
X7368052Y2100000D01*
X7601247Y2136935D01*
X7825802Y2209898D01*
X8036163Y2317082D01*
X8036169Y2317086D01*
X8119104Y2377342D01*
X8119105Y2377342D01*
X7338584Y3157862D01*
X7423694Y3180667D01*
X7526306Y3239910D01*
X7610090Y3323694D01*
X7669333Y3426306D01*
X7692138Y3511415D01*
X8472658Y2730895D01*
X8472658Y2730896D01*
X8532914Y2813831D01*
X8532918Y2813837D01*
X8640102Y3024198D01*
X8713065Y3248753D01*
X8750000Y3481948D01*
X8750000Y3718053D01*
X8713065Y3951248D01*
X8640102Y4175803D01*
X8532914Y4386172D01*
X8472658Y4469106D01*
X8472658Y4469107D01*
X7692137Y3688586D01*
X7669333Y3773694D01*
X7610090Y3876306D01*
X7526306Y3960090D01*
X7423694Y4019333D01*
X7338584Y4042139D01*
X8119105Y4822660D01*
X8119104Y4822662D01*
X8036174Y4882913D01*
X7825802Y4990103D01*
X7601247Y5063066D01*
X7601248Y5063066D01*
X7368052Y5100000D01*
X7131948Y5100000D01*
X6898752Y5063066D01*
X6674197Y4990103D01*
X6463830Y4882916D01*
X6380894Y4822660D01*
X7161415Y4042139D01*
X7076306Y4019333D01*
X6973694Y3960090D01*
X6889910Y3876306D01*
X6830667Y3773694D01*
X6807861Y3688585D01*
X6027340Y4469106D01*
X5967084Y4386170D01*
X5859897Y4175803D01*
X5786934Y3951248D01*
X5750000Y3718053D01*
X500500Y3718053D01*
X500500Y6218053D01*
X750000Y6218053D01*
X750000Y5981948D01*
X786934Y5748753D01*
X859897Y5524198D01*
X967087Y5313826D01*
X1027338Y5230896D01*
X1027340Y5230895D01*
X1807861Y6011416D01*
X1830667Y5926306D01*
X1889910Y5823694D01*
X1973694Y5739910D01*
X2076306Y5680667D01*
X2161415Y5657862D01*
X1380893Y4877342D01*
X1463828Y4817086D01*
X1674197Y4709898D01*
X1898752Y4636935D01*
X1898751Y4636935D01*
X2131948Y4600000D01*
X2368052Y4600000D01*
X2601247Y4636935D01*
X2825802Y4709898D01*
X3036163Y4817082D01*
X3036169Y4817086D01*
X3116872Y4875719D01*
X3119104Y4877342D01*
X3119105Y4877342D01*
X2338584Y5657862D01*
X2423694Y5680667D01*
X2526306Y5739910D01*
X2610090Y5823694D01*
X2669333Y5926306D01*
X2692138Y6011416D01*
X3472658Y5230895D01*
X3472658Y5230896D01*
X3532914Y5313831D01*
X3532918Y5313837D01*
X3640102Y5524198D01*
X3713065Y5748753D01*
X3750000Y5981948D01*
X3750000Y6218053D01*
X3713065Y6451248D01*
X3640102Y6675803D01*
X3532914Y6886172D01*
X3472658Y6969106D01*
X3472658Y6969107D01*
X2692137Y6188586D01*
X2669333Y6273694D01*
X2610090Y6376306D01*
X2526306Y6460090D01*
X2423694Y6519333D01*
X2338584Y6542139D01*
X3119105Y7322660D01*
X3119104Y7322662D01*
X3036174Y7382913D01*
X2825802Y7490103D01*
X2601247Y7563066D01*
X2601248Y7563066D01*
X2368052Y7600000D01*
X2131948Y7600000D01*
X1898752Y7563066D01*
X1674197Y7490103D01*
X1463830Y7382916D01*
X1380894Y7322660D01*
X2161415Y6542139D01*
X2076306Y6519333D01*
X1973694Y6460090D01*
X1889910Y6376306D01*
X1830667Y6273694D01*
X1807861Y6188585D01*
X1027340Y6969106D01*
X967084Y6886170D01*
X859897Y6675803D01*
X786934Y6451248D01*
X750000Y6218053D01*
X500500Y6218053D01*
X500500Y11150014D01*
X3550001Y11150014D01*
X3560494Y11047303D01*
X3615641Y10880881D01*
X3615643Y10880876D01*
X3707684Y10731655D01*
X3831654Y10607685D01*
X3980875Y10515644D01*
X3980880Y10515642D01*
X4147302Y10460495D01*
X4147309Y10460494D01*
X4250019Y10450001D01*
X4599999Y10450001D01*
X4600000Y10450002D01*
X4600000Y12200000D01*
X3550001Y12200000D01*
X3550001Y11150014D01*
X500500Y11150014D01*
X500500Y13749987D01*
X3550000Y13749987D01*
X3550000Y12700000D01*
X4600000Y12700000D01*
X4600000Y14450000D01*
X5100000Y14450000D01*
X5100000Y10450001D01*
X5449972Y10450001D01*
X5449986Y10450002D01*
X5552697Y10460495D01*
X5719119Y10515642D01*
X5719124Y10515644D01*
X5868345Y10607685D01*
X5992315Y10731655D01*
X6084356Y10880876D01*
X6084358Y10880881D01*
X6139505Y11047303D01*
X6139506Y11047310D01*
X6149999Y11150014D01*
X6149999Y11711237D01*
X6157880Y11738080D01*
X6162578Y11765656D01*
X6167589Y11771145D01*
X6169683Y11778276D01*
X6190824Y11796596D01*
X6209687Y11817256D01*
X6216870Y11819165D01*
X6222487Y11824031D01*
X6250176Y11828013D01*
X6277214Y11835195D01*
X6284288Y11832918D01*
X6291646Y11833975D01*
X6317094Y11822353D01*
X6343721Y11813779D01*
X6349811Y11807412D01*
X6355202Y11804950D01*
X6369786Y11789983D01*
X6375125Y11783488D01*
X6407288Y11731344D01*
X6467456Y11671176D01*
X6471287Y11666516D01*
X6482702Y11639701D01*
X6496666Y11614128D01*
X6497705Y11604457D01*
X6498654Y11602229D01*
X6498219Y11599679D01*
X6499500Y11587770D01*
X6499500Y9972632D01*
X6479815Y9905593D01*
X6448386Y9872314D01*
X6272488Y9744516D01*
X6105485Y9577513D01*
X6105485Y9577512D01*
X6105483Y9577510D01*
X6045862Y9495450D01*
X5966657Y9386434D01*
X5859433Y9175997D01*
X5786446Y8951369D01*
X5749500Y8718098D01*
X5749500Y8481903D01*
X5786446Y8248632D01*
X5859433Y8024004D01*
X5948348Y7849500D01*
X5966657Y7813567D01*
X6105483Y7622490D01*
X6272490Y7455483D01*
X6463567Y7316657D01*
X6562991Y7265998D01*
X6674003Y7209434D01*
X6674005Y7209434D01*
X6674008Y7209432D01*
X6794412Y7170311D01*
X6898631Y7136447D01*
X7131903Y7099500D01*
X7131908Y7099500D01*
X7368097Y7099500D01*
X7601368Y7136447D01*
X7825992Y7209432D01*
X8036433Y7316657D01*
X8227510Y7455483D01*
X8394517Y7622490D01*
X8522313Y7798387D01*
X8577643Y7841051D01*
X8622631Y7849500D01*
X9426082Y7849500D01*
X9537770Y7849500D01*
X9604809Y7829815D01*
X9625451Y7813181D01*
X9998719Y7439913D01*
X10032204Y7378590D01*
X10033511Y7332834D01*
X9999500Y7118098D01*
X9999500Y6881903D01*
X10036446Y6648632D01*
X10109433Y6424004D01*
X10214371Y6218053D01*
X10216657Y6213567D01*
X10355483Y6022490D01*
X10355485Y6022488D01*
X10472331Y5905642D01*
X10505816Y5844319D01*
X10500832Y5774627D01*
X10458960Y5718694D01*
X10397912Y5694672D01*
X10392518Y5694092D01*
X10257671Y5643798D01*
X10257664Y5643794D01*
X10142455Y5557548D01*
X10142452Y5557545D01*
X10056206Y5442336D01*
X10056202Y5442329D01*
X10005908Y5307483D01*
X9999501Y5247884D01*
X9999500Y5247865D01*
X9999500Y3152130D01*
X9999501Y3152124D01*
X10005908Y3092517D01*
X10056202Y2957672D01*
X10056206Y2957665D01*
X10142452Y2842456D01*
X10142455Y2842453D01*
X10257664Y2756207D01*
X10257671Y2756203D01*
X10392517Y2705909D01*
X10392516Y2705909D01*
X10399444Y2705165D01*
X10452127Y2699500D01*
X12547872Y2699501D01*
X12607483Y2705909D01*
X12742331Y2756204D01*
X12857546Y2842454D01*
X12943796Y2957669D01*
X12943796Y2957672D01*
X12945689Y2960199D01*
X13001623Y3002070D01*
X13071315Y3007054D01*
X13117840Y2986207D01*
X13213567Y2916657D01*
X13274924Y2885394D01*
X13424003Y2809434D01*
X13424005Y2809434D01*
X13424008Y2809432D01*
X13544412Y2770311D01*
X13648631Y2736447D01*
X13881903Y2699500D01*
X13881908Y2699500D01*
X14118097Y2699500D01*
X14248661Y2720180D01*
X14351368Y2736447D01*
X14351379Y2736451D01*
X14356103Y2737584D01*
X14356673Y2735209D01*
X14416404Y2737101D01*
X14454142Y2720181D01*
X14469505Y2709916D01*
X14606087Y2653342D01*
X14606091Y2653342D01*
X14606092Y2653341D01*
X14751079Y2624500D01*
X14751082Y2624500D01*
X16747023Y2624500D01*
X16811171Y2606618D01*
X16935394Y2531522D01*
X17097804Y2480914D01*
X17168384Y2474500D01*
X17168387Y2474500D01*
X17831613Y2474500D01*
X17831616Y2474500D01*
X17902196Y2480914D01*
X18064606Y2531522D01*
X18210185Y2619528D01*
X18330472Y2739815D01*
X18418478Y2885394D01*
X18469086Y3047804D01*
X18475500Y3118384D01*
X18475500Y3631616D01*
X18469086Y3702196D01*
X18418478Y3864606D01*
X18330472Y4010185D01*
X18330470Y4010187D01*
X18330469Y4010189D01*
X18227984Y4112674D01*
X18194499Y4173997D01*
X18199483Y4243689D01*
X18227985Y4288037D01*
X18330071Y4390122D01*
X18330072Y4390123D01*
X18418019Y4535605D01*
X18468590Y4697894D01*
X18475000Y4768428D01*
X18475000Y4775000D01*
X16525001Y4775000D01*
X16525001Y4768418D01*
X16531408Y4697898D01*
X16531409Y4697893D01*
X16581981Y4535604D01*
X16669927Y4390123D01*
X16722869Y4337181D01*
X16756354Y4275858D01*
X16751370Y4206166D01*
X16709498Y4150233D01*
X16644034Y4125816D01*
X16635188Y4125500D01*
X15624500Y4125500D01*
X15557461Y4145185D01*
X15511706Y4197989D01*
X15500500Y4249500D01*
X15500500Y4318098D01*
X15463553Y4551369D01*
X15393029Y4768418D01*
X15390568Y4775992D01*
X15390566Y4775995D01*
X15390566Y4775997D01*
X15283342Y4986434D01*
X15144517Y5177510D01*
X15040454Y5281573D01*
X16525000Y5281573D01*
X16525000Y5275000D01*
X17250000Y5275000D01*
X17750000Y5275000D01*
X18474999Y5275000D01*
X18474999Y5281583D01*
X18468591Y5352103D01*
X18468590Y5352108D01*
X18418018Y5514397D01*
X18330072Y5659878D01*
X18209877Y5780073D01*
X18064395Y5868020D01*
X18064396Y5868020D01*
X17902105Y5918591D01*
X17902106Y5918591D01*
X17831572Y5925000D01*
X17750000Y5925000D01*
X17750000Y5275000D01*
X17250000Y5275000D01*
X17250000Y5925000D01*
X17249999Y5925001D01*
X17168417Y5925000D01*
X17097897Y5918592D01*
X17097892Y5918591D01*
X16935603Y5868019D01*
X16790122Y5780073D01*
X16669927Y5659878D01*
X16581980Y5514396D01*
X16531409Y5352107D01*
X16525000Y5281573D01*
X15040454Y5281573D01*
X14977510Y5344517D01*
X14842874Y5442336D01*
X14786431Y5483345D01*
X14774320Y5489515D01*
X14723524Y5537488D01*
X14706728Y5605309D01*
X14729265Y5671444D01*
X14774320Y5710485D01*
X14786431Y5716656D01*
X14786430Y5716656D01*
X14786433Y5716657D01*
X14977510Y5855483D01*
X15144517Y6022490D01*
X15283343Y6213567D01*
X15390568Y6424008D01*
X15463553Y6648632D01*
X15500500Y6881903D01*
X15500500Y7118098D01*
X15463553Y7351369D01*
X15390566Y7575997D01*
X15283342Y7786434D01*
X15144517Y7977510D01*
X14977510Y8144517D01*
X14926879Y8181303D01*
X14801614Y8272314D01*
X14758949Y8327645D01*
X14750500Y8372632D01*
X14750500Y8521233D01*
X14721659Y8666220D01*
X14721658Y8666221D01*
X14721658Y8666225D01*
X14665084Y8802807D01*
X14632186Y8852042D01*
X14632185Y8852044D01*
X14582956Y8925723D01*
X14582952Y8925728D01*
X13270360Y10238320D01*
X13236875Y10299643D01*
X13241859Y10369335D01*
X13283731Y10425268D01*
X13349195Y10449685D01*
X13358041Y10450001D01*
X13400000Y10450001D01*
X13900000Y10450001D01*
X14249972Y10450001D01*
X14249986Y10450002D01*
X14352697Y10460495D01*
X14519119Y10515642D01*
X14519124Y10515644D01*
X14668345Y10607685D01*
X14792315Y10731655D01*
X14884356Y10880876D01*
X14884358Y10880881D01*
X14939505Y11047303D01*
X14939506Y11047310D01*
X14949999Y11150014D01*
X14950000Y11150027D01*
X14950000Y12200000D01*
X13900000Y12200000D01*
X13900000Y10450001D01*
X13400000Y10450001D01*
X13400000Y12700000D01*
X13900000Y12700000D01*
X14949999Y12700000D01*
X14949999Y13749972D01*
X14949998Y13749987D01*
X14939505Y13852698D01*
X14884358Y14019120D01*
X14884356Y14019125D01*
X14792315Y14168346D01*
X14668345Y14292316D01*
X14519124Y14384357D01*
X14519119Y14384359D01*
X14352697Y14439506D01*
X14352690Y14439507D01*
X14249986Y14450000D01*
X13900000Y14450000D01*
X13900000Y12700000D01*
X13400000Y12700000D01*
X13400000Y14450000D01*
X13050028Y14450000D01*
X13050012Y14449999D01*
X12947302Y14439506D01*
X12780880Y14384359D01*
X12780875Y14384357D01*
X12631654Y14292316D01*
X12507682Y14168344D01*
X12480037Y14123524D01*
X12428088Y14076800D01*
X12359126Y14065579D01*
X12295044Y14093423D01*
X12256189Y14151492D01*
X12250499Y14188619D01*
X12250499Y17250008D01*
X12239999Y17352797D01*
X12184814Y17519334D01*
X12092712Y17668656D01*
X11968656Y17792712D01*
X11819334Y17884814D01*
X11652797Y17939999D01*
X11652795Y17940000D01*
X11550010Y17950500D01*
X10949998Y17950500D01*
X10949980Y17950499D01*
X10847203Y17940000D01*
X10847200Y17939999D01*
X10680668Y17884815D01*
X10680663Y17884813D01*
X10531342Y17792711D01*
X10407288Y17668657D01*
X10407285Y17668653D01*
X10355244Y17584281D01*
X10303296Y17537556D01*
X10234334Y17526335D01*
X10170252Y17554178D01*
X10144167Y17584281D01*
X10092315Y17668346D01*
X9968345Y17792316D01*
X9819124Y17884357D01*
X9819119Y17884359D01*
X9652697Y17939506D01*
X9652690Y17939507D01*
X9549986Y17950000D01*
X9500000Y17950000D01*
X9500000Y11450001D01*
X9549972Y11450001D01*
X9549986Y11450002D01*
X9652697Y11460495D01*
X9819119Y11515642D01*
X9819124Y11515644D01*
X9968345Y11607685D01*
X10092317Y11731657D01*
X10144167Y11815719D01*
X10167129Y11836373D01*
X10188642Y11858545D01*
X10192879Y11859535D01*
X10196115Y11862444D01*
X10226599Y11867406D01*
X10256682Y11874427D01*
X10260781Y11872969D01*
X10265077Y11873667D01*
X10293406Y11861359D01*
X10322508Y11851002D01*
X10326065Y11847169D01*
X10329159Y11845824D01*
X10347839Y11826425D01*
X10351823Y11821267D01*
X10407288Y11731344D01*
X10468789Y11669843D01*
X10473633Y11663572D01*
X10483569Y11638112D01*
X10496666Y11614128D01*
X10498086Y11600917D01*
X10499036Y11598484D01*
X10498587Y11596260D01*
X10499500Y11587770D01*
X10499500Y11123395D01*
X10499500Y11123393D01*
X10499499Y11123393D01*
X10528340Y10978406D01*
X10528343Y10978396D01*
X10584914Y10841821D01*
X10617812Y10792586D01*
X10617813Y10792583D01*
X10667046Y10718899D01*
X10667052Y10718892D01*
X13046635Y8339310D01*
X13080120Y8277987D01*
X13075136Y8208295D01*
X13033264Y8152362D01*
X13031847Y8151316D01*
X13022490Y8144518D01*
X12855482Y7977510D01*
X12850315Y7970397D01*
X12794983Y7927734D01*
X12725370Y7921758D01*
X12663576Y7954366D01*
X12649685Y7970397D01*
X12644517Y7977510D01*
X12477512Y8144515D01*
X12477511Y8144516D01*
X12477510Y8144517D01*
X12286433Y8283343D01*
X12250500Y8301652D01*
X12075996Y8390567D01*
X11851368Y8463554D01*
X11618097Y8500500D01*
X11618092Y8500500D01*
X11381908Y8500500D01*
X11381903Y8500500D01*
X11167166Y8466489D01*
X11097872Y8475444D01*
X11060087Y8501281D01*
X10378421Y9182948D01*
X10378414Y9182954D01*
X10304729Y9232188D01*
X10304729Y9232187D01*
X10255491Y9265087D01*
X10118917Y9321657D01*
X10118907Y9321660D01*
X9973920Y9350500D01*
X9973918Y9350500D01*
X9573918Y9350500D01*
X8622631Y9350500D01*
X8555592Y9370185D01*
X8522313Y9401614D01*
X8394517Y9577510D01*
X8227510Y9744517D01*
X8176879Y9781303D01*
X8051614Y9872314D01*
X8008949Y9927645D01*
X8000500Y9972632D01*
X8000500Y11587770D01*
X8006994Y11609887D01*
X8008986Y11632854D01*
X8017616Y11646064D01*
X8020185Y11654809D01*
X8026367Y11663571D01*
X8031214Y11669847D01*
X8092712Y11731344D01*
X8148176Y11821268D01*
X8152160Y11826424D01*
X8175374Y11843262D01*
X8196701Y11862444D01*
X8203304Y11863519D01*
X8208719Y11867446D01*
X8237351Y11869060D01*
X8265664Y11873667D01*
X8271800Y11871001D01*
X8278478Y11871377D01*
X8303438Y11857255D01*
X8329746Y11845824D01*
X8335618Y11839047D01*
X8339289Y11836970D01*
X8342187Y11831466D01*
X8355831Y11815720D01*
X8407680Y11731660D01*
X8407683Y11731656D01*
X8531654Y11607685D01*
X8680875Y11515644D01*
X8680880Y11515642D01*
X8847302Y11460495D01*
X8847309Y11460494D01*
X8950019Y11450001D01*
X8999999Y11450002D01*
X9000000Y11450002D01*
X9000000Y17950000D01*
X8999999Y17950001D01*
X8950029Y17950000D01*
X8950011Y17949999D01*
X8847302Y17939506D01*
X8680880Y17884359D01*
X8680875Y17884357D01*
X8531654Y17792316D01*
X8407682Y17668344D01*
X8355831Y17584280D01*
X8303883Y17537556D01*
X8234920Y17526335D01*
X8170838Y17554178D01*
X8144754Y17584282D01*
X8092712Y17668656D01*
X7968657Y17792711D01*
X7968656Y17792712D01*
X7819334Y17884814D01*
X7652797Y17939999D01*
X7652795Y17940000D01*
X7550010Y17950500D01*
X6949998Y17950500D01*
X6949980Y17950499D01*
X6847203Y17940000D01*
X6847200Y17939999D01*
X6680668Y17884815D01*
X6680663Y17884813D01*
X6531342Y17792711D01*
X6407289Y17668658D01*
X6315187Y17519337D01*
X6315186Y17519334D01*
X6260001Y17352797D01*
X6260001Y17352796D01*
X6260000Y17352796D01*
X6249500Y17250017D01*
X6249500Y14188622D01*
X6229815Y14121583D01*
X6177011Y14075828D01*
X6107853Y14065884D01*
X6044297Y14094909D01*
X6019961Y14123525D01*
X5992315Y14168346D01*
X5868345Y14292316D01*
X5719124Y14384357D01*
X5719119Y14384359D01*
X5552697Y14439506D01*
X5552690Y14439507D01*
X5449986Y14450000D01*
X5100000Y14450000D01*
X4600000Y14450000D01*
X4250028Y14450000D01*
X4250012Y14449999D01*
X4147302Y14439506D01*
X3980880Y14384359D01*
X3980875Y14384357D01*
X3831654Y14292316D01*
X3707684Y14168346D01*
X3615643Y14019125D01*
X3615641Y14019120D01*
X3560494Y13852698D01*
X3560493Y13852691D01*
X3550000Y13749987D01*
X500500Y13749987D01*
X500500Y19375500D01*
X520185Y19442539D01*
X572989Y19488294D01*
X624500Y19499500D01*
X19375500Y19499500D01*
X19442539Y19479815D01*
G37*
%TD.AperFunction*%
%TD*%
M02*
