%TF.GenerationSoftware,KiCad,Pcbnew,9.0.7*%
%TF.CreationDate,2026-03-10T16:27:12-06:00*%
%TF.ProjectId,Photoeye PCB_V1,50686f74-6f65-4796-9520-5043425f5631,rev?*%
%TF.SameCoordinates,PX68e7780PY6422c40*%
%TF.FileFunction,Copper,L1,Top*%
%TF.FilePolarity,Positive*%
%FSLAX46Y46*%
G04 Gerber Fmt 4.6, Leading zero omitted, Abs format (unit mm)*
G04 Created by KiCad (PCBNEW 9.0.7) date 2026-03-10 16:27:12*
%MOMM*%
%LPD*%
G01*
G04 APERTURE LIST*
G04 Aperture macros list*
%AMRoundRect*
0 Rectangle with rounded corners*
0 $1 Rounding radius*
0 $2 $3 $4 $5 $6 $7 $8 $9 X,Y pos of 4 corners*
0 Add a 4 corners polygon primitive as box body*
4,1,4,$2,$3,$4,$5,$6,$7,$8,$9,$2,$3,0*
0 Add four circle primitives for the rounded corners*
1,1,$1+$1,$2,$3*
1,1,$1+$1,$4,$5*
1,1,$1+$1,$6,$7*
1,1,$1+$1,$8,$9*
0 Add four rect primitives between the rounded corners*
20,1,$1+$1,$2,$3,$4,$5,0*
20,1,$1+$1,$4,$5,$6,$7,0*
20,1,$1+$1,$6,$7,$8,$9,0*
20,1,$1+$1,$8,$9,$2,$3,0*%
G04 Aperture macros list end*
%TA.AperFunction,SMDPad,CuDef*%
%ADD10RoundRect,0.200000X-0.200000X-0.275000X0.200000X-0.275000X0.200000X0.275000X-0.200000X0.275000X0*%
%TD*%
%TA.AperFunction,SMDPad,CuDef*%
%ADD11R,0.975000X1.400000*%
%TD*%
%TA.AperFunction,SMDPad,CuDef*%
%ADD12RoundRect,0.243750X-0.243750X-0.456250X0.243750X-0.456250X0.243750X0.456250X-0.243750X0.456250X0*%
%TD*%
%TA.AperFunction,SMDPad,CuDef*%
%ADD13RoundRect,0.243750X0.243750X0.456250X-0.243750X0.456250X-0.243750X-0.456250X0.243750X-0.456250X0*%
%TD*%
%TA.AperFunction,SMDPad,CuDef*%
%ADD14RoundRect,0.200000X0.200000X0.275000X-0.200000X0.275000X-0.200000X-0.275000X0.200000X-0.275000X0*%
%TD*%
%TA.AperFunction,SMDPad,CuDef*%
%ADD15RoundRect,0.250000X-2.500000X0.250000X-2.500000X-0.250000X2.500000X-0.250000X2.500000X0.250000X0*%
%TD*%
%TA.AperFunction,SMDPad,CuDef*%
%ADD16RoundRect,0.250000X-1.250000X0.550000X-1.250000X-0.550000X1.250000X-0.550000X1.250000X0.550000X0*%
%TD*%
%TA.AperFunction,SMDPad,CuDef*%
%ADD17RoundRect,0.225000X0.225000X0.250000X-0.225000X0.250000X-0.225000X-0.250000X0.225000X-0.250000X0*%
%TD*%
%TA.AperFunction,SMDPad,CuDef*%
%ADD18RoundRect,0.250000X2.500000X-0.250000X2.500000X0.250000X-2.500000X0.250000X-2.500000X-0.250000X0*%
%TD*%
%TA.AperFunction,SMDPad,CuDef*%
%ADD19RoundRect,0.250000X1.250000X-0.550000X1.250000X0.550000X-1.250000X0.550000X-1.250000X-0.550000X0*%
%TD*%
%TA.AperFunction,ComponentPad*%
%ADD20C,2.000000*%
%TD*%
%TA.AperFunction,SMDPad,CuDef*%
%ADD21R,1.475000X0.450000*%
%TD*%
%TA.AperFunction,ComponentPad*%
%ADD22R,2.000000X2.000000*%
%TD*%
%TA.AperFunction,Conductor*%
%ADD23C,0.500000*%
%TD*%
%TA.AperFunction,Conductor*%
%ADD24C,0.400000*%
%TD*%
%TA.AperFunction,Conductor*%
%ADD25C,0.300000*%
%TD*%
G04 APERTURE END LIST*
D10*
%TO.P,R6,1*%
%TO.N,/outputState*%
X29175000Y16000000D03*
%TO.P,R6,2*%
%TO.N,+3.3V*%
X30825000Y16000000D03*
%TD*%
D11*
%TO.P,D2,1,K*%
%TO.N,Net-(D2-K)*%
X32562500Y11500000D03*
D12*
%TO.P,D2,2,A*%
%TO.N,+3.3V*%
X34437500Y11500000D03*
%TD*%
D11*
%TO.P,D1,1,K*%
%TO.N,GND*%
X34471912Y14426209D03*
D13*
%TO.P,D1,2,A*%
%TO.N,Net-(D1-A)*%
X32596912Y14426209D03*
%TD*%
D14*
%TO.P,R5,1*%
%TO.N,Net-(D2-K)*%
X30825000Y11500000D03*
%TO.P,R5,2*%
%TO.N,/outputState*%
X29175000Y11500000D03*
%TD*%
D15*
%TO.P,J2,1,Pin_1*%
%TO.N,+3.3V*%
X42750000Y15100000D03*
%TO.P,J2,2,Pin_2*%
%TO.N,GND*%
X42750000Y13100000D03*
%TO.P,J2,3,Pin_3*%
%TO.N,/outputState*%
X42750000Y11100000D03*
D16*
%TO.P,J2,MP,Pin_1*%
%TO.N,GND*%
X45000000Y17500000D03*
X45000000Y8700000D03*
%TD*%
D14*
%TO.P,R3,1*%
%TO.N,GND*%
X29825000Y4500000D03*
%TO.P,R3,2*%
%TO.N,Net-(U2-K)*%
X28175000Y4500000D03*
%TD*%
%TO.P,R4,1*%
%TO.N,Net-(D1-A)*%
X30822831Y14207667D03*
%TO.P,R4,2*%
%TO.N,/outputState*%
X29172831Y14207667D03*
%TD*%
D17*
%TO.P,C1,1*%
%TO.N,GND*%
X38275000Y9362500D03*
%TO.P,C1,2*%
%TO.N,+3.3V*%
X36725000Y9362500D03*
%TD*%
D18*
%TO.P,J1,1,Pin_1*%
%TO.N,+3.3V*%
X7500000Y7362500D03*
%TO.P,J1,2,Pin_2*%
%TO.N,GND*%
X7500000Y9362500D03*
%TO.P,J1,3,Pin_3*%
%TO.N,Net-(J1-Pin_3)*%
X7500000Y11362500D03*
D19*
%TO.P,J1,MP,Pin_1*%
%TO.N,GND*%
X5250000Y4962500D03*
X5250000Y13762500D03*
%TD*%
D20*
%TO.P,JP1,1,A*%
%TO.N,+3.3V*%
X37000000Y3500000D03*
%TO.P,JP1,2,B*%
X37000000Y6500000D03*
%TD*%
D21*
%TO.P,U1,1,OUT_1*%
%TO.N,/outputState*%
X29788000Y9337500D03*
%TO.P,U1,2,IN1-*%
%TO.N,/platterSensor*%
X29788000Y8687500D03*
%TO.P,U1,3,IN1+*%
%TO.N,Net-(U1-IN1+)*%
X29788000Y8037500D03*
%TO.P,U1,4,VCC-*%
%TO.N,GND*%
X29788000Y7387500D03*
%TO.P,U1,5,IN2+*%
%TO.N,unconnected-(U1-IN2+-Pad5)*%
X34212000Y7387500D03*
%TO.P,U1,6,IN2-*%
%TO.N,unconnected-(U1-IN2--Pad6)*%
X34212000Y8037500D03*
%TO.P,U1,7,OUT2*%
%TO.N,unconnected-(U1-OUT2-Pad7)*%
X34212000Y8687500D03*
%TO.P,U1,8,VCC+*%
%TO.N,+3.3V*%
X34212000Y9337500D03*
%TD*%
D20*
%TO.P,R2,1*%
%TO.N,/platterSensor*%
X17500000Y12000000D03*
%TO.P,R2,2*%
%TO.N,GND*%
X12500000Y9500000D03*
%TO.P,R2,3*%
X17500000Y7000000D03*
%TD*%
D22*
%TO.P,U2,1,A*%
%TO.N,+3.3V*%
X22500000Y4362500D03*
D20*
%TO.P,U2,2,K*%
%TO.N,Net-(U2-K)*%
X25000000Y4362500D03*
%TO.P,U2,3,E*%
%TO.N,+3.3V*%
X25000000Y7162500D03*
%TO.P,U2,4,C*%
%TO.N,/platterSensor*%
X22500000Y7162500D03*
%TD*%
%TO.P,R1,1*%
%TO.N,Net-(U1-IN1+)*%
X26500000Y11862500D03*
%TO.P,R1,2*%
%TO.N,Net-(J1-Pin_3)*%
X24000000Y16862500D03*
%TO.P,R1,3*%
%TO.N,GND*%
X21500000Y11862500D03*
%TD*%
D23*
%TO.N,Net-(D1-A)*%
X32378370Y14207667D02*
X32596912Y14426209D01*
X30822831Y14207667D02*
X32378370Y14207667D01*
%TO.N,GND*%
X42500000Y17500000D02*
X45000000Y17500000D01*
X41500000Y18500000D02*
X42500000Y17500000D01*
X9762500Y13762500D02*
X14500000Y18500000D01*
X5250000Y13762500D02*
X9762500Y13762500D01*
X14500000Y18500000D02*
X41500000Y18500000D01*
%TO.N,+3.3V*%
X35600337Y16675000D02*
X30825000Y16675000D01*
X37175337Y15100000D02*
X35600337Y16675000D01*
X42750000Y15100000D02*
X37175337Y15100000D01*
%TO.N,Net-(D2-K)*%
X32562500Y11500000D02*
X30825000Y11500000D01*
%TO.N,+3.3V*%
X34437500Y9589000D02*
X34212000Y9363500D01*
X34437500Y11500000D02*
X34437500Y9589000D01*
%TO.N,/outputState*%
X29201230Y12715290D02*
X29175000Y12741520D01*
D24*
X35316574Y12715290D02*
X29201230Y12715290D01*
D23*
X29175000Y12741520D02*
X29175000Y11862500D01*
X36931864Y11100000D02*
X35316574Y12715290D01*
X38000000Y11100000D02*
X36931864Y11100000D01*
%TO.N,+3.3V*%
X28500000Y17500000D02*
X26000000Y15000000D01*
X17500000Y15000000D02*
X26000000Y15000000D01*
X30825000Y16675000D02*
X30000000Y17500000D01*
X30825000Y16000000D02*
X30825000Y16675000D01*
X30000000Y17500000D02*
X28500000Y17500000D01*
%TO.N,/outputState*%
X29175000Y13862500D02*
X29175000Y16000000D01*
X38000000Y11100000D02*
X42750000Y11100000D01*
%TO.N,+3.3V*%
X15000000Y12500000D02*
X17500000Y15000000D01*
X15000000Y11000000D02*
X15000000Y12500000D01*
X16500000Y9500000D02*
X15000000Y11000000D01*
X16500000Y9362500D02*
X16500000Y9500000D01*
%TO.N,GND*%
X30325000Y5000000D02*
X43500000Y5000000D01*
X7500000Y9362500D02*
X12362500Y9362500D01*
X21000000Y1000000D02*
X39500000Y1000000D01*
X45000000Y17500000D02*
X46500000Y17500000D01*
D25*
X29825000Y7350500D02*
X29788000Y7387500D01*
D23*
X41200000Y8700000D02*
X40537500Y9362500D01*
X2500000Y5500000D02*
X3037500Y4962500D01*
X2500000Y9500000D02*
X2500000Y5500000D01*
X46100000Y13100000D02*
X42750000Y13100000D01*
X3262500Y13762500D02*
X2500000Y13000000D01*
X29825000Y4675000D02*
X29825000Y4500000D01*
X29825000Y4500000D02*
X30325000Y5000000D01*
X12362500Y9362500D02*
X12500000Y9500000D01*
X27138500Y7361500D02*
X29007404Y7361500D01*
X17500000Y4500000D02*
X21000000Y1000000D01*
X41200000Y8700000D02*
X45000000Y8700000D01*
X36737500Y13100000D02*
X42750000Y13100000D01*
X17500000Y7000000D02*
X17500000Y4500000D01*
X7500000Y9362500D02*
X2637500Y9362500D01*
X42750000Y13100000D02*
X36600000Y13100000D01*
X46500000Y17500000D02*
X47000000Y17000000D01*
X27138500Y7361500D02*
X29825000Y4675000D01*
X43500000Y5000000D02*
X45000000Y6500000D01*
X47000000Y14000000D02*
X47000000Y10700000D01*
X47000000Y17000000D02*
X47000000Y14000000D01*
X3037500Y4962500D02*
X5250000Y4962500D01*
X2637500Y9362500D02*
X2500000Y9500000D01*
X45000000Y6500000D02*
X45000000Y8700000D01*
X2500000Y13000000D02*
X2500000Y9500000D01*
X47000000Y10700000D02*
X45000000Y8700000D01*
X47000000Y14000000D02*
X46100000Y13100000D01*
X40537500Y9362500D02*
X38275000Y9362500D01*
X21500000Y11862500D02*
X22637500Y11862500D01*
X5250000Y13762500D02*
X3262500Y13762500D01*
X39500000Y1000000D02*
X43500000Y5000000D01*
X22637500Y11862500D02*
X27138500Y7361500D01*
%TO.N,+3.3V*%
X7500000Y7362500D02*
X14500000Y7362500D01*
X34213000Y9362500D02*
X34212000Y9363500D01*
X14500000Y7362500D02*
X16500000Y9362500D01*
X36725000Y8275000D02*
X37000000Y8000000D01*
X18137500Y9362500D02*
X20000000Y7500000D01*
X25000000Y7162500D02*
X25200000Y7362500D01*
X37000000Y3500000D02*
X36190001Y2690001D01*
X25000000Y7162500D02*
X25000000Y6862500D01*
X21137500Y4362500D02*
X22500000Y4362500D01*
X37000000Y6500000D02*
X37000000Y8000000D01*
X36725000Y9362500D02*
X36725000Y8275000D01*
X24172499Y2690001D02*
X22500000Y4362500D01*
X25000000Y7162500D02*
X24837500Y7162500D01*
X36190001Y2690001D02*
X24172499Y2690001D01*
X16500000Y9362500D02*
X18137500Y9362500D01*
X20000000Y5500000D02*
X21137500Y4362500D01*
X36725000Y9362500D02*
X34213000Y9362500D01*
X20000000Y7500000D02*
X20000000Y5500000D01*
X25000000Y6862500D02*
X22500000Y4362500D01*
%TO.N,/outputState*%
X29175000Y13862500D02*
X29175000Y12741520D01*
X29175000Y11862500D02*
X29175000Y10862500D01*
X29175000Y9976500D02*
X29788000Y9363500D01*
X29175000Y10862500D02*
X29175000Y9976500D01*
D24*
%TO.N,Net-(U1-IN1+)*%
X29788000Y8037500D02*
X27962500Y8037500D01*
X26500000Y9500000D02*
X26500000Y11862500D01*
X27962500Y8037500D02*
X26500000Y9500000D01*
D23*
%TO.N,/platterSensor*%
X20500000Y14000000D02*
X27036696Y14000000D01*
X28137187Y10137187D02*
X28000000Y10000000D01*
X20000000Y13500000D02*
X20500000Y14000000D01*
X22337500Y7162500D02*
X17500000Y12000000D01*
X19000000Y13500000D02*
X20000000Y13500000D01*
D24*
X29788000Y8687500D02*
X28650500Y8687500D01*
D23*
X17500000Y12000000D02*
X19000000Y13500000D01*
D24*
X28650500Y8687500D02*
X28000000Y9338000D01*
D23*
X28137187Y12899509D02*
X28137187Y10137187D01*
X27036696Y14000000D02*
X28137187Y12899509D01*
X22500000Y7162500D02*
X22337500Y7162500D01*
D24*
X28000000Y9338000D02*
X28000000Y10000000D01*
D23*
%TO.N,Net-(U2-K)*%
X25000000Y4362500D02*
X28037500Y4362500D01*
X28037500Y4362500D02*
X28175000Y4500000D01*
%TO.N,Net-(J1-Pin_3)*%
X16500000Y16862500D02*
X24000000Y16862500D01*
X11000000Y11362500D02*
X16500000Y16862500D01*
X7500000Y11362500D02*
X11000000Y11362500D01*
%TD*%
%TA.AperFunction,Conductor*%
%TO.N,GND*%
G36*
X31454098Y10338661D02*
G01*
X31506023Y10307609D01*
X31606344Y10207288D01*
X31755666Y10115186D01*
X31922203Y10060001D01*
X32024991Y10049500D01*
X32673525Y10049501D01*
X32740564Y10029817D01*
X32786319Y9977013D01*
X32796263Y9907854D01*
X32791231Y9886497D01*
X32734501Y9715297D01*
X32734500Y9715296D01*
X32724000Y9612517D01*
X32724000Y9062500D01*
X32724002Y9062477D01*
X32727819Y9025104D01*
X32727819Y8999906D01*
X32724001Y8962526D01*
X32724000Y8962503D01*
X32724000Y8412500D01*
X32724002Y8412477D01*
X32727819Y8375104D01*
X32727819Y8349906D01*
X32724001Y8312526D01*
X32724000Y8312503D01*
X32724000Y7762500D01*
X32724002Y7762477D01*
X32727819Y7725104D01*
X32727819Y7699906D01*
X32724001Y7662526D01*
X32724000Y7662503D01*
X32724000Y7112499D01*
X32724001Y7112481D01*
X32734500Y7009704D01*
X32734501Y7009701D01*
X32789685Y6843169D01*
X32789687Y6843164D01*
X32790258Y6842238D01*
X32881788Y6693844D01*
X33005844Y6569788D01*
X33155166Y6477686D01*
X33321703Y6422501D01*
X33424491Y6412000D01*
X34999508Y6412001D01*
X35102297Y6422501D01*
X35102304Y6422504D01*
X35108914Y6423918D01*
X35109554Y6420928D01*
X35165898Y6422965D01*
X35226003Y6387340D01*
X35257306Y6324875D01*
X35258225Y6318989D01*
X35271360Y6219225D01*
X35279452Y6157762D01*
X35338842Y5936113D01*
X35426650Y5724124D01*
X35426657Y5724110D01*
X35541392Y5525383D01*
X35681081Y5343339D01*
X35681089Y5343330D01*
X35843330Y5181089D01*
X35843338Y5181082D01*
X35951122Y5098375D01*
X35992325Y5041947D01*
X35996479Y4972201D01*
X35962266Y4911281D01*
X35951122Y4901625D01*
X35843338Y4818919D01*
X35681081Y4656662D01*
X35541392Y4474618D01*
X35426657Y4275891D01*
X35426650Y4275877D01*
X35338842Y4063888D01*
X35279453Y3842241D01*
X35279451Y3842231D01*
X35273669Y3798314D01*
X35245402Y3734418D01*
X35187077Y3695948D01*
X35150730Y3690501D01*
X30739707Y3690501D01*
X30672668Y3710186D01*
X30626913Y3762990D01*
X30616969Y3832148D01*
X30633590Y3878651D01*
X30668019Y3935605D01*
X30718590Y4097894D01*
X30725000Y4168428D01*
X30725000Y4250000D01*
X29949000Y4250000D01*
X29881961Y4269685D01*
X29836206Y4322489D01*
X29825000Y4374000D01*
X29825000Y4500000D01*
X29699000Y4500000D01*
X29631961Y4519685D01*
X29586206Y4572489D01*
X29575000Y4624000D01*
X29575000Y4750000D01*
X30075000Y4750000D01*
X30724999Y4750000D01*
X30724999Y4831583D01*
X30718591Y4902103D01*
X30718590Y4902108D01*
X30668018Y5064397D01*
X30580072Y5209878D01*
X30459877Y5330073D01*
X30314395Y5418020D01*
X30314396Y5418020D01*
X30152105Y5468591D01*
X30152106Y5468591D01*
X30081572Y5475000D01*
X30075000Y5475000D01*
X30075000Y4750000D01*
X29575000Y4750000D01*
X29575000Y5475000D01*
X29574999Y5475001D01*
X29568436Y5475000D01*
X29568417Y5474999D01*
X29497897Y5468592D01*
X29497892Y5468591D01*
X29335601Y5418019D01*
X29335599Y5418018D01*
X29254640Y5369076D01*
X29187086Y5351240D01*
X29120612Y5372758D01*
X29094389Y5396833D01*
X29050573Y5450570D01*
X28958816Y5525388D01*
X28900751Y5572734D01*
X28829604Y5609898D01*
X28729405Y5662238D01*
X28574845Y5706463D01*
X28543552Y5715417D01*
X28543551Y5715418D01*
X28543548Y5715418D01*
X28454662Y5723320D01*
X28430138Y5725500D01*
X27919862Y5725500D01*
X27907599Y5724410D01*
X27806451Y5715418D01*
X27620594Y5662238D01*
X27449250Y5572735D01*
X27299426Y5450570D01*
X27265238Y5408640D01*
X27207617Y5369122D01*
X27169136Y5363000D01*
X26499896Y5363000D01*
X26432857Y5382685D01*
X26401520Y5411514D01*
X26318920Y5519160D01*
X26318914Y5519167D01*
X26163262Y5674819D01*
X26129777Y5736142D01*
X26134761Y5805834D01*
X26163262Y5850181D01*
X26318911Y6005830D01*
X26318914Y6005835D01*
X26318919Y6005839D01*
X26458611Y6187888D01*
X26573344Y6386612D01*
X26661158Y6598613D01*
X26720548Y6820262D01*
X26750500Y7047766D01*
X26750500Y7277234D01*
X26720548Y7504738D01*
X26682747Y7645815D01*
X26684410Y7715663D01*
X26723573Y7773525D01*
X26787801Y7801029D01*
X26856704Y7789442D01*
X26890203Y7765587D01*
X27224198Y7431592D01*
X27295700Y7360090D01*
X27356593Y7299197D01*
X27512262Y7195182D01*
X27512268Y7195179D01*
X27512269Y7195178D01*
X27685249Y7123527D01*
X27715062Y7117597D01*
X27777017Y7105273D01*
X27777050Y7105268D01*
X27777066Y7105264D01*
X27838277Y7093088D01*
X27868882Y7087000D01*
X27868883Y7087000D01*
X27868884Y7087000D01*
X28458918Y7087000D01*
X28525957Y7067315D01*
X28571712Y7014511D01*
X28575100Y7006333D01*
X28607145Y6920414D01*
X28607149Y6920407D01*
X28693309Y6805313D01*
X28693312Y6805310D01*
X28808406Y6719150D01*
X28808413Y6719146D01*
X28943120Y6668904D01*
X28943127Y6668902D01*
X29002655Y6662501D01*
X29002672Y6662500D01*
X29563000Y6662500D01*
X29563000Y6938001D01*
X29565550Y6946687D01*
X29564262Y6955648D01*
X29575240Y6979689D01*
X29582685Y7005040D01*
X29589525Y7010968D01*
X29593287Y7019204D01*
X29615521Y7033494D01*
X29635489Y7050795D01*
X29646003Y7053083D01*
X29652065Y7056978D01*
X29686996Y7062001D01*
X29889001Y7062001D01*
X29956039Y7042316D01*
X30001794Y6989512D01*
X30013000Y6938001D01*
X30013000Y6662500D01*
X30573328Y6662500D01*
X30573344Y6662501D01*
X30632872Y6668902D01*
X30632879Y6668904D01*
X30767586Y6719146D01*
X30767593Y6719150D01*
X30882687Y6805310D01*
X30882690Y6805313D01*
X30968850Y6920407D01*
X30968854Y6920414D01*
X31019096Y7055121D01*
X31019098Y7055128D01*
X31025499Y7114656D01*
X31025500Y7114673D01*
X31025500Y7199770D01*
X31045185Y7266809D01*
X31061819Y7287451D01*
X31073566Y7299198D01*
X31118212Y7343844D01*
X31210314Y7493166D01*
X31265499Y7659703D01*
X31276000Y7762491D01*
X31275999Y8312508D01*
X31272179Y8349901D01*
X31272179Y8375095D01*
X31276000Y8412491D01*
X31275999Y8962508D01*
X31272179Y8999901D01*
X31272179Y9025095D01*
X31276000Y9062491D01*
X31275999Y9612508D01*
X31265499Y9715297D01*
X31210314Y9881834D01*
X31118212Y10031156D01*
X31079315Y10070053D01*
X31045830Y10131376D01*
X31050814Y10201068D01*
X31092686Y10257001D01*
X31156016Y10281246D01*
X31193552Y10284583D01*
X31379406Y10337763D01*
X31379408Y10337765D01*
X31384230Y10339144D01*
X31454098Y10338661D01*
G37*
%TD.AperFunction*%
%TA.AperFunction,Conductor*%
G36*
X13928012Y12773080D02*
G01*
X13983945Y12731208D01*
X14008362Y12665744D01*
X14006296Y12632708D01*
X13999500Y12598541D01*
X13999500Y10901458D01*
X14013901Y10829061D01*
X14013901Y10829060D01*
X14028903Y10753639D01*
X14037947Y10708171D01*
X14037949Y10708163D01*
X14113364Y10526093D01*
X14113371Y10526080D01*
X14222859Y10362220D01*
X14222860Y10362219D01*
X14222861Y10362218D01*
X14362218Y10222861D01*
X14362219Y10222861D01*
X14369286Y10215794D01*
X14369285Y10215794D01*
X14369288Y10215792D01*
X15066149Y9518931D01*
X15099633Y9457609D01*
X15094649Y9387917D01*
X15066148Y9343570D01*
X14121899Y8399319D01*
X14060576Y8365834D01*
X14034218Y8363000D01*
X13771386Y8363000D01*
X13704347Y8382685D01*
X13658592Y8435489D01*
X13648648Y8504647D01*
X13671068Y8559886D01*
X13782914Y8713829D01*
X13890102Y8924198D01*
X13963065Y9148753D01*
X14000000Y9381948D01*
X14000000Y9618053D01*
X13963065Y9851248D01*
X13890102Y10075803D01*
X13782914Y10286172D01*
X13722658Y10369106D01*
X13722658Y10369107D01*
X12942137Y9588586D01*
X12919333Y9673694D01*
X12860090Y9776306D01*
X12776306Y9860090D01*
X12673694Y9919333D01*
X12588584Y9942139D01*
X13369105Y10722660D01*
X13369104Y10722662D01*
X13286174Y10782913D01*
X13075802Y10890103D01*
X12851247Y10963066D01*
X12851248Y10963066D01*
X12618052Y11000000D01*
X12381947Y11000000D01*
X12367336Y10997686D01*
X12298043Y11006641D01*
X12244591Y11051638D01*
X12223952Y11118389D01*
X12242677Y11185703D01*
X12260253Y11207835D01*
X13797000Y12744582D01*
X13858320Y12778064D01*
X13928012Y12773080D01*
G37*
%TD.AperFunction*%
%TA.AperFunction,Conductor*%
G36*
X24926193Y12997790D02*
G01*
X24932155Y12998939D01*
X24959330Y12988060D01*
X24987408Y12979815D01*
X24991382Y12975228D01*
X24997020Y12972971D01*
X25014000Y12949126D01*
X25033163Y12927011D01*
X25034026Y12921004D01*
X25037549Y12916057D01*
X25038941Y12886821D01*
X25043107Y12857853D01*
X25040658Y12850780D01*
X25040874Y12846266D01*
X25027756Y12813500D01*
X24926657Y12638392D01*
X24926650Y12638377D01*
X24838842Y12426388D01*
X24810565Y12320855D01*
X24781191Y12211226D01*
X24779453Y12204741D01*
X24779451Y12204730D01*
X24749500Y11977242D01*
X24749500Y11747759D01*
X24769212Y11598043D01*
X24779452Y11520262D01*
X24838842Y11298613D01*
X24926650Y11086624D01*
X24926657Y11086610D01*
X25041392Y10887883D01*
X25181081Y10705839D01*
X25181089Y10705830D01*
X25343329Y10543590D01*
X25343333Y10543587D01*
X25343339Y10543581D01*
X25500989Y10422611D01*
X25542189Y10366186D01*
X25549500Y10324238D01*
X25549500Y9406379D01*
X25586024Y9222758D01*
X25586027Y9222749D01*
X25657673Y9049777D01*
X25657677Y9049770D01*
X25674158Y9025104D01*
X25679124Y9017673D01*
X25700002Y8950995D01*
X25681518Y8883615D01*
X25629540Y8836925D01*
X25560570Y8825748D01*
X25543929Y8829006D01*
X25441523Y8856445D01*
X25342238Y8883048D01*
X25304215Y8888054D01*
X25114741Y8913000D01*
X25114734Y8913000D01*
X24885266Y8913000D01*
X24885258Y8913000D01*
X24668715Y8884491D01*
X24657762Y8883048D01*
X24564076Y8857946D01*
X24436112Y8823658D01*
X24224123Y8735850D01*
X24224109Y8735843D01*
X24025382Y8621108D01*
X23843338Y8481419D01*
X23837681Y8475762D01*
X23776358Y8442277D01*
X23706666Y8447261D01*
X23662319Y8475762D01*
X23656670Y8481411D01*
X23656661Y8481419D01*
X23474617Y8621108D01*
X23275890Y8735843D01*
X23275876Y8735850D01*
X23063887Y8823658D01*
X23014373Y8836925D01*
X22842238Y8883048D01*
X22804215Y8888054D01*
X22614741Y8913000D01*
X22614734Y8913000D01*
X22385266Y8913000D01*
X22385258Y8913000D01*
X22183040Y8886376D01*
X22157762Y8883048D01*
X22157759Y8883048D01*
X22157747Y8883045D01*
X22127625Y8874974D01*
X22057775Y8876637D01*
X22007852Y8907068D01*
X20443817Y10471103D01*
X20410332Y10532426D01*
X20415316Y10602118D01*
X20457188Y10658051D01*
X20522652Y10682468D01*
X20590925Y10667616D01*
X20604384Y10659102D01*
X20713828Y10579586D01*
X20924197Y10472398D01*
X21148752Y10399435D01*
X21148751Y10399435D01*
X21381948Y10362500D01*
X21618052Y10362500D01*
X21851247Y10399435D01*
X22075802Y10472398D01*
X22286163Y10579582D01*
X22286169Y10579586D01*
X22369104Y10639842D01*
X22369105Y10639842D01*
X21588585Y11420362D01*
X21673694Y11443167D01*
X21776306Y11502410D01*
X21860090Y11586194D01*
X21919333Y11688806D01*
X21942138Y11773915D01*
X22722658Y10993395D01*
X22722658Y10993396D01*
X22782914Y11076331D01*
X22782918Y11076337D01*
X22890102Y11286698D01*
X22963065Y11511253D01*
X23000000Y11744448D01*
X23000000Y11980553D01*
X22963065Y12213748D01*
X22890102Y12438303D01*
X22782914Y12648672D01*
X22671068Y12802614D01*
X22647588Y12868421D01*
X22663413Y12936475D01*
X22713519Y12985169D01*
X22771386Y12999500D01*
X24920369Y12999500D01*
X24926193Y12997790D01*
G37*
%TD.AperFunction*%
%TA.AperFunction,Conductor*%
G36*
X49442539Y19479815D02*
G01*
X49488294Y19427011D01*
X49499500Y19375500D01*
X49499500Y624500D01*
X49479815Y557461D01*
X49427011Y511706D01*
X49375500Y500500D01*
X624500Y500500D01*
X557461Y520185D01*
X511706Y572989D01*
X500500Y624500D01*
X500500Y4362514D01*
X3250001Y4362514D01*
X3260494Y4259803D01*
X3315641Y4093381D01*
X3315643Y4093376D01*
X3407684Y3944155D01*
X3531654Y3820185D01*
X3680875Y3728144D01*
X3680880Y3728142D01*
X3847302Y3672995D01*
X3847309Y3672994D01*
X3950019Y3662501D01*
X4999999Y3662501D01*
X5500000Y3662501D01*
X6549972Y3662501D01*
X6549986Y3662502D01*
X6652697Y3672995D01*
X6819119Y3728142D01*
X6819124Y3728144D01*
X6968345Y3820185D01*
X7092315Y3944155D01*
X7184356Y4093376D01*
X7184358Y4093381D01*
X7239505Y4259803D01*
X7239506Y4259810D01*
X7249999Y4362514D01*
X7250000Y4362527D01*
X7250000Y4712500D01*
X5500000Y4712500D01*
X5500000Y3662501D01*
X4999999Y3662501D01*
X5000000Y3662502D01*
X5000000Y4712500D01*
X3250001Y4712500D01*
X3250001Y4362514D01*
X500500Y4362514D01*
X500500Y5562487D01*
X3250000Y5562487D01*
X3250000Y5212500D01*
X7249999Y5212500D01*
X7249999Y5562472D01*
X7249998Y5562487D01*
X7239505Y5665198D01*
X7202607Y5776548D01*
X7123236Y5931457D01*
X7117591Y5961141D01*
X7109614Y5990296D01*
X7111129Y5995125D01*
X7110184Y6000097D01*
X7121486Y6028127D01*
X7130536Y6056960D01*
X7134421Y6060203D01*
X7136314Y6064896D01*
X7160970Y6082362D01*
X7184178Y6101730D01*
X7190033Y6102948D01*
X7193330Y6105282D01*
X7203468Y6105740D01*
X7233590Y6112001D01*
X10058036Y6112001D01*
X10177418Y6122614D01*
X10373049Y6178591D01*
X10553407Y6272802D01*
X10553412Y6272806D01*
X10628587Y6334102D01*
X10692983Y6361211D01*
X10706947Y6362000D01*
X14598543Y6362000D01*
X14632185Y6368693D01*
X14715506Y6385266D01*
X14791836Y6400449D01*
X14845165Y6422539D01*
X14973914Y6475868D01*
X15137782Y6585361D01*
X15277139Y6724718D01*
X15277140Y6724721D01*
X15284206Y6731786D01*
X15284208Y6731790D01*
X15792162Y7239744D01*
X15853483Y7273227D01*
X15923175Y7268243D01*
X15979108Y7226371D01*
X16003525Y7160907D01*
X16002314Y7132664D01*
X16000000Y7118054D01*
X16000000Y6881948D01*
X16036934Y6648753D01*
X16109897Y6424198D01*
X16217087Y6213826D01*
X16277338Y6130896D01*
X16277340Y6130895D01*
X17057861Y6911416D01*
X17080667Y6826306D01*
X17139910Y6723694D01*
X17223694Y6639910D01*
X17326306Y6580667D01*
X17411415Y6557862D01*
X16630893Y5777342D01*
X16713828Y5717086D01*
X16924197Y5609898D01*
X17148752Y5536935D01*
X17148751Y5536935D01*
X17381948Y5500000D01*
X17618052Y5500000D01*
X17851247Y5536935D01*
X18075802Y5609898D01*
X18286163Y5717082D01*
X18286169Y5717086D01*
X18369104Y5777342D01*
X18369105Y5777342D01*
X17588584Y6557862D01*
X17673694Y6580667D01*
X17776306Y6639910D01*
X17860090Y6723694D01*
X17919333Y6826306D01*
X17942138Y6911415D01*
X18722658Y6130895D01*
X18722658Y6130896D01*
X18775182Y6203187D01*
X18830512Y6245852D01*
X18900125Y6251831D01*
X18961920Y6219225D01*
X18996278Y6158386D01*
X18999500Y6130301D01*
X18999500Y5401459D01*
X18999500Y5401457D01*
X18999499Y5401457D01*
X19037947Y5208171D01*
X19037950Y5208161D01*
X19113364Y5026093D01*
X19113371Y5026080D01*
X19222860Y4862219D01*
X19222863Y4862215D01*
X19366537Y4718541D01*
X19366559Y4718521D01*
X20357235Y3727845D01*
X20357264Y3727814D01*
X20499717Y3585361D01*
X20663580Y3475872D01*
X20663586Y3475868D01*
X20672950Y3471990D01*
X20727353Y3428152D01*
X20749421Y3361859D01*
X20749500Y3357431D01*
X20749500Y3312501D01*
X20749501Y3312481D01*
X20760000Y3209704D01*
X20760001Y3209701D01*
X20777213Y3157760D01*
X20815186Y3043166D01*
X20907288Y2893844D01*
X21031344Y2769788D01*
X21180666Y2677686D01*
X21347203Y2622501D01*
X21449991Y2612000D01*
X22784216Y2612001D01*
X22851255Y2592316D01*
X22871897Y2575682D01*
X23395359Y2052220D01*
X23395360Y2052219D01*
X23520921Y1926658D01*
X23534718Y1912861D01*
X23698578Y1803373D01*
X23698591Y1803366D01*
X23827332Y1750040D01*
X23870243Y1732266D01*
X23880663Y1727950D01*
X23977311Y1708726D01*
X23983716Y1707452D01*
X24073957Y1689501D01*
X24073958Y1689501D01*
X36288543Y1689501D01*
X36315020Y1694769D01*
X36385189Y1708726D01*
X36481837Y1727950D01*
X36535166Y1750040D01*
X36593397Y1774161D01*
X36598804Y1775841D01*
X36628297Y1776306D01*
X36653611Y1779028D01*
X36653737Y1779982D01*
X36657761Y1779453D01*
X36657762Y1779452D01*
X36885266Y1749500D01*
X36885273Y1749500D01*
X37114727Y1749500D01*
X37114734Y1749500D01*
X37342238Y1779452D01*
X37563887Y1838842D01*
X37775888Y1926656D01*
X37974612Y2041389D01*
X38156661Y2181081D01*
X38156665Y2181086D01*
X38156670Y2181089D01*
X38318911Y2343330D01*
X38318914Y2343335D01*
X38318919Y2343339D01*
X38458611Y2525388D01*
X38573344Y2724112D01*
X38661158Y2936113D01*
X38720548Y3157762D01*
X38750500Y3385266D01*
X38750500Y3614734D01*
X38720548Y3842238D01*
X38661158Y4063887D01*
X38611190Y4184520D01*
X38573349Y4275877D01*
X38573346Y4275883D01*
X38573344Y4275888D01*
X38458611Y4474612D01*
X38458608Y4474615D01*
X38458607Y4474618D01*
X38318918Y4656662D01*
X38318911Y4656670D01*
X38156670Y4818911D01*
X38156665Y4818915D01*
X38156661Y4818919D01*
X38048875Y4901627D01*
X38007675Y4958052D01*
X38003520Y5027799D01*
X38037733Y5088719D01*
X38048865Y5098367D01*
X38156661Y5181081D01*
X38188080Y5212500D01*
X38318911Y5343330D01*
X38318914Y5343335D01*
X38318919Y5343339D01*
X38458611Y5525388D01*
X38573344Y5724112D01*
X38661158Y5936113D01*
X38720548Y6157762D01*
X38750500Y6385266D01*
X38750500Y6614734D01*
X38720548Y6842238D01*
X38661158Y7063887D01*
X38604873Y7199770D01*
X38573349Y7275877D01*
X38573346Y7275883D01*
X38573344Y7275888D01*
X38458611Y7474612D01*
X38458608Y7474615D01*
X38458607Y7474618D01*
X38318918Y7656662D01*
X38249193Y7726387D01*
X38156661Y7818919D01*
X38049012Y7901522D01*
X38007810Y7957950D01*
X38000500Y7999897D01*
X38000500Y8098544D01*
X38000208Y8100014D01*
X43000001Y8100014D01*
X43010494Y7997303D01*
X43065641Y7830881D01*
X43065643Y7830876D01*
X43157684Y7681655D01*
X43281654Y7557685D01*
X43430875Y7465644D01*
X43430880Y7465642D01*
X43597302Y7410495D01*
X43597309Y7410494D01*
X43700019Y7400001D01*
X44749999Y7400001D01*
X45250000Y7400001D01*
X46299972Y7400001D01*
X46299986Y7400002D01*
X46402697Y7410495D01*
X46569119Y7465642D01*
X46569124Y7465644D01*
X46718345Y7557685D01*
X46842315Y7681655D01*
X46934356Y7830876D01*
X46934358Y7830881D01*
X46989505Y7997303D01*
X46989506Y7997310D01*
X46999999Y8100014D01*
X47000000Y8100027D01*
X47000000Y8450000D01*
X45250000Y8450000D01*
X45250000Y7400001D01*
X44749999Y7400001D01*
X44750000Y7400002D01*
X44750000Y8450000D01*
X43000001Y8450000D01*
X43000001Y8100014D01*
X38000208Y8100014D01*
X37972905Y8237269D01*
X37972905Y8237270D01*
X37969554Y8254116D01*
X37975778Y8323705D01*
X38003488Y8365989D01*
X38024999Y8387501D01*
X38525000Y8387501D01*
X38548308Y8387501D01*
X38548322Y8387502D01*
X38647607Y8397645D01*
X38808481Y8450953D01*
X38808492Y8450958D01*
X38952728Y8539925D01*
X38952732Y8539928D01*
X39001848Y8589043D01*
X39072572Y8659768D01*
X39072575Y8659772D01*
X39161542Y8804008D01*
X39161547Y8804019D01*
X39214855Y8964894D01*
X39224999Y9064178D01*
X39225000Y9064191D01*
X39225000Y9112500D01*
X38525000Y9112500D01*
X38525000Y8387501D01*
X38024999Y8387501D01*
X38025000Y8387502D01*
X38025000Y9238500D01*
X38044685Y9305539D01*
X38097489Y9351294D01*
X38149000Y9362500D01*
X38275000Y9362500D01*
X38275000Y9488500D01*
X38294685Y9555539D01*
X38347489Y9601294D01*
X38399000Y9612500D01*
X39224999Y9612500D01*
X39224999Y9660808D01*
X39224998Y9660823D01*
X39214855Y9760108D01*
X39161546Y9920984D01*
X39160563Y9923093D01*
X39160322Y9924680D01*
X39159275Y9927839D01*
X39159814Y9928018D01*
X39150070Y9992171D01*
X39178588Y10055955D01*
X39237064Y10094196D01*
X39272944Y10099500D01*
X39543053Y10099500D01*
X39610092Y10079815D01*
X39621413Y10071602D01*
X39696587Y10010306D01*
X39696590Y10010305D01*
X39696593Y10010302D01*
X39876951Y9916091D01*
X40072582Y9860114D01*
X40191963Y9849500D01*
X43016407Y9849501D01*
X43083445Y9829816D01*
X43129200Y9777013D01*
X43139144Y9707854D01*
X43121945Y9660405D01*
X43065645Y9569129D01*
X43065641Y9569120D01*
X43010494Y9402698D01*
X43010493Y9402691D01*
X43000000Y9299987D01*
X43000000Y8950000D01*
X46999999Y8950000D01*
X46999999Y9299972D01*
X46999998Y9299987D01*
X46989505Y9402698D01*
X46934358Y9569120D01*
X46934356Y9569125D01*
X46842315Y9718346D01*
X46718345Y9842316D01*
X46569124Y9934357D01*
X46569119Y9934359D01*
X46402697Y9989506D01*
X46402690Y9989507D01*
X46299986Y10000000D01*
X46108964Y10000000D01*
X46041925Y10019685D01*
X45996170Y10072489D01*
X45986226Y10141647D01*
X46012862Y10202361D01*
X46027532Y10220353D01*
X46089698Y10296593D01*
X46183909Y10476951D01*
X46239886Y10672582D01*
X46250500Y10791963D01*
X46250499Y11408036D01*
X46239886Y11527418D01*
X46183909Y11723049D01*
X46089698Y11903407D01*
X46023102Y11985081D01*
X45961109Y12061110D01*
X45825471Y12171708D01*
X45785954Y12229329D01*
X45783862Y12299168D01*
X45816152Y12355493D01*
X45842317Y12381658D01*
X45934356Y12530876D01*
X45934358Y12530881D01*
X45989505Y12697303D01*
X45989506Y12697310D01*
X45999999Y12800014D01*
X46000000Y12800027D01*
X46000000Y12850000D01*
X39500001Y12850000D01*
X39500001Y12800014D01*
X39510494Y12697303D01*
X39565641Y12530881D01*
X39565643Y12530876D01*
X39657684Y12381655D01*
X39683848Y12355491D01*
X39691181Y12342062D01*
X39702442Y12331698D01*
X39707585Y12312019D01*
X39717333Y12294168D01*
X39716241Y12278904D01*
X39720111Y12264099D01*
X39713799Y12244766D01*
X39712349Y12224476D01*
X39702851Y12211226D01*
X39698430Y12197679D01*
X39674529Y12171709D01*
X39621415Y12128399D01*
X39557019Y12101289D01*
X39543053Y12100500D01*
X37397646Y12100500D01*
X37330607Y12120185D01*
X37309965Y12136819D01*
X35954358Y13492427D01*
X35954354Y13492430D01*
X35790494Y13601918D01*
X35790484Y13601923D01*
X35608410Y13677341D01*
X35608404Y13677343D01*
X35559220Y13687126D01*
X35497309Y13719511D01*
X35462735Y13780227D01*
X35459412Y13808743D01*
X35459412Y14176209D01*
X34595912Y14176209D01*
X34528873Y14195894D01*
X34483118Y14248698D01*
X34471912Y14300209D01*
X34471912Y14552209D01*
X34491597Y14619248D01*
X34544401Y14665003D01*
X34595912Y14676209D01*
X35459412Y14676209D01*
X35459412Y15101643D01*
X35479097Y15168682D01*
X35531901Y15214437D01*
X35601059Y15224381D01*
X35664615Y15195356D01*
X35671087Y15189330D01*
X36398197Y14462219D01*
X36398198Y14462218D01*
X36497929Y14362487D01*
X36537556Y14322860D01*
X36648548Y14248698D01*
X36701423Y14213368D01*
X36808082Y14169189D01*
X36883501Y14137949D01*
X37076791Y14099501D01*
X37076794Y14099500D01*
X37076796Y14099500D01*
X39543053Y14099500D01*
X39566685Y14092561D01*
X39591165Y14089786D01*
X39605517Y14081159D01*
X39610092Y14079815D01*
X39621414Y14071602D01*
X39674528Y14028293D01*
X39714045Y13970672D01*
X39716137Y13900833D01*
X39683850Y13844511D01*
X39657682Y13818344D01*
X39565643Y13669125D01*
X39565641Y13669120D01*
X39510494Y13502698D01*
X39510493Y13502691D01*
X39500000Y13399987D01*
X39500000Y13350000D01*
X45999999Y13350000D01*
X45999999Y13399972D01*
X45999998Y13399987D01*
X45989505Y13502698D01*
X45934358Y13669120D01*
X45934356Y13669125D01*
X45842317Y13818344D01*
X45816149Y13844512D01*
X45782665Y13905836D01*
X45787651Y13975527D01*
X45825472Y14028294D01*
X45878586Y14071602D01*
X45893215Y14083532D01*
X45961107Y14138889D01*
X45961109Y14138891D01*
X46089698Y14296593D01*
X46183909Y14476951D01*
X46239886Y14672582D01*
X46250500Y14791963D01*
X46250499Y15408036D01*
X46239886Y15527418D01*
X46183909Y15723049D01*
X46089698Y15903407D01*
X46012860Y15997641D01*
X45985752Y16062036D01*
X45997761Y16130866D01*
X46045077Y16182277D01*
X46108963Y16200001D01*
X46299972Y16200001D01*
X46299986Y16200002D01*
X46402697Y16210495D01*
X46569119Y16265642D01*
X46569124Y16265644D01*
X46718345Y16357685D01*
X46842315Y16481655D01*
X46934356Y16630876D01*
X46934358Y16630881D01*
X46989505Y16797303D01*
X46989506Y16797310D01*
X46999999Y16900014D01*
X47000000Y16900027D01*
X47000000Y17250000D01*
X43000001Y17250000D01*
X43000001Y16900014D01*
X43010494Y16797303D01*
X43065641Y16630881D01*
X43065643Y16630876D01*
X43121945Y16539597D01*
X43140385Y16472204D01*
X43119462Y16405541D01*
X43065820Y16360771D01*
X43016406Y16350500D01*
X40191971Y16350500D01*
X40191965Y16350500D01*
X40191964Y16350499D01*
X40180316Y16349464D01*
X40072584Y16339887D01*
X39876954Y16283911D01*
X39696587Y16189695D01*
X39621413Y16128398D01*
X39557017Y16101289D01*
X39543053Y16100500D01*
X37641120Y16100500D01*
X37574081Y16120185D01*
X37553439Y16136819D01*
X36384546Y17305711D01*
X36384543Y17305715D01*
X36384543Y17305714D01*
X36377476Y17312781D01*
X36377476Y17312782D01*
X36238119Y17452139D01*
X36238118Y17452140D01*
X36238117Y17452141D01*
X36074257Y17561629D01*
X36074248Y17561634D01*
X36001652Y17591704D01*
X35945502Y17614962D01*
X35892173Y17637051D01*
X35892169Y17637052D01*
X35892165Y17637054D01*
X35795525Y17656276D01*
X35698881Y17675500D01*
X35698878Y17675500D01*
X31290782Y17675500D01*
X31223743Y17695185D01*
X31203101Y17711819D01*
X30814933Y18099987D01*
X43000000Y18099987D01*
X43000000Y17750000D01*
X44750000Y17750000D01*
X45250000Y17750000D01*
X46999999Y17750000D01*
X46999999Y18099972D01*
X46999998Y18099987D01*
X46989505Y18202698D01*
X46934358Y18369120D01*
X46934354Y18369128D01*
X46842315Y18518346D01*
X46718345Y18642316D01*
X46569124Y18734357D01*
X46569119Y18734359D01*
X46402697Y18789506D01*
X46402690Y18789507D01*
X46299986Y18800000D01*
X45250000Y18800000D01*
X45250000Y17750000D01*
X44750000Y17750000D01*
X44750000Y18800000D01*
X43700028Y18800000D01*
X43700012Y18799999D01*
X43597302Y18789506D01*
X43430880Y18734359D01*
X43430875Y18734357D01*
X43281654Y18642316D01*
X43157684Y18518346D01*
X43065646Y18369128D01*
X43065641Y18369120D01*
X43010494Y18202698D01*
X43010493Y18202691D01*
X43000000Y18099987D01*
X30814933Y18099987D01*
X30781479Y18133441D01*
X30781459Y18133463D01*
X30637785Y18277137D01*
X30637781Y18277140D01*
X30473920Y18386629D01*
X30473911Y18386634D01*
X30401315Y18416704D01*
X30345165Y18439962D01*
X30291836Y18462051D01*
X30291832Y18462052D01*
X30291828Y18462054D01*
X30195188Y18481276D01*
X30098544Y18500500D01*
X30098541Y18500500D01*
X28401459Y18500500D01*
X28401455Y18500500D01*
X28304812Y18481276D01*
X28208167Y18462053D01*
X28208161Y18462051D01*
X28154834Y18439963D01*
X28154834Y18439962D01*
X28109315Y18421108D01*
X28026089Y18386634D01*
X28026079Y18386629D01*
X27862219Y18277141D01*
X27792540Y18207462D01*
X27722861Y18137782D01*
X25906933Y16321854D01*
X25845610Y16288369D01*
X25775918Y16293353D01*
X25719985Y16335225D01*
X25695568Y16400689D01*
X25699476Y16441620D01*
X25720548Y16520262D01*
X25750500Y16747766D01*
X25750500Y16977234D01*
X25720548Y17204738D01*
X25661158Y17426387D01*
X25605139Y17561629D01*
X25573349Y17638377D01*
X25573346Y17638383D01*
X25573344Y17638388D01*
X25458611Y17837112D01*
X25458608Y17837115D01*
X25458607Y17837118D01*
X25318918Y18019162D01*
X25318911Y18019170D01*
X25156670Y18181411D01*
X25156661Y18181419D01*
X24974617Y18321108D01*
X24775890Y18435843D01*
X24775876Y18435850D01*
X24563887Y18523658D01*
X24342238Y18583048D01*
X24304215Y18588054D01*
X24114741Y18613000D01*
X24114734Y18613000D01*
X23885266Y18613000D01*
X23885258Y18613000D01*
X23668715Y18584491D01*
X23657762Y18583048D01*
X23564076Y18557946D01*
X23436112Y18523658D01*
X23224123Y18435850D01*
X23224109Y18435843D01*
X23025382Y18321108D01*
X22843338Y18181419D01*
X22843330Y18181411D01*
X22681085Y18019167D01*
X22681079Y18019160D01*
X22598480Y17911514D01*
X22542052Y17870311D01*
X22500104Y17863000D01*
X16604675Y17863000D01*
X16604655Y17863001D01*
X16598541Y17863001D01*
X16401460Y17863001D01*
X16401457Y17863001D01*
X16208172Y17824554D01*
X16208164Y17824552D01*
X16026088Y17749134D01*
X16026079Y17749129D01*
X15862219Y17639641D01*
X15862215Y17639638D01*
X10697517Y12474939D01*
X10636194Y12441454D01*
X10566502Y12446438D01*
X10552425Y12452711D01*
X10460628Y12500662D01*
X10373049Y12546409D01*
X10373048Y12546410D01*
X10373047Y12546410D01*
X10281047Y12572734D01*
X10177418Y12602386D01*
X10177415Y12602387D01*
X10177413Y12602387D01*
X10104631Y12608858D01*
X10058037Y12613000D01*
X10058033Y12613000D01*
X7233594Y12613000D01*
X7166555Y12632685D01*
X7120800Y12685489D01*
X7110856Y12754647D01*
X7128055Y12802097D01*
X7184356Y12893376D01*
X7184358Y12893381D01*
X7239505Y13059803D01*
X7239506Y13059810D01*
X7249999Y13162514D01*
X7250000Y13162527D01*
X7250000Y13512500D01*
X3250001Y13512500D01*
X3250001Y13162514D01*
X3260494Y13059803D01*
X3315641Y12893381D01*
X3315643Y12893376D01*
X3407684Y12744155D01*
X3531654Y12620185D01*
X3680875Y12528144D01*
X3680880Y12528142D01*
X3847302Y12472995D01*
X3847309Y12472994D01*
X3950019Y12462501D01*
X4141035Y12462501D01*
X4208075Y12442817D01*
X4253830Y12390013D01*
X4263774Y12320855D01*
X4237138Y12260141D01*
X4160305Y12165913D01*
X4066089Y11985546D01*
X4042588Y11903410D01*
X4013931Y11803256D01*
X4010114Y11789917D01*
X4010113Y11789914D01*
X4002848Y11708197D01*
X4001241Y11690113D01*
X3999500Y11670534D01*
X3999500Y11054472D01*
X3999501Y11054466D01*
X4010113Y10935085D01*
X4066089Y10739455D01*
X4066090Y10739452D01*
X4066091Y10739451D01*
X4160302Y10559093D01*
X4182046Y10532426D01*
X4288890Y10401391D01*
X4424528Y10290793D01*
X4464045Y10233172D01*
X4466137Y10163333D01*
X4433850Y10107011D01*
X4407682Y10080844D01*
X4315643Y9931625D01*
X4315641Y9931620D01*
X4260494Y9765198D01*
X4260493Y9765191D01*
X4250000Y9662487D01*
X4250000Y9612500D01*
X10749999Y9612500D01*
X10749999Y9662472D01*
X10749998Y9662487D01*
X10739505Y9765198D01*
X10684358Y9931620D01*
X10684356Y9931625D01*
X10592317Y10080844D01*
X10566149Y10107012D01*
X10558815Y10120444D01*
X10547555Y10130807D01*
X10542412Y10150485D01*
X10532665Y10168336D01*
X10533757Y10183602D01*
X10529888Y10198406D01*
X10536199Y10217739D01*
X10537651Y10238027D01*
X10547149Y10251279D01*
X10551572Y10264826D01*
X10575470Y10290793D01*
X10602706Y10313000D01*
X10628588Y10334103D01*
X10692985Y10361211D01*
X10706947Y10362000D01*
X11053372Y10362000D01*
X11120411Y10342315D01*
X11166166Y10289511D01*
X11176110Y10220353D01*
X11163857Y10181705D01*
X11109897Y10075803D01*
X11036934Y9851248D01*
X11000000Y9618053D01*
X11000000Y9381948D01*
X11036934Y9148753D01*
X11109897Y8924198D01*
X11217085Y8713829D01*
X11328932Y8559886D01*
X11352412Y8494079D01*
X11336587Y8426025D01*
X11286481Y8377331D01*
X11228614Y8363000D01*
X10706947Y8363000D01*
X10683314Y8369940D01*
X10658835Y8372714D01*
X10644482Y8381342D01*
X10639908Y8382685D01*
X10628586Y8390898D01*
X10575471Y8434208D01*
X10535954Y8491830D01*
X10533862Y8561668D01*
X10566152Y8617993D01*
X10592317Y8644158D01*
X10684356Y8793376D01*
X10684358Y8793381D01*
X10739505Y8959803D01*
X10739506Y8959810D01*
X10749999Y9062514D01*
X10750000Y9062527D01*
X10750000Y9112500D01*
X4250001Y9112500D01*
X4250001Y9062514D01*
X4260494Y8959803D01*
X4315641Y8793381D01*
X4315643Y8793376D01*
X4407684Y8644155D01*
X4433848Y8617991D01*
X4467333Y8556668D01*
X4462349Y8486976D01*
X4424528Y8434209D01*
X4288893Y8323613D01*
X4168906Y8176459D01*
X4160302Y8165907D01*
X4125115Y8098544D01*
X4066089Y7985546D01*
X4010114Y7789917D01*
X4010113Y7789914D01*
X4004351Y7725104D01*
X4000489Y7681655D01*
X3999500Y7670534D01*
X3999500Y7054472D01*
X3999500Y7054467D01*
X3999501Y7054464D01*
X4000097Y7047759D01*
X4010113Y6935085D01*
X4066089Y6739455D01*
X4066090Y6739452D01*
X4066091Y6739451D01*
X4160302Y6559093D01*
X4226679Y6477688D01*
X4237138Y6464861D01*
X4264247Y6400464D01*
X4252238Y6331635D01*
X4204922Y6280224D01*
X4141037Y6262500D01*
X3950029Y6262500D01*
X3950012Y6262499D01*
X3847302Y6252006D01*
X3680880Y6196859D01*
X3680875Y6196857D01*
X3531654Y6104816D01*
X3407684Y5980846D01*
X3315643Y5831625D01*
X3315641Y5831620D01*
X3260494Y5665198D01*
X3260493Y5665191D01*
X3250000Y5562487D01*
X500500Y5562487D01*
X500500Y14362487D01*
X3250000Y14362487D01*
X3250000Y14012500D01*
X5000000Y14012500D01*
X5500000Y14012500D01*
X7249999Y14012500D01*
X7249999Y14362472D01*
X7249998Y14362487D01*
X7239505Y14465198D01*
X7184358Y14631620D01*
X7184356Y14631625D01*
X7092315Y14780846D01*
X6968345Y14904816D01*
X6819124Y14996857D01*
X6819119Y14996859D01*
X6652697Y15052006D01*
X6652690Y15052007D01*
X6549986Y15062500D01*
X5500000Y15062500D01*
X5500000Y14012500D01*
X5000000Y14012500D01*
X5000000Y15062500D01*
X3950028Y15062500D01*
X3950012Y15062499D01*
X3847302Y15052006D01*
X3680880Y14996859D01*
X3680875Y14996857D01*
X3531654Y14904816D01*
X3407684Y14780846D01*
X3315643Y14631625D01*
X3315641Y14631620D01*
X3260494Y14465198D01*
X3260493Y14465191D01*
X3250000Y14362487D01*
X500500Y14362487D01*
X500500Y19375500D01*
X520185Y19442539D01*
X572989Y19488294D01*
X624500Y19499500D01*
X49375500Y19499500D01*
X49442539Y19479815D01*
G37*
%TD.AperFunction*%
%TD*%
M02*
