%TF.GenerationSoftware,KiCad,Pcbnew,9.0.7*%
%TF.CreationDate,2026-03-09T13:46:19-06:00*%
%TF.ProjectId,Photoeye PCB_V1,50686f74-6f65-4796-9520-5043425f5631,rev?*%
%TF.SameCoordinates,PX68e7780PY6422c40*%
%TF.FileFunction,Copper,L1,Top*%
%TF.FilePolarity,Positive*%
%FSLAX46Y46*%
G04 Gerber Fmt 4.6, Leading zero omitted, Abs format (unit mm)*
G04 Created by KiCad (PCBNEW 9.0.7) date 2026-03-09 13:46:19*
%MOMM*%
%LPD*%
G01*
G04 APERTURE LIST*
G04 Aperture macros list*
%AMRoundRect*
0 Rectangle with rounded corners*
0 $1 Rounding radius*
0 $2 $3 $4 $5 $6 $7 $8 $9 X,Y pos of 4 corners*
0 Add a 4 corners polygon primitive as box body*
4,1,4,$2,$3,$4,$5,$6,$7,$8,$9,$2,$3,0*
0 Add four circle primitives for the rounded corners*
1,1,$1+$1,$2,$3*
1,1,$1+$1,$4,$5*
1,1,$1+$1,$6,$7*
1,1,$1+$1,$8,$9*
0 Add four rect primitives between the rounded corners*
20,1,$1+$1,$2,$3,$4,$5,0*
20,1,$1+$1,$4,$5,$6,$7,0*
20,1,$1+$1,$6,$7,$8,$9,0*
20,1,$1+$1,$8,$9,$2,$3,0*%
G04 Aperture macros list end*
%TA.AperFunction,SMDPad,CuDef*%
%ADD10RoundRect,0.200000X0.200000X0.275000X-0.200000X0.275000X-0.200000X-0.275000X0.200000X-0.275000X0*%
%TD*%
%TA.AperFunction,SMDPad,CuDef*%
%ADD11RoundRect,0.250000X-2.500000X0.250000X-2.500000X-0.250000X2.500000X-0.250000X2.500000X0.250000X0*%
%TD*%
%TA.AperFunction,SMDPad,CuDef*%
%ADD12RoundRect,0.250000X-1.250000X0.550000X-1.250000X-0.550000X1.250000X-0.550000X1.250000X0.550000X0*%
%TD*%
%TA.AperFunction,SMDPad,CuDef*%
%ADD13RoundRect,0.218750X0.218750X0.256250X-0.218750X0.256250X-0.218750X-0.256250X0.218750X-0.256250X0*%
%TD*%
%TA.AperFunction,SMDPad,CuDef*%
%ADD14RoundRect,0.225000X0.225000X0.250000X-0.225000X0.250000X-0.225000X-0.250000X0.225000X-0.250000X0*%
%TD*%
%TA.AperFunction,SMDPad,CuDef*%
%ADD15RoundRect,0.250000X2.500000X-0.250000X2.500000X0.250000X-2.500000X0.250000X-2.500000X-0.250000X0*%
%TD*%
%TA.AperFunction,SMDPad,CuDef*%
%ADD16RoundRect,0.250000X1.250000X-0.550000X1.250000X0.550000X-1.250000X0.550000X-1.250000X-0.550000X0*%
%TD*%
%TA.AperFunction,ComponentPad*%
%ADD17C,2.000000*%
%TD*%
%TA.AperFunction,SMDPad,CuDef*%
%ADD18R,1.475000X0.450000*%
%TD*%
%TA.AperFunction,ComponentPad*%
%ADD19R,2.000000X2.000000*%
%TD*%
%TA.AperFunction,Conductor*%
%ADD20C,0.500000*%
%TD*%
%TA.AperFunction,Conductor*%
%ADD21C,0.400000*%
%TD*%
%TA.AperFunction,Conductor*%
%ADD22C,0.300000*%
%TD*%
G04 APERTURE END LIST*
D10*
%TO.P,R5,1*%
%TO.N,Net-(D2-A)*%
X30825000Y11862500D03*
%TO.P,R5,2*%
%TO.N,/outputState*%
X29175000Y11862500D03*
%TD*%
D11*
%TO.P,J2,1,Pin_1*%
%TO.N,+3.3V*%
X42750000Y15100000D03*
%TO.P,J2,2,Pin_2*%
%TO.N,GND*%
X42750000Y13100000D03*
%TO.P,J2,3,Pin_3*%
%TO.N,/outputState*%
X42750000Y11100000D03*
D12*
%TO.P,J2,MP,Pin_1*%
%TO.N,GND*%
X45000000Y17500000D03*
X45000000Y8700000D03*
%TD*%
D10*
%TO.P,R3,1*%
%TO.N,GND*%
X29825000Y4500000D03*
%TO.P,R3,2*%
%TO.N,Net-(U2-K)*%
X28175000Y4500000D03*
%TD*%
%TO.P,R4,1*%
%TO.N,Net-(D1-A)*%
X30825000Y13862500D03*
%TO.P,R4,2*%
%TO.N,/outputState*%
X29175000Y13862500D03*
%TD*%
D13*
%TO.P,D1,1,K*%
%TO.N,+3.3V*%
X34287500Y13862500D03*
%TO.P,D1,2,A*%
%TO.N,Net-(D1-A)*%
X32712500Y13862500D03*
%TD*%
D14*
%TO.P,C1,1*%
%TO.N,GND*%
X38275000Y9362500D03*
%TO.P,C1,2*%
%TO.N,+3.3V*%
X36725000Y9362500D03*
%TD*%
D15*
%TO.P,J1,1,Pin_1*%
%TO.N,+3.3V*%
X7500000Y7362500D03*
%TO.P,J1,2,Pin_2*%
%TO.N,GND*%
X7500000Y9362500D03*
%TO.P,J1,3,Pin_3*%
%TO.N,Net-(J1-Pin_3)*%
X7500000Y11362500D03*
D16*
%TO.P,J1,MP,Pin_1*%
%TO.N,GND*%
X5250000Y4962500D03*
X5250000Y13762500D03*
%TD*%
D17*
%TO.P,JP1,1,A*%
%TO.N,+3.3V*%
X37000000Y3500000D03*
%TO.P,JP1,2,B*%
X37000000Y6500000D03*
%TD*%
D18*
%TO.P,U1,1,OUT_1*%
%TO.N,/outputState*%
X29788000Y9337500D03*
%TO.P,U1,2,IN1-*%
%TO.N,/platterSensor*%
X29788000Y8687500D03*
%TO.P,U1,3,IN1+*%
%TO.N,Net-(U1-IN1+)*%
X29788000Y8037500D03*
%TO.P,U1,4,VCC-*%
%TO.N,GND*%
X29788000Y7387500D03*
%TO.P,U1,5,IN2+*%
%TO.N,unconnected-(U1-IN2+-Pad5)*%
X34212000Y7387500D03*
%TO.P,U1,6,IN2-*%
%TO.N,unconnected-(U1-IN2--Pad6)*%
X34212000Y8037500D03*
%TO.P,U1,7,OUT2*%
%TO.N,unconnected-(U1-OUT2-Pad7)*%
X34212000Y8687500D03*
%TO.P,U1,8,VCC+*%
%TO.N,+3.3V*%
X34212000Y9337500D03*
%TD*%
D13*
%TO.P,D2,1,K*%
%TO.N,GND*%
X34287500Y11862500D03*
%TO.P,D2,2,A*%
%TO.N,Net-(D2-A)*%
X32712500Y11862500D03*
%TD*%
D17*
%TO.P,R2,1*%
%TO.N,/platterSensor*%
X17500000Y12000000D03*
%TO.P,R2,2*%
%TO.N,GND*%
X12500000Y9500000D03*
%TO.P,R2,3*%
X17500000Y7000000D03*
%TD*%
D19*
%TO.P,U2,1,A*%
%TO.N,+3.3V*%
X22500000Y4362500D03*
D17*
%TO.P,U2,2,K*%
%TO.N,Net-(U2-K)*%
X25000000Y4362500D03*
%TO.P,U2,3,E*%
%TO.N,+3.3V*%
X25000000Y7162500D03*
%TO.P,U2,4,C*%
%TO.N,/platterSensor*%
X22500000Y7162500D03*
%TD*%
%TO.P,R1,1*%
%TO.N,Net-(U1-IN1+)*%
X26500000Y11862500D03*
%TO.P,R1,2*%
%TO.N,Net-(J1-Pin_3)*%
X24000000Y16862500D03*
%TO.P,R1,3*%
%TO.N,GND*%
X21500000Y11862500D03*
%TD*%
D20*
%TO.N,/platterSensor*%
X28137187Y10137187D02*
X28000000Y10000000D01*
X27036696Y14000000D02*
X28137187Y12899509D01*
X20500000Y14000000D02*
X27036696Y14000000D01*
X19000000Y13500000D02*
X20000000Y13500000D01*
X28137187Y12899509D02*
X28137187Y10137187D01*
X17500000Y12000000D02*
X19000000Y13500000D01*
X20000000Y13500000D02*
X20500000Y14000000D01*
%TO.N,+3.3V*%
X21137500Y4362500D02*
X22500000Y4362500D01*
X20000000Y5500000D02*
X21137500Y4362500D01*
X20000000Y7500000D02*
X20000000Y5500000D01*
X16500000Y9362500D02*
X18137500Y9362500D01*
X18137500Y9362500D02*
X20000000Y7500000D01*
%TO.N,/platterSensor*%
X22500000Y7162500D02*
X22337500Y7162500D01*
X22337500Y7162500D02*
X17500000Y12000000D01*
%TO.N,/outputState*%
X36100000Y11100000D02*
X42750000Y11100000D01*
X36000000Y11000000D02*
X36100000Y11100000D01*
X35637500Y11000000D02*
X36000000Y11000000D01*
X29312500Y10500000D02*
X35137500Y10500000D01*
X29175000Y10362500D02*
X29312500Y10500000D01*
X35137500Y10500000D02*
X35637500Y11000000D01*
D21*
%TO.N,Net-(U1-IN1+)*%
X26500000Y9500000D02*
X26500000Y11862500D01*
X29788000Y8037500D02*
X27962500Y8037500D01*
X27962500Y8037500D02*
X26500000Y9500000D01*
D20*
%TO.N,+3.3V*%
X32500000Y16500000D02*
X34287500Y14712500D01*
X28000000Y16500000D02*
X32500000Y16500000D01*
X17500000Y15000000D02*
X26500000Y15000000D01*
X15000000Y11000000D02*
X15000000Y12500000D01*
X15000000Y12500000D02*
X17500000Y15000000D01*
X16500000Y9500000D02*
X15000000Y11000000D01*
X26500000Y15000000D02*
X28000000Y16500000D01*
X16500000Y9362500D02*
X16500000Y9500000D01*
%TO.N,GND*%
X30325000Y5000000D02*
X43500000Y5000000D01*
X7500000Y9362500D02*
X12362500Y9362500D01*
X21000000Y1000000D02*
X39500000Y1000000D01*
X33362500Y18500000D02*
X34362500Y17500000D01*
X45000000Y17500000D02*
X46500000Y17500000D01*
D22*
X29825000Y7350500D02*
X29788000Y7387500D01*
D20*
X36600000Y13100000D02*
X35362500Y11862500D01*
X41200000Y8700000D02*
X40537500Y9362500D01*
X2500000Y5500000D02*
X3037500Y4962500D01*
X2500000Y9500000D02*
X2500000Y5500000D01*
X46100000Y13100000D02*
X42750000Y13100000D01*
X3262500Y13762500D02*
X2500000Y13000000D01*
X29825000Y4675000D02*
X29825000Y4500000D01*
X29825000Y4500000D02*
X30325000Y5000000D01*
X12362500Y9362500D02*
X12500000Y9500000D01*
X14500000Y18500000D02*
X9762500Y13762500D01*
X27138500Y7361500D02*
X29007404Y7361500D01*
X35362500Y11862500D02*
X34287500Y11862500D01*
X17500000Y4500000D02*
X21000000Y1000000D01*
X41200000Y8700000D02*
X45000000Y8700000D01*
X36737500Y13100000D02*
X42750000Y13100000D01*
X17500000Y7000000D02*
X17500000Y4500000D01*
X7500000Y9362500D02*
X2637500Y9362500D01*
X42750000Y13100000D02*
X36600000Y13100000D01*
X46500000Y17500000D02*
X47000000Y17000000D01*
X34362500Y17500000D02*
X45000000Y17500000D01*
X27138500Y7361500D02*
X29825000Y4675000D01*
X43500000Y5000000D02*
X45000000Y6500000D01*
X9762500Y13762500D02*
X5250000Y13762500D01*
X47000000Y14000000D02*
X47000000Y10700000D01*
X47000000Y17000000D02*
X47000000Y14000000D01*
X3037500Y4962500D02*
X5250000Y4962500D01*
X2637500Y9362500D02*
X2500000Y9500000D01*
X45000000Y6500000D02*
X45000000Y8700000D01*
X2500000Y13000000D02*
X2500000Y9500000D01*
X33362500Y18500000D02*
X14500000Y18500000D01*
X47000000Y10700000D02*
X45000000Y8700000D01*
X47000000Y14000000D02*
X46100000Y13100000D01*
X40537500Y9362500D02*
X38275000Y9362500D01*
X21500000Y11862500D02*
X22637500Y11862500D01*
X5250000Y13762500D02*
X3262500Y13762500D01*
X39500000Y1000000D02*
X43500000Y5000000D01*
X22637500Y11862500D02*
X27138500Y7361500D01*
%TO.N,+3.3V*%
X7500000Y7362500D02*
X14500000Y7362500D01*
X34213000Y9362500D02*
X34212000Y9363500D01*
X14500000Y7362500D02*
X16500000Y9362500D01*
X38500000Y15100000D02*
X42750000Y15100000D01*
X36725000Y8275000D02*
X37000000Y8000000D01*
X38500000Y15100000D02*
X34675000Y15100000D01*
X25000000Y7162500D02*
X25200000Y7362500D01*
X37000000Y3500000D02*
X36190001Y2690001D01*
X25000000Y7162500D02*
X25000000Y6862500D01*
X37000000Y6500000D02*
X37000000Y8000000D01*
X36725000Y9362500D02*
X36725000Y8275000D01*
X34675000Y15100000D02*
X34287500Y14712500D01*
X24172499Y2690001D02*
X22500000Y4362500D01*
X25000000Y7162500D02*
X24837500Y7162500D01*
X36190001Y2690001D02*
X24172499Y2690001D01*
X36725000Y9362500D02*
X34213000Y9362500D01*
X34287500Y14712500D02*
X34287500Y13862500D01*
X25000000Y6862500D02*
X22500000Y4362500D01*
%TO.N,Net-(D1-A)*%
X30825000Y13862500D02*
X32712500Y13862500D01*
%TO.N,Net-(D2-A)*%
X30825000Y11862500D02*
X32712500Y11862500D01*
%TO.N,Net-(J1-Pin_3)*%
X11000000Y11362500D02*
X16500000Y16862500D01*
X16500000Y16862500D02*
X24000000Y16862500D01*
X7500000Y11362500D02*
X11000000Y11362500D01*
%TO.N,/outputState*%
X29175000Y13862500D02*
X29175000Y11862500D01*
X29175000Y11862500D02*
X29175000Y10862500D01*
X29175000Y9976500D02*
X29788000Y9363500D01*
X29175000Y10862500D02*
X29175000Y9976500D01*
D21*
%TO.N,/platterSensor*%
X29788000Y8687500D02*
X28650500Y8687500D01*
X28650500Y8687500D02*
X28000000Y9338000D01*
X28000000Y9338000D02*
X28000000Y10000000D01*
D20*
%TO.N,Net-(U2-K)*%
X25000000Y4362500D02*
X28037500Y4362500D01*
X28037500Y4362500D02*
X28175000Y4500000D01*
%TD*%
%TA.AperFunction,Conductor*%
%TO.N,GND*%
G36*
X25541646Y13229815D02*
G01*
X25587401Y13177011D01*
X25597345Y13107853D01*
X25568320Y13044297D01*
X25547492Y13025182D01*
X25522493Y13007020D01*
X25522487Y13007015D01*
X25355485Y12840013D01*
X25355485Y12840012D01*
X25355483Y12840010D01*
X25308286Y12775049D01*
X25216657Y12648934D01*
X25109433Y12438497D01*
X25036446Y12213869D01*
X24999500Y11980598D01*
X24999500Y11744403D01*
X25036446Y11511132D01*
X25109433Y11286504D01*
X25146597Y11213567D01*
X25216657Y11076067D01*
X25355483Y10884990D01*
X25522490Y10717983D01*
X25713567Y10579157D01*
X25731794Y10569870D01*
X25782590Y10521897D01*
X25799500Y10459385D01*
X25799500Y9568994D01*
X25799500Y9431006D01*
X25799500Y9431004D01*
X25799499Y9431004D01*
X25826418Y9295678D01*
X25826421Y9295668D01*
X25879222Y9168193D01*
X25955887Y9053455D01*
X25955888Y9053454D01*
X27418386Y7590958D01*
X27495475Y7513869D01*
X27515959Y7493385D01*
X27630682Y7416729D01*
X27630686Y7416727D01*
X27630689Y7416725D01*
X27705366Y7385793D01*
X27758171Y7363920D01*
X27785091Y7358566D01*
X27882130Y7339263D01*
X27893506Y7337000D01*
X27893507Y7337000D01*
X28426500Y7337000D01*
X28493539Y7317315D01*
X28539294Y7264511D01*
X28550500Y7213000D01*
X28550500Y7114656D01*
X28556901Y7055128D01*
X28556903Y7055121D01*
X28607145Y6920414D01*
X28607149Y6920407D01*
X28693309Y6805313D01*
X28693312Y6805310D01*
X28808406Y6719150D01*
X28808413Y6719146D01*
X28943120Y6668904D01*
X28943127Y6668902D01*
X29002655Y6662501D01*
X29002672Y6662500D01*
X29563000Y6662500D01*
X29563000Y7188001D01*
X29565550Y7196687D01*
X29564262Y7205648D01*
X29575240Y7229689D01*
X29582685Y7255040D01*
X29589525Y7260968D01*
X29593287Y7269204D01*
X29615521Y7283494D01*
X29635489Y7300795D01*
X29646003Y7303083D01*
X29652065Y7306978D01*
X29686996Y7312001D01*
X29889001Y7312001D01*
X29956039Y7292316D01*
X30001794Y7239512D01*
X30013000Y7188001D01*
X30013000Y6662500D01*
X30573328Y6662500D01*
X30573344Y6662501D01*
X30632872Y6668902D01*
X30632879Y6668904D01*
X30767586Y6719146D01*
X30767593Y6719150D01*
X30882687Y6805310D01*
X30882690Y6805313D01*
X30968850Y6920407D01*
X30968854Y6920414D01*
X31019096Y7055121D01*
X31019098Y7055128D01*
X31025499Y7114656D01*
X31025500Y7114673D01*
X31025500Y7162500D01*
X30864935Y7162500D01*
X30797896Y7182185D01*
X30752141Y7234989D01*
X30742197Y7304147D01*
X30771222Y7367703D01*
X30790624Y7385766D01*
X30876428Y7450000D01*
X30883046Y7454954D01*
X30969296Y7570169D01*
X31019591Y7705017D01*
X31026000Y7764627D01*
X31025999Y8310372D01*
X31025999Y8310373D01*
X31025998Y8310389D01*
X31021820Y8349247D01*
X31021820Y8375755D01*
X31026000Y8414627D01*
X31025999Y8960372D01*
X31025999Y8960373D01*
X31025998Y8960389D01*
X31021820Y8999247D01*
X31021820Y9025755D01*
X31026000Y9064627D01*
X31025999Y9610372D01*
X31025986Y9610491D01*
X31025797Y9612256D01*
X31025874Y9612688D01*
X31025821Y9613695D01*
X31026059Y9613708D01*
X31038209Y9681015D01*
X31085824Y9732148D01*
X31149088Y9749500D01*
X32850912Y9749500D01*
X32917951Y9729815D01*
X32963706Y9677011D01*
X32973968Y9613694D01*
X32974000Y9613694D01*
X32974000Y9613689D01*
X32974178Y9613679D01*
X32974126Y9612718D01*
X32974202Y9612251D01*
X32974000Y9610380D01*
X32974000Y9064631D01*
X32974001Y9064622D01*
X32978179Y9025755D01*
X32978179Y8999250D01*
X32974000Y8960378D01*
X32974000Y8414631D01*
X32974001Y8414622D01*
X32978179Y8375755D01*
X32978179Y8349250D01*
X32974000Y8310378D01*
X32974000Y7764631D01*
X32974001Y7764622D01*
X32978179Y7725755D01*
X32978179Y7699250D01*
X32974000Y7660378D01*
X32974000Y7114630D01*
X32974001Y7114624D01*
X32980408Y7055017D01*
X33030702Y6920172D01*
X33030706Y6920165D01*
X33116952Y6804956D01*
X33116955Y6804953D01*
X33232164Y6718707D01*
X33232171Y6718703D01*
X33367017Y6668409D01*
X33367016Y6668409D01*
X33373944Y6667665D01*
X33426627Y6662000D01*
X34997372Y6662001D01*
X35056983Y6668409D01*
X35191831Y6718704D01*
X35207340Y6730314D01*
X35314145Y6810268D01*
X35316380Y6807282D01*
X35362112Y6832370D01*
X35431813Y6827523D01*
X35487829Y6785762D01*
X35512375Y6720346D01*
X35511182Y6691859D01*
X35499500Y6618099D01*
X35499500Y6381903D01*
X35536446Y6148632D01*
X35609433Y5924004D01*
X35689019Y5767809D01*
X35716657Y5713567D01*
X35855483Y5522490D01*
X36022490Y5355483D01*
X36213567Y5216657D01*
X36346483Y5148933D01*
X36421941Y5110485D01*
X36472737Y5062510D01*
X36489532Y4994689D01*
X36466995Y4928554D01*
X36421941Y4889515D01*
X36213566Y4783343D01*
X36167674Y4750000D01*
X36022490Y4644517D01*
X36022488Y4644515D01*
X36022487Y4644515D01*
X35855485Y4477513D01*
X35855485Y4477512D01*
X35855483Y4477510D01*
X35795862Y4395450D01*
X35716657Y4286434D01*
X35609433Y4075997D01*
X35536446Y3851369D01*
X35499500Y3618098D01*
X35499500Y3564501D01*
X35479815Y3497462D01*
X35427011Y3451707D01*
X35375500Y3440501D01*
X30525169Y3440501D01*
X30458130Y3460186D01*
X30412375Y3512990D01*
X30402431Y3582148D01*
X30431456Y3645704D01*
X30454268Y3664928D01*
X30453974Y3665303D01*
X30459878Y3669929D01*
X30580072Y3790123D01*
X30668019Y3935605D01*
X30718590Y4097894D01*
X30725000Y4168428D01*
X30725000Y4250000D01*
X29949000Y4250000D01*
X29881961Y4269685D01*
X29836206Y4322489D01*
X29825000Y4374000D01*
X29825000Y4500000D01*
X29699000Y4500000D01*
X29631961Y4519685D01*
X29586206Y4572489D01*
X29575000Y4624000D01*
X29575000Y4750000D01*
X30075000Y4750000D01*
X30724999Y4750000D01*
X30724999Y4831583D01*
X30718591Y4902103D01*
X30718590Y4902108D01*
X30668018Y5064397D01*
X30580072Y5209878D01*
X30459877Y5330073D01*
X30314395Y5418020D01*
X30314396Y5418020D01*
X30152105Y5468591D01*
X30152106Y5468591D01*
X30081572Y5475000D01*
X30075000Y5475000D01*
X30075000Y4750000D01*
X29575000Y4750000D01*
X29575000Y5475000D01*
X29574999Y5475001D01*
X29568436Y5475000D01*
X29568417Y5474999D01*
X29497897Y5468592D01*
X29497892Y5468591D01*
X29335603Y5418019D01*
X29190122Y5330073D01*
X29190121Y5330072D01*
X29088035Y5227985D01*
X29026712Y5194500D01*
X28957020Y5199484D01*
X28912673Y5227985D01*
X28810188Y5330470D01*
X28664606Y5418478D01*
X28640203Y5426082D01*
X28502196Y5469086D01*
X28502194Y5469087D01*
X28502192Y5469087D01*
X28452778Y5473577D01*
X28431616Y5475500D01*
X27918384Y5475500D01*
X27899145Y5473752D01*
X27847807Y5469087D01*
X27685393Y5418478D01*
X27539811Y5330470D01*
X27419531Y5210190D01*
X27419528Y5210186D01*
X27396957Y5172849D01*
X27345429Y5125662D01*
X27290841Y5113000D01*
X26372631Y5113000D01*
X26305592Y5132685D01*
X26272313Y5164114D01*
X26265967Y5172849D01*
X26144517Y5340010D01*
X25977510Y5507017D01*
X25821286Y5620521D01*
X25786431Y5645845D01*
X25774320Y5652015D01*
X25723524Y5699988D01*
X25706728Y5767809D01*
X25729265Y5833944D01*
X25774320Y5872985D01*
X25786431Y5879156D01*
X25786430Y5879156D01*
X25786433Y5879157D01*
X25977510Y6017983D01*
X26144517Y6184990D01*
X26283343Y6376067D01*
X26390568Y6586508D01*
X26463553Y6811132D01*
X26480823Y6920172D01*
X26500500Y7044403D01*
X26500500Y7280598D01*
X26463553Y7513869D01*
X26415254Y7662517D01*
X26390568Y7738492D01*
X26390566Y7738495D01*
X26390566Y7738497D01*
X26298337Y7919505D01*
X26283343Y7948933D01*
X26144517Y8140010D01*
X25977510Y8307017D01*
X25786433Y8445843D01*
X25781960Y8448122D01*
X25575996Y8553067D01*
X25351368Y8626054D01*
X25118097Y8663000D01*
X25118092Y8663000D01*
X24881908Y8663000D01*
X24881903Y8663000D01*
X24648631Y8626054D01*
X24424003Y8553067D01*
X24213566Y8445843D01*
X24124317Y8380999D01*
X24022490Y8307017D01*
X24022488Y8307015D01*
X24022487Y8307015D01*
X23855482Y8140010D01*
X23850315Y8132897D01*
X23794983Y8090234D01*
X23725370Y8084258D01*
X23663576Y8116866D01*
X23649685Y8132897D01*
X23644517Y8140010D01*
X23477512Y8307015D01*
X23477510Y8307017D01*
X23286433Y8445843D01*
X23281960Y8448122D01*
X23075996Y8553067D01*
X22851368Y8626054D01*
X22618097Y8663000D01*
X22618092Y8663000D01*
X22381908Y8663000D01*
X22381903Y8663000D01*
X22148634Y8626054D01*
X22059893Y8597221D01*
X21990051Y8595227D01*
X21933895Y8627472D01*
X19961948Y10599420D01*
X19001280Y11560088D01*
X18967795Y11621411D01*
X18966488Y11667164D01*
X18990482Y11818658D01*
X19000500Y11881904D01*
X19000500Y12118098D01*
X18966488Y12332836D01*
X18975442Y12402129D01*
X19001275Y12439910D01*
X19274549Y12713184D01*
X19335871Y12746666D01*
X19362229Y12749500D01*
X20066110Y12749500D01*
X20133149Y12729815D01*
X20178904Y12677011D01*
X20188848Y12607853D01*
X20176595Y12569205D01*
X20109897Y12438303D01*
X20036934Y12213748D01*
X20000000Y11980553D01*
X20000000Y11744448D01*
X20036934Y11511253D01*
X20109897Y11286698D01*
X20217087Y11076326D01*
X20277338Y10993396D01*
X20277340Y10993395D01*
X21057861Y11773916D01*
X21080667Y11688806D01*
X21139910Y11586194D01*
X21223694Y11502410D01*
X21326306Y11443167D01*
X21411415Y11420362D01*
X20630893Y10639842D01*
X20713828Y10579586D01*
X20924197Y10472398D01*
X21148752Y10399435D01*
X21148751Y10399435D01*
X21381948Y10362500D01*
X21618052Y10362500D01*
X21851247Y10399435D01*
X22075802Y10472398D01*
X22286163Y10579582D01*
X22286169Y10579586D01*
X22369104Y10639842D01*
X22369105Y10639842D01*
X21588584Y11420362D01*
X21673694Y11443167D01*
X21776306Y11502410D01*
X21860090Y11586194D01*
X21919333Y11688806D01*
X21942138Y11773915D01*
X22722658Y10993395D01*
X22722658Y10993396D01*
X22782914Y11076331D01*
X22782918Y11076337D01*
X22890102Y11286698D01*
X22963065Y11511253D01*
X23000000Y11744448D01*
X23000000Y11980553D01*
X22963065Y12213748D01*
X22890102Y12438303D01*
X22782914Y12648672D01*
X22722658Y12731606D01*
X22722658Y12731607D01*
X21942137Y11951086D01*
X21919333Y12036194D01*
X21860090Y12138806D01*
X21776306Y12222590D01*
X21673694Y12281833D01*
X21588584Y12304639D01*
X22369105Y13085160D01*
X22366696Y13115771D01*
X22381060Y13184149D01*
X22430112Y13233905D01*
X22490314Y13249500D01*
X25474607Y13249500D01*
X25541646Y13229815D01*
G37*
%TD.AperFunction*%
%TA.AperFunction,Conductor*%
G36*
X22632618Y16110459D02*
G01*
X22637980Y16111545D01*
X22665784Y16100720D01*
X22694408Y16092315D01*
X22699342Y16087655D01*
X22703089Y16086196D01*
X22727685Y16060888D01*
X22755641Y16022410D01*
X22810150Y15947386D01*
X22833630Y15881579D01*
X22817805Y15813525D01*
X22767699Y15764830D01*
X22709832Y15750500D01*
X17426080Y15750500D01*
X17281092Y15721660D01*
X17281086Y15721658D01*
X17144508Y15665086D01*
X17144496Y15665079D01*
X17095269Y15632187D01*
X17021588Y15582956D01*
X17021580Y15582950D01*
X14417048Y12978417D01*
X14409918Y12967745D01*
X14376045Y12917049D01*
X14334919Y12855501D01*
X14334912Y12855489D01*
X14278343Y12718918D01*
X14278340Y12718908D01*
X14249500Y12573921D01*
X14249500Y12573918D01*
X14249500Y10926082D01*
X14249500Y10926080D01*
X14249499Y10926080D01*
X14278340Y10781093D01*
X14278343Y10781083D01*
X14334913Y10644510D01*
X14334914Y10644509D01*
X14334916Y10644505D01*
X14350772Y10620775D01*
X14407835Y10535372D01*
X14417051Y10521580D01*
X15419700Y9518931D01*
X15453185Y9457608D01*
X15448201Y9387916D01*
X15419700Y9343569D01*
X14225451Y8149319D01*
X14164128Y8115834D01*
X14137770Y8113000D01*
X13490314Y8113000D01*
X13423275Y8132685D01*
X13377520Y8185489D01*
X13366696Y8246728D01*
X13369105Y8277342D01*
X12588584Y9057862D01*
X12673694Y9080667D01*
X12776306Y9139910D01*
X12860090Y9223694D01*
X12919333Y9326306D01*
X12942138Y9411415D01*
X13722658Y8630895D01*
X13722658Y8630896D01*
X13782914Y8713831D01*
X13782918Y8713837D01*
X13890102Y8924198D01*
X13963065Y9148753D01*
X14000000Y9381948D01*
X14000000Y9618053D01*
X13963065Y9851248D01*
X13890102Y10075803D01*
X13782914Y10286172D01*
X13722658Y10369106D01*
X13722658Y10369107D01*
X12942137Y9588586D01*
X12919333Y9673694D01*
X12860090Y9776306D01*
X12776306Y9860090D01*
X12673694Y9919333D01*
X12588584Y9942139D01*
X13369105Y10722660D01*
X13369104Y10722662D01*
X13286174Y10782913D01*
X13075802Y10890103D01*
X12851247Y10963066D01*
X12851248Y10963066D01*
X12618052Y11000000D01*
X12381948Y11000000D01*
X12148752Y10963066D01*
X11919566Y10888598D01*
X11918903Y10890637D01*
X11858288Y10884174D01*
X11795837Y10915504D01*
X11760238Y10975625D01*
X11762793Y11045448D01*
X11792730Y11093863D01*
X16774548Y16075682D01*
X16835871Y16109166D01*
X16862229Y16112000D01*
X22627369Y16112000D01*
X22632618Y16110459D01*
G37*
%TD.AperFunction*%
%TA.AperFunction,Conductor*%
G36*
X49442539Y19479815D02*
G01*
X49488294Y19427011D01*
X49499500Y19375500D01*
X49499500Y624500D01*
X49479815Y557461D01*
X49427011Y511706D01*
X49375500Y500500D01*
X624500Y500500D01*
X557461Y520185D01*
X511706Y572989D01*
X500500Y624500D01*
X500500Y4362514D01*
X3250001Y4362514D01*
X3260494Y4259803D01*
X3315641Y4093381D01*
X3315643Y4093376D01*
X3407684Y3944155D01*
X3531654Y3820185D01*
X3680875Y3728144D01*
X3680880Y3728142D01*
X3847302Y3672995D01*
X3847309Y3672994D01*
X3950019Y3662501D01*
X4999999Y3662501D01*
X5500000Y3662501D01*
X6549972Y3662501D01*
X6549986Y3662502D01*
X6652697Y3672995D01*
X6819119Y3728142D01*
X6819124Y3728144D01*
X6968345Y3820185D01*
X7092315Y3944155D01*
X7184356Y4093376D01*
X7184358Y4093381D01*
X7239505Y4259803D01*
X7239506Y4259810D01*
X7249999Y4362514D01*
X7250000Y4362527D01*
X7250000Y4712500D01*
X5500000Y4712500D01*
X5500000Y3662501D01*
X4999999Y3662501D01*
X5000000Y3662502D01*
X5000000Y4712500D01*
X3250001Y4712500D01*
X3250001Y4362514D01*
X500500Y4362514D01*
X500500Y5562487D01*
X3250000Y5562487D01*
X3250000Y5212500D01*
X7249999Y5212500D01*
X7249999Y5562472D01*
X7249998Y5562487D01*
X7239505Y5665198D01*
X7199609Y5785597D01*
X7184357Y5831622D01*
X7184356Y5831625D01*
X7092315Y5980846D01*
X6968344Y6104817D01*
X6968340Y6104820D01*
X6923524Y6132463D01*
X6876799Y6184411D01*
X6865578Y6253373D01*
X6893421Y6317455D01*
X6951490Y6356311D01*
X6988617Y6362001D01*
X10050008Y6362001D01*
X10152797Y6372501D01*
X10319334Y6427686D01*
X10468656Y6519788D01*
X10524549Y6575681D01*
X10585872Y6609166D01*
X10612230Y6612000D01*
X14573920Y6612000D01*
X14671462Y6631404D01*
X14718913Y6640842D01*
X14855495Y6697416D01*
X14904729Y6730314D01*
X14978416Y6779548D01*
X15906137Y7707270D01*
X15967459Y7740754D01*
X16037150Y7735770D01*
X16093084Y7693898D01*
X16117501Y7628434D01*
X16109813Y7580951D01*
X16111402Y7580434D01*
X16036934Y7351248D01*
X16000000Y7118053D01*
X16000000Y6881948D01*
X16036934Y6648753D01*
X16109897Y6424198D01*
X16217087Y6213826D01*
X16277338Y6130896D01*
X16277340Y6130895D01*
X17057861Y6911416D01*
X17080667Y6826306D01*
X17139910Y6723694D01*
X17223694Y6639910D01*
X17326306Y6580667D01*
X17411415Y6557862D01*
X16630893Y5777342D01*
X16713828Y5717086D01*
X16924197Y5609898D01*
X17148752Y5536935D01*
X17148751Y5536935D01*
X17381948Y5500000D01*
X17618052Y5500000D01*
X17851247Y5536935D01*
X18075802Y5609898D01*
X18286163Y5717082D01*
X18286169Y5717086D01*
X18369104Y5777342D01*
X18369105Y5777342D01*
X17588584Y6557862D01*
X17673694Y6580667D01*
X17776306Y6639910D01*
X17860090Y6723694D01*
X17919333Y6826306D01*
X17942138Y6911415D01*
X18722658Y6130895D01*
X18722658Y6130896D01*
X18782914Y6213831D01*
X18782918Y6213837D01*
X18890102Y6424198D01*
X18963065Y6648753D01*
X19000000Y6881948D01*
X19000000Y7118051D01*
X18999370Y7122028D01*
X19008324Y7191321D01*
X19053319Y7244774D01*
X19120071Y7265414D01*
X19187385Y7246690D01*
X19209524Y7229108D01*
X19213181Y7225451D01*
X19246666Y7164128D01*
X19249500Y7137770D01*
X19249500Y5426082D01*
X19249500Y5426080D01*
X19249499Y5426080D01*
X19278340Y5281093D01*
X19278343Y5281083D01*
X19334912Y5144512D01*
X19334916Y5144505D01*
X19355965Y5113003D01*
X19355966Y5113000D01*
X19355967Y5113000D01*
X19417051Y5021580D01*
X19417052Y5021579D01*
X20659084Y3779548D01*
X20659086Y3779546D01*
X20690076Y3758841D01*
X20732770Y3730314D01*
X20782005Y3697416D01*
X20918587Y3640842D01*
X20920519Y3640458D01*
X20929656Y3636022D01*
X20952907Y3614895D01*
X20977356Y3595193D01*
X20978555Y3591590D01*
X20981367Y3589035D01*
X20989504Y3558693D01*
X20999421Y3528899D01*
X20999500Y3524474D01*
X20999500Y3314631D01*
X20999501Y3314624D01*
X21005908Y3255017D01*
X21056202Y3120172D01*
X21056206Y3120165D01*
X21142452Y3004956D01*
X21142455Y3004953D01*
X21257664Y2918707D01*
X21257671Y2918703D01*
X21392517Y2868409D01*
X21392516Y2868409D01*
X21399444Y2867665D01*
X21452127Y2862000D01*
X22887769Y2862001D01*
X22954808Y2842316D01*
X22975450Y2825682D01*
X23694085Y2107047D01*
X23723557Y2087356D01*
X23767769Y2057815D01*
X23817004Y2024917D01*
X23817005Y2024917D01*
X23817006Y2024916D01*
X23817008Y2024915D01*
X23878366Y1999500D01*
X23953586Y1968343D01*
X23953590Y1968343D01*
X23953591Y1968342D01*
X24098578Y1939501D01*
X24098581Y1939501D01*
X36263921Y1939501D01*
X36361463Y1958905D01*
X36408914Y1968343D01*
X36545496Y2024917D01*
X36545501Y2024921D01*
X36550863Y2027786D01*
X36552182Y2025318D01*
X36607300Y2042682D01*
X36643819Y2037263D01*
X36643897Y2037584D01*
X36647528Y2036712D01*
X36648058Y2036634D01*
X36648632Y2036447D01*
X36721443Y2024915D01*
X36881903Y1999500D01*
X36881908Y1999500D01*
X37118097Y1999500D01*
X37351368Y2036447D01*
X37409151Y2055222D01*
X37575992Y2109432D01*
X37786433Y2216657D01*
X37977510Y2355483D01*
X38144517Y2522490D01*
X38283343Y2713567D01*
X38390568Y2924008D01*
X38463553Y3148632D01*
X38480403Y3255017D01*
X38500500Y3381903D01*
X38500500Y3618098D01*
X38463553Y3851369D01*
X38390566Y4075997D01*
X38334002Y4187009D01*
X38283343Y4286433D01*
X38144517Y4477510D01*
X37977510Y4644517D01*
X37786433Y4783343D01*
X37578057Y4889516D01*
X37527262Y4937489D01*
X37510467Y5005310D01*
X37533004Y5071445D01*
X37578057Y5110485D01*
X37786433Y5216657D01*
X37977510Y5355483D01*
X38144517Y5522490D01*
X38283343Y5713567D01*
X38390568Y5924008D01*
X38463553Y6148632D01*
X38469311Y6184989D01*
X38500500Y6381903D01*
X38500500Y6618098D01*
X38463553Y6851369D01*
X38397347Y7055128D01*
X38390568Y7075992D01*
X38390566Y7075995D01*
X38390566Y7075997D01*
X38314415Y7225451D01*
X38283343Y7286433D01*
X38144517Y7477510D01*
X37977510Y7644517D01*
X37883940Y7712500D01*
X37801614Y7772314D01*
X37758949Y7827645D01*
X37750500Y7872632D01*
X37750500Y8073919D01*
X37750499Y8073920D01*
X37745309Y8100014D01*
X43000001Y8100014D01*
X43010494Y7997303D01*
X43065641Y7830881D01*
X43065643Y7830876D01*
X43157684Y7681655D01*
X43281654Y7557685D01*
X43430875Y7465644D01*
X43430880Y7465642D01*
X43597302Y7410495D01*
X43597309Y7410494D01*
X43700019Y7400001D01*
X44749999Y7400001D01*
X45250000Y7400001D01*
X46299972Y7400001D01*
X46299986Y7400002D01*
X46402697Y7410495D01*
X46569119Y7465642D01*
X46569124Y7465644D01*
X46718345Y7557685D01*
X46842315Y7681655D01*
X46934356Y7830876D01*
X46934358Y7830881D01*
X46989505Y7997303D01*
X46989506Y7997310D01*
X46999999Y8100014D01*
X47000000Y8100027D01*
X47000000Y8450000D01*
X45250000Y8450000D01*
X45250000Y7400001D01*
X44749999Y7400001D01*
X44750000Y7400002D01*
X44750000Y8450000D01*
X43000001Y8450000D01*
X43000001Y8100014D01*
X37745309Y8100014D01*
X37732366Y8165084D01*
X37721659Y8218912D01*
X37707908Y8252109D01*
X37705880Y8259431D01*
X37706304Y8287068D01*
X37703350Y8314547D01*
X37706834Y8321509D01*
X37706954Y8329292D01*
X37722253Y8352314D01*
X37734624Y8377027D01*
X37741317Y8380999D01*
X37745627Y8387483D01*
X37770944Y8398579D01*
X37794712Y8412681D01*
X37802501Y8412408D01*
X37809621Y8415528D01*
X37836694Y8411210D01*
X37864384Y8410239D01*
X37902393Y8397645D01*
X38001683Y8387501D01*
X38525000Y8387501D01*
X38548308Y8387501D01*
X38548322Y8387502D01*
X38647607Y8397645D01*
X38808481Y8450953D01*
X38808492Y8450958D01*
X38952728Y8539925D01*
X38952732Y8539928D01*
X39001848Y8589043D01*
X39072572Y8659768D01*
X39072575Y8659772D01*
X39161542Y8804008D01*
X39161547Y8804019D01*
X39214855Y8964894D01*
X39224999Y9064178D01*
X39225000Y9064191D01*
X39225000Y9112500D01*
X38525000Y9112500D01*
X38525000Y8387501D01*
X38001683Y8387501D01*
X38025000Y8387502D01*
X38025000Y9238500D01*
X38044685Y9305539D01*
X38097489Y9351294D01*
X38149000Y9362500D01*
X38275000Y9362500D01*
X38275000Y9488500D01*
X38294685Y9555539D01*
X38347489Y9601294D01*
X38399000Y9612500D01*
X39224999Y9612500D01*
X39224999Y9660808D01*
X39224998Y9660823D01*
X39214855Y9760108D01*
X39161547Y9920982D01*
X39161542Y9920993D01*
X39072575Y10065229D01*
X39072572Y10065233D01*
X38999986Y10137819D01*
X38966501Y10199142D01*
X38971485Y10268834D01*
X39013357Y10324767D01*
X39078821Y10349184D01*
X39087667Y10349500D01*
X39637770Y10349500D01*
X39704809Y10329815D01*
X39725451Y10313181D01*
X39781344Y10257288D01*
X39930666Y10165186D01*
X40097203Y10110001D01*
X40199991Y10099500D01*
X43261379Y10099501D01*
X43328417Y10079816D01*
X43374172Y10027012D01*
X43384116Y9957854D01*
X43355091Y9894298D01*
X43326476Y9869963D01*
X43281656Y9842318D01*
X43157684Y9718346D01*
X43065643Y9569125D01*
X43065641Y9569120D01*
X43010494Y9402698D01*
X43010493Y9402691D01*
X43000000Y9299987D01*
X43000000Y8950000D01*
X46999999Y8950000D01*
X46999999Y9299972D01*
X46999998Y9299987D01*
X46989505Y9402698D01*
X46934358Y9569120D01*
X46934356Y9569125D01*
X46842315Y9718346D01*
X46718345Y9842316D01*
X46569124Y9934357D01*
X46569119Y9934359D01*
X46402697Y9989506D01*
X46402690Y9989507D01*
X46299986Y10000000D01*
X45738763Y10000000D01*
X45671724Y10019685D01*
X45625969Y10072489D01*
X45616025Y10141647D01*
X45645050Y10205203D01*
X45673667Y10229539D01*
X45718656Y10257288D01*
X45842712Y10381344D01*
X45934814Y10530666D01*
X45989999Y10697203D01*
X46000500Y10799991D01*
X46000499Y11400008D01*
X45998047Y11424008D01*
X45989999Y11502797D01*
X45989998Y11502800D01*
X45971598Y11558326D01*
X45934814Y11669334D01*
X45842712Y11818656D01*
X45718656Y11942712D01*
X45634279Y11994756D01*
X45587556Y12046703D01*
X45576333Y12115666D01*
X45604177Y12179748D01*
X45634281Y12205833D01*
X45718343Y12257683D01*
X45842315Y12381655D01*
X45934356Y12530876D01*
X45934358Y12530881D01*
X45989505Y12697303D01*
X45989506Y12697310D01*
X45999999Y12800014D01*
X46000000Y12800027D01*
X46000000Y12850000D01*
X39500001Y12850000D01*
X39500001Y12800014D01*
X39510494Y12697303D01*
X39565641Y12530881D01*
X39565643Y12530876D01*
X39657684Y12381655D01*
X39781654Y12257685D01*
X39865719Y12205833D01*
X39886375Y12182868D01*
X39908544Y12161359D01*
X39909533Y12157120D01*
X39912443Y12153885D01*
X39917403Y12123403D01*
X39924426Y12093318D01*
X39922966Y12089218D01*
X39923666Y12084922D01*
X39911357Y12056594D01*
X39901001Y12027492D01*
X39897166Y12023935D01*
X39895822Y12020840D01*
X39876424Y12002161D01*
X39871261Y11998174D01*
X39781344Y11942712D01*
X39719842Y11881211D01*
X39713572Y11876367D01*
X39688111Y11866431D01*
X39664128Y11853334D01*
X39650916Y11851914D01*
X39648484Y11850964D01*
X39646259Y11851413D01*
X39637770Y11850500D01*
X36026080Y11850500D01*
X35881092Y11821660D01*
X35881086Y11821658D01*
X35788948Y11783493D01*
X35745020Y11765297D01*
X35738878Y11762753D01*
X35738520Y11763615D01*
X35686160Y11750500D01*
X35563580Y11750500D01*
X35418592Y11721660D01*
X35418586Y11721658D01*
X35282008Y11665086D01*
X35281996Y11665079D01*
X35234580Y11633397D01*
X35167903Y11612520D01*
X35165691Y11612500D01*
X34411500Y11612500D01*
X34344461Y11632185D01*
X34298706Y11684989D01*
X34287500Y11736500D01*
X34287500Y11988500D01*
X34307185Y12055539D01*
X34359989Y12101294D01*
X34411500Y12112500D01*
X35224999Y12112500D01*
X35224999Y12166636D01*
X35224998Y12166653D01*
X35214943Y12265084D01*
X35162093Y12424573D01*
X35162091Y12424578D01*
X35073885Y12567581D01*
X34955080Y12686386D01*
X34841135Y12756668D01*
X34794411Y12808616D01*
X34783189Y12877579D01*
X34811032Y12941661D01*
X34841129Y12967742D01*
X34955391Y13038219D01*
X35074281Y13157109D01*
X35162549Y13300213D01*
X35215436Y13459815D01*
X35225500Y13558326D01*
X35225500Y14166674D01*
X35222697Y14194114D01*
X35220778Y14212898D01*
X35233547Y14281591D01*
X35281428Y14332475D01*
X35344136Y14349500D01*
X38426082Y14349500D01*
X39637770Y14349500D01*
X39659885Y14343006D01*
X39682854Y14341014D01*
X39696063Y14332384D01*
X39704809Y14329815D01*
X39713572Y14323633D01*
X39719842Y14318790D01*
X39781344Y14257288D01*
X39871267Y14201824D01*
X39876424Y14197840D01*
X39893264Y14174621D01*
X39912443Y14153298D01*
X39913517Y14146696D01*
X39917445Y14141280D01*
X39919058Y14112649D01*
X39923666Y14084336D01*
X39920999Y14078200D01*
X39921376Y14071521D01*
X39907251Y14046557D01*
X39895822Y14020253D01*
X39889045Y14014382D01*
X39886969Y14010711D01*
X39881465Y14007814D01*
X39865720Y13994169D01*
X39781656Y13942318D01*
X39657684Y13818346D01*
X39565643Y13669125D01*
X39565641Y13669120D01*
X39510494Y13502698D01*
X39510493Y13502691D01*
X39500000Y13399987D01*
X39500000Y13350000D01*
X45999999Y13350000D01*
X45999999Y13399972D01*
X45999998Y13399987D01*
X45989505Y13502698D01*
X45934358Y13669120D01*
X45934356Y13669125D01*
X45842315Y13818346D01*
X45718344Y13942317D01*
X45718340Y13942320D01*
X45634280Y13994169D01*
X45587555Y14046117D01*
X45576334Y14115079D01*
X45604177Y14179161D01*
X45634278Y14205244D01*
X45718656Y14257288D01*
X45842712Y14381344D01*
X45934814Y14530666D01*
X45989999Y14697203D01*
X46000500Y14799991D01*
X46000499Y15400008D01*
X45989999Y15502797D01*
X45934814Y15669334D01*
X45842712Y15818656D01*
X45718656Y15942712D01*
X45673663Y15970464D01*
X45626941Y16022410D01*
X45615718Y16091372D01*
X45643562Y16155455D01*
X45701630Y16194311D01*
X45738762Y16200001D01*
X46299971Y16200001D01*
X46299987Y16200002D01*
X46402697Y16210495D01*
X46569119Y16265642D01*
X46569124Y16265644D01*
X46718345Y16357685D01*
X46842315Y16481655D01*
X46934356Y16630876D01*
X46934358Y16630881D01*
X46989505Y16797303D01*
X46989506Y16797310D01*
X46999999Y16900014D01*
X47000000Y16900027D01*
X47000000Y17250000D01*
X43000001Y17250000D01*
X43000001Y16900014D01*
X43010494Y16797303D01*
X43065641Y16630881D01*
X43065643Y16630876D01*
X43157684Y16481655D01*
X43281654Y16357685D01*
X43326475Y16330039D01*
X43373199Y16278091D01*
X43384422Y16209128D01*
X43356578Y16145046D01*
X43298510Y16106190D01*
X43261378Y16100500D01*
X40199998Y16100500D01*
X40199981Y16100499D01*
X40097203Y16090000D01*
X40097200Y16089999D01*
X39930668Y16034815D01*
X39930663Y16034813D01*
X39781342Y15942711D01*
X39725451Y15886819D01*
X39664128Y15853334D01*
X39637770Y15850500D01*
X34601076Y15850500D01*
X34572242Y15844766D01*
X34572243Y15844765D01*
X34456093Y15821661D01*
X34456087Y15821659D01*
X34379629Y15789990D01*
X34310159Y15782523D01*
X34247681Y15813799D01*
X34244497Y15816871D01*
X32978421Y17082948D01*
X32978414Y17082954D01*
X32904729Y17132188D01*
X32904729Y17132187D01*
X32855491Y17165087D01*
X32718917Y17221657D01*
X32718907Y17221660D01*
X32573920Y17250500D01*
X32573918Y17250500D01*
X28073917Y17250500D01*
X27926082Y17250500D01*
X27926080Y17250500D01*
X27781092Y17221660D01*
X27781082Y17221657D01*
X27644511Y17165088D01*
X27644498Y17165081D01*
X27521584Y17082952D01*
X27521580Y17082949D01*
X26225451Y15786819D01*
X26164128Y15753334D01*
X26137770Y15750500D01*
X25290168Y15750500D01*
X25223129Y15770185D01*
X25177374Y15822989D01*
X25167430Y15892147D01*
X25189850Y15947386D01*
X25206616Y15970462D01*
X25283343Y16076067D01*
X25390568Y16286508D01*
X25463553Y16511132D01*
X25500500Y16744403D01*
X25500500Y16980598D01*
X25463553Y17213869D01*
X25390566Y17438497D01*
X25304573Y17607266D01*
X25283343Y17648933D01*
X25144517Y17840010D01*
X24977510Y18007017D01*
X24849548Y18099987D01*
X43000000Y18099987D01*
X43000000Y17750000D01*
X44750000Y17750000D01*
X45250000Y17750000D01*
X46999999Y17750000D01*
X46999999Y18099972D01*
X46999998Y18099987D01*
X46989505Y18202698D01*
X46934358Y18369120D01*
X46934356Y18369125D01*
X46842315Y18518346D01*
X46718345Y18642316D01*
X46569124Y18734357D01*
X46569119Y18734359D01*
X46402697Y18789506D01*
X46402690Y18789507D01*
X46299986Y18800000D01*
X45250000Y18800000D01*
X45250000Y17750000D01*
X44750000Y17750000D01*
X44750000Y18800000D01*
X43700028Y18800000D01*
X43700012Y18799999D01*
X43597302Y18789506D01*
X43430880Y18734359D01*
X43430875Y18734357D01*
X43281654Y18642316D01*
X43157684Y18518346D01*
X43065643Y18369125D01*
X43065641Y18369120D01*
X43010494Y18202698D01*
X43010493Y18202691D01*
X43000000Y18099987D01*
X24849548Y18099987D01*
X24786433Y18145843D01*
X24575996Y18253067D01*
X24351368Y18326054D01*
X24118097Y18363000D01*
X24118092Y18363000D01*
X23881908Y18363000D01*
X23881903Y18363000D01*
X23648631Y18326054D01*
X23424003Y18253067D01*
X23213566Y18145843D01*
X23150431Y18099972D01*
X23022490Y18007017D01*
X23022488Y18007015D01*
X23022487Y18007015D01*
X22855485Y17840013D01*
X22855485Y17840012D01*
X22855483Y17840010D01*
X22790087Y17750000D01*
X22727687Y17664114D01*
X22672357Y17621449D01*
X22627369Y17613000D01*
X16426076Y17613000D01*
X16397242Y17607266D01*
X16397243Y17607265D01*
X16281093Y17584161D01*
X16281083Y17584158D01*
X16201081Y17551021D01*
X16201082Y17551020D01*
X16144505Y17527585D01*
X16062372Y17472705D01*
X16021585Y17445453D01*
X16021581Y17445450D01*
X10725451Y12149319D01*
X10698523Y12134616D01*
X10672705Y12118023D01*
X10666504Y12117132D01*
X10664128Y12115834D01*
X10637770Y12113000D01*
X10612230Y12113000D01*
X10545191Y12132685D01*
X10524549Y12149319D01*
X10468657Y12205211D01*
X10468656Y12205212D01*
X10319334Y12297314D01*
X10152797Y12352499D01*
X10152795Y12352500D01*
X10050016Y12363000D01*
X6988621Y12363000D01*
X6921582Y12382685D01*
X6875827Y12435489D01*
X6865883Y12504647D01*
X6894908Y12568203D01*
X6923525Y12592539D01*
X6968343Y12620183D01*
X7092315Y12744155D01*
X7184356Y12893376D01*
X7184358Y12893381D01*
X7239505Y13059803D01*
X7239506Y13059810D01*
X7249999Y13162514D01*
X7250000Y13162527D01*
X7250000Y13512500D01*
X3250001Y13512500D01*
X3250001Y13162514D01*
X3260494Y13059803D01*
X3315641Y12893381D01*
X3315643Y12893376D01*
X3407684Y12744155D01*
X3531654Y12620185D01*
X3680875Y12528144D01*
X3680880Y12528142D01*
X3847302Y12472995D01*
X3847309Y12472994D01*
X3950019Y12462501D01*
X4511236Y12462501D01*
X4578275Y12442817D01*
X4624030Y12390013D01*
X4633974Y12320854D01*
X4604949Y12257298D01*
X4576334Y12232963D01*
X4531344Y12205213D01*
X4407289Y12081158D01*
X4315187Y11931837D01*
X4315185Y11931832D01*
X4292211Y11862501D01*
X4260001Y11765297D01*
X4260001Y11765296D01*
X4260000Y11765296D01*
X4249500Y11662517D01*
X4249500Y11062499D01*
X4249501Y11062481D01*
X4260000Y10959704D01*
X4260001Y10959701D01*
X4315185Y10793169D01*
X4315187Y10793164D01*
X4323872Y10779083D01*
X4406880Y10644505D01*
X4407289Y10643843D01*
X4531344Y10519788D01*
X4615718Y10467746D01*
X4662443Y10415798D01*
X4673666Y10346836D01*
X4645822Y10282753D01*
X4615720Y10256669D01*
X4531656Y10204818D01*
X4407684Y10080846D01*
X4315643Y9931625D01*
X4315641Y9931620D01*
X4260494Y9765198D01*
X4260493Y9765191D01*
X4250000Y9662487D01*
X4250000Y9612500D01*
X10749999Y9612500D01*
X10749999Y9662472D01*
X10749998Y9662487D01*
X10739505Y9765198D01*
X10684358Y9931620D01*
X10684356Y9931625D01*
X10592315Y10080846D01*
X10468344Y10204817D01*
X10468340Y10204820D01*
X10384280Y10256669D01*
X10363623Y10279635D01*
X10341455Y10301143D01*
X10340465Y10305381D01*
X10337555Y10308617D01*
X10332594Y10339102D01*
X10325573Y10369184D01*
X10327032Y10373286D01*
X10326334Y10377579D01*
X10338640Y10405903D01*
X10348999Y10435010D01*
X10352832Y10438568D01*
X10354177Y10441661D01*
X10373576Y10460340D01*
X10378732Y10464324D01*
X10468656Y10519788D01*
X10530153Y10581286D01*
X10536429Y10586133D01*
X10561885Y10596069D01*
X10585872Y10609166D01*
X10599084Y10610587D01*
X10601517Y10611536D01*
X10603740Y10611088D01*
X10612230Y10612000D01*
X11073920Y10612000D01*
X11207260Y10638524D01*
X11276851Y10632297D01*
X11332029Y10589435D01*
X11355274Y10523545D01*
X11339207Y10455548D01*
X11331770Y10444022D01*
X11217087Y10286175D01*
X11109897Y10075803D01*
X11036934Y9851248D01*
X11000000Y9618053D01*
X11000000Y9381948D01*
X11036934Y9148753D01*
X11109897Y8924198D01*
X11217087Y8713826D01*
X11277338Y8630896D01*
X11277340Y8630895D01*
X12057861Y9411416D01*
X12080667Y9326306D01*
X12139910Y9223694D01*
X12223694Y9139910D01*
X12326306Y9080667D01*
X12411415Y9057862D01*
X11630893Y8277342D01*
X11633303Y8246728D01*
X11618938Y8178351D01*
X11569887Y8128595D01*
X11509685Y8113000D01*
X10612230Y8113000D01*
X10590114Y8119495D01*
X10567146Y8121486D01*
X10553936Y8130117D01*
X10545191Y8132685D01*
X10536428Y8138867D01*
X10530157Y8143711D01*
X10468656Y8205212D01*
X10378733Y8260677D01*
X10373575Y8264661D01*
X10356736Y8287878D01*
X10337556Y8309203D01*
X10336481Y8315806D01*
X10332554Y8321221D01*
X10330940Y8349854D01*
X10326333Y8378166D01*
X10328999Y8384303D01*
X10328623Y8390980D01*
X10342745Y8415940D01*
X10354177Y8442248D01*
X10360955Y8448122D01*
X10363031Y8451790D01*
X10368532Y8454688D01*
X10384281Y8468333D01*
X10468343Y8520183D01*
X10592315Y8644155D01*
X10684356Y8793376D01*
X10684358Y8793381D01*
X10739505Y8959803D01*
X10739506Y8959810D01*
X10749999Y9062514D01*
X10750000Y9062527D01*
X10750000Y9112500D01*
X4250001Y9112500D01*
X4250001Y9062514D01*
X4260494Y8959803D01*
X4315641Y8793381D01*
X4315643Y8793376D01*
X4407684Y8644155D01*
X4531654Y8520185D01*
X4615719Y8468333D01*
X4662443Y8416385D01*
X4673666Y8347422D01*
X4645822Y8283340D01*
X4615719Y8257256D01*
X4531347Y8205215D01*
X4531343Y8205212D01*
X4407289Y8081158D01*
X4315187Y7931837D01*
X4315185Y7931832D01*
X4301512Y7890570D01*
X4260001Y7765297D01*
X4260001Y7765296D01*
X4260000Y7765296D01*
X4249500Y7662517D01*
X4249500Y7062499D01*
X4249501Y7062481D01*
X4260000Y6959704D01*
X4260001Y6959701D01*
X4315185Y6793169D01*
X4315187Y6793164D01*
X4323587Y6779546D01*
X4396089Y6662000D01*
X4407289Y6643843D01*
X4531344Y6519788D01*
X4576333Y6492039D01*
X4623058Y6440092D01*
X4634281Y6371129D01*
X4606438Y6307047D01*
X4548369Y6268190D01*
X4511237Y6262500D01*
X3950028Y6262500D01*
X3950012Y6262499D01*
X3847302Y6252006D01*
X3680880Y6196859D01*
X3680875Y6196857D01*
X3531654Y6104816D01*
X3407684Y5980846D01*
X3315643Y5831625D01*
X3315641Y5831620D01*
X3260494Y5665198D01*
X3260493Y5665191D01*
X3250000Y5562487D01*
X500500Y5562487D01*
X500500Y14362487D01*
X3250000Y14362487D01*
X3250000Y14012500D01*
X5000000Y14012500D01*
X5500000Y14012500D01*
X7249999Y14012500D01*
X7249999Y14362472D01*
X7249998Y14362487D01*
X7239505Y14465198D01*
X7184358Y14631620D01*
X7184356Y14631625D01*
X7092315Y14780846D01*
X6968345Y14904816D01*
X6819124Y14996857D01*
X6819119Y14996859D01*
X6652697Y15052006D01*
X6652690Y15052007D01*
X6549986Y15062500D01*
X5500000Y15062500D01*
X5500000Y14012500D01*
X5000000Y14012500D01*
X5000000Y15062500D01*
X3950028Y15062500D01*
X3950012Y15062499D01*
X3847302Y15052006D01*
X3680880Y14996859D01*
X3680875Y14996857D01*
X3531654Y14904816D01*
X3407684Y14780846D01*
X3315643Y14631625D01*
X3315641Y14631620D01*
X3260494Y14465198D01*
X3260493Y14465191D01*
X3250000Y14362487D01*
X500500Y14362487D01*
X500500Y19375500D01*
X520185Y19442539D01*
X572989Y19488294D01*
X624500Y19499500D01*
X49375500Y19499500D01*
X49442539Y19479815D01*
G37*
%TD.AperFunction*%
%TD*%
M02*
