%TF.GenerationSoftware,KiCad,Pcbnew,9.0.6*%
%TF.CreationDate,2026-03-08T15:08:06-06:00*%
%TF.ProjectId,Photoeye PCB_V1,50686f74-6f65-4796-9520-5043425f5631,rev?*%
%TF.SameCoordinates,PX68e7780PY6422c40*%
%TF.FileFunction,Copper,L1,Top*%
%TF.FilePolarity,Positive*%
%FSLAX46Y46*%
G04 Gerber Fmt 4.6, Leading zero omitted, Abs format (unit mm)*
G04 Created by KiCad (PCBNEW 9.0.6) date 2026-03-08 15:08:06*
%MOMM*%
%LPD*%
G01*
G04 APERTURE LIST*
G04 Aperture macros list*
%AMRoundRect*
0 Rectangle with rounded corners*
0 $1 Rounding radius*
0 $2 $3 $4 $5 $6 $7 $8 $9 X,Y pos of 4 corners*
0 Add a 4 corners polygon primitive as box body*
4,1,4,$2,$3,$4,$5,$6,$7,$8,$9,$2,$3,0*
0 Add four circle primitives for the rounded corners*
1,1,$1+$1,$2,$3*
1,1,$1+$1,$4,$5*
1,1,$1+$1,$6,$7*
1,1,$1+$1,$8,$9*
0 Add four rect primitives between the rounded corners*
20,1,$1+$1,$2,$3,$4,$5,0*
20,1,$1+$1,$4,$5,$6,$7,0*
20,1,$1+$1,$6,$7,$8,$9,0*
20,1,$1+$1,$8,$9,$2,$3,0*%
G04 Aperture macros list end*
%TA.AperFunction,ComponentPad*%
%ADD10C,1.620000*%
%TD*%
%TA.AperFunction,SMDPad,CuDef*%
%ADD11RoundRect,0.218750X0.218750X0.256250X-0.218750X0.256250X-0.218750X-0.256250X0.218750X-0.256250X0*%
%TD*%
%TA.AperFunction,SMDPad,CuDef*%
%ADD12RoundRect,0.250000X1.250000X-0.550000X1.250000X0.550000X-1.250000X0.550000X-1.250000X-0.550000X0*%
%TD*%
%TA.AperFunction,SMDPad,CuDef*%
%ADD13RoundRect,0.250000X2.500000X-0.250000X2.500000X0.250000X-2.500000X0.250000X-2.500000X-0.250000X0*%
%TD*%
%TA.AperFunction,SMDPad,CuDef*%
%ADD14RoundRect,0.200000X0.200000X0.275000X-0.200000X0.275000X-0.200000X-0.275000X0.200000X-0.275000X0*%
%TD*%
%TA.AperFunction,SMDPad,CuDef*%
%ADD15RoundRect,0.250000X-1.250000X0.550000X-1.250000X-0.550000X1.250000X-0.550000X1.250000X0.550000X0*%
%TD*%
%TA.AperFunction,SMDPad,CuDef*%
%ADD16RoundRect,0.250000X-2.500000X0.250000X-2.500000X-0.250000X2.500000X-0.250000X2.500000X0.250000X0*%
%TD*%
%TA.AperFunction,SMDPad,CuDef*%
%ADD17R,1.475000X0.450000*%
%TD*%
%TA.AperFunction,ComponentPad*%
%ADD18C,1.416000*%
%TD*%
%TA.AperFunction,ComponentPad*%
%ADD19R,1.416000X1.416000*%
%TD*%
%TA.AperFunction,SMDPad,CuDef*%
%ADD20RoundRect,0.225000X0.225000X0.250000X-0.225000X0.250000X-0.225000X-0.250000X0.225000X-0.250000X0*%
%TD*%
%TA.AperFunction,Conductor*%
%ADD21C,0.500000*%
%TD*%
%TA.AperFunction,Conductor*%
%ADD22C,0.300000*%
%TD*%
%TA.AperFunction,Conductor*%
%ADD23C,0.400000*%
%TD*%
G04 APERTURE END LIST*
D10*
%TO.P,JP1,1,A*%
%TO.N,+3.3V*%
X37000000Y3500000D03*
%TO.P,JP1,2,B*%
X37000000Y6500000D03*
%TD*%
D11*
%TO.P,D1,2,A*%
%TO.N,Net-(D1-A)*%
X32712500Y13862500D03*
%TO.P,D1,1,K*%
%TO.N,+3.3V*%
X34287500Y13862500D03*
%TD*%
%TO.P,D2,2,A*%
%TO.N,Net-(D2-A)*%
X32712500Y11862500D03*
%TO.P,D2,1,K*%
%TO.N,GND*%
X34287500Y11862500D03*
%TD*%
D12*
%TO.P,J1,MP,Pin_1*%
%TO.N,GND*%
X5250000Y13762500D03*
X5250000Y4962500D03*
D13*
%TO.P,J1,3,Pin_3*%
%TO.N,Net-(J1-Pin_3)*%
X7500000Y11362500D03*
%TO.P,J1,2,Pin_2*%
%TO.N,GND*%
X7500000Y9362500D03*
%TO.P,J1,1,Pin_1*%
%TO.N,+3.3V*%
X7500000Y7362500D03*
%TD*%
D14*
%TO.P,R3,2*%
%TO.N,Net-(U2-K)*%
X28175000Y4500000D03*
%TO.P,R3,1*%
%TO.N,GND*%
X29825000Y4500000D03*
%TD*%
D10*
%TO.P,R1,3*%
%TO.N,GND*%
X21500000Y11862500D03*
%TO.P,R1,2*%
%TO.N,Net-(J1-Pin_3)*%
X24000000Y16862500D03*
%TO.P,R1,1*%
%TO.N,Net-(U1-IN1+)*%
X26500000Y11862500D03*
%TD*%
%TO.P,R2,3*%
%TO.N,GND*%
X17500000Y7000000D03*
%TO.P,R2,2*%
X12500000Y9500000D03*
%TO.P,R2,1*%
%TO.N,/platterSensor*%
X17500000Y12000000D03*
%TD*%
D14*
%TO.P,R5,2*%
%TO.N,/outputState*%
X29175000Y11862500D03*
%TO.P,R5,1*%
%TO.N,Net-(D2-A)*%
X30825000Y11862500D03*
%TD*%
D15*
%TO.P,J2,MP,Pin_1*%
%TO.N,GND*%
X45000000Y8700000D03*
X45000000Y17500000D03*
D16*
%TO.P,J2,3,Pin_3*%
%TO.N,/outputState*%
X42750000Y11100000D03*
%TO.P,J2,2,Pin_2*%
%TO.N,GND*%
X42750000Y13100000D03*
%TO.P,J2,1,Pin_1*%
%TO.N,+3.3V*%
X42750000Y15100000D03*
%TD*%
D17*
%TO.P,U1,8,VCC+*%
%TO.N,+3.3V*%
X34212000Y9337500D03*
%TO.P,U1,7,OUT2*%
%TO.N,unconnected-(U1-OUT2-Pad7)*%
X34212000Y8687500D03*
%TO.P,U1,6,IN2-*%
%TO.N,unconnected-(U1-IN2--Pad6)*%
X34212000Y8037500D03*
%TO.P,U1,5,IN2+*%
%TO.N,unconnected-(U1-IN2+-Pad5)*%
X34212000Y7387500D03*
%TO.P,U1,4,VCC-*%
%TO.N,GND*%
X29788000Y7387500D03*
%TO.P,U1,3,IN1+*%
%TO.N,Net-(U1-IN1+)*%
X29788000Y8037500D03*
%TO.P,U1,2,IN1-*%
%TO.N,/platterSensor*%
X29788000Y8687500D03*
%TO.P,U1,1,OUT_1*%
%TO.N,/outputState*%
X29788000Y9337500D03*
%TD*%
D14*
%TO.P,R4,2*%
%TO.N,/outputState*%
X29175000Y13862500D03*
%TO.P,R4,1*%
%TO.N,Net-(D1-A)*%
X30825000Y13862500D03*
%TD*%
D18*
%TO.P,U2,4,C*%
%TO.N,+3.3V*%
X22500000Y7162500D03*
%TO.P,U2,3,E*%
%TO.N,/platterSensor*%
X25000000Y7162500D03*
%TO.P,U2,2,K*%
%TO.N,Net-(U2-K)*%
X25000000Y4362500D03*
D19*
%TO.P,U2,1,A*%
%TO.N,+3.3V*%
X22500000Y4362500D03*
%TD*%
D20*
%TO.P,C1,2*%
%TO.N,+3.3V*%
X36725000Y9362500D03*
%TO.P,C1,1*%
%TO.N,GND*%
X38275000Y9362500D03*
%TD*%
D21*
%TO.N,+3.3V*%
X34675000Y15100000D02*
X34287500Y14712500D01*
X38500000Y15100000D02*
X34675000Y15100000D01*
X38500000Y15100000D02*
X42750000Y15100000D01*
X36725000Y8275000D02*
X37000000Y8000000D01*
X36725000Y9362500D02*
X36725000Y8275000D01*
X37000000Y6500000D02*
X37000000Y8000000D01*
%TO.N,GND*%
X39500000Y1000000D02*
X43500000Y5000000D01*
X21000000Y1000000D02*
X39500000Y1000000D01*
X17500000Y4500000D02*
X21000000Y1000000D01*
X17500000Y7000000D02*
X17500000Y4500000D01*
X45000000Y6500000D02*
X45000000Y8700000D01*
X43500000Y5000000D02*
X45000000Y6500000D01*
X30325000Y5000000D02*
X43500000Y5000000D01*
X29825000Y4500000D02*
X30325000Y5000000D01*
%TO.N,+3.3V*%
X24172499Y2690001D02*
X22500000Y4362500D01*
X36190001Y2690001D02*
X24172499Y2690001D01*
X37000000Y3500000D02*
X36190001Y2690001D01*
%TO.N,GND*%
X47000000Y10700000D02*
X45000000Y8700000D01*
X47000000Y14000000D02*
X47000000Y10700000D01*
X29825000Y4675000D02*
X29825000Y4500000D01*
X27138500Y7361500D02*
X29825000Y4675000D01*
%TO.N,Net-(U2-K)*%
X28037500Y4362500D02*
X28175000Y4500000D01*
X25000000Y4362500D02*
X28037500Y4362500D01*
%TO.N,+3.3V*%
X36725000Y9362500D02*
X34213000Y9362500D01*
X34213000Y9362500D02*
X34212000Y9363500D01*
X22500000Y4362500D02*
X22500000Y6000000D01*
X22500000Y6000000D02*
X22500000Y7162500D01*
%TO.N,GND*%
X46100000Y13100000D02*
X42750000Y13100000D01*
X47000000Y17000000D02*
X47000000Y14000000D01*
X46500000Y17500000D02*
X47000000Y17000000D01*
X47000000Y14000000D02*
X46100000Y13100000D01*
X45000000Y17500000D02*
X46500000Y17500000D01*
X34362500Y17500000D02*
X45000000Y17500000D01*
X33362500Y18500000D02*
X34362500Y17500000D01*
X40537500Y9362500D02*
X38275000Y9362500D01*
X41200000Y8700000D02*
X40537500Y9362500D01*
X41200000Y8700000D02*
X45000000Y8700000D01*
%TO.N,/outputState*%
X36000000Y11000000D02*
X36100000Y11100000D01*
X35637500Y11000000D02*
X36000000Y11000000D01*
X29175000Y10362500D02*
X35000000Y10362500D01*
X35000000Y10362500D02*
X35637500Y11000000D01*
X36100000Y11100000D02*
X42750000Y11100000D01*
%TO.N,GND*%
X35362500Y11862500D02*
X34287500Y11862500D01*
X36600000Y13100000D02*
X35362500Y11862500D01*
X42750000Y13100000D02*
X36600000Y13100000D01*
X36737500Y13100000D02*
X42750000Y13100000D01*
D22*
X29825000Y7350500D02*
X29788000Y7387500D01*
D21*
%TO.N,+3.3V*%
X15000000Y12500000D02*
X15000000Y11000000D01*
%TO.N,/platterSensor*%
X22637500Y9362500D02*
X21000000Y9362500D01*
X21000000Y9362500D02*
X18362500Y12000000D01*
X18362500Y12000000D02*
X17500000Y12000000D01*
X25000000Y7162500D02*
X24837500Y7162500D01*
X24837500Y7162500D02*
X22637500Y9362500D01*
D23*
X28650500Y8687500D02*
X28000000Y9338000D01*
X28000000Y9338000D02*
X28000000Y10000000D01*
X29788000Y8687500D02*
X28650500Y8687500D01*
%TO.N,Net-(U1-IN1+)*%
X26500000Y9500000D02*
X26500000Y11862500D01*
X29788000Y8037500D02*
X27962500Y8037500D01*
X27962500Y8037500D02*
X26500000Y9500000D01*
D21*
%TO.N,GND*%
X27138500Y7361500D02*
X29007404Y7361500D01*
X21500000Y11862500D02*
X22637500Y11862500D01*
X22637500Y11862500D02*
X27138500Y7361500D01*
%TO.N,/platterSensor*%
X25000000Y7162500D02*
X25200000Y7362500D01*
X28000000Y13036696D02*
X28000000Y10000000D01*
X27536696Y13500000D02*
X28000000Y13036696D01*
X19000000Y13500000D02*
X20000000Y13500000D01*
X20000000Y13500000D02*
X27536696Y13500000D01*
X17500000Y12000000D02*
X19000000Y13500000D01*
%TO.N,GND*%
X2500000Y9500000D02*
X2500000Y5500000D01*
X2637500Y9362500D02*
X2500000Y9500000D01*
X7500000Y9362500D02*
X2637500Y9362500D01*
X3037500Y4962500D02*
X5250000Y4962500D01*
X2500000Y13000000D02*
X2500000Y9500000D01*
X3262500Y13762500D02*
X2500000Y13000000D01*
X5250000Y13762500D02*
X3262500Y13762500D01*
X2500000Y5500000D02*
X3037500Y4962500D01*
%TO.N,+3.3V*%
X34287500Y14712500D02*
X34287500Y13862500D01*
X26000000Y14500000D02*
X28000000Y16500000D01*
X15000000Y12500000D02*
X17000000Y14500000D01*
X16500000Y9500000D02*
X15000000Y11000000D01*
X17000000Y14500000D02*
X26000000Y14500000D01*
X16500000Y9362500D02*
X16500000Y9500000D01*
X32500000Y16500000D02*
X34287500Y14712500D01*
X28000000Y16500000D02*
X32500000Y16500000D01*
%TO.N,GND*%
X9762500Y13762500D02*
X5250000Y13762500D01*
X14500000Y18500000D02*
X9762500Y13762500D01*
X33362500Y18500000D02*
X14500000Y18500000D01*
%TO.N,/outputState*%
X29175000Y9976500D02*
X29788000Y9363500D01*
X29175000Y11862500D02*
X29175000Y10862500D01*
%TO.N,Net-(J1-Pin_3)*%
X16500000Y16862500D02*
X24000000Y16862500D01*
X11000000Y11362500D02*
X16500000Y16862500D01*
X7500000Y11362500D02*
X11000000Y11362500D01*
%TO.N,GND*%
X12362500Y9362500D02*
X12500000Y9500000D01*
X7500000Y9362500D02*
X12362500Y9362500D01*
%TO.N,Net-(D1-A)*%
X30825000Y13862500D02*
X32712500Y13862500D01*
%TO.N,Net-(D2-A)*%
X30825000Y11862500D02*
X32712500Y11862500D01*
%TO.N,/outputState*%
X29175000Y13862500D02*
X29175000Y11862500D01*
X29175000Y10862500D02*
X29175000Y9976500D01*
%TO.N,+3.3V*%
X14500000Y7362500D02*
X16500000Y9362500D01*
X7500000Y7362500D02*
X14500000Y7362500D01*
X20700000Y7162500D02*
X22500000Y7162500D01*
X18500000Y9362500D02*
X20700000Y7162500D01*
X16500000Y9362500D02*
X18500000Y9362500D01*
%TD*%
%TA.AperFunction,Conductor*%
%TO.N,GND*%
G36*
X49442539Y19479815D02*
G01*
X49488294Y19427011D01*
X49499500Y19375500D01*
X49499500Y624500D01*
X49479815Y557461D01*
X49427011Y511706D01*
X49375500Y500500D01*
X624500Y500500D01*
X557461Y520185D01*
X511706Y572989D01*
X500500Y624500D01*
X500500Y4362514D01*
X3250001Y4362514D01*
X3260494Y4259803D01*
X3315641Y4093381D01*
X3315643Y4093376D01*
X3407684Y3944155D01*
X3531654Y3820185D01*
X3680875Y3728144D01*
X3680880Y3728142D01*
X3847302Y3672995D01*
X3847309Y3672994D01*
X3950019Y3662501D01*
X4999999Y3662501D01*
X5500000Y3662501D01*
X6549972Y3662501D01*
X6549986Y3662502D01*
X6652697Y3672995D01*
X6819119Y3728142D01*
X6819124Y3728144D01*
X6968345Y3820185D01*
X7092315Y3944155D01*
X7184356Y4093376D01*
X7184358Y4093381D01*
X7239505Y4259803D01*
X7239506Y4259810D01*
X7249999Y4362514D01*
X7250000Y4362527D01*
X7250000Y4712500D01*
X5500000Y4712500D01*
X5500000Y3662501D01*
X4999999Y3662501D01*
X5000000Y3662502D01*
X5000000Y4712500D01*
X3250001Y4712500D01*
X3250001Y4362514D01*
X500500Y4362514D01*
X500500Y5562487D01*
X3250000Y5562487D01*
X3250000Y5212500D01*
X7249999Y5212500D01*
X7249999Y5562472D01*
X7249998Y5562487D01*
X7239505Y5665198D01*
X7184358Y5831620D01*
X7184353Y5831631D01*
X7144941Y5895527D01*
X7144939Y5895529D01*
X7092315Y5980846D01*
X6968344Y6104817D01*
X6968340Y6104820D01*
X6923524Y6132463D01*
X6876799Y6184411D01*
X6865578Y6253373D01*
X6893421Y6317455D01*
X6951490Y6356311D01*
X6988617Y6362001D01*
X10050008Y6362001D01*
X10152797Y6372501D01*
X10319334Y6427686D01*
X10468656Y6519788D01*
X10524549Y6575681D01*
X10585872Y6609166D01*
X10612230Y6612000D01*
X14573920Y6612000D01*
X14671462Y6631404D01*
X14718913Y6640842D01*
X14855495Y6697416D01*
X14904729Y6730314D01*
X14978416Y6779548D01*
X15301973Y7103105D01*
X16190000Y7103105D01*
X16190000Y6896896D01*
X16222256Y6693241D01*
X16285976Y6497132D01*
X16379587Y6313410D01*
X16413365Y6266920D01*
X16413365Y6266919D01*
X17057861Y6911416D01*
X17080667Y6826306D01*
X17139910Y6723694D01*
X17223694Y6639910D01*
X17326306Y6580667D01*
X17411414Y6557863D01*
X16766917Y5913367D01*
X16766918Y5913366D01*
X16813404Y5879592D01*
X16813417Y5879584D01*
X16997131Y5785977D01*
X17193240Y5722257D01*
X17396896Y5690000D01*
X17603104Y5690000D01*
X17806759Y5722257D01*
X18002868Y5785977D01*
X18186590Y5879588D01*
X18233080Y5913366D01*
X18233080Y5913367D01*
X17588585Y6557862D01*
X17673694Y6580667D01*
X17776306Y6639910D01*
X17860090Y6723694D01*
X17919333Y6826306D01*
X17942138Y6911415D01*
X18586633Y6266920D01*
X18586634Y6266920D01*
X18620412Y6313410D01*
X18714023Y6497132D01*
X18777743Y6693241D01*
X18810000Y6896896D01*
X18810000Y7103105D01*
X18777743Y7306760D01*
X18714023Y7502869D01*
X18620416Y7686583D01*
X18620408Y7686596D01*
X18586634Y7733082D01*
X18586633Y7733083D01*
X17942137Y7088587D01*
X17919333Y7173694D01*
X17860090Y7276306D01*
X17776306Y7360090D01*
X17673694Y7419333D01*
X17588583Y7442139D01*
X18233081Y8086635D01*
X18186590Y8120413D01*
X18002868Y8214024D01*
X17806759Y8277744D01*
X17603104Y8310000D01*
X17396896Y8310000D01*
X17193240Y8277744D01*
X16997131Y8214024D01*
X16813413Y8120415D01*
X16766918Y8086635D01*
X16766918Y8086634D01*
X17411414Y7442139D01*
X17326306Y7419333D01*
X17223694Y7360090D01*
X17139910Y7276306D01*
X17080667Y7173694D01*
X17057861Y7088586D01*
X16413366Y7733082D01*
X16413365Y7733082D01*
X16379585Y7686587D01*
X16285976Y7502869D01*
X16222256Y7306760D01*
X16190000Y7103105D01*
X15301973Y7103105D01*
X16774548Y8575682D01*
X16835871Y8609166D01*
X16862229Y8612000D01*
X18137770Y8612000D01*
X18204809Y8592315D01*
X18225451Y8575681D01*
X20221586Y6579546D01*
X20251058Y6559855D01*
X20295270Y6530314D01*
X20344505Y6497416D01*
X20344506Y6497416D01*
X20344507Y6497415D01*
X20344509Y6497414D01*
X20481082Y6440844D01*
X20481087Y6440842D01*
X20481091Y6440842D01*
X20481092Y6440841D01*
X20626079Y6412000D01*
X20626082Y6412000D01*
X20626083Y6412000D01*
X20773918Y6412000D01*
X21490061Y6412000D01*
X21519501Y6403356D01*
X21549488Y6396832D01*
X21554503Y6393078D01*
X21557100Y6392315D01*
X21577742Y6375681D01*
X21713181Y6240242D01*
X21746666Y6178919D01*
X21749500Y6152561D01*
X21749500Y5674924D01*
X21729815Y5607885D01*
X21677011Y5562130D01*
X21668833Y5558742D01*
X21549671Y5514298D01*
X21549664Y5514294D01*
X21434455Y5428048D01*
X21434452Y5428045D01*
X21348206Y5312836D01*
X21348202Y5312829D01*
X21297908Y5177983D01*
X21291501Y5118384D01*
X21291501Y5118377D01*
X21291500Y5118365D01*
X21291500Y3606630D01*
X21291501Y3606624D01*
X21297908Y3547017D01*
X21348202Y3412172D01*
X21348206Y3412165D01*
X21434452Y3296956D01*
X21434455Y3296953D01*
X21549664Y3210707D01*
X21549671Y3210703D01*
X21684517Y3160409D01*
X21684516Y3160409D01*
X21691444Y3159665D01*
X21744127Y3154000D01*
X22595769Y3154001D01*
X22662808Y3134317D01*
X22683450Y3117682D01*
X23694085Y2107047D01*
X23723557Y2087356D01*
X23767769Y2057815D01*
X23817004Y2024917D01*
X23817005Y2024917D01*
X23817006Y2024916D01*
X23817008Y2024915D01*
X23953581Y1968345D01*
X23953586Y1968343D01*
X23953590Y1968343D01*
X23953591Y1968342D01*
X24098578Y1939501D01*
X24098581Y1939501D01*
X36263921Y1939501D01*
X36361463Y1958905D01*
X36408914Y1968343D01*
X36545496Y2024917D01*
X36594730Y2057815D01*
X36668417Y2107049D01*
X36730615Y2169249D01*
X36735510Y2173236D01*
X36762127Y2184430D01*
X36787476Y2198271D01*
X36795592Y2198503D01*
X36799916Y2200321D01*
X36808246Y2198865D01*
X36833233Y2199578D01*
X36896861Y2189500D01*
X36896862Y2189500D01*
X37103138Y2189500D01*
X37103139Y2189500D01*
X37306876Y2221769D01*
X37306879Y2221770D01*
X37306880Y2221770D01*
X37503054Y2285511D01*
X37503054Y2285512D01*
X37503057Y2285512D01*
X37686852Y2379160D01*
X37853733Y2500407D01*
X37999593Y2646267D01*
X38120840Y2813148D01*
X38214488Y2996943D01*
X38214489Y2996946D01*
X38278230Y3193120D01*
X38278230Y3193121D01*
X38278231Y3193124D01*
X38310500Y3396861D01*
X38310500Y3603139D01*
X38278231Y3806876D01*
X38278230Y3806880D01*
X38278230Y3806881D01*
X38214489Y4003055D01*
X38168468Y4093376D01*
X38120840Y4186852D01*
X37999593Y4353733D01*
X37853733Y4499593D01*
X37686852Y4620840D01*
X37638472Y4645491D01*
X37503054Y4714490D01*
X37306879Y4778231D01*
X37154073Y4802433D01*
X37103139Y4810500D01*
X36896861Y4810500D01*
X36828948Y4799744D01*
X36693122Y4778231D01*
X36693119Y4778231D01*
X36496945Y4714490D01*
X36313147Y4620840D01*
X36146265Y4499592D01*
X36000408Y4353735D01*
X35879160Y4186853D01*
X35785510Y4003055D01*
X35721769Y3806881D01*
X35721769Y3806878D01*
X35689500Y3603139D01*
X35689500Y3564501D01*
X35669815Y3497462D01*
X35617011Y3451707D01*
X35565500Y3440501D01*
X30525169Y3440501D01*
X30458130Y3460186D01*
X30412375Y3512990D01*
X30402431Y3582148D01*
X30431456Y3645704D01*
X30454268Y3664928D01*
X30453974Y3665303D01*
X30459878Y3669929D01*
X30580072Y3790123D01*
X30668019Y3935605D01*
X30718590Y4097894D01*
X30725000Y4168428D01*
X30725000Y4250000D01*
X29949000Y4250000D01*
X29881961Y4269685D01*
X29836206Y4322489D01*
X29825000Y4374000D01*
X29825000Y4500000D01*
X29699000Y4500000D01*
X29631961Y4519685D01*
X29586206Y4572489D01*
X29575000Y4624000D01*
X29575000Y4750000D01*
X30075000Y4750000D01*
X30724999Y4750000D01*
X30724999Y4831583D01*
X30718591Y4902103D01*
X30718590Y4902108D01*
X30668018Y5064397D01*
X30580072Y5209878D01*
X30459877Y5330073D01*
X30314395Y5418020D01*
X30314396Y5418020D01*
X30152105Y5468591D01*
X30152106Y5468591D01*
X30081572Y5475000D01*
X30075000Y5475000D01*
X30075000Y4750000D01*
X29575000Y4750000D01*
X29575000Y5475000D01*
X29574999Y5475001D01*
X29568436Y5475000D01*
X29568417Y5474999D01*
X29497897Y5468592D01*
X29497892Y5468591D01*
X29335603Y5418019D01*
X29190122Y5330073D01*
X29190121Y5330072D01*
X29088035Y5227985D01*
X29026712Y5194500D01*
X28957020Y5199484D01*
X28912673Y5227985D01*
X28810188Y5330470D01*
X28729645Y5379160D01*
X28664606Y5418478D01*
X28502196Y5469086D01*
X28502194Y5469087D01*
X28502192Y5469087D01*
X28452778Y5473577D01*
X28431616Y5475500D01*
X27918384Y5475500D01*
X27899145Y5473752D01*
X27847807Y5469087D01*
X27685393Y5418478D01*
X27539811Y5330470D01*
X27419531Y5210190D01*
X27419528Y5210186D01*
X27396957Y5172849D01*
X27345429Y5125662D01*
X27290841Y5113000D01*
X26009939Y5113000D01*
X25942900Y5132685D01*
X25922258Y5149319D01*
X25787287Y5284290D01*
X25787285Y5284292D01*
X25633392Y5396102D01*
X25463907Y5482460D01*
X25282991Y5541244D01*
X25095116Y5571000D01*
X25095111Y5571000D01*
X24904889Y5571000D01*
X24904884Y5571000D01*
X24717008Y5541244D01*
X24536092Y5482460D01*
X24366607Y5396102D01*
X24343289Y5379160D01*
X24212715Y5284292D01*
X24212713Y5284290D01*
X24212712Y5284290D01*
X24078210Y5149788D01*
X24078210Y5149787D01*
X24078208Y5149785D01*
X24055380Y5118365D01*
X23966396Y4995891D01*
X23942983Y4949939D01*
X23895009Y4899144D01*
X23827188Y4882349D01*
X23761053Y4904887D01*
X23717602Y4959602D01*
X23708499Y5006235D01*
X23708499Y5118371D01*
X23708498Y5118377D01*
X23708497Y5118384D01*
X23702091Y5177983D01*
X23697795Y5189500D01*
X23651797Y5312829D01*
X23651793Y5312836D01*
X23565547Y5428045D01*
X23565544Y5428048D01*
X23450335Y5514294D01*
X23450328Y5514298D01*
X23331167Y5558742D01*
X23275233Y5600613D01*
X23250816Y5666078D01*
X23250500Y5674924D01*
X23250500Y6152561D01*
X23270185Y6219600D01*
X23286819Y6240242D01*
X23353624Y6307047D01*
X23421792Y6375215D01*
X23533602Y6529108D01*
X23619961Y6698597D01*
X23632069Y6735865D01*
X23671507Y6793538D01*
X23735866Y6820736D01*
X23804712Y6808821D01*
X23856188Y6761577D01*
X23867929Y6735867D01*
X23873361Y6719150D01*
X23880040Y6698593D01*
X23942668Y6575681D01*
X23966398Y6529108D01*
X24078208Y6375215D01*
X24212715Y6240708D01*
X24366608Y6128898D01*
X24413864Y6104820D01*
X24536092Y6042541D01*
X24536094Y6042541D01*
X24536097Y6042539D01*
X24633070Y6011031D01*
X24717008Y5983757D01*
X24904884Y5954000D01*
X24904889Y5954000D01*
X25095116Y5954000D01*
X25282991Y5983757D01*
X25323582Y5996946D01*
X25463903Y6042539D01*
X25633392Y6128898D01*
X25787285Y6240708D01*
X25921792Y6375215D01*
X26033602Y6529108D01*
X26119961Y6698597D01*
X26178743Y6879509D01*
X26185222Y6920414D01*
X26208500Y7067384D01*
X26208500Y7257617D01*
X26178743Y7445492D01*
X26140984Y7561700D01*
X26119961Y7626403D01*
X26119959Y7626406D01*
X26119959Y7626408D01*
X26033601Y7795893D01*
X26033099Y7796584D01*
X25921792Y7949785D01*
X25787285Y8084292D01*
X25633392Y8196102D01*
X25615507Y8205215D01*
X25463907Y8282460D01*
X25282991Y8341244D01*
X25095116Y8371000D01*
X25095111Y8371000D01*
X24904889Y8371000D01*
X24782100Y8351553D01*
X24712807Y8360509D01*
X24675022Y8386346D01*
X23115921Y9945448D01*
X23115914Y9945454D01*
X23042229Y9994688D01*
X23042229Y9994687D01*
X22992991Y10027587D01*
X22856417Y10084157D01*
X22856407Y10084160D01*
X22711420Y10113000D01*
X22711418Y10113000D01*
X21362229Y10113000D01*
X21295190Y10132685D01*
X21274548Y10149319D01*
X21033884Y10389983D01*
X21000399Y10451306D01*
X21005383Y10520998D01*
X21047255Y10576931D01*
X21112719Y10601348D01*
X21159885Y10595594D01*
X21193238Y10584757D01*
X21396896Y10552500D01*
X21603104Y10552500D01*
X21806759Y10584757D01*
X22002868Y10648477D01*
X22186590Y10742088D01*
X22233080Y10775866D01*
X22233080Y10775867D01*
X21588585Y11420362D01*
X21673694Y11443167D01*
X21776306Y11502410D01*
X21860090Y11586194D01*
X21919333Y11688806D01*
X21942138Y11773915D01*
X22586633Y11129420D01*
X22586634Y11129420D01*
X22620412Y11175910D01*
X22714023Y11359632D01*
X22777743Y11555741D01*
X22810000Y11759396D01*
X22810000Y11965605D01*
X22777743Y12169260D01*
X22714023Y12365369D01*
X22620410Y12549096D01*
X22617851Y12552618D01*
X22594373Y12618425D01*
X22610200Y12686478D01*
X22660308Y12735172D01*
X22718171Y12749500D01*
X25281212Y12749500D01*
X25348251Y12729815D01*
X25394006Y12677011D01*
X25403950Y12607853D01*
X25381530Y12552615D01*
X25379162Y12549356D01*
X25285510Y12365555D01*
X25221769Y12169381D01*
X25221769Y12169378D01*
X25207796Y12081156D01*
X25189500Y11965639D01*
X25189500Y11759361D01*
X25193121Y11736500D01*
X25221769Y11555623D01*
X25221769Y11555620D01*
X25285510Y11359446D01*
X25332447Y11267328D01*
X25379160Y11175648D01*
X25500407Y11008767D01*
X25646267Y10862907D01*
X25748386Y10788713D01*
X25791051Y10733383D01*
X25799500Y10688395D01*
X25799500Y9568994D01*
X25799500Y9431006D01*
X25799500Y9431004D01*
X25799499Y9431004D01*
X25826418Y9295678D01*
X25826421Y9295668D01*
X25879222Y9168193D01*
X25955887Y9053455D01*
X25955888Y9053454D01*
X27418386Y7590958D01*
X27470836Y7538508D01*
X27515959Y7493385D01*
X27630682Y7416729D01*
X27630686Y7416727D01*
X27630689Y7416725D01*
X27705366Y7385793D01*
X27758171Y7363920D01*
X27785091Y7358566D01*
X27882130Y7339263D01*
X27893506Y7337000D01*
X27893507Y7337000D01*
X28426500Y7337000D01*
X28493539Y7317315D01*
X28539294Y7264511D01*
X28550500Y7213000D01*
X28550500Y7114656D01*
X28556901Y7055128D01*
X28556903Y7055121D01*
X28607145Y6920414D01*
X28607149Y6920407D01*
X28693309Y6805313D01*
X28693312Y6805310D01*
X28808406Y6719150D01*
X28808413Y6719146D01*
X28943120Y6668904D01*
X28943127Y6668902D01*
X29002655Y6662501D01*
X29002672Y6662500D01*
X29563000Y6662500D01*
X29563000Y7188001D01*
X29565550Y7196687D01*
X29564262Y7205648D01*
X29575240Y7229689D01*
X29582685Y7255040D01*
X29589525Y7260968D01*
X29593287Y7269204D01*
X29615521Y7283494D01*
X29635489Y7300795D01*
X29646003Y7303083D01*
X29652065Y7306978D01*
X29686996Y7312001D01*
X29889001Y7312001D01*
X29956039Y7292316D01*
X30001794Y7239512D01*
X30013000Y7188001D01*
X30013000Y6662500D01*
X30573328Y6662500D01*
X30573344Y6662501D01*
X30632872Y6668902D01*
X30632879Y6668904D01*
X30767586Y6719146D01*
X30767593Y6719150D01*
X30882687Y6805310D01*
X30882690Y6805313D01*
X30968850Y6920407D01*
X30968854Y6920414D01*
X31019096Y7055121D01*
X31019098Y7055128D01*
X31025499Y7114656D01*
X31025500Y7114673D01*
X31025500Y7162500D01*
X30864935Y7162500D01*
X30797896Y7182185D01*
X30752141Y7234989D01*
X30742197Y7304147D01*
X30771222Y7367703D01*
X30790624Y7385766D01*
X30876428Y7450000D01*
X30883046Y7454954D01*
X30969296Y7570169D01*
X31019591Y7705017D01*
X31026000Y7764627D01*
X31025999Y8310372D01*
X31025998Y8310382D01*
X31025998Y8310389D01*
X31021820Y8349247D01*
X31021820Y8375755D01*
X31026000Y8414627D01*
X31025999Y8960372D01*
X31025999Y8960373D01*
X31025998Y8960389D01*
X31021820Y8999247D01*
X31021820Y9025755D01*
X31026000Y9064627D01*
X31025999Y9488001D01*
X31045683Y9555039D01*
X31098487Y9600794D01*
X31149999Y9612000D01*
X32850000Y9612000D01*
X32917039Y9592315D01*
X32962794Y9539511D01*
X32974000Y9488000D01*
X32974000Y9064631D01*
X32974001Y9064622D01*
X32978179Y9025755D01*
X32978179Y8999250D01*
X32974000Y8960378D01*
X32974000Y8414631D01*
X32974001Y8414622D01*
X32978179Y8375755D01*
X32978179Y8349250D01*
X32974001Y8310382D01*
X32974000Y8310372D01*
X32974000Y7764631D01*
X32974001Y7764622D01*
X32978179Y7725755D01*
X32978179Y7699250D01*
X32974000Y7660378D01*
X32974000Y7114630D01*
X32974001Y7114624D01*
X32980408Y7055017D01*
X33030702Y6920172D01*
X33030706Y6920165D01*
X33116952Y6804956D01*
X33116955Y6804953D01*
X33232164Y6718707D01*
X33232171Y6718703D01*
X33367017Y6668409D01*
X33367016Y6668409D01*
X33373944Y6667665D01*
X33426627Y6662000D01*
X34997372Y6662001D01*
X35056983Y6668409D01*
X35191831Y6718704D01*
X35307046Y6804954D01*
X35393296Y6920169D01*
X35443591Y7055017D01*
X35450000Y7114627D01*
X35449999Y7660372D01*
X35449999Y7660373D01*
X35449998Y7660389D01*
X35445820Y7699247D01*
X35445820Y7725755D01*
X35450000Y7764627D01*
X35449999Y8310372D01*
X35449998Y8310382D01*
X35449998Y8310389D01*
X35445820Y8349247D01*
X35445203Y8367332D01*
X35445366Y8371540D01*
X35450000Y8414627D01*
X35450000Y8490418D01*
X35450094Y8492829D01*
X35460499Y8523757D01*
X35469685Y8555039D01*
X35471575Y8556677D01*
X35472374Y8559051D01*
X35497855Y8579449D01*
X35522489Y8600794D01*
X35525278Y8601401D01*
X35526920Y8602715D01*
X35535365Y8603596D01*
X35574000Y8612000D01*
X35850500Y8612000D01*
X35917539Y8592315D01*
X35963294Y8539511D01*
X35974500Y8488000D01*
X35974500Y8201082D01*
X35974500Y8201080D01*
X35974499Y8201080D01*
X36003340Y8056093D01*
X36003343Y8056083D01*
X36059914Y7919508D01*
X36059915Y7919506D01*
X36059916Y7919505D01*
X36083534Y7884158D01*
X36142048Y7796584D01*
X36217576Y7721056D01*
X36221508Y7716245D01*
X36232777Y7689560D01*
X36246661Y7664134D01*
X36246205Y7657764D01*
X36248690Y7651880D01*
X36243743Y7623338D01*
X36241677Y7594442D01*
X36237849Y7589330D01*
X36236759Y7583036D01*
X36217166Y7561700D01*
X36199806Y7538508D01*
X36198382Y7537458D01*
X36146267Y7499594D01*
X36000408Y7353735D01*
X35879160Y7186853D01*
X35785510Y7003055D01*
X35721769Y6806881D01*
X35721769Y6806878D01*
X35704432Y6697417D01*
X35689500Y6603139D01*
X35689500Y6396861D01*
X35695923Y6356311D01*
X35721769Y6193123D01*
X35721769Y6193120D01*
X35785510Y5996946D01*
X35869748Y5831620D01*
X35879160Y5813148D01*
X36000407Y5646267D01*
X36146267Y5500407D01*
X36313148Y5379160D01*
X36496943Y5285512D01*
X36496945Y5285511D01*
X36693120Y5221770D01*
X36693121Y5221770D01*
X36693124Y5221769D01*
X36896861Y5189500D01*
X36896862Y5189500D01*
X37103138Y5189500D01*
X37103139Y5189500D01*
X37306876Y5221769D01*
X37306879Y5221770D01*
X37306880Y5221770D01*
X37503054Y5285511D01*
X37503054Y5285512D01*
X37503057Y5285512D01*
X37686852Y5379160D01*
X37853733Y5500407D01*
X37999593Y5646267D01*
X38120840Y5813148D01*
X38214488Y5996943D01*
X38249538Y6104816D01*
X38278230Y6193120D01*
X38278230Y6193121D01*
X38278231Y6193124D01*
X38310500Y6396861D01*
X38310500Y6603139D01*
X38278231Y6806876D01*
X38278230Y6806880D01*
X38278230Y6806881D01*
X38214489Y7003055D01*
X38214488Y7003057D01*
X38120840Y7186852D01*
X37999593Y7353733D01*
X37853733Y7499593D01*
X37801613Y7537461D01*
X37758948Y7592791D01*
X37750500Y7637778D01*
X37750500Y8073921D01*
X37745310Y8100014D01*
X43000001Y8100014D01*
X43010494Y7997303D01*
X43065641Y7830881D01*
X43065643Y7830876D01*
X43157684Y7681655D01*
X43281654Y7557685D01*
X43430875Y7465644D01*
X43430880Y7465642D01*
X43597302Y7410495D01*
X43597309Y7410494D01*
X43700019Y7400001D01*
X44749999Y7400001D01*
X45250000Y7400001D01*
X46299972Y7400001D01*
X46299986Y7400002D01*
X46402697Y7410495D01*
X46569119Y7465642D01*
X46569124Y7465644D01*
X46718345Y7557685D01*
X46842315Y7681655D01*
X46934356Y7830876D01*
X46934358Y7830881D01*
X46989505Y7997303D01*
X46989506Y7997310D01*
X46999999Y8100014D01*
X47000000Y8100027D01*
X47000000Y8450000D01*
X45250000Y8450000D01*
X45250000Y7400001D01*
X44749999Y7400001D01*
X44750000Y7400002D01*
X44750000Y8450000D01*
X43000001Y8450000D01*
X43000001Y8100014D01*
X37745310Y8100014D01*
X37727465Y8189720D01*
X37726196Y8196102D01*
X37721659Y8218912D01*
X37708640Y8250342D01*
X37706958Y8255759D01*
X37706501Y8285240D01*
X37703350Y8314547D01*
X37705966Y8319775D01*
X37705876Y8325621D01*
X37721431Y8350672D01*
X37734624Y8377027D01*
X37739650Y8380010D01*
X37742735Y8384977D01*
X37769361Y8397639D01*
X37794712Y8412681D01*
X37800561Y8412476D01*
X37805834Y8414983D01*
X37834793Y8411277D01*
X37864384Y8410239D01*
X37902393Y8397645D01*
X38001683Y8387501D01*
X38525000Y8387501D01*
X38548308Y8387501D01*
X38548322Y8387502D01*
X38647607Y8397645D01*
X38808481Y8450953D01*
X38808492Y8450958D01*
X38952728Y8539925D01*
X38952732Y8539928D01*
X39001848Y8589043D01*
X39072572Y8659768D01*
X39072575Y8659772D01*
X39161542Y8804008D01*
X39161547Y8804019D01*
X39214855Y8964894D01*
X39224999Y9064178D01*
X39225000Y9064191D01*
X39225000Y9112500D01*
X38525000Y9112500D01*
X38525000Y8387501D01*
X38001683Y8387501D01*
X38025000Y8387502D01*
X38025000Y9238500D01*
X38044685Y9305539D01*
X38097489Y9351294D01*
X38149000Y9362500D01*
X38275000Y9362500D01*
X38275000Y9488500D01*
X38294685Y9555539D01*
X38347489Y9601294D01*
X38399000Y9612500D01*
X39224999Y9612500D01*
X39224999Y9660808D01*
X39224998Y9660823D01*
X39214855Y9760108D01*
X39161547Y9920982D01*
X39161542Y9920993D01*
X39072575Y10065229D01*
X39072572Y10065233D01*
X38999986Y10137819D01*
X38966501Y10199142D01*
X38971485Y10268834D01*
X39013357Y10324767D01*
X39078821Y10349184D01*
X39087667Y10349500D01*
X39637770Y10349500D01*
X39704809Y10329815D01*
X39725451Y10313181D01*
X39781344Y10257288D01*
X39930666Y10165186D01*
X40097203Y10110001D01*
X40199991Y10099500D01*
X43261379Y10099501D01*
X43328417Y10079816D01*
X43374172Y10027012D01*
X43384116Y9957854D01*
X43355091Y9894298D01*
X43326476Y9869963D01*
X43281656Y9842318D01*
X43157684Y9718346D01*
X43065643Y9569125D01*
X43065641Y9569120D01*
X43010494Y9402698D01*
X43010493Y9402691D01*
X43000000Y9299987D01*
X43000000Y8950000D01*
X46999999Y8950000D01*
X46999999Y9299972D01*
X46999998Y9299987D01*
X46989505Y9402698D01*
X46934358Y9569120D01*
X46934356Y9569125D01*
X46842315Y9718346D01*
X46718345Y9842316D01*
X46569124Y9934357D01*
X46569119Y9934359D01*
X46402697Y9989506D01*
X46402690Y9989507D01*
X46299986Y10000000D01*
X45738763Y10000000D01*
X45671724Y10019685D01*
X45625969Y10072489D01*
X45616025Y10141647D01*
X45645050Y10205203D01*
X45673667Y10229539D01*
X45718656Y10257288D01*
X45842712Y10381344D01*
X45934814Y10530666D01*
X45989999Y10697203D01*
X46000500Y10799991D01*
X46000499Y11400008D01*
X45989999Y11502797D01*
X45934814Y11669334D01*
X45842712Y11818656D01*
X45718656Y11942712D01*
X45634279Y11994756D01*
X45587556Y12046703D01*
X45576333Y12115666D01*
X45604177Y12179748D01*
X45634281Y12205833D01*
X45718343Y12257683D01*
X45842315Y12381655D01*
X45934356Y12530876D01*
X45934358Y12530881D01*
X45989505Y12697303D01*
X45989506Y12697310D01*
X45999999Y12800014D01*
X46000000Y12800027D01*
X46000000Y12850000D01*
X39500001Y12850000D01*
X39500001Y12800014D01*
X39510494Y12697303D01*
X39565641Y12530881D01*
X39565643Y12530876D01*
X39657684Y12381655D01*
X39781654Y12257685D01*
X39865719Y12205833D01*
X39886375Y12182868D01*
X39908544Y12161359D01*
X39909533Y12157120D01*
X39912443Y12153885D01*
X39917403Y12123403D01*
X39924426Y12093318D01*
X39922966Y12089218D01*
X39923666Y12084922D01*
X39911357Y12056594D01*
X39901001Y12027492D01*
X39897166Y12023935D01*
X39895822Y12020840D01*
X39876424Y12002161D01*
X39871261Y11998174D01*
X39781344Y11942712D01*
X39719842Y11881211D01*
X39713572Y11876367D01*
X39688111Y11866431D01*
X39664128Y11853334D01*
X39650916Y11851914D01*
X39648484Y11850964D01*
X39646259Y11851413D01*
X39637770Y11850500D01*
X36026080Y11850500D01*
X35881092Y11821660D01*
X35881086Y11821658D01*
X35788948Y11783493D01*
X35745020Y11765297D01*
X35738878Y11762753D01*
X35738520Y11763615D01*
X35686160Y11750500D01*
X35563580Y11750500D01*
X35418592Y11721660D01*
X35418582Y11721657D01*
X35282007Y11665086D01*
X35273447Y11659366D01*
X35234582Y11633398D01*
X35167907Y11612520D01*
X35165693Y11612500D01*
X34411500Y11612500D01*
X34344461Y11632185D01*
X34298706Y11684989D01*
X34287500Y11736500D01*
X34287500Y11988500D01*
X34307185Y12055539D01*
X34359989Y12101294D01*
X34411500Y12112500D01*
X35224999Y12112500D01*
X35224999Y12166636D01*
X35224998Y12166653D01*
X35214943Y12265084D01*
X35162093Y12424573D01*
X35162091Y12424578D01*
X35073885Y12567581D01*
X34955080Y12686386D01*
X34841135Y12756668D01*
X34794411Y12808616D01*
X34783189Y12877579D01*
X34811032Y12941661D01*
X34841129Y12967742D01*
X34955391Y13038219D01*
X35074281Y13157109D01*
X35162549Y13300213D01*
X35215436Y13459815D01*
X35225500Y13558326D01*
X35225500Y14166674D01*
X35222697Y14194114D01*
X35220778Y14212898D01*
X35233547Y14281591D01*
X35281428Y14332475D01*
X35344136Y14349500D01*
X38426082Y14349500D01*
X39637770Y14349500D01*
X39659885Y14343006D01*
X39682854Y14341014D01*
X39696063Y14332384D01*
X39704809Y14329815D01*
X39713572Y14323633D01*
X39719842Y14318790D01*
X39781344Y14257288D01*
X39871267Y14201824D01*
X39876424Y14197840D01*
X39893264Y14174621D01*
X39912443Y14153298D01*
X39913517Y14146696D01*
X39917445Y14141280D01*
X39919058Y14112649D01*
X39923666Y14084336D01*
X39920999Y14078200D01*
X39921376Y14071521D01*
X39907251Y14046557D01*
X39895822Y14020253D01*
X39889045Y14014382D01*
X39886969Y14010711D01*
X39881465Y14007814D01*
X39865720Y13994169D01*
X39781656Y13942318D01*
X39657684Y13818346D01*
X39565643Y13669125D01*
X39565641Y13669120D01*
X39510494Y13502698D01*
X39510493Y13502691D01*
X39500000Y13399987D01*
X39500000Y13350000D01*
X45999999Y13350000D01*
X45999999Y13399972D01*
X45999998Y13399987D01*
X45989505Y13502698D01*
X45934358Y13669120D01*
X45934356Y13669125D01*
X45842315Y13818346D01*
X45718344Y13942317D01*
X45718340Y13942320D01*
X45634280Y13994169D01*
X45587555Y14046117D01*
X45576334Y14115079D01*
X45604177Y14179161D01*
X45634278Y14205244D01*
X45718656Y14257288D01*
X45842712Y14381344D01*
X45934814Y14530666D01*
X45989999Y14697203D01*
X46000500Y14799991D01*
X46000499Y15400008D01*
X45989999Y15502797D01*
X45934814Y15669334D01*
X45842712Y15818656D01*
X45718656Y15942712D01*
X45673663Y15970464D01*
X45626941Y16022410D01*
X45615718Y16091372D01*
X45643562Y16155455D01*
X45701630Y16194311D01*
X45738762Y16200001D01*
X46299971Y16200001D01*
X46299987Y16200002D01*
X46402697Y16210495D01*
X46569119Y16265642D01*
X46569124Y16265644D01*
X46718345Y16357685D01*
X46842315Y16481655D01*
X46934356Y16630876D01*
X46934358Y16630881D01*
X46989505Y16797303D01*
X46989506Y16797310D01*
X46999999Y16900014D01*
X47000000Y16900027D01*
X47000000Y17250000D01*
X43000001Y17250000D01*
X43000001Y16900014D01*
X43010494Y16797303D01*
X43065641Y16630881D01*
X43065643Y16630876D01*
X43157684Y16481655D01*
X43281654Y16357685D01*
X43326475Y16330039D01*
X43373199Y16278091D01*
X43384422Y16209128D01*
X43356578Y16145046D01*
X43298510Y16106190D01*
X43261378Y16100500D01*
X40199998Y16100500D01*
X40199981Y16100499D01*
X40097203Y16090000D01*
X40097200Y16089999D01*
X39930668Y16034815D01*
X39930663Y16034813D01*
X39781342Y15942711D01*
X39725451Y15886819D01*
X39664128Y15853334D01*
X39637770Y15850500D01*
X34601076Y15850500D01*
X34572242Y15844766D01*
X34572243Y15844765D01*
X34456093Y15821661D01*
X34456087Y15821659D01*
X34379629Y15789990D01*
X34310159Y15782523D01*
X34247681Y15813799D01*
X34244497Y15816871D01*
X32978421Y17082948D01*
X32978414Y17082954D01*
X32904729Y17132188D01*
X32904729Y17132187D01*
X32855491Y17165087D01*
X32718917Y17221657D01*
X32718907Y17221660D01*
X32573920Y17250500D01*
X32573918Y17250500D01*
X27926082Y17250500D01*
X27926080Y17250500D01*
X27781092Y17221660D01*
X27781082Y17221657D01*
X27644508Y17165087D01*
X27521584Y17082952D01*
X27521584Y17082951D01*
X25725451Y15286819D01*
X25664128Y15253334D01*
X25637770Y15250500D01*
X16926080Y15250500D01*
X16781092Y15221660D01*
X16781082Y15221657D01*
X16644511Y15165088D01*
X16644498Y15165081D01*
X16521584Y15082952D01*
X16521580Y15082949D01*
X14417048Y12978417D01*
X14409918Y12967745D01*
X14376045Y12917049D01*
X14334919Y12855501D01*
X14334912Y12855489D01*
X14278343Y12718918D01*
X14278340Y12718908D01*
X14249500Y12573921D01*
X14249500Y12573918D01*
X14249500Y10926082D01*
X14249500Y10926080D01*
X14249499Y10926080D01*
X14278340Y10781093D01*
X14278343Y10781083D01*
X14334913Y10644510D01*
X14334914Y10644509D01*
X14334916Y10644505D01*
X14350772Y10620775D01*
X14363752Y10601348D01*
X14417051Y10521580D01*
X15419700Y9518931D01*
X15453185Y9457608D01*
X15448201Y9387916D01*
X15419700Y9343569D01*
X14225451Y8149319D01*
X14164128Y8115834D01*
X14137770Y8113000D01*
X13179881Y8113000D01*
X13112842Y8132685D01*
X13067087Y8185489D01*
X13057143Y8254647D01*
X13086168Y8318203D01*
X13123586Y8347485D01*
X13186590Y8379588D01*
X13233080Y8413366D01*
X13233080Y8413367D01*
X12588585Y9057862D01*
X12673694Y9080667D01*
X12776306Y9139910D01*
X12860090Y9223694D01*
X12919333Y9326306D01*
X12942138Y9411415D01*
X13586633Y8766920D01*
X13586634Y8766920D01*
X13620412Y8813410D01*
X13714023Y8997132D01*
X13777743Y9193241D01*
X13810000Y9396896D01*
X13810000Y9603105D01*
X13777743Y9806760D01*
X13714023Y10002869D01*
X13620416Y10186583D01*
X13620408Y10186596D01*
X13586634Y10233082D01*
X13586633Y10233083D01*
X12942137Y9588587D01*
X12919333Y9673694D01*
X12860090Y9776306D01*
X12776306Y9860090D01*
X12673694Y9919333D01*
X12588583Y9942139D01*
X13233081Y10586635D01*
X13186590Y10620413D01*
X13002868Y10714024D01*
X12806759Y10777744D01*
X12603104Y10810000D01*
X12396896Y10810000D01*
X12193240Y10777744D01*
X11997131Y10714024D01*
X11813413Y10620415D01*
X11766918Y10586635D01*
X11766918Y10586634D01*
X12411414Y9942139D01*
X12326306Y9919333D01*
X12223694Y9860090D01*
X12139910Y9776306D01*
X12080667Y9673694D01*
X12057861Y9588586D01*
X11413366Y10233082D01*
X11413365Y10233082D01*
X11379585Y10186587D01*
X11285976Y10002869D01*
X11222256Y9806760D01*
X11190000Y9603105D01*
X11190000Y9396896D01*
X11222256Y9193241D01*
X11285976Y8997132D01*
X11379587Y8813410D01*
X11413365Y8766920D01*
X11413365Y8766919D01*
X12057861Y9411416D01*
X12080667Y9326306D01*
X12139910Y9223694D01*
X12223694Y9139910D01*
X12326306Y9080667D01*
X12411414Y9057863D01*
X11766917Y8413367D01*
X11766918Y8413366D01*
X11813404Y8379592D01*
X11813417Y8379584D01*
X11876414Y8347485D01*
X11927210Y8299510D01*
X11944005Y8231689D01*
X11921468Y8165555D01*
X11866753Y8122103D01*
X11820119Y8113000D01*
X10612230Y8113000D01*
X10590114Y8119495D01*
X10567146Y8121486D01*
X10553936Y8130117D01*
X10545191Y8132685D01*
X10536428Y8138867D01*
X10530157Y8143711D01*
X10468656Y8205212D01*
X10378733Y8260677D01*
X10373575Y8264661D01*
X10356736Y8287878D01*
X10337556Y8309203D01*
X10336481Y8315806D01*
X10332554Y8321221D01*
X10330940Y8349854D01*
X10326333Y8378166D01*
X10328999Y8384303D01*
X10328623Y8390980D01*
X10342745Y8415940D01*
X10354177Y8442248D01*
X10360955Y8448122D01*
X10363031Y8451790D01*
X10368532Y8454688D01*
X10384281Y8468333D01*
X10468343Y8520183D01*
X10592315Y8644155D01*
X10684356Y8793376D01*
X10684358Y8793381D01*
X10739505Y8959803D01*
X10739506Y8959810D01*
X10749999Y9062514D01*
X10750000Y9062527D01*
X10750000Y9112500D01*
X4250001Y9112500D01*
X4250001Y9062514D01*
X4260494Y8959803D01*
X4315641Y8793381D01*
X4315643Y8793376D01*
X4407684Y8644155D01*
X4531654Y8520185D01*
X4615719Y8468333D01*
X4662443Y8416385D01*
X4673666Y8347422D01*
X4645822Y8283340D01*
X4615719Y8257256D01*
X4531347Y8205215D01*
X4531343Y8205212D01*
X4407289Y8081158D01*
X4315187Y7931837D01*
X4315185Y7931832D01*
X4299388Y7884158D01*
X4260001Y7765297D01*
X4260001Y7765296D01*
X4260000Y7765296D01*
X4249500Y7662517D01*
X4249500Y7062499D01*
X4249501Y7062481D01*
X4260000Y6959704D01*
X4260001Y6959701D01*
X4315185Y6793169D01*
X4315187Y6793164D01*
X4323587Y6779546D01*
X4407288Y6643844D01*
X4531344Y6519788D01*
X4568075Y6497132D01*
X4576333Y6492039D01*
X4623058Y6440092D01*
X4634281Y6371129D01*
X4606438Y6307047D01*
X4548369Y6268190D01*
X4511237Y6262500D01*
X3950028Y6262500D01*
X3950012Y6262499D01*
X3847302Y6252006D01*
X3680880Y6196859D01*
X3680875Y6196857D01*
X3531654Y6104816D01*
X3407684Y5980846D01*
X3315643Y5831625D01*
X3315641Y5831620D01*
X3260494Y5665198D01*
X3260493Y5665191D01*
X3250000Y5562487D01*
X500500Y5562487D01*
X500500Y13512500D01*
X3250001Y13512500D01*
X3250001Y13162514D01*
X3260494Y13059803D01*
X3315641Y12893381D01*
X3315643Y12893376D01*
X3407684Y12744155D01*
X3531654Y12620185D01*
X3680875Y12528144D01*
X3680880Y12528142D01*
X3847302Y12472995D01*
X3847309Y12472994D01*
X3950019Y12462501D01*
X4511236Y12462501D01*
X4578275Y12442817D01*
X4624030Y12390013D01*
X4633974Y12320854D01*
X4604949Y12257298D01*
X4576334Y12232963D01*
X4531344Y12205213D01*
X4407289Y12081158D01*
X4315187Y11931837D01*
X4315185Y11931832D01*
X4289174Y11853334D01*
X4260001Y11765297D01*
X4260001Y11765296D01*
X4260000Y11765296D01*
X4249500Y11662517D01*
X4249500Y11062499D01*
X4249501Y11062481D01*
X4260000Y10959704D01*
X4260001Y10959701D01*
X4315185Y10793169D01*
X4315187Y10793164D01*
X4340839Y10751576D01*
X4406880Y10644505D01*
X4407289Y10643843D01*
X4531344Y10519788D01*
X4615718Y10467746D01*
X4662443Y10415798D01*
X4673666Y10346836D01*
X4645822Y10282753D01*
X4615720Y10256669D01*
X4531656Y10204818D01*
X4407684Y10080846D01*
X4315643Y9931625D01*
X4315641Y9931620D01*
X4260494Y9765198D01*
X4260493Y9765191D01*
X4250000Y9662487D01*
X4250000Y9612500D01*
X10749999Y9612500D01*
X10749999Y9662472D01*
X10749998Y9662487D01*
X10739505Y9765198D01*
X10684358Y9931620D01*
X10684356Y9931625D01*
X10592315Y10080846D01*
X10468344Y10204817D01*
X10468340Y10204820D01*
X10384280Y10256669D01*
X10363623Y10279635D01*
X10341455Y10301143D01*
X10340465Y10305381D01*
X10337555Y10308617D01*
X10332594Y10339102D01*
X10325573Y10369184D01*
X10327032Y10373286D01*
X10326334Y10377579D01*
X10338640Y10405903D01*
X10348999Y10435010D01*
X10352832Y10438568D01*
X10354177Y10441661D01*
X10373576Y10460340D01*
X10378732Y10464324D01*
X10468656Y10519788D01*
X10530153Y10581286D01*
X10536429Y10586133D01*
X10561885Y10596069D01*
X10585872Y10609166D01*
X10599084Y10610587D01*
X10601517Y10611536D01*
X10603740Y10611088D01*
X10612230Y10612000D01*
X11073920Y10612000D01*
X11171462Y10631404D01*
X11218913Y10640842D01*
X11355495Y10697416D01*
X11425969Y10744505D01*
X11478416Y10779548D01*
X16774548Y16075682D01*
X16835871Y16109166D01*
X16862229Y16112000D01*
X22862222Y16112000D01*
X22929261Y16092315D01*
X22962539Y16060887D01*
X22990494Y16022410D01*
X23000407Y16008767D01*
X23146267Y15862907D01*
X23313148Y15741660D01*
X23455090Y15669337D01*
X23496945Y15648011D01*
X23693120Y15584270D01*
X23693121Y15584270D01*
X23693124Y15584269D01*
X23896861Y15552000D01*
X23896862Y15552000D01*
X24103138Y15552000D01*
X24103139Y15552000D01*
X24306876Y15584269D01*
X24306879Y15584270D01*
X24306880Y15584270D01*
X24503054Y15648011D01*
X24503054Y15648012D01*
X24503057Y15648012D01*
X24686852Y15741660D01*
X24853733Y15862907D01*
X24999593Y16008767D01*
X25120840Y16175648D01*
X25214488Y16359443D01*
X25278231Y16555624D01*
X25310500Y16759361D01*
X25310500Y16965639D01*
X25278231Y17169376D01*
X25278230Y17169380D01*
X25278230Y17169381D01*
X25214489Y17365555D01*
X25214488Y17365557D01*
X25120840Y17549352D01*
X24999593Y17716233D01*
X24853733Y17862093D01*
X24686852Y17983340D01*
X24654097Y18000030D01*
X24503054Y18076990D01*
X24432276Y18099987D01*
X43000000Y18099987D01*
X43000000Y17750000D01*
X44750000Y17750000D01*
X45250000Y17750000D01*
X46999999Y17750000D01*
X46999999Y18099972D01*
X46999998Y18099987D01*
X46989505Y18202698D01*
X46934358Y18369120D01*
X46934356Y18369125D01*
X46842315Y18518346D01*
X46718345Y18642316D01*
X46569124Y18734357D01*
X46569119Y18734359D01*
X46402697Y18789506D01*
X46402690Y18789507D01*
X46299986Y18800000D01*
X45250000Y18800000D01*
X45250000Y17750000D01*
X44750000Y17750000D01*
X44750000Y18800000D01*
X43700028Y18800000D01*
X43700012Y18799999D01*
X43597302Y18789506D01*
X43430880Y18734359D01*
X43430875Y18734357D01*
X43281654Y18642316D01*
X43157684Y18518346D01*
X43065643Y18369125D01*
X43065641Y18369120D01*
X43010494Y18202698D01*
X43010493Y18202691D01*
X43000000Y18099987D01*
X24432276Y18099987D01*
X24306879Y18140731D01*
X24154073Y18164933D01*
X24103139Y18173000D01*
X23896861Y18173000D01*
X23828948Y18162244D01*
X23693122Y18140731D01*
X23693119Y18140731D01*
X23496945Y18076990D01*
X23313147Y17983340D01*
X23146265Y17862092D01*
X23000406Y17716233D01*
X22962539Y17664113D01*
X22907209Y17621448D01*
X22862222Y17613000D01*
X16426076Y17613000D01*
X16397242Y17607266D01*
X16397243Y17607265D01*
X16281093Y17584161D01*
X16281083Y17584158D01*
X16201081Y17551021D01*
X16201082Y17551020D01*
X16144505Y17527585D01*
X16062372Y17472705D01*
X16021585Y17445453D01*
X16021581Y17445450D01*
X10725451Y12149319D01*
X10698523Y12134616D01*
X10672705Y12118023D01*
X10666504Y12117132D01*
X10664128Y12115834D01*
X10637770Y12113000D01*
X10612230Y12113000D01*
X10545191Y12132685D01*
X10524549Y12149319D01*
X10468657Y12205211D01*
X10468656Y12205212D01*
X10319334Y12297314D01*
X10152797Y12352499D01*
X10152795Y12352500D01*
X10050016Y12363000D01*
X6988621Y12363000D01*
X6921582Y12382685D01*
X6875827Y12435489D01*
X6865883Y12504647D01*
X6894908Y12568203D01*
X6923525Y12592539D01*
X6968343Y12620183D01*
X7092315Y12744155D01*
X7184356Y12893376D01*
X7184358Y12893381D01*
X7239505Y13059803D01*
X7239506Y13059810D01*
X7249999Y13162514D01*
X7250000Y13162527D01*
X7250000Y13512500D01*
X3250001Y13512500D01*
X500500Y13512500D01*
X500500Y14362487D01*
X3250000Y14362487D01*
X3250000Y14012500D01*
X5000000Y14012500D01*
X5500000Y14012500D01*
X7249999Y14012500D01*
X7249999Y14362472D01*
X7249998Y14362487D01*
X7239505Y14465198D01*
X7184358Y14631620D01*
X7184356Y14631625D01*
X7092315Y14780846D01*
X6968345Y14904816D01*
X6819124Y14996857D01*
X6819119Y14996859D01*
X6652697Y15052006D01*
X6652690Y15052007D01*
X6549986Y15062500D01*
X5500000Y15062500D01*
X5500000Y14012500D01*
X5000000Y14012500D01*
X5000000Y15062500D01*
X3950028Y15062500D01*
X3950012Y15062499D01*
X3847302Y15052006D01*
X3680880Y14996859D01*
X3680875Y14996857D01*
X3531654Y14904816D01*
X3407684Y14780846D01*
X3315643Y14631625D01*
X3315641Y14631620D01*
X3260494Y14465198D01*
X3260493Y14465191D01*
X3250000Y14362487D01*
X500500Y14362487D01*
X500500Y19375500D01*
X520185Y19442539D01*
X572989Y19488294D01*
X624500Y19499500D01*
X49375500Y19499500D01*
X49442539Y19479815D01*
G37*
%TD.AperFunction*%
%TD*%
M02*
