%TF.GenerationSoftware,KiCad,Pcbnew,8.0.2*%
%TF.CreationDate,2024-07-29T19:01:58-06:00*%
%TF.ProjectId,Animation Platter_V1,416e696d-6174-4696-9f6e-20506c617474,rev?*%
%TF.SameCoordinates,Original*%
%TF.FileFunction,Paste,Bot*%
%TF.FilePolarity,Positive*%
%FSLAX46Y46*%
G04 Gerber Fmt 4.6, Leading zero omitted, Abs format (unit mm)*
G04 Created by KiCad (PCBNEW 8.0.2) date 2024-07-29 19:01:58*
%MOMM*%
%LPD*%
G01*
G04 APERTURE LIST*
G04 Aperture macros list*
%AMRoundRect*
0 Rectangle with rounded corners*
0 $1 Rounding radius*
0 $2 $3 $4 $5 $6 $7 $8 $9 X,Y pos of 4 corners*
0 Add a 4 corners polygon primitive as box body*
4,1,4,$2,$3,$4,$5,$6,$7,$8,$9,$2,$3,0*
0 Add four circle primitives for the rounded corners*
1,1,$1+$1,$2,$3*
1,1,$1+$1,$4,$5*
1,1,$1+$1,$6,$7*
1,1,$1+$1,$8,$9*
0 Add four rect primitives between the rounded corners*
20,1,$1+$1,$2,$3,$4,$5,0*
20,1,$1+$1,$4,$5,$6,$7,0*
20,1,$1+$1,$6,$7,$8,$9,0*
20,1,$1+$1,$8,$9,$2,$3,0*%
G04 Aperture macros list end*
%ADD10RoundRect,1.250000X2.750000X-1.250000X2.750000X1.250000X-2.750000X1.250000X-2.750000X-1.250000X0*%
%ADD11RoundRect,0.200000X-0.275000X0.200000X-0.275000X-0.200000X0.275000X-0.200000X0.275000X0.200000X0*%
%ADD12RoundRect,0.218750X-0.218750X-0.256250X0.218750X-0.256250X0.218750X0.256250X-0.218750X0.256250X0*%
%ADD13RoundRect,0.200000X0.275000X-0.200000X0.275000X0.200000X-0.275000X0.200000X-0.275000X-0.200000X0*%
%ADD14RoundRect,0.225000X0.250000X-0.225000X0.250000X0.225000X-0.250000X0.225000X-0.250000X-0.225000X0*%
%ADD15RoundRect,0.225000X0.225000X0.250000X-0.225000X0.250000X-0.225000X-0.250000X0.225000X-0.250000X0*%
%ADD16RoundRect,0.218750X-0.256250X0.218750X-0.256250X-0.218750X0.256250X-0.218750X0.256250X0.218750X0*%
%ADD17R,3.810000X2.080000*%
%ADD18R,8.890000X11.430000*%
%ADD19RoundRect,0.200000X0.200000X0.275000X-0.200000X0.275000X-0.200000X-0.275000X0.200000X-0.275000X0*%
%ADD20RoundRect,0.225000X-0.250000X0.225000X-0.250000X-0.225000X0.250000X-0.225000X0.250000X0.225000X0*%
%ADD21RoundRect,0.218750X0.256250X-0.218750X0.256250X0.218750X-0.256250X0.218750X-0.256250X-0.218750X0*%
%ADD22RoundRect,0.218750X0.218750X0.256250X-0.218750X0.256250X-0.218750X-0.256250X0.218750X-0.256250X0*%
%ADD23RoundRect,0.200000X-0.200000X-0.275000X0.200000X-0.275000X0.200000X0.275000X-0.200000X0.275000X0*%
%ADD24R,3.600000X2.050000*%
%ADD25R,0.950000X1.750000*%
%ADD26R,3.200000X1.750000*%
G04 APERTURE END LIST*
D10*
%TO.C,S1*%
X73837500Y-124062000D03*
X73837500Y-110062000D03*
%TD*%
D11*
%TO.C,R11*%
X123140000Y-113605000D03*
X123140000Y-115255000D03*
%TD*%
D12*
%TO.C,D3*%
X70202499Y-119230000D03*
X71777501Y-119230000D03*
%TD*%
D13*
%TO.C,R17*%
X177060000Y-75235000D03*
X177060000Y-73585000D03*
%TD*%
%TO.C,R13*%
X130747036Y-125892601D03*
X130747036Y-124242601D03*
%TD*%
D14*
%TO.C,C14*%
X171890000Y-92745000D03*
X171890000Y-91195000D03*
%TD*%
%TO.C,C10*%
X157434436Y-92704437D03*
X157434436Y-91154437D03*
%TD*%
D11*
%TO.C,R7*%
X132231787Y-124242601D03*
X132231787Y-125892601D03*
%TD*%
%TO.C,R16*%
X173200000Y-64345000D03*
X173200000Y-65995000D03*
%TD*%
D15*
%TO.C,C8*%
X71770000Y-116150000D03*
X70220000Y-116150000D03*
%TD*%
D16*
%TO.C,D7*%
X114280000Y-123902499D03*
X114280000Y-125477501D03*
%TD*%
D17*
%TO.C,Q2*%
X153399000Y-66850000D03*
D18*
X141970000Y-69390000D03*
D17*
X153399000Y-71930000D03*
%TD*%
D11*
%TO.C,R12*%
X155970000Y-91130000D03*
X155970000Y-92780000D03*
%TD*%
D13*
%TO.C,R6*%
X158920000Y-92780000D03*
X158920000Y-91130000D03*
%TD*%
D19*
%TO.C,R2*%
X189475000Y-84680000D03*
X187825000Y-84680000D03*
%TD*%
D20*
%TO.C,C12*%
X115764805Y-123898921D03*
X115764805Y-125448921D03*
%TD*%
D21*
%TO.C,D8*%
X114490000Y-115587501D03*
X114490000Y-114012499D03*
%TD*%
D11*
%TO.C,R9*%
X126090000Y-113605000D03*
X126090000Y-115255000D03*
%TD*%
D13*
%TO.C,R14*%
X174850000Y-92805000D03*
X174850000Y-91155000D03*
%TD*%
D22*
%TO.C,D4*%
X189447501Y-89130000D03*
X187872499Y-89130000D03*
%TD*%
D13*
%TO.C,R10*%
X118734804Y-125493922D03*
X118734804Y-123843922D03*
%TD*%
%TO.C,R15*%
X173360000Y-92800000D03*
X173360000Y-91150000D03*
%TD*%
D23*
%TO.C,R3*%
X70165000Y-117690000D03*
X71815000Y-117690000D03*
%TD*%
D24*
%TO.C,C15*%
X223840000Y-66830000D03*
X216740000Y-66830000D03*
%TD*%
D19*
%TO.C,R5*%
X189490000Y-87630000D03*
X187840000Y-87630000D03*
%TD*%
D14*
%TO.C,C13*%
X124609999Y-115195000D03*
X124609999Y-113645000D03*
%TD*%
D15*
%TO.C,C9*%
X189445000Y-86170000D03*
X187895000Y-86170000D03*
%TD*%
D20*
%TO.C,C11*%
X133707036Y-124295000D03*
X133707036Y-125845000D03*
%TD*%
%TO.C,C26*%
X133644975Y-120235000D03*
X133644975Y-121785000D03*
%TD*%
D25*
%TO.C,VR2*%
X135710000Y-115080000D03*
X138010000Y-115080001D03*
X140310000Y-115080000D03*
D26*
X138010000Y-121379999D03*
%TD*%
D14*
%TO.C,C25*%
X142384975Y-116215001D03*
X142384975Y-114665001D03*
%TD*%
D13*
%TO.C,R4*%
X73280001Y-117785000D03*
X73280001Y-116135000D03*
%TD*%
D11*
%TO.C,R8*%
X117244805Y-123843922D03*
X117244805Y-125493922D03*
%TD*%
D16*
%TO.C,D5*%
X80820000Y-86632499D03*
X80820000Y-88207501D03*
%TD*%
M02*
