M48
; DRILL file {KiCad 8.0.2} date 2024-07-29T19:02:04-0600
; FORMAT={-:-/ absolute / inch / decimal}
; #@! TF.CreationDate,2024-07-29T19:02:04-06:00
; #@! TF.GenerationSoftware,Kicad,Pcbnew,8.0.2
; #@! TF.FileFunction,Plated,1,4,PTH
FMAT,2
INCH
; #@! TA.AperFunction,Plated,PTH,ViaDrill
T1C0.0118
; #@! TA.AperFunction,Plated,PTH,ViaDrill
T2C0.0157
; #@! TA.AperFunction,Plated,PTH,ComponentDrill
T3C0.0295
; #@! TA.AperFunction,Plated,PTH,ViaDrill
T4C0.0394
; #@! TA.AperFunction,Plated,PTH,ComponentDrill
T5C0.0394
; #@! TA.AperFunction,Plated,PTH,ComponentDrill
T6C0.0472
; #@! TA.AperFunction,Plated,PTH,ComponentDrill
T7C0.0728
; #@! TA.AperFunction,Plated,PTH,ComponentDrill
T8C0.1169
; #@! TA.AperFunction,Plated,PTH,ComponentDrill
T9C0.1225
; #@! TA.AperFunction,Plated,PTH,ComponentDrill
T10C0.1260
; #@! TA.AperFunction,Plated,PTH,ComponentDrill
T11C0.2953
%
G90
G05
T1
X2.7154Y-4.602
X2.7268Y-4.535
X2.7291Y-4.6339
X2.7331Y-4.7398
X2.7394Y-3.8031
X2.752Y-3.7252
X2.7559Y-4.4843
X2.772Y-3.8512
X2.7902Y-3.726
X2.813Y-3.9209
X2.8252Y-4.5071
X2.8909Y-3.3228
X2.8925Y-3.472
X2.95Y-4.5579
X2.9587Y-4.028
X2.985Y-3.848
X2.9862Y-3.7409
X2.9984Y-4.5402
X3.0Y-4.0717
X3.0075Y-2.6386
X3.0346Y-3.7437
X3.0457Y-3.9024
X3.0488Y-2.6394
X3.0508Y-3.5382
X3.0539Y-2.4433
X3.0768Y-3.5063
X3.0815Y-3.6602
X3.0858Y-3.5768
X3.102Y-3.9854
X3.1264Y-3.5583
X3.1295Y-3.8559
X3.1331Y-3.5933
X3.1413Y-4.648
X3.1516Y-4.2571
X3.1591Y-3.8295
X3.1752Y-3.9752
X3.1799Y-4.0657
X3.1811Y-3.7122
X3.2076Y-3.0543
X3.213Y-3.7449
X3.2146Y-3.6764
X3.2157Y-3.3803
X3.2331Y-3.915
X3.2465Y-3.6409
X3.248Y-3.774
X3.2488Y-3.7098
X3.2642Y-4.3783
X3.2673Y-2.7024
X3.2701Y-3.915
X3.2815Y-3.6736
X3.2839Y-3.7413
X3.3039Y-4.0965
X3.3122Y-2.6937
X3.315Y-4.3783
X3.3185Y-3.7106
X3.3547Y-4.3776
X3.3768Y-4.0016
X3.4031Y-3.7457
X3.4059Y-4.2429
X3.4134Y-3.6717
X3.422Y-3.3846
X3.435Y-3.7102
X3.4421Y-2.6516
X3.4437Y-3.6378
X3.4457Y-3.0591
X3.4626Y-3.6768
X3.4689Y-3.7339
X3.5063Y-3.7189
X3.5799Y-3.6051
X3.6244Y-3.65
X3.7114Y-3.6697
X3.7717Y-3.4618
X3.8177Y-3.4917
X3.8768Y-3.8055
X3.9051Y-3.835
X3.9276Y-4.2937
X3.928Y-3.7083
X3.928Y-4.1776
X3.9402Y-3.9433
X3.9457Y-3.863
X3.9516Y-3.9047
X3.965Y-4.2906
X3.9677Y-4.1843
X4.0091Y-3.9185
X4.0091Y-4.1559
X4.0374Y-4.1882
X4.1Y-4.1846
X4.1327Y-4.2079
X4.174Y-4.0965
X4.2122Y-4.1185
X4.4701Y-4.5882
X4.5028Y-4.8319
X4.5606Y-4.8323
X4.615Y-4.8315
X4.6539Y-4.8244
X4.6689Y-3.7055
X4.7087Y-3.7492
X4.7425Y-3.8764
X4.7476Y-3.7492
X4.7736Y-3.3083
X4.7819Y-2.7398
X4.8154Y-3.0594
X4.8689Y-3.1673
X4.9047Y-4.4252
X4.9244Y-2.7646
X4.9409Y-3.915
X4.978Y-3.4094
X4.9783Y-3.7386
X5.0087Y-4.4732
X5.0091Y-4.4378
X5.0205Y-2.7504
X5.0457Y-3.7795
X5.052Y-2.9724
X5.0583Y-3.8752
X5.1035Y-2.922
X5.1705Y-4.8146
X5.2059Y-4.8531
X5.2189Y-4.7307
X5.2197Y-4.7953
X5.222Y-3.8732
X5.2606Y-4.8437
X5.289Y-4.5343
X5.3118Y-4.8957
X5.3429Y-4.4626
X5.3441Y-4.6
X5.3862Y-4.1209
X5.4319Y-4.6087
X5.4319Y-4.6693
X5.4319Y-4.7256
X5.4535Y-4.1126
X5.4728Y-4.4571
X5.4917Y-4.7193
X5.4925Y-4.6673
X5.4929Y-4.6098
X5.5197Y-4.061
X5.5315Y-4.1087
X5.6055Y-4.4055
X5.6531Y-4.578
X5.6543Y-4.4602
X5.8657Y-2.6937
X5.8882Y-2.8449
X5.9551Y-2.9461
X5.9618Y-2.7626
X6.1972Y-3.6949
X6.2567Y-3.6941
X6.3043Y-3.6941
X6.3516Y-2.6925
X6.4016Y-4.5669
X6.5622Y-2.7492
X6.5689Y-2.9437
X6.661Y-2.7701
X6.7665Y-3.6957
X6.7969Y-3.5268
X6.8252Y-3.5508
X6.8437Y-3.7024
X6.8839Y-3.6961
X6.9724Y-3.0087
X7.0169Y-3.0012
X7.0441Y-2.6406
X7.1815Y-2.7484
X7.1953Y-2.952
X7.2953Y-2.7512
X7.2965Y-2.9524
X7.3681Y-2.8791
X7.5035Y-3.3937
X7.5035Y-3.5114
X8.4102Y-2.6366
X8.5311Y-2.5528
X8.535Y-2.7185
X8.974Y-2.5854
X9.0169Y-2.6429
X9.2177Y-3.5898
X9.272Y-3.6094
X9.6083Y-3.0839
X9.6228Y-2.9512
T2
X2.9354Y-4.3886
X2.9579Y-4.5157
X3.2839Y-4.3283
X3.3583Y-4.3287
X4.7689Y-3.7996
X4.8138Y-3.278
X4.824Y-3.1319
X4.8803Y-3.9098
X4.9713Y-2.7803
X5.0413Y-2.9071
X5.0693Y-3.8236
X5.1961Y-3.9087
X5.522Y-4.4587
X5.6051Y-4.4587
X5.9346Y-2.8165
X6.6043Y-2.7783
X7.2374Y-2.7783
X7.315Y-2.8996
X7.4047Y-3.2449
X7.4591Y-3.2827
T3
X6.8197Y-2.7087
X6.8197Y-2.8087
X6.8697Y-2.7587
T4
X8.9457Y-2.6677
T5
X3.5126Y-2.4648
X3.5126Y-2.5648
X3.6476Y-3.1984
X3.7449Y-3.0016
X4.0217Y-2.5146
X4.0961Y-2.9976
X4.1945Y-2.9976
X4.2929Y-2.9976
X4.5551Y-2.5461
X4.5551Y-4.1209
X5.2441Y-2.5461
X5.2441Y-4.1209
X5.4984Y-3.5921
X5.5957Y-3.3953
X7.1864Y-4.5307
X7.1864Y-4.6307
X7.1864Y-4.7307
X7.1864Y-4.8307
X7.2898Y-3.8421
X7.2898Y-3.9406
X7.2898Y-4.039
X7.6846Y-2.5177
X7.6846Y-4.0925
X8.0638Y-4.9667
X8.1622Y-4.9667
X8.2606Y-4.9667
X8.3591Y-4.9667
X8.3736Y-2.5177
X8.3736Y-4.0925
X8.674Y-2.9583
X8.674Y-3.0583
X8.674Y-3.1583
X8.674Y-3.2583
X8.9991Y-2.7621
X8.9991Y-2.8591
X8.9991Y-2.9591
X8.9991Y-3.0591
X8.9991Y-3.1591
X8.9991Y-3.2591
X8.9991Y-3.3591
X8.9991Y-3.4591
X9.4991Y-2.7591
X9.4991Y-2.8591
X9.4991Y-2.9591
X9.4991Y-3.0591
X9.4991Y-3.1591
X9.4991Y-3.2591
X9.4991Y-3.3591
X9.4991Y-3.4591
X9.539Y-4.0307
X9.6929Y-2.9768
X9.6931Y-2.8327
X9.6941Y-3.1209
X9.7358Y-4.128
X9.7929Y-2.9768
X9.7931Y-2.8327
X9.7941Y-3.1209
X9.8016Y-3.5461
X9.8929Y-2.9768
X9.8931Y-2.8327
X9.8941Y-3.1209
T6
X4.8114Y-4.3449
X4.8114Y-4.9157
X4.9098Y-4.9157
X5.0083Y-4.3449
X5.0083Y-4.9157
T7
X5.8992Y-3.2437
X5.8992Y-3.4287
X5.8992Y-3.6138
X6.5165Y-3.2378
X6.5165Y-3.4228
X6.5165Y-3.6079
X7.139Y-3.2413
X7.139Y-3.4264
X7.139Y-3.6114
T8
X7.9831Y-4.5337
X8.4398Y-4.5337
T9
X4.6933Y-4.6205
X5.1264Y-4.6205
T10
X9.4791Y-4.5909
X9.5972Y-4.7799
X9.7075Y-4.5909
T11
X3.6964Y-4.6107
M30
