%TF.GenerationSoftware,KiCad,Pcbnew,8.0.2*%
%TF.CreationDate,2024-07-29T19:01:58-06:00*%
%TF.ProjectId,Animation Platter_V1,416e696d-6174-4696-9f6e-20506c617474,rev?*%
%TF.SameCoordinates,Original*%
%TF.FileFunction,Paste,Top*%
%TF.FilePolarity,Positive*%
%FSLAX46Y46*%
G04 Gerber Fmt 4.6, Leading zero omitted, Abs format (unit mm)*
G04 Created by KiCad (PCBNEW 8.0.2) date 2024-07-29 19:01:58*
%MOMM*%
%LPD*%
G01*
G04 APERTURE LIST*
G04 Aperture macros list*
%AMRoundRect*
0 Rectangle with rounded corners*
0 $1 Rounding radius*
0 $2 $3 $4 $5 $6 $7 $8 $9 X,Y pos of 4 corners*
0 Add a 4 corners polygon primitive as box body*
4,1,4,$2,$3,$4,$5,$6,$7,$8,$9,$2,$3,0*
0 Add four circle primitives for the rounded corners*
1,1,$1+$1,$2,$3*
1,1,$1+$1,$4,$5*
1,1,$1+$1,$6,$7*
1,1,$1+$1,$8,$9*
0 Add four rect primitives between the rounded corners*
20,1,$1+$1,$2,$3,$4,$5,0*
20,1,$1+$1,$4,$5,$6,$7,0*
20,1,$1+$1,$6,$7,$8,$9,0*
20,1,$1+$1,$8,$9,$2,$3,0*%
%AMRotRect*
0 Rectangle, with rotation*
0 The origin of the aperture is its center*
0 $1 length*
0 $2 width*
0 $3 Rotation angle, in degrees counterclockwise*
0 Add horizontal line*
21,1,$1,$2,0,0,$3*%
G04 Aperture macros list end*
%ADD10RotRect,1.150000X1.000000X45.000000*%
%ADD11RoundRect,0.225000X0.250000X-0.225000X0.250000X0.225000X-0.250000X0.225000X-0.250000X-0.225000X0*%
%ADD12RoundRect,0.200000X-0.335876X-0.053033X-0.053033X-0.335876X0.335876X0.053033X0.053033X0.335876X0*%
%ADD13RoundRect,0.225000X0.225000X0.250000X-0.225000X0.250000X-0.225000X-0.250000X0.225000X-0.250000X0*%
%ADD14RoundRect,0.218750X0.026517X-0.335876X0.335876X-0.026517X-0.026517X0.335876X-0.335876X0.026517X0*%
%ADD15R,1.500000X0.900000*%
%ADD16R,2.000000X1.000000*%
%ADD17R,1.000000X0.600000*%
%ADD18RoundRect,0.200000X0.053033X-0.335876X0.335876X-0.053033X-0.053033X0.335876X-0.335876X0.053033X0*%
%ADD19RoundRect,0.225000X-0.017678X0.335876X-0.335876X0.017678X0.017678X-0.335876X0.335876X-0.017678X0*%
%ADD20RoundRect,0.218750X0.218750X0.256250X-0.218750X0.256250X-0.218750X-0.256250X0.218750X-0.256250X0*%
%ADD21RoundRect,0.225000X0.017678X-0.335876X0.335876X-0.017678X-0.017678X0.335876X-0.335876X0.017678X0*%
%ADD22RoundRect,0.218750X-0.335876X-0.026517X-0.026517X-0.335876X0.335876X0.026517X0.026517X0.335876X0*%
%ADD23RotRect,0.300000X0.850000X315.000000*%
%ADD24RoundRect,0.225000X-0.225000X-0.250000X0.225000X-0.250000X0.225000X0.250000X-0.225000X0.250000X0*%
%ADD25RoundRect,0.218750X-0.218750X-0.256250X0.218750X-0.256250X0.218750X0.256250X-0.218750X0.256250X0*%
%ADD26RoundRect,0.232500X0.000000X-0.328805X0.328805X0.000000X0.000000X0.328805X-0.328805X0.000000X0*%
%ADD27RoundRect,0.062500X-0.220971X-0.309359X0.309359X0.220971X0.220971X0.309359X-0.309359X-0.220971X0*%
%ADD28RoundRect,0.062500X0.220971X-0.309359X0.309359X-0.220971X-0.220971X0.309359X-0.309359X0.220971X0*%
%ADD29RoundRect,0.200000X-0.053033X0.335876X-0.335876X0.053033X0.053033X-0.335876X0.335876X-0.053033X0*%
G04 APERTURE END LIST*
D10*
%TO.C,Y1*%
X73726256Y-100083693D03*
X74963693Y-98846256D03*
X73973744Y-97856307D03*
X72736307Y-99093744D03*
%TD*%
D11*
%TO.C,C20*%
X121440000Y-80225000D03*
X121440000Y-78675000D03*
%TD*%
D12*
%TO.C,R20*%
X76546637Y-86356637D03*
X77713363Y-87523363D03*
%TD*%
D13*
%TO.C,C18*%
X122635000Y-99280000D03*
X121085000Y-99280000D03*
%TD*%
D14*
%TO.C,D6*%
X94194189Y-92085812D03*
X95307883Y-90972118D03*
%TD*%
D15*
%TO.C,D16*%
X130260000Y-97350000D03*
X130260000Y-94050000D03*
X125360000Y-94050000D03*
X125360000Y-97350000D03*
%TD*%
%TO.C,D19*%
X152310000Y-71620000D03*
X152310000Y-68320000D03*
X147410000Y-68320000D03*
X147410000Y-71620000D03*
%TD*%
D16*
%TO.C,J2*%
X81120000Y-65640000D03*
X77620000Y-65640000D03*
X81120000Y-63100000D03*
X77620000Y-63100000D03*
%TD*%
D17*
%TO.C,Q1*%
X86340000Y-67290000D03*
X86340000Y-65390000D03*
X84040000Y-66340000D03*
%TD*%
D18*
%TO.C,R19*%
X81202282Y-110195950D03*
X82369008Y-109029224D03*
%TD*%
D12*
%TO.C,R1*%
X74556637Y-87966637D03*
X75723363Y-89133363D03*
%TD*%
D19*
%TO.C,C3*%
X76275983Y-99975236D03*
X75179967Y-101071252D03*
%TD*%
D15*
%TO.C,D14*%
X73520000Y-114700000D03*
X73520000Y-118000000D03*
X78420000Y-118000000D03*
X78420000Y-114700000D03*
%TD*%
D20*
%TO.C,D1*%
X86770000Y-76760000D03*
X85194998Y-76760000D03*
%TD*%
D15*
%TO.C,D21*%
X183850000Y-71730000D03*
X183850000Y-68430000D03*
X178950000Y-68430000D03*
X178950000Y-71730000D03*
%TD*%
D21*
%TO.C,C16*%
X84317087Y-108990333D03*
X85413103Y-107894317D03*
%TD*%
D22*
%TO.C,D10*%
X86154189Y-86834189D03*
X87267883Y-87947883D03*
%TD*%
D19*
%TO.C,C6*%
X78368008Y-102071992D03*
X77271992Y-103168008D03*
%TD*%
D23*
%TO.C,U2*%
X85604023Y-105836637D03*
X85250470Y-105483084D03*
X84896916Y-105129530D03*
X84543363Y-104775977D03*
X82315977Y-107003363D03*
X82669530Y-107356916D03*
X83023084Y-107710470D03*
X83376637Y-108064023D03*
%TD*%
D21*
%TO.C,C7*%
X89761992Y-93748008D03*
X90858008Y-92651992D03*
%TD*%
D13*
%TO.C,C23*%
X168300000Y-73640000D03*
X166750000Y-73640000D03*
%TD*%
D24*
%TO.C,C17*%
X72995000Y-112780000D03*
X74545000Y-112780000D03*
%TD*%
D18*
%TO.C,R18*%
X86601043Y-104867900D03*
X87767769Y-103701174D03*
%TD*%
D15*
%TO.C,D15*%
X122210000Y-97400000D03*
X122210000Y-94100000D03*
X117310000Y-94100000D03*
X117310000Y-97400000D03*
%TD*%
%TO.C,D20*%
X167770000Y-71720000D03*
X167770000Y-68420000D03*
X162870000Y-68420000D03*
X162870000Y-71720000D03*
%TD*%
D19*
%TO.C,C2*%
X72798648Y-96537902D03*
X71702632Y-97633918D03*
%TD*%
D14*
%TO.C,D9*%
X81404189Y-102455812D03*
X82517883Y-101342118D03*
%TD*%
D22*
%TO.C,D13*%
X74413153Y-84213153D03*
X75526847Y-85326847D03*
%TD*%
D25*
%TO.C,D2*%
X82014999Y-76760000D03*
X83589999Y-76760000D03*
%TD*%
D13*
%TO.C,C19*%
X130695000Y-99310000D03*
X129145000Y-99310000D03*
%TD*%
D26*
%TO.C,U1*%
X80910481Y-94233173D03*
X81723654Y-95046346D03*
X82536827Y-95859519D03*
X81723654Y-93420000D03*
X82536827Y-94233173D03*
X83350000Y-95046346D03*
X82536827Y-92606827D03*
X83350000Y-93420000D03*
X84163173Y-94233173D03*
D27*
X79575817Y-94719309D03*
X79929371Y-95072862D03*
X80282924Y-95426416D03*
X80636478Y-95779969D03*
X80990031Y-96133522D03*
X81343584Y-96487076D03*
X81697138Y-96840629D03*
X82050691Y-97194183D03*
D28*
X83022963Y-97194183D03*
X83376516Y-96840629D03*
X83730070Y-96487076D03*
X84083623Y-96133522D03*
X84437176Y-95779969D03*
X84790730Y-95426416D03*
X85144283Y-95072862D03*
X85497837Y-94719309D03*
D27*
X85497837Y-93747037D03*
X85144283Y-93393484D03*
X84790730Y-93039930D03*
X84437176Y-92686377D03*
X84083623Y-92332824D03*
X83730070Y-91979270D03*
X83376516Y-91625717D03*
X83022963Y-91272163D03*
D28*
X82050691Y-91272163D03*
X81697138Y-91625717D03*
X81343584Y-91979270D03*
X80990031Y-92332824D03*
X80636478Y-92686377D03*
X80282924Y-93039930D03*
X79929371Y-93393484D03*
X79575817Y-93747037D03*
%TD*%
D19*
%TO.C,C1*%
X77328008Y-101031992D03*
X76231992Y-102128008D03*
%TD*%
D18*
%TO.C,D12*%
X80138087Y-109138826D03*
X81304813Y-107972100D03*
%TD*%
D21*
%TO.C,C4*%
X88721992Y-92698008D03*
X89818008Y-91601992D03*
%TD*%
D19*
%TO.C,C5*%
X71748008Y-95491992D03*
X70651992Y-96588008D03*
%TD*%
D15*
%TO.C,D17*%
X121420000Y-82220000D03*
X121420000Y-85520000D03*
X126320000Y-85520000D03*
X126320000Y-82220000D03*
%TD*%
%TO.C,D18*%
X126320000Y-71810000D03*
X126320000Y-68510000D03*
X121420000Y-68510000D03*
X121420000Y-71810000D03*
%TD*%
D13*
%TO.C,C22*%
X152745000Y-73590000D03*
X151195000Y-73590000D03*
%TD*%
D29*
%TO.C,D11*%
X86728322Y-102647586D03*
X85561596Y-103814312D03*
%TD*%
D13*
%TO.C,C21*%
X126815000Y-73750000D03*
X125265000Y-73750000D03*
%TD*%
%TO.C,C24*%
X184365000Y-73610000D03*
X182815000Y-73610000D03*
%TD*%
M02*
