%TF.GenerationSoftware,KiCad,Pcbnew,9.0.7*%
%TF.CreationDate,2026-03-25T19:49:26-06:00*%
%TF.ProjectId,Saber Connector Board_V1,53616265-7220-4436-9f6e-6e6563746f72,rev?*%
%TF.SameCoordinates,PX8044ea0PY6d321a0*%
%TF.FileFunction,Copper,L1,Top*%
%TF.FilePolarity,Positive*%
%FSLAX46Y46*%
G04 Gerber Fmt 4.6, Leading zero omitted, Abs format (unit mm)*
G04 Created by KiCad (PCBNEW 9.0.7) date 2026-03-25 19:49:26*
%MOMM*%
%LPD*%
G01*
G04 APERTURE LIST*
%ADD10C,0.150000*%
%TA.AperFunction,ComponentPad*%
%ADD11R,1.700000X1.700000*%
%TD*%
%TA.AperFunction,ComponentPad*%
%ADD12C,1.000000*%
%TD*%
%TA.AperFunction,Conductor*%
%ADD13C,0.750000*%
%TD*%
G04 APERTURE END LIST*
D10*
G36*
X22046699Y20944070D02*
G01*
X21056871Y20944070D01*
X21056871Y22144813D01*
X21167982Y22144813D01*
X21167982Y22115549D01*
X21179181Y22088513D01*
X21199873Y22067821D01*
X21226909Y22056622D01*
X21241541Y22055181D01*
X21695306Y22055181D01*
X21470812Y21798617D01*
X21466290Y21792293D01*
X21464895Y21790897D01*
X21464346Y21789574D01*
X21462261Y21786656D01*
X21458359Y21775119D01*
X21453696Y21763861D01*
X21453696Y21761331D01*
X21452886Y21758935D01*
X21453696Y21746782D01*
X21453696Y21734597D01*
X21454663Y21732261D01*
X21454832Y21729737D01*
X21460234Y21718812D01*
X21464895Y21707561D01*
X21466681Y21705775D01*
X21467804Y21703505D01*
X21476976Y21695480D01*
X21485587Y21686869D01*
X21487923Y21685901D01*
X21489828Y21684235D01*
X21501365Y21680334D01*
X21512623Y21675670D01*
X21516193Y21675319D01*
X21517549Y21674860D01*
X21519516Y21674992D01*
X21527255Y21674229D01*
X21652407Y21674229D01*
X21720923Y21639971D01*
X21751330Y21609564D01*
X21785588Y21541048D01*
X21785588Y21338363D01*
X21751329Y21269847D01*
X21720922Y21239439D01*
X21652407Y21205181D01*
X21402103Y21205181D01*
X21333587Y21239439D01*
X21294575Y21278452D01*
X21283209Y21287780D01*
X21256173Y21298979D01*
X21226910Y21298979D01*
X21199874Y21287781D01*
X21179181Y21267088D01*
X21167982Y21240052D01*
X21167982Y21210789D01*
X21179180Y21183753D01*
X21188507Y21172388D01*
X21236126Y21124768D01*
X21241875Y21120050D01*
X21243176Y21118550D01*
X21245435Y21117128D01*
X21247492Y21115440D01*
X21249319Y21114683D01*
X21255619Y21110718D01*
X21350857Y21063099D01*
X21364588Y21057844D01*
X21367277Y21057653D01*
X21369766Y21056622D01*
X21384398Y21055181D01*
X21670112Y21055181D01*
X21684744Y21056622D01*
X21687233Y21057654D01*
X21689921Y21057844D01*
X21703653Y21063099D01*
X21798891Y21110718D01*
X21805190Y21114683D01*
X21807018Y21115440D01*
X21809074Y21117128D01*
X21811334Y21118550D01*
X21812634Y21120050D01*
X21818384Y21124768D01*
X21866002Y21172387D01*
X21870720Y21178137D01*
X21872219Y21179436D01*
X21873640Y21181695D01*
X21875330Y21183753D01*
X21876087Y21185583D01*
X21880051Y21191879D01*
X21927670Y21287117D01*
X21932925Y21300848D01*
X21933116Y21303538D01*
X21934147Y21306026D01*
X21935588Y21320658D01*
X21935588Y21558753D01*
X21934147Y21573385D01*
X21933116Y21575874D01*
X21932925Y21578563D01*
X21927670Y21592294D01*
X21880051Y21687532D01*
X21876086Y21693832D01*
X21875329Y21695659D01*
X21873640Y21697716D01*
X21872219Y21699975D01*
X21870720Y21701275D01*
X21866002Y21707024D01*
X21818383Y21754643D01*
X21812633Y21759362D01*
X21811334Y21760860D01*
X21809074Y21762282D01*
X21807018Y21763970D01*
X21805190Y21764728D01*
X21798891Y21768692D01*
X21703653Y21816311D01*
X21690135Y21821484D01*
X21917031Y22080793D01*
X21921552Y22087118D01*
X21922948Y22088513D01*
X21923496Y22089837D01*
X21925582Y22092754D01*
X21929483Y22104292D01*
X21934147Y22115549D01*
X21934147Y22118080D01*
X21934957Y22120475D01*
X21934147Y22132629D01*
X21934147Y22144813D01*
X21933179Y22147150D01*
X21933011Y22149673D01*
X21927608Y22160599D01*
X21922948Y22171849D01*
X21921161Y22173636D01*
X21920039Y22175905D01*
X21910866Y22183931D01*
X21902256Y22192541D01*
X21899919Y22193510D01*
X21898015Y22195175D01*
X21886477Y22199077D01*
X21875220Y22203740D01*
X21871649Y22204092D01*
X21870294Y22204550D01*
X21868326Y22204419D01*
X21860588Y22205181D01*
X21241541Y22205181D01*
X21226909Y22203740D01*
X21199873Y22192541D01*
X21179181Y22171849D01*
X21167982Y22144813D01*
X21056871Y22144813D01*
X21056871Y22316292D01*
X22046699Y22316292D01*
X22046699Y20944070D01*
G37*
G36*
X3592877Y20945511D02*
G01*
X2603638Y20945511D01*
X2603638Y21472895D01*
X2714749Y21472895D01*
X2715601Y21460910D01*
X2715601Y21448883D01*
X2716633Y21446392D01*
X2716824Y21443705D01*
X2722198Y21432956D01*
X2726800Y21421847D01*
X2728705Y21419942D01*
X2729910Y21417532D01*
X2738992Y21409655D01*
X2747492Y21401155D01*
X2749980Y21400125D01*
X2752017Y21398358D01*
X2763420Y21394557D01*
X2774528Y21389956D01*
X2778354Y21389580D01*
X2779780Y21389104D01*
X2781754Y21389245D01*
X2789160Y21388515D01*
X3190350Y21388515D01*
X3190350Y21130181D01*
X3191791Y21115549D01*
X3202990Y21088513D01*
X3223682Y21067821D01*
X3250718Y21056622D01*
X3279982Y21056622D01*
X3307018Y21067821D01*
X3327710Y21088513D01*
X3338909Y21115549D01*
X3340350Y21130181D01*
X3340350Y21388515D01*
X3408207Y21388515D01*
X3422839Y21389956D01*
X3449875Y21401155D01*
X3470567Y21421847D01*
X3481766Y21448883D01*
X3481766Y21478147D01*
X3470567Y21505183D01*
X3449875Y21525875D01*
X3422839Y21537074D01*
X3408207Y21538515D01*
X3340350Y21538515D01*
X3340350Y21796848D01*
X3338909Y21811480D01*
X3327710Y21838516D01*
X3307018Y21859208D01*
X3279982Y21870407D01*
X3250718Y21870407D01*
X3223682Y21859208D01*
X3202990Y21838516D01*
X3191791Y21811480D01*
X3190350Y21796848D01*
X3190350Y21538515D01*
X2893217Y21538515D01*
X3098406Y22154082D01*
X3101666Y22168419D01*
X3099591Y22197609D01*
X3086505Y22223783D01*
X3064397Y22242957D01*
X3036635Y22252211D01*
X3007445Y22250136D01*
X2981272Y22237049D01*
X2962098Y22214942D01*
X2956104Y22201517D01*
X2718009Y21487232D01*
X2716359Y21479979D01*
X2715601Y21478147D01*
X2715601Y21476642D01*
X2714749Y21472895D01*
X2603638Y21472895D01*
X2603638Y22363322D01*
X3592877Y22363322D01*
X3592877Y20945511D01*
G37*
G36*
X3546699Y9944070D02*
G01*
X2556871Y9944070D01*
X2556871Y10144813D01*
X2667982Y10144813D01*
X2667982Y10115549D01*
X2679181Y10088513D01*
X2699873Y10067821D01*
X2726909Y10056622D01*
X2741541Y10055181D01*
X3360588Y10055181D01*
X3375220Y10056622D01*
X3402256Y10067821D01*
X3422948Y10088513D01*
X3434147Y10115549D01*
X3434147Y10144813D01*
X3422948Y10171849D01*
X3402256Y10192541D01*
X3375220Y10203740D01*
X3360588Y10205181D01*
X2922607Y10205181D01*
X3366002Y10648577D01*
X3375330Y10659942D01*
X3376361Y10662433D01*
X3378126Y10664467D01*
X3384120Y10677893D01*
X3431739Y10820749D01*
X3433388Y10828005D01*
X3434147Y10829835D01*
X3434408Y10832489D01*
X3434999Y10835086D01*
X3434858Y10837061D01*
X3435588Y10844467D01*
X3435588Y10939705D01*
X3434147Y10954337D01*
X3433116Y10956826D01*
X3432925Y10959515D01*
X3427670Y10973246D01*
X3380051Y11068484D01*
X3376086Y11074784D01*
X3375329Y11076611D01*
X3373640Y11078668D01*
X3372219Y11080927D01*
X3370720Y11082227D01*
X3366002Y11087976D01*
X3318383Y11135595D01*
X3312633Y11140314D01*
X3311334Y11141812D01*
X3309074Y11143234D01*
X3307018Y11144922D01*
X3305190Y11145680D01*
X3298891Y11149644D01*
X3203653Y11197263D01*
X3189921Y11202518D01*
X3187233Y11202709D01*
X3184744Y11203740D01*
X3170112Y11205181D01*
X2932017Y11205181D01*
X2917385Y11203740D01*
X2914896Y11202710D01*
X2912207Y11202518D01*
X2898476Y11197263D01*
X2803238Y11149644D01*
X2796938Y11145680D01*
X2795111Y11144922D01*
X2793054Y11143234D01*
X2790795Y11141812D01*
X2789495Y11140314D01*
X2783746Y11135595D01*
X2736127Y11087976D01*
X2726800Y11076611D01*
X2715601Y11049574D01*
X2715601Y11020312D01*
X2726800Y10993275D01*
X2747492Y10972583D01*
X2774529Y10961384D01*
X2803791Y10961384D01*
X2830828Y10972583D01*
X2842193Y10981910D01*
X2881206Y11020923D01*
X2949722Y11055181D01*
X3152407Y11055181D01*
X3220923Y11020923D01*
X3251330Y10990516D01*
X3285588Y10922000D01*
X3285588Y10856637D01*
X3247416Y10742124D01*
X2688508Y10183214D01*
X2679181Y10171849D01*
X2667982Y10144813D01*
X2556871Y10144813D01*
X2556871Y11316292D01*
X3546699Y11316292D01*
X3546699Y9944070D01*
G37*
G36*
X22045258Y9944070D02*
G01*
X21103638Y9944070D01*
X21103638Y10853848D01*
X21214749Y10853848D01*
X21216823Y10824658D01*
X21229910Y10798483D01*
X21252018Y10779310D01*
X21279779Y10770056D01*
X21308969Y10772130D01*
X21322701Y10777385D01*
X21417939Y10825004D01*
X21424238Y10828969D01*
X21426066Y10829726D01*
X21428122Y10831415D01*
X21430382Y10832836D01*
X21431681Y10834335D01*
X21437431Y10839053D01*
X21499874Y10901496D01*
X21499874Y10205181D01*
X21289160Y10205181D01*
X21274528Y10203740D01*
X21247492Y10192541D01*
X21226800Y10171849D01*
X21215601Y10144813D01*
X21215601Y10115549D01*
X21226800Y10088513D01*
X21247492Y10067821D01*
X21274528Y10056622D01*
X21289160Y10055181D01*
X21860588Y10055181D01*
X21875220Y10056622D01*
X21902256Y10067821D01*
X21922948Y10088513D01*
X21934147Y10115549D01*
X21934147Y10144813D01*
X21922948Y10171849D01*
X21902256Y10192541D01*
X21875220Y10203740D01*
X21860588Y10205181D01*
X21649874Y10205181D01*
X21649874Y11130181D01*
X21649868Y11130234D01*
X21649874Y11130260D01*
X21649858Y11130337D01*
X21648433Y11144813D01*
X21645591Y11151674D01*
X21644135Y11158955D01*
X21640045Y11165062D01*
X21637234Y11171849D01*
X21631985Y11177098D01*
X21627852Y11183270D01*
X21621735Y11187348D01*
X21616542Y11192541D01*
X21609682Y11195383D01*
X21603503Y11199502D01*
X21596294Y11200928D01*
X21589506Y11203740D01*
X21582079Y11203740D01*
X21574795Y11205181D01*
X21567590Y11203740D01*
X21560242Y11203740D01*
X21553381Y11200899D01*
X21546101Y11199442D01*
X21539995Y11195354D01*
X21533206Y11192541D01*
X21527955Y11187291D01*
X21521786Y11183159D01*
X21512565Y11171901D01*
X21512514Y11171849D01*
X21512504Y11171827D01*
X21512470Y11171784D01*
X21421350Y11035104D01*
X21339971Y10953725D01*
X21255619Y10911549D01*
X21243176Y10903717D01*
X21224003Y10881609D01*
X21214749Y10853848D01*
X21103638Y10853848D01*
X21103638Y11316292D01*
X22045258Y11316292D01*
X22045258Y9944070D01*
G37*
G36*
X15499874Y1224153D02*
G01*
X15461931Y1205181D01*
X15259246Y1205181D01*
X15202204Y1233702D01*
X15173684Y1290744D01*
X15173684Y1350572D01*
X15202204Y1407614D01*
X15259246Y1436134D01*
X15479636Y1436134D01*
X15494268Y1437575D01*
X15496757Y1438607D01*
X15499445Y1438797D01*
X15499874Y1438962D01*
X15499874Y1224153D01*
G37*
G36*
X16387590Y1687590D02*
G01*
X16417997Y1657183D01*
X16452255Y1588667D01*
X16452255Y1338363D01*
X16417996Y1269847D01*
X16387589Y1239439D01*
X16319074Y1205181D01*
X16164008Y1205181D01*
X16126065Y1224153D01*
X16126065Y1702877D01*
X16164008Y1721848D01*
X16319074Y1721848D01*
X16387590Y1687590D01*
G37*
G36*
X17280877Y1693328D02*
G01*
X17309398Y1636286D01*
X17309398Y1620238D01*
X16983208Y1555001D01*
X16983208Y1636286D01*
X17011728Y1693328D01*
X17068770Y1721848D01*
X17223836Y1721848D01*
X17280877Y1693328D01*
G37*
G36*
X20629599Y1540820D02*
G01*
X20656093Y1514326D01*
X20690351Y1445810D01*
X20690351Y1338363D01*
X20656092Y1269847D01*
X20625685Y1239439D01*
X20557170Y1205181D01*
X20268923Y1205181D01*
X20268923Y1578991D01*
X20515086Y1578991D01*
X20629599Y1540820D01*
G37*
G36*
X20578067Y2020923D02*
G01*
X20608474Y1990516D01*
X20642732Y1922000D01*
X20642732Y1862172D01*
X20608474Y1793656D01*
X20578067Y1763249D01*
X20509551Y1728991D01*
X20268923Y1728991D01*
X20268923Y2055181D01*
X20509551Y2055181D01*
X20578067Y2020923D01*
G37*
G36*
X23521450Y848832D02*
G01*
X14103049Y848832D01*
X14103049Y1049575D01*
X18120364Y1049575D01*
X18120364Y1020311D01*
X18131563Y993275D01*
X18152255Y972583D01*
X18179291Y961384D01*
X18193923Y959943D01*
X18955827Y959943D01*
X18970459Y961384D01*
X18997495Y972583D01*
X19018187Y993275D01*
X19029386Y1020311D01*
X19029386Y1049575D01*
X20882269Y1049575D01*
X20882269Y1020311D01*
X20893468Y993275D01*
X20914160Y972583D01*
X20941196Y961384D01*
X20955828Y959943D01*
X21717732Y959943D01*
X21732364Y961384D01*
X21759400Y972583D01*
X21780092Y993275D01*
X21791291Y1020311D01*
X21791291Y1049575D01*
X21780092Y1076611D01*
X21759400Y1097303D01*
X21732364Y1108502D01*
X21717732Y1109943D01*
X20955828Y1109943D01*
X20941196Y1108502D01*
X20914160Y1097303D01*
X20893468Y1076611D01*
X20882269Y1049575D01*
X19029386Y1049575D01*
X19018187Y1076611D01*
X18997495Y1097303D01*
X18970459Y1108502D01*
X18955827Y1109943D01*
X18193923Y1109943D01*
X18179291Y1108502D01*
X18152255Y1097303D01*
X18131563Y1076611D01*
X18120364Y1049575D01*
X14103049Y1049575D01*
X14103049Y1653991D01*
X14214160Y1653991D01*
X14214160Y1606372D01*
X14215601Y1591740D01*
X14216632Y1589251D01*
X14216823Y1586563D01*
X14222078Y1572831D01*
X14269697Y1477593D01*
X14271237Y1475146D01*
X14271622Y1473992D01*
X14272867Y1472556D01*
X14277529Y1465150D01*
X14284633Y1458989D01*
X14290795Y1451884D01*
X14298200Y1447223D01*
X14299637Y1445977D01*
X14300790Y1445593D01*
X14303238Y1444052D01*
X14398476Y1396433D01*
X14412207Y1391178D01*
X14414896Y1390987D01*
X14417385Y1389956D01*
X14432017Y1388515D01*
X14557169Y1388515D01*
X14614210Y1359995D01*
X14642731Y1302953D01*
X14642731Y1290744D01*
X14614210Y1233702D01*
X14557169Y1205181D01*
X14402103Y1205181D01*
X14322701Y1244882D01*
X14308969Y1250137D01*
X14279779Y1252211D01*
X14252018Y1242957D01*
X14229910Y1223784D01*
X14216823Y1197609D01*
X14214749Y1168419D01*
X14224003Y1140658D01*
X14243176Y1118550D01*
X14255619Y1110718D01*
X14350857Y1063099D01*
X14364588Y1057844D01*
X14367277Y1057653D01*
X14369766Y1056622D01*
X14384398Y1055181D01*
X14574874Y1055181D01*
X14589506Y1056622D01*
X14591995Y1057654D01*
X14594683Y1057844D01*
X14608415Y1063099D01*
X14703653Y1110718D01*
X14706100Y1112259D01*
X14707254Y1112643D01*
X14708690Y1113889D01*
X14716096Y1118550D01*
X14722257Y1125655D01*
X14729362Y1131816D01*
X14734023Y1139222D01*
X14735269Y1140658D01*
X14735653Y1141812D01*
X14737194Y1144259D01*
X14784813Y1239498D01*
X14790068Y1253230D01*
X14790258Y1255918D01*
X14791290Y1258407D01*
X14792731Y1273039D01*
X14792731Y1320658D01*
X14791290Y1335290D01*
X14790259Y1337779D01*
X14790068Y1340468D01*
X14784813Y1354199D01*
X14777774Y1368277D01*
X15023684Y1368277D01*
X15023684Y1273039D01*
X15025125Y1258407D01*
X15026156Y1255918D01*
X15026347Y1253230D01*
X15031602Y1239498D01*
X15079221Y1144259D01*
X15080761Y1141813D01*
X15081146Y1140658D01*
X15082392Y1139221D01*
X15087053Y1131817D01*
X15094155Y1125658D01*
X15100319Y1118550D01*
X15107724Y1113889D01*
X15109161Y1112643D01*
X15110314Y1112259D01*
X15112762Y1110718D01*
X15208000Y1063099D01*
X15221731Y1057844D01*
X15224420Y1057653D01*
X15226909Y1056622D01*
X15241541Y1055181D01*
X15479636Y1055181D01*
X15494268Y1056622D01*
X15496757Y1057654D01*
X15499445Y1057844D01*
X15513177Y1063099D01*
X15529677Y1071350D01*
X15533206Y1067821D01*
X15560242Y1056622D01*
X15589506Y1056622D01*
X15616542Y1067821D01*
X15637234Y1088513D01*
X15648433Y1115549D01*
X15649874Y1130181D01*
X15649874Y1653991D01*
X15648433Y1668623D01*
X15647402Y1671112D01*
X15647211Y1673801D01*
X15641956Y1687532D01*
X15594337Y1782770D01*
X15592796Y1785218D01*
X15592412Y1786371D01*
X15591166Y1787808D01*
X15586505Y1795213D01*
X15579400Y1801375D01*
X15573239Y1808479D01*
X15565833Y1813141D01*
X15564397Y1814386D01*
X15563243Y1814771D01*
X15560796Y1816311D01*
X15465558Y1863930D01*
X15451826Y1869185D01*
X15449138Y1869376D01*
X15446649Y1870407D01*
X15432017Y1871848D01*
X15241541Y1871848D01*
X15226909Y1870407D01*
X15224420Y1869377D01*
X15221731Y1869185D01*
X15208000Y1863930D01*
X15112762Y1816311D01*
X15100319Y1808479D01*
X15081146Y1786371D01*
X15071892Y1758610D01*
X15073966Y1729420D01*
X15087053Y1703245D01*
X15109161Y1684072D01*
X15136922Y1674818D01*
X15166112Y1676892D01*
X15179844Y1682147D01*
X15259246Y1721848D01*
X15414312Y1721848D01*
X15471353Y1693328D01*
X15499874Y1636286D01*
X15499874Y1605106D01*
X15461931Y1586134D01*
X15241541Y1586134D01*
X15226909Y1584693D01*
X15224420Y1583663D01*
X15221731Y1583471D01*
X15208000Y1578216D01*
X15112762Y1530597D01*
X15110314Y1529057D01*
X15109161Y1528672D01*
X15107724Y1527427D01*
X15100319Y1522765D01*
X15094157Y1515661D01*
X15087053Y1509499D01*
X15082391Y1502094D01*
X15081146Y1500657D01*
X15080761Y1499504D01*
X15079221Y1497056D01*
X15031602Y1401818D01*
X15026347Y1388086D01*
X15026156Y1385399D01*
X15025125Y1382909D01*
X15023684Y1368277D01*
X14777774Y1368277D01*
X14737194Y1449437D01*
X14735653Y1451885D01*
X14735269Y1453038D01*
X14734023Y1454475D01*
X14729362Y1461880D01*
X14722257Y1468042D01*
X14716096Y1475146D01*
X14708690Y1479808D01*
X14707254Y1481053D01*
X14706100Y1481438D01*
X14703653Y1482978D01*
X14608415Y1530597D01*
X14594683Y1535852D01*
X14591995Y1536043D01*
X14589506Y1537074D01*
X14574874Y1538515D01*
X14449722Y1538515D01*
X14392680Y1567036D01*
X14364160Y1624077D01*
X14364160Y1636286D01*
X14392680Y1693328D01*
X14449722Y1721848D01*
X14557169Y1721848D01*
X14636571Y1682147D01*
X14650302Y1676892D01*
X14679492Y1674818D01*
X14707254Y1684072D01*
X14729361Y1703245D01*
X14742449Y1729420D01*
X14744523Y1758610D01*
X14735269Y1786371D01*
X14716096Y1808479D01*
X14703653Y1816311D01*
X14608415Y1863930D01*
X14594683Y1869185D01*
X14591995Y1869376D01*
X14589506Y1870407D01*
X14574874Y1871848D01*
X14432017Y1871848D01*
X14417385Y1870407D01*
X14414896Y1869377D01*
X14412207Y1869185D01*
X14398476Y1863930D01*
X14303238Y1816311D01*
X14300790Y1814771D01*
X14299637Y1814386D01*
X14298200Y1813141D01*
X14290795Y1808479D01*
X14284633Y1801375D01*
X14277529Y1795213D01*
X14272867Y1787808D01*
X14271622Y1786371D01*
X14271237Y1785218D01*
X14269697Y1782770D01*
X14222078Y1687532D01*
X14216823Y1673800D01*
X14216632Y1671113D01*
X14215601Y1668623D01*
X14214160Y1653991D01*
X14103049Y1653991D01*
X14103049Y2130181D01*
X15976065Y2130181D01*
X15976065Y1130181D01*
X15977506Y1115549D01*
X15988705Y1088513D01*
X16009397Y1067821D01*
X16036433Y1056622D01*
X16065697Y1056622D01*
X16092733Y1067821D01*
X16096261Y1071350D01*
X16112762Y1063099D01*
X16126493Y1057844D01*
X16129182Y1057653D01*
X16131671Y1056622D01*
X16146303Y1055181D01*
X16336779Y1055181D01*
X16351411Y1056622D01*
X16353900Y1057654D01*
X16356588Y1057844D01*
X16370320Y1063099D01*
X16465558Y1110718D01*
X16471857Y1114683D01*
X16473685Y1115440D01*
X16475741Y1117128D01*
X16478001Y1118550D01*
X16479301Y1120050D01*
X16485051Y1124768D01*
X16532669Y1172387D01*
X16537387Y1178137D01*
X16538886Y1179436D01*
X16540307Y1181695D01*
X16541997Y1183753D01*
X16542754Y1185583D01*
X16546718Y1191879D01*
X16594337Y1287117D01*
X16599592Y1300848D01*
X16599783Y1303538D01*
X16600814Y1306026D01*
X16602255Y1320658D01*
X16602255Y1606372D01*
X16600814Y1621004D01*
X16599783Y1623493D01*
X16599592Y1626182D01*
X16594337Y1639913D01*
X16587298Y1653991D01*
X16833208Y1653991D01*
X16833208Y1273039D01*
X16834649Y1258407D01*
X16835680Y1255918D01*
X16835871Y1253230D01*
X16841126Y1239498D01*
X16888745Y1144259D01*
X16890285Y1141813D01*
X16890670Y1140658D01*
X16891916Y1139221D01*
X16896577Y1131817D01*
X16903679Y1125658D01*
X16909843Y1118550D01*
X16917248Y1113889D01*
X16918685Y1112643D01*
X16919838Y1112259D01*
X16922286Y1110718D01*
X17017524Y1063099D01*
X17031255Y1057844D01*
X17033944Y1057653D01*
X17036433Y1056622D01*
X17051065Y1055181D01*
X17241541Y1055181D01*
X17256173Y1056622D01*
X17258662Y1057654D01*
X17261350Y1057844D01*
X17275082Y1063099D01*
X17370320Y1110718D01*
X17382763Y1118550D01*
X17401936Y1140658D01*
X17411190Y1168419D01*
X17409116Y1197609D01*
X17396028Y1223784D01*
X17373921Y1242957D01*
X17346159Y1252211D01*
X17316969Y1250137D01*
X17303238Y1244882D01*
X17223836Y1205181D01*
X17068770Y1205181D01*
X17011728Y1233702D01*
X16983208Y1290744D01*
X16983208Y1402030D01*
X17399106Y1485209D01*
X17413172Y1489492D01*
X17419277Y1493581D01*
X17426066Y1496393D01*
X17431318Y1501646D01*
X17437486Y1505776D01*
X17441560Y1511887D01*
X17446758Y1517085D01*
X17449601Y1523949D01*
X17453718Y1530124D01*
X17455143Y1537330D01*
X17457957Y1544121D01*
X17459398Y1558753D01*
X17459398Y1653991D01*
X17457957Y1668623D01*
X17456926Y1671112D01*
X17456735Y1673801D01*
X17451480Y1687532D01*
X17403861Y1782770D01*
X17402320Y1785218D01*
X17401936Y1786371D01*
X17400690Y1787808D01*
X17396029Y1795213D01*
X17394144Y1796848D01*
X17737970Y1796848D01*
X17737970Y1130181D01*
X17739411Y1115549D01*
X17750610Y1088513D01*
X17771302Y1067821D01*
X17798338Y1056622D01*
X17827602Y1056622D01*
X17854638Y1067821D01*
X17875330Y1088513D01*
X17886529Y1115549D01*
X17887970Y1130181D01*
X17887970Y1588667D01*
X17922228Y1657183D01*
X17952635Y1687590D01*
X17980675Y1701610D01*
X19071304Y1701610D01*
X19071304Y1558753D01*
X19071555Y1556200D01*
X19071393Y1555107D01*
X19072202Y1549634D01*
X19072745Y1544121D01*
X19073167Y1543100D01*
X19073543Y1540563D01*
X19121162Y1350087D01*
X19121547Y1349008D01*
X19121586Y1348468D01*
X19123913Y1342387D01*
X19126109Y1336241D01*
X19126431Y1335806D01*
X19126841Y1334736D01*
X19174460Y1239498D01*
X19178423Y1233202D01*
X19179181Y1231372D01*
X19180870Y1229314D01*
X19182292Y1227055D01*
X19183790Y1225756D01*
X19188509Y1220006D01*
X19283747Y1124767D01*
X19295112Y1115439D01*
X19297602Y1114408D01*
X19299637Y1112643D01*
X19313063Y1106649D01*
X19455919Y1059030D01*
X19463174Y1057381D01*
X19465005Y1056622D01*
X19467658Y1056361D01*
X19470256Y1055770D01*
X19472230Y1055911D01*
X19479637Y1055181D01*
X19574875Y1055181D01*
X19582280Y1055911D01*
X19584255Y1055770D01*
X19586852Y1056361D01*
X19589507Y1056622D01*
X19591338Y1057381D01*
X19598592Y1059030D01*
X19741449Y1106649D01*
X19754874Y1112643D01*
X19756909Y1114409D01*
X19759400Y1115440D01*
X19770766Y1124768D01*
X19818384Y1172387D01*
X19827712Y1183753D01*
X19838910Y1210789D01*
X19838910Y1240052D01*
X19827711Y1267088D01*
X19807018Y1287781D01*
X19779982Y1298979D01*
X19750719Y1298979D01*
X19723683Y1287780D01*
X19712317Y1278452D01*
X19677218Y1243353D01*
X19562705Y1205181D01*
X19491807Y1205181D01*
X19377294Y1243352D01*
X19303181Y1317466D01*
X19264687Y1394453D01*
X19221304Y1567987D01*
X19221304Y1692376D01*
X19264687Y1865910D01*
X19303181Y1942897D01*
X19377294Y2017010D01*
X19491807Y2055181D01*
X19562705Y2055181D01*
X19677218Y2017010D01*
X19712318Y1981910D01*
X19723683Y1972583D01*
X19750719Y1961384D01*
X19779982Y1961384D01*
X19807018Y1972583D01*
X19827711Y1993276D01*
X19838910Y2020312D01*
X19838910Y2049575D01*
X19827711Y2076611D01*
X19818384Y2087976D01*
X19776179Y2130181D01*
X20118923Y2130181D01*
X20118923Y1130181D01*
X20120364Y1115549D01*
X20131563Y1088513D01*
X20152255Y1067821D01*
X20179291Y1056622D01*
X20193923Y1055181D01*
X20574875Y1055181D01*
X20589507Y1056622D01*
X20591996Y1057654D01*
X20594684Y1057844D01*
X20608416Y1063099D01*
X20703654Y1110718D01*
X20709953Y1114683D01*
X20711781Y1115440D01*
X20713837Y1117128D01*
X20716097Y1118550D01*
X20717397Y1120050D01*
X20723147Y1124768D01*
X20770765Y1172387D01*
X20775483Y1178137D01*
X20776982Y1179436D01*
X20778403Y1181695D01*
X20780093Y1183753D01*
X20780850Y1185583D01*
X20784814Y1191879D01*
X20832433Y1287117D01*
X20837688Y1300848D01*
X20837879Y1303538D01*
X20838910Y1306026D01*
X20840351Y1320658D01*
X20840351Y1463515D01*
X20838910Y1478147D01*
X20837879Y1480636D01*
X20837688Y1483325D01*
X20832433Y1497056D01*
X20784814Y1592294D01*
X20780849Y1598594D01*
X20780092Y1600421D01*
X20778403Y1602478D01*
X20776982Y1604737D01*
X20775483Y1606037D01*
X20770765Y1611786D01*
X20723146Y1659405D01*
X20711781Y1668732D01*
X20709290Y1669764D01*
X20707255Y1671529D01*
X20701187Y1674238D01*
X20723146Y1696196D01*
X20727864Y1701946D01*
X20729363Y1703245D01*
X20730784Y1705505D01*
X20732473Y1707561D01*
X20733230Y1709389D01*
X20737195Y1715688D01*
X20784814Y1810926D01*
X20790069Y1824657D01*
X20790260Y1827347D01*
X20791291Y1829835D01*
X20792732Y1844467D01*
X20792732Y1939705D01*
X20791291Y1954337D01*
X20790260Y1956826D01*
X20790069Y1959515D01*
X20784814Y1973246D01*
X20737195Y2068484D01*
X20733230Y2074784D01*
X20732473Y2076611D01*
X20730784Y2078668D01*
X20729363Y2080927D01*
X20727864Y2082227D01*
X20723146Y2087976D01*
X20690321Y2120801D01*
X21738560Y2120801D01*
X21741820Y2106464D01*
X22075153Y1106464D01*
X22081147Y1093039D01*
X22084657Y1088992D01*
X22087054Y1084198D01*
X22094162Y1078033D01*
X22100321Y1070932D01*
X22105110Y1068538D01*
X22109161Y1065024D01*
X22118086Y1062050D01*
X22126494Y1057845D01*
X22131838Y1057466D01*
X22136924Y1055770D01*
X22146304Y1056437D01*
X22155684Y1055770D01*
X22160769Y1057466D01*
X22166114Y1057845D01*
X22174524Y1062051D01*
X22183446Y1065024D01*
X22187493Y1068535D01*
X22192287Y1070931D01*
X22198450Y1078037D01*
X22205554Y1084198D01*
X22207949Y1088990D01*
X22211461Y1093038D01*
X22217455Y1106464D01*
X22466583Y1853848D01*
X22690941Y1853848D01*
X22693015Y1824658D01*
X22706102Y1798483D01*
X22728210Y1779310D01*
X22755971Y1770056D01*
X22785161Y1772130D01*
X22798893Y1777385D01*
X22894131Y1825004D01*
X22900430Y1828969D01*
X22902258Y1829726D01*
X22904314Y1831415D01*
X22906574Y1832836D01*
X22907873Y1834335D01*
X22913623Y1839053D01*
X22976066Y1901496D01*
X22976066Y1205181D01*
X22765352Y1205181D01*
X22750720Y1203740D01*
X22723684Y1192541D01*
X22702992Y1171849D01*
X22691793Y1144813D01*
X22691793Y1115549D01*
X22702992Y1088513D01*
X22723684Y1067821D01*
X22750720Y1056622D01*
X22765352Y1055181D01*
X23336780Y1055181D01*
X23351412Y1056622D01*
X23378448Y1067821D01*
X23399140Y1088513D01*
X23410339Y1115549D01*
X23410339Y1144813D01*
X23399140Y1171849D01*
X23378448Y1192541D01*
X23351412Y1203740D01*
X23336780Y1205181D01*
X23126066Y1205181D01*
X23126066Y2130181D01*
X23126060Y2130234D01*
X23126066Y2130260D01*
X23126050Y2130337D01*
X23124625Y2144813D01*
X23121783Y2151674D01*
X23120327Y2158955D01*
X23116237Y2165062D01*
X23113426Y2171849D01*
X23108177Y2177098D01*
X23104044Y2183270D01*
X23097927Y2187348D01*
X23092734Y2192541D01*
X23085874Y2195383D01*
X23079695Y2199502D01*
X23072486Y2200928D01*
X23065698Y2203740D01*
X23058271Y2203740D01*
X23050987Y2205181D01*
X23043782Y2203740D01*
X23036434Y2203740D01*
X23029573Y2200899D01*
X23022293Y2199442D01*
X23016187Y2195354D01*
X23009398Y2192541D01*
X23004147Y2187291D01*
X22997978Y2183159D01*
X22988757Y2171901D01*
X22988706Y2171849D01*
X22988696Y2171827D01*
X22988662Y2171784D01*
X22897542Y2035104D01*
X22816163Y1953725D01*
X22731811Y1911549D01*
X22719368Y1903717D01*
X22700195Y1881609D01*
X22690941Y1853848D01*
X22466583Y1853848D01*
X22550788Y2106464D01*
X22554048Y2120800D01*
X22551973Y2149990D01*
X22538887Y2176164D01*
X22516779Y2195338D01*
X22489017Y2204592D01*
X22459827Y2202517D01*
X22433654Y2189430D01*
X22414480Y2167323D01*
X22408486Y2153898D01*
X22146304Y1367352D01*
X21884122Y2153898D01*
X21878128Y2167324D01*
X21858954Y2189431D01*
X21832781Y2202517D01*
X21803591Y2204592D01*
X21775828Y2195338D01*
X21753721Y2176164D01*
X21740635Y2149991D01*
X21738560Y2120801D01*
X20690321Y2120801D01*
X20675527Y2135595D01*
X20669777Y2140314D01*
X20668478Y2141812D01*
X20666218Y2143234D01*
X20664162Y2144922D01*
X20662334Y2145680D01*
X20656035Y2149644D01*
X20560797Y2197263D01*
X20547065Y2202518D01*
X20544377Y2202709D01*
X20541888Y2203740D01*
X20527256Y2205181D01*
X20193923Y2205181D01*
X20179291Y2203740D01*
X20152255Y2192541D01*
X20131563Y2171849D01*
X20120364Y2144813D01*
X20118923Y2130181D01*
X19776179Y2130181D01*
X19770765Y2135595D01*
X19759400Y2144922D01*
X19756909Y2145954D01*
X19754874Y2147719D01*
X19741449Y2153713D01*
X19598592Y2201332D01*
X19591338Y2202982D01*
X19589507Y2203740D01*
X19586852Y2204002D01*
X19584255Y2204592D01*
X19582280Y2204452D01*
X19574875Y2205181D01*
X19479637Y2205181D01*
X19472230Y2204452D01*
X19470256Y2204592D01*
X19467658Y2204002D01*
X19465005Y2203740D01*
X19463174Y2202982D01*
X19455919Y2201332D01*
X19313063Y2153713D01*
X19299637Y2147719D01*
X19297602Y2145955D01*
X19295112Y2144923D01*
X19283747Y2135595D01*
X19188509Y2040357D01*
X19183790Y2034608D01*
X19182292Y2033308D01*
X19180870Y2031049D01*
X19179182Y2028992D01*
X19178424Y2027165D01*
X19174460Y2020865D01*
X19126841Y1925627D01*
X19126431Y1924558D01*
X19126109Y1924122D01*
X19123923Y1918003D01*
X19121586Y1911895D01*
X19121547Y1911356D01*
X19121162Y1910276D01*
X19073543Y1719800D01*
X19073167Y1717264D01*
X19072745Y1716242D01*
X19072202Y1710730D01*
X19071393Y1705256D01*
X19071555Y1704164D01*
X19071304Y1701610D01*
X17980675Y1701610D01*
X18021151Y1721848D01*
X18098684Y1721848D01*
X18113316Y1723289D01*
X18140352Y1734488D01*
X18161044Y1755180D01*
X18172243Y1782216D01*
X18172243Y1811480D01*
X18161044Y1838516D01*
X18140352Y1859208D01*
X18113316Y1870407D01*
X18098684Y1871848D01*
X18003446Y1871848D01*
X17988814Y1870407D01*
X17986325Y1869377D01*
X17983636Y1869185D01*
X17969905Y1863930D01*
X17882835Y1820396D01*
X17875330Y1838516D01*
X17854638Y1859208D01*
X17827602Y1870407D01*
X17798338Y1870407D01*
X17771302Y1859208D01*
X17750610Y1838516D01*
X17739411Y1811480D01*
X17737970Y1796848D01*
X17394144Y1796848D01*
X17388924Y1801375D01*
X17382763Y1808479D01*
X17375357Y1813141D01*
X17373921Y1814386D01*
X17372767Y1814771D01*
X17370320Y1816311D01*
X17275082Y1863930D01*
X17261350Y1869185D01*
X17258662Y1869376D01*
X17256173Y1870407D01*
X17241541Y1871848D01*
X17051065Y1871848D01*
X17036433Y1870407D01*
X17033944Y1869377D01*
X17031255Y1869185D01*
X17017524Y1863930D01*
X16922286Y1816311D01*
X16919838Y1814771D01*
X16918685Y1814386D01*
X16917248Y1813141D01*
X16909843Y1808479D01*
X16903681Y1801375D01*
X16896577Y1795213D01*
X16891915Y1787808D01*
X16890670Y1786371D01*
X16890285Y1785218D01*
X16888745Y1782770D01*
X16841126Y1687532D01*
X16835871Y1673800D01*
X16835680Y1671113D01*
X16834649Y1668623D01*
X16833208Y1653991D01*
X16587298Y1653991D01*
X16546718Y1735151D01*
X16542753Y1741451D01*
X16541996Y1743278D01*
X16540307Y1745335D01*
X16538886Y1747594D01*
X16537387Y1748894D01*
X16532669Y1754643D01*
X16485050Y1802262D01*
X16479300Y1806981D01*
X16478001Y1808479D01*
X16475741Y1809901D01*
X16473685Y1811589D01*
X16471857Y1812347D01*
X16465558Y1816311D01*
X16370320Y1863930D01*
X16356588Y1869185D01*
X16353900Y1869376D01*
X16351411Y1870407D01*
X16336779Y1871848D01*
X16146303Y1871848D01*
X16131671Y1870407D01*
X16129182Y1869377D01*
X16126493Y1869185D01*
X16126065Y1869022D01*
X16126065Y2130181D01*
X16124624Y2144813D01*
X16113425Y2171849D01*
X16092733Y2192541D01*
X16065697Y2203740D01*
X16036433Y2203740D01*
X16009397Y2192541D01*
X15988705Y2171849D01*
X15977506Y2144813D01*
X15976065Y2130181D01*
X14103049Y2130181D01*
X14103049Y2316292D01*
X23521450Y2316292D01*
X23521450Y848832D01*
G37*
D11*
%TO.P,J2,1,Pin_1*%
%TO.N,Net-(J2-Pin_1)*%
X3000000Y18500000D03*
%TD*%
%TO.P,J3,1,Pin_1*%
%TO.N,Net-(J3-Pin_1)*%
X21500000Y18500000D03*
%TD*%
D12*
%TO.P,P1,1,Pin_1*%
%TO.N,Net-(J5-Pin_1)*%
X12600000Y13000000D03*
%TO.P,P1,2,Pin_2*%
%TO.N,Net-(J4-Pin_1)*%
X11200000Y13000000D03*
%TO.P,P1,3,Pin_3*%
%TO.N,Net-(J3-Pin_1)*%
X15000000Y13000000D03*
%TO.P,P1,4,Pin_4*%
%TO.N,Net-(J2-Pin_1)*%
X9200000Y13000000D03*
%TD*%
D11*
%TO.P,J5,1,Pin_1*%
%TO.N,Net-(J5-Pin_1)*%
X21500000Y7500000D03*
%TD*%
%TO.P,J4,1,Pin_1*%
%TO.N,Net-(J4-Pin_1)*%
X3000000Y7500000D03*
%TD*%
D13*
%TO.N,Net-(J4-Pin_1)*%
X7000000Y7500000D02*
X3000000Y7500000D01*
X11200000Y11700000D02*
X7000000Y7500000D01*
X11200000Y13000000D02*
X11200000Y11700000D01*
%TO.N,Net-(J5-Pin_1)*%
X18100000Y7500000D02*
X21500000Y7500000D01*
X12600000Y13000000D02*
X18100000Y7500000D01*
%TO.N,Net-(J3-Pin_1)*%
X19000000Y18500000D02*
X21500000Y18500000D01*
X15000000Y14500000D02*
X19000000Y18500000D01*
X15000000Y13000000D02*
X15000000Y14500000D01*
%TO.N,Net-(J2-Pin_1)*%
X7000000Y18500000D02*
X3000000Y18500000D01*
X9200000Y16300000D02*
X7000000Y18500000D01*
X9200000Y13000000D02*
X9200000Y16300000D01*
%TD*%
%TA.AperFunction,NonConductor*%
G36*
X24442539Y24479815D02*
G01*
X24488294Y24427011D01*
X24499500Y24375500D01*
X24499500Y624500D01*
X24479815Y557461D01*
X24427011Y511706D01*
X24375500Y500500D01*
X624500Y500500D01*
X557461Y520185D01*
X511706Y572989D01*
X500500Y624500D01*
X500500Y954943D01*
X14208304Y954943D01*
X23416780Y954943D01*
X23416780Y2211556D01*
X14208304Y2211556D01*
X14208304Y954943D01*
X500500Y954943D01*
X500500Y10050181D01*
X2661541Y10050181D01*
X3441444Y10050181D01*
X3441444Y11211037D01*
X2661541Y11211037D01*
X2661541Y10050181D01*
X500500Y10050181D01*
X500500Y19408034D01*
X1149500Y19408034D01*
X1149500Y17591972D01*
X1149501Y17591966D01*
X1160113Y17472585D01*
X1216089Y17276955D01*
X1216090Y17276952D01*
X1216091Y17276951D01*
X1310302Y17096593D01*
X1330238Y17072143D01*
X1438890Y16938891D01*
X1532803Y16862316D01*
X1596593Y16810302D01*
X1776951Y16716091D01*
X1972582Y16660114D01*
X2091963Y16649500D01*
X3908036Y16649501D01*
X3965748Y16654632D01*
X3966159Y16654638D01*
X3967211Y16654762D01*
X4027418Y16660114D01*
X4123745Y16687677D01*
X4161494Y16695799D01*
X4179790Y16703714D01*
X4223049Y16716091D01*
X4289567Y16750839D01*
X4297715Y16754723D01*
X4348223Y16776569D01*
X4942643Y17108745D01*
X5003133Y17124500D01*
X6378887Y17124500D01*
X6445926Y17104815D01*
X6466568Y17088181D01*
X7788181Y15766568D01*
X7821666Y15705245D01*
X7824500Y15678887D01*
X7824500Y14101764D01*
X7823477Y14085870D01*
X7713799Y13237253D01*
X7711959Y13201218D01*
X7710594Y13188149D01*
X7699500Y13118094D01*
X7699500Y12881903D01*
X7736446Y12648632D01*
X7809433Y12424004D01*
X7916657Y12213567D01*
X8055483Y12022490D01*
X8222490Y11855483D01*
X8413567Y11716657D01*
X8624008Y11609432D01*
X8806725Y11550064D01*
X8839263Y11539491D01*
X8896939Y11500053D01*
X8924137Y11435695D01*
X8912222Y11366848D01*
X8888626Y11333879D01*
X6466568Y8911819D01*
X6405245Y8878334D01*
X6378887Y8875500D01*
X5003135Y8875500D01*
X4942645Y8891255D01*
X4348205Y9223442D01*
X4302092Y9247665D01*
X4302073Y9247673D01*
X4275743Y9257477D01*
X4275743Y9257476D01*
X4268464Y9260186D01*
X4223049Y9283909D01*
X4143974Y9306536D01*
X4139446Y9308221D01*
X4139438Y9308223D01*
X4111416Y9318656D01*
X4111415Y9318657D01*
X4111408Y9318659D01*
X4105744Y9320136D01*
X4067577Y9329297D01*
X4067573Y9329298D01*
X4067572Y9329298D01*
X4067570Y9329299D01*
X4065655Y9329637D01*
X4053141Y9332526D01*
X4027420Y9339886D01*
X4027413Y9339887D01*
X3954631Y9346358D01*
X3908037Y9350500D01*
X3908033Y9350500D01*
X3883547Y9350500D01*
X3865459Y9352584D01*
X3841830Y9350500D01*
X2091971Y9350500D01*
X2091965Y9350500D01*
X2091964Y9350499D01*
X2080316Y9349464D01*
X1972584Y9339887D01*
X1776954Y9283911D01*
X1707575Y9247670D01*
X1596593Y9189698D01*
X1596591Y9189697D01*
X1596590Y9189696D01*
X1438890Y9061110D01*
X1317161Y8911819D01*
X1310302Y8903407D01*
X1297205Y8878334D01*
X1216089Y8723046D01*
X1160114Y8527417D01*
X1160113Y8527414D01*
X1149500Y8408034D01*
X1149500Y6591972D01*
X1149501Y6591966D01*
X1160113Y6472585D01*
X1216089Y6276955D01*
X1216090Y6276952D01*
X1216091Y6276951D01*
X1310302Y6096593D01*
X1310304Y6096591D01*
X1438890Y5938891D01*
X1532803Y5862316D01*
X1596593Y5810302D01*
X1776951Y5716091D01*
X1972582Y5660114D01*
X2091963Y5649500D01*
X3908036Y5649501D01*
X3965748Y5654632D01*
X3966159Y5654638D01*
X3967211Y5654762D01*
X4027418Y5660114D01*
X4123745Y5687677D01*
X4161494Y5695799D01*
X4179790Y5703714D01*
X4223049Y5716091D01*
X4289567Y5750839D01*
X4297715Y5754723D01*
X4348223Y5776569D01*
X4942643Y6108745D01*
X5003133Y6124500D01*
X7108253Y6124500D01*
X7108254Y6124500D01*
X7322097Y6158370D01*
X7528009Y6225274D01*
X7720919Y6323567D01*
X7896078Y6450827D01*
X12249173Y10803922D01*
X12376433Y10979081D01*
X12399954Y11025246D01*
X12447926Y11076039D01*
X12515746Y11092835D01*
X12581882Y11070299D01*
X12598119Y11056630D01*
X17203922Y6450827D01*
X17305373Y6377120D01*
X17379081Y6323567D01*
X17470562Y6276955D01*
X17571988Y6225275D01*
X17571990Y6225275D01*
X17571991Y6225274D01*
X17598512Y6216657D01*
X17688207Y6187513D01*
X17777902Y6158369D01*
X17991741Y6124500D01*
X17991746Y6124500D01*
X18208254Y6124500D01*
X19496867Y6124500D01*
X19557357Y6108745D01*
X20091412Y5810302D01*
X20151775Y5776570D01*
X20197846Y5752367D01*
X20231488Y5739839D01*
X20276951Y5716091D01*
X20355982Y5693478D01*
X20388505Y5681366D01*
X20394206Y5679879D01*
X20432546Y5670677D01*
X20432569Y5670675D01*
X20434372Y5670355D01*
X20446898Y5667464D01*
X20472582Y5660114D01*
X20472580Y5660114D01*
X20485665Y5658951D01*
X20591963Y5649500D01*
X20616545Y5649501D01*
X20634661Y5647415D01*
X20658267Y5649501D01*
X22408036Y5649501D01*
X22527418Y5660114D01*
X22723049Y5716091D01*
X22903407Y5810302D01*
X23061109Y5938891D01*
X23189698Y6096593D01*
X23283909Y6276951D01*
X23339886Y6472582D01*
X23350500Y6591963D01*
X23350499Y8408036D01*
X23339886Y8527418D01*
X23283909Y8723049D01*
X23189698Y8903407D01*
X23137684Y8967197D01*
X23061109Y9061110D01*
X22903409Y9189696D01*
X22903410Y9189696D01*
X22903407Y9189698D01*
X22723049Y9283909D01*
X22723048Y9283910D01*
X22723045Y9283911D01*
X22605829Y9317450D01*
X22527418Y9339886D01*
X22527415Y9339887D01*
X22527413Y9339887D01*
X22461102Y9345783D01*
X22408037Y9350500D01*
X22408032Y9350500D01*
X20591974Y9350500D01*
X20591959Y9350499D01*
X20536777Y9345594D01*
X20536774Y9345594D01*
X20534383Y9345381D01*
X20533925Y9345373D01*
X20532759Y9345237D01*
X20531018Y9345082D01*
X20472586Y9339887D01*
X20472579Y9339886D01*
X20380235Y9313464D01*
X20376243Y9312322D01*
X20338506Y9304203D01*
X20320203Y9296288D01*
X20312479Y9294077D01*
X20312469Y9294073D01*
X20301155Y9290836D01*
X20276949Y9283909D01*
X20210451Y9249174D01*
X20202274Y9245276D01*
X20151773Y9223431D01*
X19557356Y8891255D01*
X19496866Y8875500D01*
X18721113Y8875500D01*
X18654074Y8895185D01*
X18633432Y8911819D01*
X17495070Y10050181D01*
X21208304Y10050181D01*
X21940588Y10050181D01*
X21940588Y11211556D01*
X21208304Y11211556D01*
X21208304Y10050181D01*
X17495070Y10050181D01*
X15913513Y11631738D01*
X15880028Y11693061D01*
X15885012Y11762753D01*
X15926884Y11818686D01*
X15928173Y11819639D01*
X15977510Y11855483D01*
X16144517Y12022490D01*
X16283343Y12213567D01*
X16390568Y12424008D01*
X16463553Y12648632D01*
X16500500Y12881903D01*
X16500500Y13118090D01*
X16500500Y13118092D01*
X16488406Y13194444D01*
X16486928Y13210453D01*
X16486200Y13237247D01*
X16402030Y13888504D01*
X16412959Y13957512D01*
X16437323Y13992074D01*
X19488892Y17043644D01*
X19550213Y17077127D01*
X19619905Y17072143D01*
X19637050Y17064211D01*
X20151775Y16776570D01*
X20197846Y16752367D01*
X20231488Y16739839D01*
X20276951Y16716091D01*
X20355982Y16693478D01*
X20388505Y16681366D01*
X20394206Y16679879D01*
X20432546Y16670677D01*
X20432569Y16670675D01*
X20434372Y16670355D01*
X20446898Y16667464D01*
X20472582Y16660114D01*
X20472580Y16660114D01*
X20485665Y16658951D01*
X20591963Y16649500D01*
X20616545Y16649501D01*
X20634661Y16647415D01*
X20658267Y16649501D01*
X22408036Y16649501D01*
X22527418Y16660114D01*
X22723049Y16716091D01*
X22903407Y16810302D01*
X23061109Y16938891D01*
X23189698Y17096593D01*
X23283909Y17276951D01*
X23339886Y17472582D01*
X23350500Y17591963D01*
X23350499Y19408036D01*
X23339886Y19527418D01*
X23283909Y19723049D01*
X23189698Y19903407D01*
X23137684Y19967197D01*
X23061109Y20061110D01*
X22903409Y20189696D01*
X22903410Y20189696D01*
X22903407Y20189698D01*
X22723049Y20283909D01*
X22723048Y20283910D01*
X22723045Y20283911D01*
X22605829Y20317450D01*
X22527418Y20339886D01*
X22527415Y20339887D01*
X22527413Y20339887D01*
X22461102Y20345783D01*
X22408037Y20350500D01*
X22408032Y20350500D01*
X20591974Y20350500D01*
X20591959Y20350499D01*
X20536777Y20345594D01*
X20536774Y20345594D01*
X20534383Y20345381D01*
X20533925Y20345373D01*
X20532759Y20345237D01*
X20531018Y20345082D01*
X20472586Y20339887D01*
X20472579Y20339886D01*
X20380235Y20313464D01*
X20376243Y20312322D01*
X20338506Y20304203D01*
X20320203Y20296288D01*
X20312479Y20294077D01*
X20312469Y20294073D01*
X20301155Y20290836D01*
X20276949Y20283909D01*
X20210451Y20249174D01*
X20202274Y20245276D01*
X20151773Y20223431D01*
X19557356Y19891255D01*
X19496866Y19875500D01*
X18891746Y19875500D01*
X18820465Y19864210D01*
X18677901Y19841630D01*
X18471993Y19774728D01*
X18471990Y19774727D01*
X18279080Y19676433D01*
X18103920Y19549171D01*
X13950825Y15396077D01*
X13950821Y15396072D01*
X13823569Y15220923D01*
X13725273Y15028010D01*
X13725272Y15028007D01*
X13658370Y14822099D01*
X13624500Y14608254D01*
X13624500Y14353741D01*
X13604815Y14286702D01*
X13552011Y14240947D01*
X13482853Y14231003D01*
X13427614Y14253423D01*
X13386433Y14283343D01*
X13175996Y14390567D01*
X12951368Y14463554D01*
X12718097Y14500500D01*
X12718092Y14500500D01*
X12481908Y14500500D01*
X12481903Y14500500D01*
X12248631Y14463554D01*
X12024000Y14390566D01*
X11956294Y14356067D01*
X11887625Y14343171D01*
X11843706Y14356067D01*
X11775999Y14390566D01*
X11551368Y14463554D01*
X11318097Y14500500D01*
X11318092Y14500500D01*
X11081908Y14500500D01*
X11081903Y14500500D01*
X10848630Y14463553D01*
X10848627Y14463553D01*
X10737818Y14427548D01*
X10667977Y14425553D01*
X10608144Y14461633D01*
X10577316Y14524334D01*
X10575500Y14545479D01*
X10575500Y16408260D01*
X10541631Y16622098D01*
X10491440Y16776569D01*
X10474726Y16828009D01*
X10474724Y16828012D01*
X10474724Y16828014D01*
X10439064Y16898000D01*
X10376433Y17020919D01*
X10335596Y17077127D01*
X10249178Y17196072D01*
X10249174Y17196077D01*
X7896076Y19549175D01*
X7896071Y19549179D01*
X7720922Y19676431D01*
X7720921Y19676432D01*
X7720919Y19676433D01*
X7659115Y19707924D01*
X7528009Y19774727D01*
X7528006Y19774728D01*
X7322098Y19841630D01*
X7215175Y19858565D01*
X7108254Y19875500D01*
X7108253Y19875500D01*
X5003135Y19875500D01*
X4942645Y19891255D01*
X4348205Y20223442D01*
X4302092Y20247665D01*
X4302073Y20247673D01*
X4275743Y20257477D01*
X4275743Y20257476D01*
X4268464Y20260186D01*
X4223049Y20283909D01*
X4143974Y20306536D01*
X4139446Y20308221D01*
X4139438Y20308223D01*
X4111416Y20318656D01*
X4111415Y20318657D01*
X4111408Y20318659D01*
X4105744Y20320136D01*
X4067577Y20329297D01*
X4067573Y20329298D01*
X4067572Y20329298D01*
X4067570Y20329299D01*
X4065655Y20329637D01*
X4053141Y20332526D01*
X4027420Y20339886D01*
X4027413Y20339887D01*
X3954631Y20346358D01*
X3908037Y20350500D01*
X3908033Y20350500D01*
X3883547Y20350500D01*
X3865459Y20352584D01*
X3841830Y20350500D01*
X2091971Y20350500D01*
X2091965Y20350500D01*
X2091964Y20350499D01*
X2080316Y20349464D01*
X1972584Y20339887D01*
X1776954Y20283911D01*
X1707575Y20247670D01*
X1596593Y20189698D01*
X1596591Y20189697D01*
X1596590Y20189696D01*
X1438890Y20061110D01*
X1310304Y19903410D01*
X1310302Y19903407D01*
X1263196Y19813228D01*
X1216089Y19723046D01*
X1171332Y19566624D01*
X1166340Y19549175D01*
X1160114Y19527417D01*
X1160113Y19527414D01*
X1149500Y19408034D01*
X500500Y19408034D01*
X500500Y21049325D01*
X21161541Y21049325D01*
X21941444Y21049325D01*
X21941444Y22210996D01*
X21161541Y22210996D01*
X21161541Y21049325D01*
X500500Y21049325D01*
X500500Y21050181D01*
X2708304Y21050181D01*
X3488207Y21050181D01*
X3488207Y22258655D01*
X2708304Y22258655D01*
X2708304Y21050181D01*
X500500Y21050181D01*
X500500Y24375500D01*
X520185Y24442539D01*
X572989Y24488294D01*
X624500Y24499500D01*
X24375500Y24499500D01*
X24442539Y24479815D01*
G37*
%TD.AperFunction*%
%TA.AperFunction,Conductor*%
%TO.N,Net-(J4-Pin_1)*%
G36*
X11679696Y12904605D02*
G01*
X11687132Y12899615D01*
X11688994Y12891634D01*
X11576318Y12019807D01*
X11571859Y12012042D01*
X11564715Y12009607D01*
X10835285Y12009607D01*
X10827012Y12013034D01*
X10823682Y12019807D01*
X10785923Y12311960D01*
X10711005Y12891636D01*
X10713343Y12900278D01*
X10720301Y12904605D01*
X11197696Y13000537D01*
X11202304Y13000537D01*
X11679696Y12904605D01*
G37*
%TD.AperFunction*%
%TD*%
%TA.AperFunction,Conductor*%
%TO.N,Net-(J5-Pin_1)*%
G36*
X13022397Y13269145D02*
G01*
X13559197Y12572997D01*
X13561535Y12564353D01*
X13558205Y12557580D01*
X13042420Y12041795D01*
X13034147Y12038368D01*
X13027003Y12040803D01*
X12330855Y12577603D01*
X12326396Y12585368D01*
X12328257Y12593347D01*
X12597992Y12998753D01*
X12601247Y13002008D01*
X13006653Y13271743D01*
X13015437Y13273472D01*
X13022397Y13269145D01*
G37*
%TD.AperFunction*%
%TD*%
%TA.AperFunction,Conductor*%
%TO.N,Net-(J3-Pin_1)*%
G36*
X15372988Y13986966D02*
G01*
X15376318Y13980193D01*
X15488994Y13108367D01*
X15486656Y13099723D01*
X15479696Y13095396D01*
X15002305Y12999464D01*
X14997695Y12999464D01*
X14520303Y13095396D01*
X14512867Y13100386D01*
X14511005Y13108366D01*
X14623682Y13980193D01*
X14628141Y13987958D01*
X14635285Y13990393D01*
X15364715Y13990393D01*
X15372988Y13986966D01*
G37*
%TD.AperFunction*%
%TD*%
%TA.AperFunction,Conductor*%
%TO.N,Net-(J2-Pin_1)*%
G36*
X9572988Y13986966D02*
G01*
X9576318Y13980193D01*
X9688994Y13108367D01*
X9686656Y13099723D01*
X9679696Y13095396D01*
X9202305Y12999464D01*
X9197695Y12999464D01*
X8720303Y13095396D01*
X8712867Y13100386D01*
X8711005Y13108366D01*
X8823682Y13980193D01*
X8828141Y13987958D01*
X8835285Y13990393D01*
X9564715Y13990393D01*
X9572988Y13986966D01*
G37*
%TD.AperFunction*%
%TD*%
%TA.AperFunction,Conductor*%
%TO.N,Net-(J2-Pin_1)*%
G36*
X3857717Y19345688D02*
G01*
X4694008Y18878349D01*
X4699558Y18871322D01*
X4700000Y18868136D01*
X4700000Y18131865D01*
X4696573Y18123592D01*
X4694008Y18121652D01*
X3857719Y17654314D01*
X3848825Y17653269D01*
X3843744Y17656249D01*
X3007286Y18491724D01*
X3003855Y18499993D01*
X3007276Y18508267D01*
X3843745Y19343754D01*
X3852018Y19347174D01*
X3857717Y19345688D01*
G37*
%TD.AperFunction*%
%TD*%
%TA.AperFunction,Conductor*%
%TO.N,Net-(J3-Pin_1)*%
G36*
X20656254Y19343753D02*
G01*
X21122206Y18878349D01*
X21492712Y18508278D01*
X21496144Y18500007D01*
X21492722Y18491732D01*
X21492712Y18491722D01*
X20656256Y17656249D01*
X20647981Y17652827D01*
X20642280Y17654314D01*
X20638817Y17656249D01*
X20475022Y17747782D01*
X19805992Y18121652D01*
X19800442Y18128679D01*
X19800000Y18131865D01*
X19800000Y18868136D01*
X19803427Y18876409D01*
X19805989Y18878347D01*
X20642282Y19345688D01*
X20651174Y19346732D01*
X20656254Y19343753D01*
G37*
%TD.AperFunction*%
%TD*%
%TA.AperFunction,Conductor*%
%TO.N,Net-(J5-Pin_1)*%
G36*
X20656254Y8343753D02*
G01*
X21122206Y7878349D01*
X21492712Y7508278D01*
X21496144Y7500007D01*
X21492722Y7491732D01*
X21492712Y7491722D01*
X20656256Y6656249D01*
X20647981Y6652827D01*
X20642280Y6654314D01*
X20638817Y6656249D01*
X20475022Y6747782D01*
X19805992Y7121652D01*
X19800442Y7128679D01*
X19800000Y7131865D01*
X19800000Y7868136D01*
X19803427Y7876409D01*
X19805989Y7878347D01*
X20642282Y8345688D01*
X20651174Y8346732D01*
X20656254Y8343753D01*
G37*
%TD.AperFunction*%
%TD*%
%TA.AperFunction,Conductor*%
%TO.N,Net-(J4-Pin_1)*%
G36*
X3857717Y8345688D02*
G01*
X4694008Y7878349D01*
X4699558Y7871322D01*
X4700000Y7868136D01*
X4700000Y7131865D01*
X4696573Y7123592D01*
X4694008Y7121652D01*
X3857719Y6654314D01*
X3848825Y6653269D01*
X3843744Y6656249D01*
X3007286Y7491724D01*
X3003855Y7499993D01*
X3007276Y7508267D01*
X3843745Y8343754D01*
X3852018Y8347174D01*
X3857717Y8345688D01*
G37*
%TD.AperFunction*%
%TD*%
M02*
