%TF.GenerationSoftware,KiCad,Pcbnew,8.0.2*%
%TF.CreationDate,2024-07-24T19:31:49-06:00*%
%TF.ProjectId,Animation Platter_V1,416e696d-6174-4696-9f6e-20506c617474,rev?*%
%TF.SameCoordinates,Original*%
%TF.FileFunction,Legend,Bot*%
%TF.FilePolarity,Positive*%
%FSLAX46Y46*%
G04 Gerber Fmt 4.6, Leading zero omitted, Abs format (unit mm)*
G04 Created by KiCad (PCBNEW 8.0.2) date 2024-07-24 19:31:49*
%MOMM*%
%LPD*%
G01*
G04 APERTURE LIST*
%ADD10C,0.150000*%
%ADD11C,0.400000*%
%ADD12C,0.200000*%
%ADD13C,0.125000*%
%ADD14C,0.120000*%
%ADD15C,0.100000*%
G04 APERTURE END LIST*
D10*
X253999173Y-66899819D02*
X253874173Y-65899819D01*
X253874173Y-65899819D02*
X253630125Y-66614104D01*
X253630125Y-66614104D02*
X253207506Y-65899819D01*
X253207506Y-65899819D02*
X253332506Y-66899819D01*
X252897982Y-66852200D02*
X252761078Y-66899819D01*
X252761078Y-66899819D02*
X252522982Y-66899819D01*
X252522982Y-66899819D02*
X252421792Y-66852200D01*
X252421792Y-66852200D02*
X252368220Y-66804580D01*
X252368220Y-66804580D02*
X252308697Y-66709342D01*
X252308697Y-66709342D02*
X252296792Y-66614104D01*
X252296792Y-66614104D02*
X252332506Y-66518866D01*
X252332506Y-66518866D02*
X252374173Y-66471247D01*
X252374173Y-66471247D02*
X252463459Y-66423628D01*
X252463459Y-66423628D02*
X252647982Y-66376009D01*
X252647982Y-66376009D02*
X252737268Y-66328390D01*
X252737268Y-66328390D02*
X252778935Y-66280771D01*
X252778935Y-66280771D02*
X252814649Y-66185533D01*
X252814649Y-66185533D02*
X252802744Y-66090295D01*
X252802744Y-66090295D02*
X252743220Y-65995057D01*
X252743220Y-65995057D02*
X252689649Y-65947438D01*
X252689649Y-65947438D02*
X252588459Y-65899819D01*
X252588459Y-65899819D02*
X252350363Y-65899819D01*
X252350363Y-65899819D02*
X252213459Y-65947438D01*
X251380125Y-66899819D02*
X251951554Y-66899819D01*
X251665839Y-66899819D02*
X251540839Y-65899819D01*
X251540839Y-65899819D02*
X251653935Y-66042676D01*
X251653935Y-66042676D02*
X251761078Y-66137914D01*
X251761078Y-66137914D02*
X251862268Y-66185533D01*
X245747438Y-82443684D02*
X245699819Y-82354398D01*
X245699819Y-82354398D02*
X245699819Y-82211541D01*
X245699819Y-82211541D02*
X245747438Y-82062731D01*
X245747438Y-82062731D02*
X245842676Y-81955588D01*
X245842676Y-81955588D02*
X245937914Y-81896064D01*
X245937914Y-81896064D02*
X246128390Y-81824636D01*
X246128390Y-81824636D02*
X246271247Y-81806779D01*
X246271247Y-81806779D02*
X246461723Y-81830588D01*
X246461723Y-81830588D02*
X246556961Y-81866303D01*
X246556961Y-81866303D02*
X246652200Y-81949636D01*
X246652200Y-81949636D02*
X246699819Y-82086541D01*
X246699819Y-82086541D02*
X246699819Y-82181779D01*
X246699819Y-82181779D02*
X246652200Y-82330588D01*
X246652200Y-82330588D02*
X246604580Y-82384160D01*
X246604580Y-82384160D02*
X246271247Y-82425826D01*
X246271247Y-82425826D02*
X246271247Y-82235350D01*
X246699819Y-82800826D02*
X245699819Y-82925826D01*
X245699819Y-82925826D02*
X246699819Y-83372255D01*
X246699819Y-83372255D02*
X245699819Y-83497255D01*
X246699819Y-83848445D02*
X245699819Y-83973445D01*
X245699819Y-83973445D02*
X245699819Y-84211541D01*
X245699819Y-84211541D02*
X245747438Y-84348445D01*
X245747438Y-84348445D02*
X245842676Y-84431779D01*
X245842676Y-84431779D02*
X245937914Y-84467493D01*
X245937914Y-84467493D02*
X246128390Y-84491303D01*
X246128390Y-84491303D02*
X246271247Y-84473445D01*
X246271247Y-84473445D02*
X246461723Y-84402017D01*
X246461723Y-84402017D02*
X246556961Y-84342493D01*
X246556961Y-84342493D02*
X246652200Y-84235350D01*
X246652200Y-84235350D02*
X246699819Y-84086541D01*
X246699819Y-84086541D02*
X246699819Y-83848445D01*
X237496316Y-101357438D02*
X237585601Y-101309819D01*
X237585601Y-101309819D02*
X237728458Y-101309819D01*
X237728458Y-101309819D02*
X237877268Y-101357438D01*
X237877268Y-101357438D02*
X237984411Y-101452676D01*
X237984411Y-101452676D02*
X238043935Y-101547914D01*
X238043935Y-101547914D02*
X238115363Y-101738390D01*
X238115363Y-101738390D02*
X238133220Y-101881247D01*
X238133220Y-101881247D02*
X238109411Y-102071723D01*
X238109411Y-102071723D02*
X238073696Y-102166961D01*
X238073696Y-102166961D02*
X237990363Y-102262200D01*
X237990363Y-102262200D02*
X237853458Y-102309819D01*
X237853458Y-102309819D02*
X237758220Y-102309819D01*
X237758220Y-102309819D02*
X237609411Y-102262200D01*
X237609411Y-102262200D02*
X237555839Y-102214580D01*
X237555839Y-102214580D02*
X237514173Y-101881247D01*
X237514173Y-101881247D02*
X237704649Y-101881247D01*
X237139173Y-102309819D02*
X237014173Y-101309819D01*
X237014173Y-101309819D02*
X236567744Y-102309819D01*
X236567744Y-102309819D02*
X236442744Y-101309819D01*
X236091554Y-102309819D02*
X235966554Y-101309819D01*
X235966554Y-101309819D02*
X235728458Y-101309819D01*
X235728458Y-101309819D02*
X235591554Y-101357438D01*
X235591554Y-101357438D02*
X235508220Y-101452676D01*
X235508220Y-101452676D02*
X235472506Y-101547914D01*
X235472506Y-101547914D02*
X235448697Y-101738390D01*
X235448697Y-101738390D02*
X235466554Y-101881247D01*
X235466554Y-101881247D02*
X235537982Y-102071723D01*
X235537982Y-102071723D02*
X235597506Y-102166961D01*
X235597506Y-102166961D02*
X235704649Y-102262200D01*
X235704649Y-102262200D02*
X235853458Y-102309819D01*
X235853458Y-102309819D02*
X236091554Y-102309819D01*
X238261554Y-105058866D02*
X237499649Y-105058866D01*
X237928220Y-105439819D02*
X237832982Y-104677914D01*
X237005601Y-104535057D02*
X236952030Y-104487438D01*
X236952030Y-104487438D02*
X236850840Y-104439819D01*
X236850840Y-104439819D02*
X236612744Y-104439819D01*
X236612744Y-104439819D02*
X236523459Y-104487438D01*
X236523459Y-104487438D02*
X236481792Y-104535057D01*
X236481792Y-104535057D02*
X236446078Y-104630295D01*
X236446078Y-104630295D02*
X236457982Y-104725533D01*
X236457982Y-104725533D02*
X236523459Y-104868390D01*
X236523459Y-104868390D02*
X237166316Y-105439819D01*
X237166316Y-105439819D02*
X236547268Y-105439819D01*
X235606792Y-104773152D02*
X235690125Y-105439819D01*
X235797268Y-104392200D02*
X236124649Y-105106485D01*
X236124649Y-105106485D02*
X235505601Y-105106485D01*
X235184173Y-104439819D02*
X234975839Y-105439819D01*
X234975839Y-105439819D02*
X234517506Y-104439819D01*
X249139819Y-82110826D02*
X248139819Y-82235826D01*
X248139819Y-82235826D02*
X248139819Y-82616779D01*
X248139819Y-82616779D02*
X248187438Y-82706064D01*
X248187438Y-82706064D02*
X248235057Y-82747731D01*
X248235057Y-82747731D02*
X248330295Y-82783445D01*
X248330295Y-82783445D02*
X248473152Y-82765588D01*
X248473152Y-82765588D02*
X248568390Y-82706064D01*
X248568390Y-82706064D02*
X248616009Y-82652493D01*
X248616009Y-82652493D02*
X248663628Y-82551303D01*
X248663628Y-82551303D02*
X248663628Y-82170350D01*
X249139819Y-83110826D02*
X248139819Y-83235826D01*
X249139819Y-83587016D02*
X248139819Y-83712016D01*
X248139819Y-83712016D02*
X249139819Y-84158445D01*
X249139819Y-84158445D02*
X248139819Y-84283445D01*
D11*
X249625890Y-96641104D02*
X249875890Y-98641104D01*
X249637795Y-96736342D02*
X249435414Y-96641104D01*
X249435414Y-96641104D02*
X249054462Y-96641104D01*
X249054462Y-96641104D02*
X248875890Y-96736342D01*
X248875890Y-96736342D02*
X248792557Y-96831580D01*
X248792557Y-96831580D02*
X248721128Y-97022057D01*
X248721128Y-97022057D02*
X248792557Y-97593485D01*
X248792557Y-97593485D02*
X248911604Y-97783961D01*
X248911604Y-97783961D02*
X249018747Y-97879200D01*
X249018747Y-97879200D02*
X249221128Y-97974438D01*
X249221128Y-97974438D02*
X249602081Y-97974438D01*
X249602081Y-97974438D02*
X249780652Y-97879200D01*
X247697319Y-97974438D02*
X247875890Y-97879200D01*
X247875890Y-97879200D02*
X247959223Y-97783961D01*
X247959223Y-97783961D02*
X248030652Y-97593485D01*
X248030652Y-97593485D02*
X247959223Y-97022057D01*
X247959223Y-97022057D02*
X247840176Y-96831580D01*
X247840176Y-96831580D02*
X247733033Y-96736342D01*
X247733033Y-96736342D02*
X247530652Y-96641104D01*
X247530652Y-96641104D02*
X247244938Y-96641104D01*
X247244938Y-96641104D02*
X247066366Y-96736342D01*
X247066366Y-96736342D02*
X246983033Y-96831580D01*
X246983033Y-96831580D02*
X246911604Y-97022057D01*
X246911604Y-97022057D02*
X246983033Y-97593485D01*
X246983033Y-97593485D02*
X247102080Y-97783961D01*
X247102080Y-97783961D02*
X247209223Y-97879200D01*
X247209223Y-97879200D02*
X247411604Y-97974438D01*
X247411604Y-97974438D02*
X247697319Y-97974438D01*
X246197318Y-96641104D02*
X245983033Y-97974438D01*
X245983033Y-97974438D02*
X245483033Y-97022057D01*
X245483033Y-97022057D02*
X245221128Y-97974438D01*
X245221128Y-97974438D02*
X244673509Y-96641104D01*
X243304461Y-97879200D02*
X243506842Y-97974438D01*
X243506842Y-97974438D02*
X243887795Y-97974438D01*
X243887795Y-97974438D02*
X244066366Y-97879200D01*
X244066366Y-97879200D02*
X244137795Y-97688723D01*
X244137795Y-97688723D02*
X244042557Y-96926819D01*
X244042557Y-96926819D02*
X243923509Y-96736342D01*
X243923509Y-96736342D02*
X243721128Y-96641104D01*
X243721128Y-96641104D02*
X243340176Y-96641104D01*
X243340176Y-96641104D02*
X243161604Y-96736342D01*
X243161604Y-96736342D02*
X243090176Y-96926819D01*
X243090176Y-96926819D02*
X243113985Y-97117295D01*
X243113985Y-97117295D02*
X244090176Y-97307771D01*
X242363985Y-97974438D02*
X242197318Y-96641104D01*
X242244937Y-97022057D02*
X242125890Y-96831580D01*
X242125890Y-96831580D02*
X242018747Y-96736342D01*
X242018747Y-96736342D02*
X241816366Y-96641104D01*
X241816366Y-96641104D02*
X241625890Y-96641104D01*
D10*
X109409819Y-84250826D02*
X108409819Y-84375826D01*
X108409819Y-84375826D02*
X108409819Y-84613922D01*
X108409819Y-84613922D02*
X108457438Y-84750826D01*
X108457438Y-84750826D02*
X108552676Y-84834160D01*
X108552676Y-84834160D02*
X108647914Y-84869874D01*
X108647914Y-84869874D02*
X108838390Y-84893684D01*
X108838390Y-84893684D02*
X108981247Y-84875826D01*
X108981247Y-84875826D02*
X109171723Y-84804398D01*
X109171723Y-84804398D02*
X109266961Y-84744874D01*
X109266961Y-84744874D02*
X109362200Y-84637731D01*
X109362200Y-84637731D02*
X109409819Y-84488922D01*
X109409819Y-84488922D02*
X109409819Y-84250826D01*
X109124104Y-85238922D02*
X109124104Y-85715112D01*
X109409819Y-85107969D02*
X108409819Y-85566303D01*
X108409819Y-85566303D02*
X109409819Y-85774636D01*
X108409819Y-86090112D02*
X108409819Y-86661541D01*
X109409819Y-86250827D02*
X108409819Y-86375827D01*
X109124104Y-86857970D02*
X109124104Y-87334160D01*
X109409819Y-86727017D02*
X108409819Y-87185351D01*
X108409819Y-87185351D02*
X109409819Y-87393684D01*
X92277438Y-85903684D02*
X92229819Y-85814398D01*
X92229819Y-85814398D02*
X92229819Y-85671541D01*
X92229819Y-85671541D02*
X92277438Y-85522731D01*
X92277438Y-85522731D02*
X92372676Y-85415588D01*
X92372676Y-85415588D02*
X92467914Y-85356064D01*
X92467914Y-85356064D02*
X92658390Y-85284636D01*
X92658390Y-85284636D02*
X92801247Y-85266779D01*
X92801247Y-85266779D02*
X92991723Y-85290588D01*
X92991723Y-85290588D02*
X93086961Y-85326303D01*
X93086961Y-85326303D02*
X93182200Y-85409636D01*
X93182200Y-85409636D02*
X93229819Y-85546541D01*
X93229819Y-85546541D02*
X93229819Y-85641779D01*
X93229819Y-85641779D02*
X93182200Y-85790588D01*
X93182200Y-85790588D02*
X93134580Y-85844160D01*
X93134580Y-85844160D02*
X92801247Y-85885826D01*
X92801247Y-85885826D02*
X92801247Y-85695350D01*
X93229819Y-86260826D02*
X92229819Y-86385826D01*
X92229819Y-86385826D02*
X93229819Y-86832255D01*
X93229819Y-86832255D02*
X92229819Y-86957255D01*
X93229819Y-87308445D02*
X92229819Y-87433445D01*
X92229819Y-87433445D02*
X92229819Y-87671541D01*
X92229819Y-87671541D02*
X92277438Y-87808445D01*
X92277438Y-87808445D02*
X92372676Y-87891779D01*
X92372676Y-87891779D02*
X92467914Y-87927493D01*
X92467914Y-87927493D02*
X92658390Y-87951303D01*
X92658390Y-87951303D02*
X92801247Y-87933445D01*
X92801247Y-87933445D02*
X92991723Y-87862017D01*
X92991723Y-87862017D02*
X93086961Y-87802493D01*
X93086961Y-87802493D02*
X93182200Y-87695350D01*
X93182200Y-87695350D02*
X93229819Y-87546541D01*
X93229819Y-87546541D02*
X93229819Y-87308445D01*
X138817438Y-96113684D02*
X138769819Y-96024398D01*
X138769819Y-96024398D02*
X138769819Y-95881541D01*
X138769819Y-95881541D02*
X138817438Y-95732731D01*
X138817438Y-95732731D02*
X138912676Y-95625588D01*
X138912676Y-95625588D02*
X139007914Y-95566064D01*
X139007914Y-95566064D02*
X139198390Y-95494636D01*
X139198390Y-95494636D02*
X139341247Y-95476779D01*
X139341247Y-95476779D02*
X139531723Y-95500588D01*
X139531723Y-95500588D02*
X139626961Y-95536303D01*
X139626961Y-95536303D02*
X139722200Y-95619636D01*
X139722200Y-95619636D02*
X139769819Y-95756541D01*
X139769819Y-95756541D02*
X139769819Y-95851779D01*
X139769819Y-95851779D02*
X139722200Y-96000588D01*
X139722200Y-96000588D02*
X139674580Y-96054160D01*
X139674580Y-96054160D02*
X139341247Y-96095826D01*
X139341247Y-96095826D02*
X139341247Y-95905350D01*
X139769819Y-96470826D02*
X138769819Y-96595826D01*
X138769819Y-96595826D02*
X139769819Y-97042255D01*
X139769819Y-97042255D02*
X138769819Y-97167255D01*
X139769819Y-97518445D02*
X138769819Y-97643445D01*
X138769819Y-97643445D02*
X138769819Y-97881541D01*
X138769819Y-97881541D02*
X138817438Y-98018445D01*
X138817438Y-98018445D02*
X138912676Y-98101779D01*
X138912676Y-98101779D02*
X139007914Y-98137493D01*
X139007914Y-98137493D02*
X139198390Y-98161303D01*
X139198390Y-98161303D02*
X139341247Y-98143445D01*
X139341247Y-98143445D02*
X139531723Y-98072017D01*
X139531723Y-98072017D02*
X139626961Y-98012493D01*
X139626961Y-98012493D02*
X139722200Y-97905350D01*
X139722200Y-97905350D02*
X139769819Y-97756541D01*
X139769819Y-97756541D02*
X139769819Y-97518445D01*
X253890839Y-69632200D02*
X253801554Y-69679819D01*
X253801554Y-69679819D02*
X253611077Y-69679819D01*
X253611077Y-69679819D02*
X253509887Y-69632200D01*
X253509887Y-69632200D02*
X253450363Y-69536961D01*
X253450363Y-69536961D02*
X253444411Y-69489342D01*
X253444411Y-69489342D02*
X253480125Y-69394104D01*
X253480125Y-69394104D02*
X253569411Y-69346485D01*
X253569411Y-69346485D02*
X253712268Y-69346485D01*
X253712268Y-69346485D02*
X253801554Y-69298866D01*
X253801554Y-69298866D02*
X253837268Y-69203628D01*
X253837268Y-69203628D02*
X253831316Y-69156009D01*
X253831316Y-69156009D02*
X253771792Y-69060771D01*
X253771792Y-69060771D02*
X253670601Y-69013152D01*
X253670601Y-69013152D02*
X253527744Y-69013152D01*
X253527744Y-69013152D02*
X253438458Y-69060771D01*
X252956315Y-69013152D02*
X253081315Y-70013152D01*
X252962268Y-69060771D02*
X252861077Y-69013152D01*
X252861077Y-69013152D02*
X252670601Y-69013152D01*
X252670601Y-69013152D02*
X252581315Y-69060771D01*
X252581315Y-69060771D02*
X252539649Y-69108390D01*
X252539649Y-69108390D02*
X252503934Y-69203628D01*
X252503934Y-69203628D02*
X252539649Y-69489342D01*
X252539649Y-69489342D02*
X252599172Y-69584580D01*
X252599172Y-69584580D02*
X252652744Y-69632200D01*
X252652744Y-69632200D02*
X252753934Y-69679819D01*
X252753934Y-69679819D02*
X252944411Y-69679819D01*
X252944411Y-69679819D02*
X253033696Y-69632200D01*
X252134887Y-69679819D02*
X252051553Y-69013152D01*
X252075363Y-69203628D02*
X252015839Y-69108390D01*
X252015839Y-69108390D02*
X251962268Y-69060771D01*
X251962268Y-69060771D02*
X251861077Y-69013152D01*
X251861077Y-69013152D02*
X251765839Y-69013152D01*
X251128934Y-69632200D02*
X251230124Y-69679819D01*
X251230124Y-69679819D02*
X251420601Y-69679819D01*
X251420601Y-69679819D02*
X251509886Y-69632200D01*
X251509886Y-69632200D02*
X251545601Y-69536961D01*
X251545601Y-69536961D02*
X251497982Y-69156009D01*
X251497982Y-69156009D02*
X251438458Y-69060771D01*
X251438458Y-69060771D02*
X251337267Y-69013152D01*
X251337267Y-69013152D02*
X251146791Y-69013152D01*
X251146791Y-69013152D02*
X251057505Y-69060771D01*
X251057505Y-69060771D02*
X251021791Y-69156009D01*
X251021791Y-69156009D02*
X251033696Y-69251247D01*
X251033696Y-69251247D02*
X251521791Y-69346485D01*
X250230124Y-69679819D02*
X250164648Y-69156009D01*
X250164648Y-69156009D02*
X250200362Y-69060771D01*
X250200362Y-69060771D02*
X250289648Y-69013152D01*
X250289648Y-69013152D02*
X250480124Y-69013152D01*
X250480124Y-69013152D02*
X250581315Y-69060771D01*
X250224172Y-69632200D02*
X250325362Y-69679819D01*
X250325362Y-69679819D02*
X250563458Y-69679819D01*
X250563458Y-69679819D02*
X250652743Y-69632200D01*
X250652743Y-69632200D02*
X250688458Y-69536961D01*
X250688458Y-69536961D02*
X250676553Y-69441723D01*
X250676553Y-69441723D02*
X250617029Y-69346485D01*
X250617029Y-69346485D02*
X250515839Y-69298866D01*
X250515839Y-69298866D02*
X250277743Y-69298866D01*
X250277743Y-69298866D02*
X250176553Y-69251247D01*
X249325362Y-69679819D02*
X249200362Y-68679819D01*
X249319410Y-69632200D02*
X249420600Y-69679819D01*
X249420600Y-69679819D02*
X249611077Y-69679819D01*
X249611077Y-69679819D02*
X249700362Y-69632200D01*
X249700362Y-69632200D02*
X249742029Y-69584580D01*
X249742029Y-69584580D02*
X249777743Y-69489342D01*
X249777743Y-69489342D02*
X249742029Y-69203628D01*
X249742029Y-69203628D02*
X249682505Y-69108390D01*
X249682505Y-69108390D02*
X249628934Y-69060771D01*
X249628934Y-69060771D02*
X249527743Y-69013152D01*
X249527743Y-69013152D02*
X249337267Y-69013152D01*
X249337267Y-69013152D02*
X249247981Y-69060771D01*
D11*
X99654438Y-69657442D02*
X97654438Y-69907442D01*
X98606819Y-69788395D02*
X98606819Y-70931252D01*
X99654438Y-70800299D02*
X97654438Y-71050299D01*
X99654438Y-72609823D02*
X98606819Y-72740775D01*
X98606819Y-72740775D02*
X98416342Y-72669347D01*
X98416342Y-72669347D02*
X98321104Y-72490775D01*
X98321104Y-72490775D02*
X98321104Y-72109823D01*
X98321104Y-72109823D02*
X98416342Y-71907442D01*
X99559200Y-72621728D02*
X99654438Y-72419347D01*
X99654438Y-72419347D02*
X99654438Y-71943156D01*
X99654438Y-71943156D02*
X99559200Y-71764585D01*
X99559200Y-71764585D02*
X99368723Y-71693156D01*
X99368723Y-71693156D02*
X99178247Y-71716966D01*
X99178247Y-71716966D02*
X98987771Y-71836014D01*
X98987771Y-71836014D02*
X98892533Y-72038395D01*
X98892533Y-72038395D02*
X98892533Y-72514585D01*
X98892533Y-72514585D02*
X98797295Y-72716966D01*
X99654438Y-73847919D02*
X99559200Y-73669347D01*
X99559200Y-73669347D02*
X99368723Y-73597919D01*
X99368723Y-73597919D02*
X97654438Y-73812204D01*
X99654438Y-74895538D02*
X99559200Y-74716966D01*
X99559200Y-74716966D02*
X99368723Y-74645538D01*
X99368723Y-74645538D02*
X97654438Y-74859823D01*
X99559200Y-77097919D02*
X99654438Y-77371728D01*
X99654438Y-77371728D02*
X99654438Y-77847919D01*
X99654438Y-77847919D02*
X99559200Y-78050300D01*
X99559200Y-78050300D02*
X99463961Y-78157443D01*
X99463961Y-78157443D02*
X99273485Y-78276490D01*
X99273485Y-78276490D02*
X99083009Y-78300300D01*
X99083009Y-78300300D02*
X98892533Y-78228871D01*
X98892533Y-78228871D02*
X98797295Y-78145538D01*
X98797295Y-78145538D02*
X98702057Y-77966967D01*
X98702057Y-77966967D02*
X98606819Y-77597919D01*
X98606819Y-77597919D02*
X98511580Y-77419347D01*
X98511580Y-77419347D02*
X98416342Y-77336014D01*
X98416342Y-77336014D02*
X98225866Y-77264586D01*
X98225866Y-77264586D02*
X98035390Y-77288395D01*
X98035390Y-77288395D02*
X97844914Y-77407443D01*
X97844914Y-77407443D02*
X97749676Y-77514586D01*
X97749676Y-77514586D02*
X97654438Y-77716967D01*
X97654438Y-77716967D02*
X97654438Y-78193157D01*
X97654438Y-78193157D02*
X97749676Y-78466967D01*
X99559200Y-79859824D02*
X99654438Y-79657443D01*
X99654438Y-79657443D02*
X99654438Y-79276490D01*
X99654438Y-79276490D02*
X99559200Y-79097919D01*
X99559200Y-79097919D02*
X99368723Y-79026490D01*
X99368723Y-79026490D02*
X98606819Y-79121729D01*
X98606819Y-79121729D02*
X98416342Y-79240776D01*
X98416342Y-79240776D02*
X98321104Y-79443157D01*
X98321104Y-79443157D02*
X98321104Y-79824109D01*
X98321104Y-79824109D02*
X98416342Y-80002681D01*
X98416342Y-80002681D02*
X98606819Y-80074109D01*
X98606819Y-80074109D02*
X98797295Y-80050300D01*
X98797295Y-80050300D02*
X98987771Y-79074109D01*
X98321104Y-80966967D02*
X99654438Y-80800300D01*
X98511580Y-80943157D02*
X98416342Y-81050300D01*
X98416342Y-81050300D02*
X98321104Y-81252681D01*
X98321104Y-81252681D02*
X98321104Y-81538395D01*
X98321104Y-81538395D02*
X98416342Y-81716967D01*
X98416342Y-81716967D02*
X98606819Y-81788395D01*
X98606819Y-81788395D02*
X99654438Y-81657443D01*
X99559200Y-82526491D02*
X99654438Y-82705062D01*
X99654438Y-82705062D02*
X99654438Y-83086015D01*
X99654438Y-83086015D02*
X99559200Y-83288396D01*
X99559200Y-83288396D02*
X99368723Y-83407443D01*
X99368723Y-83407443D02*
X99273485Y-83419348D01*
X99273485Y-83419348D02*
X99083009Y-83347919D01*
X99083009Y-83347919D02*
X98987771Y-83169348D01*
X98987771Y-83169348D02*
X98987771Y-82883634D01*
X98987771Y-82883634D02*
X98892533Y-82705062D01*
X98892533Y-82705062D02*
X98702057Y-82633634D01*
X98702057Y-82633634D02*
X98606819Y-82645539D01*
X98606819Y-82645539D02*
X98416342Y-82764586D01*
X98416342Y-82764586D02*
X98321104Y-82966967D01*
X98321104Y-82966967D02*
X98321104Y-83252681D01*
X98321104Y-83252681D02*
X98416342Y-83431253D01*
X99654438Y-84514587D02*
X99559200Y-84336015D01*
X99559200Y-84336015D02*
X99463961Y-84252682D01*
X99463961Y-84252682D02*
X99273485Y-84181253D01*
X99273485Y-84181253D02*
X98702057Y-84252682D01*
X98702057Y-84252682D02*
X98511580Y-84371729D01*
X98511580Y-84371729D02*
X98416342Y-84478872D01*
X98416342Y-84478872D02*
X98321104Y-84681253D01*
X98321104Y-84681253D02*
X98321104Y-84966967D01*
X98321104Y-84966967D02*
X98416342Y-85145539D01*
X98416342Y-85145539D02*
X98511580Y-85228872D01*
X98511580Y-85228872D02*
X98702057Y-85300301D01*
X98702057Y-85300301D02*
X99273485Y-85228872D01*
X99273485Y-85228872D02*
X99463961Y-85109825D01*
X99463961Y-85109825D02*
X99559200Y-85002682D01*
X99559200Y-85002682D02*
X99654438Y-84800301D01*
X99654438Y-84800301D02*
X99654438Y-84514587D01*
X99654438Y-86038396D02*
X98321104Y-86205063D01*
X98702057Y-86157444D02*
X98511580Y-86276491D01*
X98511580Y-86276491D02*
X98416342Y-86383634D01*
X98416342Y-86383634D02*
X98321104Y-86586015D01*
X98321104Y-86586015D02*
X98321104Y-86776491D01*
D10*
X95238866Y-84408445D02*
X95238866Y-85170350D01*
X95619819Y-84741779D02*
X94857914Y-84837017D01*
X95619819Y-86122731D02*
X95619819Y-85551302D01*
X95619819Y-85837017D02*
X94619819Y-85962017D01*
X94619819Y-85962017D02*
X94762676Y-85848921D01*
X94762676Y-85848921D02*
X94857914Y-85741779D01*
X94857914Y-85741779D02*
X94905533Y-85640588D01*
X94715057Y-86616779D02*
X94667438Y-86670350D01*
X94667438Y-86670350D02*
X94619819Y-86771540D01*
X94619819Y-86771540D02*
X94619819Y-87009636D01*
X94619819Y-87009636D02*
X94667438Y-87098921D01*
X94667438Y-87098921D02*
X94715057Y-87140588D01*
X94715057Y-87140588D02*
X94810295Y-87176302D01*
X94810295Y-87176302D02*
X94905533Y-87164398D01*
X94905533Y-87164398D02*
X95048390Y-87098921D01*
X95048390Y-87098921D02*
X95619819Y-86456064D01*
X95619819Y-86456064D02*
X95619819Y-87075112D01*
X94619819Y-87485826D02*
X95619819Y-87694160D01*
X95619819Y-87694160D02*
X94619819Y-88152493D01*
D12*
X219469684Y-86477292D02*
X219541112Y-86611220D01*
X219541112Y-86611220D02*
X219541112Y-86896935D01*
X219541112Y-86896935D02*
X219469684Y-87048720D01*
X219469684Y-87048720D02*
X219326826Y-87138006D01*
X219326826Y-87138006D02*
X219255398Y-87146935D01*
X219255398Y-87146935D02*
X219112541Y-87093363D01*
X219112541Y-87093363D02*
X219041112Y-86959435D01*
X219041112Y-86959435D02*
X219041112Y-86745149D01*
X219041112Y-86745149D02*
X218969684Y-86611220D01*
X218969684Y-86611220D02*
X218826826Y-86557649D01*
X218826826Y-86557649D02*
X218755398Y-86566578D01*
X218755398Y-86566578D02*
X218612541Y-86655863D01*
X218612541Y-86655863D02*
X218541112Y-86807649D01*
X218541112Y-86807649D02*
X218541112Y-87021935D01*
X218541112Y-87021935D02*
X218612541Y-87155863D01*
X218541112Y-87664792D02*
X218541112Y-88236221D01*
X218041112Y-87941578D02*
X219326826Y-87780864D01*
X219326826Y-87780864D02*
X219469684Y-87834435D01*
X219469684Y-87834435D02*
X219541112Y-87968364D01*
X219541112Y-87968364D02*
X219541112Y-88111221D01*
X219469684Y-89191578D02*
X219541112Y-89039792D01*
X219541112Y-89039792D02*
X219541112Y-88754078D01*
X219541112Y-88754078D02*
X219469684Y-88620149D01*
X219469684Y-88620149D02*
X219326826Y-88566578D01*
X219326826Y-88566578D02*
X218755398Y-88638007D01*
X218755398Y-88638007D02*
X218612541Y-88727292D01*
X218612541Y-88727292D02*
X218541112Y-88879078D01*
X218541112Y-88879078D02*
X218541112Y-89164792D01*
X218541112Y-89164792D02*
X218612541Y-89298721D01*
X218612541Y-89298721D02*
X218755398Y-89352292D01*
X218755398Y-89352292D02*
X218898255Y-89334435D01*
X218898255Y-89334435D02*
X219041112Y-88602292D01*
X218541112Y-90021935D02*
X220041112Y-89834435D01*
X218612541Y-90013006D02*
X218541112Y-90164792D01*
X218541112Y-90164792D02*
X218541112Y-90450506D01*
X218541112Y-90450506D02*
X218612541Y-90584435D01*
X218612541Y-90584435D02*
X218683969Y-90646935D01*
X218683969Y-90646935D02*
X218826826Y-90700506D01*
X218826826Y-90700506D02*
X219255398Y-90646935D01*
X219255398Y-90646935D02*
X219398255Y-90557649D01*
X219398255Y-90557649D02*
X219469684Y-90477292D01*
X219469684Y-90477292D02*
X219541112Y-90325506D01*
X219541112Y-90325506D02*
X219541112Y-90039792D01*
X219541112Y-90039792D02*
X219469684Y-89905863D01*
X218541112Y-91379078D02*
X220041112Y-91191578D01*
X218612541Y-91370149D02*
X218541112Y-91521935D01*
X218541112Y-91521935D02*
X218541112Y-91807649D01*
X218541112Y-91807649D02*
X218612541Y-91941578D01*
X218612541Y-91941578D02*
X218683969Y-92004078D01*
X218683969Y-92004078D02*
X218826826Y-92057649D01*
X218826826Y-92057649D02*
X219255398Y-92004078D01*
X219255398Y-92004078D02*
X219398255Y-91914792D01*
X219398255Y-91914792D02*
X219469684Y-91834435D01*
X219469684Y-91834435D02*
X219541112Y-91682649D01*
X219541112Y-91682649D02*
X219541112Y-91396935D01*
X219541112Y-91396935D02*
X219469684Y-91263006D01*
X219469684Y-93191578D02*
X219541112Y-93039792D01*
X219541112Y-93039792D02*
X219541112Y-92754078D01*
X219541112Y-92754078D02*
X219469684Y-92620149D01*
X219469684Y-92620149D02*
X219326826Y-92566578D01*
X219326826Y-92566578D02*
X218755398Y-92638007D01*
X218755398Y-92638007D02*
X218612541Y-92727292D01*
X218612541Y-92727292D02*
X218541112Y-92879078D01*
X218541112Y-92879078D02*
X218541112Y-93164792D01*
X218541112Y-93164792D02*
X218612541Y-93298721D01*
X218612541Y-93298721D02*
X218755398Y-93352292D01*
X218755398Y-93352292D02*
X218898255Y-93334435D01*
X218898255Y-93334435D02*
X219041112Y-92602292D01*
X219541112Y-93896935D02*
X218541112Y-94021935D01*
X218826826Y-93986221D02*
X218683969Y-94075506D01*
X218683969Y-94075506D02*
X218612541Y-94155863D01*
X218612541Y-94155863D02*
X218541112Y-94307649D01*
X218541112Y-94307649D02*
X218541112Y-94450506D01*
X221956028Y-86539792D02*
X220956028Y-86664792D01*
X221098885Y-86646935D02*
X221027457Y-86727292D01*
X221027457Y-86727292D02*
X220956028Y-86879078D01*
X220956028Y-86879078D02*
X220956028Y-87093363D01*
X220956028Y-87093363D02*
X221027457Y-87227292D01*
X221027457Y-87227292D02*
X221170314Y-87280863D01*
X221170314Y-87280863D02*
X221956028Y-87182649D01*
X221170314Y-87280863D02*
X221027457Y-87370149D01*
X221027457Y-87370149D02*
X220956028Y-87521935D01*
X220956028Y-87521935D02*
X220956028Y-87736220D01*
X220956028Y-87736220D02*
X221027457Y-87870149D01*
X221027457Y-87870149D02*
X221170314Y-87923720D01*
X221170314Y-87923720D02*
X221956028Y-87825506D01*
X221956028Y-88754078D02*
X221884600Y-88620149D01*
X221884600Y-88620149D02*
X221813171Y-88557649D01*
X221813171Y-88557649D02*
X221670314Y-88504078D01*
X221670314Y-88504078D02*
X221241742Y-88557649D01*
X221241742Y-88557649D02*
X221098885Y-88646935D01*
X221098885Y-88646935D02*
X221027457Y-88727292D01*
X221027457Y-88727292D02*
X220956028Y-88879078D01*
X220956028Y-88879078D02*
X220956028Y-89093363D01*
X220956028Y-89093363D02*
X221027457Y-89227292D01*
X221027457Y-89227292D02*
X221098885Y-89289792D01*
X221098885Y-89289792D02*
X221241742Y-89343363D01*
X221241742Y-89343363D02*
X221670314Y-89289792D01*
X221670314Y-89289792D02*
X221813171Y-89200506D01*
X221813171Y-89200506D02*
X221884600Y-89120149D01*
X221884600Y-89120149D02*
X221956028Y-88968363D01*
X221956028Y-88968363D02*
X221956028Y-88754078D01*
X220956028Y-89807649D02*
X220956028Y-90379078D01*
X220456028Y-90084435D02*
X221741742Y-89923721D01*
X221741742Y-89923721D02*
X221884600Y-89977292D01*
X221884600Y-89977292D02*
X221956028Y-90111221D01*
X221956028Y-90111221D02*
X221956028Y-90254078D01*
X221956028Y-90968364D02*
X221884600Y-90834435D01*
X221884600Y-90834435D02*
X221813171Y-90771935D01*
X221813171Y-90771935D02*
X221670314Y-90718364D01*
X221670314Y-90718364D02*
X221241742Y-90771935D01*
X221241742Y-90771935D02*
X221098885Y-90861221D01*
X221098885Y-90861221D02*
X221027457Y-90941578D01*
X221027457Y-90941578D02*
X220956028Y-91093364D01*
X220956028Y-91093364D02*
X220956028Y-91307649D01*
X220956028Y-91307649D02*
X221027457Y-91441578D01*
X221027457Y-91441578D02*
X221098885Y-91504078D01*
X221098885Y-91504078D02*
X221241742Y-91557649D01*
X221241742Y-91557649D02*
X221670314Y-91504078D01*
X221670314Y-91504078D02*
X221813171Y-91414792D01*
X221813171Y-91414792D02*
X221884600Y-91334435D01*
X221884600Y-91334435D02*
X221956028Y-91182649D01*
X221956028Y-91182649D02*
X221956028Y-90968364D01*
X221956028Y-92111221D02*
X220956028Y-92236221D01*
X221241742Y-92200507D02*
X221098885Y-92289792D01*
X221098885Y-92289792D02*
X221027457Y-92370149D01*
X221027457Y-92370149D02*
X220956028Y-92521935D01*
X220956028Y-92521935D02*
X220956028Y-92664792D01*
D11*
X192042557Y-95434438D02*
X191792557Y-93434438D01*
X191792557Y-93434438D02*
X190899700Y-95434438D01*
X190899700Y-95434438D02*
X190649700Y-93434438D01*
X189173509Y-95339200D02*
X189375890Y-95434438D01*
X189375890Y-95434438D02*
X189756843Y-95434438D01*
X189756843Y-95434438D02*
X189935414Y-95339200D01*
X189935414Y-95339200D02*
X190006843Y-95148723D01*
X190006843Y-95148723D02*
X189911605Y-94386819D01*
X189911605Y-94386819D02*
X189792557Y-94196342D01*
X189792557Y-94196342D02*
X189590176Y-94101104D01*
X189590176Y-94101104D02*
X189209224Y-94101104D01*
X189209224Y-94101104D02*
X189030652Y-94196342D01*
X189030652Y-94196342D02*
X188959224Y-94386819D01*
X188959224Y-94386819D02*
X188983033Y-94577295D01*
X188983033Y-94577295D02*
X189959224Y-94767771D01*
X187947319Y-95434438D02*
X188125890Y-95339200D01*
X188125890Y-95339200D02*
X188209223Y-95243961D01*
X188209223Y-95243961D02*
X188280652Y-95053485D01*
X188280652Y-95053485D02*
X188209223Y-94482057D01*
X188209223Y-94482057D02*
X188090176Y-94291580D01*
X188090176Y-94291580D02*
X187983033Y-94196342D01*
X187983033Y-94196342D02*
X187780652Y-94101104D01*
X187780652Y-94101104D02*
X187494938Y-94101104D01*
X187494938Y-94101104D02*
X187316366Y-94196342D01*
X187316366Y-94196342D02*
X187233033Y-94291580D01*
X187233033Y-94291580D02*
X187161604Y-94482057D01*
X187161604Y-94482057D02*
X187233033Y-95053485D01*
X187233033Y-95053485D02*
X187352080Y-95243961D01*
X187352080Y-95243961D02*
X187459223Y-95339200D01*
X187459223Y-95339200D02*
X187661604Y-95434438D01*
X187661604Y-95434438D02*
X187947319Y-95434438D01*
X186256842Y-94101104D02*
X186506842Y-96101104D01*
X186268747Y-94196342D02*
X186066366Y-94101104D01*
X186066366Y-94101104D02*
X185685414Y-94101104D01*
X185685414Y-94101104D02*
X185506842Y-94196342D01*
X185506842Y-94196342D02*
X185423509Y-94291580D01*
X185423509Y-94291580D02*
X185352080Y-94482057D01*
X185352080Y-94482057D02*
X185423509Y-95053485D01*
X185423509Y-95053485D02*
X185542556Y-95243961D01*
X185542556Y-95243961D02*
X185649699Y-95339200D01*
X185649699Y-95339200D02*
X185852080Y-95434438D01*
X185852080Y-95434438D02*
X186233033Y-95434438D01*
X186233033Y-95434438D02*
X186411604Y-95339200D01*
X184613985Y-95434438D02*
X184447318Y-94101104D01*
X184363985Y-93434438D02*
X184471128Y-93529676D01*
X184471128Y-93529676D02*
X184387794Y-93624914D01*
X184387794Y-93624914D02*
X184280651Y-93529676D01*
X184280651Y-93529676D02*
X184363985Y-93434438D01*
X184363985Y-93434438D02*
X184387794Y-93624914D01*
X183852080Y-95434438D02*
X182637794Y-94101104D01*
X183685413Y-94101104D02*
X182804461Y-95434438D01*
X181268746Y-95339200D02*
X181471127Y-95434438D01*
X181471127Y-95434438D02*
X181852080Y-95434438D01*
X181852080Y-95434438D02*
X182030651Y-95339200D01*
X182030651Y-95339200D02*
X182102080Y-95148723D01*
X182102080Y-95148723D02*
X182006842Y-94386819D01*
X182006842Y-94386819D02*
X181887794Y-94196342D01*
X181887794Y-94196342D02*
X181685413Y-94101104D01*
X181685413Y-94101104D02*
X181304461Y-94101104D01*
X181304461Y-94101104D02*
X181125889Y-94196342D01*
X181125889Y-94196342D02*
X181054461Y-94386819D01*
X181054461Y-94386819D02*
X181078270Y-94577295D01*
X181078270Y-94577295D02*
X182054461Y-94767771D01*
X180042556Y-95434438D02*
X180221127Y-95339200D01*
X180221127Y-95339200D02*
X180292556Y-95148723D01*
X180292556Y-95148723D02*
X180078270Y-93434438D01*
D10*
X178216316Y-99277438D02*
X178305601Y-99229819D01*
X178305601Y-99229819D02*
X178448458Y-99229819D01*
X178448458Y-99229819D02*
X178597268Y-99277438D01*
X178597268Y-99277438D02*
X178704411Y-99372676D01*
X178704411Y-99372676D02*
X178763935Y-99467914D01*
X178763935Y-99467914D02*
X178835363Y-99658390D01*
X178835363Y-99658390D02*
X178853220Y-99801247D01*
X178853220Y-99801247D02*
X178829411Y-99991723D01*
X178829411Y-99991723D02*
X178793696Y-100086961D01*
X178793696Y-100086961D02*
X178710363Y-100182200D01*
X178710363Y-100182200D02*
X178573458Y-100229819D01*
X178573458Y-100229819D02*
X178478220Y-100229819D01*
X178478220Y-100229819D02*
X178329411Y-100182200D01*
X178329411Y-100182200D02*
X178275839Y-100134580D01*
X178275839Y-100134580D02*
X178234173Y-99801247D01*
X178234173Y-99801247D02*
X178424649Y-99801247D01*
X177859173Y-100229819D02*
X177734173Y-99229819D01*
X177734173Y-99229819D02*
X177287744Y-100229819D01*
X177287744Y-100229819D02*
X177162744Y-99229819D01*
X176811554Y-100229819D02*
X176686554Y-99229819D01*
X176686554Y-99229819D02*
X176448458Y-99229819D01*
X176448458Y-99229819D02*
X176311554Y-99277438D01*
X176311554Y-99277438D02*
X176228220Y-99372676D01*
X176228220Y-99372676D02*
X176192506Y-99467914D01*
X176192506Y-99467914D02*
X176168697Y-99658390D01*
X176168697Y-99658390D02*
X176186554Y-99801247D01*
X176186554Y-99801247D02*
X176257982Y-99991723D01*
X176257982Y-99991723D02*
X176317506Y-100086961D01*
X176317506Y-100086961D02*
X176424649Y-100182200D01*
X176424649Y-100182200D02*
X176573458Y-100229819D01*
X176573458Y-100229819D02*
X176811554Y-100229819D01*
X178631554Y-97768866D02*
X177869649Y-97768866D01*
X178298220Y-98149819D02*
X178202982Y-97387914D01*
X176839887Y-97149819D02*
X177316078Y-97149819D01*
X177316078Y-97149819D02*
X177423221Y-97626009D01*
X177423221Y-97626009D02*
X177369649Y-97578390D01*
X177369649Y-97578390D02*
X177268459Y-97530771D01*
X177268459Y-97530771D02*
X177030363Y-97530771D01*
X177030363Y-97530771D02*
X176941078Y-97578390D01*
X176941078Y-97578390D02*
X176899411Y-97626009D01*
X176899411Y-97626009D02*
X176863697Y-97721247D01*
X176863697Y-97721247D02*
X176893459Y-97959342D01*
X176893459Y-97959342D02*
X176952982Y-98054580D01*
X176952982Y-98054580D02*
X177006554Y-98102200D01*
X177006554Y-98102200D02*
X177107744Y-98149819D01*
X177107744Y-98149819D02*
X177345840Y-98149819D01*
X177345840Y-98149819D02*
X177435125Y-98102200D01*
X177435125Y-98102200D02*
X177476792Y-98054580D01*
X176506554Y-97149819D02*
X176298220Y-98149819D01*
X176298220Y-98149819D02*
X175839887Y-97149819D01*
X106087438Y-84883684D02*
X106039819Y-84794398D01*
X106039819Y-84794398D02*
X106039819Y-84651541D01*
X106039819Y-84651541D02*
X106087438Y-84502731D01*
X106087438Y-84502731D02*
X106182676Y-84395588D01*
X106182676Y-84395588D02*
X106277914Y-84336064D01*
X106277914Y-84336064D02*
X106468390Y-84264636D01*
X106468390Y-84264636D02*
X106611247Y-84246779D01*
X106611247Y-84246779D02*
X106801723Y-84270588D01*
X106801723Y-84270588D02*
X106896961Y-84306303D01*
X106896961Y-84306303D02*
X106992200Y-84389636D01*
X106992200Y-84389636D02*
X107039819Y-84526541D01*
X107039819Y-84526541D02*
X107039819Y-84621779D01*
X107039819Y-84621779D02*
X106992200Y-84770588D01*
X106992200Y-84770588D02*
X106944580Y-84824160D01*
X106944580Y-84824160D02*
X106611247Y-84865826D01*
X106611247Y-84865826D02*
X106611247Y-84675350D01*
X107039819Y-85240826D02*
X106039819Y-85365826D01*
X106039819Y-85365826D02*
X107039819Y-85812255D01*
X107039819Y-85812255D02*
X106039819Y-85937255D01*
X107039819Y-86288445D02*
X106039819Y-86413445D01*
X106039819Y-86413445D02*
X106039819Y-86651541D01*
X106039819Y-86651541D02*
X106087438Y-86788445D01*
X106087438Y-86788445D02*
X106182676Y-86871779D01*
X106182676Y-86871779D02*
X106277914Y-86907493D01*
X106277914Y-86907493D02*
X106468390Y-86931303D01*
X106468390Y-86931303D02*
X106611247Y-86913445D01*
X106611247Y-86913445D02*
X106801723Y-86842017D01*
X106801723Y-86842017D02*
X106896961Y-86782493D01*
X106896961Y-86782493D02*
X106992200Y-86675350D01*
X106992200Y-86675350D02*
X107039819Y-86526541D01*
X107039819Y-86526541D02*
X107039819Y-86288445D01*
X250809819Y-82080588D02*
X250809819Y-82699636D01*
X250809819Y-82699636D02*
X251190771Y-82318684D01*
X251190771Y-82318684D02*
X251190771Y-82461541D01*
X251190771Y-82461541D02*
X251238390Y-82550826D01*
X251238390Y-82550826D02*
X251286009Y-82592493D01*
X251286009Y-82592493D02*
X251381247Y-82628207D01*
X251381247Y-82628207D02*
X251619342Y-82598445D01*
X251619342Y-82598445D02*
X251714580Y-82538922D01*
X251714580Y-82538922D02*
X251762200Y-82485350D01*
X251762200Y-82485350D02*
X251809819Y-82384160D01*
X251809819Y-82384160D02*
X251809819Y-82098445D01*
X251809819Y-82098445D02*
X251762200Y-82009160D01*
X251762200Y-82009160D02*
X251714580Y-81967493D01*
X250809819Y-82985350D02*
X251809819Y-83193684D01*
X251809819Y-83193684D02*
X250809819Y-83652017D01*
X250809819Y-83890112D02*
X250809819Y-84509160D01*
X250809819Y-84509160D02*
X251190771Y-84128208D01*
X251190771Y-84128208D02*
X251190771Y-84271065D01*
X251190771Y-84271065D02*
X251238390Y-84360350D01*
X251238390Y-84360350D02*
X251286009Y-84402017D01*
X251286009Y-84402017D02*
X251381247Y-84437731D01*
X251381247Y-84437731D02*
X251619342Y-84407969D01*
X251619342Y-84407969D02*
X251714580Y-84348446D01*
X251714580Y-84348446D02*
X251762200Y-84294874D01*
X251762200Y-84294874D02*
X251809819Y-84193684D01*
X251809819Y-84193684D02*
X251809819Y-83907969D01*
X251809819Y-83907969D02*
X251762200Y-83818684D01*
X251762200Y-83818684D02*
X251714580Y-83777017D01*
X254079173Y-68459819D02*
X253954173Y-67459819D01*
X253954173Y-67459819D02*
X253710125Y-68174104D01*
X253710125Y-68174104D02*
X253287506Y-67459819D01*
X253287506Y-67459819D02*
X253412506Y-68459819D01*
X252977982Y-68412200D02*
X252841078Y-68459819D01*
X252841078Y-68459819D02*
X252602982Y-68459819D01*
X252602982Y-68459819D02*
X252501792Y-68412200D01*
X252501792Y-68412200D02*
X252448220Y-68364580D01*
X252448220Y-68364580D02*
X252388697Y-68269342D01*
X252388697Y-68269342D02*
X252376792Y-68174104D01*
X252376792Y-68174104D02*
X252412506Y-68078866D01*
X252412506Y-68078866D02*
X252454173Y-68031247D01*
X252454173Y-68031247D02*
X252543459Y-67983628D01*
X252543459Y-67983628D02*
X252727982Y-67936009D01*
X252727982Y-67936009D02*
X252817268Y-67888390D01*
X252817268Y-67888390D02*
X252858935Y-67840771D01*
X252858935Y-67840771D02*
X252894649Y-67745533D01*
X252894649Y-67745533D02*
X252882744Y-67650295D01*
X252882744Y-67650295D02*
X252823220Y-67555057D01*
X252823220Y-67555057D02*
X252769649Y-67507438D01*
X252769649Y-67507438D02*
X252668459Y-67459819D01*
X252668459Y-67459819D02*
X252430363Y-67459819D01*
X252430363Y-67459819D02*
X252293459Y-67507438D01*
X251918458Y-67555057D02*
X251864887Y-67507438D01*
X251864887Y-67507438D02*
X251763697Y-67459819D01*
X251763697Y-67459819D02*
X251525601Y-67459819D01*
X251525601Y-67459819D02*
X251436316Y-67507438D01*
X251436316Y-67507438D02*
X251394649Y-67555057D01*
X251394649Y-67555057D02*
X251358935Y-67650295D01*
X251358935Y-67650295D02*
X251370839Y-67745533D01*
X251370839Y-67745533D02*
X251436316Y-67888390D01*
X251436316Y-67888390D02*
X252079173Y-68459819D01*
X252079173Y-68459819D02*
X251460125Y-68459819D01*
D11*
X88034438Y-70447442D02*
X86034438Y-70697442D01*
X86034438Y-70697442D02*
X87463009Y-71185537D01*
X87463009Y-71185537D02*
X86034438Y-72030776D01*
X86034438Y-72030776D02*
X88034438Y-71780776D01*
X88034438Y-73018871D02*
X87939200Y-72840299D01*
X87939200Y-72840299D02*
X87843961Y-72756966D01*
X87843961Y-72756966D02*
X87653485Y-72685537D01*
X87653485Y-72685537D02*
X87082057Y-72756966D01*
X87082057Y-72756966D02*
X86891580Y-72876013D01*
X86891580Y-72876013D02*
X86796342Y-72983156D01*
X86796342Y-72983156D02*
X86701104Y-73185537D01*
X86701104Y-73185537D02*
X86701104Y-73471251D01*
X86701104Y-73471251D02*
X86796342Y-73649823D01*
X86796342Y-73649823D02*
X86891580Y-73733156D01*
X86891580Y-73733156D02*
X87082057Y-73804585D01*
X87082057Y-73804585D02*
X87653485Y-73733156D01*
X87653485Y-73733156D02*
X87843961Y-73614109D01*
X87843961Y-73614109D02*
X87939200Y-73506966D01*
X87939200Y-73506966D02*
X88034438Y-73304585D01*
X88034438Y-73304585D02*
X88034438Y-73018871D01*
X86701104Y-74423633D02*
X86701104Y-75185537D01*
X86034438Y-74792680D02*
X87748723Y-74578395D01*
X87748723Y-74578395D02*
X87939200Y-74649823D01*
X87939200Y-74649823D02*
X88034438Y-74828395D01*
X88034438Y-74828395D02*
X88034438Y-75018871D01*
X88034438Y-75971252D02*
X87939200Y-75792680D01*
X87939200Y-75792680D02*
X87843961Y-75709347D01*
X87843961Y-75709347D02*
X87653485Y-75637918D01*
X87653485Y-75637918D02*
X87082057Y-75709347D01*
X87082057Y-75709347D02*
X86891580Y-75828394D01*
X86891580Y-75828394D02*
X86796342Y-75935537D01*
X86796342Y-75935537D02*
X86701104Y-76137918D01*
X86701104Y-76137918D02*
X86701104Y-76423632D01*
X86701104Y-76423632D02*
X86796342Y-76602204D01*
X86796342Y-76602204D02*
X86891580Y-76685537D01*
X86891580Y-76685537D02*
X87082057Y-76756966D01*
X87082057Y-76756966D02*
X87653485Y-76685537D01*
X87653485Y-76685537D02*
X87843961Y-76566490D01*
X87843961Y-76566490D02*
X87939200Y-76459347D01*
X87939200Y-76459347D02*
X88034438Y-76256966D01*
X88034438Y-76256966D02*
X88034438Y-75971252D01*
X88034438Y-77495061D02*
X86701104Y-77661728D01*
X87082057Y-77614109D02*
X86891580Y-77733156D01*
X86891580Y-77733156D02*
X86796342Y-77840299D01*
X86796342Y-77840299D02*
X86701104Y-78042680D01*
X86701104Y-78042680D02*
X86701104Y-78233156D01*
X86986819Y-81054585D02*
X86986819Y-80387919D01*
X88034438Y-80256966D02*
X86034438Y-80506966D01*
X86034438Y-80506966D02*
X86034438Y-81459347D01*
X88034438Y-82828395D02*
X86986819Y-82959347D01*
X86986819Y-82959347D02*
X86796342Y-82887919D01*
X86796342Y-82887919D02*
X86701104Y-82709347D01*
X86701104Y-82709347D02*
X86701104Y-82328395D01*
X86701104Y-82328395D02*
X86796342Y-82126014D01*
X87939200Y-82840300D02*
X88034438Y-82637919D01*
X88034438Y-82637919D02*
X88034438Y-82161728D01*
X88034438Y-82161728D02*
X87939200Y-81983157D01*
X87939200Y-81983157D02*
X87748723Y-81911728D01*
X87748723Y-81911728D02*
X87558247Y-81935538D01*
X87558247Y-81935538D02*
X87367771Y-82054586D01*
X87367771Y-82054586D02*
X87272533Y-82256967D01*
X87272533Y-82256967D02*
X87272533Y-82733157D01*
X87272533Y-82733157D02*
X87177295Y-82935538D01*
X86701104Y-83947443D02*
X88034438Y-83780776D01*
X86891580Y-83923633D02*
X86796342Y-84030776D01*
X86796342Y-84030776D02*
X86701104Y-84233157D01*
X86701104Y-84233157D02*
X86701104Y-84518871D01*
X86701104Y-84518871D02*
X86796342Y-84697443D01*
X86796342Y-84697443D02*
X86986819Y-84768871D01*
X86986819Y-84768871D02*
X88034438Y-84637919D01*
D10*
X142458866Y-94698445D02*
X142458866Y-95460350D01*
X142839819Y-95031779D02*
X142077914Y-95127017D01*
X142839819Y-96412731D02*
X142839819Y-95841302D01*
X142839819Y-96127017D02*
X141839819Y-96252017D01*
X141839819Y-96252017D02*
X141982676Y-96138921D01*
X141982676Y-96138921D02*
X142077914Y-96031779D01*
X142077914Y-96031779D02*
X142125533Y-95930588D01*
X141935057Y-96906779D02*
X141887438Y-96960350D01*
X141887438Y-96960350D02*
X141839819Y-97061540D01*
X141839819Y-97061540D02*
X141839819Y-97299636D01*
X141839819Y-97299636D02*
X141887438Y-97388921D01*
X141887438Y-97388921D02*
X141935057Y-97430588D01*
X141935057Y-97430588D02*
X142030295Y-97466302D01*
X142030295Y-97466302D02*
X142125533Y-97454398D01*
X142125533Y-97454398D02*
X142268390Y-97388921D01*
X142268390Y-97388921D02*
X142839819Y-96746064D01*
X142839819Y-96746064D02*
X142839819Y-97365112D01*
X141839819Y-97775826D02*
X142839819Y-97984160D01*
X142839819Y-97984160D02*
X141839819Y-98442493D01*
D11*
X145270800Y-92215890D02*
X145175561Y-92037319D01*
X145175561Y-92037319D02*
X145175561Y-91656366D01*
X145175561Y-91656366D02*
X145270800Y-91453985D01*
X145270800Y-91453985D02*
X145461276Y-91334938D01*
X145461276Y-91334938D02*
X145556514Y-91323033D01*
X145556514Y-91323033D02*
X145746990Y-91394462D01*
X145746990Y-91394462D02*
X145842228Y-91573033D01*
X145842228Y-91573033D02*
X145842228Y-91858747D01*
X145842228Y-91858747D02*
X145937466Y-92037319D01*
X145937466Y-92037319D02*
X146127942Y-92108747D01*
X146127942Y-92108747D02*
X146223180Y-92096843D01*
X146223180Y-92096843D02*
X146413657Y-91977795D01*
X146413657Y-91977795D02*
X146508895Y-91775414D01*
X146508895Y-91775414D02*
X146508895Y-91489700D01*
X146508895Y-91489700D02*
X146413657Y-91311128D01*
X146508895Y-90632556D02*
X146508895Y-89870652D01*
X147175561Y-90263509D02*
X145461276Y-90477795D01*
X145461276Y-90477795D02*
X145270800Y-90406366D01*
X145270800Y-90406366D02*
X145175561Y-90227795D01*
X145175561Y-90227795D02*
X145175561Y-90037318D01*
X145175561Y-89370652D02*
X146508895Y-89203985D01*
X146127942Y-89251604D02*
X146318419Y-89132557D01*
X146318419Y-89132557D02*
X146413657Y-89025414D01*
X146413657Y-89025414D02*
X146508895Y-88823033D01*
X146508895Y-88823033D02*
X146508895Y-88632557D01*
X145175561Y-87846843D02*
X145270800Y-88025414D01*
X145270800Y-88025414D02*
X145366038Y-88108747D01*
X145366038Y-88108747D02*
X145556514Y-88180176D01*
X145556514Y-88180176D02*
X146127942Y-88108747D01*
X146127942Y-88108747D02*
X146318419Y-87989700D01*
X146318419Y-87989700D02*
X146413657Y-87882557D01*
X146413657Y-87882557D02*
X146508895Y-87680176D01*
X146508895Y-87680176D02*
X146508895Y-87394462D01*
X146508895Y-87394462D02*
X146413657Y-87215890D01*
X146413657Y-87215890D02*
X146318419Y-87132557D01*
X146318419Y-87132557D02*
X146127942Y-87061128D01*
X146127942Y-87061128D02*
X145556514Y-87132557D01*
X145556514Y-87132557D02*
X145366038Y-87251604D01*
X145366038Y-87251604D02*
X145270800Y-87358747D01*
X145270800Y-87358747D02*
X145175561Y-87561128D01*
X145175561Y-87561128D02*
X145175561Y-87846843D01*
X145175561Y-86323033D02*
X147175561Y-86073033D01*
X146413657Y-86168271D02*
X146508895Y-85965890D01*
X146508895Y-85965890D02*
X146508895Y-85584938D01*
X146508895Y-85584938D02*
X146413657Y-85406366D01*
X146413657Y-85406366D02*
X146318419Y-85323033D01*
X146318419Y-85323033D02*
X146127942Y-85251604D01*
X146127942Y-85251604D02*
X145556514Y-85323033D01*
X145556514Y-85323033D02*
X145366038Y-85442080D01*
X145366038Y-85442080D02*
X145270800Y-85549223D01*
X145270800Y-85549223D02*
X145175561Y-85751604D01*
X145175561Y-85751604D02*
X145175561Y-86132557D01*
X145175561Y-86132557D02*
X145270800Y-86311128D01*
X145270800Y-83739699D02*
X145175561Y-83942080D01*
X145175561Y-83942080D02*
X145175561Y-84323033D01*
X145175561Y-84323033D02*
X145270800Y-84501604D01*
X145270800Y-84501604D02*
X145461276Y-84573033D01*
X145461276Y-84573033D02*
X146223180Y-84477795D01*
X146223180Y-84477795D02*
X146413657Y-84358747D01*
X146413657Y-84358747D02*
X146508895Y-84156366D01*
X146508895Y-84156366D02*
X146508895Y-83775414D01*
X146508895Y-83775414D02*
X146413657Y-83596842D01*
X146413657Y-83596842D02*
X146223180Y-83525414D01*
X146223180Y-83525414D02*
X146032704Y-83549223D01*
X146032704Y-83549223D02*
X145842228Y-84525414D01*
D10*
X178809173Y-102379819D02*
X178684173Y-101379819D01*
X178684173Y-101379819D02*
X178446077Y-101379819D01*
X178446077Y-101379819D02*
X178309173Y-101427438D01*
X178309173Y-101427438D02*
X178225839Y-101522676D01*
X178225839Y-101522676D02*
X178190125Y-101617914D01*
X178190125Y-101617914D02*
X178166316Y-101808390D01*
X178166316Y-101808390D02*
X178184173Y-101951247D01*
X178184173Y-101951247D02*
X178255601Y-102141723D01*
X178255601Y-102141723D02*
X178315125Y-102236961D01*
X178315125Y-102236961D02*
X178422268Y-102332200D01*
X178422268Y-102332200D02*
X178571077Y-102379819D01*
X178571077Y-102379819D02*
X178809173Y-102379819D01*
X177821077Y-102094104D02*
X177344887Y-102094104D01*
X177952030Y-102379819D02*
X177493696Y-101379819D01*
X177493696Y-101379819D02*
X177285363Y-102379819D01*
X176969887Y-101379819D02*
X176398458Y-101379819D01*
X176809173Y-102379819D02*
X176684173Y-101379819D01*
X176202029Y-102094104D02*
X175725839Y-102094104D01*
X176332982Y-102379819D02*
X175874648Y-101379819D01*
X175874648Y-101379819D02*
X175666315Y-102379819D01*
X103609819Y-84490588D02*
X103609819Y-85109636D01*
X103609819Y-85109636D02*
X103990771Y-84728684D01*
X103990771Y-84728684D02*
X103990771Y-84871541D01*
X103990771Y-84871541D02*
X104038390Y-84960826D01*
X104038390Y-84960826D02*
X104086009Y-85002493D01*
X104086009Y-85002493D02*
X104181247Y-85038207D01*
X104181247Y-85038207D02*
X104419342Y-85008445D01*
X104419342Y-85008445D02*
X104514580Y-84948922D01*
X104514580Y-84948922D02*
X104562200Y-84895350D01*
X104562200Y-84895350D02*
X104609819Y-84794160D01*
X104609819Y-84794160D02*
X104609819Y-84508445D01*
X104609819Y-84508445D02*
X104562200Y-84419160D01*
X104562200Y-84419160D02*
X104514580Y-84377493D01*
X103609819Y-85395350D02*
X104609819Y-85603684D01*
X104609819Y-85603684D02*
X103609819Y-86062017D01*
X103609819Y-86300112D02*
X103609819Y-86919160D01*
X103609819Y-86919160D02*
X103990771Y-86538208D01*
X103990771Y-86538208D02*
X103990771Y-86681065D01*
X103990771Y-86681065D02*
X104038390Y-86770350D01*
X104038390Y-86770350D02*
X104086009Y-86812017D01*
X104086009Y-86812017D02*
X104181247Y-86847731D01*
X104181247Y-86847731D02*
X104419342Y-86817969D01*
X104419342Y-86817969D02*
X104514580Y-86758446D01*
X104514580Y-86758446D02*
X104562200Y-86704874D01*
X104562200Y-86704874D02*
X104609819Y-86603684D01*
X104609819Y-86603684D02*
X104609819Y-86317969D01*
X104609819Y-86317969D02*
X104562200Y-86228684D01*
X104562200Y-86228684D02*
X104514580Y-86187017D01*
X180423049Y-115206100D02*
X180518287Y-115253719D01*
X180518287Y-115253719D02*
X180708763Y-115253719D01*
X180708763Y-115253719D02*
X180804001Y-115206100D01*
X180804001Y-115206100D02*
X180851620Y-115158480D01*
X180851620Y-115158480D02*
X180899239Y-115063242D01*
X180899239Y-115063242D02*
X180899239Y-114777528D01*
X180899239Y-114777528D02*
X180851620Y-114682290D01*
X180851620Y-114682290D02*
X180804001Y-114634671D01*
X180804001Y-114634671D02*
X180708763Y-114587052D01*
X180708763Y-114587052D02*
X180518287Y-114587052D01*
X180518287Y-114587052D02*
X180423049Y-114634671D01*
X179851620Y-115253719D02*
X179946858Y-115206100D01*
X179946858Y-115206100D02*
X179994477Y-115110861D01*
X179994477Y-115110861D02*
X179994477Y-114253719D01*
X179470667Y-115253719D02*
X179470667Y-114253719D01*
X179375429Y-114872766D02*
X179089715Y-115253719D01*
X179089715Y-114587052D02*
X179470667Y-114968004D01*
X180550049Y-122461052D02*
X180550049Y-123270576D01*
X180550049Y-123270576D02*
X180597668Y-123365814D01*
X180597668Y-123365814D02*
X180645287Y-123413433D01*
X180645287Y-123413433D02*
X180740525Y-123461052D01*
X180740525Y-123461052D02*
X180883382Y-123461052D01*
X180883382Y-123461052D02*
X180978620Y-123413433D01*
X180550049Y-123080100D02*
X180645287Y-123127719D01*
X180645287Y-123127719D02*
X180835763Y-123127719D01*
X180835763Y-123127719D02*
X180931001Y-123080100D01*
X180931001Y-123080100D02*
X180978620Y-123032480D01*
X180978620Y-123032480D02*
X181026239Y-122937242D01*
X181026239Y-122937242D02*
X181026239Y-122651528D01*
X181026239Y-122651528D02*
X180978620Y-122556290D01*
X180978620Y-122556290D02*
X180931001Y-122508671D01*
X180931001Y-122508671D02*
X180835763Y-122461052D01*
X180835763Y-122461052D02*
X180645287Y-122461052D01*
X180645287Y-122461052D02*
X180550049Y-122508671D01*
X180073858Y-122461052D02*
X180073858Y-123127719D01*
X180073858Y-122556290D02*
X180026239Y-122508671D01*
X180026239Y-122508671D02*
X179931001Y-122461052D01*
X179931001Y-122461052D02*
X179788144Y-122461052D01*
X179788144Y-122461052D02*
X179692906Y-122508671D01*
X179692906Y-122508671D02*
X179645287Y-122603909D01*
X179645287Y-122603909D02*
X179645287Y-123127719D01*
X178740525Y-123127719D02*
X178740525Y-122127719D01*
X178740525Y-123080100D02*
X178835763Y-123127719D01*
X178835763Y-123127719D02*
X179026239Y-123127719D01*
X179026239Y-123127719D02*
X179121477Y-123080100D01*
X179121477Y-123080100D02*
X179169096Y-123032480D01*
X179169096Y-123032480D02*
X179216715Y-122937242D01*
X179216715Y-122937242D02*
X179216715Y-122651528D01*
X179216715Y-122651528D02*
X179169096Y-122556290D01*
X179169096Y-122556290D02*
X179121477Y-122508671D01*
X179121477Y-122508671D02*
X179026239Y-122461052D01*
X179026239Y-122461052D02*
X178835763Y-122461052D01*
X178835763Y-122461052D02*
X178740525Y-122508671D01*
X180870658Y-119844852D02*
X180632563Y-120511519D01*
X180632563Y-120511519D02*
X180394468Y-119844852D01*
X179584944Y-120463900D02*
X179680182Y-120511519D01*
X179680182Y-120511519D02*
X179870658Y-120511519D01*
X179870658Y-120511519D02*
X179965896Y-120463900D01*
X179965896Y-120463900D02*
X180013515Y-120416280D01*
X180013515Y-120416280D02*
X180061134Y-120321042D01*
X180061134Y-120321042D02*
X180061134Y-120035328D01*
X180061134Y-120035328D02*
X180013515Y-119940090D01*
X180013515Y-119940090D02*
X179965896Y-119892471D01*
X179965896Y-119892471D02*
X179870658Y-119844852D01*
X179870658Y-119844852D02*
X179680182Y-119844852D01*
X179680182Y-119844852D02*
X179584944Y-119892471D01*
X178727801Y-120463900D02*
X178823039Y-120511519D01*
X178823039Y-120511519D02*
X179013515Y-120511519D01*
X179013515Y-120511519D02*
X179108753Y-120463900D01*
X179108753Y-120463900D02*
X179156372Y-120416280D01*
X179156372Y-120416280D02*
X179203991Y-120321042D01*
X179203991Y-120321042D02*
X179203991Y-120035328D01*
X179203991Y-120035328D02*
X179156372Y-119940090D01*
X179156372Y-119940090D02*
X179108753Y-119892471D01*
X179108753Y-119892471D02*
X179013515Y-119844852D01*
X179013515Y-119844852D02*
X178823039Y-119844852D01*
X178823039Y-119844852D02*
X178727801Y-119892471D01*
X180397649Y-117920719D02*
X180397649Y-116920719D01*
X180397649Y-117873100D02*
X180492887Y-117920719D01*
X180492887Y-117920719D02*
X180683363Y-117920719D01*
X180683363Y-117920719D02*
X180778601Y-117873100D01*
X180778601Y-117873100D02*
X180826220Y-117825480D01*
X180826220Y-117825480D02*
X180873839Y-117730242D01*
X180873839Y-117730242D02*
X180873839Y-117444528D01*
X180873839Y-117444528D02*
X180826220Y-117349290D01*
X180826220Y-117349290D02*
X180778601Y-117301671D01*
X180778601Y-117301671D02*
X180683363Y-117254052D01*
X180683363Y-117254052D02*
X180492887Y-117254052D01*
X180492887Y-117254052D02*
X180397649Y-117301671D01*
X179921458Y-117920719D02*
X179921458Y-117254052D01*
X179921458Y-116920719D02*
X179969077Y-116968338D01*
X179969077Y-116968338D02*
X179921458Y-117015957D01*
X179921458Y-117015957D02*
X179873839Y-116968338D01*
X179873839Y-116968338D02*
X179921458Y-116920719D01*
X179921458Y-116920719D02*
X179921458Y-117015957D01*
X179302411Y-117920719D02*
X179397649Y-117873100D01*
X179397649Y-117873100D02*
X179445268Y-117825480D01*
X179445268Y-117825480D02*
X179492887Y-117730242D01*
X179492887Y-117730242D02*
X179492887Y-117444528D01*
X179492887Y-117444528D02*
X179445268Y-117349290D01*
X179445268Y-117349290D02*
X179397649Y-117301671D01*
X179397649Y-117301671D02*
X179302411Y-117254052D01*
X179302411Y-117254052D02*
X179159554Y-117254052D01*
X179159554Y-117254052D02*
X179064316Y-117301671D01*
X179064316Y-117301671D02*
X179016697Y-117349290D01*
X179016697Y-117349290D02*
X178969078Y-117444528D01*
X178969078Y-117444528D02*
X178969078Y-117730242D01*
X178969078Y-117730242D02*
X179016697Y-117825480D01*
X179016697Y-117825480D02*
X179064316Y-117873100D01*
X179064316Y-117873100D02*
X179159554Y-117920719D01*
X179159554Y-117920719D02*
X179302411Y-117920719D01*
X253069819Y-71616666D02*
X253784104Y-71616666D01*
X253784104Y-71616666D02*
X253926961Y-71569047D01*
X253926961Y-71569047D02*
X254022200Y-71473809D01*
X254022200Y-71473809D02*
X254069819Y-71330952D01*
X254069819Y-71330952D02*
X254069819Y-71235714D01*
X253069819Y-72521428D02*
X253069819Y-72330952D01*
X253069819Y-72330952D02*
X253117438Y-72235714D01*
X253117438Y-72235714D02*
X253165057Y-72188095D01*
X253165057Y-72188095D02*
X253307914Y-72092857D01*
X253307914Y-72092857D02*
X253498390Y-72045238D01*
X253498390Y-72045238D02*
X253879342Y-72045238D01*
X253879342Y-72045238D02*
X253974580Y-72092857D01*
X253974580Y-72092857D02*
X254022200Y-72140476D01*
X254022200Y-72140476D02*
X254069819Y-72235714D01*
X254069819Y-72235714D02*
X254069819Y-72426190D01*
X254069819Y-72426190D02*
X254022200Y-72521428D01*
X254022200Y-72521428D02*
X253974580Y-72569047D01*
X253974580Y-72569047D02*
X253879342Y-72616666D01*
X253879342Y-72616666D02*
X253641247Y-72616666D01*
X253641247Y-72616666D02*
X253546009Y-72569047D01*
X253546009Y-72569047D02*
X253498390Y-72521428D01*
X253498390Y-72521428D02*
X253450771Y-72426190D01*
X253450771Y-72426190D02*
X253450771Y-72235714D01*
X253450771Y-72235714D02*
X253498390Y-72140476D01*
X253498390Y-72140476D02*
X253546009Y-72092857D01*
X253546009Y-72092857D02*
X253641247Y-72045238D01*
X123624819Y-117067142D02*
X123148628Y-116733809D01*
X123624819Y-116495714D02*
X122624819Y-116495714D01*
X122624819Y-116495714D02*
X122624819Y-116876666D01*
X122624819Y-116876666D02*
X122672438Y-116971904D01*
X122672438Y-116971904D02*
X122720057Y-117019523D01*
X122720057Y-117019523D02*
X122815295Y-117067142D01*
X122815295Y-117067142D02*
X122958152Y-117067142D01*
X122958152Y-117067142D02*
X123053390Y-117019523D01*
X123053390Y-117019523D02*
X123101009Y-116971904D01*
X123101009Y-116971904D02*
X123148628Y-116876666D01*
X123148628Y-116876666D02*
X123148628Y-116495714D01*
X123624819Y-118019523D02*
X123624819Y-117448095D01*
X123624819Y-117733809D02*
X122624819Y-117733809D01*
X122624819Y-117733809D02*
X122767676Y-117638571D01*
X122767676Y-117638571D02*
X122862914Y-117543333D01*
X122862914Y-117543333D02*
X122910533Y-117448095D01*
X123624819Y-118971904D02*
X123624819Y-118400476D01*
X123624819Y-118686190D02*
X122624819Y-118686190D01*
X122624819Y-118686190D02*
X122767676Y-118590952D01*
X122767676Y-118590952D02*
X122862914Y-118495714D01*
X122862914Y-118495714D02*
X122910533Y-118400476D01*
X68448094Y-119674819D02*
X68448094Y-118674819D01*
X68448094Y-118674819D02*
X68209999Y-118674819D01*
X68209999Y-118674819D02*
X68067142Y-118722438D01*
X68067142Y-118722438D02*
X67971904Y-118817676D01*
X67971904Y-118817676D02*
X67924285Y-118912914D01*
X67924285Y-118912914D02*
X67876666Y-119103390D01*
X67876666Y-119103390D02*
X67876666Y-119246247D01*
X67876666Y-119246247D02*
X67924285Y-119436723D01*
X67924285Y-119436723D02*
X67971904Y-119531961D01*
X67971904Y-119531961D02*
X68067142Y-119627200D01*
X68067142Y-119627200D02*
X68209999Y-119674819D01*
X68209999Y-119674819D02*
X68448094Y-119674819D01*
X67543332Y-118674819D02*
X66924285Y-118674819D01*
X66924285Y-118674819D02*
X67257618Y-119055771D01*
X67257618Y-119055771D02*
X67114761Y-119055771D01*
X67114761Y-119055771D02*
X67019523Y-119103390D01*
X67019523Y-119103390D02*
X66971904Y-119151009D01*
X66971904Y-119151009D02*
X66924285Y-119246247D01*
X66924285Y-119246247D02*
X66924285Y-119484342D01*
X66924285Y-119484342D02*
X66971904Y-119579580D01*
X66971904Y-119579580D02*
X67019523Y-119627200D01*
X67019523Y-119627200D02*
X67114761Y-119674819D01*
X67114761Y-119674819D02*
X67400475Y-119674819D01*
X67400475Y-119674819D02*
X67495713Y-119627200D01*
X67495713Y-119627200D02*
X67543332Y-119579580D01*
X177534819Y-76897142D02*
X177058628Y-76563809D01*
X177534819Y-76325714D02*
X176534819Y-76325714D01*
X176534819Y-76325714D02*
X176534819Y-76706666D01*
X176534819Y-76706666D02*
X176582438Y-76801904D01*
X176582438Y-76801904D02*
X176630057Y-76849523D01*
X176630057Y-76849523D02*
X176725295Y-76897142D01*
X176725295Y-76897142D02*
X176868152Y-76897142D01*
X176868152Y-76897142D02*
X176963390Y-76849523D01*
X176963390Y-76849523D02*
X177011009Y-76801904D01*
X177011009Y-76801904D02*
X177058628Y-76706666D01*
X177058628Y-76706666D02*
X177058628Y-76325714D01*
X177534819Y-77849523D02*
X177534819Y-77278095D01*
X177534819Y-77563809D02*
X176534819Y-77563809D01*
X176534819Y-77563809D02*
X176677676Y-77468571D01*
X176677676Y-77468571D02*
X176772914Y-77373333D01*
X176772914Y-77373333D02*
X176820533Y-77278095D01*
X176534819Y-78182857D02*
X176534819Y-78849523D01*
X176534819Y-78849523D02*
X177534819Y-78420952D01*
X140603333Y-79664819D02*
X140603333Y-80379104D01*
X140603333Y-80379104D02*
X140650952Y-80521961D01*
X140650952Y-80521961D02*
X140746190Y-80617200D01*
X140746190Y-80617200D02*
X140889047Y-80664819D01*
X140889047Y-80664819D02*
X140984285Y-80664819D01*
X139984285Y-80093390D02*
X140079523Y-80045771D01*
X140079523Y-80045771D02*
X140127142Y-79998152D01*
X140127142Y-79998152D02*
X140174761Y-79902914D01*
X140174761Y-79902914D02*
X140174761Y-79855295D01*
X140174761Y-79855295D02*
X140127142Y-79760057D01*
X140127142Y-79760057D02*
X140079523Y-79712438D01*
X140079523Y-79712438D02*
X139984285Y-79664819D01*
X139984285Y-79664819D02*
X139793809Y-79664819D01*
X139793809Y-79664819D02*
X139698571Y-79712438D01*
X139698571Y-79712438D02*
X139650952Y-79760057D01*
X139650952Y-79760057D02*
X139603333Y-79855295D01*
X139603333Y-79855295D02*
X139603333Y-79902914D01*
X139603333Y-79902914D02*
X139650952Y-79998152D01*
X139650952Y-79998152D02*
X139698571Y-80045771D01*
X139698571Y-80045771D02*
X139793809Y-80093390D01*
X139793809Y-80093390D02*
X139984285Y-80093390D01*
X139984285Y-80093390D02*
X140079523Y-80141009D01*
X140079523Y-80141009D02*
X140127142Y-80188628D01*
X140127142Y-80188628D02*
X140174761Y-80283866D01*
X140174761Y-80283866D02*
X140174761Y-80474342D01*
X140174761Y-80474342D02*
X140127142Y-80569580D01*
X140127142Y-80569580D02*
X140079523Y-80617200D01*
X140079523Y-80617200D02*
X139984285Y-80664819D01*
X139984285Y-80664819D02*
X139793809Y-80664819D01*
X139793809Y-80664819D02*
X139698571Y-80617200D01*
X139698571Y-80617200D02*
X139650952Y-80569580D01*
X139650952Y-80569580D02*
X139603333Y-80474342D01*
X139603333Y-80474342D02*
X139603333Y-80283866D01*
X139603333Y-80283866D02*
X139650952Y-80188628D01*
X139650952Y-80188628D02*
X139698571Y-80141009D01*
X139698571Y-80141009D02*
X139793809Y-80093390D01*
X131240067Y-127357142D02*
X130763876Y-127023809D01*
X131240067Y-126785714D02*
X130240067Y-126785714D01*
X130240067Y-126785714D02*
X130240067Y-127166666D01*
X130240067Y-127166666D02*
X130287686Y-127261904D01*
X130287686Y-127261904D02*
X130335305Y-127309523D01*
X130335305Y-127309523D02*
X130430543Y-127357142D01*
X130430543Y-127357142D02*
X130573400Y-127357142D01*
X130573400Y-127357142D02*
X130668638Y-127309523D01*
X130668638Y-127309523D02*
X130716257Y-127261904D01*
X130716257Y-127261904D02*
X130763876Y-127166666D01*
X130763876Y-127166666D02*
X130763876Y-126785714D01*
X131240067Y-128309523D02*
X131240067Y-127738095D01*
X131240067Y-128023809D02*
X130240067Y-128023809D01*
X130240067Y-128023809D02*
X130382924Y-127928571D01*
X130382924Y-127928571D02*
X130478162Y-127833333D01*
X130478162Y-127833333D02*
X130525781Y-127738095D01*
X130240067Y-128642857D02*
X130240067Y-129261904D01*
X130240067Y-129261904D02*
X130621019Y-128928571D01*
X130621019Y-128928571D02*
X130621019Y-129071428D01*
X130621019Y-129071428D02*
X130668638Y-129166666D01*
X130668638Y-129166666D02*
X130716257Y-129214285D01*
X130716257Y-129214285D02*
X130811495Y-129261904D01*
X130811495Y-129261904D02*
X131049590Y-129261904D01*
X131049590Y-129261904D02*
X131144828Y-129214285D01*
X131144828Y-129214285D02*
X131192448Y-129166666D01*
X131192448Y-129166666D02*
X131240067Y-129071428D01*
X131240067Y-129071428D02*
X131240067Y-128785714D01*
X131240067Y-128785714D02*
X131192448Y-128690476D01*
X131192448Y-128690476D02*
X131144828Y-128642857D01*
X172319580Y-88337142D02*
X172367200Y-88289523D01*
X172367200Y-88289523D02*
X172414819Y-88146666D01*
X172414819Y-88146666D02*
X172414819Y-88051428D01*
X172414819Y-88051428D02*
X172367200Y-87908571D01*
X172367200Y-87908571D02*
X172271961Y-87813333D01*
X172271961Y-87813333D02*
X172176723Y-87765714D01*
X172176723Y-87765714D02*
X171986247Y-87718095D01*
X171986247Y-87718095D02*
X171843390Y-87718095D01*
X171843390Y-87718095D02*
X171652914Y-87765714D01*
X171652914Y-87765714D02*
X171557676Y-87813333D01*
X171557676Y-87813333D02*
X171462438Y-87908571D01*
X171462438Y-87908571D02*
X171414819Y-88051428D01*
X171414819Y-88051428D02*
X171414819Y-88146666D01*
X171414819Y-88146666D02*
X171462438Y-88289523D01*
X171462438Y-88289523D02*
X171510057Y-88337142D01*
X172414819Y-89289523D02*
X172414819Y-88718095D01*
X172414819Y-89003809D02*
X171414819Y-89003809D01*
X171414819Y-89003809D02*
X171557676Y-88908571D01*
X171557676Y-88908571D02*
X171652914Y-88813333D01*
X171652914Y-88813333D02*
X171700533Y-88718095D01*
X171748152Y-90146666D02*
X172414819Y-90146666D01*
X171367200Y-89908571D02*
X172081485Y-89670476D01*
X172081485Y-89670476D02*
X172081485Y-90289523D01*
X220653333Y-72264819D02*
X220653333Y-72979104D01*
X220653333Y-72979104D02*
X220700952Y-73121961D01*
X220700952Y-73121961D02*
X220796190Y-73217200D01*
X220796190Y-73217200D02*
X220939047Y-73264819D01*
X220939047Y-73264819D02*
X221034285Y-73264819D01*
X220272380Y-72264819D02*
X219605714Y-72264819D01*
X219605714Y-72264819D02*
X220034285Y-73264819D01*
X253094818Y-78936666D02*
X253809103Y-78936666D01*
X253809103Y-78936666D02*
X253951960Y-78889047D01*
X253951960Y-78889047D02*
X254047199Y-78793809D01*
X254047199Y-78793809D02*
X254094818Y-78650952D01*
X254094818Y-78650952D02*
X254094818Y-78555714D01*
X253428151Y-79841428D02*
X254094818Y-79841428D01*
X253047199Y-79603333D02*
X253761484Y-79365238D01*
X253761484Y-79365238D02*
X253761484Y-79984285D01*
X157784016Y-88226579D02*
X157831636Y-88178960D01*
X157831636Y-88178960D02*
X157879255Y-88036103D01*
X157879255Y-88036103D02*
X157879255Y-87940865D01*
X157879255Y-87940865D02*
X157831636Y-87798008D01*
X157831636Y-87798008D02*
X157736397Y-87702770D01*
X157736397Y-87702770D02*
X157641159Y-87655151D01*
X157641159Y-87655151D02*
X157450683Y-87607532D01*
X157450683Y-87607532D02*
X157307826Y-87607532D01*
X157307826Y-87607532D02*
X157117350Y-87655151D01*
X157117350Y-87655151D02*
X157022112Y-87702770D01*
X157022112Y-87702770D02*
X156926874Y-87798008D01*
X156926874Y-87798008D02*
X156879255Y-87940865D01*
X156879255Y-87940865D02*
X156879255Y-88036103D01*
X156879255Y-88036103D02*
X156926874Y-88178960D01*
X156926874Y-88178960D02*
X156974493Y-88226579D01*
X157879255Y-89178960D02*
X157879255Y-88607532D01*
X157879255Y-88893246D02*
X156879255Y-88893246D01*
X156879255Y-88893246D02*
X157022112Y-88798008D01*
X157022112Y-88798008D02*
X157117350Y-88702770D01*
X157117350Y-88702770D02*
X157164969Y-88607532D01*
X156879255Y-89798008D02*
X156879255Y-89893246D01*
X156879255Y-89893246D02*
X156926874Y-89988484D01*
X156926874Y-89988484D02*
X156974493Y-90036103D01*
X156974493Y-90036103D02*
X157069731Y-90083722D01*
X157069731Y-90083722D02*
X157260207Y-90131341D01*
X157260207Y-90131341D02*
X157498302Y-90131341D01*
X157498302Y-90131341D02*
X157688778Y-90083722D01*
X157688778Y-90083722D02*
X157784016Y-90036103D01*
X157784016Y-90036103D02*
X157831636Y-89988484D01*
X157831636Y-89988484D02*
X157879255Y-89893246D01*
X157879255Y-89893246D02*
X157879255Y-89798008D01*
X157879255Y-89798008D02*
X157831636Y-89702770D01*
X157831636Y-89702770D02*
X157784016Y-89655151D01*
X157784016Y-89655151D02*
X157688778Y-89607532D01*
X157688778Y-89607532D02*
X157498302Y-89559913D01*
X157498302Y-89559913D02*
X157260207Y-89559913D01*
X157260207Y-89559913D02*
X157069731Y-89607532D01*
X157069731Y-89607532D02*
X156974493Y-89655151D01*
X156974493Y-89655151D02*
X156926874Y-89702770D01*
X156926874Y-89702770D02*
X156879255Y-89798008D01*
X132734818Y-128058333D02*
X132258627Y-127725000D01*
X132734818Y-127486905D02*
X131734818Y-127486905D01*
X131734818Y-127486905D02*
X131734818Y-127867857D01*
X131734818Y-127867857D02*
X131782437Y-127963095D01*
X131782437Y-127963095D02*
X131830056Y-128010714D01*
X131830056Y-128010714D02*
X131925294Y-128058333D01*
X131925294Y-128058333D02*
X132068151Y-128058333D01*
X132068151Y-128058333D02*
X132163389Y-128010714D01*
X132163389Y-128010714D02*
X132211008Y-127963095D01*
X132211008Y-127963095D02*
X132258627Y-127867857D01*
X132258627Y-127867857D02*
X132258627Y-127486905D01*
X131734818Y-128391667D02*
X131734818Y-129058333D01*
X131734818Y-129058333D02*
X132734818Y-128629762D01*
X173624819Y-61457142D02*
X173148628Y-61123809D01*
X173624819Y-60885714D02*
X172624819Y-60885714D01*
X172624819Y-60885714D02*
X172624819Y-61266666D01*
X172624819Y-61266666D02*
X172672438Y-61361904D01*
X172672438Y-61361904D02*
X172720057Y-61409523D01*
X172720057Y-61409523D02*
X172815295Y-61457142D01*
X172815295Y-61457142D02*
X172958152Y-61457142D01*
X172958152Y-61457142D02*
X173053390Y-61409523D01*
X173053390Y-61409523D02*
X173101009Y-61361904D01*
X173101009Y-61361904D02*
X173148628Y-61266666D01*
X173148628Y-61266666D02*
X173148628Y-60885714D01*
X173624819Y-62409523D02*
X173624819Y-61838095D01*
X173624819Y-62123809D02*
X172624819Y-62123809D01*
X172624819Y-62123809D02*
X172767676Y-62028571D01*
X172767676Y-62028571D02*
X172862914Y-61933333D01*
X172862914Y-61933333D02*
X172910533Y-61838095D01*
X172624819Y-63266666D02*
X172624819Y-63076190D01*
X172624819Y-63076190D02*
X172672438Y-62980952D01*
X172672438Y-62980952D02*
X172720057Y-62933333D01*
X172720057Y-62933333D02*
X172862914Y-62838095D01*
X172862914Y-62838095D02*
X173053390Y-62790476D01*
X173053390Y-62790476D02*
X173434342Y-62790476D01*
X173434342Y-62790476D02*
X173529580Y-62838095D01*
X173529580Y-62838095D02*
X173577200Y-62885714D01*
X173577200Y-62885714D02*
X173624819Y-62980952D01*
X173624819Y-62980952D02*
X173624819Y-63171428D01*
X173624819Y-63171428D02*
X173577200Y-63266666D01*
X173577200Y-63266666D02*
X173529580Y-63314285D01*
X173529580Y-63314285D02*
X173434342Y-63361904D01*
X173434342Y-63361904D02*
X173196247Y-63361904D01*
X173196247Y-63361904D02*
X173101009Y-63314285D01*
X173101009Y-63314285D02*
X173053390Y-63266666D01*
X173053390Y-63266666D02*
X173005771Y-63171428D01*
X173005771Y-63171428D02*
X173005771Y-62980952D01*
X173005771Y-62980952D02*
X173053390Y-62885714D01*
X173053390Y-62885714D02*
X173101009Y-62838095D01*
X173101009Y-62838095D02*
X173196247Y-62790476D01*
X67886666Y-116419580D02*
X67934285Y-116467200D01*
X67934285Y-116467200D02*
X68077142Y-116514819D01*
X68077142Y-116514819D02*
X68172380Y-116514819D01*
X68172380Y-116514819D02*
X68315237Y-116467200D01*
X68315237Y-116467200D02*
X68410475Y-116371961D01*
X68410475Y-116371961D02*
X68458094Y-116276723D01*
X68458094Y-116276723D02*
X68505713Y-116086247D01*
X68505713Y-116086247D02*
X68505713Y-115943390D01*
X68505713Y-115943390D02*
X68458094Y-115752914D01*
X68458094Y-115752914D02*
X68410475Y-115657676D01*
X68410475Y-115657676D02*
X68315237Y-115562438D01*
X68315237Y-115562438D02*
X68172380Y-115514819D01*
X68172380Y-115514819D02*
X68077142Y-115514819D01*
X68077142Y-115514819D02*
X67934285Y-115562438D01*
X67934285Y-115562438D02*
X67886666Y-115610057D01*
X67315237Y-115943390D02*
X67410475Y-115895771D01*
X67410475Y-115895771D02*
X67458094Y-115848152D01*
X67458094Y-115848152D02*
X67505713Y-115752914D01*
X67505713Y-115752914D02*
X67505713Y-115705295D01*
X67505713Y-115705295D02*
X67458094Y-115610057D01*
X67458094Y-115610057D02*
X67410475Y-115562438D01*
X67410475Y-115562438D02*
X67315237Y-115514819D01*
X67315237Y-115514819D02*
X67124761Y-115514819D01*
X67124761Y-115514819D02*
X67029523Y-115562438D01*
X67029523Y-115562438D02*
X66981904Y-115610057D01*
X66981904Y-115610057D02*
X66934285Y-115705295D01*
X66934285Y-115705295D02*
X66934285Y-115752914D01*
X66934285Y-115752914D02*
X66981904Y-115848152D01*
X66981904Y-115848152D02*
X67029523Y-115895771D01*
X67029523Y-115895771D02*
X67124761Y-115943390D01*
X67124761Y-115943390D02*
X67315237Y-115943390D01*
X67315237Y-115943390D02*
X67410475Y-115991009D01*
X67410475Y-115991009D02*
X67458094Y-116038628D01*
X67458094Y-116038628D02*
X67505713Y-116133866D01*
X67505713Y-116133866D02*
X67505713Y-116324342D01*
X67505713Y-116324342D02*
X67458094Y-116419580D01*
X67458094Y-116419580D02*
X67410475Y-116467200D01*
X67410475Y-116467200D02*
X67315237Y-116514819D01*
X67315237Y-116514819D02*
X67124761Y-116514819D01*
X67124761Y-116514819D02*
X67029523Y-116467200D01*
X67029523Y-116467200D02*
X66981904Y-116419580D01*
X66981904Y-116419580D02*
X66934285Y-116324342D01*
X66934285Y-116324342D02*
X66934285Y-116133866D01*
X66934285Y-116133866D02*
X66981904Y-116038628D01*
X66981904Y-116038628D02*
X67029523Y-115991009D01*
X67029523Y-115991009D02*
X67124761Y-115943390D01*
X236288066Y-67613919D02*
X236288066Y-66613919D01*
X236288066Y-66613919D02*
X236049971Y-66613919D01*
X236049971Y-66613919D02*
X235907114Y-66661538D01*
X235907114Y-66661538D02*
X235811876Y-66756776D01*
X235811876Y-66756776D02*
X235764257Y-66852014D01*
X235764257Y-66852014D02*
X235716638Y-67042490D01*
X235716638Y-67042490D02*
X235716638Y-67185347D01*
X235716638Y-67185347D02*
X235764257Y-67375823D01*
X235764257Y-67375823D02*
X235811876Y-67471061D01*
X235811876Y-67471061D02*
X235907114Y-67566300D01*
X235907114Y-67566300D02*
X236049971Y-67613919D01*
X236049971Y-67613919D02*
X236288066Y-67613919D01*
X234716638Y-67613919D02*
X235049971Y-67137728D01*
X235288066Y-67613919D02*
X235288066Y-66613919D01*
X235288066Y-66613919D02*
X234907114Y-66613919D01*
X234907114Y-66613919D02*
X234811876Y-66661538D01*
X234811876Y-66661538D02*
X234764257Y-66709157D01*
X234764257Y-66709157D02*
X234716638Y-66804395D01*
X234716638Y-66804395D02*
X234716638Y-66947252D01*
X234716638Y-66947252D02*
X234764257Y-67042490D01*
X234764257Y-67042490D02*
X234811876Y-67090109D01*
X234811876Y-67090109D02*
X234907114Y-67137728D01*
X234907114Y-67137728D02*
X235288066Y-67137728D01*
X234430923Y-66613919D02*
X234097590Y-67613919D01*
X234097590Y-67613919D02*
X233764257Y-66613919D01*
X232907114Y-67613919D02*
X233478542Y-67613919D01*
X233192828Y-67613919D02*
X233192828Y-66613919D01*
X233192828Y-66613919D02*
X233288066Y-66756776D01*
X233288066Y-66756776D02*
X233383304Y-66852014D01*
X233383304Y-66852014D02*
X233478542Y-66899633D01*
X232303420Y-83234119D02*
X232303420Y-82234119D01*
X232303420Y-82234119D02*
X231970087Y-82948404D01*
X231970087Y-82948404D02*
X231636754Y-82234119D01*
X231636754Y-82234119D02*
X231636754Y-83234119D01*
X230636754Y-83234119D02*
X231208182Y-83234119D01*
X230922468Y-83234119D02*
X230922468Y-82234119D01*
X230922468Y-82234119D02*
X231017706Y-82376976D01*
X231017706Y-82376976D02*
X231112944Y-82472214D01*
X231112944Y-82472214D02*
X231208182Y-82519833D01*
X229874849Y-82710309D02*
X229731992Y-82757928D01*
X229731992Y-82757928D02*
X229684373Y-82805547D01*
X229684373Y-82805547D02*
X229636754Y-82900785D01*
X229636754Y-82900785D02*
X229636754Y-83043642D01*
X229636754Y-83043642D02*
X229684373Y-83138880D01*
X229684373Y-83138880D02*
X229731992Y-83186500D01*
X229731992Y-83186500D02*
X229827230Y-83234119D01*
X229827230Y-83234119D02*
X230208182Y-83234119D01*
X230208182Y-83234119D02*
X230208182Y-82234119D01*
X230208182Y-82234119D02*
X229874849Y-82234119D01*
X229874849Y-82234119D02*
X229779611Y-82281738D01*
X229779611Y-82281738D02*
X229731992Y-82329357D01*
X229731992Y-82329357D02*
X229684373Y-82424595D01*
X229684373Y-82424595D02*
X229684373Y-82519833D01*
X229684373Y-82519833D02*
X229731992Y-82615071D01*
X229731992Y-82615071D02*
X229779611Y-82662690D01*
X229779611Y-82662690D02*
X229874849Y-82710309D01*
X229874849Y-82710309D02*
X230208182Y-82710309D01*
X231608077Y-69483319D02*
X231274744Y-70483319D01*
X231274744Y-70483319D02*
X230941411Y-69483319D01*
X230608077Y-70483319D02*
X230608077Y-69483319D01*
X230608077Y-69483319D02*
X230274744Y-70197604D01*
X230274744Y-70197604D02*
X229941411Y-69483319D01*
X229941411Y-69483319D02*
X229941411Y-70483319D01*
X239894839Y-78030300D02*
X239751982Y-78077919D01*
X239751982Y-78077919D02*
X239513887Y-78077919D01*
X239513887Y-78077919D02*
X239418649Y-78030300D01*
X239418649Y-78030300D02*
X239371030Y-77982680D01*
X239371030Y-77982680D02*
X239323411Y-77887442D01*
X239323411Y-77887442D02*
X239323411Y-77792204D01*
X239323411Y-77792204D02*
X239371030Y-77696966D01*
X239371030Y-77696966D02*
X239418649Y-77649347D01*
X239418649Y-77649347D02*
X239513887Y-77601728D01*
X239513887Y-77601728D02*
X239704363Y-77554109D01*
X239704363Y-77554109D02*
X239799601Y-77506490D01*
X239799601Y-77506490D02*
X239847220Y-77458871D01*
X239847220Y-77458871D02*
X239894839Y-77363633D01*
X239894839Y-77363633D02*
X239894839Y-77268395D01*
X239894839Y-77268395D02*
X239847220Y-77173157D01*
X239847220Y-77173157D02*
X239799601Y-77125538D01*
X239799601Y-77125538D02*
X239704363Y-77077919D01*
X239704363Y-77077919D02*
X239466268Y-77077919D01*
X239466268Y-77077919D02*
X239323411Y-77125538D01*
X238894839Y-78077919D02*
X238894839Y-77077919D01*
X238894839Y-77077919D02*
X238513887Y-77077919D01*
X238513887Y-77077919D02*
X238418649Y-77125538D01*
X238418649Y-77125538D02*
X238371030Y-77173157D01*
X238371030Y-77173157D02*
X238323411Y-77268395D01*
X238323411Y-77268395D02*
X238323411Y-77411252D01*
X238323411Y-77411252D02*
X238371030Y-77506490D01*
X238371030Y-77506490D02*
X238418649Y-77554109D01*
X238418649Y-77554109D02*
X238513887Y-77601728D01*
X238513887Y-77601728D02*
X238894839Y-77601728D01*
X237323411Y-78077919D02*
X237656744Y-77601728D01*
X237894839Y-78077919D02*
X237894839Y-77077919D01*
X237894839Y-77077919D02*
X237513887Y-77077919D01*
X237513887Y-77077919D02*
X237418649Y-77125538D01*
X237418649Y-77125538D02*
X237371030Y-77173157D01*
X237371030Y-77173157D02*
X237323411Y-77268395D01*
X237323411Y-77268395D02*
X237323411Y-77411252D01*
X237323411Y-77411252D02*
X237371030Y-77506490D01*
X237371030Y-77506490D02*
X237418649Y-77554109D01*
X237418649Y-77554109D02*
X237513887Y-77601728D01*
X237513887Y-77601728D02*
X237894839Y-77601728D01*
X236894839Y-77554109D02*
X236561506Y-77554109D01*
X236418649Y-78077919D02*
X236894839Y-78077919D01*
X236894839Y-78077919D02*
X236894839Y-77077919D01*
X236894839Y-77077919D02*
X236418649Y-77077919D01*
X236037696Y-77792204D02*
X235561506Y-77792204D01*
X236132934Y-78077919D02*
X235799601Y-77077919D01*
X235799601Y-77077919D02*
X235466268Y-78077919D01*
X235132934Y-78077919D02*
X235132934Y-77077919D01*
X235132934Y-77077919D02*
X234894839Y-77077919D01*
X234894839Y-77077919D02*
X234751982Y-77125538D01*
X234751982Y-77125538D02*
X234656744Y-77220776D01*
X234656744Y-77220776D02*
X234609125Y-77316014D01*
X234609125Y-77316014D02*
X234561506Y-77506490D01*
X234561506Y-77506490D02*
X234561506Y-77649347D01*
X234561506Y-77649347D02*
X234609125Y-77839823D01*
X234609125Y-77839823D02*
X234656744Y-77935061D01*
X234656744Y-77935061D02*
X234751982Y-78030300D01*
X234751982Y-78030300D02*
X234894839Y-78077919D01*
X234894839Y-78077919D02*
X235132934Y-78077919D01*
X239866258Y-80617919D02*
X239342449Y-79951252D01*
X239866258Y-79951252D02*
X239342449Y-80617919D01*
X231779611Y-72197938D02*
X231874849Y-72150319D01*
X231874849Y-72150319D02*
X232017706Y-72150319D01*
X232017706Y-72150319D02*
X232160563Y-72197938D01*
X232160563Y-72197938D02*
X232255801Y-72293176D01*
X232255801Y-72293176D02*
X232303420Y-72388414D01*
X232303420Y-72388414D02*
X232351039Y-72578890D01*
X232351039Y-72578890D02*
X232351039Y-72721747D01*
X232351039Y-72721747D02*
X232303420Y-72912223D01*
X232303420Y-72912223D02*
X232255801Y-73007461D01*
X232255801Y-73007461D02*
X232160563Y-73102700D01*
X232160563Y-73102700D02*
X232017706Y-73150319D01*
X232017706Y-73150319D02*
X231922468Y-73150319D01*
X231922468Y-73150319D02*
X231779611Y-73102700D01*
X231779611Y-73102700D02*
X231731992Y-73055080D01*
X231731992Y-73055080D02*
X231731992Y-72721747D01*
X231731992Y-72721747D02*
X231922468Y-72721747D01*
X231303420Y-73150319D02*
X231303420Y-72150319D01*
X231303420Y-72150319D02*
X230731992Y-73150319D01*
X230731992Y-73150319D02*
X230731992Y-72150319D01*
X230255801Y-73150319D02*
X230255801Y-72150319D01*
X230255801Y-72150319D02*
X230017706Y-72150319D01*
X230017706Y-72150319D02*
X229874849Y-72197938D01*
X229874849Y-72197938D02*
X229779611Y-72293176D01*
X229779611Y-72293176D02*
X229731992Y-72388414D01*
X229731992Y-72388414D02*
X229684373Y-72578890D01*
X229684373Y-72578890D02*
X229684373Y-72721747D01*
X229684373Y-72721747D02*
X229731992Y-72912223D01*
X229731992Y-72912223D02*
X229779611Y-73007461D01*
X229779611Y-73007461D02*
X229874849Y-73102700D01*
X229874849Y-73102700D02*
X230017706Y-73150319D01*
X230017706Y-73150319D02*
X230255801Y-73150319D01*
X232227220Y-80694119D02*
X232227220Y-79694119D01*
X232227220Y-79694119D02*
X231893887Y-80408404D01*
X231893887Y-80408404D02*
X231560554Y-79694119D01*
X231560554Y-79694119D02*
X231560554Y-80694119D01*
X230560554Y-80694119D02*
X231131982Y-80694119D01*
X230846268Y-80694119D02*
X230846268Y-79694119D01*
X230846268Y-79694119D02*
X230941506Y-79836976D01*
X230941506Y-79836976D02*
X231036744Y-79932214D01*
X231036744Y-79932214D02*
X231131982Y-79979833D01*
X230179601Y-80408404D02*
X229703411Y-80408404D01*
X230274839Y-80694119D02*
X229941506Y-79694119D01*
X229941506Y-79694119D02*
X229608173Y-80694119D01*
X232379620Y-75563319D02*
X232379620Y-74563319D01*
X232379620Y-74563319D02*
X232046287Y-75277604D01*
X232046287Y-75277604D02*
X231712954Y-74563319D01*
X231712954Y-74563319D02*
X231712954Y-75563319D01*
X231284382Y-74658557D02*
X231236763Y-74610938D01*
X231236763Y-74610938D02*
X231141525Y-74563319D01*
X231141525Y-74563319D02*
X230903430Y-74563319D01*
X230903430Y-74563319D02*
X230808192Y-74610938D01*
X230808192Y-74610938D02*
X230760573Y-74658557D01*
X230760573Y-74658557D02*
X230712954Y-74753795D01*
X230712954Y-74753795D02*
X230712954Y-74849033D01*
X230712954Y-74849033D02*
X230760573Y-74991890D01*
X230760573Y-74991890D02*
X231332001Y-75563319D01*
X231332001Y-75563319D02*
X230712954Y-75563319D01*
X229951049Y-75039509D02*
X229808192Y-75087128D01*
X229808192Y-75087128D02*
X229760573Y-75134747D01*
X229760573Y-75134747D02*
X229712954Y-75229985D01*
X229712954Y-75229985D02*
X229712954Y-75372842D01*
X229712954Y-75372842D02*
X229760573Y-75468080D01*
X229760573Y-75468080D02*
X229808192Y-75515700D01*
X229808192Y-75515700D02*
X229903430Y-75563319D01*
X229903430Y-75563319D02*
X230284382Y-75563319D01*
X230284382Y-75563319D02*
X230284382Y-74563319D01*
X230284382Y-74563319D02*
X229951049Y-74563319D01*
X229951049Y-74563319D02*
X229855811Y-74610938D01*
X229855811Y-74610938D02*
X229808192Y-74658557D01*
X229808192Y-74658557D02*
X229760573Y-74753795D01*
X229760573Y-74753795D02*
X229760573Y-74849033D01*
X229760573Y-74849033D02*
X229808192Y-74944271D01*
X229808192Y-74944271D02*
X229855811Y-74991890D01*
X229855811Y-74991890D02*
X229951049Y-75039509D01*
X229951049Y-75039509D02*
X230284382Y-75039509D01*
X232039877Y-84875719D02*
X231706544Y-85875719D01*
X231706544Y-85875719D02*
X231373211Y-84875719D01*
X231039877Y-85875719D02*
X231039877Y-84875719D01*
X230373211Y-84875719D02*
X230182735Y-84875719D01*
X230182735Y-84875719D02*
X230087497Y-84923338D01*
X230087497Y-84923338D02*
X229992259Y-85018576D01*
X229992259Y-85018576D02*
X229944640Y-85209052D01*
X229944640Y-85209052D02*
X229944640Y-85542385D01*
X229944640Y-85542385D02*
X229992259Y-85732861D01*
X229992259Y-85732861D02*
X230087497Y-85828100D01*
X230087497Y-85828100D02*
X230182735Y-85875719D01*
X230182735Y-85875719D02*
X230373211Y-85875719D01*
X230373211Y-85875719D02*
X230468449Y-85828100D01*
X230468449Y-85828100D02*
X230563687Y-85732861D01*
X230563687Y-85732861D02*
X230611306Y-85542385D01*
X230611306Y-85542385D02*
X230611306Y-85209052D01*
X230611306Y-85209052D02*
X230563687Y-85018576D01*
X230563687Y-85018576D02*
X230468449Y-84923338D01*
X230468449Y-84923338D02*
X230373211Y-84875719D01*
X239821820Y-75487119D02*
X239821820Y-74487119D01*
X239821820Y-74487119D02*
X239488487Y-75201404D01*
X239488487Y-75201404D02*
X239155154Y-74487119D01*
X239155154Y-74487119D02*
X239155154Y-75487119D01*
X238726582Y-75439500D02*
X238583725Y-75487119D01*
X238583725Y-75487119D02*
X238345630Y-75487119D01*
X238345630Y-75487119D02*
X238250392Y-75439500D01*
X238250392Y-75439500D02*
X238202773Y-75391880D01*
X238202773Y-75391880D02*
X238155154Y-75296642D01*
X238155154Y-75296642D02*
X238155154Y-75201404D01*
X238155154Y-75201404D02*
X238202773Y-75106166D01*
X238202773Y-75106166D02*
X238250392Y-75058547D01*
X238250392Y-75058547D02*
X238345630Y-75010928D01*
X238345630Y-75010928D02*
X238536106Y-74963309D01*
X238536106Y-74963309D02*
X238631344Y-74915690D01*
X238631344Y-74915690D02*
X238678963Y-74868071D01*
X238678963Y-74868071D02*
X238726582Y-74772833D01*
X238726582Y-74772833D02*
X238726582Y-74677595D01*
X238726582Y-74677595D02*
X238678963Y-74582357D01*
X238678963Y-74582357D02*
X238631344Y-74534738D01*
X238631344Y-74534738D02*
X238536106Y-74487119D01*
X238536106Y-74487119D02*
X238298011Y-74487119D01*
X238298011Y-74487119D02*
X238155154Y-74534738D01*
X237774201Y-74582357D02*
X237726582Y-74534738D01*
X237726582Y-74534738D02*
X237631344Y-74487119D01*
X237631344Y-74487119D02*
X237393249Y-74487119D01*
X237393249Y-74487119D02*
X237298011Y-74534738D01*
X237298011Y-74534738D02*
X237250392Y-74582357D01*
X237250392Y-74582357D02*
X237202773Y-74677595D01*
X237202773Y-74677595D02*
X237202773Y-74772833D01*
X237202773Y-74772833D02*
X237250392Y-74915690D01*
X237250392Y-74915690D02*
X237821820Y-75487119D01*
X237821820Y-75487119D02*
X237202773Y-75487119D01*
X239821820Y-69883309D02*
X239488487Y-69883309D01*
X239345630Y-70407119D02*
X239821820Y-70407119D01*
X239821820Y-70407119D02*
X239821820Y-69407119D01*
X239821820Y-69407119D02*
X239345630Y-69407119D01*
X238917058Y-70407119D02*
X238917058Y-69407119D01*
X238917058Y-69407119D02*
X238345630Y-70407119D01*
X238345630Y-70407119D02*
X238345630Y-69407119D01*
X231881211Y-87336338D02*
X231976449Y-87288719D01*
X231976449Y-87288719D02*
X232119306Y-87288719D01*
X232119306Y-87288719D02*
X232262163Y-87336338D01*
X232262163Y-87336338D02*
X232357401Y-87431576D01*
X232357401Y-87431576D02*
X232405020Y-87526814D01*
X232405020Y-87526814D02*
X232452639Y-87717290D01*
X232452639Y-87717290D02*
X232452639Y-87860147D01*
X232452639Y-87860147D02*
X232405020Y-88050623D01*
X232405020Y-88050623D02*
X232357401Y-88145861D01*
X232357401Y-88145861D02*
X232262163Y-88241100D01*
X232262163Y-88241100D02*
X232119306Y-88288719D01*
X232119306Y-88288719D02*
X232024068Y-88288719D01*
X232024068Y-88288719D02*
X231881211Y-88241100D01*
X231881211Y-88241100D02*
X231833592Y-88193480D01*
X231833592Y-88193480D02*
X231833592Y-87860147D01*
X231833592Y-87860147D02*
X232024068Y-87860147D01*
X231405020Y-88288719D02*
X231405020Y-87288719D01*
X231405020Y-87288719D02*
X230833592Y-88288719D01*
X230833592Y-88288719D02*
X230833592Y-87288719D01*
X230357401Y-88288719D02*
X230357401Y-87288719D01*
X230357401Y-87288719D02*
X230119306Y-87288719D01*
X230119306Y-87288719D02*
X229976449Y-87336338D01*
X229976449Y-87336338D02*
X229881211Y-87431576D01*
X229881211Y-87431576D02*
X229833592Y-87526814D01*
X229833592Y-87526814D02*
X229785973Y-87717290D01*
X229785973Y-87717290D02*
X229785973Y-87860147D01*
X229785973Y-87860147D02*
X229833592Y-88050623D01*
X229833592Y-88050623D02*
X229881211Y-88145861D01*
X229881211Y-88145861D02*
X229976449Y-88241100D01*
X229976449Y-88241100D02*
X230119306Y-88288719D01*
X230119306Y-88288719D02*
X230357401Y-88288719D01*
X232303420Y-78179519D02*
X232303420Y-77179519D01*
X232303420Y-77179519D02*
X231970087Y-77893804D01*
X231970087Y-77893804D02*
X231636754Y-77179519D01*
X231636754Y-77179519D02*
X231636754Y-78179519D01*
X231208182Y-77274757D02*
X231160563Y-77227138D01*
X231160563Y-77227138D02*
X231065325Y-77179519D01*
X231065325Y-77179519D02*
X230827230Y-77179519D01*
X230827230Y-77179519D02*
X230731992Y-77227138D01*
X230731992Y-77227138D02*
X230684373Y-77274757D01*
X230684373Y-77274757D02*
X230636754Y-77369995D01*
X230636754Y-77369995D02*
X230636754Y-77465233D01*
X230636754Y-77465233D02*
X230684373Y-77608090D01*
X230684373Y-77608090D02*
X231255801Y-78179519D01*
X231255801Y-78179519D02*
X230636754Y-78179519D01*
X230255801Y-77893804D02*
X229779611Y-77893804D01*
X230351039Y-78179519D02*
X230017706Y-77179519D01*
X230017706Y-77179519D02*
X229684373Y-78179519D01*
X239821820Y-72820119D02*
X239821820Y-71820119D01*
X239821820Y-71820119D02*
X239488487Y-72534404D01*
X239488487Y-72534404D02*
X239155154Y-71820119D01*
X239155154Y-71820119D02*
X239155154Y-72820119D01*
X238726582Y-72772500D02*
X238583725Y-72820119D01*
X238583725Y-72820119D02*
X238345630Y-72820119D01*
X238345630Y-72820119D02*
X238250392Y-72772500D01*
X238250392Y-72772500D02*
X238202773Y-72724880D01*
X238202773Y-72724880D02*
X238155154Y-72629642D01*
X238155154Y-72629642D02*
X238155154Y-72534404D01*
X238155154Y-72534404D02*
X238202773Y-72439166D01*
X238202773Y-72439166D02*
X238250392Y-72391547D01*
X238250392Y-72391547D02*
X238345630Y-72343928D01*
X238345630Y-72343928D02*
X238536106Y-72296309D01*
X238536106Y-72296309D02*
X238631344Y-72248690D01*
X238631344Y-72248690D02*
X238678963Y-72201071D01*
X238678963Y-72201071D02*
X238726582Y-72105833D01*
X238726582Y-72105833D02*
X238726582Y-72010595D01*
X238726582Y-72010595D02*
X238678963Y-71915357D01*
X238678963Y-71915357D02*
X238631344Y-71867738D01*
X238631344Y-71867738D02*
X238536106Y-71820119D01*
X238536106Y-71820119D02*
X238298011Y-71820119D01*
X238298011Y-71820119D02*
X238155154Y-71867738D01*
X237202773Y-72820119D02*
X237774201Y-72820119D01*
X237488487Y-72820119D02*
X237488487Y-71820119D01*
X237488487Y-71820119D02*
X237583725Y-71962976D01*
X237583725Y-71962976D02*
X237678963Y-72058214D01*
X237678963Y-72058214D02*
X237774201Y-72105833D01*
X239917058Y-82954719D02*
X239393249Y-82288052D01*
X239917058Y-82288052D02*
X239393249Y-82954719D01*
X239742439Y-85624900D02*
X239599582Y-85672519D01*
X239599582Y-85672519D02*
X239361487Y-85672519D01*
X239361487Y-85672519D02*
X239266249Y-85624900D01*
X239266249Y-85624900D02*
X239218630Y-85577280D01*
X239218630Y-85577280D02*
X239171011Y-85482042D01*
X239171011Y-85482042D02*
X239171011Y-85386804D01*
X239171011Y-85386804D02*
X239218630Y-85291566D01*
X239218630Y-85291566D02*
X239266249Y-85243947D01*
X239266249Y-85243947D02*
X239361487Y-85196328D01*
X239361487Y-85196328D02*
X239551963Y-85148709D01*
X239551963Y-85148709D02*
X239647201Y-85101090D01*
X239647201Y-85101090D02*
X239694820Y-85053471D01*
X239694820Y-85053471D02*
X239742439Y-84958233D01*
X239742439Y-84958233D02*
X239742439Y-84862995D01*
X239742439Y-84862995D02*
X239694820Y-84767757D01*
X239694820Y-84767757D02*
X239647201Y-84720138D01*
X239647201Y-84720138D02*
X239551963Y-84672519D01*
X239551963Y-84672519D02*
X239313868Y-84672519D01*
X239313868Y-84672519D02*
X239171011Y-84720138D01*
X238885296Y-84672519D02*
X238313868Y-84672519D01*
X238599582Y-85672519D02*
X238599582Y-84672519D01*
X237980534Y-85672519D02*
X237980534Y-84672519D01*
X237980534Y-84672519D02*
X237599582Y-84672519D01*
X237599582Y-84672519D02*
X237504344Y-84720138D01*
X237504344Y-84720138D02*
X237456725Y-84767757D01*
X237456725Y-84767757D02*
X237409106Y-84862995D01*
X237409106Y-84862995D02*
X237409106Y-85005852D01*
X237409106Y-85005852D02*
X237456725Y-85101090D01*
X237456725Y-85101090D02*
X237504344Y-85148709D01*
X237504344Y-85148709D02*
X237599582Y-85196328D01*
X237599582Y-85196328D02*
X237980534Y-85196328D01*
X239771020Y-88263319D02*
X239771020Y-87263319D01*
X239771020Y-87263319D02*
X239532925Y-87263319D01*
X239532925Y-87263319D02*
X239390068Y-87310938D01*
X239390068Y-87310938D02*
X239294830Y-87406176D01*
X239294830Y-87406176D02*
X239247211Y-87501414D01*
X239247211Y-87501414D02*
X239199592Y-87691890D01*
X239199592Y-87691890D02*
X239199592Y-87834747D01*
X239199592Y-87834747D02*
X239247211Y-88025223D01*
X239247211Y-88025223D02*
X239294830Y-88120461D01*
X239294830Y-88120461D02*
X239390068Y-88215700D01*
X239390068Y-88215700D02*
X239532925Y-88263319D01*
X239532925Y-88263319D02*
X239771020Y-88263319D01*
X238771020Y-88263319D02*
X238771020Y-87263319D01*
X237723402Y-88263319D02*
X238056735Y-87787128D01*
X238294830Y-88263319D02*
X238294830Y-87263319D01*
X238294830Y-87263319D02*
X237913878Y-87263319D01*
X237913878Y-87263319D02*
X237818640Y-87310938D01*
X237818640Y-87310938D02*
X237771021Y-87358557D01*
X237771021Y-87358557D02*
X237723402Y-87453795D01*
X237723402Y-87453795D02*
X237723402Y-87596652D01*
X237723402Y-87596652D02*
X237771021Y-87691890D01*
X237771021Y-87691890D02*
X237818640Y-87739509D01*
X237818640Y-87739509D02*
X237913878Y-87787128D01*
X237913878Y-87787128D02*
X238294830Y-87787128D01*
D13*
X93959523Y-69996119D02*
X93959523Y-70710404D01*
X93959523Y-70710404D02*
X94007142Y-70853261D01*
X94007142Y-70853261D02*
X94102380Y-70948500D01*
X94102380Y-70948500D02*
X94245237Y-70996119D01*
X94245237Y-70996119D02*
X94340475Y-70996119D01*
X92959523Y-70996119D02*
X93530951Y-70996119D01*
X93245237Y-70996119D02*
X93245237Y-69996119D01*
X93245237Y-69996119D02*
X93340475Y-70138976D01*
X93340475Y-70138976D02*
X93435713Y-70234214D01*
X93435713Y-70234214D02*
X93530951Y-70281833D01*
X92578570Y-70091357D02*
X92530951Y-70043738D01*
X92530951Y-70043738D02*
X92435713Y-69996119D01*
X92435713Y-69996119D02*
X92197618Y-69996119D01*
X92197618Y-69996119D02*
X92102380Y-70043738D01*
X92102380Y-70043738D02*
X92054761Y-70091357D01*
X92054761Y-70091357D02*
X92007142Y-70186595D01*
X92007142Y-70186595D02*
X92007142Y-70281833D01*
X92007142Y-70281833D02*
X92054761Y-70424690D01*
X92054761Y-70424690D02*
X92626189Y-70996119D01*
X92626189Y-70996119D02*
X92007142Y-70996119D01*
D10*
X113304819Y-123951905D02*
X112304819Y-123951905D01*
X112304819Y-123951905D02*
X112304819Y-124190000D01*
X112304819Y-124190000D02*
X112352438Y-124332857D01*
X112352438Y-124332857D02*
X112447676Y-124428095D01*
X112447676Y-124428095D02*
X112542914Y-124475714D01*
X112542914Y-124475714D02*
X112733390Y-124523333D01*
X112733390Y-124523333D02*
X112876247Y-124523333D01*
X112876247Y-124523333D02*
X113066723Y-124475714D01*
X113066723Y-124475714D02*
X113161961Y-124428095D01*
X113161961Y-124428095D02*
X113257200Y-124332857D01*
X113257200Y-124332857D02*
X113304819Y-124190000D01*
X113304819Y-124190000D02*
X113304819Y-123951905D01*
X112304819Y-124856667D02*
X112304819Y-125523333D01*
X112304819Y-125523333D02*
X113304819Y-125094762D01*
X141845238Y-62480057D02*
X141940476Y-62432438D01*
X141940476Y-62432438D02*
X142035714Y-62337200D01*
X142035714Y-62337200D02*
X142178571Y-62194342D01*
X142178571Y-62194342D02*
X142273809Y-62146723D01*
X142273809Y-62146723D02*
X142369047Y-62146723D01*
X142321428Y-62384819D02*
X142416666Y-62337200D01*
X142416666Y-62337200D02*
X142511904Y-62241961D01*
X142511904Y-62241961D02*
X142559523Y-62051485D01*
X142559523Y-62051485D02*
X142559523Y-61718152D01*
X142559523Y-61718152D02*
X142511904Y-61527676D01*
X142511904Y-61527676D02*
X142416666Y-61432438D01*
X142416666Y-61432438D02*
X142321428Y-61384819D01*
X142321428Y-61384819D02*
X142130952Y-61384819D01*
X142130952Y-61384819D02*
X142035714Y-61432438D01*
X142035714Y-61432438D02*
X141940476Y-61527676D01*
X141940476Y-61527676D02*
X141892857Y-61718152D01*
X141892857Y-61718152D02*
X141892857Y-62051485D01*
X141892857Y-62051485D02*
X141940476Y-62241961D01*
X141940476Y-62241961D02*
X142035714Y-62337200D01*
X142035714Y-62337200D02*
X142130952Y-62384819D01*
X142130952Y-62384819D02*
X142321428Y-62384819D01*
X141511904Y-61480057D02*
X141464285Y-61432438D01*
X141464285Y-61432438D02*
X141369047Y-61384819D01*
X141369047Y-61384819D02*
X141130952Y-61384819D01*
X141130952Y-61384819D02*
X141035714Y-61432438D01*
X141035714Y-61432438D02*
X140988095Y-61480057D01*
X140988095Y-61480057D02*
X140940476Y-61575295D01*
X140940476Y-61575295D02*
X140940476Y-61670533D01*
X140940476Y-61670533D02*
X140988095Y-61813390D01*
X140988095Y-61813390D02*
X141559523Y-62384819D01*
X141559523Y-62384819D02*
X140940476Y-62384819D01*
X156424819Y-88322142D02*
X155948628Y-87988809D01*
X156424819Y-87750714D02*
X155424819Y-87750714D01*
X155424819Y-87750714D02*
X155424819Y-88131666D01*
X155424819Y-88131666D02*
X155472438Y-88226904D01*
X155472438Y-88226904D02*
X155520057Y-88274523D01*
X155520057Y-88274523D02*
X155615295Y-88322142D01*
X155615295Y-88322142D02*
X155758152Y-88322142D01*
X155758152Y-88322142D02*
X155853390Y-88274523D01*
X155853390Y-88274523D02*
X155901009Y-88226904D01*
X155901009Y-88226904D02*
X155948628Y-88131666D01*
X155948628Y-88131666D02*
X155948628Y-87750714D01*
X156424819Y-89274523D02*
X156424819Y-88703095D01*
X156424819Y-88988809D02*
X155424819Y-88988809D01*
X155424819Y-88988809D02*
X155567676Y-88893571D01*
X155567676Y-88893571D02*
X155662914Y-88798333D01*
X155662914Y-88798333D02*
X155710533Y-88703095D01*
X155520057Y-89655476D02*
X155472438Y-89703095D01*
X155472438Y-89703095D02*
X155424819Y-89798333D01*
X155424819Y-89798333D02*
X155424819Y-90036428D01*
X155424819Y-90036428D02*
X155472438Y-90131666D01*
X155472438Y-90131666D02*
X155520057Y-90179285D01*
X155520057Y-90179285D02*
X155615295Y-90226904D01*
X155615295Y-90226904D02*
X155710533Y-90226904D01*
X155710533Y-90226904D02*
X155853390Y-90179285D01*
X155853390Y-90179285D02*
X156424819Y-89607857D01*
X156424819Y-89607857D02*
X156424819Y-90226904D01*
X159364819Y-89298333D02*
X158888628Y-88965000D01*
X159364819Y-88726905D02*
X158364819Y-88726905D01*
X158364819Y-88726905D02*
X158364819Y-89107857D01*
X158364819Y-89107857D02*
X158412438Y-89203095D01*
X158412438Y-89203095D02*
X158460057Y-89250714D01*
X158460057Y-89250714D02*
X158555295Y-89298333D01*
X158555295Y-89298333D02*
X158698152Y-89298333D01*
X158698152Y-89298333D02*
X158793390Y-89250714D01*
X158793390Y-89250714D02*
X158841009Y-89203095D01*
X158841009Y-89203095D02*
X158888628Y-89107857D01*
X158888628Y-89107857D02*
X158888628Y-88726905D01*
X158364819Y-90155476D02*
X158364819Y-89965000D01*
X158364819Y-89965000D02*
X158412438Y-89869762D01*
X158412438Y-89869762D02*
X158460057Y-89822143D01*
X158460057Y-89822143D02*
X158602914Y-89726905D01*
X158602914Y-89726905D02*
X158793390Y-89679286D01*
X158793390Y-89679286D02*
X159174342Y-89679286D01*
X159174342Y-89679286D02*
X159269580Y-89726905D01*
X159269580Y-89726905D02*
X159317200Y-89774524D01*
X159317200Y-89774524D02*
X159364819Y-89869762D01*
X159364819Y-89869762D02*
X159364819Y-90060238D01*
X159364819Y-90060238D02*
X159317200Y-90155476D01*
X159317200Y-90155476D02*
X159269580Y-90203095D01*
X159269580Y-90203095D02*
X159174342Y-90250714D01*
X159174342Y-90250714D02*
X158936247Y-90250714D01*
X158936247Y-90250714D02*
X158841009Y-90203095D01*
X158841009Y-90203095D02*
X158793390Y-90155476D01*
X158793390Y-90155476D02*
X158745771Y-90060238D01*
X158745771Y-90060238D02*
X158745771Y-89869762D01*
X158745771Y-89869762D02*
X158793390Y-89774524D01*
X158793390Y-89774524D02*
X158841009Y-89726905D01*
X158841009Y-89726905D02*
X158936247Y-89679286D01*
X191536666Y-85254819D02*
X191869999Y-84778628D01*
X192108094Y-85254819D02*
X192108094Y-84254819D01*
X192108094Y-84254819D02*
X191727142Y-84254819D01*
X191727142Y-84254819D02*
X191631904Y-84302438D01*
X191631904Y-84302438D02*
X191584285Y-84350057D01*
X191584285Y-84350057D02*
X191536666Y-84445295D01*
X191536666Y-84445295D02*
X191536666Y-84588152D01*
X191536666Y-84588152D02*
X191584285Y-84683390D01*
X191584285Y-84683390D02*
X191631904Y-84731009D01*
X191631904Y-84731009D02*
X191727142Y-84778628D01*
X191727142Y-84778628D02*
X192108094Y-84778628D01*
X191155713Y-84350057D02*
X191108094Y-84302438D01*
X191108094Y-84302438D02*
X191012856Y-84254819D01*
X191012856Y-84254819D02*
X190774761Y-84254819D01*
X190774761Y-84254819D02*
X190679523Y-84302438D01*
X190679523Y-84302438D02*
X190631904Y-84350057D01*
X190631904Y-84350057D02*
X190584285Y-84445295D01*
X190584285Y-84445295D02*
X190584285Y-84540533D01*
X190584285Y-84540533D02*
X190631904Y-84683390D01*
X190631904Y-84683390D02*
X191203332Y-85254819D01*
X191203332Y-85254819D02*
X190584285Y-85254819D01*
X116119581Y-127172141D02*
X116167201Y-127124522D01*
X116167201Y-127124522D02*
X116214820Y-126981665D01*
X116214820Y-126981665D02*
X116214820Y-126886427D01*
X116214820Y-126886427D02*
X116167201Y-126743570D01*
X116167201Y-126743570D02*
X116071962Y-126648332D01*
X116071962Y-126648332D02*
X115976724Y-126600713D01*
X115976724Y-126600713D02*
X115786248Y-126553094D01*
X115786248Y-126553094D02*
X115643391Y-126553094D01*
X115643391Y-126553094D02*
X115452915Y-126600713D01*
X115452915Y-126600713D02*
X115357677Y-126648332D01*
X115357677Y-126648332D02*
X115262439Y-126743570D01*
X115262439Y-126743570D02*
X115214820Y-126886427D01*
X115214820Y-126886427D02*
X115214820Y-126981665D01*
X115214820Y-126981665D02*
X115262439Y-127124522D01*
X115262439Y-127124522D02*
X115310058Y-127172141D01*
X116214820Y-128124522D02*
X116214820Y-127553094D01*
X116214820Y-127838808D02*
X115214820Y-127838808D01*
X115214820Y-127838808D02*
X115357677Y-127743570D01*
X115357677Y-127743570D02*
X115452915Y-127648332D01*
X115452915Y-127648332D02*
X115500534Y-127553094D01*
X115310058Y-128505475D02*
X115262439Y-128553094D01*
X115262439Y-128553094D02*
X115214820Y-128648332D01*
X115214820Y-128648332D02*
X115214820Y-128886427D01*
X115214820Y-128886427D02*
X115262439Y-128981665D01*
X115262439Y-128981665D02*
X115310058Y-129029284D01*
X115310058Y-129029284D02*
X115405296Y-129076903D01*
X115405296Y-129076903D02*
X115500534Y-129076903D01*
X115500534Y-129076903D02*
X115643391Y-129029284D01*
X115643391Y-129029284D02*
X116214820Y-128457856D01*
X116214820Y-128457856D02*
X116214820Y-129076903D01*
X114922319Y-116721905D02*
X113922319Y-116721905D01*
X113922319Y-116721905D02*
X113922319Y-116960000D01*
X113922319Y-116960000D02*
X113969938Y-117102857D01*
X113969938Y-117102857D02*
X114065176Y-117198095D01*
X114065176Y-117198095D02*
X114160414Y-117245714D01*
X114160414Y-117245714D02*
X114350890Y-117293333D01*
X114350890Y-117293333D02*
X114493747Y-117293333D01*
X114493747Y-117293333D02*
X114684223Y-117245714D01*
X114684223Y-117245714D02*
X114779461Y-117198095D01*
X114779461Y-117198095D02*
X114874700Y-117102857D01*
X114874700Y-117102857D02*
X114922319Y-116960000D01*
X114922319Y-116960000D02*
X114922319Y-116721905D01*
X114350890Y-117864762D02*
X114303271Y-117769524D01*
X114303271Y-117769524D02*
X114255652Y-117721905D01*
X114255652Y-117721905D02*
X114160414Y-117674286D01*
X114160414Y-117674286D02*
X114112795Y-117674286D01*
X114112795Y-117674286D02*
X114017557Y-117721905D01*
X114017557Y-117721905D02*
X113969938Y-117769524D01*
X113969938Y-117769524D02*
X113922319Y-117864762D01*
X113922319Y-117864762D02*
X113922319Y-118055238D01*
X113922319Y-118055238D02*
X113969938Y-118150476D01*
X113969938Y-118150476D02*
X114017557Y-118198095D01*
X114017557Y-118198095D02*
X114112795Y-118245714D01*
X114112795Y-118245714D02*
X114160414Y-118245714D01*
X114160414Y-118245714D02*
X114255652Y-118198095D01*
X114255652Y-118198095D02*
X114303271Y-118150476D01*
X114303271Y-118150476D02*
X114350890Y-118055238D01*
X114350890Y-118055238D02*
X114350890Y-117864762D01*
X114350890Y-117864762D02*
X114398509Y-117769524D01*
X114398509Y-117769524D02*
X114446128Y-117721905D01*
X114446128Y-117721905D02*
X114541366Y-117674286D01*
X114541366Y-117674286D02*
X114731842Y-117674286D01*
X114731842Y-117674286D02*
X114827080Y-117721905D01*
X114827080Y-117721905D02*
X114874700Y-117769524D01*
X114874700Y-117769524D02*
X114922319Y-117864762D01*
X114922319Y-117864762D02*
X114922319Y-118055238D01*
X114922319Y-118055238D02*
X114874700Y-118150476D01*
X114874700Y-118150476D02*
X114827080Y-118198095D01*
X114827080Y-118198095D02*
X114731842Y-118245714D01*
X114731842Y-118245714D02*
X114541366Y-118245714D01*
X114541366Y-118245714D02*
X114446128Y-118198095D01*
X114446128Y-118198095D02*
X114398509Y-118150476D01*
X114398509Y-118150476D02*
X114350890Y-118055238D01*
X126614819Y-117133333D02*
X126138628Y-116800000D01*
X126614819Y-116561905D02*
X125614819Y-116561905D01*
X125614819Y-116561905D02*
X125614819Y-116942857D01*
X125614819Y-116942857D02*
X125662438Y-117038095D01*
X125662438Y-117038095D02*
X125710057Y-117085714D01*
X125710057Y-117085714D02*
X125805295Y-117133333D01*
X125805295Y-117133333D02*
X125948152Y-117133333D01*
X125948152Y-117133333D02*
X126043390Y-117085714D01*
X126043390Y-117085714D02*
X126091009Y-117038095D01*
X126091009Y-117038095D02*
X126138628Y-116942857D01*
X126138628Y-116942857D02*
X126138628Y-116561905D01*
X126614819Y-117609524D02*
X126614819Y-117800000D01*
X126614819Y-117800000D02*
X126567200Y-117895238D01*
X126567200Y-117895238D02*
X126519580Y-117942857D01*
X126519580Y-117942857D02*
X126376723Y-118038095D01*
X126376723Y-118038095D02*
X126186247Y-118085714D01*
X126186247Y-118085714D02*
X125805295Y-118085714D01*
X125805295Y-118085714D02*
X125710057Y-118038095D01*
X125710057Y-118038095D02*
X125662438Y-117990476D01*
X125662438Y-117990476D02*
X125614819Y-117895238D01*
X125614819Y-117895238D02*
X125614819Y-117704762D01*
X125614819Y-117704762D02*
X125662438Y-117609524D01*
X125662438Y-117609524D02*
X125710057Y-117561905D01*
X125710057Y-117561905D02*
X125805295Y-117514286D01*
X125805295Y-117514286D02*
X126043390Y-117514286D01*
X126043390Y-117514286D02*
X126138628Y-117561905D01*
X126138628Y-117561905D02*
X126186247Y-117609524D01*
X126186247Y-117609524D02*
X126233866Y-117704762D01*
X126233866Y-117704762D02*
X126233866Y-117895238D01*
X126233866Y-117895238D02*
X126186247Y-117990476D01*
X126186247Y-117990476D02*
X126138628Y-118038095D01*
X126138628Y-118038095D02*
X126043390Y-118085714D01*
X175339819Y-88327142D02*
X174863628Y-87993809D01*
X175339819Y-87755714D02*
X174339819Y-87755714D01*
X174339819Y-87755714D02*
X174339819Y-88136666D01*
X174339819Y-88136666D02*
X174387438Y-88231904D01*
X174387438Y-88231904D02*
X174435057Y-88279523D01*
X174435057Y-88279523D02*
X174530295Y-88327142D01*
X174530295Y-88327142D02*
X174673152Y-88327142D01*
X174673152Y-88327142D02*
X174768390Y-88279523D01*
X174768390Y-88279523D02*
X174816009Y-88231904D01*
X174816009Y-88231904D02*
X174863628Y-88136666D01*
X174863628Y-88136666D02*
X174863628Y-87755714D01*
X175339819Y-89279523D02*
X175339819Y-88708095D01*
X175339819Y-88993809D02*
X174339819Y-88993809D01*
X174339819Y-88993809D02*
X174482676Y-88898571D01*
X174482676Y-88898571D02*
X174577914Y-88803333D01*
X174577914Y-88803333D02*
X174625533Y-88708095D01*
X174673152Y-90136666D02*
X175339819Y-90136666D01*
X174292200Y-89898571D02*
X175006485Y-89660476D01*
X175006485Y-89660476D02*
X175006485Y-90279523D01*
X191998094Y-89664819D02*
X191998094Y-88664819D01*
X191998094Y-88664819D02*
X191759999Y-88664819D01*
X191759999Y-88664819D02*
X191617142Y-88712438D01*
X191617142Y-88712438D02*
X191521904Y-88807676D01*
X191521904Y-88807676D02*
X191474285Y-88902914D01*
X191474285Y-88902914D02*
X191426666Y-89093390D01*
X191426666Y-89093390D02*
X191426666Y-89236247D01*
X191426666Y-89236247D02*
X191474285Y-89426723D01*
X191474285Y-89426723D02*
X191521904Y-89521961D01*
X191521904Y-89521961D02*
X191617142Y-89617200D01*
X191617142Y-89617200D02*
X191759999Y-89664819D01*
X191759999Y-89664819D02*
X191998094Y-89664819D01*
X190569523Y-88998152D02*
X190569523Y-89664819D01*
X190807618Y-88617200D02*
X191045713Y-89331485D01*
X191045713Y-89331485D02*
X190426666Y-89331485D01*
X126255123Y-61229219D02*
X125921790Y-62229219D01*
X125921790Y-62229219D02*
X125588457Y-61229219D01*
X124683695Y-62229219D02*
X125017028Y-61753028D01*
X125255123Y-62229219D02*
X125255123Y-61229219D01*
X125255123Y-61229219D02*
X124874171Y-61229219D01*
X124874171Y-61229219D02*
X124778933Y-61276838D01*
X124778933Y-61276838D02*
X124731314Y-61324457D01*
X124731314Y-61324457D02*
X124683695Y-61419695D01*
X124683695Y-61419695D02*
X124683695Y-61562552D01*
X124683695Y-61562552D02*
X124731314Y-61657790D01*
X124731314Y-61657790D02*
X124778933Y-61705409D01*
X124778933Y-61705409D02*
X124874171Y-61753028D01*
X124874171Y-61753028D02*
X125255123Y-61753028D01*
X124350361Y-61229219D02*
X123731314Y-61229219D01*
X123731314Y-61229219D02*
X124064647Y-61610171D01*
X124064647Y-61610171D02*
X123921790Y-61610171D01*
X123921790Y-61610171D02*
X123826552Y-61657790D01*
X123826552Y-61657790D02*
X123778933Y-61705409D01*
X123778933Y-61705409D02*
X123731314Y-61800647D01*
X123731314Y-61800647D02*
X123731314Y-62038742D01*
X123731314Y-62038742D02*
X123778933Y-62133980D01*
X123778933Y-62133980D02*
X123826552Y-62181600D01*
X123826552Y-62181600D02*
X123921790Y-62229219D01*
X123921790Y-62229219D02*
X124207504Y-62229219D01*
X124207504Y-62229219D02*
X124302742Y-62181600D01*
X124302742Y-62181600D02*
X124350361Y-62133980D01*
X134318056Y-62838819D02*
X134318056Y-61838819D01*
X133841866Y-62838819D02*
X133841866Y-61838819D01*
X133841866Y-61838819D02*
X133270438Y-62838819D01*
X133270438Y-62838819D02*
X133270438Y-61838819D01*
X132794247Y-62457866D02*
X132032343Y-62457866D01*
X115104019Y-107338392D02*
X115104019Y-107528868D01*
X115104019Y-107528868D02*
X115151638Y-107624106D01*
X115151638Y-107624106D02*
X115246876Y-107719344D01*
X115246876Y-107719344D02*
X115437352Y-107766963D01*
X115437352Y-107766963D02*
X115770685Y-107766963D01*
X115770685Y-107766963D02*
X115961161Y-107719344D01*
X115961161Y-107719344D02*
X116056400Y-107624106D01*
X116056400Y-107624106D02*
X116104019Y-107528868D01*
X116104019Y-107528868D02*
X116104019Y-107338392D01*
X116104019Y-107338392D02*
X116056400Y-107243154D01*
X116056400Y-107243154D02*
X115961161Y-107147916D01*
X115961161Y-107147916D02*
X115770685Y-107100297D01*
X115770685Y-107100297D02*
X115437352Y-107100297D01*
X115437352Y-107100297D02*
X115246876Y-107147916D01*
X115246876Y-107147916D02*
X115151638Y-107243154D01*
X115151638Y-107243154D02*
X115104019Y-107338392D01*
X115104019Y-108195535D02*
X115913542Y-108195535D01*
X115913542Y-108195535D02*
X116008780Y-108243154D01*
X116008780Y-108243154D02*
X116056400Y-108290773D01*
X116056400Y-108290773D02*
X116104019Y-108386011D01*
X116104019Y-108386011D02*
X116104019Y-108576487D01*
X116104019Y-108576487D02*
X116056400Y-108671725D01*
X116056400Y-108671725D02*
X116008780Y-108719344D01*
X116008780Y-108719344D02*
X115913542Y-108766963D01*
X115913542Y-108766963D02*
X115104019Y-108766963D01*
X115104019Y-109100297D02*
X115104019Y-109671725D01*
X116104019Y-109386011D02*
X115104019Y-109386011D01*
X115723066Y-110005059D02*
X115723066Y-110766964D01*
X116104019Y-110386011D02*
X115342114Y-110386011D01*
X116665056Y-62788019D02*
X116665056Y-61788019D01*
X116188866Y-62788019D02*
X116188866Y-61788019D01*
X116188866Y-61788019D02*
X115617438Y-62788019D01*
X115617438Y-62788019D02*
X115617438Y-61788019D01*
X115141247Y-62407066D02*
X114379343Y-62407066D01*
X114760295Y-62788019D02*
X114760295Y-62026114D01*
X132792579Y-107587312D02*
X132792579Y-107777788D01*
X132792579Y-107777788D02*
X132840198Y-107873026D01*
X132840198Y-107873026D02*
X132935436Y-107968264D01*
X132935436Y-107968264D02*
X133125912Y-108015883D01*
X133125912Y-108015883D02*
X133459245Y-108015883D01*
X133459245Y-108015883D02*
X133649721Y-107968264D01*
X133649721Y-107968264D02*
X133744960Y-107873026D01*
X133744960Y-107873026D02*
X133792579Y-107777788D01*
X133792579Y-107777788D02*
X133792579Y-107587312D01*
X133792579Y-107587312D02*
X133744960Y-107492074D01*
X133744960Y-107492074D02*
X133649721Y-107396836D01*
X133649721Y-107396836D02*
X133459245Y-107349217D01*
X133459245Y-107349217D02*
X133125912Y-107349217D01*
X133125912Y-107349217D02*
X132935436Y-107396836D01*
X132935436Y-107396836D02*
X132840198Y-107492074D01*
X132840198Y-107492074D02*
X132792579Y-107587312D01*
X132792579Y-108444455D02*
X133602102Y-108444455D01*
X133602102Y-108444455D02*
X133697340Y-108492074D01*
X133697340Y-108492074D02*
X133744960Y-108539693D01*
X133744960Y-108539693D02*
X133792579Y-108634931D01*
X133792579Y-108634931D02*
X133792579Y-108825407D01*
X133792579Y-108825407D02*
X133744960Y-108920645D01*
X133744960Y-108920645D02*
X133697340Y-108968264D01*
X133697340Y-108968264D02*
X133602102Y-109015883D01*
X133602102Y-109015883D02*
X132792579Y-109015883D01*
X132792579Y-109349217D02*
X132792579Y-109920645D01*
X133792579Y-109634931D02*
X132792579Y-109634931D01*
X133411626Y-110253979D02*
X133411626Y-111015884D01*
X122159379Y-80301067D02*
X122159379Y-79824877D01*
X122159379Y-79824877D02*
X121159379Y-79824877D01*
X122159379Y-80634401D02*
X121159379Y-80634401D01*
X121159379Y-80634401D02*
X121873664Y-80967734D01*
X121873664Y-80967734D02*
X121159379Y-81301067D01*
X121159379Y-81301067D02*
X122159379Y-81301067D01*
X121254617Y-81729639D02*
X121206998Y-81777258D01*
X121206998Y-81777258D02*
X121159379Y-81872496D01*
X121159379Y-81872496D02*
X121159379Y-82110591D01*
X121159379Y-82110591D02*
X121206998Y-82205829D01*
X121206998Y-82205829D02*
X121254617Y-82253448D01*
X121254617Y-82253448D02*
X121349855Y-82301067D01*
X121349855Y-82301067D02*
X121445093Y-82301067D01*
X121445093Y-82301067D02*
X121587950Y-82253448D01*
X121587950Y-82253448D02*
X122159379Y-81682020D01*
X122159379Y-81682020D02*
X122159379Y-82301067D01*
X121159379Y-83205829D02*
X121159379Y-82729639D01*
X121159379Y-82729639D02*
X121635569Y-82682020D01*
X121635569Y-82682020D02*
X121587950Y-82729639D01*
X121587950Y-82729639D02*
X121540331Y-82824877D01*
X121540331Y-82824877D02*
X121540331Y-83062972D01*
X121540331Y-83062972D02*
X121587950Y-83158210D01*
X121587950Y-83158210D02*
X121635569Y-83205829D01*
X121635569Y-83205829D02*
X121730807Y-83253448D01*
X121730807Y-83253448D02*
X121968902Y-83253448D01*
X121968902Y-83253448D02*
X122064140Y-83205829D01*
X122064140Y-83205829D02*
X122111760Y-83158210D01*
X122111760Y-83158210D02*
X122159379Y-83062972D01*
X122159379Y-83062972D02*
X122159379Y-82824877D01*
X122159379Y-82824877D02*
X122111760Y-82729639D01*
X122111760Y-82729639D02*
X122064140Y-82682020D01*
X122159379Y-83729639D02*
X122159379Y-83920115D01*
X122159379Y-83920115D02*
X122111760Y-84015353D01*
X122111760Y-84015353D02*
X122064140Y-84062972D01*
X122064140Y-84062972D02*
X121921283Y-84158210D01*
X121921283Y-84158210D02*
X121730807Y-84205829D01*
X121730807Y-84205829D02*
X121349855Y-84205829D01*
X121349855Y-84205829D02*
X121254617Y-84158210D01*
X121254617Y-84158210D02*
X121206998Y-84110591D01*
X121206998Y-84110591D02*
X121159379Y-84015353D01*
X121159379Y-84015353D02*
X121159379Y-83824877D01*
X121159379Y-83824877D02*
X121206998Y-83729639D01*
X121206998Y-83729639D02*
X121254617Y-83682020D01*
X121254617Y-83682020D02*
X121349855Y-83634401D01*
X121349855Y-83634401D02*
X121587950Y-83634401D01*
X121587950Y-83634401D02*
X121683188Y-83682020D01*
X121683188Y-83682020D02*
X121730807Y-83729639D01*
X121730807Y-83729639D02*
X121778426Y-83824877D01*
X121778426Y-83824877D02*
X121778426Y-84015353D01*
X121778426Y-84015353D02*
X121730807Y-84110591D01*
X121730807Y-84110591D02*
X121683188Y-84158210D01*
X121683188Y-84158210D02*
X121587950Y-84205829D01*
X121159379Y-85062972D02*
X121159379Y-84872496D01*
X121159379Y-84872496D02*
X121206998Y-84777258D01*
X121206998Y-84777258D02*
X121254617Y-84729639D01*
X121254617Y-84729639D02*
X121397474Y-84634401D01*
X121397474Y-84634401D02*
X121587950Y-84586782D01*
X121587950Y-84586782D02*
X121968902Y-84586782D01*
X121968902Y-84586782D02*
X122064140Y-84634401D01*
X122064140Y-84634401D02*
X122111760Y-84682020D01*
X122111760Y-84682020D02*
X122159379Y-84777258D01*
X122159379Y-84777258D02*
X122159379Y-84967734D01*
X122159379Y-84967734D02*
X122111760Y-85062972D01*
X122111760Y-85062972D02*
X122064140Y-85110591D01*
X122064140Y-85110591D02*
X121968902Y-85158210D01*
X121968902Y-85158210D02*
X121730807Y-85158210D01*
X121730807Y-85158210D02*
X121635569Y-85110591D01*
X121635569Y-85110591D02*
X121587950Y-85062972D01*
X121587950Y-85062972D02*
X121540331Y-84967734D01*
X121540331Y-84967734D02*
X121540331Y-84777258D01*
X121540331Y-84777258D02*
X121587950Y-84682020D01*
X121587950Y-84682020D02*
X121635569Y-84634401D01*
X121635569Y-84634401D02*
X121730807Y-84586782D01*
X121635569Y-86682020D02*
X121683188Y-86824877D01*
X121683188Y-86824877D02*
X121730807Y-86872496D01*
X121730807Y-86872496D02*
X121826045Y-86920115D01*
X121826045Y-86920115D02*
X121968902Y-86920115D01*
X121968902Y-86920115D02*
X122064140Y-86872496D01*
X122064140Y-86872496D02*
X122111760Y-86824877D01*
X122111760Y-86824877D02*
X122159379Y-86729639D01*
X122159379Y-86729639D02*
X122159379Y-86348687D01*
X122159379Y-86348687D02*
X121159379Y-86348687D01*
X121159379Y-86348687D02*
X121159379Y-86682020D01*
X121159379Y-86682020D02*
X121206998Y-86777258D01*
X121206998Y-86777258D02*
X121254617Y-86824877D01*
X121254617Y-86824877D02*
X121349855Y-86872496D01*
X121349855Y-86872496D02*
X121445093Y-86872496D01*
X121445093Y-86872496D02*
X121540331Y-86824877D01*
X121540331Y-86824877D02*
X121587950Y-86777258D01*
X121587950Y-86777258D02*
X121635569Y-86682020D01*
X121635569Y-86682020D02*
X121635569Y-86348687D01*
X121492712Y-87777258D02*
X122159379Y-87777258D01*
X121492712Y-87348687D02*
X122016521Y-87348687D01*
X122016521Y-87348687D02*
X122111760Y-87396306D01*
X122111760Y-87396306D02*
X122159379Y-87491544D01*
X122159379Y-87491544D02*
X122159379Y-87634401D01*
X122159379Y-87634401D02*
X122111760Y-87729639D01*
X122111760Y-87729639D02*
X122064140Y-87777258D01*
X122111760Y-88682020D02*
X122159379Y-88586782D01*
X122159379Y-88586782D02*
X122159379Y-88396306D01*
X122159379Y-88396306D02*
X122111760Y-88301068D01*
X122111760Y-88301068D02*
X122064140Y-88253449D01*
X122064140Y-88253449D02*
X121968902Y-88205830D01*
X121968902Y-88205830D02*
X121683188Y-88205830D01*
X121683188Y-88205830D02*
X121587950Y-88253449D01*
X121587950Y-88253449D02*
X121540331Y-88301068D01*
X121540331Y-88301068D02*
X121492712Y-88396306D01*
X121492712Y-88396306D02*
X121492712Y-88586782D01*
X121492712Y-88586782D02*
X121540331Y-88682020D01*
X122159379Y-89110592D02*
X121159379Y-89110592D01*
X121778426Y-89205830D02*
X122159379Y-89491544D01*
X121492712Y-89491544D02*
X121873664Y-89110592D01*
X181763333Y-106084819D02*
X181763333Y-106799104D01*
X181763333Y-106799104D02*
X181810952Y-106941961D01*
X181810952Y-106941961D02*
X181906190Y-107037200D01*
X181906190Y-107037200D02*
X182049047Y-107084819D01*
X182049047Y-107084819D02*
X182144285Y-107084819D01*
X181239523Y-107084819D02*
X181049047Y-107084819D01*
X181049047Y-107084819D02*
X180953809Y-107037200D01*
X180953809Y-107037200D02*
X180906190Y-106989580D01*
X180906190Y-106989580D02*
X180810952Y-106846723D01*
X180810952Y-106846723D02*
X180763333Y-106656247D01*
X180763333Y-106656247D02*
X180763333Y-106275295D01*
X180763333Y-106275295D02*
X180810952Y-106180057D01*
X180810952Y-106180057D02*
X180858571Y-106132438D01*
X180858571Y-106132438D02*
X180953809Y-106084819D01*
X180953809Y-106084819D02*
X181144285Y-106084819D01*
X181144285Y-106084819D02*
X181239523Y-106132438D01*
X181239523Y-106132438D02*
X181287142Y-106180057D01*
X181287142Y-106180057D02*
X181334761Y-106275295D01*
X181334761Y-106275295D02*
X181334761Y-106513390D01*
X181334761Y-106513390D02*
X181287142Y-106608628D01*
X181287142Y-106608628D02*
X181239523Y-106656247D01*
X181239523Y-106656247D02*
X181144285Y-106703866D01*
X181144285Y-106703866D02*
X180953809Y-106703866D01*
X180953809Y-106703866D02*
X180858571Y-106656247D01*
X180858571Y-106656247D02*
X180810952Y-106608628D01*
X180810952Y-106608628D02*
X180763333Y-106513390D01*
X119264819Y-127057142D02*
X118788628Y-126723809D01*
X119264819Y-126485714D02*
X118264819Y-126485714D01*
X118264819Y-126485714D02*
X118264819Y-126866666D01*
X118264819Y-126866666D02*
X118312438Y-126961904D01*
X118312438Y-126961904D02*
X118360057Y-127009523D01*
X118360057Y-127009523D02*
X118455295Y-127057142D01*
X118455295Y-127057142D02*
X118598152Y-127057142D01*
X118598152Y-127057142D02*
X118693390Y-127009523D01*
X118693390Y-127009523D02*
X118741009Y-126961904D01*
X118741009Y-126961904D02*
X118788628Y-126866666D01*
X118788628Y-126866666D02*
X118788628Y-126485714D01*
X119264819Y-128009523D02*
X119264819Y-127438095D01*
X119264819Y-127723809D02*
X118264819Y-127723809D01*
X118264819Y-127723809D02*
X118407676Y-127628571D01*
X118407676Y-127628571D02*
X118502914Y-127533333D01*
X118502914Y-127533333D02*
X118550533Y-127438095D01*
X118264819Y-128628571D02*
X118264819Y-128723809D01*
X118264819Y-128723809D02*
X118312438Y-128819047D01*
X118312438Y-128819047D02*
X118360057Y-128866666D01*
X118360057Y-128866666D02*
X118455295Y-128914285D01*
X118455295Y-128914285D02*
X118645771Y-128961904D01*
X118645771Y-128961904D02*
X118883866Y-128961904D01*
X118883866Y-128961904D02*
X119074342Y-128914285D01*
X119074342Y-128914285D02*
X119169580Y-128866666D01*
X119169580Y-128866666D02*
X119217200Y-128819047D01*
X119217200Y-128819047D02*
X119264819Y-128723809D01*
X119264819Y-128723809D02*
X119264819Y-128628571D01*
X119264819Y-128628571D02*
X119217200Y-128533333D01*
X119217200Y-128533333D02*
X119169580Y-128485714D01*
X119169580Y-128485714D02*
X119074342Y-128438095D01*
X119074342Y-128438095D02*
X118883866Y-128390476D01*
X118883866Y-128390476D02*
X118645771Y-128390476D01*
X118645771Y-128390476D02*
X118455295Y-128438095D01*
X118455295Y-128438095D02*
X118360057Y-128485714D01*
X118360057Y-128485714D02*
X118312438Y-128533333D01*
X118312438Y-128533333D02*
X118264819Y-128628571D01*
X252724819Y-102140476D02*
X253439104Y-102140476D01*
X253439104Y-102140476D02*
X253581961Y-102092857D01*
X253581961Y-102092857D02*
X253677200Y-101997619D01*
X253677200Y-101997619D02*
X253724819Y-101854762D01*
X253724819Y-101854762D02*
X253724819Y-101759524D01*
X253724819Y-103140476D02*
X253724819Y-102569048D01*
X253724819Y-102854762D02*
X252724819Y-102854762D01*
X252724819Y-102854762D02*
X252867676Y-102759524D01*
X252867676Y-102759524D02*
X252962914Y-102664286D01*
X252962914Y-102664286D02*
X253010533Y-102569048D01*
X252724819Y-103759524D02*
X252724819Y-103854762D01*
X252724819Y-103854762D02*
X252772438Y-103950000D01*
X252772438Y-103950000D02*
X252820057Y-103997619D01*
X252820057Y-103997619D02*
X252915295Y-104045238D01*
X252915295Y-104045238D02*
X253105771Y-104092857D01*
X253105771Y-104092857D02*
X253343866Y-104092857D01*
X253343866Y-104092857D02*
X253534342Y-104045238D01*
X253534342Y-104045238D02*
X253629580Y-103997619D01*
X253629580Y-103997619D02*
X253677200Y-103950000D01*
X253677200Y-103950000D02*
X253724819Y-103854762D01*
X253724819Y-103854762D02*
X253724819Y-103759524D01*
X253724819Y-103759524D02*
X253677200Y-103664286D01*
X253677200Y-103664286D02*
X253629580Y-103616667D01*
X253629580Y-103616667D02*
X253534342Y-103569048D01*
X253534342Y-103569048D02*
X253343866Y-103521429D01*
X253343866Y-103521429D02*
X253105771Y-103521429D01*
X253105771Y-103521429D02*
X252915295Y-103569048D01*
X252915295Y-103569048D02*
X252820057Y-103616667D01*
X252820057Y-103616667D02*
X252772438Y-103664286D01*
X252772438Y-103664286D02*
X252724819Y-103759524D01*
X170830057Y-69824761D02*
X170782438Y-69729523D01*
X170782438Y-69729523D02*
X170687200Y-69634285D01*
X170687200Y-69634285D02*
X170544342Y-69491428D01*
X170544342Y-69491428D02*
X170496723Y-69396190D01*
X170496723Y-69396190D02*
X170496723Y-69300952D01*
X170734819Y-69348571D02*
X170687200Y-69253333D01*
X170687200Y-69253333D02*
X170591961Y-69158095D01*
X170591961Y-69158095D02*
X170401485Y-69110476D01*
X170401485Y-69110476D02*
X170068152Y-69110476D01*
X170068152Y-69110476D02*
X169877676Y-69158095D01*
X169877676Y-69158095D02*
X169782438Y-69253333D01*
X169782438Y-69253333D02*
X169734819Y-69348571D01*
X169734819Y-69348571D02*
X169734819Y-69539047D01*
X169734819Y-69539047D02*
X169782438Y-69634285D01*
X169782438Y-69634285D02*
X169877676Y-69729523D01*
X169877676Y-69729523D02*
X170068152Y-69777142D01*
X170068152Y-69777142D02*
X170401485Y-69777142D01*
X170401485Y-69777142D02*
X170591961Y-69729523D01*
X170591961Y-69729523D02*
X170687200Y-69634285D01*
X170687200Y-69634285D02*
X170734819Y-69539047D01*
X170734819Y-69539047D02*
X170734819Y-69348571D01*
X169734819Y-70110476D02*
X169734819Y-70729523D01*
X169734819Y-70729523D02*
X170115771Y-70396190D01*
X170115771Y-70396190D02*
X170115771Y-70539047D01*
X170115771Y-70539047D02*
X170163390Y-70634285D01*
X170163390Y-70634285D02*
X170211009Y-70681904D01*
X170211009Y-70681904D02*
X170306247Y-70729523D01*
X170306247Y-70729523D02*
X170544342Y-70729523D01*
X170544342Y-70729523D02*
X170639580Y-70681904D01*
X170639580Y-70681904D02*
X170687200Y-70634285D01*
X170687200Y-70634285D02*
X170734819Y-70539047D01*
X170734819Y-70539047D02*
X170734819Y-70253333D01*
X170734819Y-70253333D02*
X170687200Y-70158095D01*
X170687200Y-70158095D02*
X170639580Y-70110476D01*
X173814819Y-88242142D02*
X173338628Y-87908809D01*
X173814819Y-87670714D02*
X172814819Y-87670714D01*
X172814819Y-87670714D02*
X172814819Y-88051666D01*
X172814819Y-88051666D02*
X172862438Y-88146904D01*
X172862438Y-88146904D02*
X172910057Y-88194523D01*
X172910057Y-88194523D02*
X173005295Y-88242142D01*
X173005295Y-88242142D02*
X173148152Y-88242142D01*
X173148152Y-88242142D02*
X173243390Y-88194523D01*
X173243390Y-88194523D02*
X173291009Y-88146904D01*
X173291009Y-88146904D02*
X173338628Y-88051666D01*
X173338628Y-88051666D02*
X173338628Y-87670714D01*
X173814819Y-89194523D02*
X173814819Y-88623095D01*
X173814819Y-88908809D02*
X172814819Y-88908809D01*
X172814819Y-88908809D02*
X172957676Y-88813571D01*
X172957676Y-88813571D02*
X173052914Y-88718333D01*
X173052914Y-88718333D02*
X173100533Y-88623095D01*
X172814819Y-90099285D02*
X172814819Y-89623095D01*
X172814819Y-89623095D02*
X173291009Y-89575476D01*
X173291009Y-89575476D02*
X173243390Y-89623095D01*
X173243390Y-89623095D02*
X173195771Y-89718333D01*
X173195771Y-89718333D02*
X173195771Y-89956428D01*
X173195771Y-89956428D02*
X173243390Y-90051666D01*
X173243390Y-90051666D02*
X173291009Y-90099285D01*
X173291009Y-90099285D02*
X173386247Y-90146904D01*
X173386247Y-90146904D02*
X173624342Y-90146904D01*
X173624342Y-90146904D02*
X173719580Y-90099285D01*
X173719580Y-90099285D02*
X173767200Y-90051666D01*
X173767200Y-90051666D02*
X173814819Y-89956428D01*
X173814819Y-89956428D02*
X173814819Y-89718333D01*
X173814819Y-89718333D02*
X173767200Y-89623095D01*
X173767200Y-89623095D02*
X173719580Y-89575476D01*
X67806666Y-118074819D02*
X68139999Y-117598628D01*
X68378094Y-118074819D02*
X68378094Y-117074819D01*
X68378094Y-117074819D02*
X67997142Y-117074819D01*
X67997142Y-117074819D02*
X67901904Y-117122438D01*
X67901904Y-117122438D02*
X67854285Y-117170057D01*
X67854285Y-117170057D02*
X67806666Y-117265295D01*
X67806666Y-117265295D02*
X67806666Y-117408152D01*
X67806666Y-117408152D02*
X67854285Y-117503390D01*
X67854285Y-117503390D02*
X67901904Y-117551009D01*
X67901904Y-117551009D02*
X67997142Y-117598628D01*
X67997142Y-117598628D02*
X68378094Y-117598628D01*
X67473332Y-117074819D02*
X66854285Y-117074819D01*
X66854285Y-117074819D02*
X67187618Y-117455771D01*
X67187618Y-117455771D02*
X67044761Y-117455771D01*
X67044761Y-117455771D02*
X66949523Y-117503390D01*
X66949523Y-117503390D02*
X66901904Y-117551009D01*
X66901904Y-117551009D02*
X66854285Y-117646247D01*
X66854285Y-117646247D02*
X66854285Y-117884342D01*
X66854285Y-117884342D02*
X66901904Y-117979580D01*
X66901904Y-117979580D02*
X66949523Y-118027200D01*
X66949523Y-118027200D02*
X67044761Y-118074819D01*
X67044761Y-118074819D02*
X67330475Y-118074819D01*
X67330475Y-118074819D02*
X67425713Y-118027200D01*
X67425713Y-118027200D02*
X67473332Y-117979580D01*
X220882857Y-61889580D02*
X220930476Y-61937200D01*
X220930476Y-61937200D02*
X221073333Y-61984819D01*
X221073333Y-61984819D02*
X221168571Y-61984819D01*
X221168571Y-61984819D02*
X221311428Y-61937200D01*
X221311428Y-61937200D02*
X221406666Y-61841961D01*
X221406666Y-61841961D02*
X221454285Y-61746723D01*
X221454285Y-61746723D02*
X221501904Y-61556247D01*
X221501904Y-61556247D02*
X221501904Y-61413390D01*
X221501904Y-61413390D02*
X221454285Y-61222914D01*
X221454285Y-61222914D02*
X221406666Y-61127676D01*
X221406666Y-61127676D02*
X221311428Y-61032438D01*
X221311428Y-61032438D02*
X221168571Y-60984819D01*
X221168571Y-60984819D02*
X221073333Y-60984819D01*
X221073333Y-60984819D02*
X220930476Y-61032438D01*
X220930476Y-61032438D02*
X220882857Y-61080057D01*
X219930476Y-61984819D02*
X220501904Y-61984819D01*
X220216190Y-61984819D02*
X220216190Y-60984819D01*
X220216190Y-60984819D02*
X220311428Y-61127676D01*
X220311428Y-61127676D02*
X220406666Y-61222914D01*
X220406666Y-61222914D02*
X220501904Y-61270533D01*
X219025714Y-60984819D02*
X219501904Y-60984819D01*
X219501904Y-60984819D02*
X219549523Y-61461009D01*
X219549523Y-61461009D02*
X219501904Y-61413390D01*
X219501904Y-61413390D02*
X219406666Y-61365771D01*
X219406666Y-61365771D02*
X219168571Y-61365771D01*
X219168571Y-61365771D02*
X219073333Y-61413390D01*
X219073333Y-61413390D02*
X219025714Y-61461009D01*
X219025714Y-61461009D02*
X218978095Y-61556247D01*
X218978095Y-61556247D02*
X218978095Y-61794342D01*
X218978095Y-61794342D02*
X219025714Y-61889580D01*
X219025714Y-61889580D02*
X219073333Y-61937200D01*
X219073333Y-61937200D02*
X219168571Y-61984819D01*
X219168571Y-61984819D02*
X219406666Y-61984819D01*
X219406666Y-61984819D02*
X219501904Y-61937200D01*
X219501904Y-61937200D02*
X219549523Y-61889580D01*
X191416666Y-88174819D02*
X191749999Y-87698628D01*
X191988094Y-88174819D02*
X191988094Y-87174819D01*
X191988094Y-87174819D02*
X191607142Y-87174819D01*
X191607142Y-87174819D02*
X191511904Y-87222438D01*
X191511904Y-87222438D02*
X191464285Y-87270057D01*
X191464285Y-87270057D02*
X191416666Y-87365295D01*
X191416666Y-87365295D02*
X191416666Y-87508152D01*
X191416666Y-87508152D02*
X191464285Y-87603390D01*
X191464285Y-87603390D02*
X191511904Y-87651009D01*
X191511904Y-87651009D02*
X191607142Y-87698628D01*
X191607142Y-87698628D02*
X191988094Y-87698628D01*
X190511904Y-87174819D02*
X190988094Y-87174819D01*
X190988094Y-87174819D02*
X191035713Y-87651009D01*
X191035713Y-87651009D02*
X190988094Y-87603390D01*
X190988094Y-87603390D02*
X190892856Y-87555771D01*
X190892856Y-87555771D02*
X190654761Y-87555771D01*
X190654761Y-87555771D02*
X190559523Y-87603390D01*
X190559523Y-87603390D02*
X190511904Y-87651009D01*
X190511904Y-87651009D02*
X190464285Y-87746247D01*
X190464285Y-87746247D02*
X190464285Y-87984342D01*
X190464285Y-87984342D02*
X190511904Y-88079580D01*
X190511904Y-88079580D02*
X190559523Y-88127200D01*
X190559523Y-88127200D02*
X190654761Y-88174819D01*
X190654761Y-88174819D02*
X190892856Y-88174819D01*
X190892856Y-88174819D02*
X190988094Y-88127200D01*
X190988094Y-88127200D02*
X191035713Y-88079580D01*
X125039578Y-117077142D02*
X125087198Y-117029523D01*
X125087198Y-117029523D02*
X125134817Y-116886666D01*
X125134817Y-116886666D02*
X125134817Y-116791428D01*
X125134817Y-116791428D02*
X125087198Y-116648571D01*
X125087198Y-116648571D02*
X124991959Y-116553333D01*
X124991959Y-116553333D02*
X124896721Y-116505714D01*
X124896721Y-116505714D02*
X124706245Y-116458095D01*
X124706245Y-116458095D02*
X124563388Y-116458095D01*
X124563388Y-116458095D02*
X124372912Y-116505714D01*
X124372912Y-116505714D02*
X124277674Y-116553333D01*
X124277674Y-116553333D02*
X124182436Y-116648571D01*
X124182436Y-116648571D02*
X124134817Y-116791428D01*
X124134817Y-116791428D02*
X124134817Y-116886666D01*
X124134817Y-116886666D02*
X124182436Y-117029523D01*
X124182436Y-117029523D02*
X124230055Y-117077142D01*
X125134817Y-118029523D02*
X125134817Y-117458095D01*
X125134817Y-117743809D02*
X124134817Y-117743809D01*
X124134817Y-117743809D02*
X124277674Y-117648571D01*
X124277674Y-117648571D02*
X124372912Y-117553333D01*
X124372912Y-117553333D02*
X124420531Y-117458095D01*
X124134817Y-118362857D02*
X124134817Y-118981904D01*
X124134817Y-118981904D02*
X124515769Y-118648571D01*
X124515769Y-118648571D02*
X124515769Y-118791428D01*
X124515769Y-118791428D02*
X124563388Y-118886666D01*
X124563388Y-118886666D02*
X124611007Y-118934285D01*
X124611007Y-118934285D02*
X124706245Y-118981904D01*
X124706245Y-118981904D02*
X124944340Y-118981904D01*
X124944340Y-118981904D02*
X125039578Y-118934285D01*
X125039578Y-118934285D02*
X125087198Y-118886666D01*
X125087198Y-118886666D02*
X125134817Y-118791428D01*
X125134817Y-118791428D02*
X125134817Y-118505714D01*
X125134817Y-118505714D02*
X125087198Y-118410476D01*
X125087198Y-118410476D02*
X125039578Y-118362857D01*
X191436666Y-86609580D02*
X191484285Y-86657200D01*
X191484285Y-86657200D02*
X191627142Y-86704819D01*
X191627142Y-86704819D02*
X191722380Y-86704819D01*
X191722380Y-86704819D02*
X191865237Y-86657200D01*
X191865237Y-86657200D02*
X191960475Y-86561961D01*
X191960475Y-86561961D02*
X192008094Y-86466723D01*
X192008094Y-86466723D02*
X192055713Y-86276247D01*
X192055713Y-86276247D02*
X192055713Y-86133390D01*
X192055713Y-86133390D02*
X192008094Y-85942914D01*
X192008094Y-85942914D02*
X191960475Y-85847676D01*
X191960475Y-85847676D02*
X191865237Y-85752438D01*
X191865237Y-85752438D02*
X191722380Y-85704819D01*
X191722380Y-85704819D02*
X191627142Y-85704819D01*
X191627142Y-85704819D02*
X191484285Y-85752438D01*
X191484285Y-85752438D02*
X191436666Y-85800057D01*
X190960475Y-86704819D02*
X190769999Y-86704819D01*
X190769999Y-86704819D02*
X190674761Y-86657200D01*
X190674761Y-86657200D02*
X190627142Y-86609580D01*
X190627142Y-86609580D02*
X190531904Y-86466723D01*
X190531904Y-86466723D02*
X190484285Y-86276247D01*
X190484285Y-86276247D02*
X190484285Y-85895295D01*
X190484285Y-85895295D02*
X190531904Y-85800057D01*
X190531904Y-85800057D02*
X190579523Y-85752438D01*
X190579523Y-85752438D02*
X190674761Y-85704819D01*
X190674761Y-85704819D02*
X190865237Y-85704819D01*
X190865237Y-85704819D02*
X190960475Y-85752438D01*
X190960475Y-85752438D02*
X191008094Y-85800057D01*
X191008094Y-85800057D02*
X191055713Y-85895295D01*
X191055713Y-85895295D02*
X191055713Y-86133390D01*
X191055713Y-86133390D02*
X191008094Y-86228628D01*
X191008094Y-86228628D02*
X190960475Y-86276247D01*
X190960475Y-86276247D02*
X190865237Y-86323866D01*
X190865237Y-86323866D02*
X190674761Y-86323866D01*
X190674761Y-86323866D02*
X190579523Y-86276247D01*
X190579523Y-86276247D02*
X190531904Y-86228628D01*
X190531904Y-86228628D02*
X190484285Y-86133390D01*
X134059580Y-127347142D02*
X134107200Y-127299523D01*
X134107200Y-127299523D02*
X134154819Y-127156666D01*
X134154819Y-127156666D02*
X134154819Y-127061428D01*
X134154819Y-127061428D02*
X134107200Y-126918571D01*
X134107200Y-126918571D02*
X134011961Y-126823333D01*
X134011961Y-126823333D02*
X133916723Y-126775714D01*
X133916723Y-126775714D02*
X133726247Y-126728095D01*
X133726247Y-126728095D02*
X133583390Y-126728095D01*
X133583390Y-126728095D02*
X133392914Y-126775714D01*
X133392914Y-126775714D02*
X133297676Y-126823333D01*
X133297676Y-126823333D02*
X133202438Y-126918571D01*
X133202438Y-126918571D02*
X133154819Y-127061428D01*
X133154819Y-127061428D02*
X133154819Y-127156666D01*
X133154819Y-127156666D02*
X133202438Y-127299523D01*
X133202438Y-127299523D02*
X133250057Y-127347142D01*
X134154819Y-128299523D02*
X134154819Y-127728095D01*
X134154819Y-128013809D02*
X133154819Y-128013809D01*
X133154819Y-128013809D02*
X133297676Y-127918571D01*
X133297676Y-127918571D02*
X133392914Y-127823333D01*
X133392914Y-127823333D02*
X133440533Y-127728095D01*
X134154819Y-129251904D02*
X134154819Y-128680476D01*
X134154819Y-128966190D02*
X133154819Y-128966190D01*
X133154819Y-128966190D02*
X133297676Y-128870952D01*
X133297676Y-128870952D02*
X133392914Y-128775714D01*
X133392914Y-128775714D02*
X133440533Y-128680476D01*
X134109531Y-117282144D02*
X134157151Y-117234525D01*
X134157151Y-117234525D02*
X134204770Y-117091668D01*
X134204770Y-117091668D02*
X134204770Y-116996430D01*
X134204770Y-116996430D02*
X134157151Y-116853573D01*
X134157151Y-116853573D02*
X134061912Y-116758335D01*
X134061912Y-116758335D02*
X133966674Y-116710716D01*
X133966674Y-116710716D02*
X133776198Y-116663097D01*
X133776198Y-116663097D02*
X133633341Y-116663097D01*
X133633341Y-116663097D02*
X133442865Y-116710716D01*
X133442865Y-116710716D02*
X133347627Y-116758335D01*
X133347627Y-116758335D02*
X133252389Y-116853573D01*
X133252389Y-116853573D02*
X133204770Y-116996430D01*
X133204770Y-116996430D02*
X133204770Y-117091668D01*
X133204770Y-117091668D02*
X133252389Y-117234525D01*
X133252389Y-117234525D02*
X133300008Y-117282144D01*
X133300008Y-117663097D02*
X133252389Y-117710716D01*
X133252389Y-117710716D02*
X133204770Y-117805954D01*
X133204770Y-117805954D02*
X133204770Y-118044049D01*
X133204770Y-118044049D02*
X133252389Y-118139287D01*
X133252389Y-118139287D02*
X133300008Y-118186906D01*
X133300008Y-118186906D02*
X133395246Y-118234525D01*
X133395246Y-118234525D02*
X133490484Y-118234525D01*
X133490484Y-118234525D02*
X133633341Y-118186906D01*
X133633341Y-118186906D02*
X134204770Y-117615478D01*
X134204770Y-117615478D02*
X134204770Y-118234525D01*
X133204770Y-119091668D02*
X133204770Y-118901192D01*
X133204770Y-118901192D02*
X133252389Y-118805954D01*
X133252389Y-118805954D02*
X133300008Y-118758335D01*
X133300008Y-118758335D02*
X133442865Y-118663097D01*
X133442865Y-118663097D02*
X133633341Y-118615478D01*
X133633341Y-118615478D02*
X134014293Y-118615478D01*
X134014293Y-118615478D02*
X134109531Y-118663097D01*
X134109531Y-118663097D02*
X134157151Y-118710716D01*
X134157151Y-118710716D02*
X134204770Y-118805954D01*
X134204770Y-118805954D02*
X134204770Y-118996430D01*
X134204770Y-118996430D02*
X134157151Y-119091668D01*
X134157151Y-119091668D02*
X134109531Y-119139287D01*
X134109531Y-119139287D02*
X134014293Y-119186906D01*
X134014293Y-119186906D02*
X133776198Y-119186906D01*
X133776198Y-119186906D02*
X133680960Y-119139287D01*
X133680960Y-119139287D02*
X133633341Y-119091668D01*
X133633341Y-119091668D02*
X133585722Y-118996430D01*
X133585722Y-118996430D02*
X133585722Y-118805954D01*
X133585722Y-118805954D02*
X133633341Y-118710716D01*
X133633341Y-118710716D02*
X133680960Y-118663097D01*
X133680960Y-118663097D02*
X133776198Y-118615478D01*
X106363333Y-69744819D02*
X106363333Y-70459104D01*
X106363333Y-70459104D02*
X106410952Y-70601961D01*
X106410952Y-70601961D02*
X106506190Y-70697200D01*
X106506190Y-70697200D02*
X106649047Y-70744819D01*
X106649047Y-70744819D02*
X106744285Y-70744819D01*
X105982380Y-69744819D02*
X105363333Y-69744819D01*
X105363333Y-69744819D02*
X105696666Y-70125771D01*
X105696666Y-70125771D02*
X105553809Y-70125771D01*
X105553809Y-70125771D02*
X105458571Y-70173390D01*
X105458571Y-70173390D02*
X105410952Y-70221009D01*
X105410952Y-70221009D02*
X105363333Y-70316247D01*
X105363333Y-70316247D02*
X105363333Y-70554342D01*
X105363333Y-70554342D02*
X105410952Y-70649580D01*
X105410952Y-70649580D02*
X105458571Y-70697200D01*
X105458571Y-70697200D02*
X105553809Y-70744819D01*
X105553809Y-70744819D02*
X105839523Y-70744819D01*
X105839523Y-70744819D02*
X105934761Y-70697200D01*
X105934761Y-70697200D02*
X105982380Y-70649580D01*
X139239523Y-123084819D02*
X138906190Y-124084819D01*
X138906190Y-124084819D02*
X138572857Y-123084819D01*
X137668095Y-124084819D02*
X138001428Y-123608628D01*
X138239523Y-124084819D02*
X138239523Y-123084819D01*
X138239523Y-123084819D02*
X137858571Y-123084819D01*
X137858571Y-123084819D02*
X137763333Y-123132438D01*
X137763333Y-123132438D02*
X137715714Y-123180057D01*
X137715714Y-123180057D02*
X137668095Y-123275295D01*
X137668095Y-123275295D02*
X137668095Y-123418152D01*
X137668095Y-123418152D02*
X137715714Y-123513390D01*
X137715714Y-123513390D02*
X137763333Y-123561009D01*
X137763333Y-123561009D02*
X137858571Y-123608628D01*
X137858571Y-123608628D02*
X138239523Y-123608628D01*
X137287142Y-123180057D02*
X137239523Y-123132438D01*
X137239523Y-123132438D02*
X137144285Y-123084819D01*
X137144285Y-123084819D02*
X136906190Y-123084819D01*
X136906190Y-123084819D02*
X136810952Y-123132438D01*
X136810952Y-123132438D02*
X136763333Y-123180057D01*
X136763333Y-123180057D02*
X136715714Y-123275295D01*
X136715714Y-123275295D02*
X136715714Y-123370533D01*
X136715714Y-123370533D02*
X136763333Y-123513390D01*
X136763333Y-123513390D02*
X137334761Y-124084819D01*
X137334761Y-124084819D02*
X136715714Y-124084819D01*
X253064818Y-75276666D02*
X253779103Y-75276666D01*
X253779103Y-75276666D02*
X253921960Y-75229047D01*
X253921960Y-75229047D02*
X254017199Y-75133809D01*
X254017199Y-75133809D02*
X254064818Y-74990952D01*
X254064818Y-74990952D02*
X254064818Y-74895714D01*
X253064818Y-76229047D02*
X253064818Y-75752857D01*
X253064818Y-75752857D02*
X253541008Y-75705238D01*
X253541008Y-75705238D02*
X253493389Y-75752857D01*
X253493389Y-75752857D02*
X253445770Y-75848095D01*
X253445770Y-75848095D02*
X253445770Y-76086190D01*
X253445770Y-76086190D02*
X253493389Y-76181428D01*
X253493389Y-76181428D02*
X253541008Y-76229047D01*
X253541008Y-76229047D02*
X253636246Y-76276666D01*
X253636246Y-76276666D02*
X253874341Y-76276666D01*
X253874341Y-76276666D02*
X253969579Y-76229047D01*
X253969579Y-76229047D02*
X254017199Y-76181428D01*
X254017199Y-76181428D02*
X254064818Y-76086190D01*
X254064818Y-76086190D02*
X254064818Y-75848095D01*
X254064818Y-75848095D02*
X254017199Y-75752857D01*
X254017199Y-75752857D02*
X253969579Y-75705238D01*
X142884555Y-117917143D02*
X142932175Y-117869524D01*
X142932175Y-117869524D02*
X142979794Y-117726667D01*
X142979794Y-117726667D02*
X142979794Y-117631429D01*
X142979794Y-117631429D02*
X142932175Y-117488572D01*
X142932175Y-117488572D02*
X142836936Y-117393334D01*
X142836936Y-117393334D02*
X142741698Y-117345715D01*
X142741698Y-117345715D02*
X142551222Y-117298096D01*
X142551222Y-117298096D02*
X142408365Y-117298096D01*
X142408365Y-117298096D02*
X142217889Y-117345715D01*
X142217889Y-117345715D02*
X142122651Y-117393334D01*
X142122651Y-117393334D02*
X142027413Y-117488572D01*
X142027413Y-117488572D02*
X141979794Y-117631429D01*
X141979794Y-117631429D02*
X141979794Y-117726667D01*
X141979794Y-117726667D02*
X142027413Y-117869524D01*
X142027413Y-117869524D02*
X142075032Y-117917143D01*
X142075032Y-118298096D02*
X142027413Y-118345715D01*
X142027413Y-118345715D02*
X141979794Y-118440953D01*
X141979794Y-118440953D02*
X141979794Y-118679048D01*
X141979794Y-118679048D02*
X142027413Y-118774286D01*
X142027413Y-118774286D02*
X142075032Y-118821905D01*
X142075032Y-118821905D02*
X142170270Y-118869524D01*
X142170270Y-118869524D02*
X142265508Y-118869524D01*
X142265508Y-118869524D02*
X142408365Y-118821905D01*
X142408365Y-118821905D02*
X142979794Y-118250477D01*
X142979794Y-118250477D02*
X142979794Y-118869524D01*
X141979794Y-119774286D02*
X141979794Y-119298096D01*
X141979794Y-119298096D02*
X142455984Y-119250477D01*
X142455984Y-119250477D02*
X142408365Y-119298096D01*
X142408365Y-119298096D02*
X142360746Y-119393334D01*
X142360746Y-119393334D02*
X142360746Y-119631429D01*
X142360746Y-119631429D02*
X142408365Y-119726667D01*
X142408365Y-119726667D02*
X142455984Y-119774286D01*
X142455984Y-119774286D02*
X142551222Y-119821905D01*
X142551222Y-119821905D02*
X142789317Y-119821905D01*
X142789317Y-119821905D02*
X142884555Y-119774286D01*
X142884555Y-119774286D02*
X142932175Y-119726667D01*
X142932175Y-119726667D02*
X142979794Y-119631429D01*
X142979794Y-119631429D02*
X142979794Y-119393334D01*
X142979794Y-119393334D02*
X142932175Y-119298096D01*
X142932175Y-119298096D02*
X142884555Y-119250477D01*
X75164820Y-116793333D02*
X74688629Y-116460000D01*
X75164820Y-116221905D02*
X74164820Y-116221905D01*
X74164820Y-116221905D02*
X74164820Y-116602857D01*
X74164820Y-116602857D02*
X74212439Y-116698095D01*
X74212439Y-116698095D02*
X74260058Y-116745714D01*
X74260058Y-116745714D02*
X74355296Y-116793333D01*
X74355296Y-116793333D02*
X74498153Y-116793333D01*
X74498153Y-116793333D02*
X74593391Y-116745714D01*
X74593391Y-116745714D02*
X74641010Y-116698095D01*
X74641010Y-116698095D02*
X74688629Y-116602857D01*
X74688629Y-116602857D02*
X74688629Y-116221905D01*
X74498153Y-117650476D02*
X75164820Y-117650476D01*
X74117201Y-117412381D02*
X74831486Y-117174286D01*
X74831486Y-117174286D02*
X74831486Y-117793333D01*
X204753923Y-106300419D02*
X204420590Y-107300419D01*
X204420590Y-107300419D02*
X204087257Y-106300419D01*
X203182495Y-107300419D02*
X203515828Y-106824228D01*
X203753923Y-107300419D02*
X203753923Y-106300419D01*
X203753923Y-106300419D02*
X203372971Y-106300419D01*
X203372971Y-106300419D02*
X203277733Y-106348038D01*
X203277733Y-106348038D02*
X203230114Y-106395657D01*
X203230114Y-106395657D02*
X203182495Y-106490895D01*
X203182495Y-106490895D02*
X203182495Y-106633752D01*
X203182495Y-106633752D02*
X203230114Y-106728990D01*
X203230114Y-106728990D02*
X203277733Y-106776609D01*
X203277733Y-106776609D02*
X203372971Y-106824228D01*
X203372971Y-106824228D02*
X203753923Y-106824228D01*
X202230114Y-107300419D02*
X202801542Y-107300419D01*
X202515828Y-107300419D02*
X202515828Y-106300419D01*
X202515828Y-106300419D02*
X202611066Y-106443276D01*
X202611066Y-106443276D02*
X202706304Y-106538514D01*
X202706304Y-106538514D02*
X202801542Y-106586133D01*
X197189447Y-61113819D02*
X196998971Y-61113819D01*
X196998971Y-61113819D02*
X196903733Y-61161438D01*
X196903733Y-61161438D02*
X196808495Y-61256676D01*
X196808495Y-61256676D02*
X196760876Y-61447152D01*
X196760876Y-61447152D02*
X196760876Y-61780485D01*
X196760876Y-61780485D02*
X196808495Y-61970961D01*
X196808495Y-61970961D02*
X196903733Y-62066200D01*
X196903733Y-62066200D02*
X196998971Y-62113819D01*
X196998971Y-62113819D02*
X197189447Y-62113819D01*
X197189447Y-62113819D02*
X197284685Y-62066200D01*
X197284685Y-62066200D02*
X197379923Y-61970961D01*
X197379923Y-61970961D02*
X197427542Y-61780485D01*
X197427542Y-61780485D02*
X197427542Y-61447152D01*
X197427542Y-61447152D02*
X197379923Y-61256676D01*
X197379923Y-61256676D02*
X197284685Y-61161438D01*
X197284685Y-61161438D02*
X197189447Y-61113819D01*
X196332304Y-61113819D02*
X196332304Y-61923342D01*
X196332304Y-61923342D02*
X196284685Y-62018580D01*
X196284685Y-62018580D02*
X196237066Y-62066200D01*
X196237066Y-62066200D02*
X196141828Y-62113819D01*
X196141828Y-62113819D02*
X195951352Y-62113819D01*
X195951352Y-62113819D02*
X195856114Y-62066200D01*
X195856114Y-62066200D02*
X195808495Y-62018580D01*
X195808495Y-62018580D02*
X195760876Y-61923342D01*
X195760876Y-61923342D02*
X195760876Y-61113819D01*
X195427542Y-61113819D02*
X194856114Y-61113819D01*
X195141828Y-62113819D02*
X195141828Y-61113819D01*
X194522780Y-61732866D02*
X193760876Y-61732866D01*
X195669619Y-106241223D02*
X194669619Y-106241223D01*
X195669619Y-106717413D02*
X194669619Y-106717413D01*
X194669619Y-106717413D02*
X195669619Y-107288841D01*
X195669619Y-107288841D02*
X194669619Y-107288841D01*
X195288666Y-107765032D02*
X195288666Y-108526937D01*
X213928047Y-61113819D02*
X213737571Y-61113819D01*
X213737571Y-61113819D02*
X213642333Y-61161438D01*
X213642333Y-61161438D02*
X213547095Y-61256676D01*
X213547095Y-61256676D02*
X213499476Y-61447152D01*
X213499476Y-61447152D02*
X213499476Y-61780485D01*
X213499476Y-61780485D02*
X213547095Y-61970961D01*
X213547095Y-61970961D02*
X213642333Y-62066200D01*
X213642333Y-62066200D02*
X213737571Y-62113819D01*
X213737571Y-62113819D02*
X213928047Y-62113819D01*
X213928047Y-62113819D02*
X214023285Y-62066200D01*
X214023285Y-62066200D02*
X214118523Y-61970961D01*
X214118523Y-61970961D02*
X214166142Y-61780485D01*
X214166142Y-61780485D02*
X214166142Y-61447152D01*
X214166142Y-61447152D02*
X214118523Y-61256676D01*
X214118523Y-61256676D02*
X214023285Y-61161438D01*
X214023285Y-61161438D02*
X213928047Y-61113819D01*
X213070904Y-61113819D02*
X213070904Y-61923342D01*
X213070904Y-61923342D02*
X213023285Y-62018580D01*
X213023285Y-62018580D02*
X212975666Y-62066200D01*
X212975666Y-62066200D02*
X212880428Y-62113819D01*
X212880428Y-62113819D02*
X212689952Y-62113819D01*
X212689952Y-62113819D02*
X212594714Y-62066200D01*
X212594714Y-62066200D02*
X212547095Y-62018580D01*
X212547095Y-62018580D02*
X212499476Y-61923342D01*
X212499476Y-61923342D02*
X212499476Y-61113819D01*
X212166142Y-61113819D02*
X211594714Y-61113819D01*
X211880428Y-62113819D02*
X211880428Y-61113819D01*
X211261380Y-61732866D02*
X210499476Y-61732866D01*
X210880428Y-62113819D02*
X210880428Y-61351914D01*
X207140259Y-79652265D02*
X207140259Y-79176075D01*
X207140259Y-79176075D02*
X206140259Y-79176075D01*
X207140259Y-79985599D02*
X206140259Y-79985599D01*
X206140259Y-79985599D02*
X206854544Y-80318932D01*
X206854544Y-80318932D02*
X206140259Y-80652265D01*
X206140259Y-80652265D02*
X207140259Y-80652265D01*
X206235497Y-81080837D02*
X206187878Y-81128456D01*
X206187878Y-81128456D02*
X206140259Y-81223694D01*
X206140259Y-81223694D02*
X206140259Y-81461789D01*
X206140259Y-81461789D02*
X206187878Y-81557027D01*
X206187878Y-81557027D02*
X206235497Y-81604646D01*
X206235497Y-81604646D02*
X206330735Y-81652265D01*
X206330735Y-81652265D02*
X206425973Y-81652265D01*
X206425973Y-81652265D02*
X206568830Y-81604646D01*
X206568830Y-81604646D02*
X207140259Y-81033218D01*
X207140259Y-81033218D02*
X207140259Y-81652265D01*
X206140259Y-82557027D02*
X206140259Y-82080837D01*
X206140259Y-82080837D02*
X206616449Y-82033218D01*
X206616449Y-82033218D02*
X206568830Y-82080837D01*
X206568830Y-82080837D02*
X206521211Y-82176075D01*
X206521211Y-82176075D02*
X206521211Y-82414170D01*
X206521211Y-82414170D02*
X206568830Y-82509408D01*
X206568830Y-82509408D02*
X206616449Y-82557027D01*
X206616449Y-82557027D02*
X206711687Y-82604646D01*
X206711687Y-82604646D02*
X206949782Y-82604646D01*
X206949782Y-82604646D02*
X207045020Y-82557027D01*
X207045020Y-82557027D02*
X207092640Y-82509408D01*
X207092640Y-82509408D02*
X207140259Y-82414170D01*
X207140259Y-82414170D02*
X207140259Y-82176075D01*
X207140259Y-82176075D02*
X207092640Y-82080837D01*
X207092640Y-82080837D02*
X207045020Y-82033218D01*
X207140259Y-83080837D02*
X207140259Y-83271313D01*
X207140259Y-83271313D02*
X207092640Y-83366551D01*
X207092640Y-83366551D02*
X207045020Y-83414170D01*
X207045020Y-83414170D02*
X206902163Y-83509408D01*
X206902163Y-83509408D02*
X206711687Y-83557027D01*
X206711687Y-83557027D02*
X206330735Y-83557027D01*
X206330735Y-83557027D02*
X206235497Y-83509408D01*
X206235497Y-83509408D02*
X206187878Y-83461789D01*
X206187878Y-83461789D02*
X206140259Y-83366551D01*
X206140259Y-83366551D02*
X206140259Y-83176075D01*
X206140259Y-83176075D02*
X206187878Y-83080837D01*
X206187878Y-83080837D02*
X206235497Y-83033218D01*
X206235497Y-83033218D02*
X206330735Y-82985599D01*
X206330735Y-82985599D02*
X206568830Y-82985599D01*
X206568830Y-82985599D02*
X206664068Y-83033218D01*
X206664068Y-83033218D02*
X206711687Y-83080837D01*
X206711687Y-83080837D02*
X206759306Y-83176075D01*
X206759306Y-83176075D02*
X206759306Y-83366551D01*
X206759306Y-83366551D02*
X206711687Y-83461789D01*
X206711687Y-83461789D02*
X206664068Y-83509408D01*
X206664068Y-83509408D02*
X206568830Y-83557027D01*
X206140259Y-84414170D02*
X206140259Y-84223694D01*
X206140259Y-84223694D02*
X206187878Y-84128456D01*
X206187878Y-84128456D02*
X206235497Y-84080837D01*
X206235497Y-84080837D02*
X206378354Y-83985599D01*
X206378354Y-83985599D02*
X206568830Y-83937980D01*
X206568830Y-83937980D02*
X206949782Y-83937980D01*
X206949782Y-83937980D02*
X207045020Y-83985599D01*
X207045020Y-83985599D02*
X207092640Y-84033218D01*
X207092640Y-84033218D02*
X207140259Y-84128456D01*
X207140259Y-84128456D02*
X207140259Y-84318932D01*
X207140259Y-84318932D02*
X207092640Y-84414170D01*
X207092640Y-84414170D02*
X207045020Y-84461789D01*
X207045020Y-84461789D02*
X206949782Y-84509408D01*
X206949782Y-84509408D02*
X206711687Y-84509408D01*
X206711687Y-84509408D02*
X206616449Y-84461789D01*
X206616449Y-84461789D02*
X206568830Y-84414170D01*
X206568830Y-84414170D02*
X206521211Y-84318932D01*
X206521211Y-84318932D02*
X206521211Y-84128456D01*
X206521211Y-84128456D02*
X206568830Y-84033218D01*
X206568830Y-84033218D02*
X206616449Y-83985599D01*
X206616449Y-83985599D02*
X206711687Y-83937980D01*
X206616449Y-86033218D02*
X206664068Y-86176075D01*
X206664068Y-86176075D02*
X206711687Y-86223694D01*
X206711687Y-86223694D02*
X206806925Y-86271313D01*
X206806925Y-86271313D02*
X206949782Y-86271313D01*
X206949782Y-86271313D02*
X207045020Y-86223694D01*
X207045020Y-86223694D02*
X207092640Y-86176075D01*
X207092640Y-86176075D02*
X207140259Y-86080837D01*
X207140259Y-86080837D02*
X207140259Y-85699885D01*
X207140259Y-85699885D02*
X206140259Y-85699885D01*
X206140259Y-85699885D02*
X206140259Y-86033218D01*
X206140259Y-86033218D02*
X206187878Y-86128456D01*
X206187878Y-86128456D02*
X206235497Y-86176075D01*
X206235497Y-86176075D02*
X206330735Y-86223694D01*
X206330735Y-86223694D02*
X206425973Y-86223694D01*
X206425973Y-86223694D02*
X206521211Y-86176075D01*
X206521211Y-86176075D02*
X206568830Y-86128456D01*
X206568830Y-86128456D02*
X206616449Y-86033218D01*
X206616449Y-86033218D02*
X206616449Y-85699885D01*
X206473592Y-87128456D02*
X207140259Y-87128456D01*
X206473592Y-86699885D02*
X206997401Y-86699885D01*
X206997401Y-86699885D02*
X207092640Y-86747504D01*
X207092640Y-86747504D02*
X207140259Y-86842742D01*
X207140259Y-86842742D02*
X207140259Y-86985599D01*
X207140259Y-86985599D02*
X207092640Y-87080837D01*
X207092640Y-87080837D02*
X207045020Y-87128456D01*
X207092640Y-88033218D02*
X207140259Y-87937980D01*
X207140259Y-87937980D02*
X207140259Y-87747504D01*
X207140259Y-87747504D02*
X207092640Y-87652266D01*
X207092640Y-87652266D02*
X207045020Y-87604647D01*
X207045020Y-87604647D02*
X206949782Y-87557028D01*
X206949782Y-87557028D02*
X206664068Y-87557028D01*
X206664068Y-87557028D02*
X206568830Y-87604647D01*
X206568830Y-87604647D02*
X206521211Y-87652266D01*
X206521211Y-87652266D02*
X206473592Y-87747504D01*
X206473592Y-87747504D02*
X206473592Y-87937980D01*
X206473592Y-87937980D02*
X206521211Y-88033218D01*
X207140259Y-88461790D02*
X206140259Y-88461790D01*
X206759306Y-88557028D02*
X207140259Y-88842742D01*
X206473592Y-88842742D02*
X206854544Y-88461790D01*
X213114339Y-106652703D02*
X212114339Y-106652703D01*
X213114339Y-107128893D02*
X212114339Y-107128893D01*
X212114339Y-107128893D02*
X213114339Y-107700321D01*
X213114339Y-107700321D02*
X212114339Y-107700321D01*
X212733386Y-108176512D02*
X212733386Y-108938417D01*
X213114339Y-108557464D02*
X212352434Y-108557464D01*
X117774819Y-127233333D02*
X117298628Y-126900000D01*
X117774819Y-126661905D02*
X116774819Y-126661905D01*
X116774819Y-126661905D02*
X116774819Y-127042857D01*
X116774819Y-127042857D02*
X116822438Y-127138095D01*
X116822438Y-127138095D02*
X116870057Y-127185714D01*
X116870057Y-127185714D02*
X116965295Y-127233333D01*
X116965295Y-127233333D02*
X117108152Y-127233333D01*
X117108152Y-127233333D02*
X117203390Y-127185714D01*
X117203390Y-127185714D02*
X117251009Y-127138095D01*
X117251009Y-127138095D02*
X117298628Y-127042857D01*
X117298628Y-127042857D02*
X117298628Y-126661905D01*
X117203390Y-127804762D02*
X117155771Y-127709524D01*
X117155771Y-127709524D02*
X117108152Y-127661905D01*
X117108152Y-127661905D02*
X117012914Y-127614286D01*
X117012914Y-127614286D02*
X116965295Y-127614286D01*
X116965295Y-127614286D02*
X116870057Y-127661905D01*
X116870057Y-127661905D02*
X116822438Y-127709524D01*
X116822438Y-127709524D02*
X116774819Y-127804762D01*
X116774819Y-127804762D02*
X116774819Y-127995238D01*
X116774819Y-127995238D02*
X116822438Y-128090476D01*
X116822438Y-128090476D02*
X116870057Y-128138095D01*
X116870057Y-128138095D02*
X116965295Y-128185714D01*
X116965295Y-128185714D02*
X117012914Y-128185714D01*
X117012914Y-128185714D02*
X117108152Y-128138095D01*
X117108152Y-128138095D02*
X117155771Y-128090476D01*
X117155771Y-128090476D02*
X117203390Y-127995238D01*
X117203390Y-127995238D02*
X117203390Y-127804762D01*
X117203390Y-127804762D02*
X117251009Y-127709524D01*
X117251009Y-127709524D02*
X117298628Y-127661905D01*
X117298628Y-127661905D02*
X117393866Y-127614286D01*
X117393866Y-127614286D02*
X117584342Y-127614286D01*
X117584342Y-127614286D02*
X117679580Y-127661905D01*
X117679580Y-127661905D02*
X117727200Y-127709524D01*
X117727200Y-127709524D02*
X117774819Y-127804762D01*
X117774819Y-127804762D02*
X117774819Y-127995238D01*
X117774819Y-127995238D02*
X117727200Y-128090476D01*
X117727200Y-128090476D02*
X117679580Y-128138095D01*
X117679580Y-128138095D02*
X117584342Y-128185714D01*
X117584342Y-128185714D02*
X117393866Y-128185714D01*
X117393866Y-128185714D02*
X117298628Y-128138095D01*
X117298628Y-128138095D02*
X117251009Y-128090476D01*
X117251009Y-128090476D02*
X117203390Y-127995238D01*
X81224819Y-84101905D02*
X80224819Y-84101905D01*
X80224819Y-84101905D02*
X80224819Y-84340000D01*
X80224819Y-84340000D02*
X80272438Y-84482857D01*
X80272438Y-84482857D02*
X80367676Y-84578095D01*
X80367676Y-84578095D02*
X80462914Y-84625714D01*
X80462914Y-84625714D02*
X80653390Y-84673333D01*
X80653390Y-84673333D02*
X80796247Y-84673333D01*
X80796247Y-84673333D02*
X80986723Y-84625714D01*
X80986723Y-84625714D02*
X81081961Y-84578095D01*
X81081961Y-84578095D02*
X81177200Y-84482857D01*
X81177200Y-84482857D02*
X81224819Y-84340000D01*
X81224819Y-84340000D02*
X81224819Y-84101905D01*
X80224819Y-85578095D02*
X80224819Y-85101905D01*
X80224819Y-85101905D02*
X80701009Y-85054286D01*
X80701009Y-85054286D02*
X80653390Y-85101905D01*
X80653390Y-85101905D02*
X80605771Y-85197143D01*
X80605771Y-85197143D02*
X80605771Y-85435238D01*
X80605771Y-85435238D02*
X80653390Y-85530476D01*
X80653390Y-85530476D02*
X80701009Y-85578095D01*
X80701009Y-85578095D02*
X80796247Y-85625714D01*
X80796247Y-85625714D02*
X81034342Y-85625714D01*
X81034342Y-85625714D02*
X81129580Y-85578095D01*
X81129580Y-85578095D02*
X81177200Y-85530476D01*
X81177200Y-85530476D02*
X81224819Y-85435238D01*
X81224819Y-85435238D02*
X81224819Y-85197143D01*
X81224819Y-85197143D02*
X81177200Y-85101905D01*
X81177200Y-85101905D02*
X81129580Y-85054286D01*
X253299523Y-109904819D02*
X253299523Y-110619104D01*
X253299523Y-110619104D02*
X253347142Y-110761961D01*
X253347142Y-110761961D02*
X253442380Y-110857200D01*
X253442380Y-110857200D02*
X253585237Y-110904819D01*
X253585237Y-110904819D02*
X253680475Y-110904819D01*
X252299523Y-110904819D02*
X252870951Y-110904819D01*
X252585237Y-110904819D02*
X252585237Y-109904819D01*
X252585237Y-109904819D02*
X252680475Y-110047676D01*
X252680475Y-110047676D02*
X252775713Y-110142914D01*
X252775713Y-110142914D02*
X252870951Y-110190533D01*
X251347142Y-110904819D02*
X251918570Y-110904819D01*
X251632856Y-110904819D02*
X251632856Y-109904819D01*
X251632856Y-109904819D02*
X251728094Y-110047676D01*
X251728094Y-110047676D02*
X251823332Y-110142914D01*
X251823332Y-110142914D02*
X251918570Y-110190533D01*
D14*
%TO.C,J6*%
X244875001Y-70620000D02*
X244875001Y-73280000D01*
X244875001Y-70620000D02*
X250014999Y-70620000D01*
X244875001Y-73280000D02*
X250014999Y-73280000D01*
X250014999Y-70620000D02*
X250014999Y-73280000D01*
X252615000Y-71950000D02*
X252615000Y-73280000D01*
X252615000Y-73280000D02*
X251285000Y-73280000D01*
%TO.C,R11*%
X122617500Y-114667258D02*
X122617500Y-114192742D01*
X123662500Y-114667258D02*
X123662500Y-114192742D01*
%TO.C,D3*%
X69505000Y-118495000D02*
X69505000Y-119965000D01*
X69505000Y-119965000D02*
X71790000Y-119965000D01*
X71790000Y-118495000D02*
X69505000Y-118495000D01*
%TO.C,R17*%
X176537500Y-74172742D02*
X176537500Y-74647258D01*
X177582500Y-74172742D02*
X177582500Y-74647258D01*
D15*
%TO.C,J8*%
X136910000Y-81540001D02*
X143410000Y-81540001D01*
X136910000Y-93540000D02*
X136910000Y-81540001D01*
X143410000Y-81540001D02*
X143410000Y-93540000D01*
X143410000Y-93540000D02*
X136910000Y-93540000D01*
D14*
%TO.C,R13*%
X130224536Y-124830343D02*
X130224536Y-125304859D01*
X131269536Y-124830343D02*
X131269536Y-125304859D01*
%TO.C,C14*%
X171380000Y-91829419D02*
X171380000Y-92110581D01*
X172400000Y-91829419D02*
X172400000Y-92110581D01*
%TO.C,J7*%
X218990000Y-76410000D02*
X221650000Y-76410000D01*
X218990000Y-84090000D02*
X218990000Y-76410000D01*
X218990000Y-84090000D02*
X221650000Y-84090000D01*
X220320000Y-73810000D02*
X221650000Y-73810000D01*
X221650000Y-73810000D02*
X221650000Y-75140000D01*
X221650000Y-84090000D02*
X221650000Y-76410000D01*
%TO.C,J4*%
X244900000Y-77940000D02*
X244900000Y-80600000D01*
X244900000Y-77940000D02*
X250039998Y-77940000D01*
X244900000Y-80600000D02*
X250039998Y-80600000D01*
X250039998Y-77940000D02*
X250039998Y-80600000D01*
X252639999Y-79270000D02*
X252639999Y-80600000D01*
X252639999Y-80600000D02*
X251309999Y-80600000D01*
%TO.C,C10*%
X156924436Y-91788856D02*
X156924436Y-92070018D01*
X157944436Y-91788856D02*
X157944436Y-92070018D01*
%TO.C,R7*%
X131709287Y-125304859D02*
X131709287Y-124830343D01*
X132754287Y-125304859D02*
X132754287Y-124830343D01*
%TO.C,R16*%
X172677500Y-65407258D02*
X172677500Y-64932742D01*
X173722500Y-65407258D02*
X173722500Y-64932742D01*
%TO.C,C8*%
X70854419Y-115640000D02*
X71135581Y-115640000D01*
X70854419Y-116660000D02*
X71135581Y-116660000D01*
%TO.C,DRV1*%
X227276200Y-89580100D02*
X242276200Y-89580100D01*
X242276200Y-69080100D01*
X227276200Y-69080100D01*
X227276200Y-89580100D01*
X240260200Y-71045300D02*
X242276200Y-71045300D01*
X242276200Y-69080100D01*
X240260200Y-69080100D01*
X240260200Y-71045300D01*
D15*
%TO.C,J12*%
X89900000Y-71540001D02*
X96400000Y-71540001D01*
X89900000Y-83540000D02*
X89900000Y-71540001D01*
X96400000Y-71540001D02*
X96400000Y-83540000D01*
X96400000Y-83540000D02*
X89900000Y-83540000D01*
D14*
%TO.C,D7*%
X113545000Y-123205000D02*
X113545000Y-125490000D01*
X115015000Y-123205000D02*
X113545000Y-123205000D01*
X115015000Y-125490000D02*
X115015000Y-123205000D01*
D12*
%TO.C,Q2*%
X146687000Y-74470000D02*
X148255001Y-74470000D01*
X148255001Y-64310000D02*
X146687000Y-64310000D01*
X148255001Y-74470000D02*
X148255001Y-64310000D01*
D15*
X155787000Y-66850000D02*
X155787000Y-66850000D01*
X155887000Y-66850000D02*
X155887000Y-66850000D01*
X155787000Y-66850000D02*
G75*
G02*
X155887000Y-66850000I50000J0D01*
G01*
X155887000Y-66850000D02*
G75*
G02*
X155787000Y-66850000I-50000J0D01*
G01*
D14*
%TO.C,R12*%
X155447500Y-92192258D02*
X155447500Y-91717742D01*
X156492500Y-92192258D02*
X156492500Y-91717742D01*
%TO.C,R6*%
X158397500Y-91717742D02*
X158397500Y-92192258D01*
X159442500Y-91717742D02*
X159442500Y-92192258D01*
%TO.C,R2*%
X188412742Y-84157500D02*
X188887258Y-84157500D01*
X188412742Y-85202500D02*
X188887258Y-85202500D01*
%TO.C,C12*%
X115254805Y-124814502D02*
X115254805Y-124533340D01*
X116274805Y-124814502D02*
X116274805Y-124533340D01*
%TO.C,D8*%
X113755000Y-114000000D02*
X113755000Y-116285000D01*
X113755000Y-116285000D02*
X115225000Y-116285000D01*
X115225000Y-116285000D02*
X115225000Y-114000000D01*
%TO.C,R9*%
X125567500Y-114667258D02*
X125567500Y-114192742D01*
X126612500Y-114667258D02*
X126612500Y-114192742D01*
%TO.C,R14*%
X174327500Y-91742742D02*
X174327500Y-92217258D01*
X175372500Y-91742742D02*
X175372500Y-92217258D01*
%TO.C,D4*%
X187860000Y-89865000D02*
X190145000Y-89865000D01*
X190145000Y-88395000D02*
X187860000Y-88395000D01*
X190145000Y-89865000D02*
X190145000Y-88395000D01*
%TO.C,VR3*%
X114200000Y-63170000D02*
X114200000Y-106170000D01*
X114200000Y-106170000D02*
X134700000Y-106170000D01*
D11*
X123843240Y-69628080D02*
X123843240Y-99595000D01*
X123843240Y-99595000D02*
X121028920Y-94870601D01*
X123858480Y-99600080D02*
X126596600Y-94931560D01*
D14*
X134700000Y-63170000D02*
X114200000Y-63170000D01*
X134700000Y-106170000D02*
X134700000Y-63170000D01*
D15*
%TO.C,J9*%
X180460000Y-105340000D02*
X180460001Y-96340000D01*
X180460001Y-96340000D02*
X192460000Y-96340000D01*
D12*
X185060000Y-105890000D02*
X185060000Y-105890000D01*
X185260000Y-105890000D02*
X185260000Y-105890000D01*
D15*
X192460000Y-96340000D02*
X192460000Y-105340000D01*
X192460000Y-105340000D02*
X180460000Y-105340000D01*
D12*
X185060000Y-105890000D02*
G75*
G02*
X185260000Y-105890000I100000J1D01*
G01*
X185260000Y-105890000D02*
G75*
G02*
X185060000Y-105890000I-100000J1D01*
G01*
D14*
%TO.C,R10*%
X118212304Y-124431664D02*
X118212304Y-124906180D01*
X119257304Y-124431664D02*
X119257304Y-124906180D01*
D15*
%TO.C,J10*%
X239990000Y-99630000D02*
X251989999Y-99630000D01*
X239990000Y-106130000D02*
X239990000Y-99630000D01*
X251989999Y-99630000D02*
X251989999Y-106130000D01*
X251989999Y-106130000D02*
X239990000Y-106130000D01*
D14*
%TO.C,Q3*%
X171370000Y-68270000D02*
X171370000Y-71870000D01*
X171381522Y-68231522D02*
G75*
G02*
X175820001Y-70070000I1838478J-1838478D01*
G01*
X175820000Y-70070000D02*
G75*
G02*
X171381522Y-71908478I-2600000J0D01*
G01*
%TO.C,R15*%
X172837500Y-91737742D02*
X172837500Y-92212258D01*
X173882500Y-91737742D02*
X173882500Y-92212258D01*
%TO.C,R3*%
X71227258Y-117167500D02*
X70752742Y-117167500D01*
X71227258Y-118212500D02*
X70752742Y-118212500D01*
D12*
%TO.C,C15*%
X216140000Y-62680000D02*
X225640000Y-62680000D01*
X216140000Y-70980000D02*
X222365000Y-70980001D01*
D14*
%TO.C,R5*%
X188427742Y-87107500D02*
X188902258Y-87107500D01*
X188427742Y-88152500D02*
X188902258Y-88152500D01*
%TO.C,C13*%
X124099999Y-114279419D02*
X124099999Y-114560581D01*
X125119999Y-114279419D02*
X125119999Y-114560581D01*
%TO.C,C9*%
X188529420Y-85660000D02*
X188810580Y-85660000D01*
X188529420Y-86680000D02*
X188810580Y-86680000D01*
%TO.C,C11*%
X133197036Y-125210581D02*
X133197036Y-124929419D01*
X134217036Y-125210581D02*
X134217036Y-124929419D01*
%TO.C,C26*%
X133134975Y-121150581D02*
X133134975Y-120869419D01*
X134154975Y-121150581D02*
X134154975Y-120869419D01*
D12*
%TO.C,J3*%
X100740000Y-76040000D02*
X100740000Y-76040000D01*
X100740000Y-76240000D02*
X100740000Y-76240000D01*
D15*
X101290000Y-71440000D02*
X110290000Y-71440001D01*
X101290000Y-83440000D02*
X101290000Y-71440000D01*
X110290000Y-71440001D02*
X110290000Y-83440000D01*
X110290000Y-83440000D02*
X101290000Y-83440000D01*
D12*
X100740000Y-76040000D02*
G75*
G02*
X100740000Y-76240000I1J-100000D01*
G01*
X100740000Y-76240000D02*
G75*
G02*
X100740000Y-76040000I1J100000D01*
G01*
%TO.C,VR2*%
X134760000Y-116480000D02*
X141260000Y-116480000D01*
X134760000Y-119980000D02*
X134760000Y-116480000D01*
X134885000Y-115955000D02*
X134885000Y-114205000D01*
X141260000Y-116480000D02*
X141260000Y-119980000D01*
X141260000Y-119980000D02*
X134760000Y-119980000D01*
D14*
%TO.C,J5*%
X244870000Y-74280000D02*
X244870000Y-76940000D01*
X244870000Y-74280000D02*
X250009998Y-74280000D01*
X244870000Y-76940000D02*
X250009998Y-76940000D01*
X250009998Y-74280000D02*
X250009998Y-76940000D01*
X252609999Y-75610000D02*
X252609999Y-76940000D01*
X252609999Y-76940000D02*
X251279999Y-76940000D01*
%TO.C,C25*%
X141874975Y-115299420D02*
X141874975Y-115580582D01*
X142894975Y-115299420D02*
X142894975Y-115580582D01*
%TO.C,R4*%
X72757501Y-116722742D02*
X72757501Y-117197258D01*
X73802501Y-116722742D02*
X73802501Y-117197258D01*
%TO.C,VR1*%
X193690000Y-62450000D02*
X193690000Y-105450000D01*
X193690000Y-105450000D02*
X214190000Y-105450000D01*
D11*
X204531520Y-69019920D02*
X201793400Y-73688440D01*
X204546760Y-69025000D02*
X207361080Y-73749399D01*
X204546760Y-98991920D02*
X204546760Y-69025000D01*
D14*
X214190000Y-62450000D02*
X193690000Y-62450000D01*
X214190000Y-105450000D02*
X214190000Y-62450000D01*
%TO.C,R8*%
X116722305Y-124906180D02*
X116722305Y-124431664D01*
X117767305Y-124906180D02*
X117767305Y-124431664D01*
%TO.C,D5*%
X80085000Y-85935000D02*
X80085000Y-88220000D01*
X81555000Y-85935000D02*
X80085000Y-85935000D01*
X81555000Y-88220000D02*
X81555000Y-85935000D01*
D12*
%TO.C,J11*%
X239870000Y-111410000D02*
X254370000Y-111410000D01*
X254370000Y-111410000D02*
X254370000Y-120410000D01*
X254370000Y-120410000D02*
X247120000Y-120410000D01*
X237567001Y-116470999D02*
G75*
G02*
X237438999Y-116470999I-64001J0D01*
G01*
X237438999Y-116470999D02*
G75*
G02*
X237567001Y-116470999I64001J0D01*
G01*
%TD*%
M02*
