%TF.GenerationSoftware,KiCad,Pcbnew,8.0.2*%
%TF.CreationDate,2024-07-24T19:31:49-06:00*%
%TF.ProjectId,Animation Platter_V1,416e696d-6174-4696-9f6e-20506c617474,rev?*%
%TF.SameCoordinates,Original*%
%TF.FileFunction,Legend,Top*%
%TF.FilePolarity,Positive*%
%FSLAX46Y46*%
G04 Gerber Fmt 4.6, Leading zero omitted, Abs format (unit mm)*
G04 Created by KiCad (PCBNEW 8.0.2) date 2024-07-24 19:31:49*
%MOMM*%
%LPD*%
G01*
G04 APERTURE LIST*
%ADD10C,0.200000*%
%ADD11C,0.400000*%
%ADD12C,0.150000*%
%ADD13C,0.120000*%
%ADD14C,0.100000*%
G04 APERTURE END LIST*
D10*
X227360000Y-82840000D02*
X227360000Y-82840000D01*
X226560011Y-82844233D02*
X226560011Y-82844233D01*
X225760022Y-82848465D02*
X225760022Y-82848465D01*
X224960034Y-82852698D02*
X224960034Y-82852698D01*
X224160045Y-82856931D02*
X224160045Y-82856931D01*
X223360056Y-82861164D02*
X223360056Y-82861164D01*
X222560067Y-82865396D02*
X222560067Y-82865396D01*
X221760078Y-82869629D02*
X221760078Y-82869629D01*
X227430000Y-75180000D02*
X227430000Y-75180000D01*
X226630005Y-75177302D02*
X226630005Y-75177302D01*
X225830009Y-75174604D02*
X225830009Y-75174604D01*
X225030014Y-75171906D02*
X225030014Y-75171906D01*
X224230018Y-75169207D02*
X224230018Y-75169207D01*
X223430023Y-75166509D02*
X223430023Y-75166509D01*
X222630027Y-75163811D02*
X222630027Y-75163811D01*
X221830032Y-75161113D02*
X221830032Y-75161113D01*
X227430000Y-77790000D02*
X227430000Y-77790000D01*
X226630074Y-77779117D02*
X226630074Y-77779117D01*
X225830148Y-77768233D02*
X225830148Y-77768233D01*
X225030222Y-77757350D02*
X225030222Y-77757350D01*
X224230296Y-77746467D02*
X224230296Y-77746467D01*
X223430370Y-77735583D02*
X223430370Y-77735583D01*
X222630444Y-77724700D02*
X222630444Y-77724700D01*
X221830518Y-77713817D02*
X221830518Y-77713817D01*
X227480000Y-80310000D02*
X227480000Y-80310000D01*
X226680000Y-80310000D02*
X226680000Y-80310000D01*
X225880000Y-80310000D02*
X225880000Y-80310000D01*
X225080000Y-80310000D02*
X225080000Y-80310000D01*
X224280000Y-80310000D02*
X224280000Y-80310000D01*
X223480000Y-80310000D02*
X223480000Y-80310000D01*
X222680000Y-80310000D02*
X222680000Y-80310000D01*
X221880000Y-80310000D02*
X221880000Y-80310000D01*
D11*
X128774438Y-105379700D02*
X127822057Y-105927319D01*
X128774438Y-106522557D02*
X126774438Y-106272557D01*
X126774438Y-106272557D02*
X126774438Y-105510652D01*
X126774438Y-105510652D02*
X126869676Y-105332081D01*
X126869676Y-105332081D02*
X126964914Y-105248747D01*
X126964914Y-105248747D02*
X127155390Y-105177319D01*
X127155390Y-105177319D02*
X127441104Y-105213033D01*
X127441104Y-105213033D02*
X127631580Y-105332081D01*
X127631580Y-105332081D02*
X127726819Y-105439223D01*
X127726819Y-105439223D02*
X127822057Y-105641604D01*
X127822057Y-105641604D02*
X127822057Y-106403509D01*
X128774438Y-104522557D02*
X126774438Y-104272557D01*
X126774438Y-104272557D02*
X126774438Y-103510652D01*
X126774438Y-103510652D02*
X126869676Y-103332081D01*
X126869676Y-103332081D02*
X126964914Y-103248747D01*
X126964914Y-103248747D02*
X127155390Y-103177319D01*
X127155390Y-103177319D02*
X127441104Y-103213033D01*
X127441104Y-103213033D02*
X127631580Y-103332081D01*
X127631580Y-103332081D02*
X127726819Y-103439223D01*
X127726819Y-103439223D02*
X127822057Y-103641604D01*
X127822057Y-103641604D02*
X127822057Y-104403509D01*
X128774438Y-102522557D02*
X126774438Y-102272557D01*
X126774438Y-102272557D02*
X128203009Y-101784462D01*
X128203009Y-101784462D02*
X126774438Y-100939223D01*
X126774438Y-100939223D02*
X128774438Y-101189223D01*
X81253633Y-70803009D02*
X82206014Y-70803009D01*
X80991728Y-71374438D02*
X81908395Y-69374438D01*
X81908395Y-69374438D02*
X82325061Y-71374438D01*
X83158395Y-70041104D02*
X82991728Y-71374438D01*
X83134585Y-70231580D02*
X83241728Y-70136342D01*
X83241728Y-70136342D02*
X83444109Y-70041104D01*
X83444109Y-70041104D02*
X83729823Y-70041104D01*
X83729823Y-70041104D02*
X83908395Y-70136342D01*
X83908395Y-70136342D02*
X83979823Y-70326819D01*
X83979823Y-70326819D02*
X83848871Y-71374438D01*
X84801252Y-71374438D02*
X84967919Y-70041104D01*
X85051252Y-69374438D02*
X84944109Y-69469676D01*
X84944109Y-69469676D02*
X85027443Y-69564914D01*
X85027443Y-69564914D02*
X85134586Y-69469676D01*
X85134586Y-69469676D02*
X85051252Y-69374438D01*
X85051252Y-69374438D02*
X85027443Y-69564914D01*
X85753633Y-71374438D02*
X85920300Y-70041104D01*
X85896490Y-70231580D02*
X86003633Y-70136342D01*
X86003633Y-70136342D02*
X86206014Y-70041104D01*
X86206014Y-70041104D02*
X86491728Y-70041104D01*
X86491728Y-70041104D02*
X86670300Y-70136342D01*
X86670300Y-70136342D02*
X86741728Y-70326819D01*
X86741728Y-70326819D02*
X86610776Y-71374438D01*
X86741728Y-70326819D02*
X86860776Y-70136342D01*
X86860776Y-70136342D02*
X87063157Y-70041104D01*
X87063157Y-70041104D02*
X87348871Y-70041104D01*
X87348871Y-70041104D02*
X87527443Y-70136342D01*
X87527443Y-70136342D02*
X87598871Y-70326819D01*
X87598871Y-70326819D02*
X87467919Y-71374438D01*
X89277443Y-71374438D02*
X89408395Y-70326819D01*
X89408395Y-70326819D02*
X89336967Y-70136342D01*
X89336967Y-70136342D02*
X89158395Y-70041104D01*
X89158395Y-70041104D02*
X88777443Y-70041104D01*
X88777443Y-70041104D02*
X88575062Y-70136342D01*
X89289348Y-71279200D02*
X89086967Y-71374438D01*
X89086967Y-71374438D02*
X88610776Y-71374438D01*
X88610776Y-71374438D02*
X88432205Y-71279200D01*
X88432205Y-71279200D02*
X88360776Y-71088723D01*
X88360776Y-71088723D02*
X88384586Y-70898247D01*
X88384586Y-70898247D02*
X88503634Y-70707771D01*
X88503634Y-70707771D02*
X88706015Y-70612533D01*
X88706015Y-70612533D02*
X89182205Y-70612533D01*
X89182205Y-70612533D02*
X89384586Y-70517295D01*
X90110777Y-70041104D02*
X90872681Y-70041104D01*
X90479824Y-69374438D02*
X90265539Y-71088723D01*
X90265539Y-71088723D02*
X90336967Y-71279200D01*
X90336967Y-71279200D02*
X90515539Y-71374438D01*
X90515539Y-71374438D02*
X90706015Y-71374438D01*
X91372681Y-71374438D02*
X91539348Y-70041104D01*
X91622681Y-69374438D02*
X91515538Y-69469676D01*
X91515538Y-69469676D02*
X91598872Y-69564914D01*
X91598872Y-69564914D02*
X91706015Y-69469676D01*
X91706015Y-69469676D02*
X91622681Y-69374438D01*
X91622681Y-69374438D02*
X91598872Y-69564914D01*
X92610777Y-71374438D02*
X92432205Y-71279200D01*
X92432205Y-71279200D02*
X92348872Y-71183961D01*
X92348872Y-71183961D02*
X92277443Y-70993485D01*
X92277443Y-70993485D02*
X92348872Y-70422057D01*
X92348872Y-70422057D02*
X92467919Y-70231580D01*
X92467919Y-70231580D02*
X92575062Y-70136342D01*
X92575062Y-70136342D02*
X92777443Y-70041104D01*
X92777443Y-70041104D02*
X93063157Y-70041104D01*
X93063157Y-70041104D02*
X93241729Y-70136342D01*
X93241729Y-70136342D02*
X93325062Y-70231580D01*
X93325062Y-70231580D02*
X93396491Y-70422057D01*
X93396491Y-70422057D02*
X93325062Y-70993485D01*
X93325062Y-70993485D02*
X93206015Y-71183961D01*
X93206015Y-71183961D02*
X93098872Y-71279200D01*
X93098872Y-71279200D02*
X92896491Y-71374438D01*
X92896491Y-71374438D02*
X92610777Y-71374438D01*
X94301253Y-70041104D02*
X94134586Y-71374438D01*
X94277443Y-70231580D02*
X94384586Y-70136342D01*
X94384586Y-70136342D02*
X94586967Y-70041104D01*
X94586967Y-70041104D02*
X94872681Y-70041104D01*
X94872681Y-70041104D02*
X95051253Y-70136342D01*
X95051253Y-70136342D02*
X95122681Y-70326819D01*
X95122681Y-70326819D02*
X94991729Y-71374438D01*
X98265539Y-70326819D02*
X97598873Y-70326819D01*
X97467920Y-71374438D02*
X97717920Y-69374438D01*
X97717920Y-69374438D02*
X98670301Y-69374438D01*
X99182206Y-71374438D02*
X99348873Y-70041104D01*
X99301254Y-70422057D02*
X99420301Y-70231580D01*
X99420301Y-70231580D02*
X99527444Y-70136342D01*
X99527444Y-70136342D02*
X99729825Y-70041104D01*
X99729825Y-70041104D02*
X99920301Y-70041104D01*
X101277444Y-71374438D02*
X101408396Y-70326819D01*
X101408396Y-70326819D02*
X101336968Y-70136342D01*
X101336968Y-70136342D02*
X101158396Y-70041104D01*
X101158396Y-70041104D02*
X100777444Y-70041104D01*
X100777444Y-70041104D02*
X100575063Y-70136342D01*
X101289349Y-71279200D02*
X101086968Y-71374438D01*
X101086968Y-71374438D02*
X100610777Y-71374438D01*
X100610777Y-71374438D02*
X100432206Y-71279200D01*
X100432206Y-71279200D02*
X100360777Y-71088723D01*
X100360777Y-71088723D02*
X100384587Y-70898247D01*
X100384587Y-70898247D02*
X100503635Y-70707771D01*
X100503635Y-70707771D02*
X100706016Y-70612533D01*
X100706016Y-70612533D02*
X101182206Y-70612533D01*
X101182206Y-70612533D02*
X101384587Y-70517295D01*
X102229825Y-71374438D02*
X102396492Y-70041104D01*
X102372682Y-70231580D02*
X102479825Y-70136342D01*
X102479825Y-70136342D02*
X102682206Y-70041104D01*
X102682206Y-70041104D02*
X102967920Y-70041104D01*
X102967920Y-70041104D02*
X103146492Y-70136342D01*
X103146492Y-70136342D02*
X103217920Y-70326819D01*
X103217920Y-70326819D02*
X103086968Y-71374438D01*
X103217920Y-70326819D02*
X103336968Y-70136342D01*
X103336968Y-70136342D02*
X103539349Y-70041104D01*
X103539349Y-70041104D02*
X103825063Y-70041104D01*
X103825063Y-70041104D02*
X104003635Y-70136342D01*
X104003635Y-70136342D02*
X104075063Y-70326819D01*
X104075063Y-70326819D02*
X103944111Y-71374438D01*
X105670302Y-71279200D02*
X105467921Y-71374438D01*
X105467921Y-71374438D02*
X105086968Y-71374438D01*
X105086968Y-71374438D02*
X104908397Y-71279200D01*
X104908397Y-71279200D02*
X104836968Y-71088723D01*
X104836968Y-71088723D02*
X104932207Y-70326819D01*
X104932207Y-70326819D02*
X105051254Y-70136342D01*
X105051254Y-70136342D02*
X105253635Y-70041104D01*
X105253635Y-70041104D02*
X105634587Y-70041104D01*
X105634587Y-70041104D02*
X105813159Y-70136342D01*
X105813159Y-70136342D02*
X105884587Y-70326819D01*
X105884587Y-70326819D02*
X105860778Y-70517295D01*
X105860778Y-70517295D02*
X104884587Y-70707771D01*
X109301255Y-71183961D02*
X109194112Y-71279200D01*
X109194112Y-71279200D02*
X108896493Y-71374438D01*
X108896493Y-71374438D02*
X108706017Y-71374438D01*
X108706017Y-71374438D02*
X108432207Y-71279200D01*
X108432207Y-71279200D02*
X108265541Y-71088723D01*
X108265541Y-71088723D02*
X108194112Y-70898247D01*
X108194112Y-70898247D02*
X108146493Y-70517295D01*
X108146493Y-70517295D02*
X108182207Y-70231580D01*
X108182207Y-70231580D02*
X108325064Y-69850628D01*
X108325064Y-69850628D02*
X108444112Y-69660152D01*
X108444112Y-69660152D02*
X108658398Y-69469676D01*
X108658398Y-69469676D02*
X108956017Y-69374438D01*
X108956017Y-69374438D02*
X109146493Y-69374438D01*
X109146493Y-69374438D02*
X109420303Y-69469676D01*
X109420303Y-69469676D02*
X109503636Y-69564914D01*
X110420303Y-71374438D02*
X110241731Y-71279200D01*
X110241731Y-71279200D02*
X110158398Y-71183961D01*
X110158398Y-71183961D02*
X110086969Y-70993485D01*
X110086969Y-70993485D02*
X110158398Y-70422057D01*
X110158398Y-70422057D02*
X110277445Y-70231580D01*
X110277445Y-70231580D02*
X110384588Y-70136342D01*
X110384588Y-70136342D02*
X110586969Y-70041104D01*
X110586969Y-70041104D02*
X110872683Y-70041104D01*
X110872683Y-70041104D02*
X111051255Y-70136342D01*
X111051255Y-70136342D02*
X111134588Y-70231580D01*
X111134588Y-70231580D02*
X111206017Y-70422057D01*
X111206017Y-70422057D02*
X111134588Y-70993485D01*
X111134588Y-70993485D02*
X111015541Y-71183961D01*
X111015541Y-71183961D02*
X110908398Y-71279200D01*
X110908398Y-71279200D02*
X110706017Y-71374438D01*
X110706017Y-71374438D02*
X110420303Y-71374438D01*
X112967922Y-70041104D02*
X112801255Y-71374438D01*
X112110779Y-70041104D02*
X111979827Y-71088723D01*
X111979827Y-71088723D02*
X112051255Y-71279200D01*
X112051255Y-71279200D02*
X112229827Y-71374438D01*
X112229827Y-71374438D02*
X112515541Y-71374438D01*
X112515541Y-71374438D02*
X112717922Y-71279200D01*
X112717922Y-71279200D02*
X112825065Y-71183961D01*
X113920303Y-70041104D02*
X113753636Y-71374438D01*
X113896493Y-70231580D02*
X114003636Y-70136342D01*
X114003636Y-70136342D02*
X114206017Y-70041104D01*
X114206017Y-70041104D02*
X114491731Y-70041104D01*
X114491731Y-70041104D02*
X114670303Y-70136342D01*
X114670303Y-70136342D02*
X114741731Y-70326819D01*
X114741731Y-70326819D02*
X114610779Y-71374438D01*
X115444113Y-70041104D02*
X116206017Y-70041104D01*
X115813160Y-69374438D02*
X115598875Y-71088723D01*
X115598875Y-71088723D02*
X115670303Y-71279200D01*
X115670303Y-71279200D02*
X115848875Y-71374438D01*
X115848875Y-71374438D02*
X116039351Y-71374438D01*
D12*
X114138445Y-66688866D02*
X114900350Y-66688866D01*
X114471779Y-67069819D02*
X114567017Y-66307914D01*
X115394398Y-66165057D02*
X115447969Y-66117438D01*
X115447969Y-66117438D02*
X115549159Y-66069819D01*
X115549159Y-66069819D02*
X115787255Y-66069819D01*
X115787255Y-66069819D02*
X115876540Y-66117438D01*
X115876540Y-66117438D02*
X115918207Y-66165057D01*
X115918207Y-66165057D02*
X115953921Y-66260295D01*
X115953921Y-66260295D02*
X115942017Y-66355533D01*
X115942017Y-66355533D02*
X115876540Y-66498390D01*
X115876540Y-66498390D02*
X115233683Y-67069819D01*
X115233683Y-67069819D02*
X115852731Y-67069819D01*
X116793207Y-66403152D02*
X116709874Y-67069819D01*
X116602731Y-66022200D02*
X116275350Y-66736485D01*
X116275350Y-66736485D02*
X116894398Y-66736485D01*
X117215826Y-66069819D02*
X117424160Y-67069819D01*
X117424160Y-67069819D02*
X117882493Y-66069819D01*
X245730938Y-84086316D02*
X245683319Y-84175601D01*
X245683319Y-84175601D02*
X245683319Y-84318458D01*
X245683319Y-84318458D02*
X245730938Y-84467268D01*
X245730938Y-84467268D02*
X245826176Y-84574411D01*
X245826176Y-84574411D02*
X245921414Y-84633935D01*
X245921414Y-84633935D02*
X246111890Y-84705363D01*
X246111890Y-84705363D02*
X246254747Y-84723220D01*
X246254747Y-84723220D02*
X246445223Y-84699411D01*
X246445223Y-84699411D02*
X246540461Y-84663696D01*
X246540461Y-84663696D02*
X246635700Y-84580363D01*
X246635700Y-84580363D02*
X246683319Y-84443458D01*
X246683319Y-84443458D02*
X246683319Y-84348220D01*
X246683319Y-84348220D02*
X246635700Y-84199411D01*
X246635700Y-84199411D02*
X246588080Y-84145839D01*
X246588080Y-84145839D02*
X246254747Y-84104173D01*
X246254747Y-84104173D02*
X246254747Y-84294649D01*
X246683319Y-83729173D02*
X245683319Y-83604173D01*
X245683319Y-83604173D02*
X246683319Y-83157744D01*
X246683319Y-83157744D02*
X245683319Y-83032744D01*
X246683319Y-82681554D02*
X245683319Y-82556554D01*
X245683319Y-82556554D02*
X245683319Y-82318458D01*
X245683319Y-82318458D02*
X245730938Y-82181554D01*
X245730938Y-82181554D02*
X245826176Y-82098220D01*
X245826176Y-82098220D02*
X245921414Y-82062506D01*
X245921414Y-82062506D02*
X246111890Y-82038697D01*
X246111890Y-82038697D02*
X246254747Y-82056554D01*
X246254747Y-82056554D02*
X246445223Y-82127982D01*
X246445223Y-82127982D02*
X246540461Y-82187506D01*
X246540461Y-82187506D02*
X246635700Y-82294649D01*
X246635700Y-82294649D02*
X246683319Y-82443458D01*
X246683319Y-82443458D02*
X246683319Y-82681554D01*
X101263684Y-61007438D02*
X101174398Y-60959819D01*
X101174398Y-60959819D02*
X101031541Y-60959819D01*
X101031541Y-60959819D02*
X100882731Y-61007438D01*
X100882731Y-61007438D02*
X100775588Y-61102676D01*
X100775588Y-61102676D02*
X100716064Y-61197914D01*
X100716064Y-61197914D02*
X100644636Y-61388390D01*
X100644636Y-61388390D02*
X100626779Y-61531247D01*
X100626779Y-61531247D02*
X100650588Y-61721723D01*
X100650588Y-61721723D02*
X100686303Y-61816961D01*
X100686303Y-61816961D02*
X100769636Y-61912200D01*
X100769636Y-61912200D02*
X100906541Y-61959819D01*
X100906541Y-61959819D02*
X101001779Y-61959819D01*
X101001779Y-61959819D02*
X101150588Y-61912200D01*
X101150588Y-61912200D02*
X101204160Y-61864580D01*
X101204160Y-61864580D02*
X101245826Y-61531247D01*
X101245826Y-61531247D02*
X101055350Y-61531247D01*
X101620826Y-61959819D02*
X101745826Y-60959819D01*
X101745826Y-60959819D02*
X102192255Y-61959819D01*
X102192255Y-61959819D02*
X102317255Y-60959819D01*
X102668445Y-61959819D02*
X102793445Y-60959819D01*
X102793445Y-60959819D02*
X103031541Y-60959819D01*
X103031541Y-60959819D02*
X103168445Y-61007438D01*
X103168445Y-61007438D02*
X103251779Y-61102676D01*
X103251779Y-61102676D02*
X103287493Y-61197914D01*
X103287493Y-61197914D02*
X103311303Y-61388390D01*
X103311303Y-61388390D02*
X103293445Y-61531247D01*
X103293445Y-61531247D02*
X103222017Y-61721723D01*
X103222017Y-61721723D02*
X103162493Y-61816961D01*
X103162493Y-61816961D02*
X103055350Y-61912200D01*
X103055350Y-61912200D02*
X102906541Y-61959819D01*
X102906541Y-61959819D02*
X102668445Y-61959819D01*
X249123319Y-84419173D02*
X248123319Y-84294173D01*
X248123319Y-84294173D02*
X248123319Y-83913220D01*
X248123319Y-83913220D02*
X248170938Y-83823935D01*
X248170938Y-83823935D02*
X248218557Y-83782268D01*
X248218557Y-83782268D02*
X248313795Y-83746554D01*
X248313795Y-83746554D02*
X248456652Y-83764411D01*
X248456652Y-83764411D02*
X248551890Y-83823935D01*
X248551890Y-83823935D02*
X248599509Y-83877506D01*
X248599509Y-83877506D02*
X248647128Y-83978696D01*
X248647128Y-83978696D02*
X248647128Y-84359649D01*
X249123319Y-83419173D02*
X248123319Y-83294173D01*
X249123319Y-82942983D02*
X248123319Y-82817983D01*
X248123319Y-82817983D02*
X249123319Y-82371554D01*
X249123319Y-82371554D02*
X248123319Y-82246554D01*
X250793319Y-84449411D02*
X250793319Y-83830363D01*
X250793319Y-83830363D02*
X251174271Y-84211316D01*
X251174271Y-84211316D02*
X251174271Y-84068458D01*
X251174271Y-84068458D02*
X251221890Y-83979173D01*
X251221890Y-83979173D02*
X251269509Y-83937506D01*
X251269509Y-83937506D02*
X251364747Y-83901792D01*
X251364747Y-83901792D02*
X251602842Y-83931554D01*
X251602842Y-83931554D02*
X251698080Y-83991077D01*
X251698080Y-83991077D02*
X251745700Y-84044649D01*
X251745700Y-84044649D02*
X251793319Y-84145839D01*
X251793319Y-84145839D02*
X251793319Y-84431554D01*
X251793319Y-84431554D02*
X251745700Y-84520839D01*
X251745700Y-84520839D02*
X251698080Y-84562506D01*
X250793319Y-83544649D02*
X251793319Y-83336315D01*
X251793319Y-83336315D02*
X250793319Y-82877982D01*
X250793319Y-82639887D02*
X250793319Y-82020839D01*
X250793319Y-82020839D02*
X251174271Y-82401792D01*
X251174271Y-82401792D02*
X251174271Y-82258934D01*
X251174271Y-82258934D02*
X251221890Y-82169649D01*
X251221890Y-82169649D02*
X251269509Y-82127982D01*
X251269509Y-82127982D02*
X251364747Y-82092268D01*
X251364747Y-82092268D02*
X251602842Y-82122030D01*
X251602842Y-82122030D02*
X251698080Y-82181553D01*
X251698080Y-82181553D02*
X251745700Y-82235125D01*
X251745700Y-82235125D02*
X251793319Y-82336315D01*
X251793319Y-82336315D02*
X251793319Y-82622030D01*
X251793319Y-82622030D02*
X251745700Y-82711315D01*
X251745700Y-82711315D02*
X251698080Y-82752982D01*
D11*
X145269200Y-96965890D02*
X145364438Y-96692081D01*
X145364438Y-96692081D02*
X145364438Y-96215890D01*
X145364438Y-96215890D02*
X145269200Y-96013509D01*
X145269200Y-96013509D02*
X145173961Y-95906366D01*
X145173961Y-95906366D02*
X144983485Y-95787319D01*
X144983485Y-95787319D02*
X144793009Y-95763509D01*
X144793009Y-95763509D02*
X144602533Y-95834938D01*
X144602533Y-95834938D02*
X144507295Y-95918271D01*
X144507295Y-95918271D02*
X144412057Y-96096843D01*
X144412057Y-96096843D02*
X144316819Y-96465890D01*
X144316819Y-96465890D02*
X144221580Y-96644462D01*
X144221580Y-96644462D02*
X144126342Y-96727795D01*
X144126342Y-96727795D02*
X143935866Y-96799223D01*
X143935866Y-96799223D02*
X143745390Y-96775414D01*
X143745390Y-96775414D02*
X143554914Y-96656366D01*
X143554914Y-96656366D02*
X143459676Y-96549223D01*
X143459676Y-96549223D02*
X143364438Y-96346843D01*
X143364438Y-96346843D02*
X143364438Y-95870652D01*
X143364438Y-95870652D02*
X143459676Y-95596843D01*
X144031104Y-95096842D02*
X144031104Y-94334938D01*
X143364438Y-94727795D02*
X145078723Y-94942081D01*
X145078723Y-94942081D02*
X145269200Y-94870652D01*
X145269200Y-94870652D02*
X145364438Y-94692081D01*
X145364438Y-94692081D02*
X145364438Y-94501604D01*
X145364438Y-93834938D02*
X144031104Y-93668271D01*
X144412057Y-93715890D02*
X144221580Y-93596843D01*
X144221580Y-93596843D02*
X144126342Y-93489700D01*
X144126342Y-93489700D02*
X144031104Y-93287319D01*
X144031104Y-93287319D02*
X144031104Y-93096843D01*
X145364438Y-92311129D02*
X145269200Y-92489700D01*
X145269200Y-92489700D02*
X145173961Y-92573033D01*
X145173961Y-92573033D02*
X144983485Y-92644462D01*
X144983485Y-92644462D02*
X144412057Y-92573033D01*
X144412057Y-92573033D02*
X144221580Y-92453986D01*
X144221580Y-92453986D02*
X144126342Y-92346843D01*
X144126342Y-92346843D02*
X144031104Y-92144462D01*
X144031104Y-92144462D02*
X144031104Y-91858748D01*
X144031104Y-91858748D02*
X144126342Y-91680176D01*
X144126342Y-91680176D02*
X144221580Y-91596843D01*
X144221580Y-91596843D02*
X144412057Y-91525414D01*
X144412057Y-91525414D02*
X144983485Y-91596843D01*
X144983485Y-91596843D02*
X145173961Y-91715890D01*
X145173961Y-91715890D02*
X145269200Y-91823033D01*
X145269200Y-91823033D02*
X145364438Y-92025414D01*
X145364438Y-92025414D02*
X145364438Y-92311129D01*
X145364438Y-90787319D02*
X143364438Y-90537319D01*
X144126342Y-90632557D02*
X144031104Y-90430176D01*
X144031104Y-90430176D02*
X144031104Y-90049224D01*
X144031104Y-90049224D02*
X144126342Y-89870652D01*
X144126342Y-89870652D02*
X144221580Y-89787319D01*
X144221580Y-89787319D02*
X144412057Y-89715890D01*
X144412057Y-89715890D02*
X144983485Y-89787319D01*
X144983485Y-89787319D02*
X145173961Y-89906366D01*
X145173961Y-89906366D02*
X145269200Y-90013509D01*
X145269200Y-90013509D02*
X145364438Y-90215890D01*
X145364438Y-90215890D02*
X145364438Y-90596843D01*
X145364438Y-90596843D02*
X145269200Y-90775414D01*
X145269200Y-88203985D02*
X145364438Y-88406366D01*
X145364438Y-88406366D02*
X145364438Y-88787319D01*
X145364438Y-88787319D02*
X145269200Y-88965890D01*
X145269200Y-88965890D02*
X145078723Y-89037319D01*
X145078723Y-89037319D02*
X144316819Y-88942081D01*
X144316819Y-88942081D02*
X144126342Y-88823033D01*
X144126342Y-88823033D02*
X144031104Y-88620652D01*
X144031104Y-88620652D02*
X144031104Y-88239700D01*
X144031104Y-88239700D02*
X144126342Y-88061128D01*
X144126342Y-88061128D02*
X144316819Y-87989700D01*
X144316819Y-87989700D02*
X144507295Y-88013509D01*
X144507295Y-88013509D02*
X144697771Y-88989700D01*
X144316819Y-85608746D02*
X144316819Y-84942080D01*
X145364438Y-84787318D02*
X145364438Y-85739699D01*
X145364438Y-85739699D02*
X143364438Y-85489699D01*
X143364438Y-85489699D02*
X143364438Y-84537318D01*
X144031104Y-83763508D02*
X145364438Y-83930175D01*
X144221580Y-83787318D02*
X144126342Y-83680175D01*
X144126342Y-83680175D02*
X144031104Y-83477794D01*
X144031104Y-83477794D02*
X144031104Y-83192080D01*
X144031104Y-83192080D02*
X144126342Y-83013508D01*
X144126342Y-83013508D02*
X144316819Y-82942080D01*
X144316819Y-82942080D02*
X145364438Y-83073032D01*
X145364438Y-81263508D02*
X144316819Y-81132556D01*
X144316819Y-81132556D02*
X144126342Y-81203984D01*
X144126342Y-81203984D02*
X144031104Y-81382556D01*
X144031104Y-81382556D02*
X144031104Y-81763508D01*
X144031104Y-81763508D02*
X144126342Y-81965889D01*
X145269200Y-81251603D02*
X145364438Y-81453984D01*
X145364438Y-81453984D02*
X145364438Y-81930175D01*
X145364438Y-81930175D02*
X145269200Y-82108746D01*
X145269200Y-82108746D02*
X145078723Y-82180175D01*
X145078723Y-82180175D02*
X144888247Y-82156365D01*
X144888247Y-82156365D02*
X144697771Y-82037317D01*
X144697771Y-82037317D02*
X144602533Y-81834937D01*
X144602533Y-81834937D02*
X144602533Y-81358746D01*
X144602533Y-81358746D02*
X144507295Y-81156365D01*
X145364438Y-80311127D02*
X143364438Y-80061127D01*
X144126342Y-80156365D02*
X144031104Y-79953984D01*
X144031104Y-79953984D02*
X144031104Y-79573032D01*
X144031104Y-79573032D02*
X144126342Y-79394460D01*
X144126342Y-79394460D02*
X144221580Y-79311127D01*
X144221580Y-79311127D02*
X144412057Y-79239698D01*
X144412057Y-79239698D02*
X144983485Y-79311127D01*
X144983485Y-79311127D02*
X145173961Y-79430174D01*
X145173961Y-79430174D02*
X145269200Y-79537317D01*
X145269200Y-79537317D02*
X145364438Y-79739698D01*
X145364438Y-79739698D02*
X145364438Y-80120651D01*
X145364438Y-80120651D02*
X145269200Y-80299222D01*
X145364438Y-78215889D02*
X145269200Y-78394460D01*
X145269200Y-78394460D02*
X145078723Y-78465889D01*
X145078723Y-78465889D02*
X143364438Y-78251603D01*
X145269200Y-76680174D02*
X145364438Y-76882555D01*
X145364438Y-76882555D02*
X145364438Y-77263508D01*
X145364438Y-77263508D02*
X145269200Y-77442079D01*
X145269200Y-77442079D02*
X145078723Y-77513508D01*
X145078723Y-77513508D02*
X144316819Y-77418270D01*
X144316819Y-77418270D02*
X144126342Y-77299222D01*
X144126342Y-77299222D02*
X144031104Y-77096841D01*
X144031104Y-77096841D02*
X144031104Y-76715889D01*
X144031104Y-76715889D02*
X144126342Y-76537317D01*
X144126342Y-76537317D02*
X144316819Y-76465889D01*
X144316819Y-76465889D02*
X144507295Y-76489698D01*
X144507295Y-76489698D02*
X144697771Y-77465889D01*
X176144438Y-97422557D02*
X174144438Y-97172557D01*
X174144438Y-97172557D02*
X175573009Y-96684462D01*
X175573009Y-96684462D02*
X174144438Y-95839223D01*
X174144438Y-95839223D02*
X176144438Y-96089223D01*
X176144438Y-94851129D02*
X176049200Y-95029700D01*
X176049200Y-95029700D02*
X175953961Y-95113033D01*
X175953961Y-95113033D02*
X175763485Y-95184462D01*
X175763485Y-95184462D02*
X175192057Y-95113033D01*
X175192057Y-95113033D02*
X175001580Y-94993986D01*
X175001580Y-94993986D02*
X174906342Y-94886843D01*
X174906342Y-94886843D02*
X174811104Y-94684462D01*
X174811104Y-94684462D02*
X174811104Y-94398748D01*
X174811104Y-94398748D02*
X174906342Y-94220176D01*
X174906342Y-94220176D02*
X175001580Y-94136843D01*
X175001580Y-94136843D02*
X175192057Y-94065414D01*
X175192057Y-94065414D02*
X175763485Y-94136843D01*
X175763485Y-94136843D02*
X175953961Y-94255890D01*
X175953961Y-94255890D02*
X176049200Y-94363033D01*
X176049200Y-94363033D02*
X176144438Y-94565414D01*
X176144438Y-94565414D02*
X176144438Y-94851129D01*
X174811104Y-93446366D02*
X174811104Y-92684462D01*
X174144438Y-93077319D02*
X175858723Y-93291605D01*
X175858723Y-93291605D02*
X176049200Y-93220176D01*
X176049200Y-93220176D02*
X176144438Y-93041605D01*
X176144438Y-93041605D02*
X176144438Y-92851128D01*
X176144438Y-91898748D02*
X176049200Y-92077319D01*
X176049200Y-92077319D02*
X175953961Y-92160652D01*
X175953961Y-92160652D02*
X175763485Y-92232081D01*
X175763485Y-92232081D02*
X175192057Y-92160652D01*
X175192057Y-92160652D02*
X175001580Y-92041605D01*
X175001580Y-92041605D02*
X174906342Y-91934462D01*
X174906342Y-91934462D02*
X174811104Y-91732081D01*
X174811104Y-91732081D02*
X174811104Y-91446367D01*
X174811104Y-91446367D02*
X174906342Y-91267795D01*
X174906342Y-91267795D02*
X175001580Y-91184462D01*
X175001580Y-91184462D02*
X175192057Y-91113033D01*
X175192057Y-91113033D02*
X175763485Y-91184462D01*
X175763485Y-91184462D02*
X175953961Y-91303509D01*
X175953961Y-91303509D02*
X176049200Y-91410652D01*
X176049200Y-91410652D02*
X176144438Y-91613033D01*
X176144438Y-91613033D02*
X176144438Y-91898748D01*
X176144438Y-90374938D02*
X174811104Y-90208271D01*
X175192057Y-90255890D02*
X175001580Y-90136843D01*
X175001580Y-90136843D02*
X174906342Y-90029700D01*
X174906342Y-90029700D02*
X174811104Y-89827319D01*
X174811104Y-89827319D02*
X174811104Y-89636843D01*
X176144438Y-87613033D02*
X174144438Y-87363033D01*
X174144438Y-87363033D02*
X174144438Y-86886842D01*
X174144438Y-86886842D02*
X174239676Y-86613033D01*
X174239676Y-86613033D02*
X174430152Y-86446366D01*
X174430152Y-86446366D02*
X174620628Y-86374938D01*
X174620628Y-86374938D02*
X175001580Y-86327319D01*
X175001580Y-86327319D02*
X175287295Y-86363033D01*
X175287295Y-86363033D02*
X175668247Y-86505890D01*
X175668247Y-86505890D02*
X175858723Y-86624938D01*
X175858723Y-86624938D02*
X176049200Y-86839223D01*
X176049200Y-86839223D02*
X176144438Y-87136842D01*
X176144438Y-87136842D02*
X176144438Y-87613033D01*
X176144438Y-85613033D02*
X174811104Y-85446366D01*
X174144438Y-85363033D02*
X174239676Y-85470176D01*
X174239676Y-85470176D02*
X174334914Y-85386842D01*
X174334914Y-85386842D02*
X174239676Y-85279699D01*
X174239676Y-85279699D02*
X174144438Y-85363033D01*
X174144438Y-85363033D02*
X174334914Y-85386842D01*
X176144438Y-84660652D02*
X174811104Y-84493985D01*
X175192057Y-84541604D02*
X175001580Y-84422557D01*
X175001580Y-84422557D02*
X174906342Y-84315414D01*
X174906342Y-84315414D02*
X174811104Y-84113033D01*
X174811104Y-84113033D02*
X174811104Y-83922557D01*
X176049200Y-82648747D02*
X176144438Y-82851128D01*
X176144438Y-82851128D02*
X176144438Y-83232081D01*
X176144438Y-83232081D02*
X176049200Y-83410652D01*
X176049200Y-83410652D02*
X175858723Y-83482081D01*
X175858723Y-83482081D02*
X175096819Y-83386843D01*
X175096819Y-83386843D02*
X174906342Y-83267795D01*
X174906342Y-83267795D02*
X174811104Y-83065414D01*
X174811104Y-83065414D02*
X174811104Y-82684462D01*
X174811104Y-82684462D02*
X174906342Y-82505890D01*
X174906342Y-82505890D02*
X175096819Y-82434462D01*
X175096819Y-82434462D02*
X175287295Y-82458271D01*
X175287295Y-82458271D02*
X175477771Y-83434462D01*
X176049200Y-80839223D02*
X176144438Y-81041604D01*
X176144438Y-81041604D02*
X176144438Y-81422557D01*
X176144438Y-81422557D02*
X176049200Y-81601128D01*
X176049200Y-81601128D02*
X175953961Y-81684461D01*
X175953961Y-81684461D02*
X175763485Y-81755890D01*
X175763485Y-81755890D02*
X175192057Y-81684461D01*
X175192057Y-81684461D02*
X175001580Y-81565414D01*
X175001580Y-81565414D02*
X174906342Y-81458271D01*
X174906342Y-81458271D02*
X174811104Y-81255890D01*
X174811104Y-81255890D02*
X174811104Y-80874937D01*
X174811104Y-80874937D02*
X174906342Y-80696366D01*
X174811104Y-80113032D02*
X174811104Y-79351128D01*
X174144438Y-79743985D02*
X175858723Y-79958271D01*
X175858723Y-79958271D02*
X176049200Y-79886842D01*
X176049200Y-79886842D02*
X176144438Y-79708271D01*
X176144438Y-79708271D02*
X176144438Y-79517794D01*
X176144438Y-78851128D02*
X174811104Y-78684461D01*
X174144438Y-78601128D02*
X174239676Y-78708271D01*
X174239676Y-78708271D02*
X174334914Y-78624937D01*
X174334914Y-78624937D02*
X174239676Y-78517794D01*
X174239676Y-78517794D02*
X174144438Y-78601128D01*
X174144438Y-78601128D02*
X174334914Y-78624937D01*
X176144438Y-77613033D02*
X176049200Y-77791604D01*
X176049200Y-77791604D02*
X175953961Y-77874937D01*
X175953961Y-77874937D02*
X175763485Y-77946366D01*
X175763485Y-77946366D02*
X175192057Y-77874937D01*
X175192057Y-77874937D02*
X175001580Y-77755890D01*
X175001580Y-77755890D02*
X174906342Y-77648747D01*
X174906342Y-77648747D02*
X174811104Y-77446366D01*
X174811104Y-77446366D02*
X174811104Y-77160652D01*
X174811104Y-77160652D02*
X174906342Y-76982080D01*
X174906342Y-76982080D02*
X175001580Y-76898747D01*
X175001580Y-76898747D02*
X175192057Y-76827318D01*
X175192057Y-76827318D02*
X175763485Y-76898747D01*
X175763485Y-76898747D02*
X175953961Y-77017794D01*
X175953961Y-77017794D02*
X176049200Y-77124937D01*
X176049200Y-77124937D02*
X176144438Y-77327318D01*
X176144438Y-77327318D02*
X176144438Y-77613033D01*
X174811104Y-75922556D02*
X176144438Y-76089223D01*
X175001580Y-75946366D02*
X174906342Y-75839223D01*
X174906342Y-75839223D02*
X174811104Y-75636842D01*
X174811104Y-75636842D02*
X174811104Y-75351128D01*
X174811104Y-75351128D02*
X174906342Y-75172556D01*
X174906342Y-75172556D02*
X175096819Y-75101128D01*
X175096819Y-75101128D02*
X176144438Y-75232080D01*
D12*
X210978445Y-99688866D02*
X211740350Y-99688866D01*
X211311779Y-100069819D02*
X211407017Y-99307914D01*
X212234398Y-99165057D02*
X212287969Y-99117438D01*
X212287969Y-99117438D02*
X212389159Y-99069819D01*
X212389159Y-99069819D02*
X212627255Y-99069819D01*
X212627255Y-99069819D02*
X212716540Y-99117438D01*
X212716540Y-99117438D02*
X212758207Y-99165057D01*
X212758207Y-99165057D02*
X212793921Y-99260295D01*
X212793921Y-99260295D02*
X212782017Y-99355533D01*
X212782017Y-99355533D02*
X212716540Y-99498390D01*
X212716540Y-99498390D02*
X212073683Y-100069819D01*
X212073683Y-100069819D02*
X212692731Y-100069819D01*
X213633207Y-99403152D02*
X213549874Y-100069819D01*
X213442731Y-99022200D02*
X213115350Y-99736485D01*
X213115350Y-99736485D02*
X213734398Y-99736485D01*
X214055826Y-99069819D02*
X214264160Y-100069819D01*
X214264160Y-100069819D02*
X214722493Y-99069819D01*
D11*
X160034438Y-96692557D02*
X158034438Y-96442557D01*
X158034438Y-96442557D02*
X159463009Y-95954462D01*
X159463009Y-95954462D02*
X158034438Y-95109223D01*
X158034438Y-95109223D02*
X160034438Y-95359223D01*
X160034438Y-94121129D02*
X159939200Y-94299700D01*
X159939200Y-94299700D02*
X159843961Y-94383033D01*
X159843961Y-94383033D02*
X159653485Y-94454462D01*
X159653485Y-94454462D02*
X159082057Y-94383033D01*
X159082057Y-94383033D02*
X158891580Y-94263986D01*
X158891580Y-94263986D02*
X158796342Y-94156843D01*
X158796342Y-94156843D02*
X158701104Y-93954462D01*
X158701104Y-93954462D02*
X158701104Y-93668748D01*
X158701104Y-93668748D02*
X158796342Y-93490176D01*
X158796342Y-93490176D02*
X158891580Y-93406843D01*
X158891580Y-93406843D02*
X159082057Y-93335414D01*
X159082057Y-93335414D02*
X159653485Y-93406843D01*
X159653485Y-93406843D02*
X159843961Y-93525890D01*
X159843961Y-93525890D02*
X159939200Y-93633033D01*
X159939200Y-93633033D02*
X160034438Y-93835414D01*
X160034438Y-93835414D02*
X160034438Y-94121129D01*
X158701104Y-92716366D02*
X158701104Y-91954462D01*
X158034438Y-92347319D02*
X159748723Y-92561605D01*
X159748723Y-92561605D02*
X159939200Y-92490176D01*
X159939200Y-92490176D02*
X160034438Y-92311605D01*
X160034438Y-92311605D02*
X160034438Y-92121128D01*
X160034438Y-91168748D02*
X159939200Y-91347319D01*
X159939200Y-91347319D02*
X159843961Y-91430652D01*
X159843961Y-91430652D02*
X159653485Y-91502081D01*
X159653485Y-91502081D02*
X159082057Y-91430652D01*
X159082057Y-91430652D02*
X158891580Y-91311605D01*
X158891580Y-91311605D02*
X158796342Y-91204462D01*
X158796342Y-91204462D02*
X158701104Y-91002081D01*
X158701104Y-91002081D02*
X158701104Y-90716367D01*
X158701104Y-90716367D02*
X158796342Y-90537795D01*
X158796342Y-90537795D02*
X158891580Y-90454462D01*
X158891580Y-90454462D02*
X159082057Y-90383033D01*
X159082057Y-90383033D02*
X159653485Y-90454462D01*
X159653485Y-90454462D02*
X159843961Y-90573509D01*
X159843961Y-90573509D02*
X159939200Y-90680652D01*
X159939200Y-90680652D02*
X160034438Y-90883033D01*
X160034438Y-90883033D02*
X160034438Y-91168748D01*
X160034438Y-89644938D02*
X158701104Y-89478271D01*
X159082057Y-89525890D02*
X158891580Y-89406843D01*
X158891580Y-89406843D02*
X158796342Y-89299700D01*
X158796342Y-89299700D02*
X158701104Y-89097319D01*
X158701104Y-89097319D02*
X158701104Y-88906843D01*
X158986819Y-86752080D02*
X158986819Y-86085414D01*
X160034438Y-85930652D02*
X160034438Y-86883033D01*
X160034438Y-86883033D02*
X158034438Y-86633033D01*
X158034438Y-86633033D02*
X158034438Y-85680652D01*
X158701104Y-84906842D02*
X160034438Y-85073509D01*
X158891580Y-84930652D02*
X158796342Y-84823509D01*
X158796342Y-84823509D02*
X158701104Y-84621128D01*
X158701104Y-84621128D02*
X158701104Y-84335414D01*
X158701104Y-84335414D02*
X158796342Y-84156842D01*
X158796342Y-84156842D02*
X158986819Y-84085414D01*
X158986819Y-84085414D02*
X160034438Y-84216366D01*
X160034438Y-82406842D02*
X158986819Y-82275890D01*
X158986819Y-82275890D02*
X158796342Y-82347318D01*
X158796342Y-82347318D02*
X158701104Y-82525890D01*
X158701104Y-82525890D02*
X158701104Y-82906842D01*
X158701104Y-82906842D02*
X158796342Y-83109223D01*
X159939200Y-82394937D02*
X160034438Y-82597318D01*
X160034438Y-82597318D02*
X160034438Y-83073509D01*
X160034438Y-83073509D02*
X159939200Y-83252080D01*
X159939200Y-83252080D02*
X159748723Y-83323509D01*
X159748723Y-83323509D02*
X159558247Y-83299699D01*
X159558247Y-83299699D02*
X159367771Y-83180651D01*
X159367771Y-83180651D02*
X159272533Y-82978271D01*
X159272533Y-82978271D02*
X159272533Y-82502080D01*
X159272533Y-82502080D02*
X159177295Y-82299699D01*
X160034438Y-81454461D02*
X158034438Y-81204461D01*
X158796342Y-81299699D02*
X158701104Y-81097318D01*
X158701104Y-81097318D02*
X158701104Y-80716366D01*
X158701104Y-80716366D02*
X158796342Y-80537794D01*
X158796342Y-80537794D02*
X158891580Y-80454461D01*
X158891580Y-80454461D02*
X159082057Y-80383032D01*
X159082057Y-80383032D02*
X159653485Y-80454461D01*
X159653485Y-80454461D02*
X159843961Y-80573508D01*
X159843961Y-80573508D02*
X159939200Y-80680651D01*
X159939200Y-80680651D02*
X160034438Y-80883032D01*
X160034438Y-80883032D02*
X160034438Y-81263985D01*
X160034438Y-81263985D02*
X159939200Y-81442556D01*
X160034438Y-79359223D02*
X159939200Y-79537794D01*
X159939200Y-79537794D02*
X159748723Y-79609223D01*
X159748723Y-79609223D02*
X158034438Y-79394937D01*
X159939200Y-77823508D02*
X160034438Y-78025889D01*
X160034438Y-78025889D02*
X160034438Y-78406842D01*
X160034438Y-78406842D02*
X159939200Y-78585413D01*
X159939200Y-78585413D02*
X159748723Y-78656842D01*
X159748723Y-78656842D02*
X158986819Y-78561604D01*
X158986819Y-78561604D02*
X158796342Y-78442556D01*
X158796342Y-78442556D02*
X158701104Y-78240175D01*
X158701104Y-78240175D02*
X158701104Y-77859223D01*
X158701104Y-77859223D02*
X158796342Y-77680651D01*
X158796342Y-77680651D02*
X158986819Y-77609223D01*
X158986819Y-77609223D02*
X159177295Y-77633032D01*
X159177295Y-77633032D02*
X159367771Y-78609223D01*
X72514109Y-122709200D02*
X72787918Y-122804438D01*
X72787918Y-122804438D02*
X73264109Y-122804438D01*
X73264109Y-122804438D02*
X73466490Y-122709200D01*
X73466490Y-122709200D02*
X73573633Y-122613961D01*
X73573633Y-122613961D02*
X73692680Y-122423485D01*
X73692680Y-122423485D02*
X73716490Y-122233009D01*
X73716490Y-122233009D02*
X73645061Y-122042533D01*
X73645061Y-122042533D02*
X73561728Y-121947295D01*
X73561728Y-121947295D02*
X73383157Y-121852057D01*
X73383157Y-121852057D02*
X73014109Y-121756819D01*
X73014109Y-121756819D02*
X72835537Y-121661580D01*
X72835537Y-121661580D02*
X72752204Y-121566342D01*
X72752204Y-121566342D02*
X72680776Y-121375866D01*
X72680776Y-121375866D02*
X72704585Y-121185390D01*
X72704585Y-121185390D02*
X72823633Y-120994914D01*
X72823633Y-120994914D02*
X72930776Y-120899676D01*
X72930776Y-120899676D02*
X73133157Y-120804438D01*
X73133157Y-120804438D02*
X73609347Y-120804438D01*
X73609347Y-120804438D02*
X73883157Y-120899676D01*
X74383157Y-121471104D02*
X75145061Y-121471104D01*
X74752204Y-120804438D02*
X74537919Y-122518723D01*
X74537919Y-122518723D02*
X74609347Y-122709200D01*
X74609347Y-122709200D02*
X74787919Y-122804438D01*
X74787919Y-122804438D02*
X74978395Y-122804438D01*
X76502204Y-122804438D02*
X76633156Y-121756819D01*
X76633156Y-121756819D02*
X76561728Y-121566342D01*
X76561728Y-121566342D02*
X76383156Y-121471104D01*
X76383156Y-121471104D02*
X76002204Y-121471104D01*
X76002204Y-121471104D02*
X75799823Y-121566342D01*
X76514109Y-122709200D02*
X76311728Y-122804438D01*
X76311728Y-122804438D02*
X75835537Y-122804438D01*
X75835537Y-122804438D02*
X75656966Y-122709200D01*
X75656966Y-122709200D02*
X75585537Y-122518723D01*
X75585537Y-122518723D02*
X75609347Y-122328247D01*
X75609347Y-122328247D02*
X75728395Y-122137771D01*
X75728395Y-122137771D02*
X75930776Y-122042533D01*
X75930776Y-122042533D02*
X76406966Y-122042533D01*
X76406966Y-122042533D02*
X76609347Y-121947295D01*
X77335538Y-121471104D02*
X78097442Y-121471104D01*
X77704585Y-120804438D02*
X77490300Y-122518723D01*
X77490300Y-122518723D02*
X77561728Y-122709200D01*
X77561728Y-122709200D02*
X77740300Y-122804438D01*
X77740300Y-122804438D02*
X77930776Y-122804438D01*
X79371252Y-122709200D02*
X79168871Y-122804438D01*
X79168871Y-122804438D02*
X78787918Y-122804438D01*
X78787918Y-122804438D02*
X78609347Y-122709200D01*
X78609347Y-122709200D02*
X78537918Y-122518723D01*
X78537918Y-122518723D02*
X78633157Y-121756819D01*
X78633157Y-121756819D02*
X78752204Y-121566342D01*
X78752204Y-121566342D02*
X78954585Y-121471104D01*
X78954585Y-121471104D02*
X79335537Y-121471104D01*
X79335537Y-121471104D02*
X79514109Y-121566342D01*
X79514109Y-121566342D02*
X79585537Y-121756819D01*
X79585537Y-121756819D02*
X79561728Y-121947295D01*
X79561728Y-121947295D02*
X78585537Y-122137771D01*
X120364438Y-104892557D02*
X118364438Y-104642557D01*
X119316819Y-104761604D02*
X119316819Y-103618747D01*
X120364438Y-103749700D02*
X118364438Y-103499700D01*
X119031104Y-102821128D02*
X119031104Y-101773509D01*
X119031104Y-101773509D02*
X120364438Y-102987795D01*
X120364438Y-102987795D02*
X120364438Y-101940176D01*
D10*
X216110316Y-75517292D02*
X216038887Y-75651220D01*
X216038887Y-75651220D02*
X216038887Y-75936935D01*
X216038887Y-75936935D02*
X216110316Y-76088720D01*
X216110316Y-76088720D02*
X216253173Y-76178006D01*
X216253173Y-76178006D02*
X216324601Y-76186935D01*
X216324601Y-76186935D02*
X216467458Y-76133363D01*
X216467458Y-76133363D02*
X216538887Y-75999435D01*
X216538887Y-75999435D02*
X216538887Y-75785149D01*
X216538887Y-75785149D02*
X216610316Y-75651220D01*
X216610316Y-75651220D02*
X216753173Y-75597649D01*
X216753173Y-75597649D02*
X216824601Y-75606578D01*
X216824601Y-75606578D02*
X216967458Y-75695863D01*
X216967458Y-75695863D02*
X217038887Y-75847649D01*
X217038887Y-75847649D02*
X217038887Y-76061935D01*
X217038887Y-76061935D02*
X216967458Y-76195863D01*
X217038887Y-76704792D02*
X217038887Y-77276221D01*
X217538887Y-76981578D02*
X216253173Y-76820864D01*
X216253173Y-76820864D02*
X216110316Y-76874435D01*
X216110316Y-76874435D02*
X216038887Y-77008364D01*
X216038887Y-77008364D02*
X216038887Y-77151221D01*
X216110316Y-78231578D02*
X216038887Y-78079792D01*
X216038887Y-78079792D02*
X216038887Y-77794078D01*
X216038887Y-77794078D02*
X216110316Y-77660149D01*
X216110316Y-77660149D02*
X216253173Y-77606578D01*
X216253173Y-77606578D02*
X216824601Y-77678007D01*
X216824601Y-77678007D02*
X216967458Y-77767292D01*
X216967458Y-77767292D02*
X217038887Y-77919078D01*
X217038887Y-77919078D02*
X217038887Y-78204792D01*
X217038887Y-78204792D02*
X216967458Y-78338721D01*
X216967458Y-78338721D02*
X216824601Y-78392292D01*
X216824601Y-78392292D02*
X216681744Y-78374435D01*
X216681744Y-78374435D02*
X216538887Y-77642292D01*
X217038887Y-79061935D02*
X215538887Y-78874435D01*
X216967458Y-79053006D02*
X217038887Y-79204792D01*
X217038887Y-79204792D02*
X217038887Y-79490506D01*
X217038887Y-79490506D02*
X216967458Y-79624435D01*
X216967458Y-79624435D02*
X216896030Y-79686935D01*
X216896030Y-79686935D02*
X216753173Y-79740506D01*
X216753173Y-79740506D02*
X216324601Y-79686935D01*
X216324601Y-79686935D02*
X216181744Y-79597649D01*
X216181744Y-79597649D02*
X216110316Y-79517292D01*
X216110316Y-79517292D02*
X216038887Y-79365506D01*
X216038887Y-79365506D02*
X216038887Y-79079792D01*
X216038887Y-79079792D02*
X216110316Y-78945863D01*
X217038887Y-80419078D02*
X215538887Y-80231578D01*
X216967458Y-80410149D02*
X217038887Y-80561935D01*
X217038887Y-80561935D02*
X217038887Y-80847649D01*
X217038887Y-80847649D02*
X216967458Y-80981578D01*
X216967458Y-80981578D02*
X216896030Y-81044078D01*
X216896030Y-81044078D02*
X216753173Y-81097649D01*
X216753173Y-81097649D02*
X216324601Y-81044078D01*
X216324601Y-81044078D02*
X216181744Y-80954792D01*
X216181744Y-80954792D02*
X216110316Y-80874435D01*
X216110316Y-80874435D02*
X216038887Y-80722649D01*
X216038887Y-80722649D02*
X216038887Y-80436935D01*
X216038887Y-80436935D02*
X216110316Y-80303006D01*
X216110316Y-82231578D02*
X216038887Y-82079792D01*
X216038887Y-82079792D02*
X216038887Y-81794078D01*
X216038887Y-81794078D02*
X216110316Y-81660149D01*
X216110316Y-81660149D02*
X216253173Y-81606578D01*
X216253173Y-81606578D02*
X216824601Y-81678007D01*
X216824601Y-81678007D02*
X216967458Y-81767292D01*
X216967458Y-81767292D02*
X217038887Y-81919078D01*
X217038887Y-81919078D02*
X217038887Y-82204792D01*
X217038887Y-82204792D02*
X216967458Y-82338721D01*
X216967458Y-82338721D02*
X216824601Y-82392292D01*
X216824601Y-82392292D02*
X216681744Y-82374435D01*
X216681744Y-82374435D02*
X216538887Y-81642292D01*
X216038887Y-82936935D02*
X217038887Y-83061935D01*
X216753173Y-83026221D02*
X216896030Y-83115506D01*
X216896030Y-83115506D02*
X216967458Y-83195863D01*
X216967458Y-83195863D02*
X217038887Y-83347649D01*
X217038887Y-83347649D02*
X217038887Y-83490506D01*
X213623971Y-75579792D02*
X214623971Y-75704792D01*
X214481114Y-75686935D02*
X214552542Y-75767292D01*
X214552542Y-75767292D02*
X214623971Y-75919078D01*
X214623971Y-75919078D02*
X214623971Y-76133363D01*
X214623971Y-76133363D02*
X214552542Y-76267292D01*
X214552542Y-76267292D02*
X214409685Y-76320863D01*
X214409685Y-76320863D02*
X213623971Y-76222649D01*
X214409685Y-76320863D02*
X214552542Y-76410149D01*
X214552542Y-76410149D02*
X214623971Y-76561935D01*
X214623971Y-76561935D02*
X214623971Y-76776220D01*
X214623971Y-76776220D02*
X214552542Y-76910149D01*
X214552542Y-76910149D02*
X214409685Y-76963720D01*
X214409685Y-76963720D02*
X213623971Y-76865506D01*
X213623971Y-77794078D02*
X213695400Y-77660149D01*
X213695400Y-77660149D02*
X213766828Y-77597649D01*
X213766828Y-77597649D02*
X213909685Y-77544078D01*
X213909685Y-77544078D02*
X214338257Y-77597649D01*
X214338257Y-77597649D02*
X214481114Y-77686935D01*
X214481114Y-77686935D02*
X214552542Y-77767292D01*
X214552542Y-77767292D02*
X214623971Y-77919078D01*
X214623971Y-77919078D02*
X214623971Y-78133363D01*
X214623971Y-78133363D02*
X214552542Y-78267292D01*
X214552542Y-78267292D02*
X214481114Y-78329792D01*
X214481114Y-78329792D02*
X214338257Y-78383363D01*
X214338257Y-78383363D02*
X213909685Y-78329792D01*
X213909685Y-78329792D02*
X213766828Y-78240506D01*
X213766828Y-78240506D02*
X213695400Y-78160149D01*
X213695400Y-78160149D02*
X213623971Y-78008363D01*
X213623971Y-78008363D02*
X213623971Y-77794078D01*
X214623971Y-78847649D02*
X214623971Y-79419078D01*
X215123971Y-79124435D02*
X213838257Y-78963721D01*
X213838257Y-78963721D02*
X213695400Y-79017292D01*
X213695400Y-79017292D02*
X213623971Y-79151221D01*
X213623971Y-79151221D02*
X213623971Y-79294078D01*
X213623971Y-80008364D02*
X213695400Y-79874435D01*
X213695400Y-79874435D02*
X213766828Y-79811935D01*
X213766828Y-79811935D02*
X213909685Y-79758364D01*
X213909685Y-79758364D02*
X214338257Y-79811935D01*
X214338257Y-79811935D02*
X214481114Y-79901221D01*
X214481114Y-79901221D02*
X214552542Y-79981578D01*
X214552542Y-79981578D02*
X214623971Y-80133364D01*
X214623971Y-80133364D02*
X214623971Y-80347649D01*
X214623971Y-80347649D02*
X214552542Y-80481578D01*
X214552542Y-80481578D02*
X214481114Y-80544078D01*
X214481114Y-80544078D02*
X214338257Y-80597649D01*
X214338257Y-80597649D02*
X213909685Y-80544078D01*
X213909685Y-80544078D02*
X213766828Y-80454792D01*
X213766828Y-80454792D02*
X213695400Y-80374435D01*
X213695400Y-80374435D02*
X213623971Y-80222649D01*
X213623971Y-80222649D02*
X213623971Y-80008364D01*
X213623971Y-81151221D02*
X214623971Y-81276221D01*
X214338257Y-81240507D02*
X214481114Y-81329792D01*
X214481114Y-81329792D02*
X214552542Y-81410149D01*
X214552542Y-81410149D02*
X214623971Y-81561935D01*
X214623971Y-81561935D02*
X214623971Y-81704792D01*
D11*
X87259823Y-84324438D02*
X86307442Y-84324438D01*
X86307442Y-84324438D02*
X86557442Y-82324438D01*
X88057443Y-83276819D02*
X88724109Y-83276819D01*
X88878871Y-84324438D02*
X87926490Y-84324438D01*
X87926490Y-84324438D02*
X88176490Y-82324438D01*
X88176490Y-82324438D02*
X89128871Y-82324438D01*
X89736014Y-84324438D02*
X89986014Y-82324438D01*
X89986014Y-82324438D02*
X90462205Y-82324438D01*
X90462205Y-82324438D02*
X90736014Y-82419676D01*
X90736014Y-82419676D02*
X90902681Y-82610152D01*
X90902681Y-82610152D02*
X90974109Y-82800628D01*
X90974109Y-82800628D02*
X91021729Y-83181580D01*
X91021729Y-83181580D02*
X90986014Y-83467295D01*
X90986014Y-83467295D02*
X90843157Y-83848247D01*
X90843157Y-83848247D02*
X90724109Y-84038723D01*
X90724109Y-84038723D02*
X90509824Y-84229200D01*
X90509824Y-84229200D02*
X90212205Y-84324438D01*
X90212205Y-84324438D02*
X89736014Y-84324438D01*
X93176491Y-84229200D02*
X93450300Y-84324438D01*
X93450300Y-84324438D02*
X93926491Y-84324438D01*
X93926491Y-84324438D02*
X94128872Y-84229200D01*
X94128872Y-84229200D02*
X94236015Y-84133961D01*
X94236015Y-84133961D02*
X94355062Y-83943485D01*
X94355062Y-83943485D02*
X94378872Y-83753009D01*
X94378872Y-83753009D02*
X94307443Y-83562533D01*
X94307443Y-83562533D02*
X94224110Y-83467295D01*
X94224110Y-83467295D02*
X94045539Y-83372057D01*
X94045539Y-83372057D02*
X93676491Y-83276819D01*
X93676491Y-83276819D02*
X93497919Y-83181580D01*
X93497919Y-83181580D02*
X93414586Y-83086342D01*
X93414586Y-83086342D02*
X93343158Y-82895866D01*
X93343158Y-82895866D02*
X93366967Y-82705390D01*
X93366967Y-82705390D02*
X93486015Y-82514914D01*
X93486015Y-82514914D02*
X93593158Y-82419676D01*
X93593158Y-82419676D02*
X93795539Y-82324438D01*
X93795539Y-82324438D02*
X94271729Y-82324438D01*
X94271729Y-82324438D02*
X94545539Y-82419676D01*
X95045539Y-82991104D02*
X95807443Y-82991104D01*
X95414586Y-82324438D02*
X95200301Y-84038723D01*
X95200301Y-84038723D02*
X95271729Y-84229200D01*
X95271729Y-84229200D02*
X95450301Y-84324438D01*
X95450301Y-84324438D02*
X95640777Y-84324438D01*
X96307443Y-84324438D02*
X96474110Y-82991104D01*
X96426491Y-83372057D02*
X96545538Y-83181580D01*
X96545538Y-83181580D02*
X96652681Y-83086342D01*
X96652681Y-83086342D02*
X96855062Y-82991104D01*
X96855062Y-82991104D02*
X97045538Y-82991104D01*
X97831253Y-84324438D02*
X97652681Y-84229200D01*
X97652681Y-84229200D02*
X97569348Y-84133961D01*
X97569348Y-84133961D02*
X97497919Y-83943485D01*
X97497919Y-83943485D02*
X97569348Y-83372057D01*
X97569348Y-83372057D02*
X97688395Y-83181580D01*
X97688395Y-83181580D02*
X97795538Y-83086342D01*
X97795538Y-83086342D02*
X97997919Y-82991104D01*
X97997919Y-82991104D02*
X98283633Y-82991104D01*
X98283633Y-82991104D02*
X98462205Y-83086342D01*
X98462205Y-83086342D02*
X98545538Y-83181580D01*
X98545538Y-83181580D02*
X98616967Y-83372057D01*
X98616967Y-83372057D02*
X98545538Y-83943485D01*
X98545538Y-83943485D02*
X98426491Y-84133961D01*
X98426491Y-84133961D02*
X98319348Y-84229200D01*
X98319348Y-84229200D02*
X98116967Y-84324438D01*
X98116967Y-84324438D02*
X97831253Y-84324438D01*
X99355062Y-84324438D02*
X99605062Y-82324438D01*
X99509824Y-83086342D02*
X99712205Y-82991104D01*
X99712205Y-82991104D02*
X100093157Y-82991104D01*
X100093157Y-82991104D02*
X100271729Y-83086342D01*
X100271729Y-83086342D02*
X100355062Y-83181580D01*
X100355062Y-83181580D02*
X100426491Y-83372057D01*
X100426491Y-83372057D02*
X100355062Y-83943485D01*
X100355062Y-83943485D02*
X100236015Y-84133961D01*
X100236015Y-84133961D02*
X100128872Y-84229200D01*
X100128872Y-84229200D02*
X99926491Y-84324438D01*
X99926491Y-84324438D02*
X99545538Y-84324438D01*
X99545538Y-84324438D02*
X99366967Y-84229200D01*
X101938396Y-84229200D02*
X101736015Y-84324438D01*
X101736015Y-84324438D02*
X101355062Y-84324438D01*
X101355062Y-84324438D02*
X101176491Y-84229200D01*
X101176491Y-84229200D02*
X101105062Y-84038723D01*
X101105062Y-84038723D02*
X101200301Y-83276819D01*
X101200301Y-83276819D02*
X101319348Y-83086342D01*
X101319348Y-83086342D02*
X101521729Y-82991104D01*
X101521729Y-82991104D02*
X101902681Y-82991104D01*
X101902681Y-82991104D02*
X102081253Y-83086342D01*
X102081253Y-83086342D02*
X102152681Y-83276819D01*
X102152681Y-83276819D02*
X102128872Y-83467295D01*
X102128872Y-83467295D02*
X101152681Y-83657771D01*
X105033635Y-82324438D02*
X105414587Y-82324438D01*
X105414587Y-82324438D02*
X105593158Y-82419676D01*
X105593158Y-82419676D02*
X105759825Y-82610152D01*
X105759825Y-82610152D02*
X105807444Y-82991104D01*
X105807444Y-82991104D02*
X105724111Y-83657771D01*
X105724111Y-83657771D02*
X105581254Y-84038723D01*
X105581254Y-84038723D02*
X105366968Y-84229200D01*
X105366968Y-84229200D02*
X105164587Y-84324438D01*
X105164587Y-84324438D02*
X104783635Y-84324438D01*
X104783635Y-84324438D02*
X104605063Y-84229200D01*
X104605063Y-84229200D02*
X104438397Y-84038723D01*
X104438397Y-84038723D02*
X104390777Y-83657771D01*
X104390777Y-83657771D02*
X104474111Y-82991104D01*
X104474111Y-82991104D02*
X104616968Y-82610152D01*
X104616968Y-82610152D02*
X104831254Y-82419676D01*
X104831254Y-82419676D02*
X105033635Y-82324438D01*
X106664587Y-82991104D02*
X106497920Y-84324438D01*
X106640777Y-83181580D02*
X106747920Y-83086342D01*
X106747920Y-83086342D02*
X106950301Y-82991104D01*
X106950301Y-82991104D02*
X107236015Y-82991104D01*
X107236015Y-82991104D02*
X107414587Y-83086342D01*
X107414587Y-83086342D02*
X107486015Y-83276819D01*
X107486015Y-83276819D02*
X107355063Y-84324438D01*
X109795540Y-82324438D02*
X110938397Y-82324438D01*
X110116969Y-84324438D02*
X110366969Y-82324438D01*
X111355064Y-84324438D02*
X111521731Y-82991104D01*
X111605064Y-82324438D02*
X111497921Y-82419676D01*
X111497921Y-82419676D02*
X111581255Y-82514914D01*
X111581255Y-82514914D02*
X111688398Y-82419676D01*
X111688398Y-82419676D02*
X111605064Y-82324438D01*
X111605064Y-82324438D02*
X111581255Y-82514914D01*
X112307445Y-84324438D02*
X112474112Y-82991104D01*
X112450302Y-83181580D02*
X112557445Y-83086342D01*
X112557445Y-83086342D02*
X112759826Y-82991104D01*
X112759826Y-82991104D02*
X113045540Y-82991104D01*
X113045540Y-82991104D02*
X113224112Y-83086342D01*
X113224112Y-83086342D02*
X113295540Y-83276819D01*
X113295540Y-83276819D02*
X113164588Y-84324438D01*
X113295540Y-83276819D02*
X113414588Y-83086342D01*
X113414588Y-83086342D02*
X113616969Y-82991104D01*
X113616969Y-82991104D02*
X113902683Y-82991104D01*
X113902683Y-82991104D02*
X114081255Y-83086342D01*
X114081255Y-83086342D02*
X114152683Y-83276819D01*
X114152683Y-83276819D02*
X114021731Y-84324438D01*
X115747922Y-84229200D02*
X115545541Y-84324438D01*
X115545541Y-84324438D02*
X115164588Y-84324438D01*
X115164588Y-84324438D02*
X114986017Y-84229200D01*
X114986017Y-84229200D02*
X114914588Y-84038723D01*
X114914588Y-84038723D02*
X115009827Y-83276819D01*
X115009827Y-83276819D02*
X115128874Y-83086342D01*
X115128874Y-83086342D02*
X115331255Y-82991104D01*
X115331255Y-82991104D02*
X115712207Y-82991104D01*
X115712207Y-82991104D02*
X115890779Y-83086342D01*
X115890779Y-83086342D02*
X115962207Y-83276819D01*
X115962207Y-83276819D02*
X115938398Y-83467295D01*
X115938398Y-83467295D02*
X114962207Y-83657771D01*
X199907442Y-107174438D02*
X200157442Y-105174438D01*
X200157442Y-105174438D02*
X200645537Y-106603009D01*
X200645537Y-106603009D02*
X201490776Y-105174438D01*
X201490776Y-105174438D02*
X201240776Y-107174438D01*
X202478871Y-107174438D02*
X202300299Y-107079200D01*
X202300299Y-107079200D02*
X202216966Y-106983961D01*
X202216966Y-106983961D02*
X202145537Y-106793485D01*
X202145537Y-106793485D02*
X202216966Y-106222057D01*
X202216966Y-106222057D02*
X202336013Y-106031580D01*
X202336013Y-106031580D02*
X202443156Y-105936342D01*
X202443156Y-105936342D02*
X202645537Y-105841104D01*
X202645537Y-105841104D02*
X202931251Y-105841104D01*
X202931251Y-105841104D02*
X203109823Y-105936342D01*
X203109823Y-105936342D02*
X203193156Y-106031580D01*
X203193156Y-106031580D02*
X203264585Y-106222057D01*
X203264585Y-106222057D02*
X203193156Y-106793485D01*
X203193156Y-106793485D02*
X203074109Y-106983961D01*
X203074109Y-106983961D02*
X202966966Y-107079200D01*
X202966966Y-107079200D02*
X202764585Y-107174438D01*
X202764585Y-107174438D02*
X202478871Y-107174438D01*
X203883633Y-105841104D02*
X204645537Y-105841104D01*
X204252680Y-105174438D02*
X204038395Y-106888723D01*
X204038395Y-106888723D02*
X204109823Y-107079200D01*
X204109823Y-107079200D02*
X204288395Y-107174438D01*
X204288395Y-107174438D02*
X204478871Y-107174438D01*
X205431252Y-107174438D02*
X205252680Y-107079200D01*
X205252680Y-107079200D02*
X205169347Y-106983961D01*
X205169347Y-106983961D02*
X205097918Y-106793485D01*
X205097918Y-106793485D02*
X205169347Y-106222057D01*
X205169347Y-106222057D02*
X205288394Y-106031580D01*
X205288394Y-106031580D02*
X205395537Y-105936342D01*
X205395537Y-105936342D02*
X205597918Y-105841104D01*
X205597918Y-105841104D02*
X205883632Y-105841104D01*
X205883632Y-105841104D02*
X206062204Y-105936342D01*
X206062204Y-105936342D02*
X206145537Y-106031580D01*
X206145537Y-106031580D02*
X206216966Y-106222057D01*
X206216966Y-106222057D02*
X206145537Y-106793485D01*
X206145537Y-106793485D02*
X206026490Y-106983961D01*
X206026490Y-106983961D02*
X205919347Y-107079200D01*
X205919347Y-107079200D02*
X205716966Y-107174438D01*
X205716966Y-107174438D02*
X205431252Y-107174438D01*
X206955061Y-107174438D02*
X207121728Y-105841104D01*
X207074109Y-106222057D02*
X207193156Y-106031580D01*
X207193156Y-106031580D02*
X207300299Y-105936342D01*
X207300299Y-105936342D02*
X207502680Y-105841104D01*
X207502680Y-105841104D02*
X207693156Y-105841104D01*
X209633633Y-107079200D02*
X209907442Y-107174438D01*
X209907442Y-107174438D02*
X210383633Y-107174438D01*
X210383633Y-107174438D02*
X210586014Y-107079200D01*
X210586014Y-107079200D02*
X210693157Y-106983961D01*
X210693157Y-106983961D02*
X210812204Y-106793485D01*
X210812204Y-106793485D02*
X210836014Y-106603009D01*
X210836014Y-106603009D02*
X210764585Y-106412533D01*
X210764585Y-106412533D02*
X210681252Y-106317295D01*
X210681252Y-106317295D02*
X210502681Y-106222057D01*
X210502681Y-106222057D02*
X210133633Y-106126819D01*
X210133633Y-106126819D02*
X209955061Y-106031580D01*
X209955061Y-106031580D02*
X209871728Y-105936342D01*
X209871728Y-105936342D02*
X209800300Y-105745866D01*
X209800300Y-105745866D02*
X209824109Y-105555390D01*
X209824109Y-105555390D02*
X209943157Y-105364914D01*
X209943157Y-105364914D02*
X210050300Y-105269676D01*
X210050300Y-105269676D02*
X210252681Y-105174438D01*
X210252681Y-105174438D02*
X210728871Y-105174438D01*
X210728871Y-105174438D02*
X211002681Y-105269676D01*
X211788395Y-105841104D02*
X211538395Y-107841104D01*
X211776490Y-105936342D02*
X211978871Y-105841104D01*
X211978871Y-105841104D02*
X212359823Y-105841104D01*
X212359823Y-105841104D02*
X212538395Y-105936342D01*
X212538395Y-105936342D02*
X212621728Y-106031580D01*
X212621728Y-106031580D02*
X212693157Y-106222057D01*
X212693157Y-106222057D02*
X212621728Y-106793485D01*
X212621728Y-106793485D02*
X212502681Y-106983961D01*
X212502681Y-106983961D02*
X212395538Y-107079200D01*
X212395538Y-107079200D02*
X212193157Y-107174438D01*
X212193157Y-107174438D02*
X211812204Y-107174438D01*
X211812204Y-107174438D02*
X211633633Y-107079200D01*
X214205062Y-107079200D02*
X214002681Y-107174438D01*
X214002681Y-107174438D02*
X213621728Y-107174438D01*
X213621728Y-107174438D02*
X213443157Y-107079200D01*
X213443157Y-107079200D02*
X213371728Y-106888723D01*
X213371728Y-106888723D02*
X213466967Y-106126819D01*
X213466967Y-106126819D02*
X213586014Y-105936342D01*
X213586014Y-105936342D02*
X213788395Y-105841104D01*
X213788395Y-105841104D02*
X214169347Y-105841104D01*
X214169347Y-105841104D02*
X214347919Y-105936342D01*
X214347919Y-105936342D02*
X214419347Y-106126819D01*
X214419347Y-106126819D02*
X214395538Y-106317295D01*
X214395538Y-106317295D02*
X213419347Y-106507771D01*
X215919348Y-107079200D02*
X215716967Y-107174438D01*
X215716967Y-107174438D02*
X215336014Y-107174438D01*
X215336014Y-107174438D02*
X215157443Y-107079200D01*
X215157443Y-107079200D02*
X215086014Y-106888723D01*
X215086014Y-106888723D02*
X215181253Y-106126819D01*
X215181253Y-106126819D02*
X215300300Y-105936342D01*
X215300300Y-105936342D02*
X215502681Y-105841104D01*
X215502681Y-105841104D02*
X215883633Y-105841104D01*
X215883633Y-105841104D02*
X216062205Y-105936342D01*
X216062205Y-105936342D02*
X216133633Y-106126819D01*
X216133633Y-106126819D02*
X216109824Y-106317295D01*
X216109824Y-106317295D02*
X215133633Y-106507771D01*
X217716967Y-107174438D02*
X217966967Y-105174438D01*
X217728872Y-107079200D02*
X217526491Y-107174438D01*
X217526491Y-107174438D02*
X217145539Y-107174438D01*
X217145539Y-107174438D02*
X216966967Y-107079200D01*
X216966967Y-107079200D02*
X216883634Y-106983961D01*
X216883634Y-106983961D02*
X216812205Y-106793485D01*
X216812205Y-106793485D02*
X216883634Y-106222057D01*
X216883634Y-106222057D02*
X217002681Y-106031580D01*
X217002681Y-106031580D02*
X217109824Y-105936342D01*
X217109824Y-105936342D02*
X217312205Y-105841104D01*
X217312205Y-105841104D02*
X217693158Y-105841104D01*
X217693158Y-105841104D02*
X217871729Y-105936342D01*
D12*
X209098445Y-68808866D02*
X209860350Y-68808866D01*
X209431779Y-69189819D02*
X209527017Y-68427914D01*
X210812731Y-69189819D02*
X210241302Y-69189819D01*
X210527017Y-69189819D02*
X210652017Y-68189819D01*
X210652017Y-68189819D02*
X210538921Y-68332676D01*
X210538921Y-68332676D02*
X210431779Y-68427914D01*
X210431779Y-68427914D02*
X210330588Y-68475533D01*
X211306779Y-68285057D02*
X211360350Y-68237438D01*
X211360350Y-68237438D02*
X211461540Y-68189819D01*
X211461540Y-68189819D02*
X211699636Y-68189819D01*
X211699636Y-68189819D02*
X211788921Y-68237438D01*
X211788921Y-68237438D02*
X211830588Y-68285057D01*
X211830588Y-68285057D02*
X211866302Y-68380295D01*
X211866302Y-68380295D02*
X211854398Y-68475533D01*
X211854398Y-68475533D02*
X211788921Y-68618390D01*
X211788921Y-68618390D02*
X211146064Y-69189819D01*
X211146064Y-69189819D02*
X211765112Y-69189819D01*
X212175826Y-68189819D02*
X212384160Y-69189819D01*
X212384160Y-69189819D02*
X212842493Y-68189819D01*
D11*
X152391728Y-117334438D02*
X153534585Y-117334438D01*
X152713157Y-119334438D02*
X152963157Y-117334438D01*
X153951252Y-119334438D02*
X154201252Y-117334438D01*
X154201252Y-117334438D02*
X154689347Y-118763009D01*
X154689347Y-118763009D02*
X155534586Y-117334438D01*
X155534586Y-117334438D02*
X155284586Y-119334438D01*
X157284585Y-119334438D02*
X156141728Y-119334438D01*
X156713157Y-119334438D02*
X156963157Y-117334438D01*
X156963157Y-117334438D02*
X156736966Y-117620152D01*
X156736966Y-117620152D02*
X156522681Y-117810628D01*
X156522681Y-117810628D02*
X156320300Y-117905866D01*
X159248871Y-117334438D02*
X158867919Y-117334438D01*
X158867919Y-117334438D02*
X158665538Y-117429676D01*
X158665538Y-117429676D02*
X158558395Y-117524914D01*
X158558395Y-117524914D02*
X158332204Y-117810628D01*
X158332204Y-117810628D02*
X158189347Y-118191580D01*
X158189347Y-118191580D02*
X158094109Y-118953485D01*
X158094109Y-118953485D02*
X158165538Y-119143961D01*
X158165538Y-119143961D02*
X158248871Y-119239200D01*
X158248871Y-119239200D02*
X158427443Y-119334438D01*
X158427443Y-119334438D02*
X158808395Y-119334438D01*
X158808395Y-119334438D02*
X159010776Y-119239200D01*
X159010776Y-119239200D02*
X159117919Y-119143961D01*
X159117919Y-119143961D02*
X159236966Y-118953485D01*
X159236966Y-118953485D02*
X159296490Y-118477295D01*
X159296490Y-118477295D02*
X159225062Y-118286819D01*
X159225062Y-118286819D02*
X159141728Y-118191580D01*
X159141728Y-118191580D02*
X158963157Y-118096342D01*
X158963157Y-118096342D02*
X158582204Y-118096342D01*
X158582204Y-118096342D02*
X158379823Y-118191580D01*
X158379823Y-118191580D02*
X158272681Y-118286819D01*
X158272681Y-118286819D02*
X158153633Y-118477295D01*
X160106014Y-117334438D02*
X161344109Y-117334438D01*
X161344109Y-117334438D02*
X160582205Y-118096342D01*
X160582205Y-118096342D02*
X160867919Y-118096342D01*
X160867919Y-118096342D02*
X161046490Y-118191580D01*
X161046490Y-118191580D02*
X161129824Y-118286819D01*
X161129824Y-118286819D02*
X161201252Y-118477295D01*
X161201252Y-118477295D02*
X161141728Y-118953485D01*
X161141728Y-118953485D02*
X161022681Y-119143961D01*
X161022681Y-119143961D02*
X160915538Y-119239200D01*
X160915538Y-119239200D02*
X160713157Y-119334438D01*
X160713157Y-119334438D02*
X160141728Y-119334438D01*
X160141728Y-119334438D02*
X159963157Y-119239200D01*
X159963157Y-119239200D02*
X159879824Y-119143961D01*
X162010776Y-117334438D02*
X163344109Y-117334438D01*
X163344109Y-117334438D02*
X162236967Y-119334438D01*
X165379824Y-119334438D02*
X165629824Y-117334438D01*
X165629824Y-117334438D02*
X166117919Y-118763009D01*
X166117919Y-118763009D02*
X166963158Y-117334438D01*
X166963158Y-117334438D02*
X166713158Y-119334438D01*
X167951253Y-119334438D02*
X167772681Y-119239200D01*
X167772681Y-119239200D02*
X167689348Y-119143961D01*
X167689348Y-119143961D02*
X167617919Y-118953485D01*
X167617919Y-118953485D02*
X167689348Y-118382057D01*
X167689348Y-118382057D02*
X167808395Y-118191580D01*
X167808395Y-118191580D02*
X167915538Y-118096342D01*
X167915538Y-118096342D02*
X168117919Y-118001104D01*
X168117919Y-118001104D02*
X168403633Y-118001104D01*
X168403633Y-118001104D02*
X168582205Y-118096342D01*
X168582205Y-118096342D02*
X168665538Y-118191580D01*
X168665538Y-118191580D02*
X168736967Y-118382057D01*
X168736967Y-118382057D02*
X168665538Y-118953485D01*
X168665538Y-118953485D02*
X168546491Y-119143961D01*
X168546491Y-119143961D02*
X168439348Y-119239200D01*
X168439348Y-119239200D02*
X168236967Y-119334438D01*
X168236967Y-119334438D02*
X167951253Y-119334438D01*
X170332205Y-119334438D02*
X170582205Y-117334438D01*
X170344110Y-119239200D02*
X170141729Y-119334438D01*
X170141729Y-119334438D02*
X169760777Y-119334438D01*
X169760777Y-119334438D02*
X169582205Y-119239200D01*
X169582205Y-119239200D02*
X169498872Y-119143961D01*
X169498872Y-119143961D02*
X169427443Y-118953485D01*
X169427443Y-118953485D02*
X169498872Y-118382057D01*
X169498872Y-118382057D02*
X169617919Y-118191580D01*
X169617919Y-118191580D02*
X169725062Y-118096342D01*
X169725062Y-118096342D02*
X169927443Y-118001104D01*
X169927443Y-118001104D02*
X170308396Y-118001104D01*
X170308396Y-118001104D02*
X170486967Y-118096342D01*
X172308396Y-118001104D02*
X172141729Y-119334438D01*
X171451253Y-118001104D02*
X171320301Y-119048723D01*
X171320301Y-119048723D02*
X171391729Y-119239200D01*
X171391729Y-119239200D02*
X171570301Y-119334438D01*
X171570301Y-119334438D02*
X171856015Y-119334438D01*
X171856015Y-119334438D02*
X172058396Y-119239200D01*
X172058396Y-119239200D02*
X172165539Y-119143961D01*
X173379825Y-119334438D02*
X173201253Y-119239200D01*
X173201253Y-119239200D02*
X173129825Y-119048723D01*
X173129825Y-119048723D02*
X173344110Y-117334438D01*
X174915539Y-119239200D02*
X174713158Y-119334438D01*
X174713158Y-119334438D02*
X174332205Y-119334438D01*
X174332205Y-119334438D02*
X174153634Y-119239200D01*
X174153634Y-119239200D02*
X174082205Y-119048723D01*
X174082205Y-119048723D02*
X174177444Y-118286819D01*
X174177444Y-118286819D02*
X174296491Y-118096342D01*
X174296491Y-118096342D02*
X174498872Y-118001104D01*
X174498872Y-118001104D02*
X174879824Y-118001104D01*
X174879824Y-118001104D02*
X175058396Y-118096342D01*
X175058396Y-118096342D02*
X175129824Y-118286819D01*
X175129824Y-118286819D02*
X175106015Y-118477295D01*
X175106015Y-118477295D02*
X174129824Y-118667771D01*
D12*
X135348445Y-102898866D02*
X136110350Y-102898866D01*
X135681779Y-103279819D02*
X135777017Y-102517914D01*
X137140112Y-102279819D02*
X136663921Y-102279819D01*
X136663921Y-102279819D02*
X136556779Y-102756009D01*
X136556779Y-102756009D02*
X136610350Y-102708390D01*
X136610350Y-102708390D02*
X136711540Y-102660771D01*
X136711540Y-102660771D02*
X136949636Y-102660771D01*
X136949636Y-102660771D02*
X137038921Y-102708390D01*
X137038921Y-102708390D02*
X137080588Y-102756009D01*
X137080588Y-102756009D02*
X137116302Y-102851247D01*
X137116302Y-102851247D02*
X137086540Y-103089342D01*
X137086540Y-103089342D02*
X137027017Y-103184580D01*
X137027017Y-103184580D02*
X136973445Y-103232200D01*
X136973445Y-103232200D02*
X136872255Y-103279819D01*
X136872255Y-103279819D02*
X136634159Y-103279819D01*
X136634159Y-103279819D02*
X136544874Y-103232200D01*
X136544874Y-103232200D02*
X136503207Y-103184580D01*
X137473445Y-102279819D02*
X137681779Y-103279819D01*
X137681779Y-103279819D02*
X138140112Y-102279819D01*
X91508445Y-64698866D02*
X92270350Y-64698866D01*
X91841779Y-65079819D02*
X91937017Y-64317914D01*
X92728683Y-64079819D02*
X93347731Y-64079819D01*
X93347731Y-64079819D02*
X92966779Y-64460771D01*
X92966779Y-64460771D02*
X93109636Y-64460771D01*
X93109636Y-64460771D02*
X93198921Y-64508390D01*
X93198921Y-64508390D02*
X93240588Y-64556009D01*
X93240588Y-64556009D02*
X93276302Y-64651247D01*
X93276302Y-64651247D02*
X93246540Y-64889342D01*
X93246540Y-64889342D02*
X93187017Y-64984580D01*
X93187017Y-64984580D02*
X93133445Y-65032200D01*
X93133445Y-65032200D02*
X93032255Y-65079819D01*
X93032255Y-65079819D02*
X92746540Y-65079819D01*
X92746540Y-65079819D02*
X92657255Y-65032200D01*
X92657255Y-65032200D02*
X92615588Y-64984580D01*
X93663207Y-64984580D02*
X93704874Y-65032200D01*
X93704874Y-65032200D02*
X93651302Y-65079819D01*
X93651302Y-65079819D02*
X93609636Y-65032200D01*
X93609636Y-65032200D02*
X93663207Y-64984580D01*
X93663207Y-64984580D02*
X93651302Y-65079819D01*
X94157254Y-64079819D02*
X94776302Y-64079819D01*
X94776302Y-64079819D02*
X94395350Y-64460771D01*
X94395350Y-64460771D02*
X94538207Y-64460771D01*
X94538207Y-64460771D02*
X94627492Y-64508390D01*
X94627492Y-64508390D02*
X94669159Y-64556009D01*
X94669159Y-64556009D02*
X94704873Y-64651247D01*
X94704873Y-64651247D02*
X94675111Y-64889342D01*
X94675111Y-64889342D02*
X94615588Y-64984580D01*
X94615588Y-64984580D02*
X94562016Y-65032200D01*
X94562016Y-65032200D02*
X94460826Y-65079819D01*
X94460826Y-65079819D02*
X94175111Y-65079819D01*
X94175111Y-65079819D02*
X94085826Y-65032200D01*
X94085826Y-65032200D02*
X94044159Y-64984580D01*
X95062016Y-64079819D02*
X95270350Y-65079819D01*
X95270350Y-65079819D02*
X95728683Y-64079819D01*
D11*
X96757442Y-96654438D02*
X97007442Y-94654438D01*
X97007442Y-94654438D02*
X97495537Y-96083009D01*
X97495537Y-96083009D02*
X98340776Y-94654438D01*
X98340776Y-94654438D02*
X98090776Y-96654438D01*
X99328871Y-96654438D02*
X99150299Y-96559200D01*
X99150299Y-96559200D02*
X99066966Y-96463961D01*
X99066966Y-96463961D02*
X98995537Y-96273485D01*
X98995537Y-96273485D02*
X99066966Y-95702057D01*
X99066966Y-95702057D02*
X99186013Y-95511580D01*
X99186013Y-95511580D02*
X99293156Y-95416342D01*
X99293156Y-95416342D02*
X99495537Y-95321104D01*
X99495537Y-95321104D02*
X99781251Y-95321104D01*
X99781251Y-95321104D02*
X99959823Y-95416342D01*
X99959823Y-95416342D02*
X100043156Y-95511580D01*
X100043156Y-95511580D02*
X100114585Y-95702057D01*
X100114585Y-95702057D02*
X100043156Y-96273485D01*
X100043156Y-96273485D02*
X99924109Y-96463961D01*
X99924109Y-96463961D02*
X99816966Y-96559200D01*
X99816966Y-96559200D02*
X99614585Y-96654438D01*
X99614585Y-96654438D02*
X99328871Y-96654438D01*
X100733633Y-95321104D02*
X101495537Y-95321104D01*
X101102680Y-94654438D02*
X100888395Y-96368723D01*
X100888395Y-96368723D02*
X100959823Y-96559200D01*
X100959823Y-96559200D02*
X101138395Y-96654438D01*
X101138395Y-96654438D02*
X101328871Y-96654438D01*
X102281252Y-96654438D02*
X102102680Y-96559200D01*
X102102680Y-96559200D02*
X102019347Y-96463961D01*
X102019347Y-96463961D02*
X101947918Y-96273485D01*
X101947918Y-96273485D02*
X102019347Y-95702057D01*
X102019347Y-95702057D02*
X102138394Y-95511580D01*
X102138394Y-95511580D02*
X102245537Y-95416342D01*
X102245537Y-95416342D02*
X102447918Y-95321104D01*
X102447918Y-95321104D02*
X102733632Y-95321104D01*
X102733632Y-95321104D02*
X102912204Y-95416342D01*
X102912204Y-95416342D02*
X102995537Y-95511580D01*
X102995537Y-95511580D02*
X103066966Y-95702057D01*
X103066966Y-95702057D02*
X102995537Y-96273485D01*
X102995537Y-96273485D02*
X102876490Y-96463961D01*
X102876490Y-96463961D02*
X102769347Y-96559200D01*
X102769347Y-96559200D02*
X102566966Y-96654438D01*
X102566966Y-96654438D02*
X102281252Y-96654438D01*
X103805061Y-96654438D02*
X103971728Y-95321104D01*
X103924109Y-95702057D02*
X104043156Y-95511580D01*
X104043156Y-95511580D02*
X104150299Y-95416342D01*
X104150299Y-95416342D02*
X104352680Y-95321104D01*
X104352680Y-95321104D02*
X104543156Y-95321104D01*
X106483633Y-96559200D02*
X106757442Y-96654438D01*
X106757442Y-96654438D02*
X107233633Y-96654438D01*
X107233633Y-96654438D02*
X107436014Y-96559200D01*
X107436014Y-96559200D02*
X107543157Y-96463961D01*
X107543157Y-96463961D02*
X107662204Y-96273485D01*
X107662204Y-96273485D02*
X107686014Y-96083009D01*
X107686014Y-96083009D02*
X107614585Y-95892533D01*
X107614585Y-95892533D02*
X107531252Y-95797295D01*
X107531252Y-95797295D02*
X107352681Y-95702057D01*
X107352681Y-95702057D02*
X106983633Y-95606819D01*
X106983633Y-95606819D02*
X106805061Y-95511580D01*
X106805061Y-95511580D02*
X106721728Y-95416342D01*
X106721728Y-95416342D02*
X106650300Y-95225866D01*
X106650300Y-95225866D02*
X106674109Y-95035390D01*
X106674109Y-95035390D02*
X106793157Y-94844914D01*
X106793157Y-94844914D02*
X106900300Y-94749676D01*
X106900300Y-94749676D02*
X107102681Y-94654438D01*
X107102681Y-94654438D02*
X107578871Y-94654438D01*
X107578871Y-94654438D02*
X107852681Y-94749676D01*
X108638395Y-95321104D02*
X108388395Y-97321104D01*
X108626490Y-95416342D02*
X108828871Y-95321104D01*
X108828871Y-95321104D02*
X109209823Y-95321104D01*
X109209823Y-95321104D02*
X109388395Y-95416342D01*
X109388395Y-95416342D02*
X109471728Y-95511580D01*
X109471728Y-95511580D02*
X109543157Y-95702057D01*
X109543157Y-95702057D02*
X109471728Y-96273485D01*
X109471728Y-96273485D02*
X109352681Y-96463961D01*
X109352681Y-96463961D02*
X109245538Y-96559200D01*
X109245538Y-96559200D02*
X109043157Y-96654438D01*
X109043157Y-96654438D02*
X108662204Y-96654438D01*
X108662204Y-96654438D02*
X108483633Y-96559200D01*
X111055062Y-96559200D02*
X110852681Y-96654438D01*
X110852681Y-96654438D02*
X110471728Y-96654438D01*
X110471728Y-96654438D02*
X110293157Y-96559200D01*
X110293157Y-96559200D02*
X110221728Y-96368723D01*
X110221728Y-96368723D02*
X110316967Y-95606819D01*
X110316967Y-95606819D02*
X110436014Y-95416342D01*
X110436014Y-95416342D02*
X110638395Y-95321104D01*
X110638395Y-95321104D02*
X111019347Y-95321104D01*
X111019347Y-95321104D02*
X111197919Y-95416342D01*
X111197919Y-95416342D02*
X111269347Y-95606819D01*
X111269347Y-95606819D02*
X111245538Y-95797295D01*
X111245538Y-95797295D02*
X110269347Y-95987771D01*
X112769348Y-96559200D02*
X112566967Y-96654438D01*
X112566967Y-96654438D02*
X112186014Y-96654438D01*
X112186014Y-96654438D02*
X112007443Y-96559200D01*
X112007443Y-96559200D02*
X111936014Y-96368723D01*
X111936014Y-96368723D02*
X112031253Y-95606819D01*
X112031253Y-95606819D02*
X112150300Y-95416342D01*
X112150300Y-95416342D02*
X112352681Y-95321104D01*
X112352681Y-95321104D02*
X112733633Y-95321104D01*
X112733633Y-95321104D02*
X112912205Y-95416342D01*
X112912205Y-95416342D02*
X112983633Y-95606819D01*
X112983633Y-95606819D02*
X112959824Y-95797295D01*
X112959824Y-95797295D02*
X111983633Y-95987771D01*
X114566967Y-96654438D02*
X114816967Y-94654438D01*
X114578872Y-96559200D02*
X114376491Y-96654438D01*
X114376491Y-96654438D02*
X113995539Y-96654438D01*
X113995539Y-96654438D02*
X113816967Y-96559200D01*
X113816967Y-96559200D02*
X113733634Y-96463961D01*
X113733634Y-96463961D02*
X113662205Y-96273485D01*
X113662205Y-96273485D02*
X113733634Y-95702057D01*
X113733634Y-95702057D02*
X113852681Y-95511580D01*
X113852681Y-95511580D02*
X113959824Y-95416342D01*
X113959824Y-95416342D02*
X114162205Y-95321104D01*
X114162205Y-95321104D02*
X114543158Y-95321104D01*
X114543158Y-95321104D02*
X114721729Y-95416342D01*
D12*
X248403684Y-86847438D02*
X248314398Y-86799819D01*
X248314398Y-86799819D02*
X248171541Y-86799819D01*
X248171541Y-86799819D02*
X248022731Y-86847438D01*
X248022731Y-86847438D02*
X247915588Y-86942676D01*
X247915588Y-86942676D02*
X247856064Y-87037914D01*
X247856064Y-87037914D02*
X247784636Y-87228390D01*
X247784636Y-87228390D02*
X247766779Y-87371247D01*
X247766779Y-87371247D02*
X247790588Y-87561723D01*
X247790588Y-87561723D02*
X247826303Y-87656961D01*
X247826303Y-87656961D02*
X247909636Y-87752200D01*
X247909636Y-87752200D02*
X248046541Y-87799819D01*
X248046541Y-87799819D02*
X248141779Y-87799819D01*
X248141779Y-87799819D02*
X248290588Y-87752200D01*
X248290588Y-87752200D02*
X248344160Y-87704580D01*
X248344160Y-87704580D02*
X248385826Y-87371247D01*
X248385826Y-87371247D02*
X248195350Y-87371247D01*
X248760826Y-87799819D02*
X248885826Y-86799819D01*
X248885826Y-86799819D02*
X249332255Y-87799819D01*
X249332255Y-87799819D02*
X249457255Y-86799819D01*
X249808445Y-87799819D02*
X249933445Y-86799819D01*
X249933445Y-86799819D02*
X250171541Y-86799819D01*
X250171541Y-86799819D02*
X250308445Y-86847438D01*
X250308445Y-86847438D02*
X250391779Y-86942676D01*
X250391779Y-86942676D02*
X250427493Y-87037914D01*
X250427493Y-87037914D02*
X250451303Y-87228390D01*
X250451303Y-87228390D02*
X250433445Y-87371247D01*
X250433445Y-87371247D02*
X250362017Y-87561723D01*
X250362017Y-87561723D02*
X250302493Y-87656961D01*
X250302493Y-87656961D02*
X250195350Y-87752200D01*
X250195350Y-87752200D02*
X250046541Y-87799819D01*
X250046541Y-87799819D02*
X249808445Y-87799819D01*
X71672239Y-100474325D02*
X71335521Y-100811043D01*
X71806926Y-99868234D02*
X71672239Y-100474325D01*
X71672239Y-100474325D02*
X72278330Y-100339638D01*
X72177315Y-101652836D02*
X71773254Y-101248775D01*
X71975285Y-101450806D02*
X72682391Y-100743699D01*
X72682391Y-100743699D02*
X72514033Y-100777371D01*
X72514033Y-100777371D02*
X72379346Y-100777371D01*
X72379346Y-100777371D02*
X72278330Y-100743699D01*
X121839580Y-77022857D02*
X121887200Y-77070476D01*
X121887200Y-77070476D02*
X121934819Y-77213333D01*
X121934819Y-77213333D02*
X121934819Y-77308571D01*
X121934819Y-77308571D02*
X121887200Y-77451428D01*
X121887200Y-77451428D02*
X121791961Y-77546666D01*
X121791961Y-77546666D02*
X121696723Y-77594285D01*
X121696723Y-77594285D02*
X121506247Y-77641904D01*
X121506247Y-77641904D02*
X121363390Y-77641904D01*
X121363390Y-77641904D02*
X121172914Y-77594285D01*
X121172914Y-77594285D02*
X121077676Y-77546666D01*
X121077676Y-77546666D02*
X120982438Y-77451428D01*
X120982438Y-77451428D02*
X120934819Y-77308571D01*
X120934819Y-77308571D02*
X120934819Y-77213333D01*
X120934819Y-77213333D02*
X120982438Y-77070476D01*
X120982438Y-77070476D02*
X121030057Y-77022857D01*
X121030057Y-76641904D02*
X120982438Y-76594285D01*
X120982438Y-76594285D02*
X120934819Y-76499047D01*
X120934819Y-76499047D02*
X120934819Y-76260952D01*
X120934819Y-76260952D02*
X120982438Y-76165714D01*
X120982438Y-76165714D02*
X121030057Y-76118095D01*
X121030057Y-76118095D02*
X121125295Y-76070476D01*
X121125295Y-76070476D02*
X121220533Y-76070476D01*
X121220533Y-76070476D02*
X121363390Y-76118095D01*
X121363390Y-76118095D02*
X121934819Y-76689523D01*
X121934819Y-76689523D02*
X121934819Y-76070476D01*
X120934819Y-75451428D02*
X120934819Y-75356190D01*
X120934819Y-75356190D02*
X120982438Y-75260952D01*
X120982438Y-75260952D02*
X121030057Y-75213333D01*
X121030057Y-75213333D02*
X121125295Y-75165714D01*
X121125295Y-75165714D02*
X121315771Y-75118095D01*
X121315771Y-75118095D02*
X121553866Y-75118095D01*
X121553866Y-75118095D02*
X121744342Y-75165714D01*
X121744342Y-75165714D02*
X121839580Y-75213333D01*
X121839580Y-75213333D02*
X121887200Y-75260952D01*
X121887200Y-75260952D02*
X121934819Y-75356190D01*
X121934819Y-75356190D02*
X121934819Y-75451428D01*
X121934819Y-75451428D02*
X121887200Y-75546666D01*
X121887200Y-75546666D02*
X121839580Y-75594285D01*
X121839580Y-75594285D02*
X121744342Y-75641904D01*
X121744342Y-75641904D02*
X121553866Y-75689523D01*
X121553866Y-75689523D02*
X121315771Y-75689523D01*
X121315771Y-75689523D02*
X121125295Y-75641904D01*
X121125295Y-75641904D02*
X121030057Y-75594285D01*
X121030057Y-75594285D02*
X120982438Y-75546666D01*
X120982438Y-75546666D02*
X120934819Y-75451428D01*
X77364988Y-85795873D02*
X77466003Y-85223454D01*
X76960927Y-85391812D02*
X77668034Y-84684706D01*
X77668034Y-84684706D02*
X77937408Y-84954080D01*
X77937408Y-84954080D02*
X77971080Y-85055095D01*
X77971080Y-85055095D02*
X77971080Y-85122438D01*
X77971080Y-85122438D02*
X77937408Y-85223454D01*
X77937408Y-85223454D02*
X77836393Y-85324469D01*
X77836393Y-85324469D02*
X77735377Y-85358141D01*
X77735377Y-85358141D02*
X77668034Y-85358141D01*
X77668034Y-85358141D02*
X77567019Y-85324469D01*
X77567019Y-85324469D02*
X77297645Y-85055095D01*
X78274125Y-85425484D02*
X78341469Y-85425484D01*
X78341469Y-85425484D02*
X78442484Y-85459156D01*
X78442484Y-85459156D02*
X78610843Y-85627515D01*
X78610843Y-85627515D02*
X78644515Y-85728530D01*
X78644515Y-85728530D02*
X78644515Y-85795873D01*
X78644515Y-85795873D02*
X78610843Y-85896889D01*
X78610843Y-85896889D02*
X78543499Y-85964232D01*
X78543499Y-85964232D02*
X78408812Y-86031576D01*
X78408812Y-86031576D02*
X77600690Y-86031576D01*
X77600690Y-86031576D02*
X78038423Y-86469308D01*
X79183263Y-86199935D02*
X79250606Y-86267278D01*
X79250606Y-86267278D02*
X79284278Y-86368293D01*
X79284278Y-86368293D02*
X79284278Y-86435637D01*
X79284278Y-86435637D02*
X79250606Y-86536652D01*
X79250606Y-86536652D02*
X79149591Y-86705011D01*
X79149591Y-86705011D02*
X78981232Y-86873370D01*
X78981232Y-86873370D02*
X78812874Y-86974385D01*
X78812874Y-86974385D02*
X78711858Y-87008057D01*
X78711858Y-87008057D02*
X78644515Y-87008057D01*
X78644515Y-87008057D02*
X78543500Y-86974385D01*
X78543500Y-86974385D02*
X78476156Y-86907041D01*
X78476156Y-86907041D02*
X78442484Y-86806026D01*
X78442484Y-86806026D02*
X78442484Y-86738683D01*
X78442484Y-86738683D02*
X78476156Y-86637667D01*
X78476156Y-86637667D02*
X78577171Y-86469309D01*
X78577171Y-86469309D02*
X78745530Y-86300950D01*
X78745530Y-86300950D02*
X78913889Y-86199935D01*
X78913889Y-86199935D02*
X79014904Y-86166263D01*
X79014904Y-86166263D02*
X79082248Y-86166263D01*
X79082248Y-86166263D02*
X79183263Y-86199935D01*
X118217142Y-99629580D02*
X118169523Y-99677200D01*
X118169523Y-99677200D02*
X118026666Y-99724819D01*
X118026666Y-99724819D02*
X117931428Y-99724819D01*
X117931428Y-99724819D02*
X117788571Y-99677200D01*
X117788571Y-99677200D02*
X117693333Y-99581961D01*
X117693333Y-99581961D02*
X117645714Y-99486723D01*
X117645714Y-99486723D02*
X117598095Y-99296247D01*
X117598095Y-99296247D02*
X117598095Y-99153390D01*
X117598095Y-99153390D02*
X117645714Y-98962914D01*
X117645714Y-98962914D02*
X117693333Y-98867676D01*
X117693333Y-98867676D02*
X117788571Y-98772438D01*
X117788571Y-98772438D02*
X117931428Y-98724819D01*
X117931428Y-98724819D02*
X118026666Y-98724819D01*
X118026666Y-98724819D02*
X118169523Y-98772438D01*
X118169523Y-98772438D02*
X118217142Y-98820057D01*
X119169523Y-99724819D02*
X118598095Y-99724819D01*
X118883809Y-99724819D02*
X118883809Y-98724819D01*
X118883809Y-98724819D02*
X118788571Y-98867676D01*
X118788571Y-98867676D02*
X118693333Y-98962914D01*
X118693333Y-98962914D02*
X118598095Y-99010533D01*
X119740952Y-99153390D02*
X119645714Y-99105771D01*
X119645714Y-99105771D02*
X119598095Y-99058152D01*
X119598095Y-99058152D02*
X119550476Y-98962914D01*
X119550476Y-98962914D02*
X119550476Y-98915295D01*
X119550476Y-98915295D02*
X119598095Y-98820057D01*
X119598095Y-98820057D02*
X119645714Y-98772438D01*
X119645714Y-98772438D02*
X119740952Y-98724819D01*
X119740952Y-98724819D02*
X119931428Y-98724819D01*
X119931428Y-98724819D02*
X120026666Y-98772438D01*
X120026666Y-98772438D02*
X120074285Y-98820057D01*
X120074285Y-98820057D02*
X120121904Y-98915295D01*
X120121904Y-98915295D02*
X120121904Y-98962914D01*
X120121904Y-98962914D02*
X120074285Y-99058152D01*
X120074285Y-99058152D02*
X120026666Y-99105771D01*
X120026666Y-99105771D02*
X119931428Y-99153390D01*
X119931428Y-99153390D02*
X119740952Y-99153390D01*
X119740952Y-99153390D02*
X119645714Y-99201009D01*
X119645714Y-99201009D02*
X119598095Y-99248628D01*
X119598095Y-99248628D02*
X119550476Y-99343866D01*
X119550476Y-99343866D02*
X119550476Y-99534342D01*
X119550476Y-99534342D02*
X119598095Y-99629580D01*
X119598095Y-99629580D02*
X119645714Y-99677200D01*
X119645714Y-99677200D02*
X119740952Y-99724819D01*
X119740952Y-99724819D02*
X119931428Y-99724819D01*
X119931428Y-99724819D02*
X120026666Y-99677200D01*
X120026666Y-99677200D02*
X120074285Y-99629580D01*
X120074285Y-99629580D02*
X120121904Y-99534342D01*
X120121904Y-99534342D02*
X120121904Y-99343866D01*
X120121904Y-99343866D02*
X120074285Y-99248628D01*
X120074285Y-99248628D02*
X120026666Y-99201009D01*
X120026666Y-99201009D02*
X119931428Y-99153390D01*
X96269693Y-90673517D02*
X95562587Y-89966410D01*
X95562587Y-89966410D02*
X95730945Y-89798051D01*
X95730945Y-89798051D02*
X95865632Y-89730708D01*
X95865632Y-89730708D02*
X96000319Y-89730708D01*
X96000319Y-89730708D02*
X96101335Y-89764380D01*
X96101335Y-89764380D02*
X96269693Y-89865395D01*
X96269693Y-89865395D02*
X96370709Y-89966410D01*
X96370709Y-89966410D02*
X96471724Y-90134769D01*
X96471724Y-90134769D02*
X96505396Y-90235784D01*
X96505396Y-90235784D02*
X96505396Y-90370471D01*
X96505396Y-90370471D02*
X96438052Y-90505158D01*
X96438052Y-90505158D02*
X96269693Y-90673517D01*
X96572739Y-88956258D02*
X96438052Y-89090945D01*
X96438052Y-89090945D02*
X96404380Y-89191960D01*
X96404380Y-89191960D02*
X96404380Y-89259303D01*
X96404380Y-89259303D02*
X96438052Y-89427662D01*
X96438052Y-89427662D02*
X96539067Y-89596021D01*
X96539067Y-89596021D02*
X96808441Y-89865395D01*
X96808441Y-89865395D02*
X96909457Y-89899067D01*
X96909457Y-89899067D02*
X96976800Y-89899067D01*
X96976800Y-89899067D02*
X97077815Y-89865395D01*
X97077815Y-89865395D02*
X97212502Y-89730708D01*
X97212502Y-89730708D02*
X97246174Y-89629693D01*
X97246174Y-89629693D02*
X97246174Y-89562349D01*
X97246174Y-89562349D02*
X97212502Y-89461334D01*
X97212502Y-89461334D02*
X97044144Y-89292975D01*
X97044144Y-89292975D02*
X96943128Y-89259303D01*
X96943128Y-89259303D02*
X96875785Y-89259303D01*
X96875785Y-89259303D02*
X96774770Y-89292975D01*
X96774770Y-89292975D02*
X96640083Y-89427662D01*
X96640083Y-89427662D02*
X96606411Y-89528677D01*
X96606411Y-89528677D02*
X96606411Y-89596021D01*
X96606411Y-89596021D02*
X96640083Y-89697036D01*
X126335714Y-92434819D02*
X126335714Y-91434819D01*
X126335714Y-91434819D02*
X126573809Y-91434819D01*
X126573809Y-91434819D02*
X126716666Y-91482438D01*
X126716666Y-91482438D02*
X126811904Y-91577676D01*
X126811904Y-91577676D02*
X126859523Y-91672914D01*
X126859523Y-91672914D02*
X126907142Y-91863390D01*
X126907142Y-91863390D02*
X126907142Y-92006247D01*
X126907142Y-92006247D02*
X126859523Y-92196723D01*
X126859523Y-92196723D02*
X126811904Y-92291961D01*
X126811904Y-92291961D02*
X126716666Y-92387200D01*
X126716666Y-92387200D02*
X126573809Y-92434819D01*
X126573809Y-92434819D02*
X126335714Y-92434819D01*
X127859523Y-92434819D02*
X127288095Y-92434819D01*
X127573809Y-92434819D02*
X127573809Y-91434819D01*
X127573809Y-91434819D02*
X127478571Y-91577676D01*
X127478571Y-91577676D02*
X127383333Y-91672914D01*
X127383333Y-91672914D02*
X127288095Y-91720533D01*
X128716666Y-91434819D02*
X128526190Y-91434819D01*
X128526190Y-91434819D02*
X128430952Y-91482438D01*
X128430952Y-91482438D02*
X128383333Y-91530057D01*
X128383333Y-91530057D02*
X128288095Y-91672914D01*
X128288095Y-91672914D02*
X128240476Y-91863390D01*
X128240476Y-91863390D02*
X128240476Y-92244342D01*
X128240476Y-92244342D02*
X128288095Y-92339580D01*
X128288095Y-92339580D02*
X128335714Y-92387200D01*
X128335714Y-92387200D02*
X128430952Y-92434819D01*
X128430952Y-92434819D02*
X128621428Y-92434819D01*
X128621428Y-92434819D02*
X128716666Y-92387200D01*
X128716666Y-92387200D02*
X128764285Y-92339580D01*
X128764285Y-92339580D02*
X128811904Y-92244342D01*
X128811904Y-92244342D02*
X128811904Y-92006247D01*
X128811904Y-92006247D02*
X128764285Y-91911009D01*
X128764285Y-91911009D02*
X128716666Y-91863390D01*
X128716666Y-91863390D02*
X128621428Y-91815771D01*
X128621428Y-91815771D02*
X128430952Y-91815771D01*
X128430952Y-91815771D02*
X128335714Y-91863390D01*
X128335714Y-91863390D02*
X128288095Y-91911009D01*
X128288095Y-91911009D02*
X128240476Y-92006247D01*
X132245714Y-97754819D02*
X131674286Y-97754819D01*
X131960000Y-97754819D02*
X131960000Y-96754819D01*
X131960000Y-96754819D02*
X131864762Y-96897676D01*
X131864762Y-96897676D02*
X131769524Y-96992914D01*
X131769524Y-96992914D02*
X131674286Y-97040533D01*
X148695714Y-66854819D02*
X148695714Y-65854819D01*
X148695714Y-65854819D02*
X148933809Y-65854819D01*
X148933809Y-65854819D02*
X149076666Y-65902438D01*
X149076666Y-65902438D02*
X149171904Y-65997676D01*
X149171904Y-65997676D02*
X149219523Y-66092914D01*
X149219523Y-66092914D02*
X149267142Y-66283390D01*
X149267142Y-66283390D02*
X149267142Y-66426247D01*
X149267142Y-66426247D02*
X149219523Y-66616723D01*
X149219523Y-66616723D02*
X149171904Y-66711961D01*
X149171904Y-66711961D02*
X149076666Y-66807200D01*
X149076666Y-66807200D02*
X148933809Y-66854819D01*
X148933809Y-66854819D02*
X148695714Y-66854819D01*
X150219523Y-66854819D02*
X149648095Y-66854819D01*
X149933809Y-66854819D02*
X149933809Y-65854819D01*
X149933809Y-65854819D02*
X149838571Y-65997676D01*
X149838571Y-65997676D02*
X149743333Y-66092914D01*
X149743333Y-66092914D02*
X149648095Y-66140533D01*
X150695714Y-66854819D02*
X150886190Y-66854819D01*
X150886190Y-66854819D02*
X150981428Y-66807200D01*
X150981428Y-66807200D02*
X151029047Y-66759580D01*
X151029047Y-66759580D02*
X151124285Y-66616723D01*
X151124285Y-66616723D02*
X151171904Y-66426247D01*
X151171904Y-66426247D02*
X151171904Y-66045295D01*
X151171904Y-66045295D02*
X151124285Y-65950057D01*
X151124285Y-65950057D02*
X151076666Y-65902438D01*
X151076666Y-65902438D02*
X150981428Y-65854819D01*
X150981428Y-65854819D02*
X150790952Y-65854819D01*
X150790952Y-65854819D02*
X150695714Y-65902438D01*
X150695714Y-65902438D02*
X150648095Y-65950057D01*
X150648095Y-65950057D02*
X150600476Y-66045295D01*
X150600476Y-66045295D02*
X150600476Y-66283390D01*
X150600476Y-66283390D02*
X150648095Y-66378628D01*
X150648095Y-66378628D02*
X150695714Y-66426247D01*
X150695714Y-66426247D02*
X150790952Y-66473866D01*
X150790952Y-66473866D02*
X150981428Y-66473866D01*
X150981428Y-66473866D02*
X151076666Y-66426247D01*
X151076666Y-66426247D02*
X151124285Y-66378628D01*
X151124285Y-66378628D02*
X151171904Y-66283390D01*
X154295714Y-72024819D02*
X153724286Y-72024819D01*
X154010000Y-72024819D02*
X154010000Y-71024819D01*
X154010000Y-71024819D02*
X153914762Y-71167676D01*
X153914762Y-71167676D02*
X153819524Y-71262914D01*
X153819524Y-71262914D02*
X153724286Y-71310533D01*
X72926666Y-68374819D02*
X72926666Y-69089104D01*
X72926666Y-69089104D02*
X72879047Y-69231961D01*
X72879047Y-69231961D02*
X72783809Y-69327200D01*
X72783809Y-69327200D02*
X72640952Y-69374819D01*
X72640952Y-69374819D02*
X72545714Y-69374819D01*
X73355238Y-68470057D02*
X73402857Y-68422438D01*
X73402857Y-68422438D02*
X73498095Y-68374819D01*
X73498095Y-68374819D02*
X73736190Y-68374819D01*
X73736190Y-68374819D02*
X73831428Y-68422438D01*
X73831428Y-68422438D02*
X73879047Y-68470057D01*
X73879047Y-68470057D02*
X73926666Y-68565295D01*
X73926666Y-68565295D02*
X73926666Y-68660533D01*
X73926666Y-68660533D02*
X73879047Y-68803390D01*
X73879047Y-68803390D02*
X73307619Y-69374819D01*
X73307619Y-69374819D02*
X73926666Y-69374819D01*
X85044761Y-64050057D02*
X84949523Y-64002438D01*
X84949523Y-64002438D02*
X84854285Y-63907200D01*
X84854285Y-63907200D02*
X84711428Y-63764342D01*
X84711428Y-63764342D02*
X84616190Y-63716723D01*
X84616190Y-63716723D02*
X84520952Y-63716723D01*
X84568571Y-63954819D02*
X84473333Y-63907200D01*
X84473333Y-63907200D02*
X84378095Y-63811961D01*
X84378095Y-63811961D02*
X84330476Y-63621485D01*
X84330476Y-63621485D02*
X84330476Y-63288152D01*
X84330476Y-63288152D02*
X84378095Y-63097676D01*
X84378095Y-63097676D02*
X84473333Y-63002438D01*
X84473333Y-63002438D02*
X84568571Y-62954819D01*
X84568571Y-62954819D02*
X84759047Y-62954819D01*
X84759047Y-62954819D02*
X84854285Y-63002438D01*
X84854285Y-63002438D02*
X84949523Y-63097676D01*
X84949523Y-63097676D02*
X84997142Y-63288152D01*
X84997142Y-63288152D02*
X84997142Y-63621485D01*
X84997142Y-63621485D02*
X84949523Y-63811961D01*
X84949523Y-63811961D02*
X84854285Y-63907200D01*
X84854285Y-63907200D02*
X84759047Y-63954819D01*
X84759047Y-63954819D02*
X84568571Y-63954819D01*
X85949523Y-63954819D02*
X85378095Y-63954819D01*
X85663809Y-63954819D02*
X85663809Y-62954819D01*
X85663809Y-62954819D02*
X85568571Y-63097676D01*
X85568571Y-63097676D02*
X85473333Y-63192914D01*
X85473333Y-63192914D02*
X85378095Y-63240533D01*
X79418224Y-112609076D02*
X78845805Y-112508061D01*
X79014163Y-113013137D02*
X78307057Y-112306030D01*
X78307057Y-112306030D02*
X78576431Y-112036656D01*
X78576431Y-112036656D02*
X78677446Y-112002984D01*
X78677446Y-112002984D02*
X78744789Y-112002984D01*
X78744789Y-112002984D02*
X78845805Y-112036656D01*
X78845805Y-112036656D02*
X78946820Y-112137671D01*
X78946820Y-112137671D02*
X78980492Y-112238687D01*
X78980492Y-112238687D02*
X78980492Y-112306030D01*
X78980492Y-112306030D02*
X78946820Y-112407045D01*
X78946820Y-112407045D02*
X78677446Y-112676419D01*
X80091659Y-111935641D02*
X79687598Y-112339702D01*
X79889629Y-112137671D02*
X79182522Y-111430565D01*
X79182522Y-111430565D02*
X79216194Y-111598923D01*
X79216194Y-111598923D02*
X79216194Y-111733610D01*
X79216194Y-111733610D02*
X79182522Y-111834626D01*
X80428377Y-111598923D02*
X80563064Y-111464236D01*
X80563064Y-111464236D02*
X80596736Y-111363221D01*
X80596736Y-111363221D02*
X80596736Y-111295877D01*
X80596736Y-111295877D02*
X80563064Y-111127519D01*
X80563064Y-111127519D02*
X80462049Y-110959160D01*
X80462049Y-110959160D02*
X80192675Y-110689786D01*
X80192675Y-110689786D02*
X80091660Y-110656114D01*
X80091660Y-110656114D02*
X80024316Y-110656114D01*
X80024316Y-110656114D02*
X79923301Y-110689786D01*
X79923301Y-110689786D02*
X79788614Y-110824473D01*
X79788614Y-110824473D02*
X79754942Y-110925488D01*
X79754942Y-110925488D02*
X79754942Y-110992832D01*
X79754942Y-110992832D02*
X79788614Y-111093847D01*
X79788614Y-111093847D02*
X79956973Y-111262206D01*
X79956973Y-111262206D02*
X80057988Y-111295877D01*
X80057988Y-111295877D02*
X80125331Y-111295877D01*
X80125331Y-111295877D02*
X80226347Y-111262206D01*
X80226347Y-111262206D02*
X80361034Y-111127519D01*
X80361034Y-111127519D02*
X80394705Y-111026503D01*
X80394705Y-111026503D02*
X80394705Y-110959160D01*
X80394705Y-110959160D02*
X80361034Y-110858145D01*
X72810543Y-86933754D02*
X72911558Y-86361335D01*
X72406482Y-86529693D02*
X73113589Y-85822587D01*
X73113589Y-85822587D02*
X73382963Y-86091961D01*
X73382963Y-86091961D02*
X73416635Y-86192976D01*
X73416635Y-86192976D02*
X73416635Y-86260319D01*
X73416635Y-86260319D02*
X73382963Y-86361335D01*
X73382963Y-86361335D02*
X73281948Y-86462350D01*
X73281948Y-86462350D02*
X73180932Y-86496022D01*
X73180932Y-86496022D02*
X73113589Y-86496022D01*
X73113589Y-86496022D02*
X73012574Y-86462350D01*
X73012574Y-86462350D02*
X72743200Y-86192976D01*
X73483978Y-87607189D02*
X73079917Y-87203128D01*
X73281948Y-87405159D02*
X73989054Y-86698052D01*
X73989054Y-86698052D02*
X73820696Y-86731724D01*
X73820696Y-86731724D02*
X73686009Y-86731724D01*
X73686009Y-86731724D02*
X73584993Y-86698052D01*
X164096667Y-78677200D02*
X164239524Y-78724819D01*
X164239524Y-78724819D02*
X164477619Y-78724819D01*
X164477619Y-78724819D02*
X164572857Y-78677200D01*
X164572857Y-78677200D02*
X164620476Y-78629580D01*
X164620476Y-78629580D02*
X164668095Y-78534342D01*
X164668095Y-78534342D02*
X164668095Y-78439104D01*
X164668095Y-78439104D02*
X164620476Y-78343866D01*
X164620476Y-78343866D02*
X164572857Y-78296247D01*
X164572857Y-78296247D02*
X164477619Y-78248628D01*
X164477619Y-78248628D02*
X164287143Y-78201009D01*
X164287143Y-78201009D02*
X164191905Y-78153390D01*
X164191905Y-78153390D02*
X164144286Y-78105771D01*
X164144286Y-78105771D02*
X164096667Y-78010533D01*
X164096667Y-78010533D02*
X164096667Y-77915295D01*
X164096667Y-77915295D02*
X164144286Y-77820057D01*
X164144286Y-77820057D02*
X164191905Y-77772438D01*
X164191905Y-77772438D02*
X164287143Y-77724819D01*
X164287143Y-77724819D02*
X164525238Y-77724819D01*
X164525238Y-77724819D02*
X164668095Y-77772438D01*
X165001429Y-77724819D02*
X165239524Y-78724819D01*
X165239524Y-78724819D02*
X165430000Y-78010533D01*
X165430000Y-78010533D02*
X165620476Y-78724819D01*
X165620476Y-78724819D02*
X165858572Y-77724819D01*
X166668095Y-78058152D02*
X166668095Y-78724819D01*
X166430000Y-77677200D02*
X166191905Y-78391485D01*
X166191905Y-78391485D02*
X166810952Y-78391485D01*
X74075406Y-102684336D02*
X74075406Y-102751680D01*
X74075406Y-102751680D02*
X74008062Y-102886367D01*
X74008062Y-102886367D02*
X73940719Y-102953710D01*
X73940719Y-102953710D02*
X73806032Y-103021054D01*
X73806032Y-103021054D02*
X73671345Y-103021054D01*
X73671345Y-103021054D02*
X73570330Y-102987382D01*
X73570330Y-102987382D02*
X73401971Y-102886367D01*
X73401971Y-102886367D02*
X73300956Y-102785352D01*
X73300956Y-102785352D02*
X73199940Y-102616993D01*
X73199940Y-102616993D02*
X73166269Y-102515978D01*
X73166269Y-102515978D02*
X73166269Y-102381291D01*
X73166269Y-102381291D02*
X73233612Y-102246604D01*
X73233612Y-102246604D02*
X73300956Y-102179260D01*
X73300956Y-102179260D02*
X73435643Y-102111917D01*
X73435643Y-102111917D02*
X73502986Y-102111917D01*
X73671345Y-101808871D02*
X74109078Y-101371138D01*
X74109078Y-101371138D02*
X74142749Y-101876214D01*
X74142749Y-101876214D02*
X74243765Y-101775199D01*
X74243765Y-101775199D02*
X74344780Y-101741527D01*
X74344780Y-101741527D02*
X74412123Y-101741527D01*
X74412123Y-101741527D02*
X74513139Y-101775199D01*
X74513139Y-101775199D02*
X74681497Y-101943558D01*
X74681497Y-101943558D02*
X74715169Y-102044573D01*
X74715169Y-102044573D02*
X74715169Y-102111917D01*
X74715169Y-102111917D02*
X74681497Y-102212932D01*
X74681497Y-102212932D02*
X74479467Y-102414962D01*
X74479467Y-102414962D02*
X74378452Y-102448634D01*
X74378452Y-102448634D02*
X74311108Y-102448634D01*
X80924819Y-117184285D02*
X79924819Y-117184285D01*
X79924819Y-117184285D02*
X79924819Y-116946190D01*
X79924819Y-116946190D02*
X79972438Y-116803333D01*
X79972438Y-116803333D02*
X80067676Y-116708095D01*
X80067676Y-116708095D02*
X80162914Y-116660476D01*
X80162914Y-116660476D02*
X80353390Y-116612857D01*
X80353390Y-116612857D02*
X80496247Y-116612857D01*
X80496247Y-116612857D02*
X80686723Y-116660476D01*
X80686723Y-116660476D02*
X80781961Y-116708095D01*
X80781961Y-116708095D02*
X80877200Y-116803333D01*
X80877200Y-116803333D02*
X80924819Y-116946190D01*
X80924819Y-116946190D02*
X80924819Y-117184285D01*
X80924819Y-115660476D02*
X80924819Y-116231904D01*
X80924819Y-115946190D02*
X79924819Y-115946190D01*
X79924819Y-115946190D02*
X80067676Y-116041428D01*
X80067676Y-116041428D02*
X80162914Y-116136666D01*
X80162914Y-116136666D02*
X80210533Y-116231904D01*
X80258152Y-114803333D02*
X80924819Y-114803333D01*
X79877200Y-115041428D02*
X80591485Y-115279523D01*
X80591485Y-115279523D02*
X80591485Y-114660476D01*
X72105714Y-115204819D02*
X71534286Y-115204819D01*
X71820000Y-115204819D02*
X71820000Y-114204819D01*
X71820000Y-114204819D02*
X71724762Y-114347676D01*
X71724762Y-114347676D02*
X71629524Y-114442914D01*
X71629524Y-114442914D02*
X71534286Y-114490533D01*
X88046904Y-77254819D02*
X88046904Y-76254819D01*
X88046904Y-76254819D02*
X88284999Y-76254819D01*
X88284999Y-76254819D02*
X88427856Y-76302438D01*
X88427856Y-76302438D02*
X88523094Y-76397676D01*
X88523094Y-76397676D02*
X88570713Y-76492914D01*
X88570713Y-76492914D02*
X88618332Y-76683390D01*
X88618332Y-76683390D02*
X88618332Y-76826247D01*
X88618332Y-76826247D02*
X88570713Y-77016723D01*
X88570713Y-77016723D02*
X88523094Y-77111961D01*
X88523094Y-77111961D02*
X88427856Y-77207200D01*
X88427856Y-77207200D02*
X88284999Y-77254819D01*
X88284999Y-77254819D02*
X88046904Y-77254819D01*
X89570713Y-77254819D02*
X88999285Y-77254819D01*
X89284999Y-77254819D02*
X89284999Y-76254819D01*
X89284999Y-76254819D02*
X89189761Y-76397676D01*
X89189761Y-76397676D02*
X89094523Y-76492914D01*
X89094523Y-76492914D02*
X88999285Y-76540533D01*
X180285714Y-66774819D02*
X180285714Y-65774819D01*
X180285714Y-65774819D02*
X180523809Y-65774819D01*
X180523809Y-65774819D02*
X180666666Y-65822438D01*
X180666666Y-65822438D02*
X180761904Y-65917676D01*
X180761904Y-65917676D02*
X180809523Y-66012914D01*
X180809523Y-66012914D02*
X180857142Y-66203390D01*
X180857142Y-66203390D02*
X180857142Y-66346247D01*
X180857142Y-66346247D02*
X180809523Y-66536723D01*
X180809523Y-66536723D02*
X180761904Y-66631961D01*
X180761904Y-66631961D02*
X180666666Y-66727200D01*
X180666666Y-66727200D02*
X180523809Y-66774819D01*
X180523809Y-66774819D02*
X180285714Y-66774819D01*
X181238095Y-65870057D02*
X181285714Y-65822438D01*
X181285714Y-65822438D02*
X181380952Y-65774819D01*
X181380952Y-65774819D02*
X181619047Y-65774819D01*
X181619047Y-65774819D02*
X181714285Y-65822438D01*
X181714285Y-65822438D02*
X181761904Y-65870057D01*
X181761904Y-65870057D02*
X181809523Y-65965295D01*
X181809523Y-65965295D02*
X181809523Y-66060533D01*
X181809523Y-66060533D02*
X181761904Y-66203390D01*
X181761904Y-66203390D02*
X181190476Y-66774819D01*
X181190476Y-66774819D02*
X181809523Y-66774819D01*
X182761904Y-66774819D02*
X182190476Y-66774819D01*
X182476190Y-66774819D02*
X182476190Y-65774819D01*
X182476190Y-65774819D02*
X182380952Y-65917676D01*
X182380952Y-65917676D02*
X182285714Y-66012914D01*
X182285714Y-66012914D02*
X182190476Y-66060533D01*
X185835714Y-72134819D02*
X185264286Y-72134819D01*
X185550000Y-72134819D02*
X185550000Y-71134819D01*
X185550000Y-71134819D02*
X185454762Y-71277676D01*
X185454762Y-71277676D02*
X185359524Y-71372914D01*
X185359524Y-71372914D02*
X185264286Y-71420533D01*
X82029692Y-111958830D02*
X82029692Y-112026174D01*
X82029692Y-112026174D02*
X81962348Y-112160861D01*
X81962348Y-112160861D02*
X81895005Y-112228204D01*
X81895005Y-112228204D02*
X81760318Y-112295548D01*
X81760318Y-112295548D02*
X81625631Y-112295548D01*
X81625631Y-112295548D02*
X81524616Y-112261876D01*
X81524616Y-112261876D02*
X81356257Y-112160861D01*
X81356257Y-112160861D02*
X81255242Y-112059846D01*
X81255242Y-112059846D02*
X81154226Y-111891487D01*
X81154226Y-111891487D02*
X81120555Y-111790472D01*
X81120555Y-111790472D02*
X81120555Y-111655785D01*
X81120555Y-111655785D02*
X81187898Y-111521098D01*
X81187898Y-111521098D02*
X81255242Y-111453754D01*
X81255242Y-111453754D02*
X81389929Y-111386411D01*
X81389929Y-111386411D02*
X81457272Y-111386411D01*
X82770470Y-111352739D02*
X82366409Y-111756800D01*
X82568440Y-111554769D02*
X81861333Y-110847663D01*
X81861333Y-110847663D02*
X81895005Y-111016021D01*
X81895005Y-111016021D02*
X81895005Y-111150708D01*
X81895005Y-111150708D02*
X81861333Y-111251724D01*
X82669455Y-110039540D02*
X82534768Y-110174227D01*
X82534768Y-110174227D02*
X82501097Y-110275243D01*
X82501097Y-110275243D02*
X82501097Y-110342586D01*
X82501097Y-110342586D02*
X82534768Y-110510945D01*
X82534768Y-110510945D02*
X82635784Y-110679304D01*
X82635784Y-110679304D02*
X82905158Y-110948678D01*
X82905158Y-110948678D02*
X83006173Y-110982349D01*
X83006173Y-110982349D02*
X83073516Y-110982349D01*
X83073516Y-110982349D02*
X83174532Y-110948678D01*
X83174532Y-110948678D02*
X83309219Y-110813991D01*
X83309219Y-110813991D02*
X83342890Y-110712975D01*
X83342890Y-110712975D02*
X83342890Y-110645632D01*
X83342890Y-110645632D02*
X83309219Y-110544617D01*
X83309219Y-110544617D02*
X83140860Y-110376258D01*
X83140860Y-110376258D02*
X83039845Y-110342586D01*
X83039845Y-110342586D02*
X82972501Y-110342586D01*
X82972501Y-110342586D02*
X82871486Y-110376258D01*
X82871486Y-110376258D02*
X82736799Y-110510945D01*
X82736799Y-110510945D02*
X82703127Y-110611960D01*
X82703127Y-110611960D02*
X82703127Y-110679304D01*
X82703127Y-110679304D02*
X82736799Y-110780319D01*
X123336667Y-128997200D02*
X123479524Y-129044819D01*
X123479524Y-129044819D02*
X123717619Y-129044819D01*
X123717619Y-129044819D02*
X123812857Y-128997200D01*
X123812857Y-128997200D02*
X123860476Y-128949580D01*
X123860476Y-128949580D02*
X123908095Y-128854342D01*
X123908095Y-128854342D02*
X123908095Y-128759104D01*
X123908095Y-128759104D02*
X123860476Y-128663866D01*
X123860476Y-128663866D02*
X123812857Y-128616247D01*
X123812857Y-128616247D02*
X123717619Y-128568628D01*
X123717619Y-128568628D02*
X123527143Y-128521009D01*
X123527143Y-128521009D02*
X123431905Y-128473390D01*
X123431905Y-128473390D02*
X123384286Y-128425771D01*
X123384286Y-128425771D02*
X123336667Y-128330533D01*
X123336667Y-128330533D02*
X123336667Y-128235295D01*
X123336667Y-128235295D02*
X123384286Y-128140057D01*
X123384286Y-128140057D02*
X123431905Y-128092438D01*
X123431905Y-128092438D02*
X123527143Y-128044819D01*
X123527143Y-128044819D02*
X123765238Y-128044819D01*
X123765238Y-128044819D02*
X123908095Y-128092438D01*
X124241429Y-128044819D02*
X124479524Y-129044819D01*
X124479524Y-129044819D02*
X124670000Y-128330533D01*
X124670000Y-128330533D02*
X124860476Y-129044819D01*
X124860476Y-129044819D02*
X125098572Y-128044819D01*
X125384286Y-128044819D02*
X126003333Y-128044819D01*
X126003333Y-128044819D02*
X125670000Y-128425771D01*
X125670000Y-128425771D02*
X125812857Y-128425771D01*
X125812857Y-128425771D02*
X125908095Y-128473390D01*
X125908095Y-128473390D02*
X125955714Y-128521009D01*
X125955714Y-128521009D02*
X126003333Y-128616247D01*
X126003333Y-128616247D02*
X126003333Y-128854342D01*
X126003333Y-128854342D02*
X125955714Y-128949580D01*
X125955714Y-128949580D02*
X125908095Y-128997200D01*
X125908095Y-128997200D02*
X125812857Y-129044819D01*
X125812857Y-129044819D02*
X125527143Y-129044819D01*
X125527143Y-129044819D02*
X125431905Y-128997200D01*
X125431905Y-128997200D02*
X125384286Y-128949580D01*
X83348300Y-84724011D02*
X84055407Y-84016905D01*
X84055407Y-84016905D02*
X84223766Y-84185263D01*
X84223766Y-84185263D02*
X84291109Y-84319950D01*
X84291109Y-84319950D02*
X84291109Y-84454637D01*
X84291109Y-84454637D02*
X84257437Y-84555653D01*
X84257437Y-84555653D02*
X84156422Y-84724011D01*
X84156422Y-84724011D02*
X84055407Y-84825027D01*
X84055407Y-84825027D02*
X83887048Y-84926042D01*
X83887048Y-84926042D02*
X83786033Y-84959714D01*
X83786033Y-84959714D02*
X83651346Y-84959714D01*
X83651346Y-84959714D02*
X83516659Y-84892370D01*
X83516659Y-84892370D02*
X83348300Y-84724011D01*
X84425796Y-85801507D02*
X84021735Y-85397446D01*
X84223766Y-85599477D02*
X84930872Y-84892370D01*
X84930872Y-84892370D02*
X84762514Y-84926042D01*
X84762514Y-84926042D02*
X84627827Y-84926042D01*
X84627827Y-84926042D02*
X84526811Y-84892370D01*
X85570636Y-85532134D02*
X85637979Y-85599477D01*
X85637979Y-85599477D02*
X85671651Y-85700492D01*
X85671651Y-85700492D02*
X85671651Y-85767836D01*
X85671651Y-85767836D02*
X85637979Y-85868851D01*
X85637979Y-85868851D02*
X85536964Y-86037210D01*
X85536964Y-86037210D02*
X85368605Y-86205569D01*
X85368605Y-86205569D02*
X85200247Y-86306584D01*
X85200247Y-86306584D02*
X85099231Y-86340256D01*
X85099231Y-86340256D02*
X85031888Y-86340256D01*
X85031888Y-86340256D02*
X84930873Y-86306584D01*
X84930873Y-86306584D02*
X84863529Y-86239240D01*
X84863529Y-86239240D02*
X84829857Y-86138225D01*
X84829857Y-86138225D02*
X84829857Y-86070882D01*
X84829857Y-86070882D02*
X84863529Y-85969866D01*
X84863529Y-85969866D02*
X84964544Y-85801508D01*
X84964544Y-85801508D02*
X85132903Y-85633149D01*
X85132903Y-85633149D02*
X85301262Y-85532134D01*
X85301262Y-85532134D02*
X85402277Y-85498462D01*
X85402277Y-85498462D02*
X85469621Y-85498462D01*
X85469621Y-85498462D02*
X85570636Y-85532134D01*
X76091411Y-104792112D02*
X76091411Y-104859456D01*
X76091411Y-104859456D02*
X76024067Y-104994143D01*
X76024067Y-104994143D02*
X75956724Y-105061486D01*
X75956724Y-105061486D02*
X75822037Y-105128830D01*
X75822037Y-105128830D02*
X75687350Y-105128830D01*
X75687350Y-105128830D02*
X75586335Y-105095158D01*
X75586335Y-105095158D02*
X75417976Y-104994143D01*
X75417976Y-104994143D02*
X75316961Y-104893128D01*
X75316961Y-104893128D02*
X75215945Y-104724769D01*
X75215945Y-104724769D02*
X75182274Y-104623754D01*
X75182274Y-104623754D02*
X75182274Y-104489067D01*
X75182274Y-104489067D02*
X75249617Y-104354380D01*
X75249617Y-104354380D02*
X75316961Y-104287036D01*
X75316961Y-104287036D02*
X75451648Y-104219693D01*
X75451648Y-104219693D02*
X75518991Y-104219693D01*
X76057739Y-103546258D02*
X75923052Y-103680945D01*
X75923052Y-103680945D02*
X75889380Y-103781960D01*
X75889380Y-103781960D02*
X75889380Y-103849303D01*
X75889380Y-103849303D02*
X75923052Y-104017662D01*
X75923052Y-104017662D02*
X76024067Y-104186021D01*
X76024067Y-104186021D02*
X76293441Y-104455395D01*
X76293441Y-104455395D02*
X76394457Y-104489067D01*
X76394457Y-104489067D02*
X76461800Y-104489067D01*
X76461800Y-104489067D02*
X76562815Y-104455395D01*
X76562815Y-104455395D02*
X76697502Y-104320708D01*
X76697502Y-104320708D02*
X76731174Y-104219693D01*
X76731174Y-104219693D02*
X76731174Y-104152349D01*
X76731174Y-104152349D02*
X76697502Y-104051334D01*
X76697502Y-104051334D02*
X76529144Y-103882975D01*
X76529144Y-103882975D02*
X76428128Y-103849303D01*
X76428128Y-103849303D02*
X76360785Y-103849303D01*
X76360785Y-103849303D02*
X76259770Y-103882975D01*
X76259770Y-103882975D02*
X76125083Y-104017662D01*
X76125083Y-104017662D02*
X76091411Y-104118677D01*
X76091411Y-104118677D02*
X76091411Y-104186021D01*
X76091411Y-104186021D02*
X76125083Y-104287036D01*
X81384750Y-104922246D02*
X81957170Y-105494666D01*
X81957170Y-105494666D02*
X82058185Y-105528338D01*
X82058185Y-105528338D02*
X82125529Y-105528338D01*
X82125529Y-105528338D02*
X82226544Y-105494666D01*
X82226544Y-105494666D02*
X82361231Y-105359979D01*
X82361231Y-105359979D02*
X82394903Y-105258964D01*
X82394903Y-105258964D02*
X82394903Y-105191620D01*
X82394903Y-105191620D02*
X82361231Y-105090605D01*
X82361231Y-105090605D02*
X81788811Y-104518185D01*
X82159201Y-104282483D02*
X82159201Y-104215140D01*
X82159201Y-104215140D02*
X82192872Y-104114124D01*
X82192872Y-104114124D02*
X82361231Y-103945766D01*
X82361231Y-103945766D02*
X82462246Y-103912094D01*
X82462246Y-103912094D02*
X82529590Y-103912094D01*
X82529590Y-103912094D02*
X82630605Y-103945766D01*
X82630605Y-103945766D02*
X82697949Y-104013109D01*
X82697949Y-104013109D02*
X82765292Y-104147796D01*
X82765292Y-104147796D02*
X82765292Y-104955918D01*
X82765292Y-104955918D02*
X83203025Y-104518185D01*
X92389187Y-91710653D02*
X92389187Y-91777997D01*
X92389187Y-91777997D02*
X92321843Y-91912684D01*
X92321843Y-91912684D02*
X92254500Y-91980027D01*
X92254500Y-91980027D02*
X92119813Y-92047371D01*
X92119813Y-92047371D02*
X91985126Y-92047371D01*
X91985126Y-92047371D02*
X91884111Y-92013699D01*
X91884111Y-92013699D02*
X91715752Y-91912684D01*
X91715752Y-91912684D02*
X91614737Y-91811669D01*
X91614737Y-91811669D02*
X91513721Y-91643310D01*
X91513721Y-91643310D02*
X91480050Y-91542295D01*
X91480050Y-91542295D02*
X91480050Y-91407608D01*
X91480050Y-91407608D02*
X91547393Y-91272921D01*
X91547393Y-91272921D02*
X91614737Y-91205577D01*
X91614737Y-91205577D02*
X91749424Y-91138234D01*
X91749424Y-91138234D02*
X91816767Y-91138234D01*
X91985126Y-90835188D02*
X92456530Y-90363783D01*
X92456530Y-90363783D02*
X92860591Y-91373936D01*
X163782142Y-73999580D02*
X163734523Y-74047200D01*
X163734523Y-74047200D02*
X163591666Y-74094819D01*
X163591666Y-74094819D02*
X163496428Y-74094819D01*
X163496428Y-74094819D02*
X163353571Y-74047200D01*
X163353571Y-74047200D02*
X163258333Y-73951961D01*
X163258333Y-73951961D02*
X163210714Y-73856723D01*
X163210714Y-73856723D02*
X163163095Y-73666247D01*
X163163095Y-73666247D02*
X163163095Y-73523390D01*
X163163095Y-73523390D02*
X163210714Y-73332914D01*
X163210714Y-73332914D02*
X163258333Y-73237676D01*
X163258333Y-73237676D02*
X163353571Y-73142438D01*
X163353571Y-73142438D02*
X163496428Y-73094819D01*
X163496428Y-73094819D02*
X163591666Y-73094819D01*
X163591666Y-73094819D02*
X163734523Y-73142438D01*
X163734523Y-73142438D02*
X163782142Y-73190057D01*
X164163095Y-73190057D02*
X164210714Y-73142438D01*
X164210714Y-73142438D02*
X164305952Y-73094819D01*
X164305952Y-73094819D02*
X164544047Y-73094819D01*
X164544047Y-73094819D02*
X164639285Y-73142438D01*
X164639285Y-73142438D02*
X164686904Y-73190057D01*
X164686904Y-73190057D02*
X164734523Y-73285295D01*
X164734523Y-73285295D02*
X164734523Y-73380533D01*
X164734523Y-73380533D02*
X164686904Y-73523390D01*
X164686904Y-73523390D02*
X164115476Y-74094819D01*
X164115476Y-74094819D02*
X164734523Y-74094819D01*
X165067857Y-73094819D02*
X165686904Y-73094819D01*
X165686904Y-73094819D02*
X165353571Y-73475771D01*
X165353571Y-73475771D02*
X165496428Y-73475771D01*
X165496428Y-73475771D02*
X165591666Y-73523390D01*
X165591666Y-73523390D02*
X165639285Y-73571009D01*
X165639285Y-73571009D02*
X165686904Y-73666247D01*
X165686904Y-73666247D02*
X165686904Y-73904342D01*
X165686904Y-73904342D02*
X165639285Y-73999580D01*
X165639285Y-73999580D02*
X165591666Y-74047200D01*
X165591666Y-74047200D02*
X165496428Y-74094819D01*
X165496428Y-74094819D02*
X165210714Y-74094819D01*
X165210714Y-74094819D02*
X165115476Y-74047200D01*
X165115476Y-74047200D02*
X165067857Y-73999580D01*
X69917142Y-113139580D02*
X69869523Y-113187200D01*
X69869523Y-113187200D02*
X69726666Y-113234819D01*
X69726666Y-113234819D02*
X69631428Y-113234819D01*
X69631428Y-113234819D02*
X69488571Y-113187200D01*
X69488571Y-113187200D02*
X69393333Y-113091961D01*
X69393333Y-113091961D02*
X69345714Y-112996723D01*
X69345714Y-112996723D02*
X69298095Y-112806247D01*
X69298095Y-112806247D02*
X69298095Y-112663390D01*
X69298095Y-112663390D02*
X69345714Y-112472914D01*
X69345714Y-112472914D02*
X69393333Y-112377676D01*
X69393333Y-112377676D02*
X69488571Y-112282438D01*
X69488571Y-112282438D02*
X69631428Y-112234819D01*
X69631428Y-112234819D02*
X69726666Y-112234819D01*
X69726666Y-112234819D02*
X69869523Y-112282438D01*
X69869523Y-112282438D02*
X69917142Y-112330057D01*
X70869523Y-113234819D02*
X70298095Y-113234819D01*
X70583809Y-113234819D02*
X70583809Y-112234819D01*
X70583809Y-112234819D02*
X70488571Y-112377676D01*
X70488571Y-112377676D02*
X70393333Y-112472914D01*
X70393333Y-112472914D02*
X70298095Y-112520533D01*
X71202857Y-112234819D02*
X71869523Y-112234819D01*
X71869523Y-112234819D02*
X71440952Y-113234819D01*
X89292970Y-102974746D02*
X88720551Y-102873731D01*
X88888909Y-103378807D02*
X88181803Y-102671700D01*
X88181803Y-102671700D02*
X88451177Y-102402326D01*
X88451177Y-102402326D02*
X88552192Y-102368654D01*
X88552192Y-102368654D02*
X88619535Y-102368654D01*
X88619535Y-102368654D02*
X88720551Y-102402326D01*
X88720551Y-102402326D02*
X88821566Y-102503341D01*
X88821566Y-102503341D02*
X88855238Y-102604357D01*
X88855238Y-102604357D02*
X88855238Y-102671700D01*
X88855238Y-102671700D02*
X88821566Y-102772715D01*
X88821566Y-102772715D02*
X88552192Y-103042089D01*
X89966405Y-102301311D02*
X89562344Y-102705372D01*
X89764375Y-102503341D02*
X89057268Y-101796235D01*
X89057268Y-101796235D02*
X89090940Y-101964593D01*
X89090940Y-101964593D02*
X89090940Y-102099280D01*
X89090940Y-102099280D02*
X89057268Y-102200296D01*
X89966406Y-101493189D02*
X89865390Y-101526860D01*
X89865390Y-101526860D02*
X89798047Y-101526860D01*
X89798047Y-101526860D02*
X89697032Y-101493189D01*
X89697032Y-101493189D02*
X89663360Y-101459517D01*
X89663360Y-101459517D02*
X89629688Y-101358502D01*
X89629688Y-101358502D02*
X89629688Y-101291158D01*
X89629688Y-101291158D02*
X89663360Y-101190143D01*
X89663360Y-101190143D02*
X89798047Y-101055456D01*
X89798047Y-101055456D02*
X89899062Y-101021784D01*
X89899062Y-101021784D02*
X89966406Y-101021784D01*
X89966406Y-101021784D02*
X90067421Y-101055456D01*
X90067421Y-101055456D02*
X90101093Y-101089128D01*
X90101093Y-101089128D02*
X90134764Y-101190143D01*
X90134764Y-101190143D02*
X90134764Y-101257486D01*
X90134764Y-101257486D02*
X90101093Y-101358502D01*
X90101093Y-101358502D02*
X89966406Y-101493189D01*
X89966406Y-101493189D02*
X89932734Y-101594204D01*
X89932734Y-101594204D02*
X89932734Y-101661547D01*
X89932734Y-101661547D02*
X89966406Y-101762563D01*
X89966406Y-101762563D02*
X90101093Y-101897250D01*
X90101093Y-101897250D02*
X90202108Y-101930921D01*
X90202108Y-101930921D02*
X90269451Y-101930921D01*
X90269451Y-101930921D02*
X90370467Y-101897250D01*
X90370467Y-101897250D02*
X90505154Y-101762563D01*
X90505154Y-101762563D02*
X90538825Y-101661547D01*
X90538825Y-101661547D02*
X90538825Y-101594204D01*
X90538825Y-101594204D02*
X90505154Y-101493189D01*
X90505154Y-101493189D02*
X90370467Y-101358502D01*
X90370467Y-101358502D02*
X90269451Y-101324830D01*
X90269451Y-101324830D02*
X90202108Y-101324830D01*
X90202108Y-101324830D02*
X90101093Y-101358502D01*
X181747295Y-104856519D02*
X181747295Y-105666042D01*
X181747295Y-105666042D02*
X181794914Y-105761280D01*
X181794914Y-105761280D02*
X181842533Y-105808900D01*
X181842533Y-105808900D02*
X181937771Y-105856519D01*
X181937771Y-105856519D02*
X182128247Y-105856519D01*
X182128247Y-105856519D02*
X182223485Y-105808900D01*
X182223485Y-105808900D02*
X182271104Y-105761280D01*
X182271104Y-105761280D02*
X182318723Y-105666042D01*
X182318723Y-105666042D02*
X182318723Y-104856519D01*
X182699676Y-104856519D02*
X183318723Y-104856519D01*
X183318723Y-104856519D02*
X182985390Y-105237471D01*
X182985390Y-105237471D02*
X183128247Y-105237471D01*
X183128247Y-105237471D02*
X183223485Y-105285090D01*
X183223485Y-105285090D02*
X183271104Y-105332709D01*
X183271104Y-105332709D02*
X183318723Y-105427947D01*
X183318723Y-105427947D02*
X183318723Y-105666042D01*
X183318723Y-105666042D02*
X183271104Y-105761280D01*
X183271104Y-105761280D02*
X183223485Y-105808900D01*
X183223485Y-105808900D02*
X183128247Y-105856519D01*
X183128247Y-105856519D02*
X182842533Y-105856519D01*
X182842533Y-105856519D02*
X182747295Y-105808900D01*
X182747295Y-105808900D02*
X182699676Y-105761280D01*
X179118541Y-119997252D02*
X179356636Y-120663919D01*
X179356636Y-120663919D02*
X179594731Y-119997252D01*
X180404255Y-120616300D02*
X180309017Y-120663919D01*
X180309017Y-120663919D02*
X180118541Y-120663919D01*
X180118541Y-120663919D02*
X180023303Y-120616300D01*
X180023303Y-120616300D02*
X179975684Y-120568680D01*
X179975684Y-120568680D02*
X179928065Y-120473442D01*
X179928065Y-120473442D02*
X179928065Y-120187728D01*
X179928065Y-120187728D02*
X179975684Y-120092490D01*
X179975684Y-120092490D02*
X180023303Y-120044871D01*
X180023303Y-120044871D02*
X180118541Y-119997252D01*
X180118541Y-119997252D02*
X180309017Y-119997252D01*
X180309017Y-119997252D02*
X180404255Y-120044871D01*
X181261398Y-120616300D02*
X181166160Y-120663919D01*
X181166160Y-120663919D02*
X180975684Y-120663919D01*
X180975684Y-120663919D02*
X180880446Y-120616300D01*
X180880446Y-120616300D02*
X180832827Y-120568680D01*
X180832827Y-120568680D02*
X180785208Y-120473442D01*
X180785208Y-120473442D02*
X180785208Y-120187728D01*
X180785208Y-120187728D02*
X180832827Y-120092490D01*
X180832827Y-120092490D02*
X180880446Y-120044871D01*
X180880446Y-120044871D02*
X180975684Y-119997252D01*
X180975684Y-119997252D02*
X181166160Y-119997252D01*
X181166160Y-119997252D02*
X181261398Y-120044871D01*
X179439150Y-122613452D02*
X179439150Y-123422976D01*
X179439150Y-123422976D02*
X179391531Y-123518214D01*
X179391531Y-123518214D02*
X179343912Y-123565833D01*
X179343912Y-123565833D02*
X179248674Y-123613452D01*
X179248674Y-123613452D02*
X179105817Y-123613452D01*
X179105817Y-123613452D02*
X179010579Y-123565833D01*
X179439150Y-123232500D02*
X179343912Y-123280119D01*
X179343912Y-123280119D02*
X179153436Y-123280119D01*
X179153436Y-123280119D02*
X179058198Y-123232500D01*
X179058198Y-123232500D02*
X179010579Y-123184880D01*
X179010579Y-123184880D02*
X178962960Y-123089642D01*
X178962960Y-123089642D02*
X178962960Y-122803928D01*
X178962960Y-122803928D02*
X179010579Y-122708690D01*
X179010579Y-122708690D02*
X179058198Y-122661071D01*
X179058198Y-122661071D02*
X179153436Y-122613452D01*
X179153436Y-122613452D02*
X179343912Y-122613452D01*
X179343912Y-122613452D02*
X179439150Y-122661071D01*
X179915341Y-122613452D02*
X179915341Y-123280119D01*
X179915341Y-122708690D02*
X179962960Y-122661071D01*
X179962960Y-122661071D02*
X180058198Y-122613452D01*
X180058198Y-122613452D02*
X180201055Y-122613452D01*
X180201055Y-122613452D02*
X180296293Y-122661071D01*
X180296293Y-122661071D02*
X180343912Y-122756309D01*
X180343912Y-122756309D02*
X180343912Y-123280119D01*
X181248674Y-123280119D02*
X181248674Y-122280119D01*
X181248674Y-123232500D02*
X181153436Y-123280119D01*
X181153436Y-123280119D02*
X180962960Y-123280119D01*
X180962960Y-123280119D02*
X180867722Y-123232500D01*
X180867722Y-123232500D02*
X180820103Y-123184880D01*
X180820103Y-123184880D02*
X180772484Y-123089642D01*
X180772484Y-123089642D02*
X180772484Y-122803928D01*
X180772484Y-122803928D02*
X180820103Y-122708690D01*
X180820103Y-122708690D02*
X180867722Y-122661071D01*
X180867722Y-122661071D02*
X180962960Y-122613452D01*
X180962960Y-122613452D02*
X181153436Y-122613452D01*
X181153436Y-122613452D02*
X181248674Y-122661071D01*
X179591550Y-118073119D02*
X179591550Y-117073119D01*
X179591550Y-118025500D02*
X179496312Y-118073119D01*
X179496312Y-118073119D02*
X179305836Y-118073119D01*
X179305836Y-118073119D02*
X179210598Y-118025500D01*
X179210598Y-118025500D02*
X179162979Y-117977880D01*
X179162979Y-117977880D02*
X179115360Y-117882642D01*
X179115360Y-117882642D02*
X179115360Y-117596928D01*
X179115360Y-117596928D02*
X179162979Y-117501690D01*
X179162979Y-117501690D02*
X179210598Y-117454071D01*
X179210598Y-117454071D02*
X179305836Y-117406452D01*
X179305836Y-117406452D02*
X179496312Y-117406452D01*
X179496312Y-117406452D02*
X179591550Y-117454071D01*
X180067741Y-118073119D02*
X180067741Y-117406452D01*
X180067741Y-117073119D02*
X180020122Y-117120738D01*
X180020122Y-117120738D02*
X180067741Y-117168357D01*
X180067741Y-117168357D02*
X180115360Y-117120738D01*
X180115360Y-117120738D02*
X180067741Y-117073119D01*
X180067741Y-117073119D02*
X180067741Y-117168357D01*
X180686788Y-118073119D02*
X180591550Y-118025500D01*
X180591550Y-118025500D02*
X180543931Y-117977880D01*
X180543931Y-117977880D02*
X180496312Y-117882642D01*
X180496312Y-117882642D02*
X180496312Y-117596928D01*
X180496312Y-117596928D02*
X180543931Y-117501690D01*
X180543931Y-117501690D02*
X180591550Y-117454071D01*
X180591550Y-117454071D02*
X180686788Y-117406452D01*
X180686788Y-117406452D02*
X180829645Y-117406452D01*
X180829645Y-117406452D02*
X180924883Y-117454071D01*
X180924883Y-117454071D02*
X180972502Y-117501690D01*
X180972502Y-117501690D02*
X181020121Y-117596928D01*
X181020121Y-117596928D02*
X181020121Y-117882642D01*
X181020121Y-117882642D02*
X180972502Y-117977880D01*
X180972502Y-117977880D02*
X180924883Y-118025500D01*
X180924883Y-118025500D02*
X180829645Y-118073119D01*
X180829645Y-118073119D02*
X180686788Y-118073119D01*
X179566150Y-115358500D02*
X179470912Y-115406119D01*
X179470912Y-115406119D02*
X179280436Y-115406119D01*
X179280436Y-115406119D02*
X179185198Y-115358500D01*
X179185198Y-115358500D02*
X179137579Y-115310880D01*
X179137579Y-115310880D02*
X179089960Y-115215642D01*
X179089960Y-115215642D02*
X179089960Y-114929928D01*
X179089960Y-114929928D02*
X179137579Y-114834690D01*
X179137579Y-114834690D02*
X179185198Y-114787071D01*
X179185198Y-114787071D02*
X179280436Y-114739452D01*
X179280436Y-114739452D02*
X179470912Y-114739452D01*
X179470912Y-114739452D02*
X179566150Y-114787071D01*
X180137579Y-115406119D02*
X180042341Y-115358500D01*
X180042341Y-115358500D02*
X179994722Y-115263261D01*
X179994722Y-115263261D02*
X179994722Y-114406119D01*
X180518532Y-115406119D02*
X180518532Y-114406119D01*
X180613770Y-115025166D02*
X180899484Y-115406119D01*
X180899484Y-114739452D02*
X180518532Y-115120404D01*
X119315714Y-92594819D02*
X119315714Y-91594819D01*
X119315714Y-91594819D02*
X119553809Y-91594819D01*
X119553809Y-91594819D02*
X119696666Y-91642438D01*
X119696666Y-91642438D02*
X119791904Y-91737676D01*
X119791904Y-91737676D02*
X119839523Y-91832914D01*
X119839523Y-91832914D02*
X119887142Y-92023390D01*
X119887142Y-92023390D02*
X119887142Y-92166247D01*
X119887142Y-92166247D02*
X119839523Y-92356723D01*
X119839523Y-92356723D02*
X119791904Y-92451961D01*
X119791904Y-92451961D02*
X119696666Y-92547200D01*
X119696666Y-92547200D02*
X119553809Y-92594819D01*
X119553809Y-92594819D02*
X119315714Y-92594819D01*
X120839523Y-92594819D02*
X120268095Y-92594819D01*
X120553809Y-92594819D02*
X120553809Y-91594819D01*
X120553809Y-91594819D02*
X120458571Y-91737676D01*
X120458571Y-91737676D02*
X120363333Y-91832914D01*
X120363333Y-91832914D02*
X120268095Y-91880533D01*
X121744285Y-91594819D02*
X121268095Y-91594819D01*
X121268095Y-91594819D02*
X121220476Y-92071009D01*
X121220476Y-92071009D02*
X121268095Y-92023390D01*
X121268095Y-92023390D02*
X121363333Y-91975771D01*
X121363333Y-91975771D02*
X121601428Y-91975771D01*
X121601428Y-91975771D02*
X121696666Y-92023390D01*
X121696666Y-92023390D02*
X121744285Y-92071009D01*
X121744285Y-92071009D02*
X121791904Y-92166247D01*
X121791904Y-92166247D02*
X121791904Y-92404342D01*
X121791904Y-92404342D02*
X121744285Y-92499580D01*
X121744285Y-92499580D02*
X121696666Y-92547200D01*
X121696666Y-92547200D02*
X121601428Y-92594819D01*
X121601428Y-92594819D02*
X121363333Y-92594819D01*
X121363333Y-92594819D02*
X121268095Y-92547200D01*
X121268095Y-92547200D02*
X121220476Y-92499580D01*
X124195714Y-97804819D02*
X123624286Y-97804819D01*
X123910000Y-97804819D02*
X123910000Y-96804819D01*
X123910000Y-96804819D02*
X123814762Y-96947676D01*
X123814762Y-96947676D02*
X123719524Y-97042914D01*
X123719524Y-97042914D02*
X123624286Y-97090533D01*
X164045714Y-67004819D02*
X164045714Y-66004819D01*
X164045714Y-66004819D02*
X164283809Y-66004819D01*
X164283809Y-66004819D02*
X164426666Y-66052438D01*
X164426666Y-66052438D02*
X164521904Y-66147676D01*
X164521904Y-66147676D02*
X164569523Y-66242914D01*
X164569523Y-66242914D02*
X164617142Y-66433390D01*
X164617142Y-66433390D02*
X164617142Y-66576247D01*
X164617142Y-66576247D02*
X164569523Y-66766723D01*
X164569523Y-66766723D02*
X164521904Y-66861961D01*
X164521904Y-66861961D02*
X164426666Y-66957200D01*
X164426666Y-66957200D02*
X164283809Y-67004819D01*
X164283809Y-67004819D02*
X164045714Y-67004819D01*
X164998095Y-66100057D02*
X165045714Y-66052438D01*
X165045714Y-66052438D02*
X165140952Y-66004819D01*
X165140952Y-66004819D02*
X165379047Y-66004819D01*
X165379047Y-66004819D02*
X165474285Y-66052438D01*
X165474285Y-66052438D02*
X165521904Y-66100057D01*
X165521904Y-66100057D02*
X165569523Y-66195295D01*
X165569523Y-66195295D02*
X165569523Y-66290533D01*
X165569523Y-66290533D02*
X165521904Y-66433390D01*
X165521904Y-66433390D02*
X164950476Y-67004819D01*
X164950476Y-67004819D02*
X165569523Y-67004819D01*
X166188571Y-66004819D02*
X166283809Y-66004819D01*
X166283809Y-66004819D02*
X166379047Y-66052438D01*
X166379047Y-66052438D02*
X166426666Y-66100057D01*
X166426666Y-66100057D02*
X166474285Y-66195295D01*
X166474285Y-66195295D02*
X166521904Y-66385771D01*
X166521904Y-66385771D02*
X166521904Y-66623866D01*
X166521904Y-66623866D02*
X166474285Y-66814342D01*
X166474285Y-66814342D02*
X166426666Y-66909580D01*
X166426666Y-66909580D02*
X166379047Y-66957200D01*
X166379047Y-66957200D02*
X166283809Y-67004819D01*
X166283809Y-67004819D02*
X166188571Y-67004819D01*
X166188571Y-67004819D02*
X166093333Y-66957200D01*
X166093333Y-66957200D02*
X166045714Y-66909580D01*
X166045714Y-66909580D02*
X165998095Y-66814342D01*
X165998095Y-66814342D02*
X165950476Y-66623866D01*
X165950476Y-66623866D02*
X165950476Y-66385771D01*
X165950476Y-66385771D02*
X165998095Y-66195295D01*
X165998095Y-66195295D02*
X166045714Y-66100057D01*
X166045714Y-66100057D02*
X166093333Y-66052438D01*
X166093333Y-66052438D02*
X166188571Y-66004819D01*
X169755714Y-72124819D02*
X169184286Y-72124819D01*
X169470000Y-72124819D02*
X169470000Y-71124819D01*
X169470000Y-71124819D02*
X169374762Y-71267676D01*
X169374762Y-71267676D02*
X169279524Y-71362914D01*
X169279524Y-71362914D02*
X169184286Y-71410533D01*
X148556667Y-78947200D02*
X148699524Y-78994819D01*
X148699524Y-78994819D02*
X148937619Y-78994819D01*
X148937619Y-78994819D02*
X149032857Y-78947200D01*
X149032857Y-78947200D02*
X149080476Y-78899580D01*
X149080476Y-78899580D02*
X149128095Y-78804342D01*
X149128095Y-78804342D02*
X149128095Y-78709104D01*
X149128095Y-78709104D02*
X149080476Y-78613866D01*
X149080476Y-78613866D02*
X149032857Y-78566247D01*
X149032857Y-78566247D02*
X148937619Y-78518628D01*
X148937619Y-78518628D02*
X148747143Y-78471009D01*
X148747143Y-78471009D02*
X148651905Y-78423390D01*
X148651905Y-78423390D02*
X148604286Y-78375771D01*
X148604286Y-78375771D02*
X148556667Y-78280533D01*
X148556667Y-78280533D02*
X148556667Y-78185295D01*
X148556667Y-78185295D02*
X148604286Y-78090057D01*
X148604286Y-78090057D02*
X148651905Y-78042438D01*
X148651905Y-78042438D02*
X148747143Y-77994819D01*
X148747143Y-77994819D02*
X148985238Y-77994819D01*
X148985238Y-77994819D02*
X149128095Y-78042438D01*
X149461429Y-77994819D02*
X149699524Y-78994819D01*
X149699524Y-78994819D02*
X149890000Y-78280533D01*
X149890000Y-78280533D02*
X150080476Y-78994819D01*
X150080476Y-78994819D02*
X150318572Y-77994819D01*
X150651905Y-78090057D02*
X150699524Y-78042438D01*
X150699524Y-78042438D02*
X150794762Y-77994819D01*
X150794762Y-77994819D02*
X151032857Y-77994819D01*
X151032857Y-77994819D02*
X151128095Y-78042438D01*
X151128095Y-78042438D02*
X151175714Y-78090057D01*
X151175714Y-78090057D02*
X151223333Y-78185295D01*
X151223333Y-78185295D02*
X151223333Y-78280533D01*
X151223333Y-78280533D02*
X151175714Y-78423390D01*
X151175714Y-78423390D02*
X150604286Y-78994819D01*
X150604286Y-78994819D02*
X151223333Y-78994819D01*
X70537967Y-99243467D02*
X70537967Y-99310811D01*
X70537967Y-99310811D02*
X70470623Y-99445498D01*
X70470623Y-99445498D02*
X70403280Y-99512841D01*
X70403280Y-99512841D02*
X70268593Y-99580185D01*
X70268593Y-99580185D02*
X70133906Y-99580185D01*
X70133906Y-99580185D02*
X70032891Y-99546513D01*
X70032891Y-99546513D02*
X69864532Y-99445498D01*
X69864532Y-99445498D02*
X69763517Y-99344483D01*
X69763517Y-99344483D02*
X69662501Y-99176124D01*
X69662501Y-99176124D02*
X69628830Y-99075109D01*
X69628830Y-99075109D02*
X69628830Y-98940422D01*
X69628830Y-98940422D02*
X69696173Y-98805735D01*
X69696173Y-98805735D02*
X69763517Y-98738391D01*
X69763517Y-98738391D02*
X69898204Y-98671048D01*
X69898204Y-98671048D02*
X69965547Y-98671048D01*
X70234921Y-98401674D02*
X70234921Y-98334330D01*
X70234921Y-98334330D02*
X70268593Y-98233315D01*
X70268593Y-98233315D02*
X70436952Y-98064956D01*
X70436952Y-98064956D02*
X70537967Y-98031284D01*
X70537967Y-98031284D02*
X70605310Y-98031284D01*
X70605310Y-98031284D02*
X70706326Y-98064956D01*
X70706326Y-98064956D02*
X70773669Y-98132300D01*
X70773669Y-98132300D02*
X70841013Y-98266987D01*
X70841013Y-98266987D02*
X70841013Y-99075109D01*
X70841013Y-99075109D02*
X71278745Y-98637376D01*
X79769693Y-104843517D02*
X79062587Y-104136410D01*
X79062587Y-104136410D02*
X79230945Y-103968051D01*
X79230945Y-103968051D02*
X79365632Y-103900708D01*
X79365632Y-103900708D02*
X79500319Y-103900708D01*
X79500319Y-103900708D02*
X79601335Y-103934380D01*
X79601335Y-103934380D02*
X79769693Y-104035395D01*
X79769693Y-104035395D02*
X79870709Y-104136410D01*
X79870709Y-104136410D02*
X79971724Y-104304769D01*
X79971724Y-104304769D02*
X80005396Y-104405784D01*
X80005396Y-104405784D02*
X80005396Y-104540471D01*
X80005396Y-104540471D02*
X79938052Y-104675158D01*
X79938052Y-104675158D02*
X79769693Y-104843517D01*
X80510472Y-104102738D02*
X80645159Y-103968051D01*
X80645159Y-103968051D02*
X80678831Y-103867036D01*
X80678831Y-103867036D02*
X80678831Y-103799693D01*
X80678831Y-103799693D02*
X80645159Y-103631334D01*
X80645159Y-103631334D02*
X80544144Y-103462975D01*
X80544144Y-103462975D02*
X80274770Y-103193601D01*
X80274770Y-103193601D02*
X80173754Y-103159929D01*
X80173754Y-103159929D02*
X80106411Y-103159929D01*
X80106411Y-103159929D02*
X80005396Y-103193601D01*
X80005396Y-103193601D02*
X79870709Y-103328288D01*
X79870709Y-103328288D02*
X79837037Y-103429303D01*
X79837037Y-103429303D02*
X79837037Y-103496647D01*
X79837037Y-103496647D02*
X79870709Y-103597662D01*
X79870709Y-103597662D02*
X80039067Y-103766021D01*
X80039067Y-103766021D02*
X80140083Y-103799693D01*
X80140083Y-103799693D02*
X80207426Y-103799693D01*
X80207426Y-103799693D02*
X80308441Y-103766021D01*
X80308441Y-103766021D02*
X80443128Y-103631334D01*
X80443128Y-103631334D02*
X80476800Y-103530319D01*
X80476800Y-103530319D02*
X80476800Y-103462975D01*
X80476800Y-103462975D02*
X80443128Y-103361960D01*
X71549764Y-82062975D02*
X72256871Y-81355869D01*
X72256871Y-81355869D02*
X72425230Y-81524227D01*
X72425230Y-81524227D02*
X72492573Y-81658914D01*
X72492573Y-81658914D02*
X72492573Y-81793601D01*
X72492573Y-81793601D02*
X72458901Y-81894617D01*
X72458901Y-81894617D02*
X72357886Y-82062975D01*
X72357886Y-82062975D02*
X72256871Y-82163991D01*
X72256871Y-82163991D02*
X72088512Y-82265006D01*
X72088512Y-82265006D02*
X71987497Y-82298678D01*
X71987497Y-82298678D02*
X71852810Y-82298678D01*
X71852810Y-82298678D02*
X71718123Y-82231334D01*
X71718123Y-82231334D02*
X71549764Y-82062975D01*
X72627260Y-83140471D02*
X72223199Y-82736410D01*
X72425230Y-82938441D02*
X73132336Y-82231334D01*
X73132336Y-82231334D02*
X72963978Y-82265006D01*
X72963978Y-82265006D02*
X72829291Y-82265006D01*
X72829291Y-82265006D02*
X72728275Y-82231334D01*
X73570069Y-82669067D02*
X74007802Y-83106800D01*
X74007802Y-83106800D02*
X73502726Y-83140472D01*
X73502726Y-83140472D02*
X73603741Y-83241487D01*
X73603741Y-83241487D02*
X73637413Y-83342502D01*
X73637413Y-83342502D02*
X73637413Y-83409846D01*
X73637413Y-83409846D02*
X73603741Y-83510861D01*
X73603741Y-83510861D02*
X73435382Y-83679220D01*
X73435382Y-83679220D02*
X73334367Y-83712891D01*
X73334367Y-83712891D02*
X73267024Y-83712891D01*
X73267024Y-83712891D02*
X73166008Y-83679220D01*
X73166008Y-83679220D02*
X72963978Y-83477189D01*
X72963978Y-83477189D02*
X72930306Y-83376174D01*
X72930306Y-83376174D02*
X72930306Y-83308830D01*
X79261904Y-77254819D02*
X79261904Y-76254819D01*
X79261904Y-76254819D02*
X79499999Y-76254819D01*
X79499999Y-76254819D02*
X79642856Y-76302438D01*
X79642856Y-76302438D02*
X79738094Y-76397676D01*
X79738094Y-76397676D02*
X79785713Y-76492914D01*
X79785713Y-76492914D02*
X79833332Y-76683390D01*
X79833332Y-76683390D02*
X79833332Y-76826247D01*
X79833332Y-76826247D02*
X79785713Y-77016723D01*
X79785713Y-77016723D02*
X79738094Y-77111961D01*
X79738094Y-77111961D02*
X79642856Y-77207200D01*
X79642856Y-77207200D02*
X79499999Y-77254819D01*
X79499999Y-77254819D02*
X79261904Y-77254819D01*
X80214285Y-76350057D02*
X80261904Y-76302438D01*
X80261904Y-76302438D02*
X80357142Y-76254819D01*
X80357142Y-76254819D02*
X80595237Y-76254819D01*
X80595237Y-76254819D02*
X80690475Y-76302438D01*
X80690475Y-76302438D02*
X80738094Y-76350057D01*
X80738094Y-76350057D02*
X80785713Y-76445295D01*
X80785713Y-76445295D02*
X80785713Y-76540533D01*
X80785713Y-76540533D02*
X80738094Y-76683390D01*
X80738094Y-76683390D02*
X80166666Y-77254819D01*
X80166666Y-77254819D02*
X80785713Y-77254819D01*
X126337142Y-99619580D02*
X126289523Y-99667200D01*
X126289523Y-99667200D02*
X126146666Y-99714819D01*
X126146666Y-99714819D02*
X126051428Y-99714819D01*
X126051428Y-99714819D02*
X125908571Y-99667200D01*
X125908571Y-99667200D02*
X125813333Y-99571961D01*
X125813333Y-99571961D02*
X125765714Y-99476723D01*
X125765714Y-99476723D02*
X125718095Y-99286247D01*
X125718095Y-99286247D02*
X125718095Y-99143390D01*
X125718095Y-99143390D02*
X125765714Y-98952914D01*
X125765714Y-98952914D02*
X125813333Y-98857676D01*
X125813333Y-98857676D02*
X125908571Y-98762438D01*
X125908571Y-98762438D02*
X126051428Y-98714819D01*
X126051428Y-98714819D02*
X126146666Y-98714819D01*
X126146666Y-98714819D02*
X126289523Y-98762438D01*
X126289523Y-98762438D02*
X126337142Y-98810057D01*
X127289523Y-99714819D02*
X126718095Y-99714819D01*
X127003809Y-99714819D02*
X127003809Y-98714819D01*
X127003809Y-98714819D02*
X126908571Y-98857676D01*
X126908571Y-98857676D02*
X126813333Y-98952914D01*
X126813333Y-98952914D02*
X126718095Y-99000533D01*
X127765714Y-99714819D02*
X127956190Y-99714819D01*
X127956190Y-99714819D02*
X128051428Y-99667200D01*
X128051428Y-99667200D02*
X128099047Y-99619580D01*
X128099047Y-99619580D02*
X128194285Y-99476723D01*
X128194285Y-99476723D02*
X128241904Y-99286247D01*
X128241904Y-99286247D02*
X128241904Y-98905295D01*
X128241904Y-98905295D02*
X128194285Y-98810057D01*
X128194285Y-98810057D02*
X128146666Y-98762438D01*
X128146666Y-98762438D02*
X128051428Y-98714819D01*
X128051428Y-98714819D02*
X127860952Y-98714819D01*
X127860952Y-98714819D02*
X127765714Y-98762438D01*
X127765714Y-98762438D02*
X127718095Y-98810057D01*
X127718095Y-98810057D02*
X127670476Y-98905295D01*
X127670476Y-98905295D02*
X127670476Y-99143390D01*
X127670476Y-99143390D02*
X127718095Y-99238628D01*
X127718095Y-99238628D02*
X127765714Y-99286247D01*
X127765714Y-99286247D02*
X127860952Y-99333866D01*
X127860952Y-99333866D02*
X128051428Y-99333866D01*
X128051428Y-99333866D02*
X128146666Y-99286247D01*
X128146666Y-99286247D02*
X128194285Y-99238628D01*
X128194285Y-99238628D02*
X128241904Y-99143390D01*
X81778095Y-88574819D02*
X81778095Y-89384342D01*
X81778095Y-89384342D02*
X81825714Y-89479580D01*
X81825714Y-89479580D02*
X81873333Y-89527200D01*
X81873333Y-89527200D02*
X81968571Y-89574819D01*
X81968571Y-89574819D02*
X82159047Y-89574819D01*
X82159047Y-89574819D02*
X82254285Y-89527200D01*
X82254285Y-89527200D02*
X82301904Y-89479580D01*
X82301904Y-89479580D02*
X82349523Y-89384342D01*
X82349523Y-89384342D02*
X82349523Y-88574819D01*
X83349523Y-89574819D02*
X82778095Y-89574819D01*
X83063809Y-89574819D02*
X83063809Y-88574819D01*
X83063809Y-88574819D02*
X82968571Y-88717676D01*
X82968571Y-88717676D02*
X82873333Y-88812914D01*
X82873333Y-88812914D02*
X82778095Y-88860533D01*
X74996411Y-103832112D02*
X74996411Y-103899456D01*
X74996411Y-103899456D02*
X74929067Y-104034143D01*
X74929067Y-104034143D02*
X74861724Y-104101486D01*
X74861724Y-104101486D02*
X74727037Y-104168830D01*
X74727037Y-104168830D02*
X74592350Y-104168830D01*
X74592350Y-104168830D02*
X74491335Y-104135158D01*
X74491335Y-104135158D02*
X74322976Y-104034143D01*
X74322976Y-104034143D02*
X74221961Y-103933128D01*
X74221961Y-103933128D02*
X74120945Y-103764769D01*
X74120945Y-103764769D02*
X74087274Y-103663754D01*
X74087274Y-103663754D02*
X74087274Y-103529067D01*
X74087274Y-103529067D02*
X74154617Y-103394380D01*
X74154617Y-103394380D02*
X74221961Y-103327036D01*
X74221961Y-103327036D02*
X74356648Y-103259693D01*
X74356648Y-103259693D02*
X74423991Y-103259693D01*
X75737189Y-103226021D02*
X75333128Y-103630082D01*
X75535159Y-103428051D02*
X74828052Y-102720945D01*
X74828052Y-102720945D02*
X74861724Y-102889303D01*
X74861724Y-102889303D02*
X74861724Y-103023990D01*
X74861724Y-103023990D02*
X74828052Y-103125006D01*
X77886328Y-111934800D02*
X77179222Y-111227693D01*
X77179222Y-111227693D02*
X77347580Y-111059334D01*
X77347580Y-111059334D02*
X77482267Y-110991991D01*
X77482267Y-110991991D02*
X77616954Y-110991991D01*
X77616954Y-110991991D02*
X77717970Y-111025663D01*
X77717970Y-111025663D02*
X77886328Y-111126678D01*
X77886328Y-111126678D02*
X77987344Y-111227693D01*
X77987344Y-111227693D02*
X78088359Y-111396052D01*
X78088359Y-111396052D02*
X78122031Y-111497067D01*
X78122031Y-111497067D02*
X78122031Y-111631754D01*
X78122031Y-111631754D02*
X78054687Y-111766441D01*
X78054687Y-111766441D02*
X77886328Y-111934800D01*
X78963824Y-110857304D02*
X78559763Y-111261365D01*
X78761794Y-111059334D02*
X78054687Y-110352228D01*
X78054687Y-110352228D02*
X78088359Y-110520586D01*
X78088359Y-110520586D02*
X78088359Y-110655273D01*
X78088359Y-110655273D02*
X78054687Y-110756289D01*
X78593435Y-109948166D02*
X78593435Y-109880823D01*
X78593435Y-109880823D02*
X78627107Y-109779808D01*
X78627107Y-109779808D02*
X78795466Y-109611449D01*
X78795466Y-109611449D02*
X78896481Y-109577777D01*
X78896481Y-109577777D02*
X78963825Y-109577777D01*
X78963825Y-109577777D02*
X79064840Y-109611449D01*
X79064840Y-109611449D02*
X79132183Y-109678792D01*
X79132183Y-109678792D02*
X79199527Y-109813479D01*
X79199527Y-109813479D02*
X79199527Y-110621601D01*
X79199527Y-110621601D02*
X79637260Y-110183869D01*
X179986667Y-78737200D02*
X180129524Y-78784819D01*
X180129524Y-78784819D02*
X180367619Y-78784819D01*
X180367619Y-78784819D02*
X180462857Y-78737200D01*
X180462857Y-78737200D02*
X180510476Y-78689580D01*
X180510476Y-78689580D02*
X180558095Y-78594342D01*
X180558095Y-78594342D02*
X180558095Y-78499104D01*
X180558095Y-78499104D02*
X180510476Y-78403866D01*
X180510476Y-78403866D02*
X180462857Y-78356247D01*
X180462857Y-78356247D02*
X180367619Y-78308628D01*
X180367619Y-78308628D02*
X180177143Y-78261009D01*
X180177143Y-78261009D02*
X180081905Y-78213390D01*
X180081905Y-78213390D02*
X180034286Y-78165771D01*
X180034286Y-78165771D02*
X179986667Y-78070533D01*
X179986667Y-78070533D02*
X179986667Y-77975295D01*
X179986667Y-77975295D02*
X180034286Y-77880057D01*
X180034286Y-77880057D02*
X180081905Y-77832438D01*
X180081905Y-77832438D02*
X180177143Y-77784819D01*
X180177143Y-77784819D02*
X180415238Y-77784819D01*
X180415238Y-77784819D02*
X180558095Y-77832438D01*
X180891429Y-77784819D02*
X181129524Y-78784819D01*
X181129524Y-78784819D02*
X181320000Y-78070533D01*
X181320000Y-78070533D02*
X181510476Y-78784819D01*
X181510476Y-78784819D02*
X181748572Y-77784819D01*
X182653333Y-78784819D02*
X182081905Y-78784819D01*
X182367619Y-78784819D02*
X182367619Y-77784819D01*
X182367619Y-77784819D02*
X182272381Y-77927676D01*
X182272381Y-77927676D02*
X182177143Y-78022914D01*
X182177143Y-78022914D02*
X182081905Y-78070533D01*
X91276411Y-90662112D02*
X91276411Y-90729456D01*
X91276411Y-90729456D02*
X91209067Y-90864143D01*
X91209067Y-90864143D02*
X91141724Y-90931486D01*
X91141724Y-90931486D02*
X91007037Y-90998830D01*
X91007037Y-90998830D02*
X90872350Y-90998830D01*
X90872350Y-90998830D02*
X90771335Y-90965158D01*
X90771335Y-90965158D02*
X90602976Y-90864143D01*
X90602976Y-90864143D02*
X90501961Y-90763128D01*
X90501961Y-90763128D02*
X90400945Y-90594769D01*
X90400945Y-90594769D02*
X90367274Y-90493754D01*
X90367274Y-90493754D02*
X90367274Y-90359067D01*
X90367274Y-90359067D02*
X90434617Y-90224380D01*
X90434617Y-90224380D02*
X90501961Y-90157036D01*
X90501961Y-90157036D02*
X90636648Y-90089693D01*
X90636648Y-90089693D02*
X90703991Y-90089693D01*
X91478441Y-89651960D02*
X91949846Y-90123364D01*
X91040709Y-89550945D02*
X91377426Y-90224380D01*
X91377426Y-90224380D02*
X91815159Y-89786647D01*
X69426411Y-98332112D02*
X69426411Y-98399456D01*
X69426411Y-98399456D02*
X69359067Y-98534143D01*
X69359067Y-98534143D02*
X69291724Y-98601486D01*
X69291724Y-98601486D02*
X69157037Y-98668830D01*
X69157037Y-98668830D02*
X69022350Y-98668830D01*
X69022350Y-98668830D02*
X68921335Y-98635158D01*
X68921335Y-98635158D02*
X68752976Y-98534143D01*
X68752976Y-98534143D02*
X68651961Y-98433128D01*
X68651961Y-98433128D02*
X68550945Y-98264769D01*
X68550945Y-98264769D02*
X68517274Y-98163754D01*
X68517274Y-98163754D02*
X68517274Y-98029067D01*
X68517274Y-98029067D02*
X68584617Y-97894380D01*
X68584617Y-97894380D02*
X68651961Y-97827036D01*
X68651961Y-97827036D02*
X68786648Y-97759693D01*
X68786648Y-97759693D02*
X68853991Y-97759693D01*
X69426411Y-97052586D02*
X69089693Y-97389303D01*
X69089693Y-97389303D02*
X69392739Y-97759693D01*
X69392739Y-97759693D02*
X69392739Y-97692349D01*
X69392739Y-97692349D02*
X69426411Y-97591334D01*
X69426411Y-97591334D02*
X69594770Y-97422975D01*
X69594770Y-97422975D02*
X69695785Y-97389303D01*
X69695785Y-97389303D02*
X69763128Y-97389303D01*
X69763128Y-97389303D02*
X69864144Y-97422975D01*
X69864144Y-97422975D02*
X70032502Y-97591334D01*
X70032502Y-97591334D02*
X70066174Y-97692349D01*
X70066174Y-97692349D02*
X70066174Y-97759693D01*
X70066174Y-97759693D02*
X70032502Y-97860708D01*
X70032502Y-97860708D02*
X69864144Y-98029067D01*
X69864144Y-98029067D02*
X69763128Y-98062738D01*
X69763128Y-98062738D02*
X69695785Y-98062738D01*
X122655714Y-80824819D02*
X122655714Y-79824819D01*
X122655714Y-79824819D02*
X122893809Y-79824819D01*
X122893809Y-79824819D02*
X123036666Y-79872438D01*
X123036666Y-79872438D02*
X123131904Y-79967676D01*
X123131904Y-79967676D02*
X123179523Y-80062914D01*
X123179523Y-80062914D02*
X123227142Y-80253390D01*
X123227142Y-80253390D02*
X123227142Y-80396247D01*
X123227142Y-80396247D02*
X123179523Y-80586723D01*
X123179523Y-80586723D02*
X123131904Y-80681961D01*
X123131904Y-80681961D02*
X123036666Y-80777200D01*
X123036666Y-80777200D02*
X122893809Y-80824819D01*
X122893809Y-80824819D02*
X122655714Y-80824819D01*
X124179523Y-80824819D02*
X123608095Y-80824819D01*
X123893809Y-80824819D02*
X123893809Y-79824819D01*
X123893809Y-79824819D02*
X123798571Y-79967676D01*
X123798571Y-79967676D02*
X123703333Y-80062914D01*
X123703333Y-80062914D02*
X123608095Y-80110533D01*
X124512857Y-79824819D02*
X125179523Y-79824819D01*
X125179523Y-79824819D02*
X124750952Y-80824819D01*
X120005714Y-82724819D02*
X119434286Y-82724819D01*
X119720000Y-82724819D02*
X119720000Y-81724819D01*
X119720000Y-81724819D02*
X119624762Y-81867676D01*
X119624762Y-81867676D02*
X119529524Y-81962914D01*
X119529524Y-81962914D02*
X119434286Y-82010533D01*
X122675714Y-67034819D02*
X122675714Y-66034819D01*
X122675714Y-66034819D02*
X122913809Y-66034819D01*
X122913809Y-66034819D02*
X123056666Y-66082438D01*
X123056666Y-66082438D02*
X123151904Y-66177676D01*
X123151904Y-66177676D02*
X123199523Y-66272914D01*
X123199523Y-66272914D02*
X123247142Y-66463390D01*
X123247142Y-66463390D02*
X123247142Y-66606247D01*
X123247142Y-66606247D02*
X123199523Y-66796723D01*
X123199523Y-66796723D02*
X123151904Y-66891961D01*
X123151904Y-66891961D02*
X123056666Y-66987200D01*
X123056666Y-66987200D02*
X122913809Y-67034819D01*
X122913809Y-67034819D02*
X122675714Y-67034819D01*
X124199523Y-67034819D02*
X123628095Y-67034819D01*
X123913809Y-67034819D02*
X123913809Y-66034819D01*
X123913809Y-66034819D02*
X123818571Y-66177676D01*
X123818571Y-66177676D02*
X123723333Y-66272914D01*
X123723333Y-66272914D02*
X123628095Y-66320533D01*
X124770952Y-66463390D02*
X124675714Y-66415771D01*
X124675714Y-66415771D02*
X124628095Y-66368152D01*
X124628095Y-66368152D02*
X124580476Y-66272914D01*
X124580476Y-66272914D02*
X124580476Y-66225295D01*
X124580476Y-66225295D02*
X124628095Y-66130057D01*
X124628095Y-66130057D02*
X124675714Y-66082438D01*
X124675714Y-66082438D02*
X124770952Y-66034819D01*
X124770952Y-66034819D02*
X124961428Y-66034819D01*
X124961428Y-66034819D02*
X125056666Y-66082438D01*
X125056666Y-66082438D02*
X125104285Y-66130057D01*
X125104285Y-66130057D02*
X125151904Y-66225295D01*
X125151904Y-66225295D02*
X125151904Y-66272914D01*
X125151904Y-66272914D02*
X125104285Y-66368152D01*
X125104285Y-66368152D02*
X125056666Y-66415771D01*
X125056666Y-66415771D02*
X124961428Y-66463390D01*
X124961428Y-66463390D02*
X124770952Y-66463390D01*
X124770952Y-66463390D02*
X124675714Y-66511009D01*
X124675714Y-66511009D02*
X124628095Y-66558628D01*
X124628095Y-66558628D02*
X124580476Y-66653866D01*
X124580476Y-66653866D02*
X124580476Y-66844342D01*
X124580476Y-66844342D02*
X124628095Y-66939580D01*
X124628095Y-66939580D02*
X124675714Y-66987200D01*
X124675714Y-66987200D02*
X124770952Y-67034819D01*
X124770952Y-67034819D02*
X124961428Y-67034819D01*
X124961428Y-67034819D02*
X125056666Y-66987200D01*
X125056666Y-66987200D02*
X125104285Y-66939580D01*
X125104285Y-66939580D02*
X125151904Y-66844342D01*
X125151904Y-66844342D02*
X125151904Y-66653866D01*
X125151904Y-66653866D02*
X125104285Y-66558628D01*
X125104285Y-66558628D02*
X125056666Y-66511009D01*
X125056666Y-66511009D02*
X124961428Y-66463390D01*
X128305714Y-72214819D02*
X127734286Y-72214819D01*
X128020000Y-72214819D02*
X128020000Y-71214819D01*
X128020000Y-71214819D02*
X127924762Y-71357676D01*
X127924762Y-71357676D02*
X127829524Y-71452914D01*
X127829524Y-71452914D02*
X127734286Y-71500533D01*
X148222142Y-73919580D02*
X148174523Y-73967200D01*
X148174523Y-73967200D02*
X148031666Y-74014819D01*
X148031666Y-74014819D02*
X147936428Y-74014819D01*
X147936428Y-74014819D02*
X147793571Y-73967200D01*
X147793571Y-73967200D02*
X147698333Y-73871961D01*
X147698333Y-73871961D02*
X147650714Y-73776723D01*
X147650714Y-73776723D02*
X147603095Y-73586247D01*
X147603095Y-73586247D02*
X147603095Y-73443390D01*
X147603095Y-73443390D02*
X147650714Y-73252914D01*
X147650714Y-73252914D02*
X147698333Y-73157676D01*
X147698333Y-73157676D02*
X147793571Y-73062438D01*
X147793571Y-73062438D02*
X147936428Y-73014819D01*
X147936428Y-73014819D02*
X148031666Y-73014819D01*
X148031666Y-73014819D02*
X148174523Y-73062438D01*
X148174523Y-73062438D02*
X148222142Y-73110057D01*
X148603095Y-73110057D02*
X148650714Y-73062438D01*
X148650714Y-73062438D02*
X148745952Y-73014819D01*
X148745952Y-73014819D02*
X148984047Y-73014819D01*
X148984047Y-73014819D02*
X149079285Y-73062438D01*
X149079285Y-73062438D02*
X149126904Y-73110057D01*
X149126904Y-73110057D02*
X149174523Y-73205295D01*
X149174523Y-73205295D02*
X149174523Y-73300533D01*
X149174523Y-73300533D02*
X149126904Y-73443390D01*
X149126904Y-73443390D02*
X148555476Y-74014819D01*
X148555476Y-74014819D02*
X149174523Y-74014819D01*
X149555476Y-73110057D02*
X149603095Y-73062438D01*
X149603095Y-73062438D02*
X149698333Y-73014819D01*
X149698333Y-73014819D02*
X149936428Y-73014819D01*
X149936428Y-73014819D02*
X150031666Y-73062438D01*
X150031666Y-73062438D02*
X150079285Y-73110057D01*
X150079285Y-73110057D02*
X150126904Y-73205295D01*
X150126904Y-73205295D02*
X150126904Y-73300533D01*
X150126904Y-73300533D02*
X150079285Y-73443390D01*
X150079285Y-73443390D02*
X149507857Y-74014819D01*
X149507857Y-74014819D02*
X150126904Y-74014819D01*
X87778752Y-102212082D02*
X87071646Y-101504975D01*
X87071646Y-101504975D02*
X87240004Y-101336616D01*
X87240004Y-101336616D02*
X87374691Y-101269273D01*
X87374691Y-101269273D02*
X87509378Y-101269273D01*
X87509378Y-101269273D02*
X87610394Y-101302945D01*
X87610394Y-101302945D02*
X87778752Y-101403960D01*
X87778752Y-101403960D02*
X87879768Y-101504975D01*
X87879768Y-101504975D02*
X87980783Y-101673334D01*
X87980783Y-101673334D02*
X88014455Y-101774349D01*
X88014455Y-101774349D02*
X88014455Y-101909036D01*
X88014455Y-101909036D02*
X87947111Y-102043723D01*
X87947111Y-102043723D02*
X87778752Y-102212082D01*
X88856248Y-101134586D02*
X88452187Y-101538647D01*
X88654218Y-101336616D02*
X87947111Y-100629510D01*
X87947111Y-100629510D02*
X87980783Y-100797868D01*
X87980783Y-100797868D02*
X87980783Y-100932555D01*
X87980783Y-100932555D02*
X87947111Y-101033571D01*
X89529684Y-100461151D02*
X89125623Y-100865212D01*
X89327653Y-100663181D02*
X88620546Y-99956074D01*
X88620546Y-99956074D02*
X88654218Y-100124433D01*
X88654218Y-100124433D02*
X88654218Y-100259120D01*
X88654218Y-100259120D02*
X88620546Y-100360135D01*
X208114761Y-129344819D02*
X207781428Y-128868628D01*
X207543333Y-129344819D02*
X207543333Y-128344819D01*
X207543333Y-128344819D02*
X207924285Y-128344819D01*
X207924285Y-128344819D02*
X208019523Y-128392438D01*
X208019523Y-128392438D02*
X208067142Y-128440057D01*
X208067142Y-128440057D02*
X208114761Y-128535295D01*
X208114761Y-128535295D02*
X208114761Y-128678152D01*
X208114761Y-128678152D02*
X208067142Y-128773390D01*
X208067142Y-128773390D02*
X208019523Y-128821009D01*
X208019523Y-128821009D02*
X207924285Y-128868628D01*
X207924285Y-128868628D02*
X207543333Y-128868628D01*
X208400476Y-128344819D02*
X208733809Y-129344819D01*
X208733809Y-129344819D02*
X209067142Y-128344819D01*
X209924285Y-129344819D02*
X209352857Y-129344819D01*
X209638571Y-129344819D02*
X209638571Y-128344819D01*
X209638571Y-128344819D02*
X209543333Y-128487676D01*
X209543333Y-128487676D02*
X209448095Y-128582914D01*
X209448095Y-128582914D02*
X209352857Y-128630533D01*
X91916666Y-60944819D02*
X91916666Y-61659104D01*
X91916666Y-61659104D02*
X91869047Y-61801961D01*
X91869047Y-61801961D02*
X91773809Y-61897200D01*
X91773809Y-61897200D02*
X91630952Y-61944819D01*
X91630952Y-61944819D02*
X91535714Y-61944819D01*
X92916666Y-61944819D02*
X92345238Y-61944819D01*
X92630952Y-61944819D02*
X92630952Y-60944819D01*
X92630952Y-60944819D02*
X92535714Y-61087676D01*
X92535714Y-61087676D02*
X92440476Y-61182914D01*
X92440476Y-61182914D02*
X92345238Y-61230533D01*
X93138095Y-107807200D02*
X93280952Y-107854819D01*
X93280952Y-107854819D02*
X93519047Y-107854819D01*
X93519047Y-107854819D02*
X93614285Y-107807200D01*
X93614285Y-107807200D02*
X93661904Y-107759580D01*
X93661904Y-107759580D02*
X93709523Y-107664342D01*
X93709523Y-107664342D02*
X93709523Y-107569104D01*
X93709523Y-107569104D02*
X93661904Y-107473866D01*
X93661904Y-107473866D02*
X93614285Y-107426247D01*
X93614285Y-107426247D02*
X93519047Y-107378628D01*
X93519047Y-107378628D02*
X93328571Y-107331009D01*
X93328571Y-107331009D02*
X93233333Y-107283390D01*
X93233333Y-107283390D02*
X93185714Y-107235771D01*
X93185714Y-107235771D02*
X93138095Y-107140533D01*
X93138095Y-107140533D02*
X93138095Y-107045295D01*
X93138095Y-107045295D02*
X93185714Y-106950057D01*
X93185714Y-106950057D02*
X93233333Y-106902438D01*
X93233333Y-106902438D02*
X93328571Y-106854819D01*
X93328571Y-106854819D02*
X93566666Y-106854819D01*
X93566666Y-106854819D02*
X93709523Y-106902438D01*
X94661904Y-107854819D02*
X94090476Y-107854819D01*
X94376190Y-107854819D02*
X94376190Y-106854819D01*
X94376190Y-106854819D02*
X94280952Y-106997676D01*
X94280952Y-106997676D02*
X94185714Y-107092914D01*
X94185714Y-107092914D02*
X94090476Y-107140533D01*
X122332142Y-74089580D02*
X122284523Y-74137200D01*
X122284523Y-74137200D02*
X122141666Y-74184819D01*
X122141666Y-74184819D02*
X122046428Y-74184819D01*
X122046428Y-74184819D02*
X121903571Y-74137200D01*
X121903571Y-74137200D02*
X121808333Y-74041961D01*
X121808333Y-74041961D02*
X121760714Y-73946723D01*
X121760714Y-73946723D02*
X121713095Y-73756247D01*
X121713095Y-73756247D02*
X121713095Y-73613390D01*
X121713095Y-73613390D02*
X121760714Y-73422914D01*
X121760714Y-73422914D02*
X121808333Y-73327676D01*
X121808333Y-73327676D02*
X121903571Y-73232438D01*
X121903571Y-73232438D02*
X122046428Y-73184819D01*
X122046428Y-73184819D02*
X122141666Y-73184819D01*
X122141666Y-73184819D02*
X122284523Y-73232438D01*
X122284523Y-73232438D02*
X122332142Y-73280057D01*
X122713095Y-73280057D02*
X122760714Y-73232438D01*
X122760714Y-73232438D02*
X122855952Y-73184819D01*
X122855952Y-73184819D02*
X123094047Y-73184819D01*
X123094047Y-73184819D02*
X123189285Y-73232438D01*
X123189285Y-73232438D02*
X123236904Y-73280057D01*
X123236904Y-73280057D02*
X123284523Y-73375295D01*
X123284523Y-73375295D02*
X123284523Y-73470533D01*
X123284523Y-73470533D02*
X123236904Y-73613390D01*
X123236904Y-73613390D02*
X122665476Y-74184819D01*
X122665476Y-74184819D02*
X123284523Y-74184819D01*
X124236904Y-74184819D02*
X123665476Y-74184819D01*
X123951190Y-74184819D02*
X123951190Y-73184819D01*
X123951190Y-73184819D02*
X123855952Y-73327676D01*
X123855952Y-73327676D02*
X123760714Y-73422914D01*
X123760714Y-73422914D02*
X123665476Y-73470533D01*
X179907142Y-73974580D02*
X179859523Y-74022200D01*
X179859523Y-74022200D02*
X179716666Y-74069819D01*
X179716666Y-74069819D02*
X179621428Y-74069819D01*
X179621428Y-74069819D02*
X179478571Y-74022200D01*
X179478571Y-74022200D02*
X179383333Y-73926961D01*
X179383333Y-73926961D02*
X179335714Y-73831723D01*
X179335714Y-73831723D02*
X179288095Y-73641247D01*
X179288095Y-73641247D02*
X179288095Y-73498390D01*
X179288095Y-73498390D02*
X179335714Y-73307914D01*
X179335714Y-73307914D02*
X179383333Y-73212676D01*
X179383333Y-73212676D02*
X179478571Y-73117438D01*
X179478571Y-73117438D02*
X179621428Y-73069819D01*
X179621428Y-73069819D02*
X179716666Y-73069819D01*
X179716666Y-73069819D02*
X179859523Y-73117438D01*
X179859523Y-73117438D02*
X179907142Y-73165057D01*
X180288095Y-73165057D02*
X180335714Y-73117438D01*
X180335714Y-73117438D02*
X180430952Y-73069819D01*
X180430952Y-73069819D02*
X180669047Y-73069819D01*
X180669047Y-73069819D02*
X180764285Y-73117438D01*
X180764285Y-73117438D02*
X180811904Y-73165057D01*
X180811904Y-73165057D02*
X180859523Y-73260295D01*
X180859523Y-73260295D02*
X180859523Y-73355533D01*
X180859523Y-73355533D02*
X180811904Y-73498390D01*
X180811904Y-73498390D02*
X180240476Y-74069819D01*
X180240476Y-74069819D02*
X180859523Y-74069819D01*
X181716666Y-73403152D02*
X181716666Y-74069819D01*
X181478571Y-73022200D02*
X181240476Y-73736485D01*
X181240476Y-73736485D02*
X181859523Y-73736485D01*
X239409541Y-80541719D02*
X239933350Y-79875052D01*
X239409541Y-79875052D02*
X239933350Y-80541719D01*
X234656560Y-78081100D02*
X234799417Y-78128719D01*
X234799417Y-78128719D02*
X235037512Y-78128719D01*
X235037512Y-78128719D02*
X235132750Y-78081100D01*
X235132750Y-78081100D02*
X235180369Y-78033480D01*
X235180369Y-78033480D02*
X235227988Y-77938242D01*
X235227988Y-77938242D02*
X235227988Y-77843004D01*
X235227988Y-77843004D02*
X235180369Y-77747766D01*
X235180369Y-77747766D02*
X235132750Y-77700147D01*
X235132750Y-77700147D02*
X235037512Y-77652528D01*
X235037512Y-77652528D02*
X234847036Y-77604909D01*
X234847036Y-77604909D02*
X234751798Y-77557290D01*
X234751798Y-77557290D02*
X234704179Y-77509671D01*
X234704179Y-77509671D02*
X234656560Y-77414433D01*
X234656560Y-77414433D02*
X234656560Y-77319195D01*
X234656560Y-77319195D02*
X234704179Y-77223957D01*
X234704179Y-77223957D02*
X234751798Y-77176338D01*
X234751798Y-77176338D02*
X234847036Y-77128719D01*
X234847036Y-77128719D02*
X235085131Y-77128719D01*
X235085131Y-77128719D02*
X235227988Y-77176338D01*
X235656560Y-78128719D02*
X235656560Y-77128719D01*
X235656560Y-77128719D02*
X236037512Y-77128719D01*
X236037512Y-77128719D02*
X236132750Y-77176338D01*
X236132750Y-77176338D02*
X236180369Y-77223957D01*
X236180369Y-77223957D02*
X236227988Y-77319195D01*
X236227988Y-77319195D02*
X236227988Y-77462052D01*
X236227988Y-77462052D02*
X236180369Y-77557290D01*
X236180369Y-77557290D02*
X236132750Y-77604909D01*
X236132750Y-77604909D02*
X236037512Y-77652528D01*
X236037512Y-77652528D02*
X235656560Y-77652528D01*
X237227988Y-78128719D02*
X236894655Y-77652528D01*
X236656560Y-78128719D02*
X236656560Y-77128719D01*
X236656560Y-77128719D02*
X237037512Y-77128719D01*
X237037512Y-77128719D02*
X237132750Y-77176338D01*
X237132750Y-77176338D02*
X237180369Y-77223957D01*
X237180369Y-77223957D02*
X237227988Y-77319195D01*
X237227988Y-77319195D02*
X237227988Y-77462052D01*
X237227988Y-77462052D02*
X237180369Y-77557290D01*
X237180369Y-77557290D02*
X237132750Y-77604909D01*
X237132750Y-77604909D02*
X237037512Y-77652528D01*
X237037512Y-77652528D02*
X236656560Y-77652528D01*
X237656560Y-77604909D02*
X237989893Y-77604909D01*
X238132750Y-78128719D02*
X237656560Y-78128719D01*
X237656560Y-78128719D02*
X237656560Y-77128719D01*
X237656560Y-77128719D02*
X238132750Y-77128719D01*
X238513703Y-77843004D02*
X238989893Y-77843004D01*
X238418465Y-78128719D02*
X238751798Y-77128719D01*
X238751798Y-77128719D02*
X239085131Y-78128719D01*
X239418465Y-78128719D02*
X239418465Y-77128719D01*
X239418465Y-77128719D02*
X239656560Y-77128719D01*
X239656560Y-77128719D02*
X239799417Y-77176338D01*
X239799417Y-77176338D02*
X239894655Y-77271576D01*
X239894655Y-77271576D02*
X239942274Y-77366814D01*
X239942274Y-77366814D02*
X239989893Y-77557290D01*
X239989893Y-77557290D02*
X239989893Y-77700147D01*
X239989893Y-77700147D02*
X239942274Y-77890623D01*
X239942274Y-77890623D02*
X239894655Y-77985861D01*
X239894655Y-77985861D02*
X239799417Y-78081100D01*
X239799417Y-78081100D02*
X239656560Y-78128719D01*
X239656560Y-78128719D02*
X239418465Y-78128719D01*
X230401988Y-72197938D02*
X230306750Y-72150319D01*
X230306750Y-72150319D02*
X230163893Y-72150319D01*
X230163893Y-72150319D02*
X230021036Y-72197938D01*
X230021036Y-72197938D02*
X229925798Y-72293176D01*
X229925798Y-72293176D02*
X229878179Y-72388414D01*
X229878179Y-72388414D02*
X229830560Y-72578890D01*
X229830560Y-72578890D02*
X229830560Y-72721747D01*
X229830560Y-72721747D02*
X229878179Y-72912223D01*
X229878179Y-72912223D02*
X229925798Y-73007461D01*
X229925798Y-73007461D02*
X230021036Y-73102700D01*
X230021036Y-73102700D02*
X230163893Y-73150319D01*
X230163893Y-73150319D02*
X230259131Y-73150319D01*
X230259131Y-73150319D02*
X230401988Y-73102700D01*
X230401988Y-73102700D02*
X230449607Y-73055080D01*
X230449607Y-73055080D02*
X230449607Y-72721747D01*
X230449607Y-72721747D02*
X230259131Y-72721747D01*
X230878179Y-73150319D02*
X230878179Y-72150319D01*
X230878179Y-72150319D02*
X231449607Y-73150319D01*
X231449607Y-73150319D02*
X231449607Y-72150319D01*
X231925798Y-73150319D02*
X231925798Y-72150319D01*
X231925798Y-72150319D02*
X232163893Y-72150319D01*
X232163893Y-72150319D02*
X232306750Y-72197938D01*
X232306750Y-72197938D02*
X232401988Y-72293176D01*
X232401988Y-72293176D02*
X232449607Y-72388414D01*
X232449607Y-72388414D02*
X232497226Y-72578890D01*
X232497226Y-72578890D02*
X232497226Y-72721747D01*
X232497226Y-72721747D02*
X232449607Y-72912223D01*
X232449607Y-72912223D02*
X232401988Y-73007461D01*
X232401988Y-73007461D02*
X232306750Y-73102700D01*
X232306750Y-73102700D02*
X232163893Y-73150319D01*
X232163893Y-73150319D02*
X231925798Y-73150319D01*
X238260179Y-69807109D02*
X238593512Y-69807109D01*
X238736369Y-70330919D02*
X238260179Y-70330919D01*
X238260179Y-70330919D02*
X238260179Y-69330919D01*
X238260179Y-69330919D02*
X238736369Y-69330919D01*
X239164941Y-70330919D02*
X239164941Y-69330919D01*
X239164941Y-69330919D02*
X239736369Y-70330919D01*
X239736369Y-70330919D02*
X239736369Y-69330919D01*
X229852779Y-80694119D02*
X229852779Y-79694119D01*
X229852779Y-79694119D02*
X230186112Y-80408404D01*
X230186112Y-80408404D02*
X230519445Y-79694119D01*
X230519445Y-79694119D02*
X230519445Y-80694119D01*
X231519445Y-80694119D02*
X230948017Y-80694119D01*
X231233731Y-80694119D02*
X231233731Y-79694119D01*
X231233731Y-79694119D02*
X231138493Y-79836976D01*
X231138493Y-79836976D02*
X231043255Y-79932214D01*
X231043255Y-79932214D02*
X230948017Y-79979833D01*
X231900398Y-80408404D02*
X232376588Y-80408404D01*
X231805160Y-80694119D02*
X232138493Y-79694119D01*
X232138493Y-79694119D02*
X232471826Y-80694119D01*
X229852779Y-78128719D02*
X229852779Y-77128719D01*
X229852779Y-77128719D02*
X230186112Y-77843004D01*
X230186112Y-77843004D02*
X230519445Y-77128719D01*
X230519445Y-77128719D02*
X230519445Y-78128719D01*
X230948017Y-77223957D02*
X230995636Y-77176338D01*
X230995636Y-77176338D02*
X231090874Y-77128719D01*
X231090874Y-77128719D02*
X231328969Y-77128719D01*
X231328969Y-77128719D02*
X231424207Y-77176338D01*
X231424207Y-77176338D02*
X231471826Y-77223957D01*
X231471826Y-77223957D02*
X231519445Y-77319195D01*
X231519445Y-77319195D02*
X231519445Y-77414433D01*
X231519445Y-77414433D02*
X231471826Y-77557290D01*
X231471826Y-77557290D02*
X230900398Y-78128719D01*
X230900398Y-78128719D02*
X231519445Y-78128719D01*
X231900398Y-77843004D02*
X232376588Y-77843004D01*
X231805160Y-78128719D02*
X232138493Y-77128719D01*
X232138493Y-77128719D02*
X232471826Y-78128719D01*
X229928979Y-75588719D02*
X229928979Y-74588719D01*
X229928979Y-74588719D02*
X230262312Y-75303004D01*
X230262312Y-75303004D02*
X230595645Y-74588719D01*
X230595645Y-74588719D02*
X230595645Y-75588719D01*
X231024217Y-74683957D02*
X231071836Y-74636338D01*
X231071836Y-74636338D02*
X231167074Y-74588719D01*
X231167074Y-74588719D02*
X231405169Y-74588719D01*
X231405169Y-74588719D02*
X231500407Y-74636338D01*
X231500407Y-74636338D02*
X231548026Y-74683957D01*
X231548026Y-74683957D02*
X231595645Y-74779195D01*
X231595645Y-74779195D02*
X231595645Y-74874433D01*
X231595645Y-74874433D02*
X231548026Y-75017290D01*
X231548026Y-75017290D02*
X230976598Y-75588719D01*
X230976598Y-75588719D02*
X231595645Y-75588719D01*
X232357550Y-75064909D02*
X232500407Y-75112528D01*
X232500407Y-75112528D02*
X232548026Y-75160147D01*
X232548026Y-75160147D02*
X232595645Y-75255385D01*
X232595645Y-75255385D02*
X232595645Y-75398242D01*
X232595645Y-75398242D02*
X232548026Y-75493480D01*
X232548026Y-75493480D02*
X232500407Y-75541100D01*
X232500407Y-75541100D02*
X232405169Y-75588719D01*
X232405169Y-75588719D02*
X232024217Y-75588719D01*
X232024217Y-75588719D02*
X232024217Y-74588719D01*
X232024217Y-74588719D02*
X232357550Y-74588719D01*
X232357550Y-74588719D02*
X232452788Y-74636338D01*
X232452788Y-74636338D02*
X232500407Y-74683957D01*
X232500407Y-74683957D02*
X232548026Y-74779195D01*
X232548026Y-74779195D02*
X232548026Y-74874433D01*
X232548026Y-74874433D02*
X232500407Y-74969671D01*
X232500407Y-74969671D02*
X232452788Y-75017290D01*
X232452788Y-75017290D02*
X232357550Y-75064909D01*
X232357550Y-75064909D02*
X232024217Y-75064909D01*
X229963922Y-69483319D02*
X230297255Y-70483319D01*
X230297255Y-70483319D02*
X230630588Y-69483319D01*
X230963922Y-70483319D02*
X230963922Y-69483319D01*
X230963922Y-69483319D02*
X231297255Y-70197604D01*
X231297255Y-70197604D02*
X231630588Y-69483319D01*
X231630588Y-69483319D02*
X231630588Y-70483319D01*
X239434941Y-83030919D02*
X239958750Y-82364252D01*
X239434941Y-82364252D02*
X239958750Y-83030919D01*
X237729960Y-85726500D02*
X237872817Y-85774119D01*
X237872817Y-85774119D02*
X238110912Y-85774119D01*
X238110912Y-85774119D02*
X238206150Y-85726500D01*
X238206150Y-85726500D02*
X238253769Y-85678880D01*
X238253769Y-85678880D02*
X238301388Y-85583642D01*
X238301388Y-85583642D02*
X238301388Y-85488404D01*
X238301388Y-85488404D02*
X238253769Y-85393166D01*
X238253769Y-85393166D02*
X238206150Y-85345547D01*
X238206150Y-85345547D02*
X238110912Y-85297928D01*
X238110912Y-85297928D02*
X237920436Y-85250309D01*
X237920436Y-85250309D02*
X237825198Y-85202690D01*
X237825198Y-85202690D02*
X237777579Y-85155071D01*
X237777579Y-85155071D02*
X237729960Y-85059833D01*
X237729960Y-85059833D02*
X237729960Y-84964595D01*
X237729960Y-84964595D02*
X237777579Y-84869357D01*
X237777579Y-84869357D02*
X237825198Y-84821738D01*
X237825198Y-84821738D02*
X237920436Y-84774119D01*
X237920436Y-84774119D02*
X238158531Y-84774119D01*
X238158531Y-84774119D02*
X238301388Y-84821738D01*
X238587103Y-84774119D02*
X239158531Y-84774119D01*
X238872817Y-85774119D02*
X238872817Y-84774119D01*
X239491865Y-85774119D02*
X239491865Y-84774119D01*
X239491865Y-84774119D02*
X239872817Y-84774119D01*
X239872817Y-84774119D02*
X239968055Y-84821738D01*
X239968055Y-84821738D02*
X240015674Y-84869357D01*
X240015674Y-84869357D02*
X240063293Y-84964595D01*
X240063293Y-84964595D02*
X240063293Y-85107452D01*
X240063293Y-85107452D02*
X240015674Y-85202690D01*
X240015674Y-85202690D02*
X239968055Y-85250309D01*
X239968055Y-85250309D02*
X239872817Y-85297928D01*
X239872817Y-85297928D02*
X239491865Y-85297928D01*
X237980779Y-88263319D02*
X237980779Y-87263319D01*
X237980779Y-87263319D02*
X238218874Y-87263319D01*
X238218874Y-87263319D02*
X238361731Y-87310938D01*
X238361731Y-87310938D02*
X238456969Y-87406176D01*
X238456969Y-87406176D02*
X238504588Y-87501414D01*
X238504588Y-87501414D02*
X238552207Y-87691890D01*
X238552207Y-87691890D02*
X238552207Y-87834747D01*
X238552207Y-87834747D02*
X238504588Y-88025223D01*
X238504588Y-88025223D02*
X238456969Y-88120461D01*
X238456969Y-88120461D02*
X238361731Y-88215700D01*
X238361731Y-88215700D02*
X238218874Y-88263319D01*
X238218874Y-88263319D02*
X237980779Y-88263319D01*
X238980779Y-88263319D02*
X238980779Y-87263319D01*
X240028397Y-88263319D02*
X239695064Y-87787128D01*
X239456969Y-88263319D02*
X239456969Y-87263319D01*
X239456969Y-87263319D02*
X239837921Y-87263319D01*
X239837921Y-87263319D02*
X239933159Y-87310938D01*
X239933159Y-87310938D02*
X239980778Y-87358557D01*
X239980778Y-87358557D02*
X240028397Y-87453795D01*
X240028397Y-87453795D02*
X240028397Y-87596652D01*
X240028397Y-87596652D02*
X239980778Y-87691890D01*
X239980778Y-87691890D02*
X239933159Y-87739509D01*
X239933159Y-87739509D02*
X239837921Y-87787128D01*
X239837921Y-87787128D02*
X239456969Y-87787128D01*
X229938522Y-84850319D02*
X230271855Y-85850319D01*
X230271855Y-85850319D02*
X230605188Y-84850319D01*
X230938522Y-85850319D02*
X230938522Y-84850319D01*
X231605188Y-84850319D02*
X231795664Y-84850319D01*
X231795664Y-84850319D02*
X231890902Y-84897938D01*
X231890902Y-84897938D02*
X231986140Y-84993176D01*
X231986140Y-84993176D02*
X232033759Y-85183652D01*
X232033759Y-85183652D02*
X232033759Y-85516985D01*
X232033759Y-85516985D02*
X231986140Y-85707461D01*
X231986140Y-85707461D02*
X231890902Y-85802700D01*
X231890902Y-85802700D02*
X231795664Y-85850319D01*
X231795664Y-85850319D02*
X231605188Y-85850319D01*
X231605188Y-85850319D02*
X231509950Y-85802700D01*
X231509950Y-85802700D02*
X231414712Y-85707461D01*
X231414712Y-85707461D02*
X231367093Y-85516985D01*
X231367093Y-85516985D02*
X231367093Y-85183652D01*
X231367093Y-85183652D02*
X231414712Y-84993176D01*
X231414712Y-84993176D02*
X231509950Y-84897938D01*
X231509950Y-84897938D02*
X231605188Y-84850319D01*
X230376588Y-87310938D02*
X230281350Y-87263319D01*
X230281350Y-87263319D02*
X230138493Y-87263319D01*
X230138493Y-87263319D02*
X229995636Y-87310938D01*
X229995636Y-87310938D02*
X229900398Y-87406176D01*
X229900398Y-87406176D02*
X229852779Y-87501414D01*
X229852779Y-87501414D02*
X229805160Y-87691890D01*
X229805160Y-87691890D02*
X229805160Y-87834747D01*
X229805160Y-87834747D02*
X229852779Y-88025223D01*
X229852779Y-88025223D02*
X229900398Y-88120461D01*
X229900398Y-88120461D02*
X229995636Y-88215700D01*
X229995636Y-88215700D02*
X230138493Y-88263319D01*
X230138493Y-88263319D02*
X230233731Y-88263319D01*
X230233731Y-88263319D02*
X230376588Y-88215700D01*
X230376588Y-88215700D02*
X230424207Y-88168080D01*
X230424207Y-88168080D02*
X230424207Y-87834747D01*
X230424207Y-87834747D02*
X230233731Y-87834747D01*
X230852779Y-88263319D02*
X230852779Y-87263319D01*
X230852779Y-87263319D02*
X231424207Y-88263319D01*
X231424207Y-88263319D02*
X231424207Y-87263319D01*
X231900398Y-88263319D02*
X231900398Y-87263319D01*
X231900398Y-87263319D02*
X232138493Y-87263319D01*
X232138493Y-87263319D02*
X232281350Y-87310938D01*
X232281350Y-87310938D02*
X232376588Y-87406176D01*
X232376588Y-87406176D02*
X232424207Y-87501414D01*
X232424207Y-87501414D02*
X232471826Y-87691890D01*
X232471826Y-87691890D02*
X232471826Y-87834747D01*
X232471826Y-87834747D02*
X232424207Y-88025223D01*
X232424207Y-88025223D02*
X232376588Y-88120461D01*
X232376588Y-88120461D02*
X232281350Y-88215700D01*
X232281350Y-88215700D02*
X232138493Y-88263319D01*
X232138493Y-88263319D02*
X231900398Y-88263319D01*
X237472779Y-72794719D02*
X237472779Y-71794719D01*
X237472779Y-71794719D02*
X237806112Y-72509004D01*
X237806112Y-72509004D02*
X238139445Y-71794719D01*
X238139445Y-71794719D02*
X238139445Y-72794719D01*
X238568017Y-72747100D02*
X238710874Y-72794719D01*
X238710874Y-72794719D02*
X238948969Y-72794719D01*
X238948969Y-72794719D02*
X239044207Y-72747100D01*
X239044207Y-72747100D02*
X239091826Y-72699480D01*
X239091826Y-72699480D02*
X239139445Y-72604242D01*
X239139445Y-72604242D02*
X239139445Y-72509004D01*
X239139445Y-72509004D02*
X239091826Y-72413766D01*
X239091826Y-72413766D02*
X239044207Y-72366147D01*
X239044207Y-72366147D02*
X238948969Y-72318528D01*
X238948969Y-72318528D02*
X238758493Y-72270909D01*
X238758493Y-72270909D02*
X238663255Y-72223290D01*
X238663255Y-72223290D02*
X238615636Y-72175671D01*
X238615636Y-72175671D02*
X238568017Y-72080433D01*
X238568017Y-72080433D02*
X238568017Y-71985195D01*
X238568017Y-71985195D02*
X238615636Y-71889957D01*
X238615636Y-71889957D02*
X238663255Y-71842338D01*
X238663255Y-71842338D02*
X238758493Y-71794719D01*
X238758493Y-71794719D02*
X238996588Y-71794719D01*
X238996588Y-71794719D02*
X239139445Y-71842338D01*
X240091826Y-72794719D02*
X239520398Y-72794719D01*
X239806112Y-72794719D02*
X239806112Y-71794719D01*
X239806112Y-71794719D02*
X239710874Y-71937576D01*
X239710874Y-71937576D02*
X239615636Y-72032814D01*
X239615636Y-72032814D02*
X239520398Y-72080433D01*
X237320379Y-75487119D02*
X237320379Y-74487119D01*
X237320379Y-74487119D02*
X237653712Y-75201404D01*
X237653712Y-75201404D02*
X237987045Y-74487119D01*
X237987045Y-74487119D02*
X237987045Y-75487119D01*
X238415617Y-75439500D02*
X238558474Y-75487119D01*
X238558474Y-75487119D02*
X238796569Y-75487119D01*
X238796569Y-75487119D02*
X238891807Y-75439500D01*
X238891807Y-75439500D02*
X238939426Y-75391880D01*
X238939426Y-75391880D02*
X238987045Y-75296642D01*
X238987045Y-75296642D02*
X238987045Y-75201404D01*
X238987045Y-75201404D02*
X238939426Y-75106166D01*
X238939426Y-75106166D02*
X238891807Y-75058547D01*
X238891807Y-75058547D02*
X238796569Y-75010928D01*
X238796569Y-75010928D02*
X238606093Y-74963309D01*
X238606093Y-74963309D02*
X238510855Y-74915690D01*
X238510855Y-74915690D02*
X238463236Y-74868071D01*
X238463236Y-74868071D02*
X238415617Y-74772833D01*
X238415617Y-74772833D02*
X238415617Y-74677595D01*
X238415617Y-74677595D02*
X238463236Y-74582357D01*
X238463236Y-74582357D02*
X238510855Y-74534738D01*
X238510855Y-74534738D02*
X238606093Y-74487119D01*
X238606093Y-74487119D02*
X238844188Y-74487119D01*
X238844188Y-74487119D02*
X238987045Y-74534738D01*
X239367998Y-74582357D02*
X239415617Y-74534738D01*
X239415617Y-74534738D02*
X239510855Y-74487119D01*
X239510855Y-74487119D02*
X239748950Y-74487119D01*
X239748950Y-74487119D02*
X239844188Y-74534738D01*
X239844188Y-74534738D02*
X239891807Y-74582357D01*
X239891807Y-74582357D02*
X239939426Y-74677595D01*
X239939426Y-74677595D02*
X239939426Y-74772833D01*
X239939426Y-74772833D02*
X239891807Y-74915690D01*
X239891807Y-74915690D02*
X239320379Y-75487119D01*
X239320379Y-75487119D02*
X239939426Y-75487119D01*
X229852779Y-83234119D02*
X229852779Y-82234119D01*
X229852779Y-82234119D02*
X230186112Y-82948404D01*
X230186112Y-82948404D02*
X230519445Y-82234119D01*
X230519445Y-82234119D02*
X230519445Y-83234119D01*
X231519445Y-83234119D02*
X230948017Y-83234119D01*
X231233731Y-83234119D02*
X231233731Y-82234119D01*
X231233731Y-82234119D02*
X231138493Y-82376976D01*
X231138493Y-82376976D02*
X231043255Y-82472214D01*
X231043255Y-82472214D02*
X230948017Y-82519833D01*
X232281350Y-82710309D02*
X232424207Y-82757928D01*
X232424207Y-82757928D02*
X232471826Y-82805547D01*
X232471826Y-82805547D02*
X232519445Y-82900785D01*
X232519445Y-82900785D02*
X232519445Y-83043642D01*
X232519445Y-83043642D02*
X232471826Y-83138880D01*
X232471826Y-83138880D02*
X232424207Y-83186500D01*
X232424207Y-83186500D02*
X232328969Y-83234119D01*
X232328969Y-83234119D02*
X231948017Y-83234119D01*
X231948017Y-83234119D02*
X231948017Y-82234119D01*
X231948017Y-82234119D02*
X232281350Y-82234119D01*
X232281350Y-82234119D02*
X232376588Y-82281738D01*
X232376588Y-82281738D02*
X232424207Y-82329357D01*
X232424207Y-82329357D02*
X232471826Y-82424595D01*
X232471826Y-82424595D02*
X232471826Y-82519833D01*
X232471826Y-82519833D02*
X232424207Y-82615071D01*
X232424207Y-82615071D02*
X232376588Y-82662690D01*
X232376588Y-82662690D02*
X232281350Y-82710309D01*
X232281350Y-82710309D02*
X231948017Y-82710309D01*
D13*
%TO.C,Y1*%
X71693324Y-99146777D02*
X73673223Y-101126676D01*
X73673223Y-101126676D02*
X76006676Y-98793223D01*
%TO.C,C20*%
X120930000Y-79590581D02*
X120930000Y-79309419D01*
X121950000Y-79590581D02*
X121950000Y-79309419D01*
%TO.C,R20*%
X76592770Y-87141697D02*
X76928303Y-87477230D01*
X77331697Y-86402770D02*
X77667230Y-86738303D01*
%TO.C,C18*%
X122000581Y-98770000D02*
X121719419Y-98770000D01*
X122000581Y-99790000D02*
X121719419Y-99790000D01*
%TO.C,D6*%
X93181259Y-92059295D02*
X94220706Y-93098742D01*
X94220706Y-93098742D02*
X95836445Y-91483003D01*
X94796998Y-90443556D02*
X93181259Y-92059295D01*
%TO.C,D16*%
X124160000Y-92950000D02*
X124160000Y-94100000D01*
X131460000Y-92950000D02*
X124160000Y-92950000D01*
X131460000Y-98450000D02*
X124160000Y-98450000D01*
%TO.C,TP5*%
X211440000Y-66840000D02*
G75*
G02*
X210040000Y-66840000I-700000J0D01*
G01*
X210040000Y-66840000D02*
G75*
G02*
X211440000Y-66840000I700000J0D01*
G01*
%TO.C,D19*%
X146210000Y-67220000D02*
X146210000Y-68370000D01*
X153510000Y-67220000D02*
X146210000Y-67220000D01*
X153510000Y-72720000D02*
X146210000Y-72720000D01*
D14*
%TO.C,J2*%
X74420001Y-61705000D02*
X74420001Y-67035000D01*
D10*
%TO.C,Q1*%
X84890000Y-64890000D02*
X85490000Y-64890000D01*
X84890000Y-67790000D02*
X84890000Y-64890000D01*
X85490000Y-64890000D02*
X85490000Y-67790000D01*
X85490000Y-67790000D02*
X84890000Y-67790000D01*
X86840000Y-67840000D02*
X85840000Y-67840000D01*
D13*
%TO.C,R19*%
X81248415Y-109410890D02*
X81583948Y-109075357D01*
X81987342Y-110149817D02*
X82322875Y-109814284D01*
%TO.C,R1*%
X74602770Y-88751697D02*
X74938303Y-89087230D01*
X75341697Y-88012770D02*
X75677230Y-88348303D01*
D14*
%TO.C,SW4*%
X162090000Y-80590000D02*
X168950000Y-80590000D01*
X162090000Y-93290000D02*
X162090000Y-80590000D01*
D10*
X165520000Y-93840000D02*
X165520000Y-93840000D01*
X165720000Y-93840000D02*
X165720000Y-93840000D01*
D14*
X168950000Y-80590000D02*
X168950000Y-93290000D01*
X168950000Y-93290000D02*
X162090000Y-93290000D01*
D10*
X165520000Y-93840000D02*
G75*
G02*
X165720000Y-93840000I100000J0D01*
G01*
X165720000Y-93840000D02*
G75*
G02*
X165520000Y-93840000I-100000J0D01*
G01*
D13*
%TO.C,C3*%
X75466756Y-100063214D02*
X75267945Y-100262025D01*
X76188005Y-100784463D02*
X75989194Y-100983274D01*
%TO.C,TP2*%
X250160000Y-90070000D02*
G75*
G02*
X247760000Y-90070000I-1200000J0D01*
G01*
X247760000Y-90070000D02*
G75*
G02*
X250160000Y-90070000I1200000J0D01*
G01*
%TO.C,TP1*%
X93560000Y-66460000D02*
G75*
G02*
X92160000Y-66460000I-700000J0D01*
G01*
X92160000Y-66460000D02*
G75*
G02*
X93560000Y-66460000I700000J0D01*
G01*
%TO.C,D14*%
X72320000Y-113600000D02*
X79620000Y-113600000D01*
X72320000Y-119100000D02*
X79620000Y-119100000D01*
X79620000Y-119100000D02*
X79620000Y-117950000D01*
%TO.C,D1*%
X85182499Y-77495000D02*
X87467499Y-77495000D01*
X87467499Y-76025000D02*
X85182499Y-76025000D01*
X87467499Y-77495000D02*
X87467499Y-76025000D01*
%TO.C,D21*%
X177750000Y-67330000D02*
X177750000Y-68480000D01*
X185050000Y-67330000D02*
X177750000Y-67330000D01*
X185050000Y-72830000D02*
X177750000Y-72830000D01*
%TO.C,C16*%
X84405065Y-108181106D02*
X84603876Y-107982295D01*
X85126314Y-108902355D02*
X85325125Y-108703544D01*
D14*
%TO.C,SW3*%
X118510000Y-110760000D02*
X120710000Y-110760000D01*
X118510000Y-114860000D02*
X118510000Y-110760000D01*
X118510000Y-123960000D02*
X118510000Y-119860000D01*
X121210000Y-123960000D02*
X118510000Y-123960000D01*
X128210000Y-123960000D02*
X130910000Y-123960000D01*
X128710000Y-110760000D02*
X130910000Y-110760000D01*
X130910000Y-110760000D02*
X130910000Y-114860000D01*
X130910000Y-123960000D02*
X130910000Y-119860000D01*
D13*
%TO.C,D10*%
X85141259Y-86860706D02*
X86756998Y-88476445D01*
X86180706Y-85821259D02*
X85141259Y-86860706D01*
X87796445Y-87436998D02*
X86180706Y-85821259D01*
%TO.C,C6*%
X77558781Y-102159970D02*
X77359970Y-102358781D01*
X78280030Y-102881219D02*
X78081219Y-103080030D01*
D10*
%TO.C,U2*%
X82687208Y-106278579D02*
X83818579Y-105147208D01*
X83818579Y-105147208D02*
X85232792Y-106561421D01*
X84101421Y-107692792D02*
X82687208Y-106278579D01*
X85232792Y-106561421D02*
X84101421Y-107692792D01*
X86258097Y-105889670D02*
X85657056Y-106490711D01*
D13*
%TO.C,C7*%
X89849970Y-92938781D02*
X90048781Y-92739970D01*
X90571219Y-93660030D02*
X90770030Y-93461219D01*
%TO.C,C23*%
X167665581Y-73130000D02*
X167384419Y-73130000D01*
X167665581Y-74150000D02*
X167384419Y-74150000D01*
%TO.C,C17*%
X73629419Y-112270000D02*
X73910581Y-112270000D01*
X73629419Y-113290000D02*
X73910581Y-113290000D01*
%TO.C,R18*%
X86647176Y-104082840D02*
X86982709Y-103747307D01*
X87386103Y-104821767D02*
X87721636Y-104486234D01*
%TO.C,U3*%
X145151600Y-107079100D02*
X184534600Y-107079100D01*
X184534600Y-129808100D01*
X145151600Y-129808100D01*
X145151600Y-107079100D01*
%TO.C,D15*%
X116110000Y-93000000D02*
X116110000Y-94150000D01*
X123410000Y-93000000D02*
X116110000Y-93000000D01*
X123410000Y-98500000D02*
X116110000Y-98500000D01*
%TO.C,D20*%
X161670000Y-67320000D02*
X161670000Y-68470000D01*
X168970000Y-67320000D02*
X161670000Y-67320000D01*
X168970000Y-72820000D02*
X161670000Y-72820000D01*
D14*
%TO.C,SW2*%
X146410000Y-80740000D02*
X153270000Y-80740000D01*
X146410000Y-93440000D02*
X146410000Y-80740000D01*
D10*
X149840000Y-93990000D02*
X149840000Y-93990000D01*
X150040000Y-93990000D02*
X150040000Y-93990000D01*
D14*
X153270000Y-80740000D02*
X153270000Y-93440000D01*
X153270000Y-93440000D02*
X146410000Y-93440000D01*
D10*
X149840000Y-93990000D02*
G75*
G02*
X150040000Y-93990000I100000J0D01*
G01*
X150040000Y-93990000D02*
G75*
G02*
X149840000Y-93990000I-100000J0D01*
G01*
D13*
%TO.C,C2*%
X71989421Y-96625880D02*
X71790610Y-96824691D01*
X72710670Y-97347129D02*
X72511859Y-97545940D01*
%TO.C,D9*%
X80391259Y-102429295D02*
X81430706Y-103468742D01*
X81430706Y-103468742D02*
X83046445Y-101853003D01*
X82006998Y-100813556D02*
X80391259Y-102429295D01*
%TO.C,D13*%
X73400223Y-84239670D02*
X75015962Y-85855409D01*
X74439670Y-83200223D02*
X73400223Y-84239670D01*
X76055409Y-84815962D02*
X74439670Y-83200223D01*
%TO.C,D2*%
X81317499Y-76025000D02*
X81317499Y-77495000D01*
X81317499Y-77495000D02*
X83602499Y-77495000D01*
X83602499Y-76025000D02*
X81317499Y-76025000D01*
%TO.C,C19*%
X130060581Y-98800000D02*
X129779419Y-98800000D01*
X130060581Y-99820000D02*
X129779419Y-99820000D01*
%TO.C,U1*%
X79181605Y-93897297D02*
X79057862Y-94021041D01*
X79181605Y-94569049D02*
X79015435Y-94402879D01*
X82200951Y-90877951D02*
X82536827Y-90542076D01*
X82536827Y-90542076D02*
X82872703Y-90877951D01*
X82536827Y-97924270D02*
X82200951Y-97588395D01*
X82872703Y-97588395D02*
X82536827Y-97924270D01*
X85892049Y-94569049D02*
X86227924Y-94233173D01*
X86227924Y-94233173D02*
X85892049Y-93897297D01*
X78845730Y-94233173D02*
X78442679Y-94169533D01*
X78782090Y-93830122D01*
X78845730Y-94233173D01*
G36*
X78845730Y-94233173D02*
G01*
X78442679Y-94169533D01*
X78782090Y-93830122D01*
X78845730Y-94233173D01*
G37*
%TO.C,C1*%
X76518781Y-101119970D02*
X76319970Y-101318781D01*
X77240030Y-101841219D02*
X77041219Y-102040030D01*
%TO.C,TP6*%
X213380000Y-101450000D02*
G75*
G02*
X211980000Y-101450000I-700000J0D01*
G01*
X211980000Y-101450000D02*
G75*
G02*
X213380000Y-101450000I700000J0D01*
G01*
%TO.C,D12*%
X80184220Y-108353766D02*
X80519753Y-108018233D01*
X80923147Y-109092693D02*
X81258680Y-108757160D01*
D14*
%TO.C,SW1*%
X177900000Y-80680000D02*
X184760000Y-80680000D01*
X177900000Y-93380000D02*
X177900000Y-80680000D01*
D10*
X181330000Y-93930000D02*
X181330000Y-93930000D01*
X181530000Y-93930000D02*
X181530000Y-93930000D01*
D14*
X184760000Y-80680000D02*
X184760000Y-93380000D01*
X184760000Y-93380000D02*
X177900000Y-93380000D01*
D10*
X181330000Y-93930000D02*
G75*
G02*
X181530000Y-93930000I100000J0D01*
G01*
X181530000Y-93930000D02*
G75*
G02*
X181330000Y-93930000I-100000J0D01*
G01*
D13*
%TO.C,C4*%
X88809970Y-91888781D02*
X89008781Y-91689970D01*
X89531219Y-92610030D02*
X89730030Y-92411219D01*
%TO.C,C5*%
X70938781Y-95579970D02*
X70739970Y-95778781D01*
X71660030Y-96301219D02*
X71461219Y-96500030D01*
%TO.C,D17*%
X120220000Y-81120000D02*
X127520000Y-81120000D01*
X120220000Y-86620000D02*
X127520000Y-86620000D01*
X127520000Y-86620000D02*
X127520000Y-85470000D01*
%TO.C,TP3*%
X103350000Y-63870000D02*
G75*
G02*
X100950000Y-63870000I-1200000J0D01*
G01*
X100950000Y-63870000D02*
G75*
G02*
X103350000Y-63870000I1200000J0D01*
G01*
%TO.C,D18*%
X120220000Y-67410000D02*
X120220000Y-68560000D01*
X127520000Y-67410000D02*
X120220000Y-67410000D01*
X127520000Y-72910000D02*
X120220000Y-72910000D01*
%TO.C,C22*%
X152110581Y-73080000D02*
X151829419Y-73080000D01*
X152110581Y-74100000D02*
X151829419Y-74100000D01*
%TO.C,D11*%
X85943262Y-102693719D02*
X85607729Y-103029252D01*
X86682189Y-103432646D02*
X86346656Y-103768179D01*
D10*
%TO.C,RV1*%
X202570000Y-108655000D02*
X214570000Y-108655000D01*
X202570000Y-112155000D02*
X202570000Y-108655000D01*
X202570000Y-118155000D02*
X202570000Y-124555000D01*
X202570000Y-124555000D02*
X214570000Y-124555000D01*
D14*
X204820000Y-127355000D02*
X204820000Y-127355000D01*
X204820000Y-127455000D02*
X204820000Y-127455000D01*
D10*
X214570000Y-108655000D02*
X214570000Y-112155000D01*
X214570000Y-124555000D02*
X214570000Y-118155000D01*
D14*
X204820000Y-127355000D02*
G75*
G02*
X204820000Y-127455000I0J-50000D01*
G01*
X204820000Y-127455000D02*
G75*
G02*
X204820000Y-127355000I0J50000D01*
G01*
D13*
%TO.C,J1*%
X87890000Y-63874999D02*
X87890000Y-61275000D01*
X90550000Y-61275000D02*
X87890000Y-61275000D01*
X90550000Y-63874999D02*
X87890000Y-63874999D01*
X90550000Y-63874999D02*
X90550000Y-61275000D01*
X90550000Y-65145000D02*
X90550000Y-66475000D01*
X90550000Y-66475000D02*
X89220000Y-66475000D01*
%TO.C,TP4*%
X137500000Y-104720000D02*
G75*
G02*
X136100000Y-104720000I-700000J0D01*
G01*
X136100000Y-104720000D02*
G75*
G02*
X137500000Y-104720000I700000J0D01*
G01*
%TO.C,S1*%
X101308575Y-116934999D02*
G75*
G02*
X86264825Y-116934999I-7521875J0D01*
G01*
X86264825Y-116934999D02*
G75*
G02*
X101308575Y-116934999I7521875J0D01*
G01*
%TO.C,C21*%
X126180581Y-73240000D02*
X125899419Y-73240000D01*
X126180581Y-74260000D02*
X125899419Y-74260000D01*
%TO.C,C24*%
X183730581Y-73100000D02*
X183449419Y-73100000D01*
X183730581Y-74120000D02*
X183449419Y-74120000D01*
%TD*%
M02*
