%TF.GenerationSoftware,KiCad,Pcbnew,8.0.2*%
%TF.CreationDate,2024-07-24T19:31:50-06:00*%
%TF.ProjectId,Animation Platter_V1,416e696d-6174-4696-9f6e-20506c617474,rev?*%
%TF.SameCoordinates,Original*%
%TF.FileFunction,Soldermask,Top*%
%TF.FilePolarity,Negative*%
%FSLAX46Y46*%
G04 Gerber Fmt 4.6, Leading zero omitted, Abs format (unit mm)*
G04 Created by KiCad (PCBNEW 8.0.2) date 2024-07-24 19:31:50*
%MOMM*%
%LPD*%
G01*
G04 APERTURE LIST*
G04 Aperture macros list*
%AMRoundRect*
0 Rectangle with rounded corners*
0 $1 Rounding radius*
0 $2 $3 $4 $5 $6 $7 $8 $9 X,Y pos of 4 corners*
0 Add a 4 corners polygon primitive as box body*
4,1,4,$2,$3,$4,$5,$6,$7,$8,$9,$2,$3,0*
0 Add four circle primitives for the rounded corners*
1,1,$1+$1,$2,$3*
1,1,$1+$1,$4,$5*
1,1,$1+$1,$6,$7*
1,1,$1+$1,$8,$9*
0 Add four rect primitives between the rounded corners*
20,1,$1+$1,$2,$3,$4,$5,0*
20,1,$1+$1,$4,$5,$6,$7,0*
20,1,$1+$1,$6,$7,$8,$9,0*
20,1,$1+$1,$8,$9,$2,$3,0*%
%AMRotRect*
0 Rectangle, with rotation*
0 The origin of the aperture is its center*
0 $1 length*
0 $2 width*
0 $3 Rotation angle, in degrees counterclockwise*
0 Add horizontal line*
21,1,$1,$2,0,0,$3*%
G04 Aperture macros list end*
%ADD10C,0.150000*%
%ADD11C,0.200000*%
%ADD12RotRect,1.150000X1.000000X45.000000*%
%ADD13RoundRect,0.225000X0.250000X-0.225000X0.250000X0.225000X-0.250000X0.225000X-0.250000X-0.225000X0*%
%ADD14RoundRect,0.200000X-0.335876X-0.053033X-0.053033X-0.335876X0.335876X0.053033X0.053033X0.335876X0*%
%ADD15RoundRect,0.225000X0.225000X0.250000X-0.225000X0.250000X-0.225000X-0.250000X0.225000X-0.250000X0*%
%ADD16RoundRect,0.218750X0.026517X-0.335876X0.335876X-0.026517X-0.026517X0.335876X-0.335876X0.026517X0*%
%ADD17R,1.500000X0.900000*%
%ADD18C,1.000000*%
%ADD19R,2.000000X1.000000*%
%ADD20R,1.000000X0.600000*%
%ADD21RoundRect,0.200000X0.053033X-0.335876X0.335876X-0.053033X-0.053033X0.335876X-0.335876X0.053033X0*%
%ADD22C,3.200000*%
%ADD23C,2.775000*%
%ADD24RoundRect,0.225000X-0.017678X0.335876X-0.335876X0.017678X0.017678X-0.335876X0.335876X-0.017678X0*%
%ADD25C,2.000000*%
%ADD26RoundRect,0.218750X0.218750X0.256250X-0.218750X0.256250X-0.218750X-0.256250X0.218750X-0.256250X0*%
%ADD27RoundRect,0.225000X0.017678X-0.335876X0.335876X-0.017678X-0.017678X0.335876X-0.335876X0.017678X0*%
%ADD28C,1.800000*%
%ADD29C,4.667000*%
%ADD30RoundRect,0.218750X-0.335876X-0.026517X-0.026517X-0.335876X0.335876X0.026517X0.026517X0.335876X0*%
%ADD31RotRect,0.300000X0.850000X315.000000*%
%ADD32RoundRect,0.225000X-0.225000X-0.250000X0.225000X-0.250000X0.225000X0.250000X-0.225000X0.250000X0*%
%ADD33C,1.524000*%
%ADD34RoundRect,0.218750X-0.218750X-0.256250X0.218750X-0.256250X0.218750X0.256250X-0.218750X0.256250X0*%
%ADD35RoundRect,0.062500X-0.220971X-0.309359X0.309359X0.220971X0.220971X0.309359X-0.309359X-0.220971X0*%
%ADD36RoundRect,0.062500X0.220971X-0.309359X0.309359X-0.220971X-0.220971X0.309359X-0.309359X0.220971X0*%
%ADD37RotRect,3.450000X3.450000X45.000000*%
%ADD38RoundRect,0.200000X-0.053033X0.335876X-0.335876X0.053033X0.053033X-0.335876X0.335876X-0.053033X0*%
%ADD39R,1.500000X1.500000*%
%ADD40C,1.500000*%
%ADD41C,4.455000*%
%ADD42R,1.700000X1.700000*%
%ADD43O,1.700000X1.700000*%
%ADD44C,12.000000*%
%ADD45RoundRect,0.425000X-0.425000X0.425000X-0.425000X-0.425000X0.425000X-0.425000X0.425000X0.425000X0*%
%ADD46C,1.700000*%
%ADD47R,1.300000X1.300000*%
%ADD48C,1.300000*%
%ADD49RoundRect,0.425000X0.425000X-0.425000X0.425000X0.425000X-0.425000X0.425000X-0.425000X-0.425000X0*%
%ADD50C,4.800000*%
G04 APERTURE END LIST*
D10*
X81531133Y-66898445D02*
X81531133Y-67660350D01*
X81150180Y-67231779D02*
X81912085Y-67327017D01*
D11*
X218771816Y-128691504D02*
X219248006Y-128691504D01*
X218640863Y-128977219D02*
X219099197Y-127977219D01*
X219099197Y-127977219D02*
X219307530Y-128977219D01*
X219724197Y-128310552D02*
X219640863Y-128977219D01*
X219712292Y-128405790D02*
X219765863Y-128358171D01*
X219765863Y-128358171D02*
X219867054Y-128310552D01*
X219867054Y-128310552D02*
X220009911Y-128310552D01*
X220009911Y-128310552D02*
X220099197Y-128358171D01*
X220099197Y-128358171D02*
X220134911Y-128453409D01*
X220134911Y-128453409D02*
X220069435Y-128977219D01*
X220545625Y-128977219D02*
X220628959Y-128310552D01*
X220670625Y-127977219D02*
X220617054Y-128024838D01*
X220617054Y-128024838D02*
X220658721Y-128072457D01*
X220658721Y-128072457D02*
X220712292Y-128024838D01*
X220712292Y-128024838D02*
X220670625Y-127977219D01*
X220670625Y-127977219D02*
X220658721Y-128072457D01*
X221021815Y-128977219D02*
X221105149Y-128310552D01*
X221093244Y-128405790D02*
X221146815Y-128358171D01*
X221146815Y-128358171D02*
X221248006Y-128310552D01*
X221248006Y-128310552D02*
X221390863Y-128310552D01*
X221390863Y-128310552D02*
X221480149Y-128358171D01*
X221480149Y-128358171D02*
X221515863Y-128453409D01*
X221515863Y-128453409D02*
X221450387Y-128977219D01*
X221515863Y-128453409D02*
X221575387Y-128358171D01*
X221575387Y-128358171D02*
X221676577Y-128310552D01*
X221676577Y-128310552D02*
X221819434Y-128310552D01*
X221819434Y-128310552D02*
X221908720Y-128358171D01*
X221908720Y-128358171D02*
X221944434Y-128453409D01*
X221944434Y-128453409D02*
X221878958Y-128977219D01*
X222783720Y-128977219D02*
X222849196Y-128453409D01*
X222849196Y-128453409D02*
X222813482Y-128358171D01*
X222813482Y-128358171D02*
X222724196Y-128310552D01*
X222724196Y-128310552D02*
X222533720Y-128310552D01*
X222533720Y-128310552D02*
X222432529Y-128358171D01*
X222789672Y-128929600D02*
X222688482Y-128977219D01*
X222688482Y-128977219D02*
X222450386Y-128977219D01*
X222450386Y-128977219D02*
X222361101Y-128929600D01*
X222361101Y-128929600D02*
X222325386Y-128834361D01*
X222325386Y-128834361D02*
X222337291Y-128739123D01*
X222337291Y-128739123D02*
X222396815Y-128643885D01*
X222396815Y-128643885D02*
X222498006Y-128596266D01*
X222498006Y-128596266D02*
X222736101Y-128596266D01*
X222736101Y-128596266D02*
X222837291Y-128548647D01*
X223200387Y-128310552D02*
X223581339Y-128310552D01*
X223384910Y-127977219D02*
X223277768Y-128834361D01*
X223277768Y-128834361D02*
X223313482Y-128929600D01*
X223313482Y-128929600D02*
X223402768Y-128977219D01*
X223402768Y-128977219D02*
X223498006Y-128977219D01*
X223831339Y-128977219D02*
X223914673Y-128310552D01*
X223956339Y-127977219D02*
X223902768Y-128024838D01*
X223902768Y-128024838D02*
X223944435Y-128072457D01*
X223944435Y-128072457D02*
X223998006Y-128024838D01*
X223998006Y-128024838D02*
X223956339Y-127977219D01*
X223956339Y-127977219D02*
X223944435Y-128072457D01*
X224450387Y-128977219D02*
X224361101Y-128929600D01*
X224361101Y-128929600D02*
X224319434Y-128881980D01*
X224319434Y-128881980D02*
X224283720Y-128786742D01*
X224283720Y-128786742D02*
X224319434Y-128501028D01*
X224319434Y-128501028D02*
X224378958Y-128405790D01*
X224378958Y-128405790D02*
X224432529Y-128358171D01*
X224432529Y-128358171D02*
X224533720Y-128310552D01*
X224533720Y-128310552D02*
X224676577Y-128310552D01*
X224676577Y-128310552D02*
X224765863Y-128358171D01*
X224765863Y-128358171D02*
X224807529Y-128405790D01*
X224807529Y-128405790D02*
X224843244Y-128501028D01*
X224843244Y-128501028D02*
X224807529Y-128786742D01*
X224807529Y-128786742D02*
X224748006Y-128881980D01*
X224748006Y-128881980D02*
X224694434Y-128929600D01*
X224694434Y-128929600D02*
X224593244Y-128977219D01*
X224593244Y-128977219D02*
X224450387Y-128977219D01*
X225295625Y-128310552D02*
X225212291Y-128977219D01*
X225283720Y-128405790D02*
X225337291Y-128358171D01*
X225337291Y-128358171D02*
X225438482Y-128310552D01*
X225438482Y-128310552D02*
X225581339Y-128310552D01*
X225581339Y-128310552D02*
X225670625Y-128358171D01*
X225670625Y-128358171D02*
X225706339Y-128453409D01*
X225706339Y-128453409D02*
X225640863Y-128977219D01*
X226878958Y-128977219D02*
X227003958Y-127977219D01*
X227003958Y-127977219D02*
X227384911Y-127977219D01*
X227384911Y-127977219D02*
X227474196Y-128024838D01*
X227474196Y-128024838D02*
X227515863Y-128072457D01*
X227515863Y-128072457D02*
X227551577Y-128167695D01*
X227551577Y-128167695D02*
X227533720Y-128310552D01*
X227533720Y-128310552D02*
X227474196Y-128405790D01*
X227474196Y-128405790D02*
X227420625Y-128453409D01*
X227420625Y-128453409D02*
X227319435Y-128501028D01*
X227319435Y-128501028D02*
X226938482Y-128501028D01*
X228021816Y-128977219D02*
X227932530Y-128929600D01*
X227932530Y-128929600D02*
X227896816Y-128834361D01*
X227896816Y-128834361D02*
X228003958Y-127977219D01*
X228831340Y-128977219D02*
X228896816Y-128453409D01*
X228896816Y-128453409D02*
X228861102Y-128358171D01*
X228861102Y-128358171D02*
X228771816Y-128310552D01*
X228771816Y-128310552D02*
X228581340Y-128310552D01*
X228581340Y-128310552D02*
X228480149Y-128358171D01*
X228837292Y-128929600D02*
X228736102Y-128977219D01*
X228736102Y-128977219D02*
X228498006Y-128977219D01*
X228498006Y-128977219D02*
X228408721Y-128929600D01*
X228408721Y-128929600D02*
X228373006Y-128834361D01*
X228373006Y-128834361D02*
X228384911Y-128739123D01*
X228384911Y-128739123D02*
X228444435Y-128643885D01*
X228444435Y-128643885D02*
X228545626Y-128596266D01*
X228545626Y-128596266D02*
X228783721Y-128596266D01*
X228783721Y-128596266D02*
X228884911Y-128548647D01*
X229248007Y-128310552D02*
X229628959Y-128310552D01*
X229432530Y-127977219D02*
X229325388Y-128834361D01*
X229325388Y-128834361D02*
X229361102Y-128929600D01*
X229361102Y-128929600D02*
X229450388Y-128977219D01*
X229450388Y-128977219D02*
X229545626Y-128977219D01*
X229819436Y-128310552D02*
X230200388Y-128310552D01*
X230003959Y-127977219D02*
X229896817Y-128834361D01*
X229896817Y-128834361D02*
X229932531Y-128929600D01*
X229932531Y-128929600D02*
X230021817Y-128977219D01*
X230021817Y-128977219D02*
X230117055Y-128977219D01*
X230837293Y-128929600D02*
X230736103Y-128977219D01*
X230736103Y-128977219D02*
X230545626Y-128977219D01*
X230545626Y-128977219D02*
X230456341Y-128929600D01*
X230456341Y-128929600D02*
X230420626Y-128834361D01*
X230420626Y-128834361D02*
X230468246Y-128453409D01*
X230468246Y-128453409D02*
X230527769Y-128358171D01*
X230527769Y-128358171D02*
X230628960Y-128310552D01*
X230628960Y-128310552D02*
X230819436Y-128310552D01*
X230819436Y-128310552D02*
X230908722Y-128358171D01*
X230908722Y-128358171D02*
X230944436Y-128453409D01*
X230944436Y-128453409D02*
X230932531Y-128548647D01*
X230932531Y-128548647D02*
X230444436Y-128643885D01*
X231307531Y-128977219D02*
X231390865Y-128310552D01*
X231367055Y-128501028D02*
X231426579Y-128405790D01*
X231426579Y-128405790D02*
X231480150Y-128358171D01*
X231480150Y-128358171D02*
X231581341Y-128310552D01*
X231581341Y-128310552D02*
X231676579Y-128310552D01*
X231676579Y-129072457D02*
X232438484Y-129072457D01*
X232670627Y-127977219D02*
X232878961Y-128977219D01*
X232878961Y-128977219D02*
X233337294Y-127977219D01*
X234069437Y-128977219D02*
X233498008Y-128977219D01*
X233783723Y-128977219D02*
X233908723Y-127977219D01*
X233908723Y-127977219D02*
X233795627Y-128120076D01*
X233795627Y-128120076D02*
X233688485Y-128215314D01*
X233688485Y-128215314D02*
X233587294Y-128262933D01*
X234509913Y-128881980D02*
X234551580Y-128929600D01*
X234551580Y-128929600D02*
X234498008Y-128977219D01*
X234498008Y-128977219D02*
X234456342Y-128929600D01*
X234456342Y-128929600D02*
X234509913Y-128881980D01*
X234509913Y-128881980D02*
X234498008Y-128977219D01*
X235289675Y-127977219D02*
X235384913Y-127977219D01*
X235384913Y-127977219D02*
X235474198Y-128024838D01*
X235474198Y-128024838D02*
X235515865Y-128072457D01*
X235515865Y-128072457D02*
X235551579Y-128167695D01*
X235551579Y-128167695D02*
X235575389Y-128358171D01*
X235575389Y-128358171D02*
X235545627Y-128596266D01*
X235545627Y-128596266D02*
X235474198Y-128786742D01*
X235474198Y-128786742D02*
X235414675Y-128881980D01*
X235414675Y-128881980D02*
X235361103Y-128929600D01*
X235361103Y-128929600D02*
X235259913Y-128977219D01*
X235259913Y-128977219D02*
X235164675Y-128977219D01*
X235164675Y-128977219D02*
X235075389Y-128929600D01*
X235075389Y-128929600D02*
X235033722Y-128881980D01*
X235033722Y-128881980D02*
X234998008Y-128786742D01*
X234998008Y-128786742D02*
X234974198Y-128596266D01*
X234974198Y-128596266D02*
X235003960Y-128358171D01*
X235003960Y-128358171D02*
X235075389Y-128167695D01*
X235075389Y-128167695D02*
X235134913Y-128072457D01*
X235134913Y-128072457D02*
X235188484Y-128024838D01*
X235188484Y-128024838D02*
X235289675Y-127977219D01*
X237099199Y-127977219D02*
X237009913Y-128691504D01*
X237009913Y-128691504D02*
X236944437Y-128834361D01*
X236944437Y-128834361D02*
X236837294Y-128929600D01*
X236837294Y-128929600D02*
X236688484Y-128977219D01*
X236688484Y-128977219D02*
X236593246Y-128977219D01*
X237962294Y-128310552D02*
X237878961Y-128977219D01*
X237533723Y-128310552D02*
X237468247Y-128834361D01*
X237468247Y-128834361D02*
X237503961Y-128929600D01*
X237503961Y-128929600D02*
X237593247Y-128977219D01*
X237593247Y-128977219D02*
X237736104Y-128977219D01*
X237736104Y-128977219D02*
X237837294Y-128929600D01*
X237837294Y-128929600D02*
X237890866Y-128881980D01*
X238498009Y-128977219D02*
X238408723Y-128929600D01*
X238408723Y-128929600D02*
X238373009Y-128834361D01*
X238373009Y-128834361D02*
X238480151Y-127977219D01*
X238867057Y-128310552D02*
X239021819Y-128977219D01*
X239343247Y-128310552D02*
X239021819Y-128977219D01*
X239021819Y-128977219D02*
X238896819Y-129215314D01*
X238896819Y-129215314D02*
X238843247Y-129262933D01*
X238843247Y-129262933D02*
X238742057Y-129310552D01*
X240468248Y-128072457D02*
X240521819Y-128024838D01*
X240521819Y-128024838D02*
X240623009Y-127977219D01*
X240623009Y-127977219D02*
X240861105Y-127977219D01*
X240861105Y-127977219D02*
X240950390Y-128024838D01*
X240950390Y-128024838D02*
X240992057Y-128072457D01*
X240992057Y-128072457D02*
X241027771Y-128167695D01*
X241027771Y-128167695D02*
X241015867Y-128262933D01*
X241015867Y-128262933D02*
X240950390Y-128405790D01*
X240950390Y-128405790D02*
X240307533Y-128977219D01*
X240307533Y-128977219D02*
X240926581Y-128977219D01*
X241670629Y-127977219D02*
X241765867Y-127977219D01*
X241765867Y-127977219D02*
X241855152Y-128024838D01*
X241855152Y-128024838D02*
X241896819Y-128072457D01*
X241896819Y-128072457D02*
X241932533Y-128167695D01*
X241932533Y-128167695D02*
X241956343Y-128358171D01*
X241956343Y-128358171D02*
X241926581Y-128596266D01*
X241926581Y-128596266D02*
X241855152Y-128786742D01*
X241855152Y-128786742D02*
X241795629Y-128881980D01*
X241795629Y-128881980D02*
X241742057Y-128929600D01*
X241742057Y-128929600D02*
X241640867Y-128977219D01*
X241640867Y-128977219D02*
X241545629Y-128977219D01*
X241545629Y-128977219D02*
X241456343Y-128929600D01*
X241456343Y-128929600D02*
X241414676Y-128881980D01*
X241414676Y-128881980D02*
X241378962Y-128786742D01*
X241378962Y-128786742D02*
X241355152Y-128596266D01*
X241355152Y-128596266D02*
X241384914Y-128358171D01*
X241384914Y-128358171D02*
X241456343Y-128167695D01*
X241456343Y-128167695D02*
X241515867Y-128072457D01*
X241515867Y-128072457D02*
X241569438Y-128024838D01*
X241569438Y-128024838D02*
X241670629Y-127977219D01*
X242373010Y-128072457D02*
X242426581Y-128024838D01*
X242426581Y-128024838D02*
X242527771Y-127977219D01*
X242527771Y-127977219D02*
X242765867Y-127977219D01*
X242765867Y-127977219D02*
X242855152Y-128024838D01*
X242855152Y-128024838D02*
X242896819Y-128072457D01*
X242896819Y-128072457D02*
X242932533Y-128167695D01*
X242932533Y-128167695D02*
X242920629Y-128262933D01*
X242920629Y-128262933D02*
X242855152Y-128405790D01*
X242855152Y-128405790D02*
X242212295Y-128977219D01*
X242212295Y-128977219D02*
X242831343Y-128977219D01*
X243771819Y-128310552D02*
X243688486Y-128977219D01*
X243581343Y-127929600D02*
X243253962Y-128643885D01*
X243253962Y-128643885D02*
X243873010Y-128643885D01*
D10*
%TO.C,REF\u002A\u002A*%
X219084900Y-127041400D02*
X221710100Y-127028600D01*
X219085100Y-124378600D02*
X219084900Y-127041400D01*
X219085100Y-124378600D02*
X221710300Y-124365800D01*
X219885000Y-124135000D02*
X219885200Y-123922200D01*
X219885100Y-126578600D02*
X219084900Y-127041400D01*
X219885100Y-126578600D02*
X219885100Y-124628600D01*
X219885100Y-126578600D02*
X221460100Y-126578600D01*
X219885300Y-123915800D02*
X219085100Y-124378600D01*
X219885300Y-123915800D02*
X222510500Y-123903000D01*
X220542550Y-126173725D02*
X220527650Y-124733475D01*
X221027650Y-126183475D02*
X220535100Y-125453600D01*
X221077650Y-124758475D02*
X220535100Y-125453600D01*
X221710300Y-124365800D02*
X221710100Y-127028600D01*
X222010100Y-126578600D02*
X222510300Y-126565800D01*
X222510300Y-126565800D02*
X221710100Y-127028600D01*
X222510500Y-123903000D02*
X221710300Y-124365800D01*
X222510500Y-123903000D02*
X222510300Y-126565800D01*
%TD*%
D12*
%TO.C,Y1*%
X73726256Y-100083693D03*
X74963693Y-98846256D03*
X73973744Y-97856307D03*
X72736307Y-99093744D03*
%TD*%
D13*
%TO.C,C20*%
X121440000Y-80225000D03*
X121440000Y-78675000D03*
%TD*%
D14*
%TO.C,R20*%
X76546637Y-86356637D03*
X77713363Y-87523363D03*
%TD*%
D15*
%TO.C,C18*%
X122635000Y-99280000D03*
X121085000Y-99280000D03*
%TD*%
D16*
%TO.C,D6*%
X94194189Y-92085812D03*
X95307883Y-90972118D03*
%TD*%
D17*
%TO.C,D16*%
X130260000Y-97350000D03*
X130260000Y-94050000D03*
X125360000Y-94050000D03*
X125360000Y-97350000D03*
%TD*%
D18*
%TO.C,TP5*%
X210740000Y-66840000D03*
%TD*%
D17*
%TO.C,D19*%
X152310000Y-71620000D03*
X152310000Y-68320000D03*
X147410000Y-68320000D03*
X147410000Y-71620000D03*
%TD*%
D19*
%TO.C,J2*%
X81120000Y-65640000D03*
X77620000Y-65640000D03*
X81120000Y-63100000D03*
X77620000Y-63100000D03*
%TD*%
D20*
%TO.C,Q1*%
X86340000Y-67290000D03*
X86340000Y-65390000D03*
X84040000Y-66340000D03*
%TD*%
D21*
%TO.C,R19*%
X81202282Y-110195950D03*
X82369008Y-109029224D03*
%TD*%
D22*
%TO.C,REF\u002A\u002A*%
X227070000Y-116430000D03*
%TD*%
D14*
%TO.C,R1*%
X74556637Y-87966637D03*
X75723363Y-89133363D03*
%TD*%
D23*
%TO.C,SW4*%
X165520000Y-91640000D03*
X165520000Y-86940000D03*
X165520000Y-82240000D03*
%TD*%
D24*
%TO.C,C3*%
X76275983Y-99975236D03*
X75179967Y-101071252D03*
%TD*%
D25*
%TO.C,TP2*%
X248960000Y-90070000D03*
%TD*%
D18*
%TO.C,TP1*%
X92860000Y-66460000D03*
%TD*%
D17*
%TO.C,D14*%
X73520000Y-114700000D03*
X73520000Y-118000000D03*
X78420000Y-118000000D03*
X78420000Y-114700000D03*
%TD*%
D26*
%TO.C,D1*%
X86770000Y-76760000D03*
X85194998Y-76760000D03*
%TD*%
D22*
%TO.C,REF\u002A\u002A*%
X248450000Y-64990000D03*
%TD*%
D17*
%TO.C,D21*%
X183850000Y-71730000D03*
X183850000Y-68430000D03*
X178950000Y-68430000D03*
X178950000Y-71730000D03*
%TD*%
D27*
%TO.C,C16*%
X84317087Y-108990333D03*
X85413103Y-107894317D03*
%TD*%
D28*
%TO.C,SW3*%
X122210000Y-124860000D03*
X127210000Y-124860000D03*
X124710000Y-124860000D03*
D29*
X119210000Y-117360000D03*
X130210000Y-117360000D03*
D28*
X122210000Y-110360000D03*
X127210000Y-110360000D03*
%TD*%
D30*
%TO.C,D10*%
X86154189Y-86834189D03*
X87267883Y-87947883D03*
%TD*%
D24*
%TO.C,C6*%
X78368008Y-102071992D03*
X77271992Y-103168008D03*
%TD*%
D31*
%TO.C,U2*%
X85604023Y-105836637D03*
X85250470Y-105483084D03*
X84896916Y-105129530D03*
X84543363Y-104775977D03*
X82315977Y-107003363D03*
X82669530Y-107356916D03*
X83023084Y-107710470D03*
X83376637Y-108064023D03*
%TD*%
D27*
%TO.C,C7*%
X89761992Y-93748008D03*
X90858008Y-92651992D03*
%TD*%
D15*
%TO.C,C23*%
X168300000Y-73640000D03*
X166750000Y-73640000D03*
%TD*%
D32*
%TO.C,C17*%
X72995000Y-112780000D03*
X74545000Y-112780000D03*
%TD*%
D21*
%TO.C,R18*%
X86601043Y-104867900D03*
X87767769Y-103701174D03*
%TD*%
D33*
%TO.C,U3*%
X182534600Y-115079100D03*
X182534600Y-117619100D03*
X182534600Y-120159100D03*
X182534600Y-122699100D03*
%TD*%
D17*
%TO.C,D15*%
X122210000Y-97400000D03*
X122210000Y-94100000D03*
X117310000Y-94100000D03*
X117310000Y-97400000D03*
%TD*%
%TO.C,D20*%
X167770000Y-71720000D03*
X167770000Y-68420000D03*
X162870000Y-68420000D03*
X162870000Y-71720000D03*
%TD*%
D23*
%TO.C,SW2*%
X149840000Y-91790000D03*
X149840000Y-87090000D03*
X149840000Y-82390000D03*
%TD*%
D24*
%TO.C,C2*%
X72798648Y-96537902D03*
X71702632Y-97633918D03*
%TD*%
D16*
%TO.C,D9*%
X81404189Y-102455812D03*
X82517883Y-101342118D03*
%TD*%
D30*
%TO.C,D13*%
X74413153Y-84213153D03*
X75526847Y-85326847D03*
%TD*%
D34*
%TO.C,D2*%
X82014999Y-76760000D03*
X83589999Y-76760000D03*
%TD*%
D15*
%TO.C,C19*%
X130695000Y-99310000D03*
X129145000Y-99310000D03*
%TD*%
D35*
%TO.C,U1*%
X79575817Y-94719309D03*
X79929371Y-95072862D03*
X80282924Y-95426416D03*
X80636478Y-95779969D03*
X80990031Y-96133522D03*
X81343584Y-96487076D03*
X81697138Y-96840629D03*
X82050691Y-97194183D03*
D36*
X83022963Y-97194183D03*
X83376516Y-96840629D03*
X83730070Y-96487076D03*
X84083623Y-96133522D03*
X84437176Y-95779969D03*
X84790730Y-95426416D03*
X85144283Y-95072862D03*
X85497837Y-94719309D03*
D35*
X85497837Y-93747037D03*
X85144283Y-93393484D03*
X84790730Y-93039930D03*
X84437176Y-92686377D03*
X84083623Y-92332824D03*
X83730070Y-91979270D03*
X83376516Y-91625717D03*
X83022963Y-91272163D03*
D36*
X82050691Y-91272163D03*
X81697138Y-91625717D03*
X81343584Y-91979270D03*
X80990031Y-92332824D03*
X80636478Y-92686377D03*
X80282924Y-93039930D03*
X79929371Y-93393484D03*
X79575817Y-93747037D03*
D37*
X82536827Y-94233173D03*
%TD*%
D22*
%TO.C,REF\u002A\u002A*%
X70960000Y-74220000D03*
%TD*%
D24*
%TO.C,C1*%
X77328008Y-101031992D03*
X76231992Y-102128008D03*
%TD*%
D18*
%TO.C,TP6*%
X212680000Y-101450000D03*
%TD*%
D21*
%TO.C,D12*%
X80138087Y-109138826D03*
X81304813Y-107972100D03*
%TD*%
D23*
%TO.C,SW1*%
X181330000Y-91730000D03*
X181330000Y-87030000D03*
X181330000Y-82330000D03*
%TD*%
D27*
%TO.C,C4*%
X88721992Y-92698008D03*
X89818008Y-91601992D03*
%TD*%
D24*
%TO.C,C5*%
X71748008Y-95491992D03*
X70651992Y-96588008D03*
%TD*%
D17*
%TO.C,D17*%
X121420000Y-82220000D03*
X121420000Y-85520000D03*
X126320000Y-85520000D03*
X126320000Y-82220000D03*
%TD*%
D25*
%TO.C,TP3*%
X102150000Y-63870000D03*
%TD*%
D17*
%TO.C,D18*%
X126320000Y-71810000D03*
X126320000Y-68510000D03*
X121420000Y-68510000D03*
X121420000Y-71810000D03*
%TD*%
D15*
%TO.C,C22*%
X152745000Y-73590000D03*
X151195000Y-73590000D03*
%TD*%
D38*
%TO.C,D11*%
X86728322Y-102647586D03*
X85561596Y-103814312D03*
%TD*%
D39*
%TO.C,RV1*%
X204820000Y-126155000D03*
D40*
X207320000Y-126155000D03*
X209820000Y-126155000D03*
X212320000Y-126155000D03*
D41*
X202770000Y-115155000D03*
X214370000Y-115155000D03*
%TD*%
D42*
%TO.C,J1*%
X89220000Y-65145000D03*
D43*
X89220000Y-62605000D03*
%TD*%
D18*
%TO.C,TP4*%
X136800000Y-104720000D03*
%TD*%
D44*
%TO.C,S1*%
X93888300Y-117112800D03*
%TD*%
D15*
%TO.C,C21*%
X126815000Y-73750000D03*
X125265000Y-73750000D03*
%TD*%
%TO.C,C24*%
X184365000Y-73610000D03*
X182815000Y-73610000D03*
%TD*%
D42*
%TO.C,J6*%
X251285000Y-71950000D03*
D43*
X248745000Y-71950000D03*
X246205001Y-71950000D03*
%TD*%
D40*
%TO.C,J8*%
X142130000Y-86240000D03*
X139660000Y-91240000D03*
%TD*%
D42*
%TO.C,J7*%
X220320000Y-75140000D03*
D43*
X220320000Y-77680000D03*
X220320000Y-80220000D03*
X220320000Y-82760000D03*
%TD*%
D42*
%TO.C,J4*%
X251309999Y-79270000D03*
D43*
X248769999Y-79270000D03*
X246230000Y-79270000D03*
%TD*%
D40*
%TO.C,DRV1*%
X241276200Y-70080100D03*
X241276200Y-72620100D03*
X241276200Y-75160100D03*
X241276200Y-77700100D03*
X241276200Y-80240100D03*
X241276200Y-82780100D03*
X241276200Y-85320100D03*
X241276200Y-87860100D03*
X228576200Y-70156300D03*
X228576200Y-72620100D03*
X228576200Y-75160100D03*
X228576200Y-77700100D03*
X228576200Y-80240100D03*
X228576200Y-82780100D03*
X228576200Y-85320100D03*
X228576200Y-87860100D03*
%TD*%
%TO.C,J12*%
X95120000Y-76240000D03*
X92650000Y-81240000D03*
%TD*%
D45*
%TO.C,VR3*%
X115700000Y-64670000D03*
D46*
X133200000Y-64670000D03*
X133200000Y-104670000D03*
X115700000Y-104670000D03*
%TD*%
D40*
%TO.C,J9*%
X185160000Y-102590000D03*
X185160000Y-100090000D03*
X185160000Y-97590000D03*
%TD*%
%TO.C,J10*%
X247290000Y-104850000D03*
X242290000Y-102380000D03*
%TD*%
D47*
%TO.C,Q3*%
X173220000Y-71340000D03*
D48*
X174490000Y-70070000D03*
X173220000Y-68800000D03*
%TD*%
D40*
%TO.C,J3*%
X104040000Y-76140000D03*
X106540000Y-76140000D03*
X109040000Y-76140000D03*
%TD*%
D42*
%TO.C,J5*%
X251279999Y-75610000D03*
D43*
X248739999Y-75610000D03*
X246200000Y-75610000D03*
%TD*%
D49*
%TO.C,VR1*%
X212690000Y-103950000D03*
D46*
X195190000Y-103950000D03*
X195190000Y-63950000D03*
X212690000Y-63950000D03*
%TD*%
D50*
%TO.C,J11*%
X240770000Y-116610000D03*
X246570000Y-116610000D03*
X243770000Y-121410000D03*
%TD*%
M02*
