%TF.GenerationSoftware,KiCad,Pcbnew,8.0.8*%
%TF.CreationDate,2025-04-02T20:08:15-06:00*%
%TF.ProjectId,Animation Platter_V3,416e696d-6174-4696-9f6e-20506c617474,rev?*%
%TF.SameCoordinates,Original*%
%TF.FileFunction,Legend,Top*%
%TF.FilePolarity,Positive*%
%FSLAX46Y46*%
G04 Gerber Fmt 4.6, Leading zero omitted, Abs format (unit mm)*
G04 Created by KiCad (PCBNEW 8.0.8) date 2025-04-02 20:08:15*
%MOMM*%
%LPD*%
G01*
G04 APERTURE LIST*
%ADD10C,0.200000*%
%ADD11C,0.150000*%
%ADD12C,0.400000*%
%ADD13C,0.120000*%
%ADD14C,0.100000*%
G04 APERTURE END LIST*
D10*
X227360000Y-82840000D02*
X227320001Y-82840212D01*
X226520012Y-82844444D02*
X226480012Y-82844656D01*
X225680024Y-82848889D02*
X225640024Y-82849100D01*
X224840035Y-82853333D02*
X224800036Y-82853545D01*
X224000047Y-82857778D02*
X223960048Y-82857989D01*
X223160059Y-82862222D02*
X223120059Y-82862434D01*
X222320071Y-82866666D02*
X222280071Y-82866878D01*
X227430000Y-75180000D02*
X227390000Y-75179865D01*
X226590005Y-75177167D02*
X226550005Y-75177032D01*
X225750010Y-75174334D02*
X225710010Y-75174199D01*
X224910014Y-75171501D02*
X224870015Y-75171366D01*
X224070019Y-75168668D02*
X224030019Y-75168533D01*
X223230024Y-75165835D02*
X223190024Y-75165700D01*
X222390029Y-75163002D02*
X222350029Y-75162867D01*
X221550033Y-75160169D02*
X221510034Y-75160034D01*
X227430000Y-77790000D02*
X227390004Y-77789456D01*
X226590078Y-77778572D02*
X226550081Y-77778028D01*
X225750155Y-77767145D02*
X225710159Y-77766601D01*
X224910233Y-77755717D02*
X224870237Y-77755173D01*
X224070311Y-77744290D02*
X224030315Y-77743746D01*
X223230389Y-77732862D02*
X223190392Y-77732318D01*
X222390466Y-77721435D02*
X222350470Y-77720891D01*
X221550544Y-77710007D02*
X221550030Y-77710000D01*
X227480000Y-80310000D02*
X227440000Y-80310000D01*
X226640000Y-80310000D02*
X226600000Y-80310000D01*
X225800000Y-80310000D02*
X225760000Y-80310000D01*
X224960000Y-80310000D02*
X224920000Y-80310000D01*
X224120000Y-80310000D02*
X224080000Y-80310000D01*
X223280000Y-80310000D02*
X223240000Y-80310000D01*
X222440000Y-80310000D02*
X222400000Y-80310000D01*
D11*
X113778445Y-62378866D02*
X114540350Y-62378866D01*
X114111779Y-62759819D02*
X114207017Y-61997914D01*
X115034398Y-61855057D02*
X115087969Y-61807438D01*
X115087969Y-61807438D02*
X115189159Y-61759819D01*
X115189159Y-61759819D02*
X115427255Y-61759819D01*
X115427255Y-61759819D02*
X115516540Y-61807438D01*
X115516540Y-61807438D02*
X115558207Y-61855057D01*
X115558207Y-61855057D02*
X115593921Y-61950295D01*
X115593921Y-61950295D02*
X115582017Y-62045533D01*
X115582017Y-62045533D02*
X115516540Y-62188390D01*
X115516540Y-62188390D02*
X114873683Y-62759819D01*
X114873683Y-62759819D02*
X115492731Y-62759819D01*
X116433207Y-62093152D02*
X116349874Y-62759819D01*
X116242731Y-61712200D02*
X115915350Y-62426485D01*
X115915350Y-62426485D02*
X116534398Y-62426485D01*
X116855826Y-61759819D02*
X117064160Y-62759819D01*
X117064160Y-62759819D02*
X117522493Y-61759819D01*
X132643684Y-102207438D02*
X132554398Y-102159819D01*
X132554398Y-102159819D02*
X132411541Y-102159819D01*
X132411541Y-102159819D02*
X132262731Y-102207438D01*
X132262731Y-102207438D02*
X132155588Y-102302676D01*
X132155588Y-102302676D02*
X132096064Y-102397914D01*
X132096064Y-102397914D02*
X132024636Y-102588390D01*
X132024636Y-102588390D02*
X132006779Y-102731247D01*
X132006779Y-102731247D02*
X132030588Y-102921723D01*
X132030588Y-102921723D02*
X132066303Y-103016961D01*
X132066303Y-103016961D02*
X132149636Y-103112200D01*
X132149636Y-103112200D02*
X132286541Y-103159819D01*
X132286541Y-103159819D02*
X132381779Y-103159819D01*
X132381779Y-103159819D02*
X132530588Y-103112200D01*
X132530588Y-103112200D02*
X132584160Y-103064580D01*
X132584160Y-103064580D02*
X132625826Y-102731247D01*
X132625826Y-102731247D02*
X132435350Y-102731247D01*
X133000826Y-103159819D02*
X133125826Y-102159819D01*
X133125826Y-102159819D02*
X133572255Y-103159819D01*
X133572255Y-103159819D02*
X133697255Y-102159819D01*
X134048445Y-103159819D02*
X134173445Y-102159819D01*
X134173445Y-102159819D02*
X134411541Y-102159819D01*
X134411541Y-102159819D02*
X134548445Y-102207438D01*
X134548445Y-102207438D02*
X134631779Y-102302676D01*
X134631779Y-102302676D02*
X134667493Y-102397914D01*
X134667493Y-102397914D02*
X134691303Y-102588390D01*
X134691303Y-102588390D02*
X134673445Y-102731247D01*
X134673445Y-102731247D02*
X134602017Y-102921723D01*
X134602017Y-102921723D02*
X134542493Y-103016961D01*
X134542493Y-103016961D02*
X134435350Y-103112200D01*
X134435350Y-103112200D02*
X134286541Y-103159819D01*
X134286541Y-103159819D02*
X134048445Y-103159819D01*
D12*
X145109200Y-92895890D02*
X145204438Y-92622081D01*
X145204438Y-92622081D02*
X145204438Y-92145890D01*
X145204438Y-92145890D02*
X145109200Y-91943509D01*
X145109200Y-91943509D02*
X145013961Y-91836366D01*
X145013961Y-91836366D02*
X144823485Y-91717319D01*
X144823485Y-91717319D02*
X144633009Y-91693509D01*
X144633009Y-91693509D02*
X144442533Y-91764938D01*
X144442533Y-91764938D02*
X144347295Y-91848271D01*
X144347295Y-91848271D02*
X144252057Y-92026843D01*
X144252057Y-92026843D02*
X144156819Y-92395890D01*
X144156819Y-92395890D02*
X144061580Y-92574462D01*
X144061580Y-92574462D02*
X143966342Y-92657795D01*
X143966342Y-92657795D02*
X143775866Y-92729223D01*
X143775866Y-92729223D02*
X143585390Y-92705414D01*
X143585390Y-92705414D02*
X143394914Y-92586366D01*
X143394914Y-92586366D02*
X143299676Y-92479223D01*
X143299676Y-92479223D02*
X143204438Y-92276843D01*
X143204438Y-92276843D02*
X143204438Y-91800652D01*
X143204438Y-91800652D02*
X143299676Y-91526843D01*
X143871104Y-91026842D02*
X143871104Y-90264938D01*
X143204438Y-90657795D02*
X144918723Y-90872081D01*
X144918723Y-90872081D02*
X145109200Y-90800652D01*
X145109200Y-90800652D02*
X145204438Y-90622081D01*
X145204438Y-90622081D02*
X145204438Y-90431604D01*
X145204438Y-89764938D02*
X143871104Y-89598271D01*
X144252057Y-89645890D02*
X144061580Y-89526843D01*
X144061580Y-89526843D02*
X143966342Y-89419700D01*
X143966342Y-89419700D02*
X143871104Y-89217319D01*
X143871104Y-89217319D02*
X143871104Y-89026843D01*
X145204438Y-88241129D02*
X145109200Y-88419700D01*
X145109200Y-88419700D02*
X145013961Y-88503033D01*
X145013961Y-88503033D02*
X144823485Y-88574462D01*
X144823485Y-88574462D02*
X144252057Y-88503033D01*
X144252057Y-88503033D02*
X144061580Y-88383986D01*
X144061580Y-88383986D02*
X143966342Y-88276843D01*
X143966342Y-88276843D02*
X143871104Y-88074462D01*
X143871104Y-88074462D02*
X143871104Y-87788748D01*
X143871104Y-87788748D02*
X143966342Y-87610176D01*
X143966342Y-87610176D02*
X144061580Y-87526843D01*
X144061580Y-87526843D02*
X144252057Y-87455414D01*
X144252057Y-87455414D02*
X144823485Y-87526843D01*
X144823485Y-87526843D02*
X145013961Y-87645890D01*
X145013961Y-87645890D02*
X145109200Y-87753033D01*
X145109200Y-87753033D02*
X145204438Y-87955414D01*
X145204438Y-87955414D02*
X145204438Y-88241129D01*
X145204438Y-86717319D02*
X143204438Y-86467319D01*
X143966342Y-86562557D02*
X143871104Y-86360176D01*
X143871104Y-86360176D02*
X143871104Y-85979224D01*
X143871104Y-85979224D02*
X143966342Y-85800652D01*
X143966342Y-85800652D02*
X144061580Y-85717319D01*
X144061580Y-85717319D02*
X144252057Y-85645890D01*
X144252057Y-85645890D02*
X144823485Y-85717319D01*
X144823485Y-85717319D02*
X145013961Y-85836366D01*
X145013961Y-85836366D02*
X145109200Y-85943509D01*
X145109200Y-85943509D02*
X145204438Y-86145890D01*
X145204438Y-86145890D02*
X145204438Y-86526843D01*
X145204438Y-86526843D02*
X145109200Y-86705414D01*
X145109200Y-84133985D02*
X145204438Y-84336366D01*
X145204438Y-84336366D02*
X145204438Y-84717319D01*
X145204438Y-84717319D02*
X145109200Y-84895890D01*
X145109200Y-84895890D02*
X144918723Y-84967319D01*
X144918723Y-84967319D02*
X144156819Y-84872081D01*
X144156819Y-84872081D02*
X143966342Y-84753033D01*
X143966342Y-84753033D02*
X143871104Y-84550652D01*
X143871104Y-84550652D02*
X143871104Y-84169700D01*
X143871104Y-84169700D02*
X143966342Y-83991128D01*
X143966342Y-83991128D02*
X144156819Y-83919700D01*
X144156819Y-83919700D02*
X144347295Y-83943509D01*
X144347295Y-83943509D02*
X144537771Y-84919700D01*
X144156819Y-81538746D02*
X144156819Y-80872080D01*
X145204438Y-80717318D02*
X145204438Y-81669699D01*
X145204438Y-81669699D02*
X143204438Y-81419699D01*
X143204438Y-81419699D02*
X143204438Y-80467318D01*
X143871104Y-79693508D02*
X145204438Y-79860175D01*
X144061580Y-79717318D02*
X143966342Y-79610175D01*
X143966342Y-79610175D02*
X143871104Y-79407794D01*
X143871104Y-79407794D02*
X143871104Y-79122080D01*
X143871104Y-79122080D02*
X143966342Y-78943508D01*
X143966342Y-78943508D02*
X144156819Y-78872080D01*
X144156819Y-78872080D02*
X145204438Y-79003032D01*
X145204438Y-77193508D02*
X144156819Y-77062556D01*
X144156819Y-77062556D02*
X143966342Y-77133984D01*
X143966342Y-77133984D02*
X143871104Y-77312556D01*
X143871104Y-77312556D02*
X143871104Y-77693508D01*
X143871104Y-77693508D02*
X143966342Y-77895889D01*
X145109200Y-77181603D02*
X145204438Y-77383984D01*
X145204438Y-77383984D02*
X145204438Y-77860175D01*
X145204438Y-77860175D02*
X145109200Y-78038746D01*
X145109200Y-78038746D02*
X144918723Y-78110175D01*
X144918723Y-78110175D02*
X144728247Y-78086365D01*
X144728247Y-78086365D02*
X144537771Y-77967317D01*
X144537771Y-77967317D02*
X144442533Y-77764937D01*
X144442533Y-77764937D02*
X144442533Y-77288746D01*
X144442533Y-77288746D02*
X144347295Y-77086365D01*
X145204438Y-76241127D02*
X143204438Y-75991127D01*
X143966342Y-76086365D02*
X143871104Y-75883984D01*
X143871104Y-75883984D02*
X143871104Y-75503032D01*
X143871104Y-75503032D02*
X143966342Y-75324460D01*
X143966342Y-75324460D02*
X144061580Y-75241127D01*
X144061580Y-75241127D02*
X144252057Y-75169698D01*
X144252057Y-75169698D02*
X144823485Y-75241127D01*
X144823485Y-75241127D02*
X145013961Y-75360174D01*
X145013961Y-75360174D02*
X145109200Y-75467317D01*
X145109200Y-75467317D02*
X145204438Y-75669698D01*
X145204438Y-75669698D02*
X145204438Y-76050651D01*
X145204438Y-76050651D02*
X145109200Y-76229222D01*
X145204438Y-74145889D02*
X145109200Y-74324460D01*
X145109200Y-74324460D02*
X144918723Y-74395889D01*
X144918723Y-74395889D02*
X143204438Y-74181603D01*
X145109200Y-72610174D02*
X145204438Y-72812555D01*
X145204438Y-72812555D02*
X145204438Y-73193508D01*
X145204438Y-73193508D02*
X145109200Y-73372079D01*
X145109200Y-73372079D02*
X144918723Y-73443508D01*
X144918723Y-73443508D02*
X144156819Y-73348270D01*
X144156819Y-73348270D02*
X143966342Y-73229222D01*
X143966342Y-73229222D02*
X143871104Y-73026841D01*
X143871104Y-73026841D02*
X143871104Y-72645889D01*
X143871104Y-72645889D02*
X143966342Y-72467317D01*
X143966342Y-72467317D02*
X144156819Y-72395889D01*
X144156819Y-72395889D02*
X144347295Y-72419698D01*
X144347295Y-72419698D02*
X144537771Y-73395889D01*
X176154438Y-92652557D02*
X174154438Y-92402557D01*
X174154438Y-92402557D02*
X175583009Y-91914462D01*
X175583009Y-91914462D02*
X174154438Y-91069223D01*
X174154438Y-91069223D02*
X176154438Y-91319223D01*
X176154438Y-90081129D02*
X176059200Y-90259700D01*
X176059200Y-90259700D02*
X175963961Y-90343033D01*
X175963961Y-90343033D02*
X175773485Y-90414462D01*
X175773485Y-90414462D02*
X175202057Y-90343033D01*
X175202057Y-90343033D02*
X175011580Y-90223986D01*
X175011580Y-90223986D02*
X174916342Y-90116843D01*
X174916342Y-90116843D02*
X174821104Y-89914462D01*
X174821104Y-89914462D02*
X174821104Y-89628748D01*
X174821104Y-89628748D02*
X174916342Y-89450176D01*
X174916342Y-89450176D02*
X175011580Y-89366843D01*
X175011580Y-89366843D02*
X175202057Y-89295414D01*
X175202057Y-89295414D02*
X175773485Y-89366843D01*
X175773485Y-89366843D02*
X175963961Y-89485890D01*
X175963961Y-89485890D02*
X176059200Y-89593033D01*
X176059200Y-89593033D02*
X176154438Y-89795414D01*
X176154438Y-89795414D02*
X176154438Y-90081129D01*
X174821104Y-88676366D02*
X174821104Y-87914462D01*
X174154438Y-88307319D02*
X175868723Y-88521605D01*
X175868723Y-88521605D02*
X176059200Y-88450176D01*
X176059200Y-88450176D02*
X176154438Y-88271605D01*
X176154438Y-88271605D02*
X176154438Y-88081128D01*
X176154438Y-87128748D02*
X176059200Y-87307319D01*
X176059200Y-87307319D02*
X175963961Y-87390652D01*
X175963961Y-87390652D02*
X175773485Y-87462081D01*
X175773485Y-87462081D02*
X175202057Y-87390652D01*
X175202057Y-87390652D02*
X175011580Y-87271605D01*
X175011580Y-87271605D02*
X174916342Y-87164462D01*
X174916342Y-87164462D02*
X174821104Y-86962081D01*
X174821104Y-86962081D02*
X174821104Y-86676367D01*
X174821104Y-86676367D02*
X174916342Y-86497795D01*
X174916342Y-86497795D02*
X175011580Y-86414462D01*
X175011580Y-86414462D02*
X175202057Y-86343033D01*
X175202057Y-86343033D02*
X175773485Y-86414462D01*
X175773485Y-86414462D02*
X175963961Y-86533509D01*
X175963961Y-86533509D02*
X176059200Y-86640652D01*
X176059200Y-86640652D02*
X176154438Y-86843033D01*
X176154438Y-86843033D02*
X176154438Y-87128748D01*
X176154438Y-85604938D02*
X174821104Y-85438271D01*
X175202057Y-85485890D02*
X175011580Y-85366843D01*
X175011580Y-85366843D02*
X174916342Y-85259700D01*
X174916342Y-85259700D02*
X174821104Y-85057319D01*
X174821104Y-85057319D02*
X174821104Y-84866843D01*
X176154438Y-82843033D02*
X174154438Y-82593033D01*
X174154438Y-82593033D02*
X174154438Y-82116842D01*
X174154438Y-82116842D02*
X174249676Y-81843033D01*
X174249676Y-81843033D02*
X174440152Y-81676366D01*
X174440152Y-81676366D02*
X174630628Y-81604938D01*
X174630628Y-81604938D02*
X175011580Y-81557319D01*
X175011580Y-81557319D02*
X175297295Y-81593033D01*
X175297295Y-81593033D02*
X175678247Y-81735890D01*
X175678247Y-81735890D02*
X175868723Y-81854938D01*
X175868723Y-81854938D02*
X176059200Y-82069223D01*
X176059200Y-82069223D02*
X176154438Y-82366842D01*
X176154438Y-82366842D02*
X176154438Y-82843033D01*
X176154438Y-80843033D02*
X174821104Y-80676366D01*
X174154438Y-80593033D02*
X174249676Y-80700176D01*
X174249676Y-80700176D02*
X174344914Y-80616842D01*
X174344914Y-80616842D02*
X174249676Y-80509699D01*
X174249676Y-80509699D02*
X174154438Y-80593033D01*
X174154438Y-80593033D02*
X174344914Y-80616842D01*
X176154438Y-79890652D02*
X174821104Y-79723985D01*
X175202057Y-79771604D02*
X175011580Y-79652557D01*
X175011580Y-79652557D02*
X174916342Y-79545414D01*
X174916342Y-79545414D02*
X174821104Y-79343033D01*
X174821104Y-79343033D02*
X174821104Y-79152557D01*
X176059200Y-77878747D02*
X176154438Y-78081128D01*
X176154438Y-78081128D02*
X176154438Y-78462081D01*
X176154438Y-78462081D02*
X176059200Y-78640652D01*
X176059200Y-78640652D02*
X175868723Y-78712081D01*
X175868723Y-78712081D02*
X175106819Y-78616843D01*
X175106819Y-78616843D02*
X174916342Y-78497795D01*
X174916342Y-78497795D02*
X174821104Y-78295414D01*
X174821104Y-78295414D02*
X174821104Y-77914462D01*
X174821104Y-77914462D02*
X174916342Y-77735890D01*
X174916342Y-77735890D02*
X175106819Y-77664462D01*
X175106819Y-77664462D02*
X175297295Y-77688271D01*
X175297295Y-77688271D02*
X175487771Y-78664462D01*
X176059200Y-76069223D02*
X176154438Y-76271604D01*
X176154438Y-76271604D02*
X176154438Y-76652557D01*
X176154438Y-76652557D02*
X176059200Y-76831128D01*
X176059200Y-76831128D02*
X175963961Y-76914461D01*
X175963961Y-76914461D02*
X175773485Y-76985890D01*
X175773485Y-76985890D02*
X175202057Y-76914461D01*
X175202057Y-76914461D02*
X175011580Y-76795414D01*
X175011580Y-76795414D02*
X174916342Y-76688271D01*
X174916342Y-76688271D02*
X174821104Y-76485890D01*
X174821104Y-76485890D02*
X174821104Y-76104937D01*
X174821104Y-76104937D02*
X174916342Y-75926366D01*
X174821104Y-75343032D02*
X174821104Y-74581128D01*
X174154438Y-74973985D02*
X175868723Y-75188271D01*
X175868723Y-75188271D02*
X176059200Y-75116842D01*
X176059200Y-75116842D02*
X176154438Y-74938271D01*
X176154438Y-74938271D02*
X176154438Y-74747794D01*
X176154438Y-74081128D02*
X174821104Y-73914461D01*
X174154438Y-73831128D02*
X174249676Y-73938271D01*
X174249676Y-73938271D02*
X174344914Y-73854937D01*
X174344914Y-73854937D02*
X174249676Y-73747794D01*
X174249676Y-73747794D02*
X174154438Y-73831128D01*
X174154438Y-73831128D02*
X174344914Y-73854937D01*
X176154438Y-72843033D02*
X176059200Y-73021604D01*
X176059200Y-73021604D02*
X175963961Y-73104937D01*
X175963961Y-73104937D02*
X175773485Y-73176366D01*
X175773485Y-73176366D02*
X175202057Y-73104937D01*
X175202057Y-73104937D02*
X175011580Y-72985890D01*
X175011580Y-72985890D02*
X174916342Y-72878747D01*
X174916342Y-72878747D02*
X174821104Y-72676366D01*
X174821104Y-72676366D02*
X174821104Y-72390652D01*
X174821104Y-72390652D02*
X174916342Y-72212080D01*
X174916342Y-72212080D02*
X175011580Y-72128747D01*
X175011580Y-72128747D02*
X175202057Y-72057318D01*
X175202057Y-72057318D02*
X175773485Y-72128747D01*
X175773485Y-72128747D02*
X175963961Y-72247794D01*
X175963961Y-72247794D02*
X176059200Y-72354937D01*
X176059200Y-72354937D02*
X176154438Y-72557318D01*
X176154438Y-72557318D02*
X176154438Y-72843033D01*
X174821104Y-71152556D02*
X176154438Y-71319223D01*
X175011580Y-71176366D02*
X174916342Y-71069223D01*
X174916342Y-71069223D02*
X174821104Y-70866842D01*
X174821104Y-70866842D02*
X174821104Y-70581128D01*
X174821104Y-70581128D02*
X174916342Y-70402556D01*
X174916342Y-70402556D02*
X175106819Y-70331128D01*
X175106819Y-70331128D02*
X176154438Y-70462080D01*
D11*
X132733684Y-61797438D02*
X132644398Y-61749819D01*
X132644398Y-61749819D02*
X132501541Y-61749819D01*
X132501541Y-61749819D02*
X132352731Y-61797438D01*
X132352731Y-61797438D02*
X132245588Y-61892676D01*
X132245588Y-61892676D02*
X132186064Y-61987914D01*
X132186064Y-61987914D02*
X132114636Y-62178390D01*
X132114636Y-62178390D02*
X132096779Y-62321247D01*
X132096779Y-62321247D02*
X132120588Y-62511723D01*
X132120588Y-62511723D02*
X132156303Y-62606961D01*
X132156303Y-62606961D02*
X132239636Y-62702200D01*
X132239636Y-62702200D02*
X132376541Y-62749819D01*
X132376541Y-62749819D02*
X132471779Y-62749819D01*
X132471779Y-62749819D02*
X132620588Y-62702200D01*
X132620588Y-62702200D02*
X132674160Y-62654580D01*
X132674160Y-62654580D02*
X132715826Y-62321247D01*
X132715826Y-62321247D02*
X132525350Y-62321247D01*
X133090826Y-62749819D02*
X133215826Y-61749819D01*
X133215826Y-61749819D02*
X133662255Y-62749819D01*
X133662255Y-62749819D02*
X133787255Y-61749819D01*
X134138445Y-62749819D02*
X134263445Y-61749819D01*
X134263445Y-61749819D02*
X134501541Y-61749819D01*
X134501541Y-61749819D02*
X134638445Y-61797438D01*
X134638445Y-61797438D02*
X134721779Y-61892676D01*
X134721779Y-61892676D02*
X134757493Y-61987914D01*
X134757493Y-61987914D02*
X134781303Y-62178390D01*
X134781303Y-62178390D02*
X134763445Y-62321247D01*
X134763445Y-62321247D02*
X134692017Y-62511723D01*
X134692017Y-62511723D02*
X134632493Y-62606961D01*
X134632493Y-62606961D02*
X134525350Y-62702200D01*
X134525350Y-62702200D02*
X134376541Y-62749819D01*
X134376541Y-62749819D02*
X134138445Y-62749819D01*
X211088445Y-102038866D02*
X211850350Y-102038866D01*
X211421779Y-102419819D02*
X211517017Y-101657914D01*
X212344398Y-101515057D02*
X212397969Y-101467438D01*
X212397969Y-101467438D02*
X212499159Y-101419819D01*
X212499159Y-101419819D02*
X212737255Y-101419819D01*
X212737255Y-101419819D02*
X212826540Y-101467438D01*
X212826540Y-101467438D02*
X212868207Y-101515057D01*
X212868207Y-101515057D02*
X212903921Y-101610295D01*
X212903921Y-101610295D02*
X212892017Y-101705533D01*
X212892017Y-101705533D02*
X212826540Y-101848390D01*
X212826540Y-101848390D02*
X212183683Y-102419819D01*
X212183683Y-102419819D02*
X212802731Y-102419819D01*
X213743207Y-101753152D02*
X213659874Y-102419819D01*
X213552731Y-101372200D02*
X213225350Y-102086485D01*
X213225350Y-102086485D02*
X213844398Y-102086485D01*
X214165826Y-101419819D02*
X214374160Y-102419819D01*
X214374160Y-102419819D02*
X214832493Y-101419819D01*
D12*
X159954438Y-92652557D02*
X157954438Y-92402557D01*
X157954438Y-92402557D02*
X159383009Y-91914462D01*
X159383009Y-91914462D02*
X157954438Y-91069223D01*
X157954438Y-91069223D02*
X159954438Y-91319223D01*
X159954438Y-90081129D02*
X159859200Y-90259700D01*
X159859200Y-90259700D02*
X159763961Y-90343033D01*
X159763961Y-90343033D02*
X159573485Y-90414462D01*
X159573485Y-90414462D02*
X159002057Y-90343033D01*
X159002057Y-90343033D02*
X158811580Y-90223986D01*
X158811580Y-90223986D02*
X158716342Y-90116843D01*
X158716342Y-90116843D02*
X158621104Y-89914462D01*
X158621104Y-89914462D02*
X158621104Y-89628748D01*
X158621104Y-89628748D02*
X158716342Y-89450176D01*
X158716342Y-89450176D02*
X158811580Y-89366843D01*
X158811580Y-89366843D02*
X159002057Y-89295414D01*
X159002057Y-89295414D02*
X159573485Y-89366843D01*
X159573485Y-89366843D02*
X159763961Y-89485890D01*
X159763961Y-89485890D02*
X159859200Y-89593033D01*
X159859200Y-89593033D02*
X159954438Y-89795414D01*
X159954438Y-89795414D02*
X159954438Y-90081129D01*
X158621104Y-88676366D02*
X158621104Y-87914462D01*
X157954438Y-88307319D02*
X159668723Y-88521605D01*
X159668723Y-88521605D02*
X159859200Y-88450176D01*
X159859200Y-88450176D02*
X159954438Y-88271605D01*
X159954438Y-88271605D02*
X159954438Y-88081128D01*
X159954438Y-87128748D02*
X159859200Y-87307319D01*
X159859200Y-87307319D02*
X159763961Y-87390652D01*
X159763961Y-87390652D02*
X159573485Y-87462081D01*
X159573485Y-87462081D02*
X159002057Y-87390652D01*
X159002057Y-87390652D02*
X158811580Y-87271605D01*
X158811580Y-87271605D02*
X158716342Y-87164462D01*
X158716342Y-87164462D02*
X158621104Y-86962081D01*
X158621104Y-86962081D02*
X158621104Y-86676367D01*
X158621104Y-86676367D02*
X158716342Y-86497795D01*
X158716342Y-86497795D02*
X158811580Y-86414462D01*
X158811580Y-86414462D02*
X159002057Y-86343033D01*
X159002057Y-86343033D02*
X159573485Y-86414462D01*
X159573485Y-86414462D02*
X159763961Y-86533509D01*
X159763961Y-86533509D02*
X159859200Y-86640652D01*
X159859200Y-86640652D02*
X159954438Y-86843033D01*
X159954438Y-86843033D02*
X159954438Y-87128748D01*
X159954438Y-85604938D02*
X158621104Y-85438271D01*
X159002057Y-85485890D02*
X158811580Y-85366843D01*
X158811580Y-85366843D02*
X158716342Y-85259700D01*
X158716342Y-85259700D02*
X158621104Y-85057319D01*
X158621104Y-85057319D02*
X158621104Y-84866843D01*
X158906819Y-82712080D02*
X158906819Y-82045414D01*
X159954438Y-81890652D02*
X159954438Y-82843033D01*
X159954438Y-82843033D02*
X157954438Y-82593033D01*
X157954438Y-82593033D02*
X157954438Y-81640652D01*
X158621104Y-80866842D02*
X159954438Y-81033509D01*
X158811580Y-80890652D02*
X158716342Y-80783509D01*
X158716342Y-80783509D02*
X158621104Y-80581128D01*
X158621104Y-80581128D02*
X158621104Y-80295414D01*
X158621104Y-80295414D02*
X158716342Y-80116842D01*
X158716342Y-80116842D02*
X158906819Y-80045414D01*
X158906819Y-80045414D02*
X159954438Y-80176366D01*
X159954438Y-78366842D02*
X158906819Y-78235890D01*
X158906819Y-78235890D02*
X158716342Y-78307318D01*
X158716342Y-78307318D02*
X158621104Y-78485890D01*
X158621104Y-78485890D02*
X158621104Y-78866842D01*
X158621104Y-78866842D02*
X158716342Y-79069223D01*
X159859200Y-78354937D02*
X159954438Y-78557318D01*
X159954438Y-78557318D02*
X159954438Y-79033509D01*
X159954438Y-79033509D02*
X159859200Y-79212080D01*
X159859200Y-79212080D02*
X159668723Y-79283509D01*
X159668723Y-79283509D02*
X159478247Y-79259699D01*
X159478247Y-79259699D02*
X159287771Y-79140651D01*
X159287771Y-79140651D02*
X159192533Y-78938271D01*
X159192533Y-78938271D02*
X159192533Y-78462080D01*
X159192533Y-78462080D02*
X159097295Y-78259699D01*
X159954438Y-77414461D02*
X157954438Y-77164461D01*
X158716342Y-77259699D02*
X158621104Y-77057318D01*
X158621104Y-77057318D02*
X158621104Y-76676366D01*
X158621104Y-76676366D02*
X158716342Y-76497794D01*
X158716342Y-76497794D02*
X158811580Y-76414461D01*
X158811580Y-76414461D02*
X159002057Y-76343032D01*
X159002057Y-76343032D02*
X159573485Y-76414461D01*
X159573485Y-76414461D02*
X159763961Y-76533508D01*
X159763961Y-76533508D02*
X159859200Y-76640651D01*
X159859200Y-76640651D02*
X159954438Y-76843032D01*
X159954438Y-76843032D02*
X159954438Y-77223985D01*
X159954438Y-77223985D02*
X159859200Y-77402556D01*
X159954438Y-75319223D02*
X159859200Y-75497794D01*
X159859200Y-75497794D02*
X159668723Y-75569223D01*
X159668723Y-75569223D02*
X157954438Y-75354937D01*
X159859200Y-73783508D02*
X159954438Y-73985889D01*
X159954438Y-73985889D02*
X159954438Y-74366842D01*
X159954438Y-74366842D02*
X159859200Y-74545413D01*
X159859200Y-74545413D02*
X159668723Y-74616842D01*
X159668723Y-74616842D02*
X158906819Y-74521604D01*
X158906819Y-74521604D02*
X158716342Y-74402556D01*
X158716342Y-74402556D02*
X158621104Y-74200175D01*
X158621104Y-74200175D02*
X158621104Y-73819223D01*
X158621104Y-73819223D02*
X158716342Y-73640651D01*
X158716342Y-73640651D02*
X158906819Y-73569223D01*
X158906819Y-73569223D02*
X159097295Y-73593032D01*
X159097295Y-73593032D02*
X159287771Y-74569223D01*
X77454109Y-123839200D02*
X77727918Y-123934438D01*
X77727918Y-123934438D02*
X78204109Y-123934438D01*
X78204109Y-123934438D02*
X78406490Y-123839200D01*
X78406490Y-123839200D02*
X78513633Y-123743961D01*
X78513633Y-123743961D02*
X78632680Y-123553485D01*
X78632680Y-123553485D02*
X78656490Y-123363009D01*
X78656490Y-123363009D02*
X78585061Y-123172533D01*
X78585061Y-123172533D02*
X78501728Y-123077295D01*
X78501728Y-123077295D02*
X78323157Y-122982057D01*
X78323157Y-122982057D02*
X77954109Y-122886819D01*
X77954109Y-122886819D02*
X77775537Y-122791580D01*
X77775537Y-122791580D02*
X77692204Y-122696342D01*
X77692204Y-122696342D02*
X77620776Y-122505866D01*
X77620776Y-122505866D02*
X77644585Y-122315390D01*
X77644585Y-122315390D02*
X77763633Y-122124914D01*
X77763633Y-122124914D02*
X77870776Y-122029676D01*
X77870776Y-122029676D02*
X78073157Y-121934438D01*
X78073157Y-121934438D02*
X78549347Y-121934438D01*
X78549347Y-121934438D02*
X78823157Y-122029676D01*
X79323157Y-122601104D02*
X80085061Y-122601104D01*
X79692204Y-121934438D02*
X79477919Y-123648723D01*
X79477919Y-123648723D02*
X79549347Y-123839200D01*
X79549347Y-123839200D02*
X79727919Y-123934438D01*
X79727919Y-123934438D02*
X79918395Y-123934438D01*
X81442204Y-123934438D02*
X81573156Y-122886819D01*
X81573156Y-122886819D02*
X81501728Y-122696342D01*
X81501728Y-122696342D02*
X81323156Y-122601104D01*
X81323156Y-122601104D02*
X80942204Y-122601104D01*
X80942204Y-122601104D02*
X80739823Y-122696342D01*
X81454109Y-123839200D02*
X81251728Y-123934438D01*
X81251728Y-123934438D02*
X80775537Y-123934438D01*
X80775537Y-123934438D02*
X80596966Y-123839200D01*
X80596966Y-123839200D02*
X80525537Y-123648723D01*
X80525537Y-123648723D02*
X80549347Y-123458247D01*
X80549347Y-123458247D02*
X80668395Y-123267771D01*
X80668395Y-123267771D02*
X80870776Y-123172533D01*
X80870776Y-123172533D02*
X81346966Y-123172533D01*
X81346966Y-123172533D02*
X81549347Y-123077295D01*
X82275538Y-122601104D02*
X83037442Y-122601104D01*
X82644585Y-121934438D02*
X82430300Y-123648723D01*
X82430300Y-123648723D02*
X82501728Y-123839200D01*
X82501728Y-123839200D02*
X82680300Y-123934438D01*
X82680300Y-123934438D02*
X82870776Y-123934438D01*
X84311252Y-123839200D02*
X84108871Y-123934438D01*
X84108871Y-123934438D02*
X83727918Y-123934438D01*
X83727918Y-123934438D02*
X83549347Y-123839200D01*
X83549347Y-123839200D02*
X83477918Y-123648723D01*
X83477918Y-123648723D02*
X83573157Y-122886819D01*
X83573157Y-122886819D02*
X83692204Y-122696342D01*
X83692204Y-122696342D02*
X83894585Y-122601104D01*
X83894585Y-122601104D02*
X84275537Y-122601104D01*
X84275537Y-122601104D02*
X84454109Y-122696342D01*
X84454109Y-122696342D02*
X84525537Y-122886819D01*
X84525537Y-122886819D02*
X84501728Y-123077295D01*
X84501728Y-123077295D02*
X83525537Y-123267771D01*
D10*
X217810316Y-76597292D02*
X217738887Y-76731220D01*
X217738887Y-76731220D02*
X217738887Y-77016935D01*
X217738887Y-77016935D02*
X217810316Y-77168720D01*
X217810316Y-77168720D02*
X217953173Y-77258006D01*
X217953173Y-77258006D02*
X218024601Y-77266935D01*
X218024601Y-77266935D02*
X218167458Y-77213363D01*
X218167458Y-77213363D02*
X218238887Y-77079435D01*
X218238887Y-77079435D02*
X218238887Y-76865149D01*
X218238887Y-76865149D02*
X218310316Y-76731220D01*
X218310316Y-76731220D02*
X218453173Y-76677649D01*
X218453173Y-76677649D02*
X218524601Y-76686578D01*
X218524601Y-76686578D02*
X218667458Y-76775863D01*
X218667458Y-76775863D02*
X218738887Y-76927649D01*
X218738887Y-76927649D02*
X218738887Y-77141935D01*
X218738887Y-77141935D02*
X218667458Y-77275863D01*
X218738887Y-77784792D02*
X218738887Y-78356221D01*
X219238887Y-78061578D02*
X217953173Y-77900864D01*
X217953173Y-77900864D02*
X217810316Y-77954435D01*
X217810316Y-77954435D02*
X217738887Y-78088364D01*
X217738887Y-78088364D02*
X217738887Y-78231221D01*
X217810316Y-79311578D02*
X217738887Y-79159792D01*
X217738887Y-79159792D02*
X217738887Y-78874078D01*
X217738887Y-78874078D02*
X217810316Y-78740149D01*
X217810316Y-78740149D02*
X217953173Y-78686578D01*
X217953173Y-78686578D02*
X218524601Y-78758007D01*
X218524601Y-78758007D02*
X218667458Y-78847292D01*
X218667458Y-78847292D02*
X218738887Y-78999078D01*
X218738887Y-78999078D02*
X218738887Y-79284792D01*
X218738887Y-79284792D02*
X218667458Y-79418721D01*
X218667458Y-79418721D02*
X218524601Y-79472292D01*
X218524601Y-79472292D02*
X218381744Y-79454435D01*
X218381744Y-79454435D02*
X218238887Y-78722292D01*
X218738887Y-80141935D02*
X217238887Y-79954435D01*
X218667458Y-80133006D02*
X218738887Y-80284792D01*
X218738887Y-80284792D02*
X218738887Y-80570506D01*
X218738887Y-80570506D02*
X218667458Y-80704435D01*
X218667458Y-80704435D02*
X218596030Y-80766935D01*
X218596030Y-80766935D02*
X218453173Y-80820506D01*
X218453173Y-80820506D02*
X218024601Y-80766935D01*
X218024601Y-80766935D02*
X217881744Y-80677649D01*
X217881744Y-80677649D02*
X217810316Y-80597292D01*
X217810316Y-80597292D02*
X217738887Y-80445506D01*
X217738887Y-80445506D02*
X217738887Y-80159792D01*
X217738887Y-80159792D02*
X217810316Y-80025863D01*
X218738887Y-81499078D02*
X217238887Y-81311578D01*
X218667458Y-81490149D02*
X218738887Y-81641935D01*
X218738887Y-81641935D02*
X218738887Y-81927649D01*
X218738887Y-81927649D02*
X218667458Y-82061578D01*
X218667458Y-82061578D02*
X218596030Y-82124078D01*
X218596030Y-82124078D02*
X218453173Y-82177649D01*
X218453173Y-82177649D02*
X218024601Y-82124078D01*
X218024601Y-82124078D02*
X217881744Y-82034792D01*
X217881744Y-82034792D02*
X217810316Y-81954435D01*
X217810316Y-81954435D02*
X217738887Y-81802649D01*
X217738887Y-81802649D02*
X217738887Y-81516935D01*
X217738887Y-81516935D02*
X217810316Y-81383006D01*
X217810316Y-83311578D02*
X217738887Y-83159792D01*
X217738887Y-83159792D02*
X217738887Y-82874078D01*
X217738887Y-82874078D02*
X217810316Y-82740149D01*
X217810316Y-82740149D02*
X217953173Y-82686578D01*
X217953173Y-82686578D02*
X218524601Y-82758007D01*
X218524601Y-82758007D02*
X218667458Y-82847292D01*
X218667458Y-82847292D02*
X218738887Y-82999078D01*
X218738887Y-82999078D02*
X218738887Y-83284792D01*
X218738887Y-83284792D02*
X218667458Y-83418721D01*
X218667458Y-83418721D02*
X218524601Y-83472292D01*
X218524601Y-83472292D02*
X218381744Y-83454435D01*
X218381744Y-83454435D02*
X218238887Y-82722292D01*
X217738887Y-84016935D02*
X218738887Y-84141935D01*
X218453173Y-84106221D02*
X218596030Y-84195506D01*
X218596030Y-84195506D02*
X218667458Y-84275863D01*
X218667458Y-84275863D02*
X218738887Y-84427649D01*
X218738887Y-84427649D02*
X218738887Y-84570506D01*
X215323971Y-76659792D02*
X216323971Y-76784792D01*
X216181114Y-76766935D02*
X216252542Y-76847292D01*
X216252542Y-76847292D02*
X216323971Y-76999078D01*
X216323971Y-76999078D02*
X216323971Y-77213363D01*
X216323971Y-77213363D02*
X216252542Y-77347292D01*
X216252542Y-77347292D02*
X216109685Y-77400863D01*
X216109685Y-77400863D02*
X215323971Y-77302649D01*
X216109685Y-77400863D02*
X216252542Y-77490149D01*
X216252542Y-77490149D02*
X216323971Y-77641935D01*
X216323971Y-77641935D02*
X216323971Y-77856220D01*
X216323971Y-77856220D02*
X216252542Y-77990149D01*
X216252542Y-77990149D02*
X216109685Y-78043720D01*
X216109685Y-78043720D02*
X215323971Y-77945506D01*
X215323971Y-78874078D02*
X215395400Y-78740149D01*
X215395400Y-78740149D02*
X215466828Y-78677649D01*
X215466828Y-78677649D02*
X215609685Y-78624078D01*
X215609685Y-78624078D02*
X216038257Y-78677649D01*
X216038257Y-78677649D02*
X216181114Y-78766935D01*
X216181114Y-78766935D02*
X216252542Y-78847292D01*
X216252542Y-78847292D02*
X216323971Y-78999078D01*
X216323971Y-78999078D02*
X216323971Y-79213363D01*
X216323971Y-79213363D02*
X216252542Y-79347292D01*
X216252542Y-79347292D02*
X216181114Y-79409792D01*
X216181114Y-79409792D02*
X216038257Y-79463363D01*
X216038257Y-79463363D02*
X215609685Y-79409792D01*
X215609685Y-79409792D02*
X215466828Y-79320506D01*
X215466828Y-79320506D02*
X215395400Y-79240149D01*
X215395400Y-79240149D02*
X215323971Y-79088363D01*
X215323971Y-79088363D02*
X215323971Y-78874078D01*
X216323971Y-79927649D02*
X216323971Y-80499078D01*
X216823971Y-80204435D02*
X215538257Y-80043721D01*
X215538257Y-80043721D02*
X215395400Y-80097292D01*
X215395400Y-80097292D02*
X215323971Y-80231221D01*
X215323971Y-80231221D02*
X215323971Y-80374078D01*
X215323971Y-81088364D02*
X215395400Y-80954435D01*
X215395400Y-80954435D02*
X215466828Y-80891935D01*
X215466828Y-80891935D02*
X215609685Y-80838364D01*
X215609685Y-80838364D02*
X216038257Y-80891935D01*
X216038257Y-80891935D02*
X216181114Y-80981221D01*
X216181114Y-80981221D02*
X216252542Y-81061578D01*
X216252542Y-81061578D02*
X216323971Y-81213364D01*
X216323971Y-81213364D02*
X216323971Y-81427649D01*
X216323971Y-81427649D02*
X216252542Y-81561578D01*
X216252542Y-81561578D02*
X216181114Y-81624078D01*
X216181114Y-81624078D02*
X216038257Y-81677649D01*
X216038257Y-81677649D02*
X215609685Y-81624078D01*
X215609685Y-81624078D02*
X215466828Y-81534792D01*
X215466828Y-81534792D02*
X215395400Y-81454435D01*
X215395400Y-81454435D02*
X215323971Y-81302649D01*
X215323971Y-81302649D02*
X215323971Y-81088364D01*
X215323971Y-82231221D02*
X216323971Y-82356221D01*
X216038257Y-82320507D02*
X216181114Y-82409792D01*
X216181114Y-82409792D02*
X216252542Y-82490149D01*
X216252542Y-82490149D02*
X216323971Y-82641935D01*
X216323971Y-82641935D02*
X216323971Y-82784792D01*
D12*
X198677442Y-107244438D02*
X198927442Y-105244438D01*
X198927442Y-105244438D02*
X199415537Y-106673009D01*
X199415537Y-106673009D02*
X200260776Y-105244438D01*
X200260776Y-105244438D02*
X200010776Y-107244438D01*
X201248871Y-107244438D02*
X201070299Y-107149200D01*
X201070299Y-107149200D02*
X200986966Y-107053961D01*
X200986966Y-107053961D02*
X200915537Y-106863485D01*
X200915537Y-106863485D02*
X200986966Y-106292057D01*
X200986966Y-106292057D02*
X201106013Y-106101580D01*
X201106013Y-106101580D02*
X201213156Y-106006342D01*
X201213156Y-106006342D02*
X201415537Y-105911104D01*
X201415537Y-105911104D02*
X201701251Y-105911104D01*
X201701251Y-105911104D02*
X201879823Y-106006342D01*
X201879823Y-106006342D02*
X201963156Y-106101580D01*
X201963156Y-106101580D02*
X202034585Y-106292057D01*
X202034585Y-106292057D02*
X201963156Y-106863485D01*
X201963156Y-106863485D02*
X201844109Y-107053961D01*
X201844109Y-107053961D02*
X201736966Y-107149200D01*
X201736966Y-107149200D02*
X201534585Y-107244438D01*
X201534585Y-107244438D02*
X201248871Y-107244438D01*
X202653633Y-105911104D02*
X203415537Y-105911104D01*
X203022680Y-105244438D02*
X202808395Y-106958723D01*
X202808395Y-106958723D02*
X202879823Y-107149200D01*
X202879823Y-107149200D02*
X203058395Y-107244438D01*
X203058395Y-107244438D02*
X203248871Y-107244438D01*
X204201252Y-107244438D02*
X204022680Y-107149200D01*
X204022680Y-107149200D02*
X203939347Y-107053961D01*
X203939347Y-107053961D02*
X203867918Y-106863485D01*
X203867918Y-106863485D02*
X203939347Y-106292057D01*
X203939347Y-106292057D02*
X204058394Y-106101580D01*
X204058394Y-106101580D02*
X204165537Y-106006342D01*
X204165537Y-106006342D02*
X204367918Y-105911104D01*
X204367918Y-105911104D02*
X204653632Y-105911104D01*
X204653632Y-105911104D02*
X204832204Y-106006342D01*
X204832204Y-106006342D02*
X204915537Y-106101580D01*
X204915537Y-106101580D02*
X204986966Y-106292057D01*
X204986966Y-106292057D02*
X204915537Y-106863485D01*
X204915537Y-106863485D02*
X204796490Y-107053961D01*
X204796490Y-107053961D02*
X204689347Y-107149200D01*
X204689347Y-107149200D02*
X204486966Y-107244438D01*
X204486966Y-107244438D02*
X204201252Y-107244438D01*
X205725061Y-107244438D02*
X205891728Y-105911104D01*
X205844109Y-106292057D02*
X205963156Y-106101580D01*
X205963156Y-106101580D02*
X206070299Y-106006342D01*
X206070299Y-106006342D02*
X206272680Y-105911104D01*
X206272680Y-105911104D02*
X206463156Y-105911104D01*
X208403633Y-107149200D02*
X208677442Y-107244438D01*
X208677442Y-107244438D02*
X209153633Y-107244438D01*
X209153633Y-107244438D02*
X209356014Y-107149200D01*
X209356014Y-107149200D02*
X209463157Y-107053961D01*
X209463157Y-107053961D02*
X209582204Y-106863485D01*
X209582204Y-106863485D02*
X209606014Y-106673009D01*
X209606014Y-106673009D02*
X209534585Y-106482533D01*
X209534585Y-106482533D02*
X209451252Y-106387295D01*
X209451252Y-106387295D02*
X209272681Y-106292057D01*
X209272681Y-106292057D02*
X208903633Y-106196819D01*
X208903633Y-106196819D02*
X208725061Y-106101580D01*
X208725061Y-106101580D02*
X208641728Y-106006342D01*
X208641728Y-106006342D02*
X208570300Y-105815866D01*
X208570300Y-105815866D02*
X208594109Y-105625390D01*
X208594109Y-105625390D02*
X208713157Y-105434914D01*
X208713157Y-105434914D02*
X208820300Y-105339676D01*
X208820300Y-105339676D02*
X209022681Y-105244438D01*
X209022681Y-105244438D02*
X209498871Y-105244438D01*
X209498871Y-105244438D02*
X209772681Y-105339676D01*
X210558395Y-105911104D02*
X210308395Y-107911104D01*
X210546490Y-106006342D02*
X210748871Y-105911104D01*
X210748871Y-105911104D02*
X211129823Y-105911104D01*
X211129823Y-105911104D02*
X211308395Y-106006342D01*
X211308395Y-106006342D02*
X211391728Y-106101580D01*
X211391728Y-106101580D02*
X211463157Y-106292057D01*
X211463157Y-106292057D02*
X211391728Y-106863485D01*
X211391728Y-106863485D02*
X211272681Y-107053961D01*
X211272681Y-107053961D02*
X211165538Y-107149200D01*
X211165538Y-107149200D02*
X210963157Y-107244438D01*
X210963157Y-107244438D02*
X210582204Y-107244438D01*
X210582204Y-107244438D02*
X210403633Y-107149200D01*
X212975062Y-107149200D02*
X212772681Y-107244438D01*
X212772681Y-107244438D02*
X212391728Y-107244438D01*
X212391728Y-107244438D02*
X212213157Y-107149200D01*
X212213157Y-107149200D02*
X212141728Y-106958723D01*
X212141728Y-106958723D02*
X212236967Y-106196819D01*
X212236967Y-106196819D02*
X212356014Y-106006342D01*
X212356014Y-106006342D02*
X212558395Y-105911104D01*
X212558395Y-105911104D02*
X212939347Y-105911104D01*
X212939347Y-105911104D02*
X213117919Y-106006342D01*
X213117919Y-106006342D02*
X213189347Y-106196819D01*
X213189347Y-106196819D02*
X213165538Y-106387295D01*
X213165538Y-106387295D02*
X212189347Y-106577771D01*
X214689348Y-107149200D02*
X214486967Y-107244438D01*
X214486967Y-107244438D02*
X214106014Y-107244438D01*
X214106014Y-107244438D02*
X213927443Y-107149200D01*
X213927443Y-107149200D02*
X213856014Y-106958723D01*
X213856014Y-106958723D02*
X213951253Y-106196819D01*
X213951253Y-106196819D02*
X214070300Y-106006342D01*
X214070300Y-106006342D02*
X214272681Y-105911104D01*
X214272681Y-105911104D02*
X214653633Y-105911104D01*
X214653633Y-105911104D02*
X214832205Y-106006342D01*
X214832205Y-106006342D02*
X214903633Y-106196819D01*
X214903633Y-106196819D02*
X214879824Y-106387295D01*
X214879824Y-106387295D02*
X213903633Y-106577771D01*
X216486967Y-107244438D02*
X216736967Y-105244438D01*
X216498872Y-107149200D02*
X216296491Y-107244438D01*
X216296491Y-107244438D02*
X215915539Y-107244438D01*
X215915539Y-107244438D02*
X215736967Y-107149200D01*
X215736967Y-107149200D02*
X215653634Y-107053961D01*
X215653634Y-107053961D02*
X215582205Y-106863485D01*
X215582205Y-106863485D02*
X215653634Y-106292057D01*
X215653634Y-106292057D02*
X215772681Y-106101580D01*
X215772681Y-106101580D02*
X215879824Y-106006342D01*
X215879824Y-106006342D02*
X216082205Y-105911104D01*
X216082205Y-105911104D02*
X216463158Y-105911104D01*
X216463158Y-105911104D02*
X216641729Y-106006342D01*
D11*
X194563684Y-61267438D02*
X194474398Y-61219819D01*
X194474398Y-61219819D02*
X194331541Y-61219819D01*
X194331541Y-61219819D02*
X194182731Y-61267438D01*
X194182731Y-61267438D02*
X194075588Y-61362676D01*
X194075588Y-61362676D02*
X194016064Y-61457914D01*
X194016064Y-61457914D02*
X193944636Y-61648390D01*
X193944636Y-61648390D02*
X193926779Y-61791247D01*
X193926779Y-61791247D02*
X193950588Y-61981723D01*
X193950588Y-61981723D02*
X193986303Y-62076961D01*
X193986303Y-62076961D02*
X194069636Y-62172200D01*
X194069636Y-62172200D02*
X194206541Y-62219819D01*
X194206541Y-62219819D02*
X194301779Y-62219819D01*
X194301779Y-62219819D02*
X194450588Y-62172200D01*
X194450588Y-62172200D02*
X194504160Y-62124580D01*
X194504160Y-62124580D02*
X194545826Y-61791247D01*
X194545826Y-61791247D02*
X194355350Y-61791247D01*
X194920826Y-62219819D02*
X195045826Y-61219819D01*
X195045826Y-61219819D02*
X195492255Y-62219819D01*
X195492255Y-62219819D02*
X195617255Y-61219819D01*
X195968445Y-62219819D02*
X196093445Y-61219819D01*
X196093445Y-61219819D02*
X196331541Y-61219819D01*
X196331541Y-61219819D02*
X196468445Y-61267438D01*
X196468445Y-61267438D02*
X196551779Y-61362676D01*
X196551779Y-61362676D02*
X196587493Y-61457914D01*
X196587493Y-61457914D02*
X196611303Y-61648390D01*
X196611303Y-61648390D02*
X196593445Y-61791247D01*
X196593445Y-61791247D02*
X196522017Y-61981723D01*
X196522017Y-61981723D02*
X196462493Y-62076961D01*
X196462493Y-62076961D02*
X196355350Y-62172200D01*
X196355350Y-62172200D02*
X196206541Y-62219819D01*
X196206541Y-62219819D02*
X195968445Y-62219819D01*
X211108445Y-61678866D02*
X211870350Y-61678866D01*
X211441779Y-62059819D02*
X211537017Y-61297914D01*
X212822731Y-62059819D02*
X212251302Y-62059819D01*
X212537017Y-62059819D02*
X212662017Y-61059819D01*
X212662017Y-61059819D02*
X212548921Y-61202676D01*
X212548921Y-61202676D02*
X212441779Y-61297914D01*
X212441779Y-61297914D02*
X212340588Y-61345533D01*
X213316779Y-61155057D02*
X213370350Y-61107438D01*
X213370350Y-61107438D02*
X213471540Y-61059819D01*
X213471540Y-61059819D02*
X213709636Y-61059819D01*
X213709636Y-61059819D02*
X213798921Y-61107438D01*
X213798921Y-61107438D02*
X213840588Y-61155057D01*
X213840588Y-61155057D02*
X213876302Y-61250295D01*
X213876302Y-61250295D02*
X213864398Y-61345533D01*
X213864398Y-61345533D02*
X213798921Y-61488390D01*
X213798921Y-61488390D02*
X213156064Y-62059819D01*
X213156064Y-62059819D02*
X213775112Y-62059819D01*
X214185826Y-61059819D02*
X214394160Y-62059819D01*
X214394160Y-62059819D02*
X214852493Y-61059819D01*
X194603684Y-101397438D02*
X194514398Y-101349819D01*
X194514398Y-101349819D02*
X194371541Y-101349819D01*
X194371541Y-101349819D02*
X194222731Y-101397438D01*
X194222731Y-101397438D02*
X194115588Y-101492676D01*
X194115588Y-101492676D02*
X194056064Y-101587914D01*
X194056064Y-101587914D02*
X193984636Y-101778390D01*
X193984636Y-101778390D02*
X193966779Y-101921247D01*
X193966779Y-101921247D02*
X193990588Y-102111723D01*
X193990588Y-102111723D02*
X194026303Y-102206961D01*
X194026303Y-102206961D02*
X194109636Y-102302200D01*
X194109636Y-102302200D02*
X194246541Y-102349819D01*
X194246541Y-102349819D02*
X194341779Y-102349819D01*
X194341779Y-102349819D02*
X194490588Y-102302200D01*
X194490588Y-102302200D02*
X194544160Y-102254580D01*
X194544160Y-102254580D02*
X194585826Y-101921247D01*
X194585826Y-101921247D02*
X194395350Y-101921247D01*
X194960826Y-102349819D02*
X195085826Y-101349819D01*
X195085826Y-101349819D02*
X195532255Y-102349819D01*
X195532255Y-102349819D02*
X195657255Y-101349819D01*
X196008445Y-102349819D02*
X196133445Y-101349819D01*
X196133445Y-101349819D02*
X196371541Y-101349819D01*
X196371541Y-101349819D02*
X196508445Y-101397438D01*
X196508445Y-101397438D02*
X196591779Y-101492676D01*
X196591779Y-101492676D02*
X196627493Y-101587914D01*
X196627493Y-101587914D02*
X196651303Y-101778390D01*
X196651303Y-101778390D02*
X196633445Y-101921247D01*
X196633445Y-101921247D02*
X196562017Y-102111723D01*
X196562017Y-102111723D02*
X196502493Y-102206961D01*
X196502493Y-102206961D02*
X196395350Y-102302200D01*
X196395350Y-102302200D02*
X196246541Y-102349819D01*
X196246541Y-102349819D02*
X196008445Y-102349819D01*
X114298445Y-102748866D02*
X115060350Y-102748866D01*
X114631779Y-103129819D02*
X114727017Y-102367914D01*
X116090112Y-102129819D02*
X115613921Y-102129819D01*
X115613921Y-102129819D02*
X115506779Y-102606009D01*
X115506779Y-102606009D02*
X115560350Y-102558390D01*
X115560350Y-102558390D02*
X115661540Y-102510771D01*
X115661540Y-102510771D02*
X115899636Y-102510771D01*
X115899636Y-102510771D02*
X115988921Y-102558390D01*
X115988921Y-102558390D02*
X116030588Y-102606009D01*
X116030588Y-102606009D02*
X116066302Y-102701247D01*
X116066302Y-102701247D02*
X116036540Y-102939342D01*
X116036540Y-102939342D02*
X115977017Y-103034580D01*
X115977017Y-103034580D02*
X115923445Y-103082200D01*
X115923445Y-103082200D02*
X115822255Y-103129819D01*
X115822255Y-103129819D02*
X115584159Y-103129819D01*
X115584159Y-103129819D02*
X115494874Y-103082200D01*
X115494874Y-103082200D02*
X115453207Y-103034580D01*
X116423445Y-102129819D02*
X116631779Y-103129819D01*
X116631779Y-103129819D02*
X117090112Y-102129819D01*
X249993684Y-103507438D02*
X249904398Y-103459819D01*
X249904398Y-103459819D02*
X249761541Y-103459819D01*
X249761541Y-103459819D02*
X249612731Y-103507438D01*
X249612731Y-103507438D02*
X249505588Y-103602676D01*
X249505588Y-103602676D02*
X249446064Y-103697914D01*
X249446064Y-103697914D02*
X249374636Y-103888390D01*
X249374636Y-103888390D02*
X249356779Y-104031247D01*
X249356779Y-104031247D02*
X249380588Y-104221723D01*
X249380588Y-104221723D02*
X249416303Y-104316961D01*
X249416303Y-104316961D02*
X249499636Y-104412200D01*
X249499636Y-104412200D02*
X249636541Y-104459819D01*
X249636541Y-104459819D02*
X249731779Y-104459819D01*
X249731779Y-104459819D02*
X249880588Y-104412200D01*
X249880588Y-104412200D02*
X249934160Y-104364580D01*
X249934160Y-104364580D02*
X249975826Y-104031247D01*
X249975826Y-104031247D02*
X249785350Y-104031247D01*
X250350826Y-104459819D02*
X250475826Y-103459819D01*
X250475826Y-103459819D02*
X250922255Y-104459819D01*
X250922255Y-104459819D02*
X251047255Y-103459819D01*
X251398445Y-104459819D02*
X251523445Y-103459819D01*
X251523445Y-103459819D02*
X251761541Y-103459819D01*
X251761541Y-103459819D02*
X251898445Y-103507438D01*
X251898445Y-103507438D02*
X251981779Y-103602676D01*
X251981779Y-103602676D02*
X252017493Y-103697914D01*
X252017493Y-103697914D02*
X252041303Y-103888390D01*
X252041303Y-103888390D02*
X252023445Y-104031247D01*
X252023445Y-104031247D02*
X251952017Y-104221723D01*
X251952017Y-104221723D02*
X251892493Y-104316961D01*
X251892493Y-104316961D02*
X251785350Y-104412200D01*
X251785350Y-104412200D02*
X251636541Y-104459819D01*
X251636541Y-104459819D02*
X251398445Y-104459819D01*
X111504693Y-81093517D02*
X110797587Y-80386410D01*
X110797587Y-80386410D02*
X110965945Y-80218051D01*
X110965945Y-80218051D02*
X111100632Y-80150708D01*
X111100632Y-80150708D02*
X111235319Y-80150708D01*
X111235319Y-80150708D02*
X111336335Y-80184380D01*
X111336335Y-80184380D02*
X111504693Y-80285395D01*
X111504693Y-80285395D02*
X111605709Y-80386410D01*
X111605709Y-80386410D02*
X111706724Y-80554769D01*
X111706724Y-80554769D02*
X111740396Y-80655784D01*
X111740396Y-80655784D02*
X111740396Y-80790471D01*
X111740396Y-80790471D02*
X111673052Y-80925158D01*
X111673052Y-80925158D02*
X111504693Y-81093517D01*
X111807739Y-79376258D02*
X111673052Y-79510945D01*
X111673052Y-79510945D02*
X111639380Y-79611960D01*
X111639380Y-79611960D02*
X111639380Y-79679303D01*
X111639380Y-79679303D02*
X111673052Y-79847662D01*
X111673052Y-79847662D02*
X111774067Y-80016021D01*
X111774067Y-80016021D02*
X112043441Y-80285395D01*
X112043441Y-80285395D02*
X112144457Y-80319067D01*
X112144457Y-80319067D02*
X112211800Y-80319067D01*
X112211800Y-80319067D02*
X112312815Y-80285395D01*
X112312815Y-80285395D02*
X112447502Y-80150708D01*
X112447502Y-80150708D02*
X112481174Y-80049693D01*
X112481174Y-80049693D02*
X112481174Y-79982349D01*
X112481174Y-79982349D02*
X112447502Y-79881334D01*
X112447502Y-79881334D02*
X112279144Y-79712975D01*
X112279144Y-79712975D02*
X112178128Y-79679303D01*
X112178128Y-79679303D02*
X112110785Y-79679303D01*
X112110785Y-79679303D02*
X112009770Y-79712975D01*
X112009770Y-79712975D02*
X111875083Y-79847662D01*
X111875083Y-79847662D02*
X111841411Y-79948677D01*
X111841411Y-79948677D02*
X111841411Y-80016021D01*
X111841411Y-80016021D02*
X111875083Y-80117036D01*
X138327297Y-88874600D02*
X137754878Y-88773585D01*
X137923236Y-89278661D02*
X137216130Y-88571554D01*
X137216130Y-88571554D02*
X137485504Y-88302180D01*
X137485504Y-88302180D02*
X137586519Y-88268508D01*
X137586519Y-88268508D02*
X137653862Y-88268508D01*
X137653862Y-88268508D02*
X137754878Y-88302180D01*
X137754878Y-88302180D02*
X137855893Y-88403195D01*
X137855893Y-88403195D02*
X137889565Y-88504211D01*
X137889565Y-88504211D02*
X137889565Y-88571554D01*
X137889565Y-88571554D02*
X137855893Y-88672569D01*
X137855893Y-88672569D02*
X137586519Y-88941943D01*
X137956908Y-87965463D02*
X137956908Y-87898119D01*
X137956908Y-87898119D02*
X137990580Y-87797104D01*
X137990580Y-87797104D02*
X138158939Y-87628745D01*
X138158939Y-87628745D02*
X138259954Y-87595073D01*
X138259954Y-87595073D02*
X138327297Y-87595073D01*
X138327297Y-87595073D02*
X138428313Y-87628745D01*
X138428313Y-87628745D02*
X138495656Y-87696089D01*
X138495656Y-87696089D02*
X138563000Y-87830776D01*
X138563000Y-87830776D02*
X138563000Y-88638898D01*
X138563000Y-88638898D02*
X139000732Y-88201165D01*
X139337450Y-87864447D02*
X139472137Y-87729760D01*
X139472137Y-87729760D02*
X139505809Y-87628745D01*
X139505809Y-87628745D02*
X139505809Y-87561401D01*
X139505809Y-87561401D02*
X139472137Y-87393043D01*
X139472137Y-87393043D02*
X139371122Y-87224684D01*
X139371122Y-87224684D02*
X139101748Y-86955310D01*
X139101748Y-86955310D02*
X139000733Y-86921638D01*
X139000733Y-86921638D02*
X138933389Y-86921638D01*
X138933389Y-86921638D02*
X138832374Y-86955310D01*
X138832374Y-86955310D02*
X138697687Y-87089997D01*
X138697687Y-87089997D02*
X138664015Y-87191012D01*
X138664015Y-87191012D02*
X138664015Y-87258356D01*
X138664015Y-87258356D02*
X138697687Y-87359371D01*
X138697687Y-87359371D02*
X138866046Y-87527730D01*
X138866046Y-87527730D02*
X138967061Y-87561401D01*
X138967061Y-87561401D02*
X139034404Y-87561401D01*
X139034404Y-87561401D02*
X139135420Y-87527730D01*
X139135420Y-87527730D02*
X139270107Y-87393043D01*
X139270107Y-87393043D02*
X139303778Y-87292027D01*
X139303778Y-87292027D02*
X139303778Y-87224684D01*
X139303778Y-87224684D02*
X139270107Y-87123669D01*
X125299693Y-83278830D02*
X125299693Y-83346174D01*
X125299693Y-83346174D02*
X125232349Y-83480861D01*
X125232349Y-83480861D02*
X125165006Y-83548204D01*
X125165006Y-83548204D02*
X125030319Y-83615548D01*
X125030319Y-83615548D02*
X124895632Y-83615548D01*
X124895632Y-83615548D02*
X124794617Y-83581876D01*
X124794617Y-83581876D02*
X124626258Y-83480861D01*
X124626258Y-83480861D02*
X124525243Y-83379846D01*
X124525243Y-83379846D02*
X124424227Y-83211487D01*
X124424227Y-83211487D02*
X124390556Y-83110472D01*
X124390556Y-83110472D02*
X124390556Y-82975785D01*
X124390556Y-82975785D02*
X124457899Y-82841098D01*
X124457899Y-82841098D02*
X124525243Y-82773754D01*
X124525243Y-82773754D02*
X124659930Y-82706411D01*
X124659930Y-82706411D02*
X124727273Y-82706411D01*
X124996647Y-82437037D02*
X124996647Y-82369693D01*
X124996647Y-82369693D02*
X125030319Y-82268678D01*
X125030319Y-82268678D02*
X125198678Y-82100319D01*
X125198678Y-82100319D02*
X125299693Y-82066647D01*
X125299693Y-82066647D02*
X125367036Y-82066647D01*
X125367036Y-82066647D02*
X125468052Y-82100319D01*
X125468052Y-82100319D02*
X125535395Y-82167663D01*
X125535395Y-82167663D02*
X125602739Y-82302350D01*
X125602739Y-82302350D02*
X125602739Y-83110472D01*
X125602739Y-83110472D02*
X126040471Y-82672739D01*
X126040472Y-81864617D02*
X125939456Y-81898288D01*
X125939456Y-81898288D02*
X125872113Y-81898288D01*
X125872113Y-81898288D02*
X125771098Y-81864617D01*
X125771098Y-81864617D02*
X125737426Y-81830945D01*
X125737426Y-81830945D02*
X125703754Y-81729930D01*
X125703754Y-81729930D02*
X125703754Y-81662586D01*
X125703754Y-81662586D02*
X125737426Y-81561571D01*
X125737426Y-81561571D02*
X125872113Y-81426884D01*
X125872113Y-81426884D02*
X125973128Y-81393212D01*
X125973128Y-81393212D02*
X126040472Y-81393212D01*
X126040472Y-81393212D02*
X126141487Y-81426884D01*
X126141487Y-81426884D02*
X126175159Y-81460556D01*
X126175159Y-81460556D02*
X126208830Y-81561571D01*
X126208830Y-81561571D02*
X126208830Y-81628914D01*
X126208830Y-81628914D02*
X126175159Y-81729930D01*
X126175159Y-81729930D02*
X126040472Y-81864617D01*
X126040472Y-81864617D02*
X126006800Y-81965632D01*
X126006800Y-81965632D02*
X126006800Y-82032975D01*
X126006800Y-82032975D02*
X126040472Y-82133991D01*
X126040472Y-82133991D02*
X126175159Y-82268678D01*
X126175159Y-82268678D02*
X126276174Y-82302349D01*
X126276174Y-82302349D02*
X126343517Y-82302349D01*
X126343517Y-82302349D02*
X126444533Y-82268678D01*
X126444533Y-82268678D02*
X126579220Y-82133991D01*
X126579220Y-82133991D02*
X126612891Y-82032975D01*
X126612891Y-82032975D02*
X126612891Y-81965632D01*
X126612891Y-81965632D02*
X126579220Y-81864617D01*
X126579220Y-81864617D02*
X126444533Y-81729930D01*
X126444533Y-81729930D02*
X126343517Y-81696258D01*
X126343517Y-81696258D02*
X126276174Y-81696258D01*
X126276174Y-81696258D02*
X126175159Y-81729930D01*
X230834914Y-109523785D02*
X230834914Y-108523785D01*
X230834914Y-108523785D02*
X231073009Y-108523785D01*
X231073009Y-108523785D02*
X231215866Y-108571404D01*
X231215866Y-108571404D02*
X231311104Y-108666642D01*
X231311104Y-108666642D02*
X231358723Y-108761880D01*
X231358723Y-108761880D02*
X231406342Y-108952356D01*
X231406342Y-108952356D02*
X231406342Y-109095213D01*
X231406342Y-109095213D02*
X231358723Y-109285689D01*
X231358723Y-109285689D02*
X231311104Y-109380927D01*
X231311104Y-109380927D02*
X231215866Y-109476166D01*
X231215866Y-109476166D02*
X231073009Y-109523785D01*
X231073009Y-109523785D02*
X230834914Y-109523785D01*
X231787295Y-109476166D02*
X231930152Y-109523785D01*
X231930152Y-109523785D02*
X232168247Y-109523785D01*
X232168247Y-109523785D02*
X232263485Y-109476166D01*
X232263485Y-109476166D02*
X232311104Y-109428546D01*
X232311104Y-109428546D02*
X232358723Y-109333308D01*
X232358723Y-109333308D02*
X232358723Y-109238070D01*
X232358723Y-109238070D02*
X232311104Y-109142832D01*
X232311104Y-109142832D02*
X232263485Y-109095213D01*
X232263485Y-109095213D02*
X232168247Y-109047594D01*
X232168247Y-109047594D02*
X231977771Y-108999975D01*
X231977771Y-108999975D02*
X231882533Y-108952356D01*
X231882533Y-108952356D02*
X231834914Y-108904737D01*
X231834914Y-108904737D02*
X231787295Y-108809499D01*
X231787295Y-108809499D02*
X231787295Y-108714261D01*
X231787295Y-108714261D02*
X231834914Y-108619023D01*
X231834914Y-108619023D02*
X231882533Y-108571404D01*
X231882533Y-108571404D02*
X231977771Y-108523785D01*
X231977771Y-108523785D02*
X232215866Y-108523785D01*
X232215866Y-108523785D02*
X232358723Y-108571404D01*
X232787295Y-109523785D02*
X232787295Y-108523785D01*
X232787295Y-108523785D02*
X233168247Y-108523785D01*
X233168247Y-108523785D02*
X233263485Y-108571404D01*
X233263485Y-108571404D02*
X233311104Y-108619023D01*
X233311104Y-108619023D02*
X233358723Y-108714261D01*
X233358723Y-108714261D02*
X233358723Y-108857118D01*
X233358723Y-108857118D02*
X233311104Y-108952356D01*
X233311104Y-108952356D02*
X233263485Y-108999975D01*
X233263485Y-108999975D02*
X233168247Y-109047594D01*
X233168247Y-109047594D02*
X232787295Y-109047594D01*
X233739676Y-108619023D02*
X233787295Y-108571404D01*
X233787295Y-108571404D02*
X233882533Y-108523785D01*
X233882533Y-108523785D02*
X234120628Y-108523785D01*
X234120628Y-108523785D02*
X234215866Y-108571404D01*
X234215866Y-108571404D02*
X234263485Y-108619023D01*
X234263485Y-108619023D02*
X234311104Y-108714261D01*
X234311104Y-108714261D02*
X234311104Y-108809499D01*
X234311104Y-108809499D02*
X234263485Y-108952356D01*
X234263485Y-108952356D02*
X233692057Y-109523785D01*
X233692057Y-109523785D02*
X234311104Y-109523785D01*
X118897800Y-78421262D02*
X119470220Y-78993682D01*
X119470220Y-78993682D02*
X119571235Y-79027354D01*
X119571235Y-79027354D02*
X119638579Y-79027354D01*
X119638579Y-79027354D02*
X119739594Y-78993682D01*
X119739594Y-78993682D02*
X119874281Y-78858995D01*
X119874281Y-78858995D02*
X119907953Y-78757980D01*
X119907953Y-78757980D02*
X119907953Y-78690636D01*
X119907953Y-78690636D02*
X119874281Y-78589621D01*
X119874281Y-78589621D02*
X119301861Y-78017201D01*
X119571235Y-77747827D02*
X120008968Y-77310095D01*
X120008968Y-77310095D02*
X120042640Y-77815171D01*
X120042640Y-77815171D02*
X120143655Y-77714156D01*
X120143655Y-77714156D02*
X120244670Y-77680484D01*
X120244670Y-77680484D02*
X120312014Y-77680484D01*
X120312014Y-77680484D02*
X120413029Y-77714156D01*
X120413029Y-77714156D02*
X120581388Y-77882514D01*
X120581388Y-77882514D02*
X120615060Y-77983530D01*
X120615060Y-77983530D02*
X120615060Y-78050873D01*
X120615060Y-78050873D02*
X120581388Y-78151888D01*
X120581388Y-78151888D02*
X120379357Y-78353919D01*
X120379357Y-78353919D02*
X120278342Y-78387591D01*
X120278342Y-78387591D02*
X120210999Y-78387591D01*
X82977143Y-74244819D02*
X82643810Y-73768628D01*
X82405715Y-74244819D02*
X82405715Y-73244819D01*
X82405715Y-73244819D02*
X82786667Y-73244819D01*
X82786667Y-73244819D02*
X82881905Y-73292438D01*
X82881905Y-73292438D02*
X82929524Y-73340057D01*
X82929524Y-73340057D02*
X82977143Y-73435295D01*
X82977143Y-73435295D02*
X82977143Y-73578152D01*
X82977143Y-73578152D02*
X82929524Y-73673390D01*
X82929524Y-73673390D02*
X82881905Y-73721009D01*
X82881905Y-73721009D02*
X82786667Y-73768628D01*
X82786667Y-73768628D02*
X82405715Y-73768628D01*
X83929524Y-74244819D02*
X83358096Y-74244819D01*
X83643810Y-74244819D02*
X83643810Y-73244819D01*
X83643810Y-73244819D02*
X83548572Y-73387676D01*
X83548572Y-73387676D02*
X83453334Y-73482914D01*
X83453334Y-73482914D02*
X83358096Y-73530533D01*
X84500953Y-73673390D02*
X84405715Y-73625771D01*
X84405715Y-73625771D02*
X84358096Y-73578152D01*
X84358096Y-73578152D02*
X84310477Y-73482914D01*
X84310477Y-73482914D02*
X84310477Y-73435295D01*
X84310477Y-73435295D02*
X84358096Y-73340057D01*
X84358096Y-73340057D02*
X84405715Y-73292438D01*
X84405715Y-73292438D02*
X84500953Y-73244819D01*
X84500953Y-73244819D02*
X84691429Y-73244819D01*
X84691429Y-73244819D02*
X84786667Y-73292438D01*
X84786667Y-73292438D02*
X84834286Y-73340057D01*
X84834286Y-73340057D02*
X84881905Y-73435295D01*
X84881905Y-73435295D02*
X84881905Y-73482914D01*
X84881905Y-73482914D02*
X84834286Y-73578152D01*
X84834286Y-73578152D02*
X84786667Y-73625771D01*
X84786667Y-73625771D02*
X84691429Y-73673390D01*
X84691429Y-73673390D02*
X84500953Y-73673390D01*
X84500953Y-73673390D02*
X84405715Y-73721009D01*
X84405715Y-73721009D02*
X84358096Y-73768628D01*
X84358096Y-73768628D02*
X84310477Y-73863866D01*
X84310477Y-73863866D02*
X84310477Y-74054342D01*
X84310477Y-74054342D02*
X84358096Y-74149580D01*
X84358096Y-74149580D02*
X84405715Y-74197200D01*
X84405715Y-74197200D02*
X84500953Y-74244819D01*
X84500953Y-74244819D02*
X84691429Y-74244819D01*
X84691429Y-74244819D02*
X84786667Y-74197200D01*
X84786667Y-74197200D02*
X84834286Y-74149580D01*
X84834286Y-74149580D02*
X84881905Y-74054342D01*
X84881905Y-74054342D02*
X84881905Y-73863866D01*
X84881905Y-73863866D02*
X84834286Y-73768628D01*
X84834286Y-73768628D02*
X84786667Y-73721009D01*
X84786667Y-73721009D02*
X84691429Y-73673390D01*
X107344693Y-76923517D02*
X106637587Y-76216410D01*
X106637587Y-76216410D02*
X106805945Y-76048051D01*
X106805945Y-76048051D02*
X106940632Y-75980708D01*
X106940632Y-75980708D02*
X107075319Y-75980708D01*
X107075319Y-75980708D02*
X107176335Y-76014380D01*
X107176335Y-76014380D02*
X107344693Y-76115395D01*
X107344693Y-76115395D02*
X107445709Y-76216410D01*
X107445709Y-76216410D02*
X107546724Y-76384769D01*
X107546724Y-76384769D02*
X107580396Y-76485784D01*
X107580396Y-76485784D02*
X107580396Y-76620471D01*
X107580396Y-76620471D02*
X107513052Y-76755158D01*
X107513052Y-76755158D02*
X107344693Y-76923517D01*
X108422189Y-75846021D02*
X108018128Y-76250082D01*
X108220159Y-76048051D02*
X107513052Y-75340945D01*
X107513052Y-75340945D02*
X107546724Y-75509303D01*
X107546724Y-75509303D02*
X107546724Y-75643990D01*
X107546724Y-75643990D02*
X107513052Y-75745006D01*
X86774693Y-94613517D02*
X86067587Y-93906410D01*
X86067587Y-93906410D02*
X86235945Y-93738051D01*
X86235945Y-93738051D02*
X86370632Y-93670708D01*
X86370632Y-93670708D02*
X86505319Y-93670708D01*
X86505319Y-93670708D02*
X86606335Y-93704380D01*
X86606335Y-93704380D02*
X86774693Y-93805395D01*
X86774693Y-93805395D02*
X86875709Y-93906410D01*
X86875709Y-93906410D02*
X86976724Y-94074769D01*
X86976724Y-94074769D02*
X87010396Y-94175784D01*
X87010396Y-94175784D02*
X87010396Y-94310471D01*
X87010396Y-94310471D02*
X86943052Y-94445158D01*
X86943052Y-94445158D02*
X86774693Y-94613517D01*
X86707350Y-93266647D02*
X87145083Y-92828914D01*
X87145083Y-92828914D02*
X87178754Y-93333990D01*
X87178754Y-93333990D02*
X87279770Y-93232975D01*
X87279770Y-93232975D02*
X87380785Y-93199303D01*
X87380785Y-93199303D02*
X87448128Y-93199303D01*
X87448128Y-93199303D02*
X87549144Y-93232975D01*
X87549144Y-93232975D02*
X87717502Y-93401334D01*
X87717502Y-93401334D02*
X87751174Y-93502349D01*
X87751174Y-93502349D02*
X87751174Y-93569693D01*
X87751174Y-93569693D02*
X87717502Y-93670708D01*
X87717502Y-93670708D02*
X87515472Y-93872738D01*
X87515472Y-93872738D02*
X87414457Y-93906410D01*
X87414457Y-93906410D02*
X87347113Y-93906410D01*
X87937887Y-86716411D02*
X87870543Y-86716411D01*
X87870543Y-86716411D02*
X87735856Y-86649067D01*
X87735856Y-86649067D02*
X87668513Y-86581724D01*
X87668513Y-86581724D02*
X87601169Y-86447037D01*
X87601169Y-86447037D02*
X87601169Y-86312350D01*
X87601169Y-86312350D02*
X87634841Y-86211335D01*
X87634841Y-86211335D02*
X87735856Y-86042976D01*
X87735856Y-86042976D02*
X87836871Y-85941961D01*
X87836871Y-85941961D02*
X88005230Y-85840945D01*
X88005230Y-85840945D02*
X88106245Y-85807274D01*
X88106245Y-85807274D02*
X88240932Y-85807274D01*
X88240932Y-85807274D02*
X88375619Y-85874617D01*
X88375619Y-85874617D02*
X88442963Y-85941961D01*
X88442963Y-85941961D02*
X88510306Y-86076648D01*
X88510306Y-86076648D02*
X88510306Y-86143991D01*
X89217413Y-86716411D02*
X88880696Y-86379693D01*
X88880696Y-86379693D02*
X88510306Y-86682739D01*
X88510306Y-86682739D02*
X88577650Y-86682739D01*
X88577650Y-86682739D02*
X88678665Y-86716411D01*
X88678665Y-86716411D02*
X88847024Y-86884770D01*
X88847024Y-86884770D02*
X88880696Y-86985785D01*
X88880696Y-86985785D02*
X88880696Y-87053128D01*
X88880696Y-87053128D02*
X88847024Y-87154144D01*
X88847024Y-87154144D02*
X88678665Y-87322502D01*
X88678665Y-87322502D02*
X88577650Y-87356174D01*
X88577650Y-87356174D02*
X88510306Y-87356174D01*
X88510306Y-87356174D02*
X88409291Y-87322502D01*
X88409291Y-87322502D02*
X88240932Y-87154144D01*
X88240932Y-87154144D02*
X88207261Y-87053128D01*
X88207261Y-87053128D02*
X88207261Y-86985785D01*
X108806411Y-77522112D02*
X108806411Y-77589456D01*
X108806411Y-77589456D02*
X108739067Y-77724143D01*
X108739067Y-77724143D02*
X108671724Y-77791486D01*
X108671724Y-77791486D02*
X108537037Y-77858830D01*
X108537037Y-77858830D02*
X108402350Y-77858830D01*
X108402350Y-77858830D02*
X108301335Y-77825158D01*
X108301335Y-77825158D02*
X108132976Y-77724143D01*
X108132976Y-77724143D02*
X108031961Y-77623128D01*
X108031961Y-77623128D02*
X107930945Y-77454769D01*
X107930945Y-77454769D02*
X107897274Y-77353754D01*
X107897274Y-77353754D02*
X107897274Y-77219067D01*
X107897274Y-77219067D02*
X107964617Y-77084380D01*
X107964617Y-77084380D02*
X108031961Y-77017036D01*
X108031961Y-77017036D02*
X108166648Y-76949693D01*
X108166648Y-76949693D02*
X108233991Y-76949693D01*
X108772739Y-76276258D02*
X108638052Y-76410945D01*
X108638052Y-76410945D02*
X108604380Y-76511960D01*
X108604380Y-76511960D02*
X108604380Y-76579303D01*
X108604380Y-76579303D02*
X108638052Y-76747662D01*
X108638052Y-76747662D02*
X108739067Y-76916021D01*
X108739067Y-76916021D02*
X109008441Y-77185395D01*
X109008441Y-77185395D02*
X109109457Y-77219067D01*
X109109457Y-77219067D02*
X109176800Y-77219067D01*
X109176800Y-77219067D02*
X109277815Y-77185395D01*
X109277815Y-77185395D02*
X109412502Y-77050708D01*
X109412502Y-77050708D02*
X109446174Y-76949693D01*
X109446174Y-76949693D02*
X109446174Y-76882349D01*
X109446174Y-76882349D02*
X109412502Y-76781334D01*
X109412502Y-76781334D02*
X109244144Y-76612975D01*
X109244144Y-76612975D02*
X109143128Y-76579303D01*
X109143128Y-76579303D02*
X109075785Y-76579303D01*
X109075785Y-76579303D02*
X108974770Y-76612975D01*
X108974770Y-76612975D02*
X108840083Y-76747662D01*
X108840083Y-76747662D02*
X108806411Y-76848677D01*
X108806411Y-76848677D02*
X108806411Y-76916021D01*
X108806411Y-76916021D02*
X108840083Y-77017036D01*
X148695714Y-66854819D02*
X148695714Y-65854819D01*
X148695714Y-65854819D02*
X148933809Y-65854819D01*
X148933809Y-65854819D02*
X149076666Y-65902438D01*
X149076666Y-65902438D02*
X149171904Y-65997676D01*
X149171904Y-65997676D02*
X149219523Y-66092914D01*
X149219523Y-66092914D02*
X149267142Y-66283390D01*
X149267142Y-66283390D02*
X149267142Y-66426247D01*
X149267142Y-66426247D02*
X149219523Y-66616723D01*
X149219523Y-66616723D02*
X149171904Y-66711961D01*
X149171904Y-66711961D02*
X149076666Y-66807200D01*
X149076666Y-66807200D02*
X148933809Y-66854819D01*
X148933809Y-66854819D02*
X148695714Y-66854819D01*
X150219523Y-66854819D02*
X149648095Y-66854819D01*
X149933809Y-66854819D02*
X149933809Y-65854819D01*
X149933809Y-65854819D02*
X149838571Y-65997676D01*
X149838571Y-65997676D02*
X149743333Y-66092914D01*
X149743333Y-66092914D02*
X149648095Y-66140533D01*
X150695714Y-66854819D02*
X150886190Y-66854819D01*
X150886190Y-66854819D02*
X150981428Y-66807200D01*
X150981428Y-66807200D02*
X151029047Y-66759580D01*
X151029047Y-66759580D02*
X151124285Y-66616723D01*
X151124285Y-66616723D02*
X151171904Y-66426247D01*
X151171904Y-66426247D02*
X151171904Y-66045295D01*
X151171904Y-66045295D02*
X151124285Y-65950057D01*
X151124285Y-65950057D02*
X151076666Y-65902438D01*
X151076666Y-65902438D02*
X150981428Y-65854819D01*
X150981428Y-65854819D02*
X150790952Y-65854819D01*
X150790952Y-65854819D02*
X150695714Y-65902438D01*
X150695714Y-65902438D02*
X150648095Y-65950057D01*
X150648095Y-65950057D02*
X150600476Y-66045295D01*
X150600476Y-66045295D02*
X150600476Y-66283390D01*
X150600476Y-66283390D02*
X150648095Y-66378628D01*
X150648095Y-66378628D02*
X150695714Y-66426247D01*
X150695714Y-66426247D02*
X150790952Y-66473866D01*
X150790952Y-66473866D02*
X150981428Y-66473866D01*
X150981428Y-66473866D02*
X151076666Y-66426247D01*
X151076666Y-66426247D02*
X151124285Y-66378628D01*
X151124285Y-66378628D02*
X151171904Y-66283390D01*
X154295714Y-72024819D02*
X153724286Y-72024819D01*
X154010000Y-72024819D02*
X154010000Y-71024819D01*
X154010000Y-71024819D02*
X153914762Y-71167676D01*
X153914762Y-71167676D02*
X153819524Y-71262914D01*
X153819524Y-71262914D02*
X153724286Y-71310533D01*
X75196666Y-61114819D02*
X75196666Y-61829104D01*
X75196666Y-61829104D02*
X75149047Y-61971961D01*
X75149047Y-61971961D02*
X75053809Y-62067200D01*
X75053809Y-62067200D02*
X74910952Y-62114819D01*
X74910952Y-62114819D02*
X74815714Y-62114819D01*
X75625238Y-61210057D02*
X75672857Y-61162438D01*
X75672857Y-61162438D02*
X75768095Y-61114819D01*
X75768095Y-61114819D02*
X76006190Y-61114819D01*
X76006190Y-61114819D02*
X76101428Y-61162438D01*
X76101428Y-61162438D02*
X76149047Y-61210057D01*
X76149047Y-61210057D02*
X76196666Y-61305295D01*
X76196666Y-61305295D02*
X76196666Y-61400533D01*
X76196666Y-61400533D02*
X76149047Y-61543390D01*
X76149047Y-61543390D02*
X75577619Y-62114819D01*
X75577619Y-62114819D02*
X76196666Y-62114819D01*
X85044761Y-64050057D02*
X84949523Y-64002438D01*
X84949523Y-64002438D02*
X84854285Y-63907200D01*
X84854285Y-63907200D02*
X84711428Y-63764342D01*
X84711428Y-63764342D02*
X84616190Y-63716723D01*
X84616190Y-63716723D02*
X84520952Y-63716723D01*
X84568571Y-63954819D02*
X84473333Y-63907200D01*
X84473333Y-63907200D02*
X84378095Y-63811961D01*
X84378095Y-63811961D02*
X84330476Y-63621485D01*
X84330476Y-63621485D02*
X84330476Y-63288152D01*
X84330476Y-63288152D02*
X84378095Y-63097676D01*
X84378095Y-63097676D02*
X84473333Y-63002438D01*
X84473333Y-63002438D02*
X84568571Y-62954819D01*
X84568571Y-62954819D02*
X84759047Y-62954819D01*
X84759047Y-62954819D02*
X84854285Y-63002438D01*
X84854285Y-63002438D02*
X84949523Y-63097676D01*
X84949523Y-63097676D02*
X84997142Y-63288152D01*
X84997142Y-63288152D02*
X84997142Y-63621485D01*
X84997142Y-63621485D02*
X84949523Y-63811961D01*
X84949523Y-63811961D02*
X84854285Y-63907200D01*
X84854285Y-63907200D02*
X84759047Y-63954819D01*
X84759047Y-63954819D02*
X84568571Y-63954819D01*
X85949523Y-63954819D02*
X85378095Y-63954819D01*
X85663809Y-63954819D02*
X85663809Y-62954819D01*
X85663809Y-62954819D02*
X85568571Y-63097676D01*
X85568571Y-63097676D02*
X85473333Y-63192914D01*
X85473333Y-63192914D02*
X85378095Y-63240533D01*
X89720128Y-72703024D02*
X89821143Y-72130605D01*
X89316067Y-72298963D02*
X90023174Y-71591857D01*
X90023174Y-71591857D02*
X90292548Y-71861231D01*
X90292548Y-71861231D02*
X90326220Y-71962246D01*
X90326220Y-71962246D02*
X90326220Y-72029589D01*
X90326220Y-72029589D02*
X90292548Y-72130605D01*
X90292548Y-72130605D02*
X90191533Y-72231620D01*
X90191533Y-72231620D02*
X90090517Y-72265292D01*
X90090517Y-72265292D02*
X90023174Y-72265292D01*
X90023174Y-72265292D02*
X89922159Y-72231620D01*
X89922159Y-72231620D02*
X89652785Y-71962246D01*
X90662937Y-72231620D02*
X91100670Y-72669353D01*
X91100670Y-72669353D02*
X90595594Y-72703024D01*
X90595594Y-72703024D02*
X90696609Y-72804040D01*
X90696609Y-72804040D02*
X90730281Y-72905055D01*
X90730281Y-72905055D02*
X90730281Y-72972398D01*
X90730281Y-72972398D02*
X90696609Y-73073414D01*
X90696609Y-73073414D02*
X90528250Y-73241772D01*
X90528250Y-73241772D02*
X90427235Y-73275444D01*
X90427235Y-73275444D02*
X90359891Y-73275444D01*
X90359891Y-73275444D02*
X90258876Y-73241772D01*
X90258876Y-73241772D02*
X90056846Y-73039742D01*
X90056846Y-73039742D02*
X90023174Y-72938727D01*
X90023174Y-72938727D02*
X90023174Y-72871383D01*
X91740433Y-73309116D02*
X91403716Y-72972398D01*
X91403716Y-72972398D02*
X91033327Y-73275444D01*
X91033327Y-73275444D02*
X91100670Y-73275444D01*
X91100670Y-73275444D02*
X91201685Y-73309116D01*
X91201685Y-73309116D02*
X91370044Y-73477475D01*
X91370044Y-73477475D02*
X91403716Y-73578490D01*
X91403716Y-73578490D02*
X91403716Y-73645834D01*
X91403716Y-73645834D02*
X91370044Y-73746849D01*
X91370044Y-73746849D02*
X91201685Y-73915208D01*
X91201685Y-73915208D02*
X91100670Y-73948879D01*
X91100670Y-73948879D02*
X91033327Y-73948879D01*
X91033327Y-73948879D02*
X90932311Y-73915208D01*
X90932311Y-73915208D02*
X90763953Y-73746849D01*
X90763953Y-73746849D02*
X90730281Y-73645834D01*
X90730281Y-73645834D02*
X90730281Y-73578490D01*
X98793932Y-78860280D02*
X98894947Y-78287861D01*
X98389871Y-78456219D02*
X99096978Y-77749113D01*
X99096978Y-77749113D02*
X99366352Y-78018487D01*
X99366352Y-78018487D02*
X99400024Y-78119502D01*
X99400024Y-78119502D02*
X99400024Y-78186845D01*
X99400024Y-78186845D02*
X99366352Y-78287861D01*
X99366352Y-78287861D02*
X99265337Y-78388876D01*
X99265337Y-78388876D02*
X99164321Y-78422548D01*
X99164321Y-78422548D02*
X99096978Y-78422548D01*
X99096978Y-78422548D02*
X98995963Y-78388876D01*
X98995963Y-78388876D02*
X98726589Y-78119502D01*
X99736741Y-78388876D02*
X100174474Y-78826609D01*
X100174474Y-78826609D02*
X99669398Y-78860280D01*
X99669398Y-78860280D02*
X99770413Y-78961296D01*
X99770413Y-78961296D02*
X99804085Y-79062311D01*
X99804085Y-79062311D02*
X99804085Y-79129654D01*
X99804085Y-79129654D02*
X99770413Y-79230670D01*
X99770413Y-79230670D02*
X99602054Y-79399028D01*
X99602054Y-79399028D02*
X99501039Y-79432700D01*
X99501039Y-79432700D02*
X99433695Y-79432700D01*
X99433695Y-79432700D02*
X99332680Y-79399028D01*
X99332680Y-79399028D02*
X99130650Y-79196998D01*
X99130650Y-79196998D02*
X99096978Y-79095983D01*
X99096978Y-79095983D02*
X99096978Y-79028639D01*
X100410176Y-79062311D02*
X100847909Y-79500044D01*
X100847909Y-79500044D02*
X100342833Y-79533716D01*
X100342833Y-79533716D02*
X100443848Y-79634731D01*
X100443848Y-79634731D02*
X100477520Y-79735746D01*
X100477520Y-79735746D02*
X100477520Y-79803090D01*
X100477520Y-79803090D02*
X100443848Y-79904105D01*
X100443848Y-79904105D02*
X100275489Y-80072464D01*
X100275489Y-80072464D02*
X100174474Y-80106135D01*
X100174474Y-80106135D02*
X100107131Y-80106135D01*
X100107131Y-80106135D02*
X100006115Y-80072464D01*
X100006115Y-80072464D02*
X99804085Y-79870433D01*
X99804085Y-79870433D02*
X99770413Y-79769418D01*
X99770413Y-79769418D02*
X99770413Y-79702074D01*
X124885197Y-100280232D02*
X124312778Y-100179217D01*
X124481136Y-100684293D02*
X123774030Y-99977186D01*
X123774030Y-99977186D02*
X124043404Y-99707812D01*
X124043404Y-99707812D02*
X124144419Y-99674140D01*
X124144419Y-99674140D02*
X124211762Y-99674140D01*
X124211762Y-99674140D02*
X124312778Y-99707812D01*
X124312778Y-99707812D02*
X124413793Y-99808827D01*
X124413793Y-99808827D02*
X124447465Y-99909843D01*
X124447465Y-99909843D02*
X124447465Y-99977186D01*
X124447465Y-99977186D02*
X124413793Y-100078201D01*
X124413793Y-100078201D02*
X124144419Y-100347575D01*
X124413793Y-99337423D02*
X124851526Y-98899690D01*
X124851526Y-98899690D02*
X124885197Y-99404766D01*
X124885197Y-99404766D02*
X124986213Y-99303751D01*
X124986213Y-99303751D02*
X125087228Y-99270079D01*
X125087228Y-99270079D02*
X125154571Y-99270079D01*
X125154571Y-99270079D02*
X125255587Y-99303751D01*
X125255587Y-99303751D02*
X125423945Y-99472110D01*
X125423945Y-99472110D02*
X125457617Y-99573125D01*
X125457617Y-99573125D02*
X125457617Y-99640469D01*
X125457617Y-99640469D02*
X125423945Y-99741484D01*
X125423945Y-99741484D02*
X125221915Y-99943514D01*
X125221915Y-99943514D02*
X125120900Y-99977186D01*
X125120900Y-99977186D02*
X125053556Y-99977186D01*
X125289259Y-98461957D02*
X125356602Y-98394614D01*
X125356602Y-98394614D02*
X125457617Y-98360942D01*
X125457617Y-98360942D02*
X125524961Y-98360942D01*
X125524961Y-98360942D02*
X125625976Y-98394614D01*
X125625976Y-98394614D02*
X125794335Y-98495629D01*
X125794335Y-98495629D02*
X125962694Y-98663988D01*
X125962694Y-98663988D02*
X126063709Y-98832346D01*
X126063709Y-98832346D02*
X126097381Y-98933362D01*
X126097381Y-98933362D02*
X126097381Y-99000705D01*
X126097381Y-99000705D02*
X126063709Y-99101720D01*
X126063709Y-99101720D02*
X125996365Y-99169064D01*
X125996365Y-99169064D02*
X125895350Y-99202736D01*
X125895350Y-99202736D02*
X125828007Y-99202736D01*
X125828007Y-99202736D02*
X125726991Y-99169064D01*
X125726991Y-99169064D02*
X125558633Y-99068049D01*
X125558633Y-99068049D02*
X125390274Y-98899690D01*
X125390274Y-98899690D02*
X125289259Y-98731331D01*
X125289259Y-98731331D02*
X125255587Y-98630316D01*
X125255587Y-98630316D02*
X125255587Y-98562972D01*
X125255587Y-98562972D02*
X125289259Y-98461957D01*
X96197036Y-104706174D02*
X95624617Y-104605159D01*
X95792975Y-105110235D02*
X95085869Y-104403128D01*
X95085869Y-104403128D02*
X95355243Y-104133754D01*
X95355243Y-104133754D02*
X95456258Y-104100082D01*
X95456258Y-104100082D02*
X95523601Y-104100082D01*
X95523601Y-104100082D02*
X95624617Y-104133754D01*
X95624617Y-104133754D02*
X95725632Y-104234769D01*
X95725632Y-104234769D02*
X95759304Y-104335785D01*
X95759304Y-104335785D02*
X95759304Y-104403128D01*
X95759304Y-104403128D02*
X95725632Y-104504143D01*
X95725632Y-104504143D02*
X95456258Y-104773517D01*
X96870471Y-104032739D02*
X96466410Y-104436800D01*
X96668441Y-104234769D02*
X95961334Y-103527663D01*
X95961334Y-103527663D02*
X95995006Y-103696021D01*
X95995006Y-103696021D02*
X95995006Y-103830708D01*
X95995006Y-103830708D02*
X95961334Y-103931724D01*
X96399067Y-103089930D02*
X96870472Y-102618525D01*
X96870472Y-102618525D02*
X97274533Y-103628678D01*
X164096667Y-78677200D02*
X164239524Y-78724819D01*
X164239524Y-78724819D02*
X164477619Y-78724819D01*
X164477619Y-78724819D02*
X164572857Y-78677200D01*
X164572857Y-78677200D02*
X164620476Y-78629580D01*
X164620476Y-78629580D02*
X164668095Y-78534342D01*
X164668095Y-78534342D02*
X164668095Y-78439104D01*
X164668095Y-78439104D02*
X164620476Y-78343866D01*
X164620476Y-78343866D02*
X164572857Y-78296247D01*
X164572857Y-78296247D02*
X164477619Y-78248628D01*
X164477619Y-78248628D02*
X164287143Y-78201009D01*
X164287143Y-78201009D02*
X164191905Y-78153390D01*
X164191905Y-78153390D02*
X164144286Y-78105771D01*
X164144286Y-78105771D02*
X164096667Y-78010533D01*
X164096667Y-78010533D02*
X164096667Y-77915295D01*
X164096667Y-77915295D02*
X164144286Y-77820057D01*
X164144286Y-77820057D02*
X164191905Y-77772438D01*
X164191905Y-77772438D02*
X164287143Y-77724819D01*
X164287143Y-77724819D02*
X164525238Y-77724819D01*
X164525238Y-77724819D02*
X164668095Y-77772438D01*
X165001429Y-77724819D02*
X165239524Y-78724819D01*
X165239524Y-78724819D02*
X165430000Y-78010533D01*
X165430000Y-78010533D02*
X165620476Y-78724819D01*
X165620476Y-78724819D02*
X165858572Y-77724819D01*
X166668095Y-78058152D02*
X166668095Y-78724819D01*
X166430000Y-77677200D02*
X166191905Y-78391485D01*
X166191905Y-78391485D02*
X166810952Y-78391485D01*
X85864819Y-118314285D02*
X84864819Y-118314285D01*
X84864819Y-118314285D02*
X84864819Y-118076190D01*
X84864819Y-118076190D02*
X84912438Y-117933333D01*
X84912438Y-117933333D02*
X85007676Y-117838095D01*
X85007676Y-117838095D02*
X85102914Y-117790476D01*
X85102914Y-117790476D02*
X85293390Y-117742857D01*
X85293390Y-117742857D02*
X85436247Y-117742857D01*
X85436247Y-117742857D02*
X85626723Y-117790476D01*
X85626723Y-117790476D02*
X85721961Y-117838095D01*
X85721961Y-117838095D02*
X85817200Y-117933333D01*
X85817200Y-117933333D02*
X85864819Y-118076190D01*
X85864819Y-118076190D02*
X85864819Y-118314285D01*
X85864819Y-116790476D02*
X85864819Y-117361904D01*
X85864819Y-117076190D02*
X84864819Y-117076190D01*
X84864819Y-117076190D02*
X85007676Y-117171428D01*
X85007676Y-117171428D02*
X85102914Y-117266666D01*
X85102914Y-117266666D02*
X85150533Y-117361904D01*
X85198152Y-115933333D02*
X85864819Y-115933333D01*
X84817200Y-116171428D02*
X85531485Y-116409523D01*
X85531485Y-116409523D02*
X85531485Y-115790476D01*
X77045714Y-116334819D02*
X76474286Y-116334819D01*
X76760000Y-116334819D02*
X76760000Y-115334819D01*
X76760000Y-115334819D02*
X76664762Y-115477676D01*
X76664762Y-115477676D02*
X76569524Y-115572914D01*
X76569524Y-115572914D02*
X76474286Y-115620533D01*
X123505328Y-99623633D02*
X122798222Y-98916526D01*
X122798222Y-98916526D02*
X122966580Y-98748167D01*
X122966580Y-98748167D02*
X123101267Y-98680824D01*
X123101267Y-98680824D02*
X123235954Y-98680824D01*
X123235954Y-98680824D02*
X123336970Y-98714496D01*
X123336970Y-98714496D02*
X123505328Y-98815511D01*
X123505328Y-98815511D02*
X123606344Y-98916526D01*
X123606344Y-98916526D02*
X123707359Y-99084885D01*
X123707359Y-99084885D02*
X123741031Y-99185900D01*
X123741031Y-99185900D02*
X123741031Y-99320587D01*
X123741031Y-99320587D02*
X123673687Y-99455274D01*
X123673687Y-99455274D02*
X123505328Y-99623633D01*
X124582824Y-98546137D02*
X124178763Y-98950198D01*
X124380794Y-98748167D02*
X123673687Y-98041061D01*
X123673687Y-98041061D02*
X123707359Y-98209419D01*
X123707359Y-98209419D02*
X123707359Y-98344106D01*
X123707359Y-98344106D02*
X123673687Y-98445122D01*
X124582825Y-97738015D02*
X124481809Y-97771686D01*
X124481809Y-97771686D02*
X124414466Y-97771686D01*
X124414466Y-97771686D02*
X124313451Y-97738015D01*
X124313451Y-97738015D02*
X124279779Y-97704343D01*
X124279779Y-97704343D02*
X124246107Y-97603328D01*
X124246107Y-97603328D02*
X124246107Y-97535984D01*
X124246107Y-97535984D02*
X124279779Y-97434969D01*
X124279779Y-97434969D02*
X124414466Y-97300282D01*
X124414466Y-97300282D02*
X124515481Y-97266610D01*
X124515481Y-97266610D02*
X124582825Y-97266610D01*
X124582825Y-97266610D02*
X124683840Y-97300282D01*
X124683840Y-97300282D02*
X124717512Y-97333954D01*
X124717512Y-97333954D02*
X124751183Y-97434969D01*
X124751183Y-97434969D02*
X124751183Y-97502312D01*
X124751183Y-97502312D02*
X124717512Y-97603328D01*
X124717512Y-97603328D02*
X124582825Y-97738015D01*
X124582825Y-97738015D02*
X124549153Y-97839030D01*
X124549153Y-97839030D02*
X124549153Y-97906373D01*
X124549153Y-97906373D02*
X124582825Y-98007389D01*
X124582825Y-98007389D02*
X124717512Y-98142076D01*
X124717512Y-98142076D02*
X124818527Y-98175747D01*
X124818527Y-98175747D02*
X124885870Y-98175747D01*
X124885870Y-98175747D02*
X124986886Y-98142076D01*
X124986886Y-98142076D02*
X125121573Y-98007389D01*
X125121573Y-98007389D02*
X125155244Y-97906373D01*
X125155244Y-97906373D02*
X125155244Y-97839030D01*
X125155244Y-97839030D02*
X125121573Y-97738015D01*
X125121573Y-97738015D02*
X124986886Y-97603328D01*
X124986886Y-97603328D02*
X124885870Y-97569656D01*
X124885870Y-97569656D02*
X124818527Y-97569656D01*
X124818527Y-97569656D02*
X124717512Y-97603328D01*
X180285714Y-66774819D02*
X180285714Y-65774819D01*
X180285714Y-65774819D02*
X180523809Y-65774819D01*
X180523809Y-65774819D02*
X180666666Y-65822438D01*
X180666666Y-65822438D02*
X180761904Y-65917676D01*
X180761904Y-65917676D02*
X180809523Y-66012914D01*
X180809523Y-66012914D02*
X180857142Y-66203390D01*
X180857142Y-66203390D02*
X180857142Y-66346247D01*
X180857142Y-66346247D02*
X180809523Y-66536723D01*
X180809523Y-66536723D02*
X180761904Y-66631961D01*
X180761904Y-66631961D02*
X180666666Y-66727200D01*
X180666666Y-66727200D02*
X180523809Y-66774819D01*
X180523809Y-66774819D02*
X180285714Y-66774819D01*
X181238095Y-65870057D02*
X181285714Y-65822438D01*
X181285714Y-65822438D02*
X181380952Y-65774819D01*
X181380952Y-65774819D02*
X181619047Y-65774819D01*
X181619047Y-65774819D02*
X181714285Y-65822438D01*
X181714285Y-65822438D02*
X181761904Y-65870057D01*
X181761904Y-65870057D02*
X181809523Y-65965295D01*
X181809523Y-65965295D02*
X181809523Y-66060533D01*
X181809523Y-66060533D02*
X181761904Y-66203390D01*
X181761904Y-66203390D02*
X181190476Y-66774819D01*
X181190476Y-66774819D02*
X181809523Y-66774819D01*
X182761904Y-66774819D02*
X182190476Y-66774819D01*
X182476190Y-66774819D02*
X182476190Y-65774819D01*
X182476190Y-65774819D02*
X182380952Y-65917676D01*
X182380952Y-65917676D02*
X182285714Y-66012914D01*
X182285714Y-66012914D02*
X182190476Y-66060533D01*
X185835714Y-72134819D02*
X185264286Y-72134819D01*
X185550000Y-72134819D02*
X185550000Y-71134819D01*
X185550000Y-71134819D02*
X185454762Y-71277676D01*
X185454762Y-71277676D02*
X185359524Y-71372914D01*
X185359524Y-71372914D02*
X185264286Y-71420533D01*
X109776411Y-78432112D02*
X109776411Y-78499456D01*
X109776411Y-78499456D02*
X109709067Y-78634143D01*
X109709067Y-78634143D02*
X109641724Y-78701486D01*
X109641724Y-78701486D02*
X109507037Y-78768830D01*
X109507037Y-78768830D02*
X109372350Y-78768830D01*
X109372350Y-78768830D02*
X109271335Y-78735158D01*
X109271335Y-78735158D02*
X109102976Y-78634143D01*
X109102976Y-78634143D02*
X109001961Y-78533128D01*
X109001961Y-78533128D02*
X108900945Y-78364769D01*
X108900945Y-78364769D02*
X108867274Y-78263754D01*
X108867274Y-78263754D02*
X108867274Y-78129067D01*
X108867274Y-78129067D02*
X108934617Y-77994380D01*
X108934617Y-77994380D02*
X109001961Y-77927036D01*
X109001961Y-77927036D02*
X109136648Y-77859693D01*
X109136648Y-77859693D02*
X109203991Y-77859693D01*
X109978441Y-77421960D02*
X110449846Y-77893364D01*
X109540709Y-77320945D02*
X109877426Y-77994380D01*
X109877426Y-77994380D02*
X110315159Y-77556647D01*
X122770948Y-98279120D02*
X122198529Y-98178105D01*
X122366887Y-98683181D02*
X121659781Y-97976074D01*
X121659781Y-97976074D02*
X121929155Y-97706700D01*
X121929155Y-97706700D02*
X122030170Y-97673028D01*
X122030170Y-97673028D02*
X122097513Y-97673028D01*
X122097513Y-97673028D02*
X122198529Y-97706700D01*
X122198529Y-97706700D02*
X122299544Y-97807715D01*
X122299544Y-97807715D02*
X122333216Y-97908731D01*
X122333216Y-97908731D02*
X122333216Y-97976074D01*
X122333216Y-97976074D02*
X122299544Y-98077089D01*
X122299544Y-98077089D02*
X122030170Y-98346463D01*
X122400559Y-97369983D02*
X122400559Y-97302639D01*
X122400559Y-97302639D02*
X122434231Y-97201624D01*
X122434231Y-97201624D02*
X122602590Y-97033265D01*
X122602590Y-97033265D02*
X122703605Y-96999593D01*
X122703605Y-96999593D02*
X122770948Y-96999593D01*
X122770948Y-96999593D02*
X122871964Y-97033265D01*
X122871964Y-97033265D02*
X122939307Y-97100609D01*
X122939307Y-97100609D02*
X123006651Y-97235296D01*
X123006651Y-97235296D02*
X123006651Y-98043418D01*
X123006651Y-98043418D02*
X123444383Y-97605685D01*
X123444384Y-96797563D02*
X123343368Y-96831234D01*
X123343368Y-96831234D02*
X123276025Y-96831234D01*
X123276025Y-96831234D02*
X123175010Y-96797563D01*
X123175010Y-96797563D02*
X123141338Y-96763891D01*
X123141338Y-96763891D02*
X123107666Y-96662876D01*
X123107666Y-96662876D02*
X123107666Y-96595532D01*
X123107666Y-96595532D02*
X123141338Y-96494517D01*
X123141338Y-96494517D02*
X123276025Y-96359830D01*
X123276025Y-96359830D02*
X123377040Y-96326158D01*
X123377040Y-96326158D02*
X123444384Y-96326158D01*
X123444384Y-96326158D02*
X123545399Y-96359830D01*
X123545399Y-96359830D02*
X123579071Y-96393502D01*
X123579071Y-96393502D02*
X123612742Y-96494517D01*
X123612742Y-96494517D02*
X123612742Y-96561860D01*
X123612742Y-96561860D02*
X123579071Y-96662876D01*
X123579071Y-96662876D02*
X123444384Y-96797563D01*
X123444384Y-96797563D02*
X123410712Y-96898578D01*
X123410712Y-96898578D02*
X123410712Y-96965921D01*
X123410712Y-96965921D02*
X123444384Y-97066937D01*
X123444384Y-97066937D02*
X123579071Y-97201624D01*
X123579071Y-97201624D02*
X123680086Y-97235295D01*
X123680086Y-97235295D02*
X123747429Y-97235295D01*
X123747429Y-97235295D02*
X123848445Y-97201624D01*
X123848445Y-97201624D02*
X123983132Y-97066937D01*
X123983132Y-97066937D02*
X124016803Y-96965921D01*
X124016803Y-96965921D02*
X124016803Y-96898578D01*
X124016803Y-96898578D02*
X123983132Y-96797563D01*
X123983132Y-96797563D02*
X123848445Y-96662876D01*
X123848445Y-96662876D02*
X123747429Y-96629204D01*
X123747429Y-96629204D02*
X123680086Y-96629204D01*
X123680086Y-96629204D02*
X123579071Y-96662876D01*
X135279667Y-85727975D02*
X134707248Y-85626960D01*
X134875606Y-86132036D02*
X134168500Y-85424929D01*
X134168500Y-85424929D02*
X134437874Y-85155555D01*
X134437874Y-85155555D02*
X134538889Y-85121883D01*
X134538889Y-85121883D02*
X134606232Y-85121883D01*
X134606232Y-85121883D02*
X134707248Y-85155555D01*
X134707248Y-85155555D02*
X134808263Y-85256570D01*
X134808263Y-85256570D02*
X134841935Y-85357586D01*
X134841935Y-85357586D02*
X134841935Y-85424929D01*
X134841935Y-85424929D02*
X134808263Y-85525944D01*
X134808263Y-85525944D02*
X134538889Y-85795318D01*
X134909278Y-84818838D02*
X134909278Y-84751494D01*
X134909278Y-84751494D02*
X134942950Y-84650479D01*
X134942950Y-84650479D02*
X135111309Y-84482120D01*
X135111309Y-84482120D02*
X135212324Y-84448448D01*
X135212324Y-84448448D02*
X135279667Y-84448448D01*
X135279667Y-84448448D02*
X135380683Y-84482120D01*
X135380683Y-84482120D02*
X135448026Y-84549464D01*
X135448026Y-84549464D02*
X135515370Y-84684151D01*
X135515370Y-84684151D02*
X135515370Y-85492273D01*
X135515370Y-85492273D02*
X135953102Y-85054540D01*
X135852087Y-83741341D02*
X135717400Y-83876028D01*
X135717400Y-83876028D02*
X135683729Y-83977044D01*
X135683729Y-83977044D02*
X135683729Y-84044387D01*
X135683729Y-84044387D02*
X135717400Y-84212746D01*
X135717400Y-84212746D02*
X135818416Y-84381105D01*
X135818416Y-84381105D02*
X136087790Y-84650479D01*
X136087790Y-84650479D02*
X136188805Y-84684150D01*
X136188805Y-84684150D02*
X136256148Y-84684150D01*
X136256148Y-84684150D02*
X136357164Y-84650479D01*
X136357164Y-84650479D02*
X136491851Y-84515792D01*
X136491851Y-84515792D02*
X136525522Y-84414776D01*
X136525522Y-84414776D02*
X136525522Y-84347433D01*
X136525522Y-84347433D02*
X136491851Y-84246418D01*
X136491851Y-84246418D02*
X136323492Y-84078059D01*
X136323492Y-84078059D02*
X136222477Y-84044387D01*
X136222477Y-84044387D02*
X136155133Y-84044387D01*
X136155133Y-84044387D02*
X136054118Y-84078059D01*
X136054118Y-84078059D02*
X135919431Y-84212746D01*
X135919431Y-84212746D02*
X135885759Y-84313761D01*
X135885759Y-84313761D02*
X135885759Y-84381105D01*
X135885759Y-84381105D02*
X135919431Y-84482120D01*
X123426667Y-128067200D02*
X123569524Y-128114819D01*
X123569524Y-128114819D02*
X123807619Y-128114819D01*
X123807619Y-128114819D02*
X123902857Y-128067200D01*
X123902857Y-128067200D02*
X123950476Y-128019580D01*
X123950476Y-128019580D02*
X123998095Y-127924342D01*
X123998095Y-127924342D02*
X123998095Y-127829104D01*
X123998095Y-127829104D02*
X123950476Y-127733866D01*
X123950476Y-127733866D02*
X123902857Y-127686247D01*
X123902857Y-127686247D02*
X123807619Y-127638628D01*
X123807619Y-127638628D02*
X123617143Y-127591009D01*
X123617143Y-127591009D02*
X123521905Y-127543390D01*
X123521905Y-127543390D02*
X123474286Y-127495771D01*
X123474286Y-127495771D02*
X123426667Y-127400533D01*
X123426667Y-127400533D02*
X123426667Y-127305295D01*
X123426667Y-127305295D02*
X123474286Y-127210057D01*
X123474286Y-127210057D02*
X123521905Y-127162438D01*
X123521905Y-127162438D02*
X123617143Y-127114819D01*
X123617143Y-127114819D02*
X123855238Y-127114819D01*
X123855238Y-127114819D02*
X123998095Y-127162438D01*
X124331429Y-127114819D02*
X124569524Y-128114819D01*
X124569524Y-128114819D02*
X124760000Y-127400533D01*
X124760000Y-127400533D02*
X124950476Y-128114819D01*
X124950476Y-128114819D02*
X125188572Y-127114819D01*
X125474286Y-127114819D02*
X126093333Y-127114819D01*
X126093333Y-127114819D02*
X125760000Y-127495771D01*
X125760000Y-127495771D02*
X125902857Y-127495771D01*
X125902857Y-127495771D02*
X125998095Y-127543390D01*
X125998095Y-127543390D02*
X126045714Y-127591009D01*
X126045714Y-127591009D02*
X126093333Y-127686247D01*
X126093333Y-127686247D02*
X126093333Y-127924342D01*
X126093333Y-127924342D02*
X126045714Y-128019580D01*
X126045714Y-128019580D02*
X125998095Y-128067200D01*
X125998095Y-128067200D02*
X125902857Y-128114819D01*
X125902857Y-128114819D02*
X125617143Y-128114819D01*
X125617143Y-128114819D02*
X125521905Y-128067200D01*
X125521905Y-128067200D02*
X125474286Y-128019580D01*
X136368611Y-86816919D02*
X135796192Y-86715904D01*
X135964550Y-87220980D02*
X135257444Y-86513873D01*
X135257444Y-86513873D02*
X135526818Y-86244499D01*
X135526818Y-86244499D02*
X135627833Y-86210827D01*
X135627833Y-86210827D02*
X135695176Y-86210827D01*
X135695176Y-86210827D02*
X135796192Y-86244499D01*
X135796192Y-86244499D02*
X135897207Y-86345514D01*
X135897207Y-86345514D02*
X135930879Y-86446530D01*
X135930879Y-86446530D02*
X135930879Y-86513873D01*
X135930879Y-86513873D02*
X135897207Y-86614888D01*
X135897207Y-86614888D02*
X135627833Y-86884262D01*
X135998222Y-85907782D02*
X135998222Y-85840438D01*
X135998222Y-85840438D02*
X136031894Y-85739423D01*
X136031894Y-85739423D02*
X136200253Y-85571064D01*
X136200253Y-85571064D02*
X136301268Y-85537392D01*
X136301268Y-85537392D02*
X136368611Y-85537392D01*
X136368611Y-85537392D02*
X136469627Y-85571064D01*
X136469627Y-85571064D02*
X136536970Y-85638408D01*
X136536970Y-85638408D02*
X136604314Y-85773095D01*
X136604314Y-85773095D02*
X136604314Y-86581217D01*
X136604314Y-86581217D02*
X137042046Y-86143484D01*
X136570642Y-85200675D02*
X137042047Y-84729270D01*
X137042047Y-84729270D02*
X137446108Y-85739423D01*
X137386845Y-87750300D02*
X136814426Y-87649285D01*
X136982784Y-88154361D02*
X136275678Y-87447254D01*
X136275678Y-87447254D02*
X136545052Y-87177880D01*
X136545052Y-87177880D02*
X136646067Y-87144208D01*
X136646067Y-87144208D02*
X136713410Y-87144208D01*
X136713410Y-87144208D02*
X136814426Y-87177880D01*
X136814426Y-87177880D02*
X136915441Y-87278895D01*
X136915441Y-87278895D02*
X136949113Y-87379911D01*
X136949113Y-87379911D02*
X136949113Y-87447254D01*
X136949113Y-87447254D02*
X136915441Y-87548269D01*
X136915441Y-87548269D02*
X136646067Y-87817643D01*
X136915441Y-86807491D02*
X137353174Y-86369758D01*
X137353174Y-86369758D02*
X137386845Y-86874834D01*
X137386845Y-86874834D02*
X137487861Y-86773819D01*
X137487861Y-86773819D02*
X137588876Y-86740147D01*
X137588876Y-86740147D02*
X137656219Y-86740147D01*
X137656219Y-86740147D02*
X137757235Y-86773819D01*
X137757235Y-86773819D02*
X137925593Y-86942178D01*
X137925593Y-86942178D02*
X137959265Y-87043193D01*
X137959265Y-87043193D02*
X137959265Y-87110537D01*
X137959265Y-87110537D02*
X137925593Y-87211552D01*
X137925593Y-87211552D02*
X137723563Y-87413582D01*
X137723563Y-87413582D02*
X137622548Y-87447254D01*
X137622548Y-87447254D02*
X137555204Y-87447254D01*
X138733716Y-86403430D02*
X138329655Y-86807491D01*
X138531685Y-86605460D02*
X137824578Y-85898353D01*
X137824578Y-85898353D02*
X137858250Y-86066712D01*
X137858250Y-86066712D02*
X137858250Y-86201399D01*
X137858250Y-86201399D02*
X137824578Y-86302414D01*
X88369138Y-84927662D02*
X88301794Y-84927662D01*
X88301794Y-84927662D02*
X88167107Y-84860318D01*
X88167107Y-84860318D02*
X88099764Y-84792975D01*
X88099764Y-84792975D02*
X88032420Y-84658288D01*
X88032420Y-84658288D02*
X88032420Y-84523601D01*
X88032420Y-84523601D02*
X88066092Y-84422586D01*
X88066092Y-84422586D02*
X88167107Y-84254227D01*
X88167107Y-84254227D02*
X88268122Y-84153212D01*
X88268122Y-84153212D02*
X88436481Y-84052196D01*
X88436481Y-84052196D02*
X88537496Y-84018525D01*
X88537496Y-84018525D02*
X88672183Y-84018525D01*
X88672183Y-84018525D02*
X88806870Y-84085868D01*
X88806870Y-84085868D02*
X88874214Y-84153212D01*
X88874214Y-84153212D02*
X88941557Y-84287899D01*
X88941557Y-84287899D02*
X88941557Y-84355242D01*
X89210931Y-84624616D02*
X89278275Y-84624616D01*
X89278275Y-84624616D02*
X89379290Y-84658288D01*
X89379290Y-84658288D02*
X89547649Y-84826647D01*
X89547649Y-84826647D02*
X89581321Y-84927662D01*
X89581321Y-84927662D02*
X89581321Y-84995005D01*
X89581321Y-84995005D02*
X89547649Y-85096021D01*
X89547649Y-85096021D02*
X89480305Y-85163364D01*
X89480305Y-85163364D02*
X89345618Y-85230708D01*
X89345618Y-85230708D02*
X88537496Y-85230708D01*
X88537496Y-85230708D02*
X88975229Y-85668440D01*
X89918038Y-85197036D02*
X90355771Y-85634769D01*
X90355771Y-85634769D02*
X89850695Y-85668441D01*
X89850695Y-85668441D02*
X89951710Y-85769456D01*
X89951710Y-85769456D02*
X89985382Y-85870471D01*
X89985382Y-85870471D02*
X89985382Y-85937815D01*
X89985382Y-85937815D02*
X89951710Y-86038830D01*
X89951710Y-86038830D02*
X89783351Y-86207189D01*
X89783351Y-86207189D02*
X89682336Y-86240860D01*
X89682336Y-86240860D02*
X89614993Y-86240860D01*
X89614993Y-86240860D02*
X89513977Y-86207189D01*
X89513977Y-86207189D02*
X89311947Y-86005158D01*
X89311947Y-86005158D02*
X89278275Y-85904143D01*
X89278275Y-85904143D02*
X89278275Y-85836799D01*
X81457142Y-114299580D02*
X81409523Y-114347200D01*
X81409523Y-114347200D02*
X81266666Y-114394819D01*
X81266666Y-114394819D02*
X81171428Y-114394819D01*
X81171428Y-114394819D02*
X81028571Y-114347200D01*
X81028571Y-114347200D02*
X80933333Y-114251961D01*
X80933333Y-114251961D02*
X80885714Y-114156723D01*
X80885714Y-114156723D02*
X80838095Y-113966247D01*
X80838095Y-113966247D02*
X80838095Y-113823390D01*
X80838095Y-113823390D02*
X80885714Y-113632914D01*
X80885714Y-113632914D02*
X80933333Y-113537676D01*
X80933333Y-113537676D02*
X81028571Y-113442438D01*
X81028571Y-113442438D02*
X81171428Y-113394819D01*
X81171428Y-113394819D02*
X81266666Y-113394819D01*
X81266666Y-113394819D02*
X81409523Y-113442438D01*
X81409523Y-113442438D02*
X81457142Y-113490057D01*
X82409523Y-114394819D02*
X81838095Y-114394819D01*
X82123809Y-114394819D02*
X82123809Y-113394819D01*
X82123809Y-113394819D02*
X82028571Y-113537676D01*
X82028571Y-113537676D02*
X81933333Y-113632914D01*
X81933333Y-113632914D02*
X81838095Y-113680533D01*
X82742857Y-113394819D02*
X83409523Y-113394819D01*
X83409523Y-113394819D02*
X82980952Y-114394819D01*
X96744011Y-106189201D02*
X96036905Y-105482094D01*
X96036905Y-105482094D02*
X96205263Y-105313735D01*
X96205263Y-105313735D02*
X96339950Y-105246392D01*
X96339950Y-105246392D02*
X96474637Y-105246392D01*
X96474637Y-105246392D02*
X96575653Y-105280064D01*
X96575653Y-105280064D02*
X96744011Y-105381079D01*
X96744011Y-105381079D02*
X96845027Y-105482094D01*
X96845027Y-105482094D02*
X96946042Y-105650453D01*
X96946042Y-105650453D02*
X96979714Y-105751468D01*
X96979714Y-105751468D02*
X96979714Y-105886155D01*
X96979714Y-105886155D02*
X96912370Y-106020842D01*
X96912370Y-106020842D02*
X96744011Y-106189201D01*
X97821507Y-105111705D02*
X97417446Y-105515766D01*
X97619477Y-105313735D02*
X96912370Y-104606629D01*
X96912370Y-104606629D02*
X96946042Y-104774987D01*
X96946042Y-104774987D02*
X96946042Y-104909674D01*
X96946042Y-104909674D02*
X96912370Y-105010690D01*
X97350103Y-104168896D02*
X97787836Y-103731163D01*
X97787836Y-103731163D02*
X97821508Y-104236239D01*
X97821508Y-104236239D02*
X97922523Y-104135224D01*
X97922523Y-104135224D02*
X98023538Y-104101552D01*
X98023538Y-104101552D02*
X98090882Y-104101552D01*
X98090882Y-104101552D02*
X98191897Y-104135224D01*
X98191897Y-104135224D02*
X98360256Y-104303583D01*
X98360256Y-104303583D02*
X98393927Y-104404598D01*
X98393927Y-104404598D02*
X98393927Y-104471941D01*
X98393927Y-104471941D02*
X98360256Y-104572957D01*
X98360256Y-104572957D02*
X98158225Y-104774987D01*
X98158225Y-104774987D02*
X98057210Y-104808659D01*
X98057210Y-104808659D02*
X97989866Y-104808659D01*
X82947144Y-72784818D02*
X82613811Y-72308627D01*
X82375716Y-72784818D02*
X82375716Y-71784818D01*
X82375716Y-71784818D02*
X82756668Y-71784818D01*
X82756668Y-71784818D02*
X82851906Y-71832437D01*
X82851906Y-71832437D02*
X82899525Y-71880056D01*
X82899525Y-71880056D02*
X82947144Y-71975294D01*
X82947144Y-71975294D02*
X82947144Y-72118151D01*
X82947144Y-72118151D02*
X82899525Y-72213389D01*
X82899525Y-72213389D02*
X82851906Y-72261008D01*
X82851906Y-72261008D02*
X82756668Y-72308627D01*
X82756668Y-72308627D02*
X82375716Y-72308627D01*
X83328097Y-71880056D02*
X83375716Y-71832437D01*
X83375716Y-71832437D02*
X83470954Y-71784818D01*
X83470954Y-71784818D02*
X83709049Y-71784818D01*
X83709049Y-71784818D02*
X83804287Y-71832437D01*
X83804287Y-71832437D02*
X83851906Y-71880056D01*
X83851906Y-71880056D02*
X83899525Y-71975294D01*
X83899525Y-71975294D02*
X83899525Y-72070532D01*
X83899525Y-72070532D02*
X83851906Y-72213389D01*
X83851906Y-72213389D02*
X83280478Y-72784818D01*
X83280478Y-72784818D02*
X83899525Y-72784818D01*
X84756668Y-72118151D02*
X84756668Y-72784818D01*
X84518573Y-71737199D02*
X84280478Y-72451484D01*
X84280478Y-72451484D02*
X84899525Y-72451484D01*
X92207391Y-84769704D02*
X92914498Y-84062598D01*
X92914498Y-84062598D02*
X93082857Y-84230956D01*
X93082857Y-84230956D02*
X93150200Y-84365643D01*
X93150200Y-84365643D02*
X93150200Y-84500330D01*
X93150200Y-84500330D02*
X93116528Y-84601346D01*
X93116528Y-84601346D02*
X93015513Y-84769704D01*
X93015513Y-84769704D02*
X92914498Y-84870720D01*
X92914498Y-84870720D02*
X92746139Y-84971735D01*
X92746139Y-84971735D02*
X92645124Y-85005407D01*
X92645124Y-85005407D02*
X92510437Y-85005407D01*
X92510437Y-85005407D02*
X92375750Y-84938063D01*
X92375750Y-84938063D02*
X92207391Y-84769704D01*
X93520589Y-84803376D02*
X93587933Y-84803376D01*
X93587933Y-84803376D02*
X93688948Y-84837048D01*
X93688948Y-84837048D02*
X93857307Y-85005407D01*
X93857307Y-85005407D02*
X93890979Y-85106422D01*
X93890979Y-85106422D02*
X93890979Y-85173765D01*
X93890979Y-85173765D02*
X93857307Y-85274781D01*
X93857307Y-85274781D02*
X93789963Y-85342124D01*
X93789963Y-85342124D02*
X93655276Y-85409468D01*
X93655276Y-85409468D02*
X92847154Y-85409468D01*
X92847154Y-85409468D02*
X93284887Y-85847200D01*
X94194025Y-85476811D02*
X94261368Y-85476811D01*
X94261368Y-85476811D02*
X94362383Y-85510483D01*
X94362383Y-85510483D02*
X94530742Y-85678842D01*
X94530742Y-85678842D02*
X94564414Y-85779857D01*
X94564414Y-85779857D02*
X94564414Y-85847201D01*
X94564414Y-85847201D02*
X94530742Y-85948216D01*
X94530742Y-85948216D02*
X94463399Y-86015559D01*
X94463399Y-86015559D02*
X94328712Y-86082903D01*
X94328712Y-86082903D02*
X93520590Y-86082903D01*
X93520590Y-86082903D02*
X93958322Y-86520636D01*
X109286482Y-100009692D02*
X109993589Y-99302586D01*
X109993589Y-99302586D02*
X110161948Y-99470944D01*
X110161948Y-99470944D02*
X110229291Y-99605631D01*
X110229291Y-99605631D02*
X110229291Y-99740318D01*
X110229291Y-99740318D02*
X110195619Y-99841334D01*
X110195619Y-99841334D02*
X110094604Y-100009692D01*
X110094604Y-100009692D02*
X109993589Y-100110708D01*
X109993589Y-100110708D02*
X109825230Y-100211723D01*
X109825230Y-100211723D02*
X109724215Y-100245395D01*
X109724215Y-100245395D02*
X109589528Y-100245395D01*
X109589528Y-100245395D02*
X109454841Y-100178051D01*
X109454841Y-100178051D02*
X109286482Y-100009692D01*
X110027261Y-100750471D02*
X110161948Y-100885158D01*
X110161948Y-100885158D02*
X110262963Y-100918830D01*
X110262963Y-100918830D02*
X110330306Y-100918830D01*
X110330306Y-100918830D02*
X110498665Y-100885158D01*
X110498665Y-100885158D02*
X110667024Y-100784143D01*
X110667024Y-100784143D02*
X110936398Y-100514769D01*
X110936398Y-100514769D02*
X110970070Y-100413753D01*
X110970070Y-100413753D02*
X110970070Y-100346410D01*
X110970070Y-100346410D02*
X110936398Y-100245395D01*
X110936398Y-100245395D02*
X110801711Y-100110708D01*
X110801711Y-100110708D02*
X110700696Y-100077036D01*
X110700696Y-100077036D02*
X110633352Y-100077036D01*
X110633352Y-100077036D02*
X110532337Y-100110708D01*
X110532337Y-100110708D02*
X110363978Y-100279066D01*
X110363978Y-100279066D02*
X110330306Y-100380082D01*
X110330306Y-100380082D02*
X110330306Y-100447425D01*
X110330306Y-100447425D02*
X110363978Y-100548440D01*
X110363978Y-100548440D02*
X110498665Y-100683127D01*
X110498665Y-100683127D02*
X110599680Y-100716799D01*
X110599680Y-100716799D02*
X110667024Y-100716799D01*
X110667024Y-100716799D02*
X110768039Y-100683127D01*
X91058170Y-99081605D02*
X91394888Y-99418323D01*
X90452079Y-98946918D02*
X91058170Y-99081605D01*
X91058170Y-99081605D02*
X90923483Y-98475514D01*
X92236681Y-98576529D02*
X91832620Y-98980590D01*
X92034651Y-98778559D02*
X91327544Y-98071453D01*
X91327544Y-98071453D02*
X91361216Y-98239811D01*
X91361216Y-98239811D02*
X91361216Y-98374498D01*
X91361216Y-98374498D02*
X91327544Y-98475514D01*
X67237144Y-72754819D02*
X66903811Y-72278628D01*
X66665716Y-72754819D02*
X66665716Y-71754819D01*
X66665716Y-71754819D02*
X67046668Y-71754819D01*
X67046668Y-71754819D02*
X67141906Y-71802438D01*
X67141906Y-71802438D02*
X67189525Y-71850057D01*
X67189525Y-71850057D02*
X67237144Y-71945295D01*
X67237144Y-71945295D02*
X67237144Y-72088152D01*
X67237144Y-72088152D02*
X67189525Y-72183390D01*
X67189525Y-72183390D02*
X67141906Y-72231009D01*
X67141906Y-72231009D02*
X67046668Y-72278628D01*
X67046668Y-72278628D02*
X66665716Y-72278628D01*
X67618097Y-71850057D02*
X67665716Y-71802438D01*
X67665716Y-71802438D02*
X67760954Y-71754819D01*
X67760954Y-71754819D02*
X67999049Y-71754819D01*
X67999049Y-71754819D02*
X68094287Y-71802438D01*
X68094287Y-71802438D02*
X68141906Y-71850057D01*
X68141906Y-71850057D02*
X68189525Y-71945295D01*
X68189525Y-71945295D02*
X68189525Y-72040533D01*
X68189525Y-72040533D02*
X68141906Y-72183390D01*
X68141906Y-72183390D02*
X67570478Y-72754819D01*
X67570478Y-72754819D02*
X68189525Y-72754819D01*
X69094287Y-71754819D02*
X68618097Y-71754819D01*
X68618097Y-71754819D02*
X68570478Y-72231009D01*
X68570478Y-72231009D02*
X68618097Y-72183390D01*
X68618097Y-72183390D02*
X68713335Y-72135771D01*
X68713335Y-72135771D02*
X68951430Y-72135771D01*
X68951430Y-72135771D02*
X69046668Y-72183390D01*
X69046668Y-72183390D02*
X69094287Y-72231009D01*
X69094287Y-72231009D02*
X69141906Y-72326247D01*
X69141906Y-72326247D02*
X69141906Y-72564342D01*
X69141906Y-72564342D02*
X69094287Y-72659580D01*
X69094287Y-72659580D02*
X69046668Y-72707200D01*
X69046668Y-72707200D02*
X68951430Y-72754819D01*
X68951430Y-72754819D02*
X68713335Y-72754819D01*
X68713335Y-72754819D02*
X68618097Y-72707200D01*
X68618097Y-72707200D02*
X68570478Y-72659580D01*
X164262714Y-97803802D02*
X164262714Y-96803802D01*
X164262714Y-96803802D02*
X164500809Y-96803802D01*
X164500809Y-96803802D02*
X164643666Y-96851421D01*
X164643666Y-96851421D02*
X164738904Y-96946659D01*
X164738904Y-96946659D02*
X164786523Y-97041897D01*
X164786523Y-97041897D02*
X164834142Y-97232373D01*
X164834142Y-97232373D02*
X164834142Y-97375230D01*
X164834142Y-97375230D02*
X164786523Y-97565706D01*
X164786523Y-97565706D02*
X164738904Y-97660944D01*
X164738904Y-97660944D02*
X164643666Y-97756183D01*
X164643666Y-97756183D02*
X164500809Y-97803802D01*
X164500809Y-97803802D02*
X164262714Y-97803802D01*
X165215095Y-97756183D02*
X165357952Y-97803802D01*
X165357952Y-97803802D02*
X165596047Y-97803802D01*
X165596047Y-97803802D02*
X165691285Y-97756183D01*
X165691285Y-97756183D02*
X165738904Y-97708563D01*
X165738904Y-97708563D02*
X165786523Y-97613325D01*
X165786523Y-97613325D02*
X165786523Y-97518087D01*
X165786523Y-97518087D02*
X165738904Y-97422849D01*
X165738904Y-97422849D02*
X165691285Y-97375230D01*
X165691285Y-97375230D02*
X165596047Y-97327611D01*
X165596047Y-97327611D02*
X165405571Y-97279992D01*
X165405571Y-97279992D02*
X165310333Y-97232373D01*
X165310333Y-97232373D02*
X165262714Y-97184754D01*
X165262714Y-97184754D02*
X165215095Y-97089516D01*
X165215095Y-97089516D02*
X165215095Y-96994278D01*
X165215095Y-96994278D02*
X165262714Y-96899040D01*
X165262714Y-96899040D02*
X165310333Y-96851421D01*
X165310333Y-96851421D02*
X165405571Y-96803802D01*
X165405571Y-96803802D02*
X165643666Y-96803802D01*
X165643666Y-96803802D02*
X165786523Y-96851421D01*
X166215095Y-97803802D02*
X166215095Y-96803802D01*
X166215095Y-96803802D02*
X166596047Y-96803802D01*
X166596047Y-96803802D02*
X166691285Y-96851421D01*
X166691285Y-96851421D02*
X166738904Y-96899040D01*
X166738904Y-96899040D02*
X166786523Y-96994278D01*
X166786523Y-96994278D02*
X166786523Y-97137135D01*
X166786523Y-97137135D02*
X166738904Y-97232373D01*
X166738904Y-97232373D02*
X166691285Y-97279992D01*
X166691285Y-97279992D02*
X166596047Y-97327611D01*
X166596047Y-97327611D02*
X166215095Y-97327611D01*
X167738904Y-97803802D02*
X167167476Y-97803802D01*
X167453190Y-97803802D02*
X167453190Y-96803802D01*
X167453190Y-96803802D02*
X167357952Y-96946659D01*
X167357952Y-96946659D02*
X167262714Y-97041897D01*
X167262714Y-97041897D02*
X167167476Y-97089516D01*
X112484764Y-96852974D02*
X113191871Y-96145868D01*
X113191871Y-96145868D02*
X113360230Y-96314226D01*
X113360230Y-96314226D02*
X113427573Y-96448913D01*
X113427573Y-96448913D02*
X113427573Y-96583600D01*
X113427573Y-96583600D02*
X113393901Y-96684616D01*
X113393901Y-96684616D02*
X113292886Y-96852974D01*
X113292886Y-96852974D02*
X113191871Y-96953990D01*
X113191871Y-96953990D02*
X113023512Y-97055005D01*
X113023512Y-97055005D02*
X112922497Y-97088677D01*
X112922497Y-97088677D02*
X112787810Y-97088677D01*
X112787810Y-97088677D02*
X112653123Y-97021333D01*
X112653123Y-97021333D02*
X112484764Y-96852974D01*
X113562260Y-97930470D02*
X113158199Y-97526409D01*
X113360230Y-97728440D02*
X114067336Y-97021333D01*
X114067336Y-97021333D02*
X113898978Y-97055005D01*
X113898978Y-97055005D02*
X113764291Y-97055005D01*
X113764291Y-97055005D02*
X113663275Y-97021333D01*
X114707100Y-97661097D02*
X114774443Y-97728440D01*
X114774443Y-97728440D02*
X114808115Y-97829455D01*
X114808115Y-97829455D02*
X114808115Y-97896799D01*
X114808115Y-97896799D02*
X114774443Y-97997814D01*
X114774443Y-97997814D02*
X114673428Y-98166173D01*
X114673428Y-98166173D02*
X114505069Y-98334532D01*
X114505069Y-98334532D02*
X114336711Y-98435547D01*
X114336711Y-98435547D02*
X114235695Y-98469219D01*
X114235695Y-98469219D02*
X114168352Y-98469219D01*
X114168352Y-98469219D02*
X114067337Y-98435547D01*
X114067337Y-98435547D02*
X113999993Y-98368203D01*
X113999993Y-98368203D02*
X113966321Y-98267188D01*
X113966321Y-98267188D02*
X113966321Y-98199845D01*
X113966321Y-98199845D02*
X113999993Y-98098829D01*
X113999993Y-98098829D02*
X114101008Y-97930471D01*
X114101008Y-97930471D02*
X114269367Y-97762112D01*
X114269367Y-97762112D02*
X114437726Y-97661097D01*
X114437726Y-97661097D02*
X114538741Y-97627425D01*
X114538741Y-97627425D02*
X114606085Y-97627425D01*
X114606085Y-97627425D02*
X114707100Y-97661097D01*
X164045714Y-67004819D02*
X164045714Y-66004819D01*
X164045714Y-66004819D02*
X164283809Y-66004819D01*
X164283809Y-66004819D02*
X164426666Y-66052438D01*
X164426666Y-66052438D02*
X164521904Y-66147676D01*
X164521904Y-66147676D02*
X164569523Y-66242914D01*
X164569523Y-66242914D02*
X164617142Y-66433390D01*
X164617142Y-66433390D02*
X164617142Y-66576247D01*
X164617142Y-66576247D02*
X164569523Y-66766723D01*
X164569523Y-66766723D02*
X164521904Y-66861961D01*
X164521904Y-66861961D02*
X164426666Y-66957200D01*
X164426666Y-66957200D02*
X164283809Y-67004819D01*
X164283809Y-67004819D02*
X164045714Y-67004819D01*
X164998095Y-66100057D02*
X165045714Y-66052438D01*
X165045714Y-66052438D02*
X165140952Y-66004819D01*
X165140952Y-66004819D02*
X165379047Y-66004819D01*
X165379047Y-66004819D02*
X165474285Y-66052438D01*
X165474285Y-66052438D02*
X165521904Y-66100057D01*
X165521904Y-66100057D02*
X165569523Y-66195295D01*
X165569523Y-66195295D02*
X165569523Y-66290533D01*
X165569523Y-66290533D02*
X165521904Y-66433390D01*
X165521904Y-66433390D02*
X164950476Y-67004819D01*
X164950476Y-67004819D02*
X165569523Y-67004819D01*
X166188571Y-66004819D02*
X166283809Y-66004819D01*
X166283809Y-66004819D02*
X166379047Y-66052438D01*
X166379047Y-66052438D02*
X166426666Y-66100057D01*
X166426666Y-66100057D02*
X166474285Y-66195295D01*
X166474285Y-66195295D02*
X166521904Y-66385771D01*
X166521904Y-66385771D02*
X166521904Y-66623866D01*
X166521904Y-66623866D02*
X166474285Y-66814342D01*
X166474285Y-66814342D02*
X166426666Y-66909580D01*
X166426666Y-66909580D02*
X166379047Y-66957200D01*
X166379047Y-66957200D02*
X166283809Y-67004819D01*
X166283809Y-67004819D02*
X166188571Y-67004819D01*
X166188571Y-67004819D02*
X166093333Y-66957200D01*
X166093333Y-66957200D02*
X166045714Y-66909580D01*
X166045714Y-66909580D02*
X165998095Y-66814342D01*
X165998095Y-66814342D02*
X165950476Y-66623866D01*
X165950476Y-66623866D02*
X165950476Y-66385771D01*
X165950476Y-66385771D02*
X165998095Y-66195295D01*
X165998095Y-66195295D02*
X166045714Y-66100057D01*
X166045714Y-66100057D02*
X166093333Y-66052438D01*
X166093333Y-66052438D02*
X166188571Y-66004819D01*
X169755714Y-72124819D02*
X169184286Y-72124819D01*
X169470000Y-72124819D02*
X169470000Y-71124819D01*
X169470000Y-71124819D02*
X169374762Y-71267676D01*
X169374762Y-71267676D02*
X169279524Y-71362914D01*
X169279524Y-71362914D02*
X169184286Y-71410533D01*
X148556667Y-78947200D02*
X148699524Y-78994819D01*
X148699524Y-78994819D02*
X148937619Y-78994819D01*
X148937619Y-78994819D02*
X149032857Y-78947200D01*
X149032857Y-78947200D02*
X149080476Y-78899580D01*
X149080476Y-78899580D02*
X149128095Y-78804342D01*
X149128095Y-78804342D02*
X149128095Y-78709104D01*
X149128095Y-78709104D02*
X149080476Y-78613866D01*
X149080476Y-78613866D02*
X149032857Y-78566247D01*
X149032857Y-78566247D02*
X148937619Y-78518628D01*
X148937619Y-78518628D02*
X148747143Y-78471009D01*
X148747143Y-78471009D02*
X148651905Y-78423390D01*
X148651905Y-78423390D02*
X148604286Y-78375771D01*
X148604286Y-78375771D02*
X148556667Y-78280533D01*
X148556667Y-78280533D02*
X148556667Y-78185295D01*
X148556667Y-78185295D02*
X148604286Y-78090057D01*
X148604286Y-78090057D02*
X148651905Y-78042438D01*
X148651905Y-78042438D02*
X148747143Y-77994819D01*
X148747143Y-77994819D02*
X148985238Y-77994819D01*
X148985238Y-77994819D02*
X149128095Y-78042438D01*
X149461429Y-77994819D02*
X149699524Y-78994819D01*
X149699524Y-78994819D02*
X149890000Y-78280533D01*
X149890000Y-78280533D02*
X150080476Y-78994819D01*
X150080476Y-78994819D02*
X150318572Y-77994819D01*
X150651905Y-78090057D02*
X150699524Y-78042438D01*
X150699524Y-78042438D02*
X150794762Y-77994819D01*
X150794762Y-77994819D02*
X151032857Y-77994819D01*
X151032857Y-77994819D02*
X151128095Y-78042438D01*
X151128095Y-78042438D02*
X151175714Y-78090057D01*
X151175714Y-78090057D02*
X151223333Y-78185295D01*
X151223333Y-78185295D02*
X151223333Y-78280533D01*
X151223333Y-78280533D02*
X151175714Y-78423390D01*
X151175714Y-78423390D02*
X150604286Y-78994819D01*
X150604286Y-78994819D02*
X151223333Y-78994819D01*
X115077887Y-95006411D02*
X115010543Y-95006411D01*
X115010543Y-95006411D02*
X114875856Y-94939067D01*
X114875856Y-94939067D02*
X114808513Y-94871724D01*
X114808513Y-94871724D02*
X114741169Y-94737037D01*
X114741169Y-94737037D02*
X114741169Y-94602350D01*
X114741169Y-94602350D02*
X114774841Y-94501335D01*
X114774841Y-94501335D02*
X114875856Y-94332976D01*
X114875856Y-94332976D02*
X114976871Y-94231961D01*
X114976871Y-94231961D02*
X115145230Y-94130945D01*
X115145230Y-94130945D02*
X115246245Y-94097274D01*
X115246245Y-94097274D02*
X115380932Y-94097274D01*
X115380932Y-94097274D02*
X115515619Y-94164617D01*
X115515619Y-94164617D02*
X115582963Y-94231961D01*
X115582963Y-94231961D02*
X115650306Y-94366648D01*
X115650306Y-94366648D02*
X115650306Y-94433991D01*
X115953352Y-94602350D02*
X116424757Y-95073754D01*
X116424757Y-95073754D02*
X115414604Y-95477815D01*
X110499692Y-80063517D02*
X109792586Y-79356410D01*
X109792586Y-79356410D02*
X109960944Y-79188051D01*
X109960944Y-79188051D02*
X110095631Y-79120708D01*
X110095631Y-79120708D02*
X110230318Y-79120708D01*
X110230318Y-79120708D02*
X110331334Y-79154380D01*
X110331334Y-79154380D02*
X110499692Y-79255395D01*
X110499692Y-79255395D02*
X110600708Y-79356410D01*
X110600708Y-79356410D02*
X110701723Y-79524769D01*
X110701723Y-79524769D02*
X110735395Y-79625784D01*
X110735395Y-79625784D02*
X110735395Y-79760471D01*
X110735395Y-79760471D02*
X110668051Y-79895158D01*
X110668051Y-79895158D02*
X110499692Y-80063517D01*
X110432349Y-78716647D02*
X110903753Y-78245242D01*
X110903753Y-78245242D02*
X111307814Y-79255395D01*
X82245715Y-71289819D02*
X82245715Y-70289819D01*
X82245715Y-70289819D02*
X82483810Y-70289819D01*
X82483810Y-70289819D02*
X82626667Y-70337438D01*
X82626667Y-70337438D02*
X82721905Y-70432676D01*
X82721905Y-70432676D02*
X82769524Y-70527914D01*
X82769524Y-70527914D02*
X82817143Y-70718390D01*
X82817143Y-70718390D02*
X82817143Y-70861247D01*
X82817143Y-70861247D02*
X82769524Y-71051723D01*
X82769524Y-71051723D02*
X82721905Y-71146961D01*
X82721905Y-71146961D02*
X82626667Y-71242200D01*
X82626667Y-71242200D02*
X82483810Y-71289819D01*
X82483810Y-71289819D02*
X82245715Y-71289819D01*
X83769524Y-71289819D02*
X83198096Y-71289819D01*
X83483810Y-71289819D02*
X83483810Y-70289819D01*
X83483810Y-70289819D02*
X83388572Y-70432676D01*
X83388572Y-70432676D02*
X83293334Y-70527914D01*
X83293334Y-70527914D02*
X83198096Y-70575533D01*
X84626667Y-70289819D02*
X84436191Y-70289819D01*
X84436191Y-70289819D02*
X84340953Y-70337438D01*
X84340953Y-70337438D02*
X84293334Y-70385057D01*
X84293334Y-70385057D02*
X84198096Y-70527914D01*
X84198096Y-70527914D02*
X84150477Y-70718390D01*
X84150477Y-70718390D02*
X84150477Y-71099342D01*
X84150477Y-71099342D02*
X84198096Y-71194580D01*
X84198096Y-71194580D02*
X84245715Y-71242200D01*
X84245715Y-71242200D02*
X84340953Y-71289819D01*
X84340953Y-71289819D02*
X84531429Y-71289819D01*
X84531429Y-71289819D02*
X84626667Y-71242200D01*
X84626667Y-71242200D02*
X84674286Y-71194580D01*
X84674286Y-71194580D02*
X84721905Y-71099342D01*
X84721905Y-71099342D02*
X84721905Y-70861247D01*
X84721905Y-70861247D02*
X84674286Y-70766009D01*
X84674286Y-70766009D02*
X84626667Y-70718390D01*
X84626667Y-70718390D02*
X84531429Y-70670771D01*
X84531429Y-70670771D02*
X84340953Y-70670771D01*
X84340953Y-70670771D02*
X84245715Y-70718390D01*
X84245715Y-70718390D02*
X84198096Y-70766009D01*
X84198096Y-70766009D02*
X84150477Y-70861247D01*
X90236411Y-97252112D02*
X90236411Y-97319456D01*
X90236411Y-97319456D02*
X90169067Y-97454143D01*
X90169067Y-97454143D02*
X90101724Y-97521486D01*
X90101724Y-97521486D02*
X89967037Y-97588830D01*
X89967037Y-97588830D02*
X89832350Y-97588830D01*
X89832350Y-97588830D02*
X89731335Y-97555158D01*
X89731335Y-97555158D02*
X89562976Y-97454143D01*
X89562976Y-97454143D02*
X89461961Y-97353128D01*
X89461961Y-97353128D02*
X89360945Y-97184769D01*
X89360945Y-97184769D02*
X89327274Y-97083754D01*
X89327274Y-97083754D02*
X89327274Y-96949067D01*
X89327274Y-96949067D02*
X89394617Y-96814380D01*
X89394617Y-96814380D02*
X89461961Y-96747036D01*
X89461961Y-96747036D02*
X89596648Y-96679693D01*
X89596648Y-96679693D02*
X89663991Y-96679693D01*
X89933365Y-96410319D02*
X89933365Y-96342975D01*
X89933365Y-96342975D02*
X89967037Y-96241960D01*
X89967037Y-96241960D02*
X90135396Y-96073601D01*
X90135396Y-96073601D02*
X90236411Y-96039929D01*
X90236411Y-96039929D02*
X90303754Y-96039929D01*
X90303754Y-96039929D02*
X90404770Y-96073601D01*
X90404770Y-96073601D02*
X90472113Y-96140945D01*
X90472113Y-96140945D02*
X90539457Y-96275632D01*
X90539457Y-96275632D02*
X90539457Y-97083754D01*
X90539457Y-97083754D02*
X90977189Y-96646021D01*
X66715714Y-75784818D02*
X66715714Y-74784818D01*
X66715714Y-74784818D02*
X66953809Y-74784818D01*
X66953809Y-74784818D02*
X67096666Y-74832437D01*
X67096666Y-74832437D02*
X67191904Y-74927675D01*
X67191904Y-74927675D02*
X67239523Y-75022913D01*
X67239523Y-75022913D02*
X67287142Y-75213389D01*
X67287142Y-75213389D02*
X67287142Y-75356246D01*
X67287142Y-75356246D02*
X67239523Y-75546722D01*
X67239523Y-75546722D02*
X67191904Y-75641960D01*
X67191904Y-75641960D02*
X67096666Y-75737199D01*
X67096666Y-75737199D02*
X66953809Y-75784818D01*
X66953809Y-75784818D02*
X66715714Y-75784818D01*
X68239523Y-75784818D02*
X67668095Y-75784818D01*
X67953809Y-75784818D02*
X67953809Y-74784818D01*
X67953809Y-74784818D02*
X67858571Y-74927675D01*
X67858571Y-74927675D02*
X67763333Y-75022913D01*
X67763333Y-75022913D02*
X67668095Y-75070532D01*
X68620476Y-74880056D02*
X68668095Y-74832437D01*
X68668095Y-74832437D02*
X68763333Y-74784818D01*
X68763333Y-74784818D02*
X69001428Y-74784818D01*
X69001428Y-74784818D02*
X69096666Y-74832437D01*
X69096666Y-74832437D02*
X69144285Y-74880056D01*
X69144285Y-74880056D02*
X69191904Y-74975294D01*
X69191904Y-74975294D02*
X69191904Y-75070532D01*
X69191904Y-75070532D02*
X69144285Y-75213389D01*
X69144285Y-75213389D02*
X68572857Y-75784818D01*
X68572857Y-75784818D02*
X69191904Y-75784818D01*
X92477845Y-72307044D02*
X92578860Y-71734625D01*
X92073784Y-71902983D02*
X92780891Y-71195877D01*
X92780891Y-71195877D02*
X93050265Y-71465251D01*
X93050265Y-71465251D02*
X93083937Y-71566266D01*
X93083937Y-71566266D02*
X93083937Y-71633609D01*
X93083937Y-71633609D02*
X93050265Y-71734625D01*
X93050265Y-71734625D02*
X92949250Y-71835640D01*
X92949250Y-71835640D02*
X92848234Y-71869312D01*
X92848234Y-71869312D02*
X92780891Y-71869312D01*
X92780891Y-71869312D02*
X92679876Y-71835640D01*
X92679876Y-71835640D02*
X92410502Y-71566266D01*
X93420654Y-71835640D02*
X93858387Y-72273373D01*
X93858387Y-72273373D02*
X93353311Y-72307044D01*
X93353311Y-72307044D02*
X93454326Y-72408060D01*
X93454326Y-72408060D02*
X93487998Y-72509075D01*
X93487998Y-72509075D02*
X93487998Y-72576418D01*
X93487998Y-72576418D02*
X93454326Y-72677434D01*
X93454326Y-72677434D02*
X93285967Y-72845792D01*
X93285967Y-72845792D02*
X93184952Y-72879464D01*
X93184952Y-72879464D02*
X93117608Y-72879464D01*
X93117608Y-72879464D02*
X93016593Y-72845792D01*
X93016593Y-72845792D02*
X92814563Y-72643762D01*
X92814563Y-72643762D02*
X92780891Y-72542747D01*
X92780891Y-72542747D02*
X92780891Y-72475403D01*
X94464479Y-72879464D02*
X94329792Y-72744777D01*
X94329792Y-72744777D02*
X94228776Y-72711106D01*
X94228776Y-72711106D02*
X94161433Y-72711106D01*
X94161433Y-72711106D02*
X93993074Y-72744777D01*
X93993074Y-72744777D02*
X93824715Y-72845793D01*
X93824715Y-72845793D02*
X93555341Y-73115167D01*
X93555341Y-73115167D02*
X93521670Y-73216182D01*
X93521670Y-73216182D02*
X93521670Y-73283525D01*
X93521670Y-73283525D02*
X93555341Y-73384541D01*
X93555341Y-73384541D02*
X93690028Y-73519228D01*
X93690028Y-73519228D02*
X93791044Y-73552899D01*
X93791044Y-73552899D02*
X93858387Y-73552899D01*
X93858387Y-73552899D02*
X93959402Y-73519228D01*
X93959402Y-73519228D02*
X94127761Y-73350869D01*
X94127761Y-73350869D02*
X94161433Y-73249854D01*
X94161433Y-73249854D02*
X94161433Y-73182510D01*
X94161433Y-73182510D02*
X94127761Y-73081495D01*
X94127761Y-73081495D02*
X93993074Y-72946808D01*
X93993074Y-72946808D02*
X93892059Y-72913136D01*
X93892059Y-72913136D02*
X93824715Y-72913136D01*
X93824715Y-72913136D02*
X93723700Y-72946808D01*
X90925750Y-76743246D02*
X91498170Y-77315666D01*
X91498170Y-77315666D02*
X91599185Y-77349338D01*
X91599185Y-77349338D02*
X91666529Y-77349338D01*
X91666529Y-77349338D02*
X91767544Y-77315666D01*
X91767544Y-77315666D02*
X91902231Y-77180979D01*
X91902231Y-77180979D02*
X91935903Y-77079964D01*
X91935903Y-77079964D02*
X91935903Y-77012620D01*
X91935903Y-77012620D02*
X91902231Y-76911605D01*
X91902231Y-76911605D02*
X91329811Y-76339185D01*
X92003246Y-75665750D02*
X91666529Y-76002468D01*
X91666529Y-76002468D02*
X91969575Y-76372857D01*
X91969575Y-76372857D02*
X91969575Y-76305514D01*
X91969575Y-76305514D02*
X92003246Y-76204498D01*
X92003246Y-76204498D02*
X92171605Y-76036140D01*
X92171605Y-76036140D02*
X92272620Y-76002468D01*
X92272620Y-76002468D02*
X92339964Y-76002468D01*
X92339964Y-76002468D02*
X92440979Y-76036140D01*
X92440979Y-76036140D02*
X92609338Y-76204498D01*
X92609338Y-76204498D02*
X92643010Y-76305514D01*
X92643010Y-76305514D02*
X92643010Y-76372857D01*
X92643010Y-76372857D02*
X92609338Y-76473872D01*
X92609338Y-76473872D02*
X92440979Y-76642231D01*
X92440979Y-76642231D02*
X92339964Y-76675903D01*
X92339964Y-76675903D02*
X92272620Y-76675903D01*
X110436482Y-98979693D02*
X111143589Y-98272587D01*
X111143589Y-98272587D02*
X111311948Y-98440945D01*
X111311948Y-98440945D02*
X111379291Y-98575632D01*
X111379291Y-98575632D02*
X111379291Y-98710319D01*
X111379291Y-98710319D02*
X111345619Y-98811335D01*
X111345619Y-98811335D02*
X111244604Y-98979693D01*
X111244604Y-98979693D02*
X111143589Y-99080709D01*
X111143589Y-99080709D02*
X110975230Y-99181724D01*
X110975230Y-99181724D02*
X110874215Y-99215396D01*
X110874215Y-99215396D02*
X110739528Y-99215396D01*
X110739528Y-99215396D02*
X110604841Y-99148052D01*
X110604841Y-99148052D02*
X110436482Y-98979693D01*
X112187413Y-99316411D02*
X111850696Y-98979693D01*
X111850696Y-98979693D02*
X111480306Y-99282739D01*
X111480306Y-99282739D02*
X111547650Y-99282739D01*
X111547650Y-99282739D02*
X111648665Y-99316411D01*
X111648665Y-99316411D02*
X111817024Y-99484770D01*
X111817024Y-99484770D02*
X111850696Y-99585785D01*
X111850696Y-99585785D02*
X111850696Y-99653128D01*
X111850696Y-99653128D02*
X111817024Y-99754144D01*
X111817024Y-99754144D02*
X111648665Y-99922502D01*
X111648665Y-99922502D02*
X111547650Y-99956174D01*
X111547650Y-99956174D02*
X111480306Y-99956174D01*
X111480306Y-99956174D02*
X111379291Y-99922502D01*
X111379291Y-99922502D02*
X111210932Y-99754144D01*
X111210932Y-99754144D02*
X111177261Y-99653128D01*
X111177261Y-99653128D02*
X111177261Y-99585785D01*
X93070804Y-70891821D02*
X93777911Y-70184715D01*
X93777911Y-70184715D02*
X93946270Y-70353073D01*
X93946270Y-70353073D02*
X94013613Y-70487760D01*
X94013613Y-70487760D02*
X94013613Y-70622447D01*
X94013613Y-70622447D02*
X93979941Y-70723463D01*
X93979941Y-70723463D02*
X93878926Y-70891821D01*
X93878926Y-70891821D02*
X93777911Y-70992837D01*
X93777911Y-70992837D02*
X93609552Y-71093852D01*
X93609552Y-71093852D02*
X93508537Y-71127524D01*
X93508537Y-71127524D02*
X93373850Y-71127524D01*
X93373850Y-71127524D02*
X93239163Y-71060180D01*
X93239163Y-71060180D02*
X93070804Y-70891821D01*
X94384002Y-70925493D02*
X94451346Y-70925493D01*
X94451346Y-70925493D02*
X94552361Y-70959165D01*
X94552361Y-70959165D02*
X94720720Y-71127524D01*
X94720720Y-71127524D02*
X94754392Y-71228539D01*
X94754392Y-71228539D02*
X94754392Y-71295882D01*
X94754392Y-71295882D02*
X94720720Y-71396898D01*
X94720720Y-71396898D02*
X94653376Y-71464241D01*
X94653376Y-71464241D02*
X94518689Y-71531585D01*
X94518689Y-71531585D02*
X93710567Y-71531585D01*
X93710567Y-71531585D02*
X94148300Y-71969317D01*
X95495170Y-71901974D02*
X95158453Y-71565256D01*
X95158453Y-71565256D02*
X94788064Y-71868302D01*
X94788064Y-71868302D02*
X94855407Y-71868302D01*
X94855407Y-71868302D02*
X94956422Y-71901974D01*
X94956422Y-71901974D02*
X95124781Y-72070333D01*
X95124781Y-72070333D02*
X95158453Y-72171348D01*
X95158453Y-72171348D02*
X95158453Y-72238692D01*
X95158453Y-72238692D02*
X95124781Y-72339707D01*
X95124781Y-72339707D02*
X94956422Y-72508066D01*
X94956422Y-72508066D02*
X94855407Y-72541737D01*
X94855407Y-72541737D02*
X94788064Y-72541737D01*
X94788064Y-72541737D02*
X94687048Y-72508066D01*
X94687048Y-72508066D02*
X94518690Y-72339707D01*
X94518690Y-72339707D02*
X94485018Y-72238692D01*
X94485018Y-72238692D02*
X94485018Y-72171348D01*
X106203056Y-75830154D02*
X105495950Y-75123047D01*
X105495950Y-75123047D02*
X105664308Y-74954688D01*
X105664308Y-74954688D02*
X105798995Y-74887345D01*
X105798995Y-74887345D02*
X105933682Y-74887345D01*
X105933682Y-74887345D02*
X106034698Y-74921017D01*
X106034698Y-74921017D02*
X106203056Y-75022032D01*
X106203056Y-75022032D02*
X106304072Y-75123047D01*
X106304072Y-75123047D02*
X106405087Y-75291406D01*
X106405087Y-75291406D02*
X106438759Y-75392421D01*
X106438759Y-75392421D02*
X106438759Y-75527108D01*
X106438759Y-75527108D02*
X106371415Y-75661795D01*
X106371415Y-75661795D02*
X106203056Y-75830154D01*
X106236728Y-74516956D02*
X106236728Y-74449612D01*
X106236728Y-74449612D02*
X106270400Y-74348597D01*
X106270400Y-74348597D02*
X106438759Y-74180238D01*
X106438759Y-74180238D02*
X106539774Y-74146566D01*
X106539774Y-74146566D02*
X106607117Y-74146566D01*
X106607117Y-74146566D02*
X106708133Y-74180238D01*
X106708133Y-74180238D02*
X106775476Y-74247582D01*
X106775476Y-74247582D02*
X106842820Y-74382269D01*
X106842820Y-74382269D02*
X106842820Y-75190391D01*
X106842820Y-75190391D02*
X107280552Y-74752658D01*
X179986667Y-78737200D02*
X180129524Y-78784819D01*
X180129524Y-78784819D02*
X180367619Y-78784819D01*
X180367619Y-78784819D02*
X180462857Y-78737200D01*
X180462857Y-78737200D02*
X180510476Y-78689580D01*
X180510476Y-78689580D02*
X180558095Y-78594342D01*
X180558095Y-78594342D02*
X180558095Y-78499104D01*
X180558095Y-78499104D02*
X180510476Y-78403866D01*
X180510476Y-78403866D02*
X180462857Y-78356247D01*
X180462857Y-78356247D02*
X180367619Y-78308628D01*
X180367619Y-78308628D02*
X180177143Y-78261009D01*
X180177143Y-78261009D02*
X180081905Y-78213390D01*
X180081905Y-78213390D02*
X180034286Y-78165771D01*
X180034286Y-78165771D02*
X179986667Y-78070533D01*
X179986667Y-78070533D02*
X179986667Y-77975295D01*
X179986667Y-77975295D02*
X180034286Y-77880057D01*
X180034286Y-77880057D02*
X180081905Y-77832438D01*
X180081905Y-77832438D02*
X180177143Y-77784819D01*
X180177143Y-77784819D02*
X180415238Y-77784819D01*
X180415238Y-77784819D02*
X180558095Y-77832438D01*
X180891429Y-77784819D02*
X181129524Y-78784819D01*
X181129524Y-78784819D02*
X181320000Y-78070533D01*
X181320000Y-78070533D02*
X181510476Y-78784819D01*
X181510476Y-78784819D02*
X181748572Y-77784819D01*
X182653333Y-78784819D02*
X182081905Y-78784819D01*
X182367619Y-78784819D02*
X182367619Y-77784819D01*
X182367619Y-77784819D02*
X182272381Y-77927676D01*
X182272381Y-77927676D02*
X182177143Y-78022914D01*
X182177143Y-78022914D02*
X182081905Y-78070533D01*
X85837102Y-78380082D02*
X86544209Y-77672976D01*
X86544209Y-77672976D02*
X86712568Y-77841334D01*
X86712568Y-77841334D02*
X86779911Y-77976021D01*
X86779911Y-77976021D02*
X86779911Y-78110708D01*
X86779911Y-78110708D02*
X86746239Y-78211724D01*
X86746239Y-78211724D02*
X86645224Y-78380082D01*
X86645224Y-78380082D02*
X86544209Y-78481098D01*
X86544209Y-78481098D02*
X86375850Y-78582113D01*
X86375850Y-78582113D02*
X86274835Y-78615785D01*
X86274835Y-78615785D02*
X86140148Y-78615785D01*
X86140148Y-78615785D02*
X86005461Y-78548441D01*
X86005461Y-78548441D02*
X85837102Y-78380082D01*
X87150300Y-78413754D02*
X87217644Y-78413754D01*
X87217644Y-78413754D02*
X87318659Y-78447426D01*
X87318659Y-78447426D02*
X87487018Y-78615785D01*
X87487018Y-78615785D02*
X87520690Y-78716800D01*
X87520690Y-78716800D02*
X87520690Y-78784143D01*
X87520690Y-78784143D02*
X87487018Y-78885159D01*
X87487018Y-78885159D02*
X87419674Y-78952502D01*
X87419674Y-78952502D02*
X87284987Y-79019846D01*
X87284987Y-79019846D02*
X86476865Y-79019846D01*
X86476865Y-79019846D02*
X86914598Y-79457578D01*
X87992094Y-79592266D02*
X87520690Y-80063670D01*
X88093110Y-79154533D02*
X87419675Y-79491250D01*
X87419675Y-79491250D02*
X87857407Y-79928983D01*
X94656411Y-101722112D02*
X94656411Y-101789456D01*
X94656411Y-101789456D02*
X94589067Y-101924143D01*
X94589067Y-101924143D02*
X94521724Y-101991486D01*
X94521724Y-101991486D02*
X94387037Y-102058830D01*
X94387037Y-102058830D02*
X94252350Y-102058830D01*
X94252350Y-102058830D02*
X94151335Y-102025158D01*
X94151335Y-102025158D02*
X93982976Y-101924143D01*
X93982976Y-101924143D02*
X93881961Y-101823128D01*
X93881961Y-101823128D02*
X93780945Y-101654769D01*
X93780945Y-101654769D02*
X93747274Y-101553754D01*
X93747274Y-101553754D02*
X93747274Y-101419067D01*
X93747274Y-101419067D02*
X93814617Y-101284380D01*
X93814617Y-101284380D02*
X93881961Y-101217036D01*
X93881961Y-101217036D02*
X94016648Y-101149693D01*
X94016648Y-101149693D02*
X94083991Y-101149693D01*
X95397189Y-101116021D02*
X94993128Y-101520082D01*
X95195159Y-101318051D02*
X94488052Y-100610945D01*
X94488052Y-100610945D02*
X94521724Y-100779303D01*
X94521724Y-100779303D02*
X94521724Y-100913990D01*
X94521724Y-100913990D02*
X94488052Y-101015006D01*
X93566411Y-100722112D02*
X93566411Y-100789456D01*
X93566411Y-100789456D02*
X93499067Y-100924143D01*
X93499067Y-100924143D02*
X93431724Y-100991486D01*
X93431724Y-100991486D02*
X93297037Y-101058830D01*
X93297037Y-101058830D02*
X93162350Y-101058830D01*
X93162350Y-101058830D02*
X93061335Y-101025158D01*
X93061335Y-101025158D02*
X92892976Y-100924143D01*
X92892976Y-100924143D02*
X92791961Y-100823128D01*
X92791961Y-100823128D02*
X92690945Y-100654769D01*
X92690945Y-100654769D02*
X92657274Y-100553754D01*
X92657274Y-100553754D02*
X92657274Y-100419067D01*
X92657274Y-100419067D02*
X92724617Y-100284380D01*
X92724617Y-100284380D02*
X92791961Y-100217036D01*
X92791961Y-100217036D02*
X92926648Y-100149693D01*
X92926648Y-100149693D02*
X92993991Y-100149693D01*
X93162350Y-99846647D02*
X93600083Y-99408914D01*
X93600083Y-99408914D02*
X93633754Y-99913990D01*
X93633754Y-99913990D02*
X93734770Y-99812975D01*
X93734770Y-99812975D02*
X93835785Y-99779303D01*
X93835785Y-99779303D02*
X93903128Y-99779303D01*
X93903128Y-99779303D02*
X94004144Y-99812975D01*
X94004144Y-99812975D02*
X94172502Y-99981334D01*
X94172502Y-99981334D02*
X94206174Y-100082349D01*
X94206174Y-100082349D02*
X94206174Y-100149693D01*
X94206174Y-100149693D02*
X94172502Y-100250708D01*
X94172502Y-100250708D02*
X93970472Y-100452738D01*
X93970472Y-100452738D02*
X93869457Y-100486410D01*
X93869457Y-100486410D02*
X93802113Y-100486410D01*
X114016169Y-96039693D02*
X113948825Y-96039693D01*
X113948825Y-96039693D02*
X113814138Y-95972349D01*
X113814138Y-95972349D02*
X113746795Y-95905006D01*
X113746795Y-95905006D02*
X113679451Y-95770319D01*
X113679451Y-95770319D02*
X113679451Y-95635632D01*
X113679451Y-95635632D02*
X113713123Y-95534617D01*
X113713123Y-95534617D02*
X113814138Y-95366258D01*
X113814138Y-95366258D02*
X113915153Y-95265243D01*
X113915153Y-95265243D02*
X114083512Y-95164227D01*
X114083512Y-95164227D02*
X114184527Y-95130556D01*
X114184527Y-95130556D02*
X114319214Y-95130556D01*
X114319214Y-95130556D02*
X114453901Y-95197899D01*
X114453901Y-95197899D02*
X114521245Y-95265243D01*
X114521245Y-95265243D02*
X114588588Y-95399930D01*
X114588588Y-95399930D02*
X114588588Y-95467273D01*
X114857962Y-95736647D02*
X114925306Y-95736647D01*
X114925306Y-95736647D02*
X115026321Y-95770319D01*
X115026321Y-95770319D02*
X115194680Y-95938678D01*
X115194680Y-95938678D02*
X115228352Y-96039693D01*
X115228352Y-96039693D02*
X115228352Y-96107036D01*
X115228352Y-96107036D02*
X115194680Y-96208052D01*
X115194680Y-96208052D02*
X115127336Y-96275395D01*
X115127336Y-96275395D02*
X114992649Y-96342739D01*
X114992649Y-96342739D02*
X114184527Y-96342739D01*
X114184527Y-96342739D02*
X114622260Y-96780471D01*
X114958978Y-97117189D02*
X115093665Y-97251876D01*
X115093665Y-97251876D02*
X115194680Y-97285548D01*
X115194680Y-97285548D02*
X115262024Y-97285548D01*
X115262024Y-97285548D02*
X115430382Y-97251876D01*
X115430382Y-97251876D02*
X115598741Y-97150861D01*
X115598741Y-97150861D02*
X115868115Y-96881487D01*
X115868115Y-96881487D02*
X115901787Y-96780472D01*
X115901787Y-96780472D02*
X115901787Y-96713128D01*
X115901787Y-96713128D02*
X115868115Y-96612113D01*
X115868115Y-96612113D02*
X115733428Y-96477426D01*
X115733428Y-96477426D02*
X115632413Y-96443754D01*
X115632413Y-96443754D02*
X115565069Y-96443754D01*
X115565069Y-96443754D02*
X115464054Y-96477426D01*
X115464054Y-96477426D02*
X115295695Y-96645785D01*
X115295695Y-96645785D02*
X115262024Y-96746800D01*
X115262024Y-96746800D02*
X115262024Y-96814143D01*
X115262024Y-96814143D02*
X115295695Y-96915159D01*
X115295695Y-96915159D02*
X115430382Y-97049846D01*
X115430382Y-97049846D02*
X115531398Y-97083517D01*
X115531398Y-97083517D02*
X115598741Y-97083517D01*
X115598741Y-97083517D02*
X115699756Y-97049846D01*
X148057142Y-73939580D02*
X148009523Y-73987200D01*
X148009523Y-73987200D02*
X147866666Y-74034819D01*
X147866666Y-74034819D02*
X147771428Y-74034819D01*
X147771428Y-74034819D02*
X147628571Y-73987200D01*
X147628571Y-73987200D02*
X147533333Y-73891961D01*
X147533333Y-73891961D02*
X147485714Y-73796723D01*
X147485714Y-73796723D02*
X147438095Y-73606247D01*
X147438095Y-73606247D02*
X147438095Y-73463390D01*
X147438095Y-73463390D02*
X147485714Y-73272914D01*
X147485714Y-73272914D02*
X147533333Y-73177676D01*
X147533333Y-73177676D02*
X147628571Y-73082438D01*
X147628571Y-73082438D02*
X147771428Y-73034819D01*
X147771428Y-73034819D02*
X147866666Y-73034819D01*
X147866666Y-73034819D02*
X148009523Y-73082438D01*
X148009523Y-73082438D02*
X148057142Y-73130057D01*
X149009523Y-74034819D02*
X148438095Y-74034819D01*
X148723809Y-74034819D02*
X148723809Y-73034819D01*
X148723809Y-73034819D02*
X148628571Y-73177676D01*
X148628571Y-73177676D02*
X148533333Y-73272914D01*
X148533333Y-73272914D02*
X148438095Y-73320533D01*
X149580952Y-73463390D02*
X149485714Y-73415771D01*
X149485714Y-73415771D02*
X149438095Y-73368152D01*
X149438095Y-73368152D02*
X149390476Y-73272914D01*
X149390476Y-73272914D02*
X149390476Y-73225295D01*
X149390476Y-73225295D02*
X149438095Y-73130057D01*
X149438095Y-73130057D02*
X149485714Y-73082438D01*
X149485714Y-73082438D02*
X149580952Y-73034819D01*
X149580952Y-73034819D02*
X149771428Y-73034819D01*
X149771428Y-73034819D02*
X149866666Y-73082438D01*
X149866666Y-73082438D02*
X149914285Y-73130057D01*
X149914285Y-73130057D02*
X149961904Y-73225295D01*
X149961904Y-73225295D02*
X149961904Y-73272914D01*
X149961904Y-73272914D02*
X149914285Y-73368152D01*
X149914285Y-73368152D02*
X149866666Y-73415771D01*
X149866666Y-73415771D02*
X149771428Y-73463390D01*
X149771428Y-73463390D02*
X149580952Y-73463390D01*
X149580952Y-73463390D02*
X149485714Y-73511009D01*
X149485714Y-73511009D02*
X149438095Y-73558628D01*
X149438095Y-73558628D02*
X149390476Y-73653866D01*
X149390476Y-73653866D02*
X149390476Y-73844342D01*
X149390476Y-73844342D02*
X149438095Y-73939580D01*
X149438095Y-73939580D02*
X149485714Y-73987200D01*
X149485714Y-73987200D02*
X149580952Y-74034819D01*
X149580952Y-74034819D02*
X149771428Y-74034819D01*
X149771428Y-74034819D02*
X149866666Y-73987200D01*
X149866666Y-73987200D02*
X149914285Y-73939580D01*
X149914285Y-73939580D02*
X149961904Y-73844342D01*
X149961904Y-73844342D02*
X149961904Y-73653866D01*
X149961904Y-73653866D02*
X149914285Y-73558628D01*
X149914285Y-73558628D02*
X149866666Y-73511009D01*
X149866666Y-73511009D02*
X149771428Y-73463390D01*
X67207144Y-74244819D02*
X66873811Y-73768628D01*
X66635716Y-74244819D02*
X66635716Y-73244819D01*
X66635716Y-73244819D02*
X67016668Y-73244819D01*
X67016668Y-73244819D02*
X67111906Y-73292438D01*
X67111906Y-73292438D02*
X67159525Y-73340057D01*
X67159525Y-73340057D02*
X67207144Y-73435295D01*
X67207144Y-73435295D02*
X67207144Y-73578152D01*
X67207144Y-73578152D02*
X67159525Y-73673390D01*
X67159525Y-73673390D02*
X67111906Y-73721009D01*
X67111906Y-73721009D02*
X67016668Y-73768628D01*
X67016668Y-73768628D02*
X66635716Y-73768628D01*
X68159525Y-74244819D02*
X67588097Y-74244819D01*
X67873811Y-74244819D02*
X67873811Y-73244819D01*
X67873811Y-73244819D02*
X67778573Y-73387676D01*
X67778573Y-73387676D02*
X67683335Y-73482914D01*
X67683335Y-73482914D02*
X67588097Y-73530533D01*
X68635716Y-74244819D02*
X68826192Y-74244819D01*
X68826192Y-74244819D02*
X68921430Y-74197200D01*
X68921430Y-74197200D02*
X68969049Y-74149580D01*
X68969049Y-74149580D02*
X69064287Y-74006723D01*
X69064287Y-74006723D02*
X69111906Y-73816247D01*
X69111906Y-73816247D02*
X69111906Y-73435295D01*
X69111906Y-73435295D02*
X69064287Y-73340057D01*
X69064287Y-73340057D02*
X69016668Y-73292438D01*
X69016668Y-73292438D02*
X68921430Y-73244819D01*
X68921430Y-73244819D02*
X68730954Y-73244819D01*
X68730954Y-73244819D02*
X68635716Y-73292438D01*
X68635716Y-73292438D02*
X68588097Y-73340057D01*
X68588097Y-73340057D02*
X68540478Y-73435295D01*
X68540478Y-73435295D02*
X68540478Y-73673390D01*
X68540478Y-73673390D02*
X68588097Y-73768628D01*
X68588097Y-73768628D02*
X68635716Y-73816247D01*
X68635716Y-73816247D02*
X68730954Y-73863866D01*
X68730954Y-73863866D02*
X68921430Y-73863866D01*
X68921430Y-73863866D02*
X69016668Y-73816247D01*
X69016668Y-73816247D02*
X69064287Y-73768628D01*
X69064287Y-73768628D02*
X69111906Y-73673390D01*
X131189693Y-87468829D02*
X131189693Y-87536173D01*
X131189693Y-87536173D02*
X131122349Y-87670860D01*
X131122349Y-87670860D02*
X131055006Y-87738203D01*
X131055006Y-87738203D02*
X130920319Y-87805547D01*
X130920319Y-87805547D02*
X130785632Y-87805547D01*
X130785632Y-87805547D02*
X130684617Y-87771875D01*
X130684617Y-87771875D02*
X130516258Y-87670860D01*
X130516258Y-87670860D02*
X130415243Y-87569845D01*
X130415243Y-87569845D02*
X130314227Y-87401486D01*
X130314227Y-87401486D02*
X130280556Y-87300471D01*
X130280556Y-87300471D02*
X130280556Y-87165784D01*
X130280556Y-87165784D02*
X130347899Y-87031097D01*
X130347899Y-87031097D02*
X130415243Y-86963753D01*
X130415243Y-86963753D02*
X130549930Y-86896410D01*
X130549930Y-86896410D02*
X130617273Y-86896410D01*
X130785632Y-86593364D02*
X131223365Y-86155631D01*
X131223365Y-86155631D02*
X131257036Y-86660707D01*
X131257036Y-86660707D02*
X131358052Y-86559692D01*
X131358052Y-86559692D02*
X131459067Y-86526020D01*
X131459067Y-86526020D02*
X131526410Y-86526020D01*
X131526410Y-86526020D02*
X131627426Y-86559692D01*
X131627426Y-86559692D02*
X131795784Y-86728051D01*
X131795784Y-86728051D02*
X131829456Y-86829066D01*
X131829456Y-86829066D02*
X131829456Y-86896410D01*
X131829456Y-86896410D02*
X131795784Y-86997425D01*
X131795784Y-86997425D02*
X131593754Y-87199455D01*
X131593754Y-87199455D02*
X131492739Y-87233127D01*
X131492739Y-87233127D02*
X131425395Y-87233127D01*
X132603907Y-86189303D02*
X132199846Y-86593364D01*
X132401876Y-86391333D02*
X131694769Y-85684226D01*
X131694769Y-85684226D02*
X131728441Y-85852585D01*
X131728441Y-85852585D02*
X131728441Y-85987272D01*
X131728441Y-85987272D02*
X131694769Y-86088287D01*
X128433526Y-76143870D02*
X128096808Y-76480588D01*
X128568213Y-75537779D02*
X128433526Y-76143870D01*
X128433526Y-76143870D02*
X129039617Y-76009183D01*
X129174304Y-76278557D02*
X129241648Y-76278557D01*
X129241648Y-76278557D02*
X129342663Y-76312229D01*
X129342663Y-76312229D02*
X129511022Y-76480588D01*
X129511022Y-76480588D02*
X129544694Y-76581603D01*
X129544694Y-76581603D02*
X129544694Y-76648946D01*
X129544694Y-76648946D02*
X129511022Y-76749962D01*
X129511022Y-76749962D02*
X129443678Y-76817305D01*
X129443678Y-76817305D02*
X129308991Y-76884649D01*
X129308991Y-76884649D02*
X128500869Y-76884649D01*
X128500869Y-76884649D02*
X128938602Y-77322381D01*
X99426942Y-77324295D02*
X100134049Y-76617189D01*
X100134049Y-76617189D02*
X100302408Y-76785547D01*
X100302408Y-76785547D02*
X100369751Y-76920234D01*
X100369751Y-76920234D02*
X100369751Y-77054921D01*
X100369751Y-77054921D02*
X100336079Y-77155937D01*
X100336079Y-77155937D02*
X100235064Y-77324295D01*
X100235064Y-77324295D02*
X100134049Y-77425311D01*
X100134049Y-77425311D02*
X99965690Y-77526326D01*
X99965690Y-77526326D02*
X99864675Y-77559998D01*
X99864675Y-77559998D02*
X99729988Y-77559998D01*
X99729988Y-77559998D02*
X99595301Y-77492654D01*
X99595301Y-77492654D02*
X99426942Y-77324295D01*
X100740140Y-77357967D02*
X100807484Y-77357967D01*
X100807484Y-77357967D02*
X100908499Y-77391639D01*
X100908499Y-77391639D02*
X101076858Y-77559998D01*
X101076858Y-77559998D02*
X101110530Y-77661013D01*
X101110530Y-77661013D02*
X101110530Y-77728356D01*
X101110530Y-77728356D02*
X101076858Y-77829372D01*
X101076858Y-77829372D02*
X101009514Y-77896715D01*
X101009514Y-77896715D02*
X100874827Y-77964059D01*
X100874827Y-77964059D02*
X100066705Y-77964059D01*
X100066705Y-77964059D02*
X100504438Y-78401791D01*
X101447247Y-77930387D02*
X101884980Y-78368120D01*
X101884980Y-78368120D02*
X101379904Y-78401792D01*
X101379904Y-78401792D02*
X101480919Y-78502807D01*
X101480919Y-78502807D02*
X101514591Y-78603822D01*
X101514591Y-78603822D02*
X101514591Y-78671166D01*
X101514591Y-78671166D02*
X101480919Y-78772181D01*
X101480919Y-78772181D02*
X101312560Y-78940540D01*
X101312560Y-78940540D02*
X101211545Y-78974211D01*
X101211545Y-78974211D02*
X101144202Y-78974211D01*
X101144202Y-78974211D02*
X101043186Y-78940540D01*
X101043186Y-78940540D02*
X100841156Y-78738509D01*
X100841156Y-78738509D02*
X100807484Y-78637494D01*
X100807484Y-78637494D02*
X100807484Y-78570150D01*
X87351321Y-77574990D02*
X87452336Y-77002571D01*
X86947260Y-77170929D02*
X87654367Y-76463823D01*
X87654367Y-76463823D02*
X87923741Y-76733197D01*
X87923741Y-76733197D02*
X87957413Y-76834212D01*
X87957413Y-76834212D02*
X87957413Y-76901555D01*
X87957413Y-76901555D02*
X87923741Y-77002571D01*
X87923741Y-77002571D02*
X87822726Y-77103586D01*
X87822726Y-77103586D02*
X87721710Y-77137258D01*
X87721710Y-77137258D02*
X87654367Y-77137258D01*
X87654367Y-77137258D02*
X87553352Y-77103586D01*
X87553352Y-77103586D02*
X87283978Y-76834212D01*
X88294130Y-77103586D02*
X88731863Y-77541319D01*
X88731863Y-77541319D02*
X88226787Y-77574990D01*
X88226787Y-77574990D02*
X88327802Y-77676006D01*
X88327802Y-77676006D02*
X88361474Y-77777021D01*
X88361474Y-77777021D02*
X88361474Y-77844364D01*
X88361474Y-77844364D02*
X88327802Y-77945380D01*
X88327802Y-77945380D02*
X88159443Y-78113738D01*
X88159443Y-78113738D02*
X88058428Y-78147410D01*
X88058428Y-78147410D02*
X87991084Y-78147410D01*
X87991084Y-78147410D02*
X87890069Y-78113738D01*
X87890069Y-78113738D02*
X87688039Y-77911708D01*
X87688039Y-77911708D02*
X87654367Y-77810693D01*
X87654367Y-77810693D02*
X87654367Y-77743349D01*
X89102252Y-78383113D02*
X88630848Y-78854517D01*
X89203268Y-77945380D02*
X88529833Y-78282097D01*
X88529833Y-78282097D02*
X88967565Y-78719830D01*
X66695715Y-71354818D02*
X66695715Y-70354818D01*
X66695715Y-70354818D02*
X66933810Y-70354818D01*
X66933810Y-70354818D02*
X67076667Y-70402437D01*
X67076667Y-70402437D02*
X67171905Y-70497675D01*
X67171905Y-70497675D02*
X67219524Y-70592913D01*
X67219524Y-70592913D02*
X67267143Y-70783389D01*
X67267143Y-70783389D02*
X67267143Y-70926246D01*
X67267143Y-70926246D02*
X67219524Y-71116722D01*
X67219524Y-71116722D02*
X67171905Y-71211960D01*
X67171905Y-71211960D02*
X67076667Y-71307199D01*
X67076667Y-71307199D02*
X66933810Y-71354818D01*
X66933810Y-71354818D02*
X66695715Y-71354818D01*
X68219524Y-71354818D02*
X67648096Y-71354818D01*
X67933810Y-71354818D02*
X67933810Y-70354818D01*
X67933810Y-70354818D02*
X67838572Y-70497675D01*
X67838572Y-70497675D02*
X67743334Y-70592913D01*
X67743334Y-70592913D02*
X67648096Y-70640532D01*
X68552858Y-70354818D02*
X69219524Y-70354818D01*
X69219524Y-70354818D02*
X68790953Y-71354818D01*
X163347142Y-74099580D02*
X163299523Y-74147200D01*
X163299523Y-74147200D02*
X163156666Y-74194819D01*
X163156666Y-74194819D02*
X163061428Y-74194819D01*
X163061428Y-74194819D02*
X162918571Y-74147200D01*
X162918571Y-74147200D02*
X162823333Y-74051961D01*
X162823333Y-74051961D02*
X162775714Y-73956723D01*
X162775714Y-73956723D02*
X162728095Y-73766247D01*
X162728095Y-73766247D02*
X162728095Y-73623390D01*
X162728095Y-73623390D02*
X162775714Y-73432914D01*
X162775714Y-73432914D02*
X162823333Y-73337676D01*
X162823333Y-73337676D02*
X162918571Y-73242438D01*
X162918571Y-73242438D02*
X163061428Y-73194819D01*
X163061428Y-73194819D02*
X163156666Y-73194819D01*
X163156666Y-73194819D02*
X163299523Y-73242438D01*
X163299523Y-73242438D02*
X163347142Y-73290057D01*
X164299523Y-74194819D02*
X163728095Y-74194819D01*
X164013809Y-74194819D02*
X164013809Y-73194819D01*
X164013809Y-73194819D02*
X163918571Y-73337676D01*
X163918571Y-73337676D02*
X163823333Y-73432914D01*
X163823333Y-73432914D02*
X163728095Y-73480533D01*
X164775714Y-74194819D02*
X164966190Y-74194819D01*
X164966190Y-74194819D02*
X165061428Y-74147200D01*
X165061428Y-74147200D02*
X165109047Y-74099580D01*
X165109047Y-74099580D02*
X165204285Y-73956723D01*
X165204285Y-73956723D02*
X165251904Y-73766247D01*
X165251904Y-73766247D02*
X165251904Y-73385295D01*
X165251904Y-73385295D02*
X165204285Y-73290057D01*
X165204285Y-73290057D02*
X165156666Y-73242438D01*
X165156666Y-73242438D02*
X165061428Y-73194819D01*
X165061428Y-73194819D02*
X164870952Y-73194819D01*
X164870952Y-73194819D02*
X164775714Y-73242438D01*
X164775714Y-73242438D02*
X164728095Y-73290057D01*
X164728095Y-73290057D02*
X164680476Y-73385295D01*
X164680476Y-73385295D02*
X164680476Y-73623390D01*
X164680476Y-73623390D02*
X164728095Y-73718628D01*
X164728095Y-73718628D02*
X164775714Y-73766247D01*
X164775714Y-73766247D02*
X164870952Y-73813866D01*
X164870952Y-73813866D02*
X165061428Y-73813866D01*
X165061428Y-73813866D02*
X165156666Y-73766247D01*
X165156666Y-73766247D02*
X165204285Y-73718628D01*
X165204285Y-73718628D02*
X165251904Y-73623390D01*
X116195522Y-94066473D02*
X116128178Y-94066473D01*
X116128178Y-94066473D02*
X115993491Y-93999129D01*
X115993491Y-93999129D02*
X115926148Y-93931786D01*
X115926148Y-93931786D02*
X115858804Y-93797099D01*
X115858804Y-93797099D02*
X115858804Y-93662412D01*
X115858804Y-93662412D02*
X115892476Y-93561397D01*
X115892476Y-93561397D02*
X115993491Y-93393038D01*
X115993491Y-93393038D02*
X116094506Y-93292023D01*
X116094506Y-93292023D02*
X116262865Y-93191007D01*
X116262865Y-93191007D02*
X116363880Y-93157336D01*
X116363880Y-93157336D02*
X116498567Y-93157336D01*
X116498567Y-93157336D02*
X116633254Y-93224679D01*
X116633254Y-93224679D02*
X116700598Y-93292023D01*
X116700598Y-93292023D02*
X116767941Y-93426710D01*
X116767941Y-93426710D02*
X116767941Y-93494053D01*
X117037315Y-93763427D02*
X117104659Y-93763427D01*
X117104659Y-93763427D02*
X117205674Y-93797099D01*
X117205674Y-93797099D02*
X117374033Y-93965458D01*
X117374033Y-93965458D02*
X117407705Y-94066473D01*
X117407705Y-94066473D02*
X117407705Y-94133816D01*
X117407705Y-94133816D02*
X117374033Y-94234832D01*
X117374033Y-94234832D02*
X117306689Y-94302175D01*
X117306689Y-94302175D02*
X117172002Y-94369519D01*
X117172002Y-94369519D02*
X116363880Y-94369519D01*
X116363880Y-94369519D02*
X116801613Y-94807251D01*
X117710751Y-94436862D02*
X117778094Y-94436862D01*
X117778094Y-94436862D02*
X117879109Y-94470534D01*
X117879109Y-94470534D02*
X118047468Y-94638893D01*
X118047468Y-94638893D02*
X118081140Y-94739908D01*
X118081140Y-94739908D02*
X118081140Y-94807252D01*
X118081140Y-94807252D02*
X118047468Y-94908267D01*
X118047468Y-94908267D02*
X117980125Y-94975610D01*
X117980125Y-94975610D02*
X117845438Y-95042954D01*
X117845438Y-95042954D02*
X117037316Y-95042954D01*
X117037316Y-95042954D02*
X117475048Y-95480687D01*
X88814693Y-96643517D02*
X88107587Y-95936410D01*
X88107587Y-95936410D02*
X88275945Y-95768051D01*
X88275945Y-95768051D02*
X88410632Y-95700708D01*
X88410632Y-95700708D02*
X88545319Y-95700708D01*
X88545319Y-95700708D02*
X88646335Y-95734380D01*
X88646335Y-95734380D02*
X88814693Y-95835395D01*
X88814693Y-95835395D02*
X88915709Y-95936410D01*
X88915709Y-95936410D02*
X89016724Y-96104769D01*
X89016724Y-96104769D02*
X89050396Y-96205784D01*
X89050396Y-96205784D02*
X89050396Y-96340471D01*
X89050396Y-96340471D02*
X88983052Y-96475158D01*
X88983052Y-96475158D02*
X88814693Y-96643517D01*
X89218754Y-95431334D02*
X89117739Y-95465006D01*
X89117739Y-95465006D02*
X89050396Y-95465006D01*
X89050396Y-95465006D02*
X88949380Y-95431334D01*
X88949380Y-95431334D02*
X88915709Y-95397662D01*
X88915709Y-95397662D02*
X88882037Y-95296647D01*
X88882037Y-95296647D02*
X88882037Y-95229303D01*
X88882037Y-95229303D02*
X88915709Y-95128288D01*
X88915709Y-95128288D02*
X89050396Y-94993601D01*
X89050396Y-94993601D02*
X89151411Y-94959929D01*
X89151411Y-94959929D02*
X89218754Y-94959929D01*
X89218754Y-94959929D02*
X89319770Y-94993601D01*
X89319770Y-94993601D02*
X89353441Y-95027273D01*
X89353441Y-95027273D02*
X89387113Y-95128288D01*
X89387113Y-95128288D02*
X89387113Y-95195632D01*
X89387113Y-95195632D02*
X89353441Y-95296647D01*
X89353441Y-95296647D02*
X89218754Y-95431334D01*
X89218754Y-95431334D02*
X89185083Y-95532349D01*
X89185083Y-95532349D02*
X89185083Y-95599693D01*
X89185083Y-95599693D02*
X89218754Y-95700708D01*
X89218754Y-95700708D02*
X89353441Y-95835395D01*
X89353441Y-95835395D02*
X89454457Y-95869067D01*
X89454457Y-95869067D02*
X89521800Y-95869067D01*
X89521800Y-95869067D02*
X89622815Y-95835395D01*
X89622815Y-95835395D02*
X89757502Y-95700708D01*
X89757502Y-95700708D02*
X89791174Y-95599693D01*
X89791174Y-95599693D02*
X89791174Y-95532349D01*
X89791174Y-95532349D02*
X89757502Y-95431334D01*
X89757502Y-95431334D02*
X89622815Y-95296647D01*
X89622815Y-95296647D02*
X89521800Y-95262975D01*
X89521800Y-95262975D02*
X89454457Y-95262975D01*
X89454457Y-95262975D02*
X89353441Y-95296647D01*
X95039693Y-103358830D02*
X95039693Y-103426174D01*
X95039693Y-103426174D02*
X94972349Y-103560861D01*
X94972349Y-103560861D02*
X94905006Y-103628204D01*
X94905006Y-103628204D02*
X94770319Y-103695548D01*
X94770319Y-103695548D02*
X94635632Y-103695548D01*
X94635632Y-103695548D02*
X94534617Y-103661876D01*
X94534617Y-103661876D02*
X94366258Y-103560861D01*
X94366258Y-103560861D02*
X94265243Y-103459846D01*
X94265243Y-103459846D02*
X94164227Y-103291487D01*
X94164227Y-103291487D02*
X94130556Y-103190472D01*
X94130556Y-103190472D02*
X94130556Y-103055785D01*
X94130556Y-103055785D02*
X94197899Y-102921098D01*
X94197899Y-102921098D02*
X94265243Y-102853754D01*
X94265243Y-102853754D02*
X94399930Y-102786411D01*
X94399930Y-102786411D02*
X94467273Y-102786411D01*
X94736647Y-102517037D02*
X94736647Y-102449693D01*
X94736647Y-102449693D02*
X94770319Y-102348678D01*
X94770319Y-102348678D02*
X94938678Y-102180319D01*
X94938678Y-102180319D02*
X95039693Y-102146647D01*
X95039693Y-102146647D02*
X95107036Y-102146647D01*
X95107036Y-102146647D02*
X95208052Y-102180319D01*
X95208052Y-102180319D02*
X95275395Y-102247663D01*
X95275395Y-102247663D02*
X95342739Y-102382350D01*
X95342739Y-102382350D02*
X95342739Y-103190472D01*
X95342739Y-103190472D02*
X95780471Y-102752739D01*
X96453907Y-102079304D02*
X96049846Y-102483365D01*
X96251876Y-102281334D02*
X95544769Y-101574227D01*
X95544769Y-101574227D02*
X95578441Y-101742586D01*
X95578441Y-101742586D02*
X95578441Y-101877273D01*
X95578441Y-101877273D02*
X95544769Y-101978288D01*
X206844761Y-129464819D02*
X206511428Y-128988628D01*
X206273333Y-129464819D02*
X206273333Y-128464819D01*
X206273333Y-128464819D02*
X206654285Y-128464819D01*
X206654285Y-128464819D02*
X206749523Y-128512438D01*
X206749523Y-128512438D02*
X206797142Y-128560057D01*
X206797142Y-128560057D02*
X206844761Y-128655295D01*
X206844761Y-128655295D02*
X206844761Y-128798152D01*
X206844761Y-128798152D02*
X206797142Y-128893390D01*
X206797142Y-128893390D02*
X206749523Y-128941009D01*
X206749523Y-128941009D02*
X206654285Y-128988628D01*
X206654285Y-128988628D02*
X206273333Y-128988628D01*
X207130476Y-128464819D02*
X207463809Y-129464819D01*
X207463809Y-129464819D02*
X207797142Y-128464819D01*
X208654285Y-129464819D02*
X208082857Y-129464819D01*
X208368571Y-129464819D02*
X208368571Y-128464819D01*
X208368571Y-128464819D02*
X208273333Y-128607676D01*
X208273333Y-128607676D02*
X208178095Y-128702914D01*
X208178095Y-128702914D02*
X208082857Y-128750533D01*
X91916666Y-60944819D02*
X91916666Y-61659104D01*
X91916666Y-61659104D02*
X91869047Y-61801961D01*
X91869047Y-61801961D02*
X91773809Y-61897200D01*
X91773809Y-61897200D02*
X91630952Y-61944819D01*
X91630952Y-61944819D02*
X91535714Y-61944819D01*
X92916666Y-61944819D02*
X92345238Y-61944819D01*
X92630952Y-61944819D02*
X92630952Y-60944819D01*
X92630952Y-60944819D02*
X92535714Y-61087676D01*
X92535714Y-61087676D02*
X92440476Y-61182914D01*
X92440476Y-61182914D02*
X92345238Y-61230533D01*
X82125716Y-75789820D02*
X82125716Y-74789820D01*
X82125716Y-74789820D02*
X82363811Y-74789820D01*
X82363811Y-74789820D02*
X82506668Y-74837439D01*
X82506668Y-74837439D02*
X82601906Y-74932677D01*
X82601906Y-74932677D02*
X82649525Y-75027915D01*
X82649525Y-75027915D02*
X82697144Y-75218391D01*
X82697144Y-75218391D02*
X82697144Y-75361248D01*
X82697144Y-75361248D02*
X82649525Y-75551724D01*
X82649525Y-75551724D02*
X82601906Y-75646962D01*
X82601906Y-75646962D02*
X82506668Y-75742201D01*
X82506668Y-75742201D02*
X82363811Y-75789820D01*
X82363811Y-75789820D02*
X82125716Y-75789820D01*
X83649525Y-75789820D02*
X83078097Y-75789820D01*
X83363811Y-75789820D02*
X83363811Y-74789820D01*
X83363811Y-74789820D02*
X83268573Y-74932677D01*
X83268573Y-74932677D02*
X83173335Y-75027915D01*
X83173335Y-75027915D02*
X83078097Y-75075534D01*
X84601906Y-75789820D02*
X84030478Y-75789820D01*
X84316192Y-75789820D02*
X84316192Y-74789820D01*
X84316192Y-74789820D02*
X84220954Y-74932677D01*
X84220954Y-74932677D02*
X84125716Y-75027915D01*
X84125716Y-75027915D02*
X84030478Y-75075534D01*
X227378095Y-126847200D02*
X227520952Y-126894819D01*
X227520952Y-126894819D02*
X227759047Y-126894819D01*
X227759047Y-126894819D02*
X227854285Y-126847200D01*
X227854285Y-126847200D02*
X227901904Y-126799580D01*
X227901904Y-126799580D02*
X227949523Y-126704342D01*
X227949523Y-126704342D02*
X227949523Y-126609104D01*
X227949523Y-126609104D02*
X227901904Y-126513866D01*
X227901904Y-126513866D02*
X227854285Y-126466247D01*
X227854285Y-126466247D02*
X227759047Y-126418628D01*
X227759047Y-126418628D02*
X227568571Y-126371009D01*
X227568571Y-126371009D02*
X227473333Y-126323390D01*
X227473333Y-126323390D02*
X227425714Y-126275771D01*
X227425714Y-126275771D02*
X227378095Y-126180533D01*
X227378095Y-126180533D02*
X227378095Y-126085295D01*
X227378095Y-126085295D02*
X227425714Y-125990057D01*
X227425714Y-125990057D02*
X227473333Y-125942438D01*
X227473333Y-125942438D02*
X227568571Y-125894819D01*
X227568571Y-125894819D02*
X227806666Y-125894819D01*
X227806666Y-125894819D02*
X227949523Y-125942438D01*
X228330476Y-125990057D02*
X228378095Y-125942438D01*
X228378095Y-125942438D02*
X228473333Y-125894819D01*
X228473333Y-125894819D02*
X228711428Y-125894819D01*
X228711428Y-125894819D02*
X228806666Y-125942438D01*
X228806666Y-125942438D02*
X228854285Y-125990057D01*
X228854285Y-125990057D02*
X228901904Y-126085295D01*
X228901904Y-126085295D02*
X228901904Y-126180533D01*
X228901904Y-126180533D02*
X228854285Y-126323390D01*
X228854285Y-126323390D02*
X228282857Y-126894819D01*
X228282857Y-126894819D02*
X228901904Y-126894819D01*
X111526482Y-97849693D02*
X112233589Y-97142587D01*
X112233589Y-97142587D02*
X112401948Y-97310945D01*
X112401948Y-97310945D02*
X112469291Y-97445632D01*
X112469291Y-97445632D02*
X112469291Y-97580319D01*
X112469291Y-97580319D02*
X112435619Y-97681335D01*
X112435619Y-97681335D02*
X112334604Y-97849693D01*
X112334604Y-97849693D02*
X112233589Y-97950709D01*
X112233589Y-97950709D02*
X112065230Y-98051724D01*
X112065230Y-98051724D02*
X111964215Y-98085396D01*
X111964215Y-98085396D02*
X111829528Y-98085396D01*
X111829528Y-98085396D02*
X111694841Y-98018052D01*
X111694841Y-98018052D02*
X111526482Y-97849693D01*
X113008039Y-98388441D02*
X112536635Y-98859846D01*
X113109054Y-97950709D02*
X112435619Y-98287426D01*
X112435619Y-98287426D02*
X112873352Y-98725159D01*
X90085543Y-84713754D02*
X90186558Y-84141335D01*
X89681482Y-84309693D02*
X90388589Y-83602587D01*
X90388589Y-83602587D02*
X90657963Y-83871961D01*
X90657963Y-83871961D02*
X90691635Y-83972976D01*
X90691635Y-83972976D02*
X90691635Y-84040319D01*
X90691635Y-84040319D02*
X90657963Y-84141335D01*
X90657963Y-84141335D02*
X90556948Y-84242350D01*
X90556948Y-84242350D02*
X90455932Y-84276022D01*
X90455932Y-84276022D02*
X90388589Y-84276022D01*
X90388589Y-84276022D02*
X90287574Y-84242350D01*
X90287574Y-84242350D02*
X90018200Y-83972976D01*
X90758978Y-85387189D02*
X90354917Y-84983128D01*
X90556948Y-85185159D02*
X91264054Y-84478052D01*
X91264054Y-84478052D02*
X91095696Y-84511724D01*
X91095696Y-84511724D02*
X90961009Y-84511724D01*
X90961009Y-84511724D02*
X90859993Y-84478052D01*
X93554001Y-84089450D02*
X93655016Y-83517031D01*
X93149940Y-83685389D02*
X93857047Y-82978283D01*
X93857047Y-82978283D02*
X94126421Y-83247657D01*
X94126421Y-83247657D02*
X94160093Y-83348672D01*
X94160093Y-83348672D02*
X94160093Y-83416015D01*
X94160093Y-83416015D02*
X94126421Y-83517031D01*
X94126421Y-83517031D02*
X94025406Y-83618046D01*
X94025406Y-83618046D02*
X93924390Y-83651718D01*
X93924390Y-83651718D02*
X93857047Y-83651718D01*
X93857047Y-83651718D02*
X93756032Y-83618046D01*
X93756032Y-83618046D02*
X93486658Y-83348672D01*
X94496810Y-83618046D02*
X94934543Y-84055779D01*
X94934543Y-84055779D02*
X94429467Y-84089450D01*
X94429467Y-84089450D02*
X94530482Y-84190466D01*
X94530482Y-84190466D02*
X94564154Y-84291481D01*
X94564154Y-84291481D02*
X94564154Y-84358824D01*
X94564154Y-84358824D02*
X94530482Y-84459840D01*
X94530482Y-84459840D02*
X94362123Y-84628198D01*
X94362123Y-84628198D02*
X94261108Y-84661870D01*
X94261108Y-84661870D02*
X94193764Y-84661870D01*
X94193764Y-84661870D02*
X94092749Y-84628198D01*
X94092749Y-84628198D02*
X93890719Y-84426168D01*
X93890719Y-84426168D02*
X93857047Y-84325153D01*
X93857047Y-84325153D02*
X93857047Y-84257809D01*
X95136574Y-84392496D02*
X95203917Y-84392496D01*
X95203917Y-84392496D02*
X95304932Y-84426168D01*
X95304932Y-84426168D02*
X95473291Y-84594527D01*
X95473291Y-84594527D02*
X95506963Y-84695542D01*
X95506963Y-84695542D02*
X95506963Y-84762886D01*
X95506963Y-84762886D02*
X95473291Y-84863901D01*
X95473291Y-84863901D02*
X95405948Y-84931244D01*
X95405948Y-84931244D02*
X95271261Y-84998588D01*
X95271261Y-84998588D02*
X94463139Y-84998588D01*
X94463139Y-84998588D02*
X94900871Y-85436321D01*
X179652142Y-74019580D02*
X179604523Y-74067200D01*
X179604523Y-74067200D02*
X179461666Y-74114819D01*
X179461666Y-74114819D02*
X179366428Y-74114819D01*
X179366428Y-74114819D02*
X179223571Y-74067200D01*
X179223571Y-74067200D02*
X179128333Y-73971961D01*
X179128333Y-73971961D02*
X179080714Y-73876723D01*
X179080714Y-73876723D02*
X179033095Y-73686247D01*
X179033095Y-73686247D02*
X179033095Y-73543390D01*
X179033095Y-73543390D02*
X179080714Y-73352914D01*
X179080714Y-73352914D02*
X179128333Y-73257676D01*
X179128333Y-73257676D02*
X179223571Y-73162438D01*
X179223571Y-73162438D02*
X179366428Y-73114819D01*
X179366428Y-73114819D02*
X179461666Y-73114819D01*
X179461666Y-73114819D02*
X179604523Y-73162438D01*
X179604523Y-73162438D02*
X179652142Y-73210057D01*
X180033095Y-73210057D02*
X180080714Y-73162438D01*
X180080714Y-73162438D02*
X180175952Y-73114819D01*
X180175952Y-73114819D02*
X180414047Y-73114819D01*
X180414047Y-73114819D02*
X180509285Y-73162438D01*
X180509285Y-73162438D02*
X180556904Y-73210057D01*
X180556904Y-73210057D02*
X180604523Y-73305295D01*
X180604523Y-73305295D02*
X180604523Y-73400533D01*
X180604523Y-73400533D02*
X180556904Y-73543390D01*
X180556904Y-73543390D02*
X179985476Y-74114819D01*
X179985476Y-74114819D02*
X180604523Y-74114819D01*
X181223571Y-73114819D02*
X181318809Y-73114819D01*
X181318809Y-73114819D02*
X181414047Y-73162438D01*
X181414047Y-73162438D02*
X181461666Y-73210057D01*
X181461666Y-73210057D02*
X181509285Y-73305295D01*
X181509285Y-73305295D02*
X181556904Y-73495771D01*
X181556904Y-73495771D02*
X181556904Y-73733866D01*
X181556904Y-73733866D02*
X181509285Y-73924342D01*
X181509285Y-73924342D02*
X181461666Y-74019580D01*
X181461666Y-74019580D02*
X181414047Y-74067200D01*
X181414047Y-74067200D02*
X181318809Y-74114819D01*
X181318809Y-74114819D02*
X181223571Y-74114819D01*
X181223571Y-74114819D02*
X181128333Y-74067200D01*
X181128333Y-74067200D02*
X181080714Y-74019580D01*
X181080714Y-74019580D02*
X181033095Y-73924342D01*
X181033095Y-73924342D02*
X180985476Y-73733866D01*
X180985476Y-73733866D02*
X180985476Y-73495771D01*
X180985476Y-73495771D02*
X181033095Y-73305295D01*
X181033095Y-73305295D02*
X181080714Y-73210057D01*
X181080714Y-73210057D02*
X181128333Y-73162438D01*
X181128333Y-73162438D02*
X181223571Y-73114819D01*
X87107975Y-96310235D02*
X86400869Y-95603128D01*
X86400869Y-95603128D02*
X86569227Y-95434769D01*
X86569227Y-95434769D02*
X86703914Y-95367426D01*
X86703914Y-95367426D02*
X86838601Y-95367426D01*
X86838601Y-95367426D02*
X86939617Y-95401098D01*
X86939617Y-95401098D02*
X87107975Y-95502113D01*
X87107975Y-95502113D02*
X87208991Y-95603128D01*
X87208991Y-95603128D02*
X87310006Y-95771487D01*
X87310006Y-95771487D02*
X87343678Y-95872502D01*
X87343678Y-95872502D02*
X87343678Y-96007189D01*
X87343678Y-96007189D02*
X87276334Y-96141876D01*
X87276334Y-96141876D02*
X87107975Y-96310235D01*
X88185471Y-95232739D02*
X87781410Y-95636800D01*
X87983441Y-95434769D02*
X87276334Y-94727663D01*
X87276334Y-94727663D02*
X87310006Y-94896021D01*
X87310006Y-94896021D02*
X87310006Y-95030708D01*
X87310006Y-95030708D02*
X87276334Y-95131724D01*
X88118128Y-93885869D02*
X87781410Y-94222586D01*
X87781410Y-94222586D02*
X88084456Y-94592975D01*
X88084456Y-94592975D02*
X88084456Y-94525632D01*
X88084456Y-94525632D02*
X88118128Y-94424617D01*
X88118128Y-94424617D02*
X88286487Y-94256258D01*
X88286487Y-94256258D02*
X88387502Y-94222586D01*
X88387502Y-94222586D02*
X88454846Y-94222586D01*
X88454846Y-94222586D02*
X88555861Y-94256258D01*
X88555861Y-94256258D02*
X88724220Y-94424617D01*
X88724220Y-94424617D02*
X88757891Y-94525632D01*
X88757891Y-94525632D02*
X88757891Y-94592975D01*
X88757891Y-94592975D02*
X88724220Y-94693991D01*
X88724220Y-94693991D02*
X88555861Y-94862349D01*
X88555861Y-94862349D02*
X88454846Y-94896021D01*
X88454846Y-94896021D02*
X88387502Y-94896021D01*
X74322143Y-76909579D02*
X74274524Y-76957199D01*
X74274524Y-76957199D02*
X74131667Y-77004818D01*
X74131667Y-77004818D02*
X74036429Y-77004818D01*
X74036429Y-77004818D02*
X73893572Y-76957199D01*
X73893572Y-76957199D02*
X73798334Y-76861960D01*
X73798334Y-76861960D02*
X73750715Y-76766722D01*
X73750715Y-76766722D02*
X73703096Y-76576246D01*
X73703096Y-76576246D02*
X73703096Y-76433389D01*
X73703096Y-76433389D02*
X73750715Y-76242913D01*
X73750715Y-76242913D02*
X73798334Y-76147675D01*
X73798334Y-76147675D02*
X73893572Y-76052437D01*
X73893572Y-76052437D02*
X74036429Y-76004818D01*
X74036429Y-76004818D02*
X74131667Y-76004818D01*
X74131667Y-76004818D02*
X74274524Y-76052437D01*
X74274524Y-76052437D02*
X74322143Y-76100056D01*
X75274524Y-77004818D02*
X74703096Y-77004818D01*
X74988810Y-77004818D02*
X74988810Y-76004818D01*
X74988810Y-76004818D02*
X74893572Y-76147675D01*
X74893572Y-76147675D02*
X74798334Y-76242913D01*
X74798334Y-76242913D02*
X74703096Y-76290532D01*
X76131667Y-76004818D02*
X75941191Y-76004818D01*
X75941191Y-76004818D02*
X75845953Y-76052437D01*
X75845953Y-76052437D02*
X75798334Y-76100056D01*
X75798334Y-76100056D02*
X75703096Y-76242913D01*
X75703096Y-76242913D02*
X75655477Y-76433389D01*
X75655477Y-76433389D02*
X75655477Y-76814341D01*
X75655477Y-76814341D02*
X75703096Y-76909579D01*
X75703096Y-76909579D02*
X75750715Y-76957199D01*
X75750715Y-76957199D02*
X75845953Y-77004818D01*
X75845953Y-77004818D02*
X76036429Y-77004818D01*
X76036429Y-77004818D02*
X76131667Y-76957199D01*
X76131667Y-76957199D02*
X76179286Y-76909579D01*
X76179286Y-76909579D02*
X76226905Y-76814341D01*
X76226905Y-76814341D02*
X76226905Y-76576246D01*
X76226905Y-76576246D02*
X76179286Y-76481008D01*
X76179286Y-76481008D02*
X76131667Y-76433389D01*
X76131667Y-76433389D02*
X76036429Y-76385770D01*
X76036429Y-76385770D02*
X75845953Y-76385770D01*
X75845953Y-76385770D02*
X75750715Y-76433389D01*
X75750715Y-76433389D02*
X75703096Y-76481008D01*
X75703096Y-76481008D02*
X75655477Y-76576246D01*
X105508095Y-126787200D02*
X105650952Y-126834819D01*
X105650952Y-126834819D02*
X105889047Y-126834819D01*
X105889047Y-126834819D02*
X105984285Y-126787200D01*
X105984285Y-126787200D02*
X106031904Y-126739580D01*
X106031904Y-126739580D02*
X106079523Y-126644342D01*
X106079523Y-126644342D02*
X106079523Y-126549104D01*
X106079523Y-126549104D02*
X106031904Y-126453866D01*
X106031904Y-126453866D02*
X105984285Y-126406247D01*
X105984285Y-126406247D02*
X105889047Y-126358628D01*
X105889047Y-126358628D02*
X105698571Y-126311009D01*
X105698571Y-126311009D02*
X105603333Y-126263390D01*
X105603333Y-126263390D02*
X105555714Y-126215771D01*
X105555714Y-126215771D02*
X105508095Y-126120533D01*
X105508095Y-126120533D02*
X105508095Y-126025295D01*
X105508095Y-126025295D02*
X105555714Y-125930057D01*
X105555714Y-125930057D02*
X105603333Y-125882438D01*
X105603333Y-125882438D02*
X105698571Y-125834819D01*
X105698571Y-125834819D02*
X105936666Y-125834819D01*
X105936666Y-125834819D02*
X106079523Y-125882438D01*
X107031904Y-126834819D02*
X106460476Y-126834819D01*
X106746190Y-126834819D02*
X106746190Y-125834819D01*
X106746190Y-125834819D02*
X106650952Y-125977676D01*
X106650952Y-125977676D02*
X106555714Y-126072914D01*
X106555714Y-126072914D02*
X106460476Y-126120533D01*
X100918095Y-82174819D02*
X100918095Y-82984342D01*
X100918095Y-82984342D02*
X100965714Y-83079580D01*
X100965714Y-83079580D02*
X101013333Y-83127200D01*
X101013333Y-83127200D02*
X101108571Y-83174819D01*
X101108571Y-83174819D02*
X101299047Y-83174819D01*
X101299047Y-83174819D02*
X101394285Y-83127200D01*
X101394285Y-83127200D02*
X101441904Y-83079580D01*
X101441904Y-83079580D02*
X101489523Y-82984342D01*
X101489523Y-82984342D02*
X101489523Y-82174819D01*
X102489523Y-83174819D02*
X101918095Y-83174819D01*
X102203809Y-83174819D02*
X102203809Y-82174819D01*
X102203809Y-82174819D02*
X102108571Y-82317676D01*
X102108571Y-82317676D02*
X102013333Y-82412914D01*
X102013333Y-82412914D02*
X101918095Y-82460533D01*
X74948095Y-70079952D02*
X74948095Y-70889475D01*
X74948095Y-70889475D02*
X74995714Y-70984713D01*
X74995714Y-70984713D02*
X75043333Y-71032333D01*
X75043333Y-71032333D02*
X75138571Y-71079952D01*
X75138571Y-71079952D02*
X75329047Y-71079952D01*
X75329047Y-71079952D02*
X75424285Y-71032333D01*
X75424285Y-71032333D02*
X75471904Y-70984713D01*
X75471904Y-70984713D02*
X75519523Y-70889475D01*
X75519523Y-70889475D02*
X75519523Y-70079952D01*
X75948095Y-70175190D02*
X75995714Y-70127571D01*
X75995714Y-70127571D02*
X76090952Y-70079952D01*
X76090952Y-70079952D02*
X76329047Y-70079952D01*
X76329047Y-70079952D02*
X76424285Y-70127571D01*
X76424285Y-70127571D02*
X76471904Y-70175190D01*
X76471904Y-70175190D02*
X76519523Y-70270428D01*
X76519523Y-70270428D02*
X76519523Y-70365666D01*
X76519523Y-70365666D02*
X76471904Y-70508523D01*
X76471904Y-70508523D02*
X75900476Y-71079952D01*
X75900476Y-71079952D02*
X76519523Y-71079952D01*
X108564309Y-101625762D02*
X108496965Y-101625762D01*
X108496965Y-101625762D02*
X108362278Y-101558418D01*
X108362278Y-101558418D02*
X108294935Y-101491075D01*
X108294935Y-101491075D02*
X108227591Y-101356388D01*
X108227591Y-101356388D02*
X108227591Y-101221701D01*
X108227591Y-101221701D02*
X108261263Y-101120686D01*
X108261263Y-101120686D02*
X108362278Y-100952327D01*
X108362278Y-100952327D02*
X108463293Y-100851312D01*
X108463293Y-100851312D02*
X108631652Y-100750296D01*
X108631652Y-100750296D02*
X108732667Y-100716625D01*
X108732667Y-100716625D02*
X108867354Y-100716625D01*
X108867354Y-100716625D02*
X109002041Y-100783968D01*
X109002041Y-100783968D02*
X109069385Y-100851312D01*
X109069385Y-100851312D02*
X109136728Y-100985999D01*
X109136728Y-100985999D02*
X109136728Y-101053342D01*
X109406102Y-101322716D02*
X109473446Y-101322716D01*
X109473446Y-101322716D02*
X109574461Y-101356388D01*
X109574461Y-101356388D02*
X109742820Y-101524747D01*
X109742820Y-101524747D02*
X109776492Y-101625762D01*
X109776492Y-101625762D02*
X109776492Y-101693105D01*
X109776492Y-101693105D02*
X109742820Y-101794121D01*
X109742820Y-101794121D02*
X109675476Y-101861464D01*
X109675476Y-101861464D02*
X109540789Y-101928808D01*
X109540789Y-101928808D02*
X108732667Y-101928808D01*
X108732667Y-101928808D02*
X109170400Y-102366540D01*
X110247896Y-102501228D02*
X109776492Y-102972632D01*
X110348912Y-102063495D02*
X109675477Y-102400212D01*
X109675477Y-102400212D02*
X110113209Y-102837945D01*
X130935750Y-93923246D02*
X131508170Y-94495666D01*
X131508170Y-94495666D02*
X131609185Y-94529338D01*
X131609185Y-94529338D02*
X131676529Y-94529338D01*
X131676529Y-94529338D02*
X131777544Y-94495666D01*
X131777544Y-94495666D02*
X131912231Y-94360979D01*
X131912231Y-94360979D02*
X131945903Y-94259964D01*
X131945903Y-94259964D02*
X131945903Y-94192620D01*
X131945903Y-94192620D02*
X131912231Y-94091605D01*
X131912231Y-94091605D02*
X131339811Y-93519185D01*
X132215277Y-93115124D02*
X132686681Y-93586529D01*
X131777544Y-93014109D02*
X132114262Y-93687544D01*
X132114262Y-93687544D02*
X132551994Y-93249811D01*
X240259541Y-81801719D02*
X240783350Y-81135052D01*
X240259541Y-81135052D02*
X240783350Y-81801719D01*
X235506560Y-79341100D02*
X235649417Y-79388719D01*
X235649417Y-79388719D02*
X235887512Y-79388719D01*
X235887512Y-79388719D02*
X235982750Y-79341100D01*
X235982750Y-79341100D02*
X236030369Y-79293480D01*
X236030369Y-79293480D02*
X236077988Y-79198242D01*
X236077988Y-79198242D02*
X236077988Y-79103004D01*
X236077988Y-79103004D02*
X236030369Y-79007766D01*
X236030369Y-79007766D02*
X235982750Y-78960147D01*
X235982750Y-78960147D02*
X235887512Y-78912528D01*
X235887512Y-78912528D02*
X235697036Y-78864909D01*
X235697036Y-78864909D02*
X235601798Y-78817290D01*
X235601798Y-78817290D02*
X235554179Y-78769671D01*
X235554179Y-78769671D02*
X235506560Y-78674433D01*
X235506560Y-78674433D02*
X235506560Y-78579195D01*
X235506560Y-78579195D02*
X235554179Y-78483957D01*
X235554179Y-78483957D02*
X235601798Y-78436338D01*
X235601798Y-78436338D02*
X235697036Y-78388719D01*
X235697036Y-78388719D02*
X235935131Y-78388719D01*
X235935131Y-78388719D02*
X236077988Y-78436338D01*
X236506560Y-79388719D02*
X236506560Y-78388719D01*
X236506560Y-78388719D02*
X236887512Y-78388719D01*
X236887512Y-78388719D02*
X236982750Y-78436338D01*
X236982750Y-78436338D02*
X237030369Y-78483957D01*
X237030369Y-78483957D02*
X237077988Y-78579195D01*
X237077988Y-78579195D02*
X237077988Y-78722052D01*
X237077988Y-78722052D02*
X237030369Y-78817290D01*
X237030369Y-78817290D02*
X236982750Y-78864909D01*
X236982750Y-78864909D02*
X236887512Y-78912528D01*
X236887512Y-78912528D02*
X236506560Y-78912528D01*
X238077988Y-79388719D02*
X237744655Y-78912528D01*
X237506560Y-79388719D02*
X237506560Y-78388719D01*
X237506560Y-78388719D02*
X237887512Y-78388719D01*
X237887512Y-78388719D02*
X237982750Y-78436338D01*
X237982750Y-78436338D02*
X238030369Y-78483957D01*
X238030369Y-78483957D02*
X238077988Y-78579195D01*
X238077988Y-78579195D02*
X238077988Y-78722052D01*
X238077988Y-78722052D02*
X238030369Y-78817290D01*
X238030369Y-78817290D02*
X237982750Y-78864909D01*
X237982750Y-78864909D02*
X237887512Y-78912528D01*
X237887512Y-78912528D02*
X237506560Y-78912528D01*
X238506560Y-78864909D02*
X238839893Y-78864909D01*
X238982750Y-79388719D02*
X238506560Y-79388719D01*
X238506560Y-79388719D02*
X238506560Y-78388719D01*
X238506560Y-78388719D02*
X238982750Y-78388719D01*
X239363703Y-79103004D02*
X239839893Y-79103004D01*
X239268465Y-79388719D02*
X239601798Y-78388719D01*
X239601798Y-78388719D02*
X239935131Y-79388719D01*
X240268465Y-79388719D02*
X240268465Y-78388719D01*
X240268465Y-78388719D02*
X240506560Y-78388719D01*
X240506560Y-78388719D02*
X240649417Y-78436338D01*
X240649417Y-78436338D02*
X240744655Y-78531576D01*
X240744655Y-78531576D02*
X240792274Y-78626814D01*
X240792274Y-78626814D02*
X240839893Y-78817290D01*
X240839893Y-78817290D02*
X240839893Y-78960147D01*
X240839893Y-78960147D02*
X240792274Y-79150623D01*
X240792274Y-79150623D02*
X240744655Y-79245861D01*
X240744655Y-79245861D02*
X240649417Y-79341100D01*
X240649417Y-79341100D02*
X240506560Y-79388719D01*
X240506560Y-79388719D02*
X240268465Y-79388719D01*
X231251988Y-73457938D02*
X231156750Y-73410319D01*
X231156750Y-73410319D02*
X231013893Y-73410319D01*
X231013893Y-73410319D02*
X230871036Y-73457938D01*
X230871036Y-73457938D02*
X230775798Y-73553176D01*
X230775798Y-73553176D02*
X230728179Y-73648414D01*
X230728179Y-73648414D02*
X230680560Y-73838890D01*
X230680560Y-73838890D02*
X230680560Y-73981747D01*
X230680560Y-73981747D02*
X230728179Y-74172223D01*
X230728179Y-74172223D02*
X230775798Y-74267461D01*
X230775798Y-74267461D02*
X230871036Y-74362700D01*
X230871036Y-74362700D02*
X231013893Y-74410319D01*
X231013893Y-74410319D02*
X231109131Y-74410319D01*
X231109131Y-74410319D02*
X231251988Y-74362700D01*
X231251988Y-74362700D02*
X231299607Y-74315080D01*
X231299607Y-74315080D02*
X231299607Y-73981747D01*
X231299607Y-73981747D02*
X231109131Y-73981747D01*
X231728179Y-74410319D02*
X231728179Y-73410319D01*
X231728179Y-73410319D02*
X232299607Y-74410319D01*
X232299607Y-74410319D02*
X232299607Y-73410319D01*
X232775798Y-74410319D02*
X232775798Y-73410319D01*
X232775798Y-73410319D02*
X233013893Y-73410319D01*
X233013893Y-73410319D02*
X233156750Y-73457938D01*
X233156750Y-73457938D02*
X233251988Y-73553176D01*
X233251988Y-73553176D02*
X233299607Y-73648414D01*
X233299607Y-73648414D02*
X233347226Y-73838890D01*
X233347226Y-73838890D02*
X233347226Y-73981747D01*
X233347226Y-73981747D02*
X233299607Y-74172223D01*
X233299607Y-74172223D02*
X233251988Y-74267461D01*
X233251988Y-74267461D02*
X233156750Y-74362700D01*
X233156750Y-74362700D02*
X233013893Y-74410319D01*
X233013893Y-74410319D02*
X232775798Y-74410319D01*
X239110179Y-71067109D02*
X239443512Y-71067109D01*
X239586369Y-71590919D02*
X239110179Y-71590919D01*
X239110179Y-71590919D02*
X239110179Y-70590919D01*
X239110179Y-70590919D02*
X239586369Y-70590919D01*
X240014941Y-71590919D02*
X240014941Y-70590919D01*
X240014941Y-70590919D02*
X240586369Y-71590919D01*
X240586369Y-71590919D02*
X240586369Y-70590919D01*
X230702779Y-81954119D02*
X230702779Y-80954119D01*
X230702779Y-80954119D02*
X231036112Y-81668404D01*
X231036112Y-81668404D02*
X231369445Y-80954119D01*
X231369445Y-80954119D02*
X231369445Y-81954119D01*
X232369445Y-81954119D02*
X231798017Y-81954119D01*
X232083731Y-81954119D02*
X232083731Y-80954119D01*
X232083731Y-80954119D02*
X231988493Y-81096976D01*
X231988493Y-81096976D02*
X231893255Y-81192214D01*
X231893255Y-81192214D02*
X231798017Y-81239833D01*
X232750398Y-81668404D02*
X233226588Y-81668404D01*
X232655160Y-81954119D02*
X232988493Y-80954119D01*
X232988493Y-80954119D02*
X233321826Y-81954119D01*
X230702779Y-79388719D02*
X230702779Y-78388719D01*
X230702779Y-78388719D02*
X231036112Y-79103004D01*
X231036112Y-79103004D02*
X231369445Y-78388719D01*
X231369445Y-78388719D02*
X231369445Y-79388719D01*
X231798017Y-78483957D02*
X231845636Y-78436338D01*
X231845636Y-78436338D02*
X231940874Y-78388719D01*
X231940874Y-78388719D02*
X232178969Y-78388719D01*
X232178969Y-78388719D02*
X232274207Y-78436338D01*
X232274207Y-78436338D02*
X232321826Y-78483957D01*
X232321826Y-78483957D02*
X232369445Y-78579195D01*
X232369445Y-78579195D02*
X232369445Y-78674433D01*
X232369445Y-78674433D02*
X232321826Y-78817290D01*
X232321826Y-78817290D02*
X231750398Y-79388719D01*
X231750398Y-79388719D02*
X232369445Y-79388719D01*
X232750398Y-79103004D02*
X233226588Y-79103004D01*
X232655160Y-79388719D02*
X232988493Y-78388719D01*
X232988493Y-78388719D02*
X233321826Y-79388719D01*
X230778979Y-76848719D02*
X230778979Y-75848719D01*
X230778979Y-75848719D02*
X231112312Y-76563004D01*
X231112312Y-76563004D02*
X231445645Y-75848719D01*
X231445645Y-75848719D02*
X231445645Y-76848719D01*
X231874217Y-75943957D02*
X231921836Y-75896338D01*
X231921836Y-75896338D02*
X232017074Y-75848719D01*
X232017074Y-75848719D02*
X232255169Y-75848719D01*
X232255169Y-75848719D02*
X232350407Y-75896338D01*
X232350407Y-75896338D02*
X232398026Y-75943957D01*
X232398026Y-75943957D02*
X232445645Y-76039195D01*
X232445645Y-76039195D02*
X232445645Y-76134433D01*
X232445645Y-76134433D02*
X232398026Y-76277290D01*
X232398026Y-76277290D02*
X231826598Y-76848719D01*
X231826598Y-76848719D02*
X232445645Y-76848719D01*
X233207550Y-76324909D02*
X233350407Y-76372528D01*
X233350407Y-76372528D02*
X233398026Y-76420147D01*
X233398026Y-76420147D02*
X233445645Y-76515385D01*
X233445645Y-76515385D02*
X233445645Y-76658242D01*
X233445645Y-76658242D02*
X233398026Y-76753480D01*
X233398026Y-76753480D02*
X233350407Y-76801100D01*
X233350407Y-76801100D02*
X233255169Y-76848719D01*
X233255169Y-76848719D02*
X232874217Y-76848719D01*
X232874217Y-76848719D02*
X232874217Y-75848719D01*
X232874217Y-75848719D02*
X233207550Y-75848719D01*
X233207550Y-75848719D02*
X233302788Y-75896338D01*
X233302788Y-75896338D02*
X233350407Y-75943957D01*
X233350407Y-75943957D02*
X233398026Y-76039195D01*
X233398026Y-76039195D02*
X233398026Y-76134433D01*
X233398026Y-76134433D02*
X233350407Y-76229671D01*
X233350407Y-76229671D02*
X233302788Y-76277290D01*
X233302788Y-76277290D02*
X233207550Y-76324909D01*
X233207550Y-76324909D02*
X232874217Y-76324909D01*
X230813922Y-70743319D02*
X231147255Y-71743319D01*
X231147255Y-71743319D02*
X231480588Y-70743319D01*
X231813922Y-71743319D02*
X231813922Y-70743319D01*
X231813922Y-70743319D02*
X232147255Y-71457604D01*
X232147255Y-71457604D02*
X232480588Y-70743319D01*
X232480588Y-70743319D02*
X232480588Y-71743319D01*
X240284941Y-84290919D02*
X240808750Y-83624252D01*
X240284941Y-83624252D02*
X240808750Y-84290919D01*
X238579960Y-86986500D02*
X238722817Y-87034119D01*
X238722817Y-87034119D02*
X238960912Y-87034119D01*
X238960912Y-87034119D02*
X239056150Y-86986500D01*
X239056150Y-86986500D02*
X239103769Y-86938880D01*
X239103769Y-86938880D02*
X239151388Y-86843642D01*
X239151388Y-86843642D02*
X239151388Y-86748404D01*
X239151388Y-86748404D02*
X239103769Y-86653166D01*
X239103769Y-86653166D02*
X239056150Y-86605547D01*
X239056150Y-86605547D02*
X238960912Y-86557928D01*
X238960912Y-86557928D02*
X238770436Y-86510309D01*
X238770436Y-86510309D02*
X238675198Y-86462690D01*
X238675198Y-86462690D02*
X238627579Y-86415071D01*
X238627579Y-86415071D02*
X238579960Y-86319833D01*
X238579960Y-86319833D02*
X238579960Y-86224595D01*
X238579960Y-86224595D02*
X238627579Y-86129357D01*
X238627579Y-86129357D02*
X238675198Y-86081738D01*
X238675198Y-86081738D02*
X238770436Y-86034119D01*
X238770436Y-86034119D02*
X239008531Y-86034119D01*
X239008531Y-86034119D02*
X239151388Y-86081738D01*
X239437103Y-86034119D02*
X240008531Y-86034119D01*
X239722817Y-87034119D02*
X239722817Y-86034119D01*
X240341865Y-87034119D02*
X240341865Y-86034119D01*
X240341865Y-86034119D02*
X240722817Y-86034119D01*
X240722817Y-86034119D02*
X240818055Y-86081738D01*
X240818055Y-86081738D02*
X240865674Y-86129357D01*
X240865674Y-86129357D02*
X240913293Y-86224595D01*
X240913293Y-86224595D02*
X240913293Y-86367452D01*
X240913293Y-86367452D02*
X240865674Y-86462690D01*
X240865674Y-86462690D02*
X240818055Y-86510309D01*
X240818055Y-86510309D02*
X240722817Y-86557928D01*
X240722817Y-86557928D02*
X240341865Y-86557928D01*
X238830779Y-89523319D02*
X238830779Y-88523319D01*
X238830779Y-88523319D02*
X239068874Y-88523319D01*
X239068874Y-88523319D02*
X239211731Y-88570938D01*
X239211731Y-88570938D02*
X239306969Y-88666176D01*
X239306969Y-88666176D02*
X239354588Y-88761414D01*
X239354588Y-88761414D02*
X239402207Y-88951890D01*
X239402207Y-88951890D02*
X239402207Y-89094747D01*
X239402207Y-89094747D02*
X239354588Y-89285223D01*
X239354588Y-89285223D02*
X239306969Y-89380461D01*
X239306969Y-89380461D02*
X239211731Y-89475700D01*
X239211731Y-89475700D02*
X239068874Y-89523319D01*
X239068874Y-89523319D02*
X238830779Y-89523319D01*
X239830779Y-89523319D02*
X239830779Y-88523319D01*
X240878397Y-89523319D02*
X240545064Y-89047128D01*
X240306969Y-89523319D02*
X240306969Y-88523319D01*
X240306969Y-88523319D02*
X240687921Y-88523319D01*
X240687921Y-88523319D02*
X240783159Y-88570938D01*
X240783159Y-88570938D02*
X240830778Y-88618557D01*
X240830778Y-88618557D02*
X240878397Y-88713795D01*
X240878397Y-88713795D02*
X240878397Y-88856652D01*
X240878397Y-88856652D02*
X240830778Y-88951890D01*
X240830778Y-88951890D02*
X240783159Y-88999509D01*
X240783159Y-88999509D02*
X240687921Y-89047128D01*
X240687921Y-89047128D02*
X240306969Y-89047128D01*
X230788522Y-86110319D02*
X231121855Y-87110319D01*
X231121855Y-87110319D02*
X231455188Y-86110319D01*
X231788522Y-87110319D02*
X231788522Y-86110319D01*
X232455188Y-86110319D02*
X232645664Y-86110319D01*
X232645664Y-86110319D02*
X232740902Y-86157938D01*
X232740902Y-86157938D02*
X232836140Y-86253176D01*
X232836140Y-86253176D02*
X232883759Y-86443652D01*
X232883759Y-86443652D02*
X232883759Y-86776985D01*
X232883759Y-86776985D02*
X232836140Y-86967461D01*
X232836140Y-86967461D02*
X232740902Y-87062700D01*
X232740902Y-87062700D02*
X232645664Y-87110319D01*
X232645664Y-87110319D02*
X232455188Y-87110319D01*
X232455188Y-87110319D02*
X232359950Y-87062700D01*
X232359950Y-87062700D02*
X232264712Y-86967461D01*
X232264712Y-86967461D02*
X232217093Y-86776985D01*
X232217093Y-86776985D02*
X232217093Y-86443652D01*
X232217093Y-86443652D02*
X232264712Y-86253176D01*
X232264712Y-86253176D02*
X232359950Y-86157938D01*
X232359950Y-86157938D02*
X232455188Y-86110319D01*
X231226588Y-88570938D02*
X231131350Y-88523319D01*
X231131350Y-88523319D02*
X230988493Y-88523319D01*
X230988493Y-88523319D02*
X230845636Y-88570938D01*
X230845636Y-88570938D02*
X230750398Y-88666176D01*
X230750398Y-88666176D02*
X230702779Y-88761414D01*
X230702779Y-88761414D02*
X230655160Y-88951890D01*
X230655160Y-88951890D02*
X230655160Y-89094747D01*
X230655160Y-89094747D02*
X230702779Y-89285223D01*
X230702779Y-89285223D02*
X230750398Y-89380461D01*
X230750398Y-89380461D02*
X230845636Y-89475700D01*
X230845636Y-89475700D02*
X230988493Y-89523319D01*
X230988493Y-89523319D02*
X231083731Y-89523319D01*
X231083731Y-89523319D02*
X231226588Y-89475700D01*
X231226588Y-89475700D02*
X231274207Y-89428080D01*
X231274207Y-89428080D02*
X231274207Y-89094747D01*
X231274207Y-89094747D02*
X231083731Y-89094747D01*
X231702779Y-89523319D02*
X231702779Y-88523319D01*
X231702779Y-88523319D02*
X232274207Y-89523319D01*
X232274207Y-89523319D02*
X232274207Y-88523319D01*
X232750398Y-89523319D02*
X232750398Y-88523319D01*
X232750398Y-88523319D02*
X232988493Y-88523319D01*
X232988493Y-88523319D02*
X233131350Y-88570938D01*
X233131350Y-88570938D02*
X233226588Y-88666176D01*
X233226588Y-88666176D02*
X233274207Y-88761414D01*
X233274207Y-88761414D02*
X233321826Y-88951890D01*
X233321826Y-88951890D02*
X233321826Y-89094747D01*
X233321826Y-89094747D02*
X233274207Y-89285223D01*
X233274207Y-89285223D02*
X233226588Y-89380461D01*
X233226588Y-89380461D02*
X233131350Y-89475700D01*
X233131350Y-89475700D02*
X232988493Y-89523319D01*
X232988493Y-89523319D02*
X232750398Y-89523319D01*
X238322779Y-74054719D02*
X238322779Y-73054719D01*
X238322779Y-73054719D02*
X238656112Y-73769004D01*
X238656112Y-73769004D02*
X238989445Y-73054719D01*
X238989445Y-73054719D02*
X238989445Y-74054719D01*
X239418017Y-74007100D02*
X239560874Y-74054719D01*
X239560874Y-74054719D02*
X239798969Y-74054719D01*
X239798969Y-74054719D02*
X239894207Y-74007100D01*
X239894207Y-74007100D02*
X239941826Y-73959480D01*
X239941826Y-73959480D02*
X239989445Y-73864242D01*
X239989445Y-73864242D02*
X239989445Y-73769004D01*
X239989445Y-73769004D02*
X239941826Y-73673766D01*
X239941826Y-73673766D02*
X239894207Y-73626147D01*
X239894207Y-73626147D02*
X239798969Y-73578528D01*
X239798969Y-73578528D02*
X239608493Y-73530909D01*
X239608493Y-73530909D02*
X239513255Y-73483290D01*
X239513255Y-73483290D02*
X239465636Y-73435671D01*
X239465636Y-73435671D02*
X239418017Y-73340433D01*
X239418017Y-73340433D02*
X239418017Y-73245195D01*
X239418017Y-73245195D02*
X239465636Y-73149957D01*
X239465636Y-73149957D02*
X239513255Y-73102338D01*
X239513255Y-73102338D02*
X239608493Y-73054719D01*
X239608493Y-73054719D02*
X239846588Y-73054719D01*
X239846588Y-73054719D02*
X239989445Y-73102338D01*
X240941826Y-74054719D02*
X240370398Y-74054719D01*
X240656112Y-74054719D02*
X240656112Y-73054719D01*
X240656112Y-73054719D02*
X240560874Y-73197576D01*
X240560874Y-73197576D02*
X240465636Y-73292814D01*
X240465636Y-73292814D02*
X240370398Y-73340433D01*
X238170379Y-76747119D02*
X238170379Y-75747119D01*
X238170379Y-75747119D02*
X238503712Y-76461404D01*
X238503712Y-76461404D02*
X238837045Y-75747119D01*
X238837045Y-75747119D02*
X238837045Y-76747119D01*
X239265617Y-76699500D02*
X239408474Y-76747119D01*
X239408474Y-76747119D02*
X239646569Y-76747119D01*
X239646569Y-76747119D02*
X239741807Y-76699500D01*
X239741807Y-76699500D02*
X239789426Y-76651880D01*
X239789426Y-76651880D02*
X239837045Y-76556642D01*
X239837045Y-76556642D02*
X239837045Y-76461404D01*
X239837045Y-76461404D02*
X239789426Y-76366166D01*
X239789426Y-76366166D02*
X239741807Y-76318547D01*
X239741807Y-76318547D02*
X239646569Y-76270928D01*
X239646569Y-76270928D02*
X239456093Y-76223309D01*
X239456093Y-76223309D02*
X239360855Y-76175690D01*
X239360855Y-76175690D02*
X239313236Y-76128071D01*
X239313236Y-76128071D02*
X239265617Y-76032833D01*
X239265617Y-76032833D02*
X239265617Y-75937595D01*
X239265617Y-75937595D02*
X239313236Y-75842357D01*
X239313236Y-75842357D02*
X239360855Y-75794738D01*
X239360855Y-75794738D02*
X239456093Y-75747119D01*
X239456093Y-75747119D02*
X239694188Y-75747119D01*
X239694188Y-75747119D02*
X239837045Y-75794738D01*
X240217998Y-75842357D02*
X240265617Y-75794738D01*
X240265617Y-75794738D02*
X240360855Y-75747119D01*
X240360855Y-75747119D02*
X240598950Y-75747119D01*
X240598950Y-75747119D02*
X240694188Y-75794738D01*
X240694188Y-75794738D02*
X240741807Y-75842357D01*
X240741807Y-75842357D02*
X240789426Y-75937595D01*
X240789426Y-75937595D02*
X240789426Y-76032833D01*
X240789426Y-76032833D02*
X240741807Y-76175690D01*
X240741807Y-76175690D02*
X240170379Y-76747119D01*
X240170379Y-76747119D02*
X240789426Y-76747119D01*
X230702779Y-84494119D02*
X230702779Y-83494119D01*
X230702779Y-83494119D02*
X231036112Y-84208404D01*
X231036112Y-84208404D02*
X231369445Y-83494119D01*
X231369445Y-83494119D02*
X231369445Y-84494119D01*
X232369445Y-84494119D02*
X231798017Y-84494119D01*
X232083731Y-84494119D02*
X232083731Y-83494119D01*
X232083731Y-83494119D02*
X231988493Y-83636976D01*
X231988493Y-83636976D02*
X231893255Y-83732214D01*
X231893255Y-83732214D02*
X231798017Y-83779833D01*
X233131350Y-83970309D02*
X233274207Y-84017928D01*
X233274207Y-84017928D02*
X233321826Y-84065547D01*
X233321826Y-84065547D02*
X233369445Y-84160785D01*
X233369445Y-84160785D02*
X233369445Y-84303642D01*
X233369445Y-84303642D02*
X233321826Y-84398880D01*
X233321826Y-84398880D02*
X233274207Y-84446500D01*
X233274207Y-84446500D02*
X233178969Y-84494119D01*
X233178969Y-84494119D02*
X232798017Y-84494119D01*
X232798017Y-84494119D02*
X232798017Y-83494119D01*
X232798017Y-83494119D02*
X233131350Y-83494119D01*
X233131350Y-83494119D02*
X233226588Y-83541738D01*
X233226588Y-83541738D02*
X233274207Y-83589357D01*
X233274207Y-83589357D02*
X233321826Y-83684595D01*
X233321826Y-83684595D02*
X233321826Y-83779833D01*
X233321826Y-83779833D02*
X233274207Y-83875071D01*
X233274207Y-83875071D02*
X233226588Y-83922690D01*
X233226588Y-83922690D02*
X233131350Y-83970309D01*
X233131350Y-83970309D02*
X232798017Y-83970309D01*
D13*
%TO.C,D6*%
X109708303Y-81502770D02*
X109372770Y-81838303D01*
X110447230Y-82241697D02*
X110111697Y-82577230D01*
%TO.C,R29*%
X135837066Y-89968552D02*
X136172599Y-89633019D01*
X136575993Y-90707479D02*
X136911526Y-90371946D01*
%TO.C,C28*%
X122990500Y-84303871D02*
X122791689Y-84502682D01*
X123711749Y-85025120D02*
X123512938Y-85223931D01*
D14*
%TO.C,DSP2*%
X221050000Y-107770000D02*
X221050000Y-95894482D01*
X221050000Y-107770000D02*
X244050000Y-107770000D01*
D13*
X223573800Y-104182966D02*
X224903800Y-104182966D01*
X223573800Y-105512966D02*
X223573800Y-104182966D01*
X226173800Y-104182966D02*
X241473800Y-104182966D01*
X226173800Y-106842966D02*
X226173800Y-104182966D01*
X226173800Y-106842966D02*
X241473800Y-106842966D01*
X241473800Y-106842966D02*
X241473800Y-104182966D01*
D14*
X244050000Y-107770000D02*
X244050000Y-95894482D01*
X221050000Y-95894482D02*
G75*
G02*
X244050000Y-95894482I11500000J15124482D01*
G01*
D10*
%TO.C,U3*%
X119449607Y-80073661D02*
X122914430Y-83538484D01*
X121712348Y-77810920D02*
X119449607Y-80073661D01*
X122914430Y-83538484D02*
X125177171Y-81275743D01*
X125177171Y-81275743D02*
X121712348Y-77810920D01*
X125534260Y-81137857D02*
X126612598Y-80059519D01*
D13*
%TO.C,R18*%
X80212743Y-73347500D02*
X80687259Y-73347500D01*
X80212743Y-74392500D02*
X80687259Y-74392500D01*
%TO.C,D1*%
X105488303Y-77322770D02*
X105152770Y-77658303D01*
X106227230Y-78061697D02*
X105891697Y-78397230D01*
%TO.C,D3*%
X88202770Y-91698303D02*
X88538303Y-91362770D01*
X88941697Y-92437230D02*
X89277230Y-92101697D01*
%TO.C,C5*%
X89988781Y-88830030D02*
X89789970Y-88631219D01*
X90710030Y-88108781D02*
X90511219Y-87909970D01*
%TO.C,C6*%
X106269970Y-78638781D02*
X106468781Y-78439970D01*
X106991219Y-79360030D02*
X107190030Y-79161219D01*
%TO.C,D19*%
X146210000Y-67220000D02*
X146210000Y-68370000D01*
X153510000Y-67220000D02*
X146210000Y-67220000D01*
X153510000Y-72720000D02*
X146210000Y-72720000D01*
D14*
%TO.C,J2*%
X74420001Y-61705000D02*
X74420001Y-67035000D01*
D10*
%TO.C,Q1*%
X84890000Y-64890000D02*
X85490000Y-64890000D01*
X84890000Y-67790000D02*
X84890000Y-64890000D01*
X85490000Y-64890000D02*
X85490000Y-67790000D01*
X85490000Y-67790000D02*
X84890000Y-67790000D01*
X86840000Y-67840000D02*
X85840000Y-67840000D01*
D13*
%TO.C,R35*%
X92136962Y-75215574D02*
X92472495Y-75551107D01*
X92875889Y-74476647D02*
X93211422Y-74812180D01*
%TO.C,R33*%
X96932770Y-76981697D02*
X97268303Y-77317230D01*
X97671697Y-76242770D02*
X98007230Y-76578303D01*
%TO.C,R30*%
X126930713Y-96852579D02*
X126595180Y-97188112D01*
X127669640Y-97591506D02*
X127334107Y-97927039D01*
%TO.C,R17*%
X97802770Y-101548303D02*
X98138303Y-101212770D01*
X98541697Y-102287230D02*
X98877230Y-101951697D01*
D14*
%TO.C,SW4*%
X162090000Y-80590000D02*
X168950000Y-80590000D01*
X162090000Y-93290000D02*
X162090000Y-80590000D01*
D10*
X165520000Y-93840000D02*
X165520000Y-93840000D01*
X165720000Y-93840000D02*
X165720000Y-93840000D01*
D14*
X168950000Y-80590000D02*
X168950000Y-93290000D01*
X168950000Y-93290000D02*
X162090000Y-93290000D01*
D10*
X165520000Y-93840000D02*
G75*
G02*
X165720000Y-93840000I100000J0D01*
G01*
X165720000Y-93840000D02*
G75*
G02*
X165520000Y-93840000I-100000J0D01*
G01*
D13*
%TO.C,TP2*%
X251860000Y-106450000D02*
G75*
G02*
X249460000Y-106450000I-1200000J0D01*
G01*
X249460000Y-106450000D02*
G75*
G02*
X251860000Y-106450000I1200000J0D01*
G01*
%TO.C,D14*%
X77260000Y-114730000D02*
X84560000Y-114730000D01*
X77260000Y-120230000D02*
X84560000Y-120230000D01*
X84560000Y-120230000D02*
X84560000Y-119080000D01*
%TO.C,D18*%
X126032859Y-97421629D02*
X127648598Y-95805890D01*
X126609151Y-94766443D02*
X124993412Y-96382182D01*
X127648598Y-95805890D02*
X126609151Y-94766443D01*
%TO.C,D21*%
X177750000Y-67330000D02*
X177750000Y-68480000D01*
X185050000Y-67330000D02*
X177750000Y-67330000D01*
X185050000Y-72830000D02*
X177750000Y-72830000D01*
%TO.C,C4*%
X107309970Y-79688781D02*
X107508781Y-79489970D01*
X108031219Y-80410030D02*
X108230030Y-80211219D01*
%TO.C,R28*%
X124495073Y-95088005D02*
X124830606Y-94752472D01*
X125234000Y-95826932D02*
X125569533Y-95491399D01*
%TO.C,R26*%
X132725796Y-86857282D02*
X133061329Y-86521749D01*
X133464723Y-87596209D02*
X133800256Y-87260676D01*
D14*
%TO.C,SW3*%
X118510000Y-110760000D02*
X120710000Y-110760000D01*
X118510000Y-114860000D02*
X118510000Y-110760000D01*
X118510000Y-123960000D02*
X118510000Y-119860000D01*
X121210000Y-123960000D02*
X118510000Y-123960000D01*
X128210000Y-123960000D02*
X130910000Y-123960000D01*
X128710000Y-110760000D02*
X130910000Y-110760000D01*
X130910000Y-110760000D02*
X130910000Y-114860000D01*
X130910000Y-123960000D02*
X130910000Y-119860000D01*
D13*
%TO.C,R27*%
X133765243Y-87896729D02*
X134100776Y-87561196D01*
X134504170Y-88635656D02*
X134839703Y-88300123D01*
%TO.C,R31*%
X134804690Y-88936176D02*
X135140223Y-88600643D01*
X135543617Y-89675103D02*
X135879150Y-89339570D01*
%TO.C,C23*%
X91008781Y-87780030D02*
X90809970Y-87581219D01*
X91730030Y-87058781D02*
X91531219Y-86859970D01*
%TO.C,C17*%
X78569419Y-113400000D02*
X78850581Y-113400000D01*
X78569419Y-114420000D02*
X78850581Y-114420000D01*
%TO.C,D13*%
X97841259Y-103309295D02*
X98880706Y-104348742D01*
X98880706Y-104348742D02*
X100496445Y-102733003D01*
X99456998Y-101693556D02*
X97841259Y-103309295D01*
%TO.C,R24*%
X80212744Y-71857499D02*
X80687260Y-71857499D01*
X80212744Y-72902499D02*
X80687260Y-72902499D01*
%TO.C,D22*%
X91011577Y-83697890D02*
X90676044Y-83362357D01*
X91750504Y-82958963D02*
X91414971Y-82623430D01*
%TO.C,D9*%
X108248303Y-98847230D02*
X107912770Y-98511697D01*
X108987230Y-98108303D02*
X108651697Y-97772770D01*
%TO.C,Y1*%
X93238223Y-98896676D02*
X91258324Y-96916777D01*
X95571676Y-96563223D02*
X93238223Y-98896676D01*
%TO.C,R25*%
X70662744Y-71847500D02*
X71137260Y-71847500D01*
X70662744Y-72892500D02*
X71137260Y-72892500D01*
D14*
%TO.C,DSP1*%
X146530000Y-124670217D02*
X146530000Y-103170217D01*
X151530000Y-98170217D02*
X180530000Y-98170217D01*
X151530000Y-129670217D02*
X180530000Y-129670217D01*
D13*
X173851000Y-103842183D02*
X175181000Y-103842183D01*
X173851000Y-105172183D02*
X173851000Y-103842183D01*
X173851000Y-106442183D02*
X173851000Y-124282183D01*
X173851000Y-106442183D02*
X176511000Y-106442183D01*
X173851000Y-124282183D02*
X176511000Y-124282183D01*
X176511000Y-106442183D02*
X176511000Y-124282183D01*
D14*
X185530000Y-124670217D02*
X185530000Y-103170217D01*
X146530000Y-103170217D02*
G75*
G02*
X151530000Y-98170217I5000000J0D01*
G01*
X151530000Y-129670217D02*
G75*
G02*
X146529996Y-124670217I0J5000004D01*
G01*
X180530000Y-98170217D02*
G75*
G02*
X185530066Y-103170217I0J-5000066D01*
G01*
X185530000Y-124670217D02*
G75*
G02*
X180530000Y-129670213I-5000000J4D01*
G01*
D13*
%TO.C,D10*%
X111398303Y-95717230D02*
X111062770Y-95381697D01*
X112137230Y-94978303D02*
X111801697Y-94642770D01*
%TO.C,D20*%
X161670000Y-67320000D02*
X161670000Y-68470000D01*
X168970000Y-67320000D02*
X161670000Y-67320000D01*
X168970000Y-72820000D02*
X161670000Y-72820000D01*
D14*
%TO.C,SW2*%
X146410000Y-80740000D02*
X153270000Y-80740000D01*
X146410000Y-93440000D02*
X146410000Y-80740000D01*
D10*
X149840000Y-93990000D02*
X149840000Y-93990000D01*
X150040000Y-93990000D02*
X150040000Y-93990000D01*
D14*
X153270000Y-80740000D02*
X153270000Y-93440000D01*
X153270000Y-93440000D02*
X146410000Y-93440000D01*
D10*
X149840000Y-93990000D02*
G75*
G02*
X150040000Y-93990000I100000J0D01*
G01*
X150040000Y-93990000D02*
G75*
G02*
X149840000Y-93990000I-100000J0D01*
G01*
D13*
%TO.C,C7*%
X113219970Y-93351219D02*
X113418781Y-93550030D01*
X113941219Y-92629970D02*
X114140030Y-92828781D01*
%TO.C,D7*%
X108658303Y-80452770D02*
X108322770Y-80788303D01*
X109397230Y-81191697D02*
X109061697Y-81527230D01*
%TO.C,D16*%
X80697259Y-70357500D02*
X80222743Y-70357500D01*
X80697259Y-71402500D02*
X80222743Y-71402500D01*
%TO.C,C2*%
X91568781Y-94569970D02*
X91369970Y-94768781D01*
X92290030Y-95291219D02*
X92091219Y-95490030D01*
%TO.C,D12*%
X70662742Y-74817499D02*
X71137258Y-74817499D01*
X70662742Y-75862499D02*
X71137258Y-75862499D01*
%TO.C,R36*%
X94823968Y-74890305D02*
X95159501Y-75225838D01*
X95562895Y-74151378D02*
X95898428Y-74486911D01*
D10*
%TO.C,U5*%
X91952944Y-78139289D02*
X91351903Y-78740330D01*
X92377208Y-78068579D02*
X93791421Y-79482792D01*
X93508579Y-76937208D02*
X92377208Y-78068579D01*
X93791421Y-79482792D02*
X94922792Y-78351421D01*
X94922792Y-78351421D02*
X93508579Y-76937208D01*
D13*
%TO.C,D5*%
X109288303Y-97827230D02*
X108952770Y-97491697D01*
X110027230Y-97088303D02*
X109691697Y-96752770D01*
%TO.C,D25*%
X95877557Y-73836716D02*
X96213090Y-74172249D01*
X96616484Y-73097789D02*
X96952017Y-73433322D01*
%TO.C,D2*%
X104448303Y-76272770D02*
X104112770Y-76608303D01*
X105187230Y-77011697D02*
X104851697Y-77347230D01*
D14*
%TO.C,SW1*%
X177900000Y-80680000D02*
X184760000Y-80680000D01*
X177900000Y-93380000D02*
X177900000Y-80680000D01*
D10*
X181330000Y-93930000D02*
X181330000Y-93930000D01*
X181530000Y-93930000D02*
X181530000Y-93930000D01*
D14*
X184760000Y-80680000D02*
X184760000Y-93380000D01*
X184760000Y-93380000D02*
X177900000Y-93380000D01*
D10*
X181330000Y-93930000D02*
G75*
G02*
X181530000Y-93930000I100000J0D01*
G01*
X181530000Y-93930000D02*
G75*
G02*
X181330000Y-93930000I-100000J0D01*
G01*
D13*
%TO.C,D24*%
X88580215Y-81204769D02*
X88915748Y-81540302D01*
X89319142Y-80465842D02*
X89654675Y-80801375D01*
%TO.C,C1*%
X95978781Y-99159970D02*
X95779970Y-99358781D01*
X96700030Y-99881219D02*
X96501219Y-100080030D01*
%TO.C,C3*%
X94729970Y-98318781D02*
X94928781Y-98119970D01*
X95451219Y-99040030D02*
X95650030Y-98841219D01*
%TO.C,C29*%
X112179970Y-94391219D02*
X112378781Y-94590030D01*
X112901219Y-93669970D02*
X113100030Y-93868781D01*
%TO.C,C18*%
X151860581Y-73070000D02*
X151579419Y-73070000D01*
X151860581Y-74090000D02*
X151579419Y-74090000D01*
%TO.C,R19*%
X70662744Y-73317500D02*
X71137260Y-73317500D01*
X70662744Y-74362500D02*
X71137260Y-74362500D01*
%TO.C,C31*%
X128906837Y-88699878D02*
X129105648Y-88501067D01*
X129628086Y-89421127D02*
X129826897Y-89222316D01*
D14*
%TO.C,Y2*%
X126584315Y-77902843D02*
X126867157Y-78185685D01*
X127432843Y-77054315D02*
X127715685Y-77337157D01*
D13*
%TO.C,D23*%
X98298303Y-76277230D02*
X97962770Y-75941697D01*
X99037230Y-75538303D02*
X98701697Y-75202770D01*
%TO.C,R34*%
X89612591Y-80158251D02*
X89948124Y-80493784D01*
X90351518Y-79419324D02*
X90687051Y-79754857D01*
%TO.C,D17*%
X70672743Y-70377499D02*
X71147259Y-70377499D01*
X70672743Y-71422499D02*
X71147259Y-71422499D01*
%TO.C,C19*%
X167185581Y-73230000D02*
X166904419Y-73230000D01*
X167185581Y-74250000D02*
X166904419Y-74250000D01*
%TO.C,C22*%
X114269970Y-92311219D02*
X114468781Y-92510030D01*
X114991219Y-91589970D02*
X115190030Y-91788781D01*
%TO.C,D8*%
X90272770Y-93788303D02*
X90608303Y-93452770D01*
X91011697Y-94527230D02*
X91347230Y-94191697D01*
%TO.C,C21*%
X97038781Y-100239970D02*
X96839970Y-100438781D01*
X97760030Y-100961219D02*
X97561219Y-101160030D01*
D10*
%TO.C,RV1*%
X201300000Y-108775000D02*
X213300000Y-108775000D01*
X201300000Y-112275000D02*
X201300000Y-108775000D01*
X201300000Y-118275000D02*
X201300000Y-124675000D01*
X201300000Y-124675000D02*
X213300000Y-124675000D01*
D14*
X203550000Y-127475000D02*
X203550000Y-127475000D01*
X203550000Y-127575000D02*
X203550000Y-127575000D01*
D10*
X213300000Y-108775000D02*
X213300000Y-112275000D01*
X213300000Y-124675000D02*
X213300000Y-118275000D01*
D14*
X203550000Y-127475000D02*
G75*
G02*
X203550000Y-127575000I0J-50000D01*
G01*
X203550000Y-127575000D02*
G75*
G02*
X203550000Y-127475000I0J50000D01*
G01*
D13*
%TO.C,J1*%
X87890000Y-63874999D02*
X87890000Y-61275000D01*
X90550000Y-61275000D02*
X87890000Y-61275000D01*
X90550000Y-63874999D02*
X87890000Y-63874999D01*
X90550000Y-63874999D02*
X90550000Y-61275000D01*
X90550000Y-65145000D02*
X90550000Y-66475000D01*
X90550000Y-66475000D02*
X89220000Y-66475000D01*
%TO.C,D11*%
X80697260Y-74807501D02*
X80222744Y-74807501D01*
X80697260Y-75852501D02*
X80222744Y-75852501D01*
%TO.C,S2*%
X235647795Y-117724079D02*
G75*
G02*
X220604047Y-117724079I-7521874J0D01*
G01*
X220604047Y-117724079D02*
G75*
G02*
X235647795Y-117724079I7521874J0D01*
G01*
%TO.C,D4*%
X110328303Y-96767230D02*
X109992770Y-96431697D01*
X111067230Y-96028303D02*
X110731697Y-95692770D01*
%TO.C,R1*%
X91782770Y-86481697D02*
X92118303Y-86817230D01*
X92521697Y-85742770D02*
X92857230Y-86078303D01*
%TO.C,R32*%
X91749407Y-82295720D02*
X92084940Y-82631253D01*
X92488334Y-81556793D02*
X92823867Y-81892326D01*
%TO.C,C20*%
X183390581Y-73170000D02*
X183109419Y-73170000D01*
X183390581Y-74190000D02*
X183109419Y-74190000D01*
%TO.C,D15*%
X89242770Y-92738303D02*
X89578303Y-92402770D01*
X89981697Y-93477230D02*
X90317230Y-93141697D01*
%TO.C,C16*%
X74799420Y-74519999D02*
X75080582Y-74519999D01*
X74799420Y-75539999D02*
X75080582Y-75539999D01*
%TO.C,S1*%
X113711175Y-117550000D02*
G75*
G02*
X98667425Y-117550000I-7521875J0D01*
G01*
X98667425Y-117550000D02*
G75*
G02*
X113711175Y-117550000I7521875J0D01*
G01*
%TO.C,U1*%
X94433369Y-90790000D02*
X95105120Y-91461751D01*
X95105120Y-90118249D02*
X94433369Y-90790000D01*
X100988249Y-84235120D02*
X101660000Y-83563369D01*
X101660000Y-83563369D02*
X102331751Y-84235120D01*
X101660000Y-98016631D02*
X100988249Y-97344880D01*
X102331751Y-97344880D02*
X101660000Y-98016631D01*
X108214880Y-91461751D02*
X108886631Y-90790000D01*
X108886631Y-90790000D02*
X108214880Y-90118249D01*
X94670249Y-91896622D02*
X94097493Y-91804698D01*
X94578326Y-91323866D01*
X94670249Y-91896622D01*
G36*
X94670249Y-91896622D02*
G01*
X94097493Y-91804698D01*
X94578326Y-91323866D01*
X94670249Y-91896622D01*
G37*
D10*
%TO.C,U2*%
X74910000Y-71960000D02*
X76510000Y-71960000D01*
X74910000Y-73960000D02*
X74910000Y-71960000D01*
X76510000Y-71960000D02*
X76510000Y-73960000D01*
X76510000Y-73960000D02*
X74910000Y-73960000D01*
X77710000Y-74210000D02*
X76860000Y-74210000D01*
D13*
%TO.C,C24*%
X106659970Y-99941219D02*
X106858781Y-100140030D01*
X107381219Y-99219970D02*
X107580030Y-99418781D01*
D10*
%TO.C,U4*%
X127825374Y-91902661D02*
X126835425Y-92892610D01*
X128108217Y-91690529D02*
X130229537Y-93811849D01*
X129734563Y-90064183D02*
X128108217Y-91690529D01*
X130229537Y-93811849D02*
X131855883Y-92185503D01*
X131855883Y-92185503D02*
X129734563Y-90064183D01*
%TD*%
M02*
