%TF.GenerationSoftware,KiCad,Pcbnew,8.0.8*%
%TF.CreationDate,2025-04-02T20:08:15-06:00*%
%TF.ProjectId,Animation Platter_V3,416e696d-6174-4696-9f6e-20506c617474,rev?*%
%TF.SameCoordinates,Original*%
%TF.FileFunction,Legend,Bot*%
%TF.FilePolarity,Positive*%
%FSLAX46Y46*%
G04 Gerber Fmt 4.6, Leading zero omitted, Abs format (unit mm)*
G04 Created by KiCad (PCBNEW 8.0.8) date 2025-04-02 20:08:15*
%MOMM*%
%LPD*%
G01*
G04 APERTURE LIST*
%ADD10C,0.150000*%
%ADD11C,0.200000*%
%ADD12C,0.120000*%
%ADD13C,0.400000*%
%ADD14C,0.100000*%
G04 APERTURE END LIST*
D10*
X188643809Y-78579819D02*
X188643809Y-77579819D01*
X188643809Y-78532200D02*
X188739047Y-78579819D01*
X188739047Y-78579819D02*
X188929523Y-78579819D01*
X188929523Y-78579819D02*
X189024761Y-78532200D01*
X189024761Y-78532200D02*
X189072380Y-78484580D01*
X189072380Y-78484580D02*
X189119999Y-78389342D01*
X189119999Y-78389342D02*
X189119999Y-78103628D01*
X189119999Y-78103628D02*
X189072380Y-78008390D01*
X189072380Y-78008390D02*
X189024761Y-77960771D01*
X189024761Y-77960771D02*
X188929523Y-77913152D01*
X188929523Y-77913152D02*
X188739047Y-77913152D01*
X188739047Y-77913152D02*
X188643809Y-77960771D01*
X187739047Y-78579819D02*
X187739047Y-78056009D01*
X187739047Y-78056009D02*
X187786666Y-77960771D01*
X187786666Y-77960771D02*
X187881904Y-77913152D01*
X187881904Y-77913152D02*
X188072380Y-77913152D01*
X188072380Y-77913152D02*
X188167618Y-77960771D01*
X187739047Y-78532200D02*
X187834285Y-78579819D01*
X187834285Y-78579819D02*
X188072380Y-78579819D01*
X188072380Y-78579819D02*
X188167618Y-78532200D01*
X188167618Y-78532200D02*
X188215237Y-78436961D01*
X188215237Y-78436961D02*
X188215237Y-78341723D01*
X188215237Y-78341723D02*
X188167618Y-78246485D01*
X188167618Y-78246485D02*
X188072380Y-78198866D01*
X188072380Y-78198866D02*
X187834285Y-78198866D01*
X187834285Y-78198866D02*
X187739047Y-78151247D01*
X187405713Y-77913152D02*
X187024761Y-77913152D01*
X187262856Y-77579819D02*
X187262856Y-78436961D01*
X187262856Y-78436961D02*
X187215237Y-78532200D01*
X187215237Y-78532200D02*
X187119999Y-78579819D01*
X187119999Y-78579819D02*
X187024761Y-78579819D01*
X172057619Y-109793152D02*
X172057619Y-110602676D01*
X172057619Y-110602676D02*
X172105238Y-110697914D01*
X172105238Y-110697914D02*
X172152857Y-110745533D01*
X172152857Y-110745533D02*
X172248095Y-110793152D01*
X172248095Y-110793152D02*
X172390952Y-110793152D01*
X172390952Y-110793152D02*
X172486190Y-110745533D01*
X172057619Y-110412200D02*
X172152857Y-110459819D01*
X172152857Y-110459819D02*
X172343333Y-110459819D01*
X172343333Y-110459819D02*
X172438571Y-110412200D01*
X172438571Y-110412200D02*
X172486190Y-110364580D01*
X172486190Y-110364580D02*
X172533809Y-110269342D01*
X172533809Y-110269342D02*
X172533809Y-109983628D01*
X172533809Y-109983628D02*
X172486190Y-109888390D01*
X172486190Y-109888390D02*
X172438571Y-109840771D01*
X172438571Y-109840771D02*
X172343333Y-109793152D01*
X172343333Y-109793152D02*
X172152857Y-109793152D01*
X172152857Y-109793152D02*
X172057619Y-109840771D01*
X171581428Y-110459819D02*
X171581428Y-109793152D01*
X171581428Y-109983628D02*
X171533809Y-109888390D01*
X171533809Y-109888390D02*
X171486190Y-109840771D01*
X171486190Y-109840771D02*
X171390952Y-109793152D01*
X171390952Y-109793152D02*
X171295714Y-109793152D01*
X170962380Y-109793152D02*
X170962380Y-110459819D01*
X170962380Y-109888390D02*
X170914761Y-109840771D01*
X170914761Y-109840771D02*
X170819523Y-109793152D01*
X170819523Y-109793152D02*
X170676666Y-109793152D01*
X170676666Y-109793152D02*
X170581428Y-109840771D01*
X170581428Y-109840771D02*
X170533809Y-109936009D01*
X170533809Y-109936009D02*
X170533809Y-110459819D01*
X171886190Y-122593152D02*
X171886190Y-123402676D01*
X171886190Y-123402676D02*
X171933809Y-123497914D01*
X171933809Y-123497914D02*
X171981428Y-123545533D01*
X171981428Y-123545533D02*
X172076666Y-123593152D01*
X172076666Y-123593152D02*
X172219523Y-123593152D01*
X172219523Y-123593152D02*
X172314761Y-123545533D01*
X171886190Y-123212200D02*
X171981428Y-123259819D01*
X171981428Y-123259819D02*
X172171904Y-123259819D01*
X172171904Y-123259819D02*
X172267142Y-123212200D01*
X172267142Y-123212200D02*
X172314761Y-123164580D01*
X172314761Y-123164580D02*
X172362380Y-123069342D01*
X172362380Y-123069342D02*
X172362380Y-122783628D01*
X172362380Y-122783628D02*
X172314761Y-122688390D01*
X172314761Y-122688390D02*
X172267142Y-122640771D01*
X172267142Y-122640771D02*
X172171904Y-122593152D01*
X172171904Y-122593152D02*
X171981428Y-122593152D01*
X171981428Y-122593152D02*
X171886190Y-122640771D01*
X171409999Y-123259819D02*
X171409999Y-122593152D01*
X171409999Y-122783628D02*
X171362380Y-122688390D01*
X171362380Y-122688390D02*
X171314761Y-122640771D01*
X171314761Y-122640771D02*
X171219523Y-122593152D01*
X171219523Y-122593152D02*
X171124285Y-122593152D01*
X170886189Y-122593152D02*
X170648094Y-123259819D01*
X170409999Y-122593152D02*
X170648094Y-123259819D01*
X170648094Y-123259819D02*
X170743332Y-123497914D01*
X170743332Y-123497914D02*
X170790951Y-123545533D01*
X170790951Y-123545533D02*
X170886189Y-123593152D01*
X237954761Y-95747438D02*
X238049999Y-95699819D01*
X238049999Y-95699819D02*
X238192856Y-95699819D01*
X238192856Y-95699819D02*
X238335713Y-95747438D01*
X238335713Y-95747438D02*
X238430951Y-95842676D01*
X238430951Y-95842676D02*
X238478570Y-95937914D01*
X238478570Y-95937914D02*
X238526189Y-96128390D01*
X238526189Y-96128390D02*
X238526189Y-96271247D01*
X238526189Y-96271247D02*
X238478570Y-96461723D01*
X238478570Y-96461723D02*
X238430951Y-96556961D01*
X238430951Y-96556961D02*
X238335713Y-96652200D01*
X238335713Y-96652200D02*
X238192856Y-96699819D01*
X238192856Y-96699819D02*
X238097618Y-96699819D01*
X238097618Y-96699819D02*
X237954761Y-96652200D01*
X237954761Y-96652200D02*
X237907142Y-96604580D01*
X237907142Y-96604580D02*
X237907142Y-96271247D01*
X237907142Y-96271247D02*
X238097618Y-96271247D01*
X237478570Y-96699819D02*
X237478570Y-95699819D01*
X237478570Y-95699819D02*
X236907142Y-96699819D01*
X236907142Y-96699819D02*
X236907142Y-95699819D01*
X236430951Y-96699819D02*
X236430951Y-95699819D01*
X236430951Y-95699819D02*
X236192856Y-95699819D01*
X236192856Y-95699819D02*
X236049999Y-95747438D01*
X236049999Y-95747438D02*
X235954761Y-95842676D01*
X235954761Y-95842676D02*
X235907142Y-95937914D01*
X235907142Y-95937914D02*
X235859523Y-96128390D01*
X235859523Y-96128390D02*
X235859523Y-96271247D01*
X235859523Y-96271247D02*
X235907142Y-96461723D01*
X235907142Y-96461723D02*
X235954761Y-96556961D01*
X235954761Y-96556961D02*
X236049999Y-96652200D01*
X236049999Y-96652200D02*
X236192856Y-96699819D01*
X236192856Y-96699819D02*
X236430951Y-96699819D01*
X234669046Y-96699819D02*
X234669046Y-95699819D01*
X234192856Y-96699819D02*
X234192856Y-95699819D01*
X234192856Y-95699819D02*
X233621428Y-96699819D01*
X233621428Y-96699819D02*
X233621428Y-95699819D01*
X192251904Y-94853208D02*
X191870952Y-94853208D01*
X192109047Y-95519875D02*
X192109047Y-94662732D01*
X192109047Y-94662732D02*
X192061428Y-94567494D01*
X192061428Y-94567494D02*
X191966190Y-94519875D01*
X191966190Y-94519875D02*
X191870952Y-94519875D01*
X191109047Y-95519875D02*
X191109047Y-94996065D01*
X191109047Y-94996065D02*
X191156666Y-94900827D01*
X191156666Y-94900827D02*
X191251904Y-94853208D01*
X191251904Y-94853208D02*
X191442380Y-94853208D01*
X191442380Y-94853208D02*
X191537618Y-94900827D01*
X191109047Y-95472256D02*
X191204285Y-95519875D01*
X191204285Y-95519875D02*
X191442380Y-95519875D01*
X191442380Y-95519875D02*
X191537618Y-95472256D01*
X191537618Y-95472256D02*
X191585237Y-95377017D01*
X191585237Y-95377017D02*
X191585237Y-95281779D01*
X191585237Y-95281779D02*
X191537618Y-95186541D01*
X191537618Y-95186541D02*
X191442380Y-95138922D01*
X191442380Y-95138922D02*
X191204285Y-95138922D01*
X191204285Y-95138922D02*
X191109047Y-95091303D01*
X190632856Y-94853208D02*
X190632856Y-95519875D01*
X190632856Y-94948446D02*
X190585237Y-94900827D01*
X190585237Y-94900827D02*
X190489999Y-94853208D01*
X190489999Y-94853208D02*
X190347142Y-94853208D01*
X190347142Y-94853208D02*
X190251904Y-94900827D01*
X190251904Y-94900827D02*
X190204285Y-94996065D01*
X190204285Y-94996065D02*
X190204285Y-95519875D01*
X188966189Y-94853208D02*
X188966189Y-95853208D01*
X188966189Y-94900827D02*
X188870951Y-94853208D01*
X188870951Y-94853208D02*
X188680475Y-94853208D01*
X188680475Y-94853208D02*
X188585237Y-94900827D01*
X188585237Y-94900827D02*
X188537618Y-94948446D01*
X188537618Y-94948446D02*
X188489999Y-95043684D01*
X188489999Y-95043684D02*
X188489999Y-95329398D01*
X188489999Y-95329398D02*
X188537618Y-95424636D01*
X188537618Y-95424636D02*
X188585237Y-95472256D01*
X188585237Y-95472256D02*
X188680475Y-95519875D01*
X188680475Y-95519875D02*
X188870951Y-95519875D01*
X188870951Y-95519875D02*
X188966189Y-95472256D01*
X188156665Y-94853208D02*
X187966189Y-95519875D01*
X187966189Y-95519875D02*
X187775713Y-95043684D01*
X187775713Y-95043684D02*
X187585237Y-95519875D01*
X187585237Y-95519875D02*
X187394761Y-94853208D01*
X187013808Y-95519875D02*
X187013808Y-94853208D01*
X187013808Y-95043684D02*
X186966189Y-94948446D01*
X186966189Y-94948446D02*
X186918570Y-94900827D01*
X186918570Y-94900827D02*
X186823332Y-94853208D01*
X186823332Y-94853208D02*
X186728094Y-94853208D01*
X193204286Y-97082200D02*
X193109048Y-97129819D01*
X193109048Y-97129819D02*
X192918572Y-97129819D01*
X192918572Y-97129819D02*
X192823334Y-97082200D01*
X192823334Y-97082200D02*
X192775715Y-96986961D01*
X192775715Y-96986961D02*
X192775715Y-96939342D01*
X192775715Y-96939342D02*
X192823334Y-96844104D01*
X192823334Y-96844104D02*
X192918572Y-96796485D01*
X192918572Y-96796485D02*
X193061429Y-96796485D01*
X193061429Y-96796485D02*
X193156667Y-96748866D01*
X193156667Y-96748866D02*
X193204286Y-96653628D01*
X193204286Y-96653628D02*
X193204286Y-96606009D01*
X193204286Y-96606009D02*
X193156667Y-96510771D01*
X193156667Y-96510771D02*
X193061429Y-96463152D01*
X193061429Y-96463152D02*
X192918572Y-96463152D01*
X192918572Y-96463152D02*
X192823334Y-96510771D01*
X192490000Y-96463152D02*
X192109048Y-96463152D01*
X192347143Y-96129819D02*
X192347143Y-96986961D01*
X192347143Y-96986961D02*
X192299524Y-97082200D01*
X192299524Y-97082200D02*
X192204286Y-97129819D01*
X192204286Y-97129819D02*
X192109048Y-97129819D01*
X191775714Y-97129819D02*
X191775714Y-96463152D01*
X191775714Y-96653628D02*
X191728095Y-96558390D01*
X191728095Y-96558390D02*
X191680476Y-96510771D01*
X191680476Y-96510771D02*
X191585238Y-96463152D01*
X191585238Y-96463152D02*
X191490000Y-96463152D01*
X191013809Y-97129819D02*
X191109047Y-97082200D01*
X191109047Y-97082200D02*
X191156666Y-97034580D01*
X191156666Y-97034580D02*
X191204285Y-96939342D01*
X191204285Y-96939342D02*
X191204285Y-96653628D01*
X191204285Y-96653628D02*
X191156666Y-96558390D01*
X191156666Y-96558390D02*
X191109047Y-96510771D01*
X191109047Y-96510771D02*
X191013809Y-96463152D01*
X191013809Y-96463152D02*
X190870952Y-96463152D01*
X190870952Y-96463152D02*
X190775714Y-96510771D01*
X190775714Y-96510771D02*
X190728095Y-96558390D01*
X190728095Y-96558390D02*
X190680476Y-96653628D01*
X190680476Y-96653628D02*
X190680476Y-96939342D01*
X190680476Y-96939342D02*
X190728095Y-97034580D01*
X190728095Y-97034580D02*
X190775714Y-97082200D01*
X190775714Y-97082200D02*
X190870952Y-97129819D01*
X190870952Y-97129819D02*
X191013809Y-97129819D01*
X190251904Y-97129819D02*
X190251904Y-96129819D01*
X190251904Y-96510771D02*
X190156666Y-96463152D01*
X190156666Y-96463152D02*
X189966190Y-96463152D01*
X189966190Y-96463152D02*
X189870952Y-96510771D01*
X189870952Y-96510771D02*
X189823333Y-96558390D01*
X189823333Y-96558390D02*
X189775714Y-96653628D01*
X189775714Y-96653628D02*
X189775714Y-96939342D01*
X189775714Y-96939342D02*
X189823333Y-97034580D01*
X189823333Y-97034580D02*
X189870952Y-97082200D01*
X189870952Y-97082200D02*
X189966190Y-97129819D01*
X189966190Y-97129819D02*
X190156666Y-97129819D01*
X190156666Y-97129819D02*
X190251904Y-97082200D01*
X188966190Y-97082200D02*
X189061428Y-97129819D01*
X189061428Y-97129819D02*
X189251904Y-97129819D01*
X189251904Y-97129819D02*
X189347142Y-97082200D01*
X189347142Y-97082200D02*
X189394761Y-96986961D01*
X189394761Y-96986961D02*
X189394761Y-96606009D01*
X189394761Y-96606009D02*
X189347142Y-96510771D01*
X189347142Y-96510771D02*
X189251904Y-96463152D01*
X189251904Y-96463152D02*
X189061428Y-96463152D01*
X189061428Y-96463152D02*
X188966190Y-96510771D01*
X188966190Y-96510771D02*
X188918571Y-96606009D01*
X188918571Y-96606009D02*
X188918571Y-96701247D01*
X188918571Y-96701247D02*
X189394761Y-96796485D01*
X187585237Y-97129819D02*
X187680475Y-97082200D01*
X187680475Y-97082200D02*
X187728094Y-97034580D01*
X187728094Y-97034580D02*
X187775713Y-96939342D01*
X187775713Y-96939342D02*
X187775713Y-96653628D01*
X187775713Y-96653628D02*
X187728094Y-96558390D01*
X187728094Y-96558390D02*
X187680475Y-96510771D01*
X187680475Y-96510771D02*
X187585237Y-96463152D01*
X187585237Y-96463152D02*
X187442380Y-96463152D01*
X187442380Y-96463152D02*
X187347142Y-96510771D01*
X187347142Y-96510771D02*
X187299523Y-96558390D01*
X187299523Y-96558390D02*
X187251904Y-96653628D01*
X187251904Y-96653628D02*
X187251904Y-96939342D01*
X187251904Y-96939342D02*
X187299523Y-97034580D01*
X187299523Y-97034580D02*
X187347142Y-97082200D01*
X187347142Y-97082200D02*
X187442380Y-97129819D01*
X187442380Y-97129819D02*
X187585237Y-97129819D01*
X186394761Y-96463152D02*
X186394761Y-97129819D01*
X186823332Y-96463152D02*
X186823332Y-96986961D01*
X186823332Y-96986961D02*
X186775713Y-97082200D01*
X186775713Y-97082200D02*
X186680475Y-97129819D01*
X186680475Y-97129819D02*
X186537618Y-97129819D01*
X186537618Y-97129819D02*
X186442380Y-97082200D01*
X186442380Y-97082200D02*
X186394761Y-97034580D01*
X186061427Y-96463152D02*
X185680475Y-96463152D01*
X185918570Y-96129819D02*
X185918570Y-96986961D01*
X185918570Y-96986961D02*
X185870951Y-97082200D01*
X185870951Y-97082200D02*
X185775713Y-97129819D01*
X185775713Y-97129819D02*
X185680475Y-97129819D01*
X189355713Y-83578866D02*
X188593809Y-83578866D01*
X188974761Y-83959819D02*
X188974761Y-83197914D01*
X187641428Y-82959819D02*
X188117618Y-82959819D01*
X188117618Y-82959819D02*
X188165237Y-83436009D01*
X188165237Y-83436009D02*
X188117618Y-83388390D01*
X188117618Y-83388390D02*
X188022380Y-83340771D01*
X188022380Y-83340771D02*
X187784285Y-83340771D01*
X187784285Y-83340771D02*
X187689047Y-83388390D01*
X187689047Y-83388390D02*
X187641428Y-83436009D01*
X187641428Y-83436009D02*
X187593809Y-83531247D01*
X187593809Y-83531247D02*
X187593809Y-83769342D01*
X187593809Y-83769342D02*
X187641428Y-83864580D01*
X187641428Y-83864580D02*
X187689047Y-83912200D01*
X187689047Y-83912200D02*
X187784285Y-83959819D01*
X187784285Y-83959819D02*
X188022380Y-83959819D01*
X188022380Y-83959819D02*
X188117618Y-83912200D01*
X188117618Y-83912200D02*
X188165237Y-83864580D01*
X187308094Y-82959819D02*
X186974761Y-83959819D01*
X186974761Y-83959819D02*
X186641428Y-82959819D01*
X188611904Y-80357438D02*
X188707142Y-80309819D01*
X188707142Y-80309819D02*
X188849999Y-80309819D01*
X188849999Y-80309819D02*
X188992856Y-80357438D01*
X188992856Y-80357438D02*
X189088094Y-80452676D01*
X189088094Y-80452676D02*
X189135713Y-80547914D01*
X189135713Y-80547914D02*
X189183332Y-80738390D01*
X189183332Y-80738390D02*
X189183332Y-80881247D01*
X189183332Y-80881247D02*
X189135713Y-81071723D01*
X189135713Y-81071723D02*
X189088094Y-81166961D01*
X189088094Y-81166961D02*
X188992856Y-81262200D01*
X188992856Y-81262200D02*
X188849999Y-81309819D01*
X188849999Y-81309819D02*
X188754761Y-81309819D01*
X188754761Y-81309819D02*
X188611904Y-81262200D01*
X188611904Y-81262200D02*
X188564285Y-81214580D01*
X188564285Y-81214580D02*
X188564285Y-80881247D01*
X188564285Y-80881247D02*
X188754761Y-80881247D01*
X188135713Y-81309819D02*
X188135713Y-80309819D01*
X188135713Y-80309819D02*
X187564285Y-81309819D01*
X187564285Y-81309819D02*
X187564285Y-80309819D01*
X187088094Y-81309819D02*
X187088094Y-80309819D01*
X187088094Y-80309819D02*
X186849999Y-80309819D01*
X186849999Y-80309819D02*
X186707142Y-80357438D01*
X186707142Y-80357438D02*
X186611904Y-80452676D01*
X186611904Y-80452676D02*
X186564285Y-80547914D01*
X186564285Y-80547914D02*
X186516666Y-80738390D01*
X186516666Y-80738390D02*
X186516666Y-80881247D01*
X186516666Y-80881247D02*
X186564285Y-81071723D01*
X186564285Y-81071723D02*
X186611904Y-81166961D01*
X186611904Y-81166961D02*
X186707142Y-81262200D01*
X186707142Y-81262200D02*
X186849999Y-81309819D01*
X186849999Y-81309819D02*
X187088094Y-81309819D01*
X146140476Y-116199819D02*
X146616666Y-116199819D01*
X146616666Y-116199819D02*
X146664285Y-116676009D01*
X146664285Y-116676009D02*
X146616666Y-116628390D01*
X146616666Y-116628390D02*
X146521428Y-116580771D01*
X146521428Y-116580771D02*
X146283333Y-116580771D01*
X146283333Y-116580771D02*
X146188095Y-116628390D01*
X146188095Y-116628390D02*
X146140476Y-116676009D01*
X146140476Y-116676009D02*
X146092857Y-116771247D01*
X146092857Y-116771247D02*
X146092857Y-117009342D01*
X146092857Y-117009342D02*
X146140476Y-117104580D01*
X146140476Y-117104580D02*
X146188095Y-117152200D01*
X146188095Y-117152200D02*
X146283333Y-117199819D01*
X146283333Y-117199819D02*
X146521428Y-117199819D01*
X146521428Y-117199819D02*
X146616666Y-117152200D01*
X146616666Y-117152200D02*
X146664285Y-117104580D01*
X145807142Y-116199819D02*
X145473809Y-117199819D01*
X145473809Y-117199819D02*
X145140476Y-116199819D01*
X86769420Y-102585697D02*
X86533717Y-102821400D01*
X86803091Y-103292804D02*
X87139809Y-102956087D01*
X87139809Y-102956087D02*
X86432702Y-102248980D01*
X86432702Y-102248980D02*
X86095984Y-102585697D01*
X85860282Y-102821400D02*
X86095984Y-103999911D01*
X85388878Y-103292804D02*
X86567389Y-103528506D01*
X85220519Y-103461163D02*
X84816458Y-103865224D01*
X85725595Y-104370300D02*
X85018488Y-103663193D01*
X84513412Y-104639674D02*
X84984816Y-105111079D01*
X84412397Y-104201942D02*
X85085832Y-104538659D01*
X85085832Y-104538659D02*
X84648099Y-104976392D01*
X93989420Y-110015697D02*
X93753717Y-110251400D01*
X94023091Y-110722804D02*
X94359809Y-110386087D01*
X94359809Y-110386087D02*
X93652702Y-109678980D01*
X93652702Y-109678980D02*
X93315984Y-110015697D01*
X93080282Y-110251400D02*
X93315984Y-111429911D01*
X92608878Y-110722804D02*
X93787389Y-110958506D01*
X92440519Y-110891163D02*
X92036458Y-111295224D01*
X92945595Y-111800300D02*
X92238488Y-111093193D01*
X91868099Y-111463583D02*
X91430366Y-111901316D01*
X91430366Y-111901316D02*
X91935442Y-111934987D01*
X91935442Y-111934987D02*
X91834427Y-112036003D01*
X91834427Y-112036003D02*
X91800755Y-112137018D01*
X91800755Y-112137018D02*
X91800755Y-112204361D01*
X91800755Y-112204361D02*
X91834427Y-112305377D01*
X91834427Y-112305377D02*
X92002786Y-112473735D01*
X92002786Y-112473735D02*
X92103801Y-112507407D01*
X92103801Y-112507407D02*
X92171145Y-112507407D01*
X92171145Y-112507407D02*
X92272160Y-112473735D01*
X92272160Y-112473735D02*
X92474190Y-112271705D01*
X92474190Y-112271705D02*
X92507862Y-112170690D01*
X92507862Y-112170690D02*
X92507862Y-112103346D01*
X111849819Y-72416779D02*
X110849819Y-72416779D01*
X111326009Y-72416779D02*
X111326009Y-72988207D01*
X111849819Y-72988207D02*
X110849819Y-72988207D01*
X111849819Y-73892969D02*
X111326009Y-73892969D01*
X111326009Y-73892969D02*
X111230771Y-73845350D01*
X111230771Y-73845350D02*
X111183152Y-73750112D01*
X111183152Y-73750112D02*
X111183152Y-73559636D01*
X111183152Y-73559636D02*
X111230771Y-73464398D01*
X111802200Y-73892969D02*
X111849819Y-73797731D01*
X111849819Y-73797731D02*
X111849819Y-73559636D01*
X111849819Y-73559636D02*
X111802200Y-73464398D01*
X111802200Y-73464398D02*
X111706961Y-73416779D01*
X111706961Y-73416779D02*
X111611723Y-73416779D01*
X111611723Y-73416779D02*
X111516485Y-73464398D01*
X111516485Y-73464398D02*
X111468866Y-73559636D01*
X111468866Y-73559636D02*
X111468866Y-73797731D01*
X111468866Y-73797731D02*
X111421247Y-73892969D01*
X111849819Y-74512017D02*
X111802200Y-74416779D01*
X111802200Y-74416779D02*
X111706961Y-74369160D01*
X111706961Y-74369160D02*
X110849819Y-74369160D01*
X111849819Y-75035827D02*
X111802200Y-74940589D01*
X111802200Y-74940589D02*
X111706961Y-74892970D01*
X111706961Y-74892970D02*
X110849819Y-74892970D01*
X110849819Y-76083447D02*
X110849819Y-76702494D01*
X110849819Y-76702494D02*
X111230771Y-76369161D01*
X111230771Y-76369161D02*
X111230771Y-76512018D01*
X111230771Y-76512018D02*
X111278390Y-76607256D01*
X111278390Y-76607256D02*
X111326009Y-76654875D01*
X111326009Y-76654875D02*
X111421247Y-76702494D01*
X111421247Y-76702494D02*
X111659342Y-76702494D01*
X111659342Y-76702494D02*
X111754580Y-76654875D01*
X111754580Y-76654875D02*
X111802200Y-76607256D01*
X111802200Y-76607256D02*
X111849819Y-76512018D01*
X111849819Y-76512018D02*
X111849819Y-76226304D01*
X111849819Y-76226304D02*
X111802200Y-76131066D01*
X111802200Y-76131066D02*
X111754580Y-76083447D01*
X153400124Y-118095713D02*
X154400124Y-118095713D01*
X154400124Y-118095713D02*
X154400124Y-117714761D01*
X154400124Y-117714761D02*
X154352505Y-117619523D01*
X154352505Y-117619523D02*
X154304886Y-117571904D01*
X154304886Y-117571904D02*
X154209648Y-117524285D01*
X154209648Y-117524285D02*
X154066791Y-117524285D01*
X154066791Y-117524285D02*
X153971553Y-117571904D01*
X153971553Y-117571904D02*
X153923934Y-117619523D01*
X153923934Y-117619523D02*
X153876315Y-117714761D01*
X153876315Y-117714761D02*
X153876315Y-118095713D01*
X154400124Y-117190951D02*
X153400124Y-116952856D01*
X153400124Y-116952856D02*
X154114410Y-116762380D01*
X154114410Y-116762380D02*
X153400124Y-116571904D01*
X153400124Y-116571904D02*
X154400124Y-116333809D01*
X153400124Y-115952856D02*
X154400124Y-115952856D01*
X154400124Y-115952856D02*
X153685839Y-115619523D01*
X153685839Y-115619523D02*
X154400124Y-115286190D01*
X154400124Y-115286190D02*
X153400124Y-115286190D01*
X151790180Y-119381428D02*
X152790180Y-119381428D01*
X152456847Y-118905238D02*
X151790180Y-118905238D01*
X152361609Y-118905238D02*
X152409228Y-118857619D01*
X152409228Y-118857619D02*
X152456847Y-118762381D01*
X152456847Y-118762381D02*
X152456847Y-118619524D01*
X152456847Y-118619524D02*
X152409228Y-118524286D01*
X152409228Y-118524286D02*
X152313990Y-118476667D01*
X152313990Y-118476667D02*
X151790180Y-118476667D01*
X152456847Y-118143333D02*
X152456847Y-117762381D01*
X152790180Y-118000476D02*
X151933038Y-118000476D01*
X151933038Y-118000476D02*
X151837800Y-117952857D01*
X151837800Y-117952857D02*
X151790180Y-117857619D01*
X151790180Y-117857619D02*
X151790180Y-117762381D01*
X151837800Y-117048095D02*
X151790180Y-117143333D01*
X151790180Y-117143333D02*
X151790180Y-117333809D01*
X151790180Y-117333809D02*
X151837800Y-117429047D01*
X151837800Y-117429047D02*
X151933038Y-117476666D01*
X151933038Y-117476666D02*
X152313990Y-117476666D01*
X152313990Y-117476666D02*
X152409228Y-117429047D01*
X152409228Y-117429047D02*
X152456847Y-117333809D01*
X152456847Y-117333809D02*
X152456847Y-117143333D01*
X152456847Y-117143333D02*
X152409228Y-117048095D01*
X152409228Y-117048095D02*
X152313990Y-117000476D01*
X152313990Y-117000476D02*
X152218752Y-117000476D01*
X152218752Y-117000476D02*
X152123514Y-117476666D01*
X151790180Y-116571904D02*
X152456847Y-116571904D01*
X152266371Y-116571904D02*
X152361609Y-116524285D01*
X152361609Y-116524285D02*
X152409228Y-116476666D01*
X152409228Y-116476666D02*
X152456847Y-116381428D01*
X152456847Y-116381428D02*
X152456847Y-116286190D01*
X152456847Y-116095713D02*
X152456847Y-115714761D01*
X151790180Y-115952856D02*
X152647323Y-115952856D01*
X152647323Y-115952856D02*
X152742561Y-115905237D01*
X152742561Y-115905237D02*
X152790180Y-115809999D01*
X152790180Y-115809999D02*
X152790180Y-115714761D01*
X151790180Y-114952856D02*
X152313990Y-114952856D01*
X152313990Y-114952856D02*
X152409228Y-115000475D01*
X152409228Y-115000475D02*
X152456847Y-115095713D01*
X152456847Y-115095713D02*
X152456847Y-115286189D01*
X152456847Y-115286189D02*
X152409228Y-115381427D01*
X151837800Y-114952856D02*
X151790180Y-115048094D01*
X151790180Y-115048094D02*
X151790180Y-115286189D01*
X151790180Y-115286189D02*
X151837800Y-115381427D01*
X151837800Y-115381427D02*
X151933038Y-115429046D01*
X151933038Y-115429046D02*
X152028276Y-115429046D01*
X152028276Y-115429046D02*
X152123514Y-115381427D01*
X152123514Y-115381427D02*
X152171133Y-115286189D01*
X152171133Y-115286189D02*
X152171133Y-115048094D01*
X152171133Y-115048094D02*
X152218752Y-114952856D01*
X151837800Y-114048094D02*
X151790180Y-114143332D01*
X151790180Y-114143332D02*
X151790180Y-114333808D01*
X151790180Y-114333808D02*
X151837800Y-114429046D01*
X151837800Y-114429046D02*
X151885419Y-114476665D01*
X151885419Y-114476665D02*
X151980657Y-114524284D01*
X151980657Y-114524284D02*
X152266371Y-114524284D01*
X152266371Y-114524284D02*
X152361609Y-114476665D01*
X152361609Y-114476665D02*
X152409228Y-114429046D01*
X152409228Y-114429046D02*
X152456847Y-114333808D01*
X152456847Y-114333808D02*
X152456847Y-114143332D01*
X152456847Y-114143332D02*
X152409228Y-114048094D01*
X151837800Y-113238570D02*
X151790180Y-113333808D01*
X151790180Y-113333808D02*
X151790180Y-113524284D01*
X151790180Y-113524284D02*
X151837800Y-113619522D01*
X151837800Y-113619522D02*
X151933038Y-113667141D01*
X151933038Y-113667141D02*
X152313990Y-113667141D01*
X152313990Y-113667141D02*
X152409228Y-113619522D01*
X152409228Y-113619522D02*
X152456847Y-113524284D01*
X152456847Y-113524284D02*
X152456847Y-113333808D01*
X152456847Y-113333808D02*
X152409228Y-113238570D01*
X152409228Y-113238570D02*
X152313990Y-113190951D01*
X152313990Y-113190951D02*
X152218752Y-113190951D01*
X152218752Y-113190951D02*
X152123514Y-113667141D01*
X172506190Y-104713152D02*
X172506190Y-105713152D01*
X172506190Y-104760771D02*
X172410952Y-104713152D01*
X172410952Y-104713152D02*
X172220476Y-104713152D01*
X172220476Y-104713152D02*
X172125238Y-104760771D01*
X172125238Y-104760771D02*
X172077619Y-104808390D01*
X172077619Y-104808390D02*
X172030000Y-104903628D01*
X172030000Y-104903628D02*
X172030000Y-105189342D01*
X172030000Y-105189342D02*
X172077619Y-105284580D01*
X172077619Y-105284580D02*
X172125238Y-105332200D01*
X172125238Y-105332200D02*
X172220476Y-105379819D01*
X172220476Y-105379819D02*
X172410952Y-105379819D01*
X172410952Y-105379819D02*
X172506190Y-105332200D01*
X171172857Y-104713152D02*
X171172857Y-105379819D01*
X171601428Y-104713152D02*
X171601428Y-105236961D01*
X171601428Y-105236961D02*
X171553809Y-105332200D01*
X171553809Y-105332200D02*
X171458571Y-105379819D01*
X171458571Y-105379819D02*
X171315714Y-105379819D01*
X171315714Y-105379819D02*
X171220476Y-105332200D01*
X171220476Y-105332200D02*
X171172857Y-105284580D01*
X170696666Y-105379819D02*
X170696666Y-104713152D01*
X170696666Y-104903628D02*
X170649047Y-104808390D01*
X170649047Y-104808390D02*
X170601428Y-104760771D01*
X170601428Y-104760771D02*
X170506190Y-104713152D01*
X170506190Y-104713152D02*
X170410952Y-104713152D01*
D11*
X220149684Y-87637292D02*
X220221112Y-87771220D01*
X220221112Y-87771220D02*
X220221112Y-88056935D01*
X220221112Y-88056935D02*
X220149684Y-88208720D01*
X220149684Y-88208720D02*
X220006826Y-88298006D01*
X220006826Y-88298006D02*
X219935398Y-88306935D01*
X219935398Y-88306935D02*
X219792541Y-88253363D01*
X219792541Y-88253363D02*
X219721112Y-88119435D01*
X219721112Y-88119435D02*
X219721112Y-87905149D01*
X219721112Y-87905149D02*
X219649684Y-87771220D01*
X219649684Y-87771220D02*
X219506826Y-87717649D01*
X219506826Y-87717649D02*
X219435398Y-87726578D01*
X219435398Y-87726578D02*
X219292541Y-87815863D01*
X219292541Y-87815863D02*
X219221112Y-87967649D01*
X219221112Y-87967649D02*
X219221112Y-88181935D01*
X219221112Y-88181935D02*
X219292541Y-88315863D01*
X219221112Y-88824792D02*
X219221112Y-89396221D01*
X218721112Y-89101578D02*
X220006826Y-88940864D01*
X220006826Y-88940864D02*
X220149684Y-88994435D01*
X220149684Y-88994435D02*
X220221112Y-89128364D01*
X220221112Y-89128364D02*
X220221112Y-89271221D01*
X220149684Y-90351578D02*
X220221112Y-90199792D01*
X220221112Y-90199792D02*
X220221112Y-89914078D01*
X220221112Y-89914078D02*
X220149684Y-89780149D01*
X220149684Y-89780149D02*
X220006826Y-89726578D01*
X220006826Y-89726578D02*
X219435398Y-89798007D01*
X219435398Y-89798007D02*
X219292541Y-89887292D01*
X219292541Y-89887292D02*
X219221112Y-90039078D01*
X219221112Y-90039078D02*
X219221112Y-90324792D01*
X219221112Y-90324792D02*
X219292541Y-90458721D01*
X219292541Y-90458721D02*
X219435398Y-90512292D01*
X219435398Y-90512292D02*
X219578255Y-90494435D01*
X219578255Y-90494435D02*
X219721112Y-89762292D01*
X219221112Y-91181935D02*
X220721112Y-90994435D01*
X219292541Y-91173006D02*
X219221112Y-91324792D01*
X219221112Y-91324792D02*
X219221112Y-91610506D01*
X219221112Y-91610506D02*
X219292541Y-91744435D01*
X219292541Y-91744435D02*
X219363969Y-91806935D01*
X219363969Y-91806935D02*
X219506826Y-91860506D01*
X219506826Y-91860506D02*
X219935398Y-91806935D01*
X219935398Y-91806935D02*
X220078255Y-91717649D01*
X220078255Y-91717649D02*
X220149684Y-91637292D01*
X220149684Y-91637292D02*
X220221112Y-91485506D01*
X220221112Y-91485506D02*
X220221112Y-91199792D01*
X220221112Y-91199792D02*
X220149684Y-91065863D01*
X219221112Y-92539078D02*
X220721112Y-92351578D01*
X219292541Y-92530149D02*
X219221112Y-92681935D01*
X219221112Y-92681935D02*
X219221112Y-92967649D01*
X219221112Y-92967649D02*
X219292541Y-93101578D01*
X219292541Y-93101578D02*
X219363969Y-93164078D01*
X219363969Y-93164078D02*
X219506826Y-93217649D01*
X219506826Y-93217649D02*
X219935398Y-93164078D01*
X219935398Y-93164078D02*
X220078255Y-93074792D01*
X220078255Y-93074792D02*
X220149684Y-92994435D01*
X220149684Y-92994435D02*
X220221112Y-92842649D01*
X220221112Y-92842649D02*
X220221112Y-92556935D01*
X220221112Y-92556935D02*
X220149684Y-92423006D01*
X220149684Y-94351578D02*
X220221112Y-94199792D01*
X220221112Y-94199792D02*
X220221112Y-93914078D01*
X220221112Y-93914078D02*
X220149684Y-93780149D01*
X220149684Y-93780149D02*
X220006826Y-93726578D01*
X220006826Y-93726578D02*
X219435398Y-93798007D01*
X219435398Y-93798007D02*
X219292541Y-93887292D01*
X219292541Y-93887292D02*
X219221112Y-94039078D01*
X219221112Y-94039078D02*
X219221112Y-94324792D01*
X219221112Y-94324792D02*
X219292541Y-94458721D01*
X219292541Y-94458721D02*
X219435398Y-94512292D01*
X219435398Y-94512292D02*
X219578255Y-94494435D01*
X219578255Y-94494435D02*
X219721112Y-93762292D01*
X220221112Y-95056935D02*
X219221112Y-95181935D01*
X219506826Y-95146221D02*
X219363969Y-95235506D01*
X219363969Y-95235506D02*
X219292541Y-95315863D01*
X219292541Y-95315863D02*
X219221112Y-95467649D01*
X219221112Y-95467649D02*
X219221112Y-95610506D01*
X222636028Y-87699792D02*
X221636028Y-87824792D01*
X221778885Y-87806935D02*
X221707457Y-87887292D01*
X221707457Y-87887292D02*
X221636028Y-88039078D01*
X221636028Y-88039078D02*
X221636028Y-88253363D01*
X221636028Y-88253363D02*
X221707457Y-88387292D01*
X221707457Y-88387292D02*
X221850314Y-88440863D01*
X221850314Y-88440863D02*
X222636028Y-88342649D01*
X221850314Y-88440863D02*
X221707457Y-88530149D01*
X221707457Y-88530149D02*
X221636028Y-88681935D01*
X221636028Y-88681935D02*
X221636028Y-88896220D01*
X221636028Y-88896220D02*
X221707457Y-89030149D01*
X221707457Y-89030149D02*
X221850314Y-89083720D01*
X221850314Y-89083720D02*
X222636028Y-88985506D01*
X222636028Y-89914078D02*
X222564600Y-89780149D01*
X222564600Y-89780149D02*
X222493171Y-89717649D01*
X222493171Y-89717649D02*
X222350314Y-89664078D01*
X222350314Y-89664078D02*
X221921742Y-89717649D01*
X221921742Y-89717649D02*
X221778885Y-89806935D01*
X221778885Y-89806935D02*
X221707457Y-89887292D01*
X221707457Y-89887292D02*
X221636028Y-90039078D01*
X221636028Y-90039078D02*
X221636028Y-90253363D01*
X221636028Y-90253363D02*
X221707457Y-90387292D01*
X221707457Y-90387292D02*
X221778885Y-90449792D01*
X221778885Y-90449792D02*
X221921742Y-90503363D01*
X221921742Y-90503363D02*
X222350314Y-90449792D01*
X222350314Y-90449792D02*
X222493171Y-90360506D01*
X222493171Y-90360506D02*
X222564600Y-90280149D01*
X222564600Y-90280149D02*
X222636028Y-90128363D01*
X222636028Y-90128363D02*
X222636028Y-89914078D01*
X221636028Y-90967649D02*
X221636028Y-91539078D01*
X221136028Y-91244435D02*
X222421742Y-91083721D01*
X222421742Y-91083721D02*
X222564600Y-91137292D01*
X222564600Y-91137292D02*
X222636028Y-91271221D01*
X222636028Y-91271221D02*
X222636028Y-91414078D01*
X222636028Y-92128364D02*
X222564600Y-91994435D01*
X222564600Y-91994435D02*
X222493171Y-91931935D01*
X222493171Y-91931935D02*
X222350314Y-91878364D01*
X222350314Y-91878364D02*
X221921742Y-91931935D01*
X221921742Y-91931935D02*
X221778885Y-92021221D01*
X221778885Y-92021221D02*
X221707457Y-92101578D01*
X221707457Y-92101578D02*
X221636028Y-92253364D01*
X221636028Y-92253364D02*
X221636028Y-92467649D01*
X221636028Y-92467649D02*
X221707457Y-92601578D01*
X221707457Y-92601578D02*
X221778885Y-92664078D01*
X221778885Y-92664078D02*
X221921742Y-92717649D01*
X221921742Y-92717649D02*
X222350314Y-92664078D01*
X222350314Y-92664078D02*
X222493171Y-92574792D01*
X222493171Y-92574792D02*
X222564600Y-92494435D01*
X222564600Y-92494435D02*
X222636028Y-92342649D01*
X222636028Y-92342649D02*
X222636028Y-92128364D01*
X222636028Y-93271221D02*
X221636028Y-93396221D01*
X221921742Y-93360507D02*
X221778885Y-93449792D01*
X221778885Y-93449792D02*
X221707457Y-93530149D01*
X221707457Y-93530149D02*
X221636028Y-93681935D01*
X221636028Y-93681935D02*
X221636028Y-93824792D01*
D10*
X189320951Y-85328866D02*
X188559047Y-85328866D01*
X188939999Y-85709819D02*
X188939999Y-84947914D01*
X182438866Y-64596666D02*
X182438866Y-65358571D01*
X182819819Y-64977618D02*
X182057914Y-64977618D01*
X182819819Y-66358570D02*
X182819819Y-65787142D01*
X182819819Y-66072856D02*
X181819819Y-66072856D01*
X181819819Y-66072856D02*
X181962676Y-65977618D01*
X181962676Y-65977618D02*
X182057914Y-65882380D01*
X182057914Y-65882380D02*
X182105533Y-65787142D01*
X181915057Y-66739523D02*
X181867438Y-66787142D01*
X181867438Y-66787142D02*
X181819819Y-66882380D01*
X181819819Y-66882380D02*
X181819819Y-67120475D01*
X181819819Y-67120475D02*
X181867438Y-67215713D01*
X181867438Y-67215713D02*
X181915057Y-67263332D01*
X181915057Y-67263332D02*
X182010295Y-67310951D01*
X182010295Y-67310951D02*
X182105533Y-67310951D01*
X182105533Y-67310951D02*
X182248390Y-67263332D01*
X182248390Y-67263332D02*
X182819819Y-66691904D01*
X182819819Y-66691904D02*
X182819819Y-67310951D01*
X181819819Y-67596666D02*
X182819819Y-67929999D01*
X182819819Y-67929999D02*
X181819819Y-68263332D01*
X182819819Y-69501428D02*
X182772200Y-69406190D01*
X182772200Y-69406190D02*
X182724580Y-69358571D01*
X182724580Y-69358571D02*
X182629342Y-69310952D01*
X182629342Y-69310952D02*
X182343628Y-69310952D01*
X182343628Y-69310952D02*
X182248390Y-69358571D01*
X182248390Y-69358571D02*
X182200771Y-69406190D01*
X182200771Y-69406190D02*
X182153152Y-69501428D01*
X182153152Y-69501428D02*
X182153152Y-69644285D01*
X182153152Y-69644285D02*
X182200771Y-69739523D01*
X182200771Y-69739523D02*
X182248390Y-69787142D01*
X182248390Y-69787142D02*
X182343628Y-69834761D01*
X182343628Y-69834761D02*
X182629342Y-69834761D01*
X182629342Y-69834761D02*
X182724580Y-69787142D01*
X182724580Y-69787142D02*
X182772200Y-69739523D01*
X182772200Y-69739523D02*
X182819819Y-69644285D01*
X182819819Y-69644285D02*
X182819819Y-69501428D01*
X182153152Y-70691904D02*
X182819819Y-70691904D01*
X182153152Y-70263333D02*
X182676961Y-70263333D01*
X182676961Y-70263333D02*
X182772200Y-70310952D01*
X182772200Y-70310952D02*
X182819819Y-70406190D01*
X182819819Y-70406190D02*
X182819819Y-70549047D01*
X182819819Y-70549047D02*
X182772200Y-70644285D01*
X182772200Y-70644285D02*
X182724580Y-70691904D01*
X182153152Y-71025238D02*
X182153152Y-71406190D01*
X181819819Y-71168095D02*
X182676961Y-71168095D01*
X182676961Y-71168095D02*
X182772200Y-71215714D01*
X182772200Y-71215714D02*
X182819819Y-71310952D01*
X182819819Y-71310952D02*
X182819819Y-71406190D01*
X172368571Y-114833152D02*
X172130476Y-115499819D01*
X171892381Y-114833152D02*
X172130476Y-115499819D01*
X172130476Y-115499819D02*
X172225714Y-115737914D01*
X172225714Y-115737914D02*
X172273333Y-115785533D01*
X172273333Y-115785533D02*
X172368571Y-115833152D01*
X171130476Y-115452200D02*
X171225714Y-115499819D01*
X171225714Y-115499819D02*
X171416190Y-115499819D01*
X171416190Y-115499819D02*
X171511428Y-115452200D01*
X171511428Y-115452200D02*
X171559047Y-115356961D01*
X171559047Y-115356961D02*
X171559047Y-114976009D01*
X171559047Y-114976009D02*
X171511428Y-114880771D01*
X171511428Y-114880771D02*
X171416190Y-114833152D01*
X171416190Y-114833152D02*
X171225714Y-114833152D01*
X171225714Y-114833152D02*
X171130476Y-114880771D01*
X171130476Y-114880771D02*
X171082857Y-114976009D01*
X171082857Y-114976009D02*
X171082857Y-115071247D01*
X171082857Y-115071247D02*
X171559047Y-115166485D01*
X170511428Y-115499819D02*
X170606666Y-115452200D01*
X170606666Y-115452200D02*
X170654285Y-115356961D01*
X170654285Y-115356961D02*
X170654285Y-114499819D01*
X108079819Y-72586779D02*
X107079819Y-72586779D01*
X107556009Y-72586779D02*
X107556009Y-73158207D01*
X108079819Y-73158207D02*
X107079819Y-73158207D01*
X108079819Y-74062969D02*
X107556009Y-74062969D01*
X107556009Y-74062969D02*
X107460771Y-74015350D01*
X107460771Y-74015350D02*
X107413152Y-73920112D01*
X107413152Y-73920112D02*
X107413152Y-73729636D01*
X107413152Y-73729636D02*
X107460771Y-73634398D01*
X108032200Y-74062969D02*
X108079819Y-73967731D01*
X108079819Y-73967731D02*
X108079819Y-73729636D01*
X108079819Y-73729636D02*
X108032200Y-73634398D01*
X108032200Y-73634398D02*
X107936961Y-73586779D01*
X107936961Y-73586779D02*
X107841723Y-73586779D01*
X107841723Y-73586779D02*
X107746485Y-73634398D01*
X107746485Y-73634398D02*
X107698866Y-73729636D01*
X107698866Y-73729636D02*
X107698866Y-73967731D01*
X107698866Y-73967731D02*
X107651247Y-74062969D01*
X108079819Y-74682017D02*
X108032200Y-74586779D01*
X108032200Y-74586779D02*
X107936961Y-74539160D01*
X107936961Y-74539160D02*
X107079819Y-74539160D01*
X108079819Y-75205827D02*
X108032200Y-75110589D01*
X108032200Y-75110589D02*
X107936961Y-75062970D01*
X107936961Y-75062970D02*
X107079819Y-75062970D01*
X107175057Y-76301066D02*
X107127438Y-76348685D01*
X107127438Y-76348685D02*
X107079819Y-76443923D01*
X107079819Y-76443923D02*
X107079819Y-76682018D01*
X107079819Y-76682018D02*
X107127438Y-76777256D01*
X107127438Y-76777256D02*
X107175057Y-76824875D01*
X107175057Y-76824875D02*
X107270295Y-76872494D01*
X107270295Y-76872494D02*
X107365533Y-76872494D01*
X107365533Y-76872494D02*
X107508390Y-76824875D01*
X107508390Y-76824875D02*
X108079819Y-76253447D01*
X108079819Y-76253447D02*
X108079819Y-76872494D01*
X172372380Y-120699819D02*
X172372380Y-120033152D01*
X172372380Y-120223628D02*
X172324761Y-120128390D01*
X172324761Y-120128390D02*
X172277142Y-120080771D01*
X172277142Y-120080771D02*
X172181904Y-120033152D01*
X172181904Y-120033152D02*
X172086666Y-120033152D01*
X171372380Y-120652200D02*
X171467618Y-120699819D01*
X171467618Y-120699819D02*
X171658094Y-120699819D01*
X171658094Y-120699819D02*
X171753332Y-120652200D01*
X171753332Y-120652200D02*
X171800951Y-120556961D01*
X171800951Y-120556961D02*
X171800951Y-120176009D01*
X171800951Y-120176009D02*
X171753332Y-120080771D01*
X171753332Y-120080771D02*
X171658094Y-120033152D01*
X171658094Y-120033152D02*
X171467618Y-120033152D01*
X171467618Y-120033152D02*
X171372380Y-120080771D01*
X171372380Y-120080771D02*
X171324761Y-120176009D01*
X171324761Y-120176009D02*
X171324761Y-120271247D01*
X171324761Y-120271247D02*
X171800951Y-120366485D01*
X170467618Y-120699819D02*
X170467618Y-119699819D01*
X170467618Y-120652200D02*
X170562856Y-120699819D01*
X170562856Y-120699819D02*
X170753332Y-120699819D01*
X170753332Y-120699819D02*
X170848570Y-120652200D01*
X170848570Y-120652200D02*
X170896189Y-120604580D01*
X170896189Y-120604580D02*
X170943808Y-120509342D01*
X170943808Y-120509342D02*
X170943808Y-120223628D01*
X170943808Y-120223628D02*
X170896189Y-120128390D01*
X170896189Y-120128390D02*
X170848570Y-120080771D01*
X170848570Y-120080771D02*
X170753332Y-120033152D01*
X170753332Y-120033152D02*
X170562856Y-120033152D01*
X170562856Y-120033152D02*
X170467618Y-120080771D01*
X185347438Y-74518095D02*
X185299819Y-74422857D01*
X185299819Y-74422857D02*
X185299819Y-74280000D01*
X185299819Y-74280000D02*
X185347438Y-74137143D01*
X185347438Y-74137143D02*
X185442676Y-74041905D01*
X185442676Y-74041905D02*
X185537914Y-73994286D01*
X185537914Y-73994286D02*
X185728390Y-73946667D01*
X185728390Y-73946667D02*
X185871247Y-73946667D01*
X185871247Y-73946667D02*
X186061723Y-73994286D01*
X186061723Y-73994286D02*
X186156961Y-74041905D01*
X186156961Y-74041905D02*
X186252200Y-74137143D01*
X186252200Y-74137143D02*
X186299819Y-74280000D01*
X186299819Y-74280000D02*
X186299819Y-74375238D01*
X186299819Y-74375238D02*
X186252200Y-74518095D01*
X186252200Y-74518095D02*
X186204580Y-74565714D01*
X186204580Y-74565714D02*
X185871247Y-74565714D01*
X185871247Y-74565714D02*
X185871247Y-74375238D01*
X186299819Y-74994286D02*
X185299819Y-74994286D01*
X185299819Y-74994286D02*
X186299819Y-75565714D01*
X186299819Y-75565714D02*
X185299819Y-75565714D01*
X186299819Y-76041905D02*
X185299819Y-76041905D01*
X185299819Y-76041905D02*
X185299819Y-76280000D01*
X185299819Y-76280000D02*
X185347438Y-76422857D01*
X185347438Y-76422857D02*
X185442676Y-76518095D01*
X185442676Y-76518095D02*
X185537914Y-76565714D01*
X185537914Y-76565714D02*
X185728390Y-76613333D01*
X185728390Y-76613333D02*
X185871247Y-76613333D01*
X185871247Y-76613333D02*
X186061723Y-76565714D01*
X186061723Y-76565714D02*
X186156961Y-76518095D01*
X186156961Y-76518095D02*
X186252200Y-76422857D01*
X186252200Y-76422857D02*
X186299819Y-76280000D01*
X186299819Y-76280000D02*
X186299819Y-76041905D01*
X90079420Y-106065697D02*
X89843717Y-106301400D01*
X90113091Y-106772804D02*
X90449809Y-106436087D01*
X90449809Y-106436087D02*
X89742702Y-105728980D01*
X89742702Y-105728980D02*
X89405984Y-106065697D01*
X89170282Y-106301400D02*
X89405984Y-107479911D01*
X88698878Y-106772804D02*
X89877389Y-107008506D01*
X88530519Y-106941163D02*
X88126458Y-107345224D01*
X89035595Y-107850300D02*
X88328488Y-107143193D01*
X87991771Y-107614598D02*
X87924427Y-107614598D01*
X87924427Y-107614598D02*
X87823412Y-107648270D01*
X87823412Y-107648270D02*
X87655053Y-107816629D01*
X87655053Y-107816629D02*
X87621381Y-107917644D01*
X87621381Y-107917644D02*
X87621381Y-107984987D01*
X87621381Y-107984987D02*
X87655053Y-108086003D01*
X87655053Y-108086003D02*
X87722397Y-108153346D01*
X87722397Y-108153346D02*
X87857084Y-108220690D01*
X87857084Y-108220690D02*
X88665206Y-108220690D01*
X88665206Y-108220690D02*
X88227473Y-108658422D01*
X192100951Y-93838866D02*
X191339047Y-93838866D01*
X172649047Y-107373152D02*
X172458571Y-108039819D01*
X172458571Y-108039819D02*
X172268095Y-107563628D01*
X172268095Y-107563628D02*
X172077619Y-108039819D01*
X172077619Y-108039819D02*
X171887143Y-107373152D01*
X171506190Y-108039819D02*
X171506190Y-107039819D01*
X171077619Y-108039819D02*
X171077619Y-107516009D01*
X171077619Y-107516009D02*
X171125238Y-107420771D01*
X171125238Y-107420771D02*
X171220476Y-107373152D01*
X171220476Y-107373152D02*
X171363333Y-107373152D01*
X171363333Y-107373152D02*
X171458571Y-107420771D01*
X171458571Y-107420771D02*
X171506190Y-107468390D01*
X170744285Y-107373152D02*
X170363333Y-107373152D01*
X170601428Y-107039819D02*
X170601428Y-107896961D01*
X170601428Y-107896961D02*
X170553809Y-107992200D01*
X170553809Y-107992200D02*
X170458571Y-108039819D01*
X170458571Y-108039819D02*
X170363333Y-108039819D01*
X147077618Y-119829819D02*
X147077618Y-118829819D01*
X147077618Y-118829819D02*
X146696666Y-118829819D01*
X146696666Y-118829819D02*
X146601428Y-118877438D01*
X146601428Y-118877438D02*
X146553809Y-118925057D01*
X146553809Y-118925057D02*
X146506190Y-119020295D01*
X146506190Y-119020295D02*
X146506190Y-119163152D01*
X146506190Y-119163152D02*
X146553809Y-119258390D01*
X146553809Y-119258390D02*
X146601428Y-119306009D01*
X146601428Y-119306009D02*
X146696666Y-119353628D01*
X146696666Y-119353628D02*
X147077618Y-119353628D01*
X146172856Y-118829819D02*
X145934761Y-119829819D01*
X145934761Y-119829819D02*
X145744285Y-119115533D01*
X145744285Y-119115533D02*
X145553809Y-119829819D01*
X145553809Y-119829819D02*
X145315714Y-118829819D01*
X144934761Y-119829819D02*
X144934761Y-118829819D01*
X144934761Y-118829819D02*
X144601428Y-119544104D01*
X144601428Y-119544104D02*
X144268095Y-118829819D01*
X144268095Y-118829819D02*
X144268095Y-119829819D01*
X142839523Y-118829819D02*
X142649047Y-118829819D01*
X142649047Y-118829819D02*
X142553809Y-118877438D01*
X142553809Y-118877438D02*
X142458571Y-118972676D01*
X142458571Y-118972676D02*
X142410952Y-119163152D01*
X142410952Y-119163152D02*
X142410952Y-119496485D01*
X142410952Y-119496485D02*
X142458571Y-119686961D01*
X142458571Y-119686961D02*
X142553809Y-119782200D01*
X142553809Y-119782200D02*
X142649047Y-119829819D01*
X142649047Y-119829819D02*
X142839523Y-119829819D01*
X142839523Y-119829819D02*
X142934761Y-119782200D01*
X142934761Y-119782200D02*
X143029999Y-119686961D01*
X143029999Y-119686961D02*
X143077618Y-119496485D01*
X143077618Y-119496485D02*
X143077618Y-119163152D01*
X143077618Y-119163152D02*
X143029999Y-118972676D01*
X143029999Y-118972676D02*
X142934761Y-118877438D01*
X142934761Y-118877438D02*
X142839523Y-118829819D01*
X141553809Y-119163152D02*
X141553809Y-119829819D01*
X141982380Y-119163152D02*
X141982380Y-119686961D01*
X141982380Y-119686961D02*
X141934761Y-119782200D01*
X141934761Y-119782200D02*
X141839523Y-119829819D01*
X141839523Y-119829819D02*
X141696666Y-119829819D01*
X141696666Y-119829819D02*
X141601428Y-119782200D01*
X141601428Y-119782200D02*
X141553809Y-119734580D01*
X141220475Y-119163152D02*
X140839523Y-119163152D01*
X141077618Y-118829819D02*
X141077618Y-119686961D01*
X141077618Y-119686961D02*
X141029999Y-119782200D01*
X141029999Y-119782200D02*
X140934761Y-119829819D01*
X140934761Y-119829819D02*
X140839523Y-119829819D01*
X192831904Y-74478866D02*
X192070000Y-74478866D01*
X192450952Y-74859819D02*
X192450952Y-74097914D01*
X191070000Y-74859819D02*
X191641428Y-74859819D01*
X191355714Y-74859819D02*
X191355714Y-73859819D01*
X191355714Y-73859819D02*
X191450952Y-74002676D01*
X191450952Y-74002676D02*
X191546190Y-74097914D01*
X191546190Y-74097914D02*
X191641428Y-74145533D01*
X190689047Y-73955057D02*
X190641428Y-73907438D01*
X190641428Y-73907438D02*
X190546190Y-73859819D01*
X190546190Y-73859819D02*
X190308095Y-73859819D01*
X190308095Y-73859819D02*
X190212857Y-73907438D01*
X190212857Y-73907438D02*
X190165238Y-73955057D01*
X190165238Y-73955057D02*
X190117619Y-74050295D01*
X190117619Y-74050295D02*
X190117619Y-74145533D01*
X190117619Y-74145533D02*
X190165238Y-74288390D01*
X190165238Y-74288390D02*
X190736666Y-74859819D01*
X190736666Y-74859819D02*
X190117619Y-74859819D01*
X189831904Y-73859819D02*
X189498571Y-74859819D01*
X189498571Y-74859819D02*
X189165238Y-73859819D01*
X177440180Y-118003809D02*
X177440180Y-118479999D01*
X177440180Y-118479999D02*
X178440180Y-118479999D01*
X177535419Y-117099047D02*
X177487800Y-117146666D01*
X177487800Y-117146666D02*
X177440180Y-117289523D01*
X177440180Y-117289523D02*
X177440180Y-117384761D01*
X177440180Y-117384761D02*
X177487800Y-117527618D01*
X177487800Y-117527618D02*
X177583038Y-117622856D01*
X177583038Y-117622856D02*
X177678276Y-117670475D01*
X177678276Y-117670475D02*
X177868752Y-117718094D01*
X177868752Y-117718094D02*
X178011609Y-117718094D01*
X178011609Y-117718094D02*
X178202085Y-117670475D01*
X178202085Y-117670475D02*
X178297323Y-117622856D01*
X178297323Y-117622856D02*
X178392561Y-117527618D01*
X178392561Y-117527618D02*
X178440180Y-117384761D01*
X178440180Y-117384761D02*
X178440180Y-117289523D01*
X178440180Y-117289523D02*
X178392561Y-117146666D01*
X178392561Y-117146666D02*
X178344942Y-117099047D01*
X177440180Y-116670475D02*
X178440180Y-116670475D01*
X178440180Y-116670475D02*
X178440180Y-116432380D01*
X178440180Y-116432380D02*
X178392561Y-116289523D01*
X178392561Y-116289523D02*
X178297323Y-116194285D01*
X178297323Y-116194285D02*
X178202085Y-116146666D01*
X178202085Y-116146666D02*
X178011609Y-116099047D01*
X178011609Y-116099047D02*
X177868752Y-116099047D01*
X177868752Y-116099047D02*
X177678276Y-116146666D01*
X177678276Y-116146666D02*
X177583038Y-116194285D01*
X177583038Y-116194285D02*
X177487800Y-116289523D01*
X177487800Y-116289523D02*
X177440180Y-116432380D01*
X177440180Y-116432380D02*
X177440180Y-116670475D01*
X178440180Y-115003808D02*
X177440180Y-114765713D01*
X177440180Y-114765713D02*
X178154466Y-114575237D01*
X178154466Y-114575237D02*
X177440180Y-114384761D01*
X177440180Y-114384761D02*
X178440180Y-114146666D01*
X177440180Y-113765713D02*
X178106847Y-113765713D01*
X178440180Y-113765713D02*
X178392561Y-113813332D01*
X178392561Y-113813332D02*
X178344942Y-113765713D01*
X178344942Y-113765713D02*
X178392561Y-113718094D01*
X178392561Y-113718094D02*
X178440180Y-113765713D01*
X178440180Y-113765713D02*
X178344942Y-113765713D01*
X177440180Y-113289523D02*
X178106847Y-113289523D01*
X177916371Y-113289523D02*
X178011609Y-113241904D01*
X178011609Y-113241904D02*
X178059228Y-113194285D01*
X178059228Y-113194285D02*
X178106847Y-113099047D01*
X178106847Y-113099047D02*
X178106847Y-113003809D01*
X177487800Y-112289523D02*
X177440180Y-112384761D01*
X177440180Y-112384761D02*
X177440180Y-112575237D01*
X177440180Y-112575237D02*
X177487800Y-112670475D01*
X177487800Y-112670475D02*
X177583038Y-112718094D01*
X177583038Y-112718094D02*
X177963990Y-112718094D01*
X177963990Y-112718094D02*
X178059228Y-112670475D01*
X178059228Y-112670475D02*
X178106847Y-112575237D01*
X178106847Y-112575237D02*
X178106847Y-112384761D01*
X178106847Y-112384761D02*
X178059228Y-112289523D01*
X178059228Y-112289523D02*
X177963990Y-112241904D01*
X177963990Y-112241904D02*
X177868752Y-112241904D01*
X177868752Y-112241904D02*
X177773514Y-112718094D01*
X177487800Y-111860951D02*
X177440180Y-111765713D01*
X177440180Y-111765713D02*
X177440180Y-111575237D01*
X177440180Y-111575237D02*
X177487800Y-111479999D01*
X177487800Y-111479999D02*
X177583038Y-111432380D01*
X177583038Y-111432380D02*
X177630657Y-111432380D01*
X177630657Y-111432380D02*
X177725895Y-111479999D01*
X177725895Y-111479999D02*
X177773514Y-111575237D01*
X177773514Y-111575237D02*
X177773514Y-111718094D01*
X177773514Y-111718094D02*
X177821133Y-111813332D01*
X177821133Y-111813332D02*
X177916371Y-111860951D01*
X177916371Y-111860951D02*
X177963990Y-111860951D01*
X177963990Y-111860951D02*
X178059228Y-111813332D01*
X178059228Y-111813332D02*
X178106847Y-111718094D01*
X178106847Y-111718094D02*
X178106847Y-111575237D01*
X178106847Y-111575237D02*
X178059228Y-111479999D01*
X92139420Y-108125697D02*
X91903717Y-108361400D01*
X92173091Y-108832804D02*
X92509809Y-108496087D01*
X92509809Y-108496087D02*
X91802702Y-107788980D01*
X91802702Y-107788980D02*
X91465984Y-108125697D01*
X91230282Y-108361400D02*
X91465984Y-109539911D01*
X90758878Y-108832804D02*
X91937389Y-109068506D01*
X90590519Y-109001163D02*
X90186458Y-109405224D01*
X91095595Y-109910300D02*
X90388488Y-109203193D01*
X89614038Y-109977644D02*
X89950755Y-109640926D01*
X89950755Y-109640926D02*
X90321145Y-109943972D01*
X90321145Y-109943972D02*
X90253801Y-109943972D01*
X90253801Y-109943972D02*
X90152786Y-109977644D01*
X90152786Y-109977644D02*
X89984427Y-110146003D01*
X89984427Y-110146003D02*
X89950755Y-110247018D01*
X89950755Y-110247018D02*
X89950755Y-110314361D01*
X89950755Y-110314361D02*
X89984427Y-110415377D01*
X89984427Y-110415377D02*
X90152786Y-110583735D01*
X90152786Y-110583735D02*
X90253801Y-110617407D01*
X90253801Y-110617407D02*
X90321145Y-110617407D01*
X90321145Y-110617407D02*
X90422160Y-110583735D01*
X90422160Y-110583735D02*
X90590519Y-110415377D01*
X90590519Y-110415377D02*
X90624190Y-110314361D01*
X90624190Y-110314361D02*
X90624190Y-110247018D01*
X238673332Y-100045057D02*
X238625713Y-99997438D01*
X238625713Y-99997438D02*
X238530475Y-99949819D01*
X238530475Y-99949819D02*
X238292380Y-99949819D01*
X238292380Y-99949819D02*
X238197142Y-99997438D01*
X238197142Y-99997438D02*
X238149523Y-100045057D01*
X238149523Y-100045057D02*
X238101904Y-100140295D01*
X238101904Y-100140295D02*
X238101904Y-100235533D01*
X238101904Y-100235533D02*
X238149523Y-100378390D01*
X238149523Y-100378390D02*
X238720951Y-100949819D01*
X238720951Y-100949819D02*
X238101904Y-100949819D01*
X237244761Y-100283152D02*
X237244761Y-100949819D01*
X237482856Y-99902200D02*
X237720951Y-100616485D01*
X237720951Y-100616485D02*
X237101904Y-100616485D01*
X236863808Y-99949819D02*
X236530475Y-100949819D01*
X236530475Y-100949819D02*
X236197142Y-99949819D01*
X235101903Y-100949819D02*
X235101903Y-99949819D01*
X234625713Y-100949819D02*
X234625713Y-99949819D01*
X234625713Y-99949819D02*
X234054285Y-100949819D01*
X234054285Y-100949819D02*
X234054285Y-99949819D01*
X104009819Y-72586779D02*
X103009819Y-72586779D01*
X103486009Y-72586779D02*
X103486009Y-73158207D01*
X104009819Y-73158207D02*
X103009819Y-73158207D01*
X104009819Y-74062969D02*
X103486009Y-74062969D01*
X103486009Y-74062969D02*
X103390771Y-74015350D01*
X103390771Y-74015350D02*
X103343152Y-73920112D01*
X103343152Y-73920112D02*
X103343152Y-73729636D01*
X103343152Y-73729636D02*
X103390771Y-73634398D01*
X103962200Y-74062969D02*
X104009819Y-73967731D01*
X104009819Y-73967731D02*
X104009819Y-73729636D01*
X104009819Y-73729636D02*
X103962200Y-73634398D01*
X103962200Y-73634398D02*
X103866961Y-73586779D01*
X103866961Y-73586779D02*
X103771723Y-73586779D01*
X103771723Y-73586779D02*
X103676485Y-73634398D01*
X103676485Y-73634398D02*
X103628866Y-73729636D01*
X103628866Y-73729636D02*
X103628866Y-73967731D01*
X103628866Y-73967731D02*
X103581247Y-74062969D01*
X104009819Y-74682017D02*
X103962200Y-74586779D01*
X103962200Y-74586779D02*
X103866961Y-74539160D01*
X103866961Y-74539160D02*
X103009819Y-74539160D01*
X104009819Y-75205827D02*
X103962200Y-75110589D01*
X103962200Y-75110589D02*
X103866961Y-75062970D01*
X103866961Y-75062970D02*
X103009819Y-75062970D01*
X104009819Y-76872494D02*
X104009819Y-76301066D01*
X104009819Y-76586780D02*
X103009819Y-76586780D01*
X103009819Y-76586780D02*
X103152676Y-76491542D01*
X103152676Y-76491542D02*
X103247914Y-76396304D01*
X103247914Y-76396304D02*
X103295533Y-76301066D01*
X146541904Y-113497438D02*
X146637142Y-113449819D01*
X146637142Y-113449819D02*
X146779999Y-113449819D01*
X146779999Y-113449819D02*
X146922856Y-113497438D01*
X146922856Y-113497438D02*
X147018094Y-113592676D01*
X147018094Y-113592676D02*
X147065713Y-113687914D01*
X147065713Y-113687914D02*
X147113332Y-113878390D01*
X147113332Y-113878390D02*
X147113332Y-114021247D01*
X147113332Y-114021247D02*
X147065713Y-114211723D01*
X147065713Y-114211723D02*
X147018094Y-114306961D01*
X147018094Y-114306961D02*
X146922856Y-114402200D01*
X146922856Y-114402200D02*
X146779999Y-114449819D01*
X146779999Y-114449819D02*
X146684761Y-114449819D01*
X146684761Y-114449819D02*
X146541904Y-114402200D01*
X146541904Y-114402200D02*
X146494285Y-114354580D01*
X146494285Y-114354580D02*
X146494285Y-114021247D01*
X146494285Y-114021247D02*
X146684761Y-114021247D01*
X146065713Y-114449819D02*
X146065713Y-113449819D01*
X146065713Y-113449819D02*
X145494285Y-114449819D01*
X145494285Y-114449819D02*
X145494285Y-113449819D01*
X145018094Y-114449819D02*
X145018094Y-113449819D01*
X145018094Y-113449819D02*
X144779999Y-113449819D01*
X144779999Y-113449819D02*
X144637142Y-113497438D01*
X144637142Y-113497438D02*
X144541904Y-113592676D01*
X144541904Y-113592676D02*
X144494285Y-113687914D01*
X144494285Y-113687914D02*
X144446666Y-113878390D01*
X144446666Y-113878390D02*
X144446666Y-114021247D01*
X144446666Y-114021247D02*
X144494285Y-114211723D01*
X144494285Y-114211723D02*
X144541904Y-114306961D01*
X144541904Y-114306961D02*
X144637142Y-114402200D01*
X144637142Y-114402200D02*
X144779999Y-114449819D01*
X144779999Y-114449819D02*
X145018094Y-114449819D01*
X88439420Y-104515697D02*
X88203717Y-104751400D01*
X88473091Y-105222804D02*
X88809809Y-104886087D01*
X88809809Y-104886087D02*
X88102702Y-104178980D01*
X88102702Y-104178980D02*
X87765984Y-104515697D01*
X87530282Y-104751400D02*
X87765984Y-105929911D01*
X87058878Y-105222804D02*
X88237389Y-105458506D01*
X86890519Y-105391163D02*
X86486458Y-105795224D01*
X87395595Y-106300300D02*
X86688488Y-105593193D01*
X86587473Y-107108422D02*
X86991534Y-106704361D01*
X86789503Y-106906392D02*
X86082397Y-106199285D01*
X86082397Y-106199285D02*
X86250755Y-106232957D01*
X86250755Y-106232957D02*
X86385442Y-106232957D01*
X86385442Y-106232957D02*
X86486458Y-106199285D01*
X189280951Y-93708866D02*
X188519047Y-93708866D01*
X188899999Y-94089819D02*
X188899999Y-93327914D01*
X172358571Y-118149819D02*
X172358571Y-117149819D01*
X172358571Y-117530771D02*
X172263333Y-117483152D01*
X172263333Y-117483152D02*
X172072857Y-117483152D01*
X172072857Y-117483152D02*
X171977619Y-117530771D01*
X171977619Y-117530771D02*
X171930000Y-117578390D01*
X171930000Y-117578390D02*
X171882381Y-117673628D01*
X171882381Y-117673628D02*
X171882381Y-117959342D01*
X171882381Y-117959342D02*
X171930000Y-118054580D01*
X171930000Y-118054580D02*
X171977619Y-118102200D01*
X171977619Y-118102200D02*
X172072857Y-118149819D01*
X172072857Y-118149819D02*
X172263333Y-118149819D01*
X172263333Y-118149819D02*
X172358571Y-118102200D01*
X171310952Y-118149819D02*
X171406190Y-118102200D01*
X171406190Y-118102200D02*
X171453809Y-118006961D01*
X171453809Y-118006961D02*
X171453809Y-117149819D01*
X170501428Y-117483152D02*
X170501428Y-118149819D01*
X170929999Y-117483152D02*
X170929999Y-118006961D01*
X170929999Y-118006961D02*
X170882380Y-118102200D01*
X170882380Y-118102200D02*
X170787142Y-118149819D01*
X170787142Y-118149819D02*
X170644285Y-118149819D01*
X170644285Y-118149819D02*
X170549047Y-118102200D01*
X170549047Y-118102200D02*
X170501428Y-118054580D01*
X172323333Y-113049819D02*
X172418571Y-113002200D01*
X172418571Y-113002200D02*
X172466190Y-112954580D01*
X172466190Y-112954580D02*
X172513809Y-112859342D01*
X172513809Y-112859342D02*
X172513809Y-112573628D01*
X172513809Y-112573628D02*
X172466190Y-112478390D01*
X172466190Y-112478390D02*
X172418571Y-112430771D01*
X172418571Y-112430771D02*
X172323333Y-112383152D01*
X172323333Y-112383152D02*
X172180476Y-112383152D01*
X172180476Y-112383152D02*
X172085238Y-112430771D01*
X172085238Y-112430771D02*
X172037619Y-112478390D01*
X172037619Y-112478390D02*
X171990000Y-112573628D01*
X171990000Y-112573628D02*
X171990000Y-112859342D01*
X171990000Y-112859342D02*
X172037619Y-112954580D01*
X172037619Y-112954580D02*
X172085238Y-113002200D01*
X172085238Y-113002200D02*
X172180476Y-113049819D01*
X172180476Y-113049819D02*
X172323333Y-113049819D01*
X171561428Y-113049819D02*
X171561428Y-112383152D01*
X171561428Y-112573628D02*
X171513809Y-112478390D01*
X171513809Y-112478390D02*
X171466190Y-112430771D01*
X171466190Y-112430771D02*
X171370952Y-112383152D01*
X171370952Y-112383152D02*
X171275714Y-112383152D01*
X170942380Y-112383152D02*
X170942380Y-113049819D01*
X170942380Y-112478390D02*
X170894761Y-112430771D01*
X170894761Y-112430771D02*
X170799523Y-112383152D01*
X170799523Y-112383152D02*
X170656666Y-112383152D01*
X170656666Y-112383152D02*
X170561428Y-112430771D01*
X170561428Y-112430771D02*
X170513809Y-112526009D01*
X170513809Y-112526009D02*
X170513809Y-113049819D01*
X149623333Y-110764819D02*
X149623333Y-111479104D01*
X149623333Y-111479104D02*
X149670952Y-111621961D01*
X149670952Y-111621961D02*
X149766190Y-111717200D01*
X149766190Y-111717200D02*
X149909047Y-111764819D01*
X149909047Y-111764819D02*
X150004285Y-111764819D01*
X148670952Y-110764819D02*
X149147142Y-110764819D01*
X149147142Y-110764819D02*
X149194761Y-111241009D01*
X149194761Y-111241009D02*
X149147142Y-111193390D01*
X149147142Y-111193390D02*
X149051904Y-111145771D01*
X149051904Y-111145771D02*
X148813809Y-111145771D01*
X148813809Y-111145771D02*
X148718571Y-111193390D01*
X148718571Y-111193390D02*
X148670952Y-111241009D01*
X148670952Y-111241009D02*
X148623333Y-111336247D01*
X148623333Y-111336247D02*
X148623333Y-111574342D01*
X148623333Y-111574342D02*
X148670952Y-111669580D01*
X148670952Y-111669580D02*
X148718571Y-111717200D01*
X148718571Y-111717200D02*
X148813809Y-111764819D01*
X148813809Y-111764819D02*
X149051904Y-111764819D01*
X149051904Y-111764819D02*
X149147142Y-111717200D01*
X149147142Y-111717200D02*
X149194761Y-111669580D01*
X127544819Y-118473333D02*
X127068628Y-118140000D01*
X127544819Y-117901905D02*
X126544819Y-117901905D01*
X126544819Y-117901905D02*
X126544819Y-118282857D01*
X126544819Y-118282857D02*
X126592438Y-118378095D01*
X126592438Y-118378095D02*
X126640057Y-118425714D01*
X126640057Y-118425714D02*
X126735295Y-118473333D01*
X126735295Y-118473333D02*
X126878152Y-118473333D01*
X126878152Y-118473333D02*
X126973390Y-118425714D01*
X126973390Y-118425714D02*
X127021009Y-118378095D01*
X127021009Y-118378095D02*
X127068628Y-118282857D01*
X127068628Y-118282857D02*
X127068628Y-117901905D01*
X126544819Y-118806667D02*
X126544819Y-119473333D01*
X126544819Y-119473333D02*
X127544819Y-119044762D01*
X116066666Y-113924819D02*
X116399999Y-113448628D01*
X116638094Y-113924819D02*
X116638094Y-112924819D01*
X116638094Y-112924819D02*
X116257142Y-112924819D01*
X116257142Y-112924819D02*
X116161904Y-112972438D01*
X116161904Y-112972438D02*
X116114285Y-113020057D01*
X116114285Y-113020057D02*
X116066666Y-113115295D01*
X116066666Y-113115295D02*
X116066666Y-113258152D01*
X116066666Y-113258152D02*
X116114285Y-113353390D01*
X116114285Y-113353390D02*
X116161904Y-113401009D01*
X116161904Y-113401009D02*
X116257142Y-113448628D01*
X116257142Y-113448628D02*
X116638094Y-113448628D01*
X115590475Y-113924819D02*
X115399999Y-113924819D01*
X115399999Y-113924819D02*
X115304761Y-113877200D01*
X115304761Y-113877200D02*
X115257142Y-113829580D01*
X115257142Y-113829580D02*
X115161904Y-113686723D01*
X115161904Y-113686723D02*
X115114285Y-113496247D01*
X115114285Y-113496247D02*
X115114285Y-113115295D01*
X115114285Y-113115295D02*
X115161904Y-113020057D01*
X115161904Y-113020057D02*
X115209523Y-112972438D01*
X115209523Y-112972438D02*
X115304761Y-112924819D01*
X115304761Y-112924819D02*
X115495237Y-112924819D01*
X115495237Y-112924819D02*
X115590475Y-112972438D01*
X115590475Y-112972438D02*
X115638094Y-113020057D01*
X115638094Y-113020057D02*
X115685713Y-113115295D01*
X115685713Y-113115295D02*
X115685713Y-113353390D01*
X115685713Y-113353390D02*
X115638094Y-113448628D01*
X115638094Y-113448628D02*
X115590475Y-113496247D01*
X115590475Y-113496247D02*
X115495237Y-113543866D01*
X115495237Y-113543866D02*
X115304761Y-113543866D01*
X115304761Y-113543866D02*
X115209523Y-113496247D01*
X115209523Y-113496247D02*
X115161904Y-113448628D01*
X115161904Y-113448628D02*
X115114285Y-113353390D01*
X214560306Y-112058830D02*
X214560306Y-112126174D01*
X214560306Y-112126174D02*
X214627650Y-112260861D01*
X214627650Y-112260861D02*
X214694993Y-112328204D01*
X214694993Y-112328204D02*
X214829680Y-112395548D01*
X214829680Y-112395548D02*
X214964367Y-112395548D01*
X214964367Y-112395548D02*
X215065382Y-112361876D01*
X215065382Y-112361876D02*
X215233741Y-112260861D01*
X215233741Y-112260861D02*
X215334756Y-112159846D01*
X215334756Y-112159846D02*
X215435772Y-111991487D01*
X215435772Y-111991487D02*
X215469443Y-111890472D01*
X215469443Y-111890472D02*
X215469443Y-111755785D01*
X215469443Y-111755785D02*
X215402100Y-111621098D01*
X215402100Y-111621098D02*
X215334756Y-111553754D01*
X215334756Y-111553754D02*
X215200069Y-111486411D01*
X215200069Y-111486411D02*
X215132726Y-111486411D01*
X214863352Y-111217037D02*
X214863352Y-111149693D01*
X214863352Y-111149693D02*
X214829680Y-111048678D01*
X214829680Y-111048678D02*
X214661321Y-110880319D01*
X214661321Y-110880319D02*
X214560306Y-110846647D01*
X214560306Y-110846647D02*
X214492963Y-110846647D01*
X214492963Y-110846647D02*
X214391947Y-110880319D01*
X214391947Y-110880319D02*
X214324604Y-110947663D01*
X214324604Y-110947663D02*
X214257260Y-111082350D01*
X214257260Y-111082350D02*
X214257260Y-111890472D01*
X214257260Y-111890472D02*
X213819528Y-111452739D01*
X214290932Y-110509930D02*
X213819527Y-110038525D01*
X213819527Y-110038525D02*
X213415466Y-111048678D01*
X158232857Y-83014819D02*
X158566190Y-82538628D01*
X158804285Y-83014819D02*
X158804285Y-82014819D01*
X158804285Y-82014819D02*
X158423333Y-82014819D01*
X158423333Y-82014819D02*
X158328095Y-82062438D01*
X158328095Y-82062438D02*
X158280476Y-82110057D01*
X158280476Y-82110057D02*
X158232857Y-82205295D01*
X158232857Y-82205295D02*
X158232857Y-82348152D01*
X158232857Y-82348152D02*
X158280476Y-82443390D01*
X158280476Y-82443390D02*
X158328095Y-82491009D01*
X158328095Y-82491009D02*
X158423333Y-82538628D01*
X158423333Y-82538628D02*
X158804285Y-82538628D01*
X157280476Y-83014819D02*
X157851904Y-83014819D01*
X157566190Y-83014819D02*
X157566190Y-82014819D01*
X157566190Y-82014819D02*
X157661428Y-82157676D01*
X157661428Y-82157676D02*
X157756666Y-82252914D01*
X157756666Y-82252914D02*
X157851904Y-82300533D01*
X156423333Y-82348152D02*
X156423333Y-83014819D01*
X156661428Y-81967200D02*
X156899523Y-82681485D01*
X156899523Y-82681485D02*
X156280476Y-82681485D01*
X173946666Y-85989580D02*
X173994285Y-86037200D01*
X173994285Y-86037200D02*
X174137142Y-86084819D01*
X174137142Y-86084819D02*
X174232380Y-86084819D01*
X174232380Y-86084819D02*
X174375237Y-86037200D01*
X174375237Y-86037200D02*
X174470475Y-85941961D01*
X174470475Y-85941961D02*
X174518094Y-85846723D01*
X174518094Y-85846723D02*
X174565713Y-85656247D01*
X174565713Y-85656247D02*
X174565713Y-85513390D01*
X174565713Y-85513390D02*
X174518094Y-85322914D01*
X174518094Y-85322914D02*
X174470475Y-85227676D01*
X174470475Y-85227676D02*
X174375237Y-85132438D01*
X174375237Y-85132438D02*
X174232380Y-85084819D01*
X174232380Y-85084819D02*
X174137142Y-85084819D01*
X174137142Y-85084819D02*
X173994285Y-85132438D01*
X173994285Y-85132438D02*
X173946666Y-85180057D01*
X173470475Y-86084819D02*
X173279999Y-86084819D01*
X173279999Y-86084819D02*
X173184761Y-86037200D01*
X173184761Y-86037200D02*
X173137142Y-85989580D01*
X173137142Y-85989580D02*
X173041904Y-85846723D01*
X173041904Y-85846723D02*
X172994285Y-85656247D01*
X172994285Y-85656247D02*
X172994285Y-85275295D01*
X172994285Y-85275295D02*
X173041904Y-85180057D01*
X173041904Y-85180057D02*
X173089523Y-85132438D01*
X173089523Y-85132438D02*
X173184761Y-85084819D01*
X173184761Y-85084819D02*
X173375237Y-85084819D01*
X173375237Y-85084819D02*
X173470475Y-85132438D01*
X173470475Y-85132438D02*
X173518094Y-85180057D01*
X173518094Y-85180057D02*
X173565713Y-85275295D01*
X173565713Y-85275295D02*
X173565713Y-85513390D01*
X173565713Y-85513390D02*
X173518094Y-85608628D01*
X173518094Y-85608628D02*
X173470475Y-85656247D01*
X173470475Y-85656247D02*
X173375237Y-85703866D01*
X173375237Y-85703866D02*
X173184761Y-85703866D01*
X173184761Y-85703866D02*
X173089523Y-85656247D01*
X173089523Y-85656247D02*
X173041904Y-85608628D01*
X173041904Y-85608628D02*
X172994285Y-85513390D01*
X107052857Y-107849580D02*
X107100476Y-107897200D01*
X107100476Y-107897200D02*
X107243333Y-107944819D01*
X107243333Y-107944819D02*
X107338571Y-107944819D01*
X107338571Y-107944819D02*
X107481428Y-107897200D01*
X107481428Y-107897200D02*
X107576666Y-107801961D01*
X107576666Y-107801961D02*
X107624285Y-107706723D01*
X107624285Y-107706723D02*
X107671904Y-107516247D01*
X107671904Y-107516247D02*
X107671904Y-107373390D01*
X107671904Y-107373390D02*
X107624285Y-107182914D01*
X107624285Y-107182914D02*
X107576666Y-107087676D01*
X107576666Y-107087676D02*
X107481428Y-106992438D01*
X107481428Y-106992438D02*
X107338571Y-106944819D01*
X107338571Y-106944819D02*
X107243333Y-106944819D01*
X107243333Y-106944819D02*
X107100476Y-106992438D01*
X107100476Y-106992438D02*
X107052857Y-107040057D01*
X106671904Y-107040057D02*
X106624285Y-106992438D01*
X106624285Y-106992438D02*
X106529047Y-106944819D01*
X106529047Y-106944819D02*
X106290952Y-106944819D01*
X106290952Y-106944819D02*
X106195714Y-106992438D01*
X106195714Y-106992438D02*
X106148095Y-107040057D01*
X106148095Y-107040057D02*
X106100476Y-107135295D01*
X106100476Y-107135295D02*
X106100476Y-107230533D01*
X106100476Y-107230533D02*
X106148095Y-107373390D01*
X106148095Y-107373390D02*
X106719523Y-107944819D01*
X106719523Y-107944819D02*
X106100476Y-107944819D01*
X105195714Y-106944819D02*
X105671904Y-106944819D01*
X105671904Y-106944819D02*
X105719523Y-107421009D01*
X105719523Y-107421009D02*
X105671904Y-107373390D01*
X105671904Y-107373390D02*
X105576666Y-107325771D01*
X105576666Y-107325771D02*
X105338571Y-107325771D01*
X105338571Y-107325771D02*
X105243333Y-107373390D01*
X105243333Y-107373390D02*
X105195714Y-107421009D01*
X105195714Y-107421009D02*
X105148095Y-107516247D01*
X105148095Y-107516247D02*
X105148095Y-107754342D01*
X105148095Y-107754342D02*
X105195714Y-107849580D01*
X105195714Y-107849580D02*
X105243333Y-107897200D01*
X105243333Y-107897200D02*
X105338571Y-107944819D01*
X105338571Y-107944819D02*
X105576666Y-107944819D01*
X105576666Y-107944819D02*
X105671904Y-107897200D01*
X105671904Y-107897200D02*
X105719523Y-107849580D01*
X116252857Y-112169580D02*
X116300476Y-112217200D01*
X116300476Y-112217200D02*
X116443333Y-112264819D01*
X116443333Y-112264819D02*
X116538571Y-112264819D01*
X116538571Y-112264819D02*
X116681428Y-112217200D01*
X116681428Y-112217200D02*
X116776666Y-112121961D01*
X116776666Y-112121961D02*
X116824285Y-112026723D01*
X116824285Y-112026723D02*
X116871904Y-111836247D01*
X116871904Y-111836247D02*
X116871904Y-111693390D01*
X116871904Y-111693390D02*
X116824285Y-111502914D01*
X116824285Y-111502914D02*
X116776666Y-111407676D01*
X116776666Y-111407676D02*
X116681428Y-111312438D01*
X116681428Y-111312438D02*
X116538571Y-111264819D01*
X116538571Y-111264819D02*
X116443333Y-111264819D01*
X116443333Y-111264819D02*
X116300476Y-111312438D01*
X116300476Y-111312438D02*
X116252857Y-111360057D01*
X115300476Y-112264819D02*
X115871904Y-112264819D01*
X115586190Y-112264819D02*
X115586190Y-111264819D01*
X115586190Y-111264819D02*
X115681428Y-111407676D01*
X115681428Y-111407676D02*
X115776666Y-111502914D01*
X115776666Y-111502914D02*
X115871904Y-111550533D01*
X114967142Y-111264819D02*
X114348095Y-111264819D01*
X114348095Y-111264819D02*
X114681428Y-111645771D01*
X114681428Y-111645771D02*
X114538571Y-111645771D01*
X114538571Y-111645771D02*
X114443333Y-111693390D01*
X114443333Y-111693390D02*
X114395714Y-111741009D01*
X114395714Y-111741009D02*
X114348095Y-111836247D01*
X114348095Y-111836247D02*
X114348095Y-112074342D01*
X114348095Y-112074342D02*
X114395714Y-112169580D01*
X114395714Y-112169580D02*
X114443333Y-112217200D01*
X114443333Y-112217200D02*
X114538571Y-112264819D01*
X114538571Y-112264819D02*
X114824285Y-112264819D01*
X114824285Y-112264819D02*
X114919523Y-112217200D01*
X114919523Y-112217200D02*
X114967142Y-112169580D01*
X119787857Y-109414819D02*
X120121190Y-108938628D01*
X120359285Y-109414819D02*
X120359285Y-108414819D01*
X120359285Y-108414819D02*
X119978333Y-108414819D01*
X119978333Y-108414819D02*
X119883095Y-108462438D01*
X119883095Y-108462438D02*
X119835476Y-108510057D01*
X119835476Y-108510057D02*
X119787857Y-108605295D01*
X119787857Y-108605295D02*
X119787857Y-108748152D01*
X119787857Y-108748152D02*
X119835476Y-108843390D01*
X119835476Y-108843390D02*
X119883095Y-108891009D01*
X119883095Y-108891009D02*
X119978333Y-108938628D01*
X119978333Y-108938628D02*
X120359285Y-108938628D01*
X118835476Y-109414819D02*
X119406904Y-109414819D01*
X119121190Y-109414819D02*
X119121190Y-108414819D01*
X119121190Y-108414819D02*
X119216428Y-108557676D01*
X119216428Y-108557676D02*
X119311666Y-108652914D01*
X119311666Y-108652914D02*
X119406904Y-108700533D01*
X117883095Y-109414819D02*
X118454523Y-109414819D01*
X118168809Y-109414819D02*
X118168809Y-108414819D01*
X118168809Y-108414819D02*
X118264047Y-108557676D01*
X118264047Y-108557676D02*
X118359285Y-108652914D01*
X118359285Y-108652914D02*
X118454523Y-108700533D01*
X221333333Y-73424819D02*
X221333333Y-74139104D01*
X221333333Y-74139104D02*
X221380952Y-74281961D01*
X221380952Y-74281961D02*
X221476190Y-74377200D01*
X221476190Y-74377200D02*
X221619047Y-74424819D01*
X221619047Y-74424819D02*
X221714285Y-74424819D01*
X220952380Y-73424819D02*
X220285714Y-73424819D01*
X220285714Y-73424819D02*
X220714285Y-74424819D01*
X130229580Y-120617142D02*
X130277200Y-120569523D01*
X130277200Y-120569523D02*
X130324819Y-120426666D01*
X130324819Y-120426666D02*
X130324819Y-120331428D01*
X130324819Y-120331428D02*
X130277200Y-120188571D01*
X130277200Y-120188571D02*
X130181961Y-120093333D01*
X130181961Y-120093333D02*
X130086723Y-120045714D01*
X130086723Y-120045714D02*
X129896247Y-119998095D01*
X129896247Y-119998095D02*
X129753390Y-119998095D01*
X129753390Y-119998095D02*
X129562914Y-120045714D01*
X129562914Y-120045714D02*
X129467676Y-120093333D01*
X129467676Y-120093333D02*
X129372438Y-120188571D01*
X129372438Y-120188571D02*
X129324819Y-120331428D01*
X129324819Y-120331428D02*
X129324819Y-120426666D01*
X129324819Y-120426666D02*
X129372438Y-120569523D01*
X129372438Y-120569523D02*
X129420057Y-120617142D01*
X130324819Y-121569523D02*
X130324819Y-120998095D01*
X130324819Y-121283809D02*
X129324819Y-121283809D01*
X129324819Y-121283809D02*
X129467676Y-121188571D01*
X129467676Y-121188571D02*
X129562914Y-121093333D01*
X129562914Y-121093333D02*
X129610533Y-120998095D01*
X130324819Y-122521904D02*
X130324819Y-121950476D01*
X130324819Y-122236190D02*
X129324819Y-122236190D01*
X129324819Y-122236190D02*
X129467676Y-122140952D01*
X129467676Y-122140952D02*
X129562914Y-122045714D01*
X129562914Y-122045714D02*
X129610533Y-121950476D01*
X89251666Y-120569580D02*
X89299285Y-120617200D01*
X89299285Y-120617200D02*
X89442142Y-120664819D01*
X89442142Y-120664819D02*
X89537380Y-120664819D01*
X89537380Y-120664819D02*
X89680237Y-120617200D01*
X89680237Y-120617200D02*
X89775475Y-120521961D01*
X89775475Y-120521961D02*
X89823094Y-120426723D01*
X89823094Y-120426723D02*
X89870713Y-120236247D01*
X89870713Y-120236247D02*
X89870713Y-120093390D01*
X89870713Y-120093390D02*
X89823094Y-119902914D01*
X89823094Y-119902914D02*
X89775475Y-119807676D01*
X89775475Y-119807676D02*
X89680237Y-119712438D01*
X89680237Y-119712438D02*
X89537380Y-119664819D01*
X89537380Y-119664819D02*
X89442142Y-119664819D01*
X89442142Y-119664819D02*
X89299285Y-119712438D01*
X89299285Y-119712438D02*
X89251666Y-119760057D01*
X88680237Y-120093390D02*
X88775475Y-120045771D01*
X88775475Y-120045771D02*
X88823094Y-119998152D01*
X88823094Y-119998152D02*
X88870713Y-119902914D01*
X88870713Y-119902914D02*
X88870713Y-119855295D01*
X88870713Y-119855295D02*
X88823094Y-119760057D01*
X88823094Y-119760057D02*
X88775475Y-119712438D01*
X88775475Y-119712438D02*
X88680237Y-119664819D01*
X88680237Y-119664819D02*
X88489761Y-119664819D01*
X88489761Y-119664819D02*
X88394523Y-119712438D01*
X88394523Y-119712438D02*
X88346904Y-119760057D01*
X88346904Y-119760057D02*
X88299285Y-119855295D01*
X88299285Y-119855295D02*
X88299285Y-119902914D01*
X88299285Y-119902914D02*
X88346904Y-119998152D01*
X88346904Y-119998152D02*
X88394523Y-120045771D01*
X88394523Y-120045771D02*
X88489761Y-120093390D01*
X88489761Y-120093390D02*
X88680237Y-120093390D01*
X88680237Y-120093390D02*
X88775475Y-120141009D01*
X88775475Y-120141009D02*
X88823094Y-120188628D01*
X88823094Y-120188628D02*
X88870713Y-120283866D01*
X88870713Y-120283866D02*
X88870713Y-120474342D01*
X88870713Y-120474342D02*
X88823094Y-120569580D01*
X88823094Y-120569580D02*
X88775475Y-120617200D01*
X88775475Y-120617200D02*
X88680237Y-120664819D01*
X88680237Y-120664819D02*
X88489761Y-120664819D01*
X88489761Y-120664819D02*
X88394523Y-120617200D01*
X88394523Y-120617200D02*
X88346904Y-120569580D01*
X88346904Y-120569580D02*
X88299285Y-120474342D01*
X88299285Y-120474342D02*
X88299285Y-120283866D01*
X88299285Y-120283866D02*
X88346904Y-120188628D01*
X88346904Y-120188628D02*
X88394523Y-120141009D01*
X88394523Y-120141009D02*
X88489761Y-120093390D01*
X165462857Y-64134819D02*
X165796190Y-63658628D01*
X166034285Y-64134819D02*
X166034285Y-63134819D01*
X166034285Y-63134819D02*
X165653333Y-63134819D01*
X165653333Y-63134819D02*
X165558095Y-63182438D01*
X165558095Y-63182438D02*
X165510476Y-63230057D01*
X165510476Y-63230057D02*
X165462857Y-63325295D01*
X165462857Y-63325295D02*
X165462857Y-63468152D01*
X165462857Y-63468152D02*
X165510476Y-63563390D01*
X165510476Y-63563390D02*
X165558095Y-63611009D01*
X165558095Y-63611009D02*
X165653333Y-63658628D01*
X165653333Y-63658628D02*
X166034285Y-63658628D01*
X165081904Y-63230057D02*
X165034285Y-63182438D01*
X165034285Y-63182438D02*
X164939047Y-63134819D01*
X164939047Y-63134819D02*
X164700952Y-63134819D01*
X164700952Y-63134819D02*
X164605714Y-63182438D01*
X164605714Y-63182438D02*
X164558095Y-63230057D01*
X164558095Y-63230057D02*
X164510476Y-63325295D01*
X164510476Y-63325295D02*
X164510476Y-63420533D01*
X164510476Y-63420533D02*
X164558095Y-63563390D01*
X164558095Y-63563390D02*
X165129523Y-64134819D01*
X165129523Y-64134819D02*
X164510476Y-64134819D01*
X164177142Y-63134819D02*
X163558095Y-63134819D01*
X163558095Y-63134819D02*
X163891428Y-63515771D01*
X163891428Y-63515771D02*
X163748571Y-63515771D01*
X163748571Y-63515771D02*
X163653333Y-63563390D01*
X163653333Y-63563390D02*
X163605714Y-63611009D01*
X163605714Y-63611009D02*
X163558095Y-63706247D01*
X163558095Y-63706247D02*
X163558095Y-63944342D01*
X163558095Y-63944342D02*
X163605714Y-64039580D01*
X163605714Y-64039580D02*
X163653333Y-64087200D01*
X163653333Y-64087200D02*
X163748571Y-64134819D01*
X163748571Y-64134819D02*
X164034285Y-64134819D01*
X164034285Y-64134819D02*
X164129523Y-64087200D01*
X164129523Y-64087200D02*
X164177142Y-64039580D01*
X107918333Y-61679819D02*
X107918333Y-62394104D01*
X107918333Y-62394104D02*
X107965952Y-62536961D01*
X107965952Y-62536961D02*
X108061190Y-62632200D01*
X108061190Y-62632200D02*
X108204047Y-62679819D01*
X108204047Y-62679819D02*
X108299285Y-62679819D01*
X107299285Y-62108390D02*
X107394523Y-62060771D01*
X107394523Y-62060771D02*
X107442142Y-62013152D01*
X107442142Y-62013152D02*
X107489761Y-61917914D01*
X107489761Y-61917914D02*
X107489761Y-61870295D01*
X107489761Y-61870295D02*
X107442142Y-61775057D01*
X107442142Y-61775057D02*
X107394523Y-61727438D01*
X107394523Y-61727438D02*
X107299285Y-61679819D01*
X107299285Y-61679819D02*
X107108809Y-61679819D01*
X107108809Y-61679819D02*
X107013571Y-61727438D01*
X107013571Y-61727438D02*
X106965952Y-61775057D01*
X106965952Y-61775057D02*
X106918333Y-61870295D01*
X106918333Y-61870295D02*
X106918333Y-61917914D01*
X106918333Y-61917914D02*
X106965952Y-62013152D01*
X106965952Y-62013152D02*
X107013571Y-62060771D01*
X107013571Y-62060771D02*
X107108809Y-62108390D01*
X107108809Y-62108390D02*
X107299285Y-62108390D01*
X107299285Y-62108390D02*
X107394523Y-62156009D01*
X107394523Y-62156009D02*
X107442142Y-62203628D01*
X107442142Y-62203628D02*
X107489761Y-62298866D01*
X107489761Y-62298866D02*
X107489761Y-62489342D01*
X107489761Y-62489342D02*
X107442142Y-62584580D01*
X107442142Y-62584580D02*
X107394523Y-62632200D01*
X107394523Y-62632200D02*
X107299285Y-62679819D01*
X107299285Y-62679819D02*
X107108809Y-62679819D01*
X107108809Y-62679819D02*
X107013571Y-62632200D01*
X107013571Y-62632200D02*
X106965952Y-62584580D01*
X106965952Y-62584580D02*
X106918333Y-62489342D01*
X106918333Y-62489342D02*
X106918333Y-62298866D01*
X106918333Y-62298866D02*
X106965952Y-62203628D01*
X106965952Y-62203628D02*
X107013571Y-62156009D01*
X107013571Y-62156009D02*
X107108809Y-62108390D01*
X237138066Y-68873919D02*
X237138066Y-67873919D01*
X237138066Y-67873919D02*
X236899971Y-67873919D01*
X236899971Y-67873919D02*
X236757114Y-67921538D01*
X236757114Y-67921538D02*
X236661876Y-68016776D01*
X236661876Y-68016776D02*
X236614257Y-68112014D01*
X236614257Y-68112014D02*
X236566638Y-68302490D01*
X236566638Y-68302490D02*
X236566638Y-68445347D01*
X236566638Y-68445347D02*
X236614257Y-68635823D01*
X236614257Y-68635823D02*
X236661876Y-68731061D01*
X236661876Y-68731061D02*
X236757114Y-68826300D01*
X236757114Y-68826300D02*
X236899971Y-68873919D01*
X236899971Y-68873919D02*
X237138066Y-68873919D01*
X235566638Y-68873919D02*
X235899971Y-68397728D01*
X236138066Y-68873919D02*
X236138066Y-67873919D01*
X236138066Y-67873919D02*
X235757114Y-67873919D01*
X235757114Y-67873919D02*
X235661876Y-67921538D01*
X235661876Y-67921538D02*
X235614257Y-67969157D01*
X235614257Y-67969157D02*
X235566638Y-68064395D01*
X235566638Y-68064395D02*
X235566638Y-68207252D01*
X235566638Y-68207252D02*
X235614257Y-68302490D01*
X235614257Y-68302490D02*
X235661876Y-68350109D01*
X235661876Y-68350109D02*
X235757114Y-68397728D01*
X235757114Y-68397728D02*
X236138066Y-68397728D01*
X235280923Y-67873919D02*
X234947590Y-68873919D01*
X234947590Y-68873919D02*
X234614257Y-67873919D01*
X233757114Y-68873919D02*
X234328542Y-68873919D01*
X234042828Y-68873919D02*
X234042828Y-67873919D01*
X234042828Y-67873919D02*
X234138066Y-68016776D01*
X234138066Y-68016776D02*
X234233304Y-68112014D01*
X234233304Y-68112014D02*
X234328542Y-68159633D01*
X233153420Y-84494119D02*
X233153420Y-83494119D01*
X233153420Y-83494119D02*
X232820087Y-84208404D01*
X232820087Y-84208404D02*
X232486754Y-83494119D01*
X232486754Y-83494119D02*
X232486754Y-84494119D01*
X231486754Y-84494119D02*
X232058182Y-84494119D01*
X231772468Y-84494119D02*
X231772468Y-83494119D01*
X231772468Y-83494119D02*
X231867706Y-83636976D01*
X231867706Y-83636976D02*
X231962944Y-83732214D01*
X231962944Y-83732214D02*
X232058182Y-83779833D01*
X230724849Y-83970309D02*
X230581992Y-84017928D01*
X230581992Y-84017928D02*
X230534373Y-84065547D01*
X230534373Y-84065547D02*
X230486754Y-84160785D01*
X230486754Y-84160785D02*
X230486754Y-84303642D01*
X230486754Y-84303642D02*
X230534373Y-84398880D01*
X230534373Y-84398880D02*
X230581992Y-84446500D01*
X230581992Y-84446500D02*
X230677230Y-84494119D01*
X230677230Y-84494119D02*
X231058182Y-84494119D01*
X231058182Y-84494119D02*
X231058182Y-83494119D01*
X231058182Y-83494119D02*
X230724849Y-83494119D01*
X230724849Y-83494119D02*
X230629611Y-83541738D01*
X230629611Y-83541738D02*
X230581992Y-83589357D01*
X230581992Y-83589357D02*
X230534373Y-83684595D01*
X230534373Y-83684595D02*
X230534373Y-83779833D01*
X230534373Y-83779833D02*
X230581992Y-83875071D01*
X230581992Y-83875071D02*
X230629611Y-83922690D01*
X230629611Y-83922690D02*
X230724849Y-83970309D01*
X230724849Y-83970309D02*
X231058182Y-83970309D01*
X232458077Y-70743319D02*
X232124744Y-71743319D01*
X232124744Y-71743319D02*
X231791411Y-70743319D01*
X231458077Y-71743319D02*
X231458077Y-70743319D01*
X231458077Y-70743319D02*
X231124744Y-71457604D01*
X231124744Y-71457604D02*
X230791411Y-70743319D01*
X230791411Y-70743319D02*
X230791411Y-71743319D01*
X240744839Y-79290300D02*
X240601982Y-79337919D01*
X240601982Y-79337919D02*
X240363887Y-79337919D01*
X240363887Y-79337919D02*
X240268649Y-79290300D01*
X240268649Y-79290300D02*
X240221030Y-79242680D01*
X240221030Y-79242680D02*
X240173411Y-79147442D01*
X240173411Y-79147442D02*
X240173411Y-79052204D01*
X240173411Y-79052204D02*
X240221030Y-78956966D01*
X240221030Y-78956966D02*
X240268649Y-78909347D01*
X240268649Y-78909347D02*
X240363887Y-78861728D01*
X240363887Y-78861728D02*
X240554363Y-78814109D01*
X240554363Y-78814109D02*
X240649601Y-78766490D01*
X240649601Y-78766490D02*
X240697220Y-78718871D01*
X240697220Y-78718871D02*
X240744839Y-78623633D01*
X240744839Y-78623633D02*
X240744839Y-78528395D01*
X240744839Y-78528395D02*
X240697220Y-78433157D01*
X240697220Y-78433157D02*
X240649601Y-78385538D01*
X240649601Y-78385538D02*
X240554363Y-78337919D01*
X240554363Y-78337919D02*
X240316268Y-78337919D01*
X240316268Y-78337919D02*
X240173411Y-78385538D01*
X239744839Y-79337919D02*
X239744839Y-78337919D01*
X239744839Y-78337919D02*
X239363887Y-78337919D01*
X239363887Y-78337919D02*
X239268649Y-78385538D01*
X239268649Y-78385538D02*
X239221030Y-78433157D01*
X239221030Y-78433157D02*
X239173411Y-78528395D01*
X239173411Y-78528395D02*
X239173411Y-78671252D01*
X239173411Y-78671252D02*
X239221030Y-78766490D01*
X239221030Y-78766490D02*
X239268649Y-78814109D01*
X239268649Y-78814109D02*
X239363887Y-78861728D01*
X239363887Y-78861728D02*
X239744839Y-78861728D01*
X238173411Y-79337919D02*
X238506744Y-78861728D01*
X238744839Y-79337919D02*
X238744839Y-78337919D01*
X238744839Y-78337919D02*
X238363887Y-78337919D01*
X238363887Y-78337919D02*
X238268649Y-78385538D01*
X238268649Y-78385538D02*
X238221030Y-78433157D01*
X238221030Y-78433157D02*
X238173411Y-78528395D01*
X238173411Y-78528395D02*
X238173411Y-78671252D01*
X238173411Y-78671252D02*
X238221030Y-78766490D01*
X238221030Y-78766490D02*
X238268649Y-78814109D01*
X238268649Y-78814109D02*
X238363887Y-78861728D01*
X238363887Y-78861728D02*
X238744839Y-78861728D01*
X237744839Y-78814109D02*
X237411506Y-78814109D01*
X237268649Y-79337919D02*
X237744839Y-79337919D01*
X237744839Y-79337919D02*
X237744839Y-78337919D01*
X237744839Y-78337919D02*
X237268649Y-78337919D01*
X236887696Y-79052204D02*
X236411506Y-79052204D01*
X236982934Y-79337919D02*
X236649601Y-78337919D01*
X236649601Y-78337919D02*
X236316268Y-79337919D01*
X235982934Y-79337919D02*
X235982934Y-78337919D01*
X235982934Y-78337919D02*
X235744839Y-78337919D01*
X235744839Y-78337919D02*
X235601982Y-78385538D01*
X235601982Y-78385538D02*
X235506744Y-78480776D01*
X235506744Y-78480776D02*
X235459125Y-78576014D01*
X235459125Y-78576014D02*
X235411506Y-78766490D01*
X235411506Y-78766490D02*
X235411506Y-78909347D01*
X235411506Y-78909347D02*
X235459125Y-79099823D01*
X235459125Y-79099823D02*
X235506744Y-79195061D01*
X235506744Y-79195061D02*
X235601982Y-79290300D01*
X235601982Y-79290300D02*
X235744839Y-79337919D01*
X235744839Y-79337919D02*
X235982934Y-79337919D01*
X240716258Y-81877919D02*
X240192449Y-81211252D01*
X240716258Y-81211252D02*
X240192449Y-81877919D01*
X232629611Y-73457938D02*
X232724849Y-73410319D01*
X232724849Y-73410319D02*
X232867706Y-73410319D01*
X232867706Y-73410319D02*
X233010563Y-73457938D01*
X233010563Y-73457938D02*
X233105801Y-73553176D01*
X233105801Y-73553176D02*
X233153420Y-73648414D01*
X233153420Y-73648414D02*
X233201039Y-73838890D01*
X233201039Y-73838890D02*
X233201039Y-73981747D01*
X233201039Y-73981747D02*
X233153420Y-74172223D01*
X233153420Y-74172223D02*
X233105801Y-74267461D01*
X233105801Y-74267461D02*
X233010563Y-74362700D01*
X233010563Y-74362700D02*
X232867706Y-74410319D01*
X232867706Y-74410319D02*
X232772468Y-74410319D01*
X232772468Y-74410319D02*
X232629611Y-74362700D01*
X232629611Y-74362700D02*
X232581992Y-74315080D01*
X232581992Y-74315080D02*
X232581992Y-73981747D01*
X232581992Y-73981747D02*
X232772468Y-73981747D01*
X232153420Y-74410319D02*
X232153420Y-73410319D01*
X232153420Y-73410319D02*
X231581992Y-74410319D01*
X231581992Y-74410319D02*
X231581992Y-73410319D01*
X231105801Y-74410319D02*
X231105801Y-73410319D01*
X231105801Y-73410319D02*
X230867706Y-73410319D01*
X230867706Y-73410319D02*
X230724849Y-73457938D01*
X230724849Y-73457938D02*
X230629611Y-73553176D01*
X230629611Y-73553176D02*
X230581992Y-73648414D01*
X230581992Y-73648414D02*
X230534373Y-73838890D01*
X230534373Y-73838890D02*
X230534373Y-73981747D01*
X230534373Y-73981747D02*
X230581992Y-74172223D01*
X230581992Y-74172223D02*
X230629611Y-74267461D01*
X230629611Y-74267461D02*
X230724849Y-74362700D01*
X230724849Y-74362700D02*
X230867706Y-74410319D01*
X230867706Y-74410319D02*
X231105801Y-74410319D01*
X233077220Y-81954119D02*
X233077220Y-80954119D01*
X233077220Y-80954119D02*
X232743887Y-81668404D01*
X232743887Y-81668404D02*
X232410554Y-80954119D01*
X232410554Y-80954119D02*
X232410554Y-81954119D01*
X231410554Y-81954119D02*
X231981982Y-81954119D01*
X231696268Y-81954119D02*
X231696268Y-80954119D01*
X231696268Y-80954119D02*
X231791506Y-81096976D01*
X231791506Y-81096976D02*
X231886744Y-81192214D01*
X231886744Y-81192214D02*
X231981982Y-81239833D01*
X231029601Y-81668404D02*
X230553411Y-81668404D01*
X231124839Y-81954119D02*
X230791506Y-80954119D01*
X230791506Y-80954119D02*
X230458173Y-81954119D01*
X233229620Y-76823319D02*
X233229620Y-75823319D01*
X233229620Y-75823319D02*
X232896287Y-76537604D01*
X232896287Y-76537604D02*
X232562954Y-75823319D01*
X232562954Y-75823319D02*
X232562954Y-76823319D01*
X232134382Y-75918557D02*
X232086763Y-75870938D01*
X232086763Y-75870938D02*
X231991525Y-75823319D01*
X231991525Y-75823319D02*
X231753430Y-75823319D01*
X231753430Y-75823319D02*
X231658192Y-75870938D01*
X231658192Y-75870938D02*
X231610573Y-75918557D01*
X231610573Y-75918557D02*
X231562954Y-76013795D01*
X231562954Y-76013795D02*
X231562954Y-76109033D01*
X231562954Y-76109033D02*
X231610573Y-76251890D01*
X231610573Y-76251890D02*
X232182001Y-76823319D01*
X232182001Y-76823319D02*
X231562954Y-76823319D01*
X230801049Y-76299509D02*
X230658192Y-76347128D01*
X230658192Y-76347128D02*
X230610573Y-76394747D01*
X230610573Y-76394747D02*
X230562954Y-76489985D01*
X230562954Y-76489985D02*
X230562954Y-76632842D01*
X230562954Y-76632842D02*
X230610573Y-76728080D01*
X230610573Y-76728080D02*
X230658192Y-76775700D01*
X230658192Y-76775700D02*
X230753430Y-76823319D01*
X230753430Y-76823319D02*
X231134382Y-76823319D01*
X231134382Y-76823319D02*
X231134382Y-75823319D01*
X231134382Y-75823319D02*
X230801049Y-75823319D01*
X230801049Y-75823319D02*
X230705811Y-75870938D01*
X230705811Y-75870938D02*
X230658192Y-75918557D01*
X230658192Y-75918557D02*
X230610573Y-76013795D01*
X230610573Y-76013795D02*
X230610573Y-76109033D01*
X230610573Y-76109033D02*
X230658192Y-76204271D01*
X230658192Y-76204271D02*
X230705811Y-76251890D01*
X230705811Y-76251890D02*
X230801049Y-76299509D01*
X230801049Y-76299509D02*
X231134382Y-76299509D01*
X232889877Y-86135719D02*
X232556544Y-87135719D01*
X232556544Y-87135719D02*
X232223211Y-86135719D01*
X231889877Y-87135719D02*
X231889877Y-86135719D01*
X231223211Y-86135719D02*
X231032735Y-86135719D01*
X231032735Y-86135719D02*
X230937497Y-86183338D01*
X230937497Y-86183338D02*
X230842259Y-86278576D01*
X230842259Y-86278576D02*
X230794640Y-86469052D01*
X230794640Y-86469052D02*
X230794640Y-86802385D01*
X230794640Y-86802385D02*
X230842259Y-86992861D01*
X230842259Y-86992861D02*
X230937497Y-87088100D01*
X230937497Y-87088100D02*
X231032735Y-87135719D01*
X231032735Y-87135719D02*
X231223211Y-87135719D01*
X231223211Y-87135719D02*
X231318449Y-87088100D01*
X231318449Y-87088100D02*
X231413687Y-86992861D01*
X231413687Y-86992861D02*
X231461306Y-86802385D01*
X231461306Y-86802385D02*
X231461306Y-86469052D01*
X231461306Y-86469052D02*
X231413687Y-86278576D01*
X231413687Y-86278576D02*
X231318449Y-86183338D01*
X231318449Y-86183338D02*
X231223211Y-86135719D01*
X240671820Y-76747119D02*
X240671820Y-75747119D01*
X240671820Y-75747119D02*
X240338487Y-76461404D01*
X240338487Y-76461404D02*
X240005154Y-75747119D01*
X240005154Y-75747119D02*
X240005154Y-76747119D01*
X239576582Y-76699500D02*
X239433725Y-76747119D01*
X239433725Y-76747119D02*
X239195630Y-76747119D01*
X239195630Y-76747119D02*
X239100392Y-76699500D01*
X239100392Y-76699500D02*
X239052773Y-76651880D01*
X239052773Y-76651880D02*
X239005154Y-76556642D01*
X239005154Y-76556642D02*
X239005154Y-76461404D01*
X239005154Y-76461404D02*
X239052773Y-76366166D01*
X239052773Y-76366166D02*
X239100392Y-76318547D01*
X239100392Y-76318547D02*
X239195630Y-76270928D01*
X239195630Y-76270928D02*
X239386106Y-76223309D01*
X239386106Y-76223309D02*
X239481344Y-76175690D01*
X239481344Y-76175690D02*
X239528963Y-76128071D01*
X239528963Y-76128071D02*
X239576582Y-76032833D01*
X239576582Y-76032833D02*
X239576582Y-75937595D01*
X239576582Y-75937595D02*
X239528963Y-75842357D01*
X239528963Y-75842357D02*
X239481344Y-75794738D01*
X239481344Y-75794738D02*
X239386106Y-75747119D01*
X239386106Y-75747119D02*
X239148011Y-75747119D01*
X239148011Y-75747119D02*
X239005154Y-75794738D01*
X238624201Y-75842357D02*
X238576582Y-75794738D01*
X238576582Y-75794738D02*
X238481344Y-75747119D01*
X238481344Y-75747119D02*
X238243249Y-75747119D01*
X238243249Y-75747119D02*
X238148011Y-75794738D01*
X238148011Y-75794738D02*
X238100392Y-75842357D01*
X238100392Y-75842357D02*
X238052773Y-75937595D01*
X238052773Y-75937595D02*
X238052773Y-76032833D01*
X238052773Y-76032833D02*
X238100392Y-76175690D01*
X238100392Y-76175690D02*
X238671820Y-76747119D01*
X238671820Y-76747119D02*
X238052773Y-76747119D01*
X240671820Y-71143309D02*
X240338487Y-71143309D01*
X240195630Y-71667119D02*
X240671820Y-71667119D01*
X240671820Y-71667119D02*
X240671820Y-70667119D01*
X240671820Y-70667119D02*
X240195630Y-70667119D01*
X239767058Y-71667119D02*
X239767058Y-70667119D01*
X239767058Y-70667119D02*
X239195630Y-71667119D01*
X239195630Y-71667119D02*
X239195630Y-70667119D01*
X232731211Y-88596338D02*
X232826449Y-88548719D01*
X232826449Y-88548719D02*
X232969306Y-88548719D01*
X232969306Y-88548719D02*
X233112163Y-88596338D01*
X233112163Y-88596338D02*
X233207401Y-88691576D01*
X233207401Y-88691576D02*
X233255020Y-88786814D01*
X233255020Y-88786814D02*
X233302639Y-88977290D01*
X233302639Y-88977290D02*
X233302639Y-89120147D01*
X233302639Y-89120147D02*
X233255020Y-89310623D01*
X233255020Y-89310623D02*
X233207401Y-89405861D01*
X233207401Y-89405861D02*
X233112163Y-89501100D01*
X233112163Y-89501100D02*
X232969306Y-89548719D01*
X232969306Y-89548719D02*
X232874068Y-89548719D01*
X232874068Y-89548719D02*
X232731211Y-89501100D01*
X232731211Y-89501100D02*
X232683592Y-89453480D01*
X232683592Y-89453480D02*
X232683592Y-89120147D01*
X232683592Y-89120147D02*
X232874068Y-89120147D01*
X232255020Y-89548719D02*
X232255020Y-88548719D01*
X232255020Y-88548719D02*
X231683592Y-89548719D01*
X231683592Y-89548719D02*
X231683592Y-88548719D01*
X231207401Y-89548719D02*
X231207401Y-88548719D01*
X231207401Y-88548719D02*
X230969306Y-88548719D01*
X230969306Y-88548719D02*
X230826449Y-88596338D01*
X230826449Y-88596338D02*
X230731211Y-88691576D01*
X230731211Y-88691576D02*
X230683592Y-88786814D01*
X230683592Y-88786814D02*
X230635973Y-88977290D01*
X230635973Y-88977290D02*
X230635973Y-89120147D01*
X230635973Y-89120147D02*
X230683592Y-89310623D01*
X230683592Y-89310623D02*
X230731211Y-89405861D01*
X230731211Y-89405861D02*
X230826449Y-89501100D01*
X230826449Y-89501100D02*
X230969306Y-89548719D01*
X230969306Y-89548719D02*
X231207401Y-89548719D01*
X233153420Y-79439519D02*
X233153420Y-78439519D01*
X233153420Y-78439519D02*
X232820087Y-79153804D01*
X232820087Y-79153804D02*
X232486754Y-78439519D01*
X232486754Y-78439519D02*
X232486754Y-79439519D01*
X232058182Y-78534757D02*
X232010563Y-78487138D01*
X232010563Y-78487138D02*
X231915325Y-78439519D01*
X231915325Y-78439519D02*
X231677230Y-78439519D01*
X231677230Y-78439519D02*
X231581992Y-78487138D01*
X231581992Y-78487138D02*
X231534373Y-78534757D01*
X231534373Y-78534757D02*
X231486754Y-78629995D01*
X231486754Y-78629995D02*
X231486754Y-78725233D01*
X231486754Y-78725233D02*
X231534373Y-78868090D01*
X231534373Y-78868090D02*
X232105801Y-79439519D01*
X232105801Y-79439519D02*
X231486754Y-79439519D01*
X231105801Y-79153804D02*
X230629611Y-79153804D01*
X231201039Y-79439519D02*
X230867706Y-78439519D01*
X230867706Y-78439519D02*
X230534373Y-79439519D01*
X240671820Y-74080119D02*
X240671820Y-73080119D01*
X240671820Y-73080119D02*
X240338487Y-73794404D01*
X240338487Y-73794404D02*
X240005154Y-73080119D01*
X240005154Y-73080119D02*
X240005154Y-74080119D01*
X239576582Y-74032500D02*
X239433725Y-74080119D01*
X239433725Y-74080119D02*
X239195630Y-74080119D01*
X239195630Y-74080119D02*
X239100392Y-74032500D01*
X239100392Y-74032500D02*
X239052773Y-73984880D01*
X239052773Y-73984880D02*
X239005154Y-73889642D01*
X239005154Y-73889642D02*
X239005154Y-73794404D01*
X239005154Y-73794404D02*
X239052773Y-73699166D01*
X239052773Y-73699166D02*
X239100392Y-73651547D01*
X239100392Y-73651547D02*
X239195630Y-73603928D01*
X239195630Y-73603928D02*
X239386106Y-73556309D01*
X239386106Y-73556309D02*
X239481344Y-73508690D01*
X239481344Y-73508690D02*
X239528963Y-73461071D01*
X239528963Y-73461071D02*
X239576582Y-73365833D01*
X239576582Y-73365833D02*
X239576582Y-73270595D01*
X239576582Y-73270595D02*
X239528963Y-73175357D01*
X239528963Y-73175357D02*
X239481344Y-73127738D01*
X239481344Y-73127738D02*
X239386106Y-73080119D01*
X239386106Y-73080119D02*
X239148011Y-73080119D01*
X239148011Y-73080119D02*
X239005154Y-73127738D01*
X238052773Y-74080119D02*
X238624201Y-74080119D01*
X238338487Y-74080119D02*
X238338487Y-73080119D01*
X238338487Y-73080119D02*
X238433725Y-73222976D01*
X238433725Y-73222976D02*
X238528963Y-73318214D01*
X238528963Y-73318214D02*
X238624201Y-73365833D01*
X240767058Y-84214719D02*
X240243249Y-83548052D01*
X240767058Y-83548052D02*
X240243249Y-84214719D01*
X240592439Y-86884900D02*
X240449582Y-86932519D01*
X240449582Y-86932519D02*
X240211487Y-86932519D01*
X240211487Y-86932519D02*
X240116249Y-86884900D01*
X240116249Y-86884900D02*
X240068630Y-86837280D01*
X240068630Y-86837280D02*
X240021011Y-86742042D01*
X240021011Y-86742042D02*
X240021011Y-86646804D01*
X240021011Y-86646804D02*
X240068630Y-86551566D01*
X240068630Y-86551566D02*
X240116249Y-86503947D01*
X240116249Y-86503947D02*
X240211487Y-86456328D01*
X240211487Y-86456328D02*
X240401963Y-86408709D01*
X240401963Y-86408709D02*
X240497201Y-86361090D01*
X240497201Y-86361090D02*
X240544820Y-86313471D01*
X240544820Y-86313471D02*
X240592439Y-86218233D01*
X240592439Y-86218233D02*
X240592439Y-86122995D01*
X240592439Y-86122995D02*
X240544820Y-86027757D01*
X240544820Y-86027757D02*
X240497201Y-85980138D01*
X240497201Y-85980138D02*
X240401963Y-85932519D01*
X240401963Y-85932519D02*
X240163868Y-85932519D01*
X240163868Y-85932519D02*
X240021011Y-85980138D01*
X239735296Y-85932519D02*
X239163868Y-85932519D01*
X239449582Y-86932519D02*
X239449582Y-85932519D01*
X238830534Y-86932519D02*
X238830534Y-85932519D01*
X238830534Y-85932519D02*
X238449582Y-85932519D01*
X238449582Y-85932519D02*
X238354344Y-85980138D01*
X238354344Y-85980138D02*
X238306725Y-86027757D01*
X238306725Y-86027757D02*
X238259106Y-86122995D01*
X238259106Y-86122995D02*
X238259106Y-86265852D01*
X238259106Y-86265852D02*
X238306725Y-86361090D01*
X238306725Y-86361090D02*
X238354344Y-86408709D01*
X238354344Y-86408709D02*
X238449582Y-86456328D01*
X238449582Y-86456328D02*
X238830534Y-86456328D01*
X240621020Y-89523319D02*
X240621020Y-88523319D01*
X240621020Y-88523319D02*
X240382925Y-88523319D01*
X240382925Y-88523319D02*
X240240068Y-88570938D01*
X240240068Y-88570938D02*
X240144830Y-88666176D01*
X240144830Y-88666176D02*
X240097211Y-88761414D01*
X240097211Y-88761414D02*
X240049592Y-88951890D01*
X240049592Y-88951890D02*
X240049592Y-89094747D01*
X240049592Y-89094747D02*
X240097211Y-89285223D01*
X240097211Y-89285223D02*
X240144830Y-89380461D01*
X240144830Y-89380461D02*
X240240068Y-89475700D01*
X240240068Y-89475700D02*
X240382925Y-89523319D01*
X240382925Y-89523319D02*
X240621020Y-89523319D01*
X239621020Y-89523319D02*
X239621020Y-88523319D01*
X238573402Y-89523319D02*
X238906735Y-89047128D01*
X239144830Y-89523319D02*
X239144830Y-88523319D01*
X239144830Y-88523319D02*
X238763878Y-88523319D01*
X238763878Y-88523319D02*
X238668640Y-88570938D01*
X238668640Y-88570938D02*
X238621021Y-88618557D01*
X238621021Y-88618557D02*
X238573402Y-88713795D01*
X238573402Y-88713795D02*
X238573402Y-88856652D01*
X238573402Y-88856652D02*
X238621021Y-88951890D01*
X238621021Y-88951890D02*
X238668640Y-88999509D01*
X238668640Y-88999509D02*
X238763878Y-89047128D01*
X238763878Y-89047128D02*
X239144830Y-89047128D01*
X186233333Y-91084819D02*
X186233333Y-91799104D01*
X186233333Y-91799104D02*
X186280952Y-91941961D01*
X186280952Y-91941961D02*
X186376190Y-92037200D01*
X186376190Y-92037200D02*
X186519047Y-92084819D01*
X186519047Y-92084819D02*
X186614285Y-92084819D01*
X185328571Y-91418152D02*
X185328571Y-92084819D01*
X185566666Y-91037200D02*
X185804761Y-91751485D01*
X185804761Y-91751485D02*
X185185714Y-91751485D01*
X142492857Y-85919580D02*
X142540476Y-85967200D01*
X142540476Y-85967200D02*
X142683333Y-86014819D01*
X142683333Y-86014819D02*
X142778571Y-86014819D01*
X142778571Y-86014819D02*
X142921428Y-85967200D01*
X142921428Y-85967200D02*
X143016666Y-85871961D01*
X143016666Y-85871961D02*
X143064285Y-85776723D01*
X143064285Y-85776723D02*
X143111904Y-85586247D01*
X143111904Y-85586247D02*
X143111904Y-85443390D01*
X143111904Y-85443390D02*
X143064285Y-85252914D01*
X143064285Y-85252914D02*
X143016666Y-85157676D01*
X143016666Y-85157676D02*
X142921428Y-85062438D01*
X142921428Y-85062438D02*
X142778571Y-85014819D01*
X142778571Y-85014819D02*
X142683333Y-85014819D01*
X142683333Y-85014819D02*
X142540476Y-85062438D01*
X142540476Y-85062438D02*
X142492857Y-85110057D01*
X141540476Y-86014819D02*
X142111904Y-86014819D01*
X141826190Y-86014819D02*
X141826190Y-85014819D01*
X141826190Y-85014819D02*
X141921428Y-85157676D01*
X141921428Y-85157676D02*
X142016666Y-85252914D01*
X142016666Y-85252914D02*
X142111904Y-85300533D01*
X140921428Y-85014819D02*
X140826190Y-85014819D01*
X140826190Y-85014819D02*
X140730952Y-85062438D01*
X140730952Y-85062438D02*
X140683333Y-85110057D01*
X140683333Y-85110057D02*
X140635714Y-85205295D01*
X140635714Y-85205295D02*
X140588095Y-85395771D01*
X140588095Y-85395771D02*
X140588095Y-85633866D01*
X140588095Y-85633866D02*
X140635714Y-85824342D01*
X140635714Y-85824342D02*
X140683333Y-85919580D01*
X140683333Y-85919580D02*
X140730952Y-85967200D01*
X140730952Y-85967200D02*
X140826190Y-86014819D01*
X140826190Y-86014819D02*
X140921428Y-86014819D01*
X140921428Y-86014819D02*
X141016666Y-85967200D01*
X141016666Y-85967200D02*
X141064285Y-85919580D01*
X141064285Y-85919580D02*
X141111904Y-85824342D01*
X141111904Y-85824342D02*
X141159523Y-85633866D01*
X141159523Y-85633866D02*
X141159523Y-85395771D01*
X141159523Y-85395771D02*
X141111904Y-85205295D01*
X141111904Y-85205295D02*
X141064285Y-85110057D01*
X141064285Y-85110057D02*
X141016666Y-85062438D01*
X141016666Y-85062438D02*
X140921428Y-85014819D01*
X158157857Y-85929580D02*
X158205476Y-85977200D01*
X158205476Y-85977200D02*
X158348333Y-86024819D01*
X158348333Y-86024819D02*
X158443571Y-86024819D01*
X158443571Y-86024819D02*
X158586428Y-85977200D01*
X158586428Y-85977200D02*
X158681666Y-85881961D01*
X158681666Y-85881961D02*
X158729285Y-85786723D01*
X158729285Y-85786723D02*
X158776904Y-85596247D01*
X158776904Y-85596247D02*
X158776904Y-85453390D01*
X158776904Y-85453390D02*
X158729285Y-85262914D01*
X158729285Y-85262914D02*
X158681666Y-85167676D01*
X158681666Y-85167676D02*
X158586428Y-85072438D01*
X158586428Y-85072438D02*
X158443571Y-85024819D01*
X158443571Y-85024819D02*
X158348333Y-85024819D01*
X158348333Y-85024819D02*
X158205476Y-85072438D01*
X158205476Y-85072438D02*
X158157857Y-85120057D01*
X157205476Y-86024819D02*
X157776904Y-86024819D01*
X157491190Y-86024819D02*
X157491190Y-85024819D01*
X157491190Y-85024819D02*
X157586428Y-85167676D01*
X157586428Y-85167676D02*
X157681666Y-85262914D01*
X157681666Y-85262914D02*
X157776904Y-85310533D01*
X156348333Y-85358152D02*
X156348333Y-86024819D01*
X156586428Y-84977200D02*
X156824523Y-85691485D01*
X156824523Y-85691485D02*
X156205476Y-85691485D01*
X126255123Y-61229219D02*
X125921790Y-62229219D01*
X125921790Y-62229219D02*
X125588457Y-61229219D01*
X124683695Y-62229219D02*
X125017028Y-61753028D01*
X125255123Y-62229219D02*
X125255123Y-61229219D01*
X125255123Y-61229219D02*
X124874171Y-61229219D01*
X124874171Y-61229219D02*
X124778933Y-61276838D01*
X124778933Y-61276838D02*
X124731314Y-61324457D01*
X124731314Y-61324457D02*
X124683695Y-61419695D01*
X124683695Y-61419695D02*
X124683695Y-61562552D01*
X124683695Y-61562552D02*
X124731314Y-61657790D01*
X124731314Y-61657790D02*
X124778933Y-61705409D01*
X124778933Y-61705409D02*
X124874171Y-61753028D01*
X124874171Y-61753028D02*
X125255123Y-61753028D01*
X124350361Y-61229219D02*
X123731314Y-61229219D01*
X123731314Y-61229219D02*
X124064647Y-61610171D01*
X124064647Y-61610171D02*
X123921790Y-61610171D01*
X123921790Y-61610171D02*
X123826552Y-61657790D01*
X123826552Y-61657790D02*
X123778933Y-61705409D01*
X123778933Y-61705409D02*
X123731314Y-61800647D01*
X123731314Y-61800647D02*
X123731314Y-62038742D01*
X123731314Y-62038742D02*
X123778933Y-62133980D01*
X123778933Y-62133980D02*
X123826552Y-62181600D01*
X123826552Y-62181600D02*
X123921790Y-62229219D01*
X123921790Y-62229219D02*
X124207504Y-62229219D01*
X124207504Y-62229219D02*
X124302742Y-62181600D01*
X124302742Y-62181600D02*
X124350361Y-62133980D01*
X134318056Y-62838819D02*
X134318056Y-61838819D01*
X133841866Y-62838819D02*
X133841866Y-61838819D01*
X133841866Y-61838819D02*
X133270438Y-62838819D01*
X133270438Y-62838819D02*
X133270438Y-61838819D01*
X132794247Y-62457866D02*
X132032343Y-62457866D01*
X116939047Y-107504819D02*
X116748571Y-107504819D01*
X116748571Y-107504819D02*
X116653333Y-107552438D01*
X116653333Y-107552438D02*
X116558095Y-107647676D01*
X116558095Y-107647676D02*
X116510476Y-107838152D01*
X116510476Y-107838152D02*
X116510476Y-108171485D01*
X116510476Y-108171485D02*
X116558095Y-108361961D01*
X116558095Y-108361961D02*
X116653333Y-108457200D01*
X116653333Y-108457200D02*
X116748571Y-108504819D01*
X116748571Y-108504819D02*
X116939047Y-108504819D01*
X116939047Y-108504819D02*
X117034285Y-108457200D01*
X117034285Y-108457200D02*
X117129523Y-108361961D01*
X117129523Y-108361961D02*
X117177142Y-108171485D01*
X117177142Y-108171485D02*
X117177142Y-107838152D01*
X117177142Y-107838152D02*
X117129523Y-107647676D01*
X117129523Y-107647676D02*
X117034285Y-107552438D01*
X117034285Y-107552438D02*
X116939047Y-107504819D01*
X116081904Y-107504819D02*
X116081904Y-108314342D01*
X116081904Y-108314342D02*
X116034285Y-108409580D01*
X116034285Y-108409580D02*
X115986666Y-108457200D01*
X115986666Y-108457200D02*
X115891428Y-108504819D01*
X115891428Y-108504819D02*
X115700952Y-108504819D01*
X115700952Y-108504819D02*
X115605714Y-108457200D01*
X115605714Y-108457200D02*
X115558095Y-108409580D01*
X115558095Y-108409580D02*
X115510476Y-108314342D01*
X115510476Y-108314342D02*
X115510476Y-107504819D01*
X115177142Y-107504819D02*
X114605714Y-107504819D01*
X114891428Y-108504819D02*
X114891428Y-107504819D01*
X114272380Y-108123866D02*
X113510476Y-108123866D01*
X113891428Y-108504819D02*
X113891428Y-107742914D01*
X116665056Y-62788019D02*
X116665056Y-61788019D01*
X116188866Y-62788019D02*
X116188866Y-61788019D01*
X116188866Y-61788019D02*
X115617438Y-62788019D01*
X115617438Y-62788019D02*
X115617438Y-61788019D01*
X115141247Y-62407066D02*
X114379343Y-62407066D01*
X114760295Y-62788019D02*
X114760295Y-62026114D01*
X132792579Y-107587312D02*
X132792579Y-107777788D01*
X132792579Y-107777788D02*
X132840198Y-107873026D01*
X132840198Y-107873026D02*
X132935436Y-107968264D01*
X132935436Y-107968264D02*
X133125912Y-108015883D01*
X133125912Y-108015883D02*
X133459245Y-108015883D01*
X133459245Y-108015883D02*
X133649721Y-107968264D01*
X133649721Y-107968264D02*
X133744960Y-107873026D01*
X133744960Y-107873026D02*
X133792579Y-107777788D01*
X133792579Y-107777788D02*
X133792579Y-107587312D01*
X133792579Y-107587312D02*
X133744960Y-107492074D01*
X133744960Y-107492074D02*
X133649721Y-107396836D01*
X133649721Y-107396836D02*
X133459245Y-107349217D01*
X133459245Y-107349217D02*
X133125912Y-107349217D01*
X133125912Y-107349217D02*
X132935436Y-107396836D01*
X132935436Y-107396836D02*
X132840198Y-107492074D01*
X132840198Y-107492074D02*
X132792579Y-107587312D01*
X132792579Y-108444455D02*
X133602102Y-108444455D01*
X133602102Y-108444455D02*
X133697340Y-108492074D01*
X133697340Y-108492074D02*
X133744960Y-108539693D01*
X133744960Y-108539693D02*
X133792579Y-108634931D01*
X133792579Y-108634931D02*
X133792579Y-108825407D01*
X133792579Y-108825407D02*
X133744960Y-108920645D01*
X133744960Y-108920645D02*
X133697340Y-108968264D01*
X133697340Y-108968264D02*
X133602102Y-109015883D01*
X133602102Y-109015883D02*
X132792579Y-109015883D01*
X132792579Y-109349217D02*
X132792579Y-109920645D01*
X133792579Y-109634931D02*
X132792579Y-109634931D01*
X133411626Y-110253979D02*
X133411626Y-111015884D01*
X122159379Y-80301067D02*
X122159379Y-79824877D01*
X122159379Y-79824877D02*
X121159379Y-79824877D01*
X122159379Y-80634401D02*
X121159379Y-80634401D01*
X121159379Y-80634401D02*
X121873664Y-80967734D01*
X121873664Y-80967734D02*
X121159379Y-81301067D01*
X121159379Y-81301067D02*
X122159379Y-81301067D01*
X121254617Y-81729639D02*
X121206998Y-81777258D01*
X121206998Y-81777258D02*
X121159379Y-81872496D01*
X121159379Y-81872496D02*
X121159379Y-82110591D01*
X121159379Y-82110591D02*
X121206998Y-82205829D01*
X121206998Y-82205829D02*
X121254617Y-82253448D01*
X121254617Y-82253448D02*
X121349855Y-82301067D01*
X121349855Y-82301067D02*
X121445093Y-82301067D01*
X121445093Y-82301067D02*
X121587950Y-82253448D01*
X121587950Y-82253448D02*
X122159379Y-81682020D01*
X122159379Y-81682020D02*
X122159379Y-82301067D01*
X121159379Y-83205829D02*
X121159379Y-82729639D01*
X121159379Y-82729639D02*
X121635569Y-82682020D01*
X121635569Y-82682020D02*
X121587950Y-82729639D01*
X121587950Y-82729639D02*
X121540331Y-82824877D01*
X121540331Y-82824877D02*
X121540331Y-83062972D01*
X121540331Y-83062972D02*
X121587950Y-83158210D01*
X121587950Y-83158210D02*
X121635569Y-83205829D01*
X121635569Y-83205829D02*
X121730807Y-83253448D01*
X121730807Y-83253448D02*
X121968902Y-83253448D01*
X121968902Y-83253448D02*
X122064140Y-83205829D01*
X122064140Y-83205829D02*
X122111760Y-83158210D01*
X122111760Y-83158210D02*
X122159379Y-83062972D01*
X122159379Y-83062972D02*
X122159379Y-82824877D01*
X122159379Y-82824877D02*
X122111760Y-82729639D01*
X122111760Y-82729639D02*
X122064140Y-82682020D01*
X122159379Y-83729639D02*
X122159379Y-83920115D01*
X122159379Y-83920115D02*
X122111760Y-84015353D01*
X122111760Y-84015353D02*
X122064140Y-84062972D01*
X122064140Y-84062972D02*
X121921283Y-84158210D01*
X121921283Y-84158210D02*
X121730807Y-84205829D01*
X121730807Y-84205829D02*
X121349855Y-84205829D01*
X121349855Y-84205829D02*
X121254617Y-84158210D01*
X121254617Y-84158210D02*
X121206998Y-84110591D01*
X121206998Y-84110591D02*
X121159379Y-84015353D01*
X121159379Y-84015353D02*
X121159379Y-83824877D01*
X121159379Y-83824877D02*
X121206998Y-83729639D01*
X121206998Y-83729639D02*
X121254617Y-83682020D01*
X121254617Y-83682020D02*
X121349855Y-83634401D01*
X121349855Y-83634401D02*
X121587950Y-83634401D01*
X121587950Y-83634401D02*
X121683188Y-83682020D01*
X121683188Y-83682020D02*
X121730807Y-83729639D01*
X121730807Y-83729639D02*
X121778426Y-83824877D01*
X121778426Y-83824877D02*
X121778426Y-84015353D01*
X121778426Y-84015353D02*
X121730807Y-84110591D01*
X121730807Y-84110591D02*
X121683188Y-84158210D01*
X121683188Y-84158210D02*
X121587950Y-84205829D01*
X121159379Y-85062972D02*
X121159379Y-84872496D01*
X121159379Y-84872496D02*
X121206998Y-84777258D01*
X121206998Y-84777258D02*
X121254617Y-84729639D01*
X121254617Y-84729639D02*
X121397474Y-84634401D01*
X121397474Y-84634401D02*
X121587950Y-84586782D01*
X121587950Y-84586782D02*
X121968902Y-84586782D01*
X121968902Y-84586782D02*
X122064140Y-84634401D01*
X122064140Y-84634401D02*
X122111760Y-84682020D01*
X122111760Y-84682020D02*
X122159379Y-84777258D01*
X122159379Y-84777258D02*
X122159379Y-84967734D01*
X122159379Y-84967734D02*
X122111760Y-85062972D01*
X122111760Y-85062972D02*
X122064140Y-85110591D01*
X122064140Y-85110591D02*
X121968902Y-85158210D01*
X121968902Y-85158210D02*
X121730807Y-85158210D01*
X121730807Y-85158210D02*
X121635569Y-85110591D01*
X121635569Y-85110591D02*
X121587950Y-85062972D01*
X121587950Y-85062972D02*
X121540331Y-84967734D01*
X121540331Y-84967734D02*
X121540331Y-84777258D01*
X121540331Y-84777258D02*
X121587950Y-84682020D01*
X121587950Y-84682020D02*
X121635569Y-84634401D01*
X121635569Y-84634401D02*
X121730807Y-84586782D01*
X121635569Y-86682020D02*
X121683188Y-86824877D01*
X121683188Y-86824877D02*
X121730807Y-86872496D01*
X121730807Y-86872496D02*
X121826045Y-86920115D01*
X121826045Y-86920115D02*
X121968902Y-86920115D01*
X121968902Y-86920115D02*
X122064140Y-86872496D01*
X122064140Y-86872496D02*
X122111760Y-86824877D01*
X122111760Y-86824877D02*
X122159379Y-86729639D01*
X122159379Y-86729639D02*
X122159379Y-86348687D01*
X122159379Y-86348687D02*
X121159379Y-86348687D01*
X121159379Y-86348687D02*
X121159379Y-86682020D01*
X121159379Y-86682020D02*
X121206998Y-86777258D01*
X121206998Y-86777258D02*
X121254617Y-86824877D01*
X121254617Y-86824877D02*
X121349855Y-86872496D01*
X121349855Y-86872496D02*
X121445093Y-86872496D01*
X121445093Y-86872496D02*
X121540331Y-86824877D01*
X121540331Y-86824877D02*
X121587950Y-86777258D01*
X121587950Y-86777258D02*
X121635569Y-86682020D01*
X121635569Y-86682020D02*
X121635569Y-86348687D01*
X121492712Y-87777258D02*
X122159379Y-87777258D01*
X121492712Y-87348687D02*
X122016521Y-87348687D01*
X122016521Y-87348687D02*
X122111760Y-87396306D01*
X122111760Y-87396306D02*
X122159379Y-87491544D01*
X122159379Y-87491544D02*
X122159379Y-87634401D01*
X122159379Y-87634401D02*
X122111760Y-87729639D01*
X122111760Y-87729639D02*
X122064140Y-87777258D01*
X122111760Y-88682020D02*
X122159379Y-88586782D01*
X122159379Y-88586782D02*
X122159379Y-88396306D01*
X122159379Y-88396306D02*
X122111760Y-88301068D01*
X122111760Y-88301068D02*
X122064140Y-88253449D01*
X122064140Y-88253449D02*
X121968902Y-88205830D01*
X121968902Y-88205830D02*
X121683188Y-88205830D01*
X121683188Y-88205830D02*
X121587950Y-88253449D01*
X121587950Y-88253449D02*
X121540331Y-88301068D01*
X121540331Y-88301068D02*
X121492712Y-88396306D01*
X121492712Y-88396306D02*
X121492712Y-88586782D01*
X121492712Y-88586782D02*
X121540331Y-88682020D01*
X122159379Y-89110592D02*
X121159379Y-89110592D01*
X121778426Y-89205830D02*
X122159379Y-89491544D01*
X121492712Y-89491544D02*
X121873664Y-89110592D01*
X173976666Y-84574819D02*
X174309999Y-84098628D01*
X174548094Y-84574819D02*
X174548094Y-83574819D01*
X174548094Y-83574819D02*
X174167142Y-83574819D01*
X174167142Y-83574819D02*
X174071904Y-83622438D01*
X174071904Y-83622438D02*
X174024285Y-83670057D01*
X174024285Y-83670057D02*
X173976666Y-83765295D01*
X173976666Y-83765295D02*
X173976666Y-83908152D01*
X173976666Y-83908152D02*
X174024285Y-84003390D01*
X174024285Y-84003390D02*
X174071904Y-84051009D01*
X174071904Y-84051009D02*
X174167142Y-84098628D01*
X174167142Y-84098628D02*
X174548094Y-84098628D01*
X173071904Y-83574819D02*
X173548094Y-83574819D01*
X173548094Y-83574819D02*
X173595713Y-84051009D01*
X173595713Y-84051009D02*
X173548094Y-84003390D01*
X173548094Y-84003390D02*
X173452856Y-83955771D01*
X173452856Y-83955771D02*
X173214761Y-83955771D01*
X173214761Y-83955771D02*
X173119523Y-84003390D01*
X173119523Y-84003390D02*
X173071904Y-84051009D01*
X173071904Y-84051009D02*
X173024285Y-84146247D01*
X173024285Y-84146247D02*
X173024285Y-84384342D01*
X173024285Y-84384342D02*
X173071904Y-84479580D01*
X173071904Y-84479580D02*
X173119523Y-84527200D01*
X173119523Y-84527200D02*
X173214761Y-84574819D01*
X173214761Y-84574819D02*
X173452856Y-84574819D01*
X173452856Y-84574819D02*
X173548094Y-84527200D01*
X173548094Y-84527200D02*
X173595713Y-84479580D01*
X89171666Y-122224819D02*
X89504999Y-121748628D01*
X89743094Y-122224819D02*
X89743094Y-121224819D01*
X89743094Y-121224819D02*
X89362142Y-121224819D01*
X89362142Y-121224819D02*
X89266904Y-121272438D01*
X89266904Y-121272438D02*
X89219285Y-121320057D01*
X89219285Y-121320057D02*
X89171666Y-121415295D01*
X89171666Y-121415295D02*
X89171666Y-121558152D01*
X89171666Y-121558152D02*
X89219285Y-121653390D01*
X89219285Y-121653390D02*
X89266904Y-121701009D01*
X89266904Y-121701009D02*
X89362142Y-121748628D01*
X89362142Y-121748628D02*
X89743094Y-121748628D01*
X88838332Y-121224819D02*
X88219285Y-121224819D01*
X88219285Y-121224819D02*
X88552618Y-121605771D01*
X88552618Y-121605771D02*
X88409761Y-121605771D01*
X88409761Y-121605771D02*
X88314523Y-121653390D01*
X88314523Y-121653390D02*
X88266904Y-121701009D01*
X88266904Y-121701009D02*
X88219285Y-121796247D01*
X88219285Y-121796247D02*
X88219285Y-122034342D01*
X88219285Y-122034342D02*
X88266904Y-122129580D01*
X88266904Y-122129580D02*
X88314523Y-122177200D01*
X88314523Y-122177200D02*
X88409761Y-122224819D01*
X88409761Y-122224819D02*
X88695475Y-122224819D01*
X88695475Y-122224819D02*
X88790713Y-122177200D01*
X88790713Y-122177200D02*
X88838332Y-122129580D01*
X221562857Y-63049580D02*
X221610476Y-63097200D01*
X221610476Y-63097200D02*
X221753333Y-63144819D01*
X221753333Y-63144819D02*
X221848571Y-63144819D01*
X221848571Y-63144819D02*
X221991428Y-63097200D01*
X221991428Y-63097200D02*
X222086666Y-63001961D01*
X222086666Y-63001961D02*
X222134285Y-62906723D01*
X222134285Y-62906723D02*
X222181904Y-62716247D01*
X222181904Y-62716247D02*
X222181904Y-62573390D01*
X222181904Y-62573390D02*
X222134285Y-62382914D01*
X222134285Y-62382914D02*
X222086666Y-62287676D01*
X222086666Y-62287676D02*
X221991428Y-62192438D01*
X221991428Y-62192438D02*
X221848571Y-62144819D01*
X221848571Y-62144819D02*
X221753333Y-62144819D01*
X221753333Y-62144819D02*
X221610476Y-62192438D01*
X221610476Y-62192438D02*
X221562857Y-62240057D01*
X220610476Y-63144819D02*
X221181904Y-63144819D01*
X220896190Y-63144819D02*
X220896190Y-62144819D01*
X220896190Y-62144819D02*
X220991428Y-62287676D01*
X220991428Y-62287676D02*
X221086666Y-62382914D01*
X221086666Y-62382914D02*
X221181904Y-62430533D01*
X219705714Y-62144819D02*
X220181904Y-62144819D01*
X220181904Y-62144819D02*
X220229523Y-62621009D01*
X220229523Y-62621009D02*
X220181904Y-62573390D01*
X220181904Y-62573390D02*
X220086666Y-62525771D01*
X220086666Y-62525771D02*
X219848571Y-62525771D01*
X219848571Y-62525771D02*
X219753333Y-62573390D01*
X219753333Y-62573390D02*
X219705714Y-62621009D01*
X219705714Y-62621009D02*
X219658095Y-62716247D01*
X219658095Y-62716247D02*
X219658095Y-62954342D01*
X219658095Y-62954342D02*
X219705714Y-63049580D01*
X219705714Y-63049580D02*
X219753333Y-63097200D01*
X219753333Y-63097200D02*
X219848571Y-63144819D01*
X219848571Y-63144819D02*
X220086666Y-63144819D01*
X220086666Y-63144819D02*
X220181904Y-63097200D01*
X220181904Y-63097200D02*
X220229523Y-63049580D01*
X251499523Y-91994819D02*
X251499523Y-92709104D01*
X251499523Y-92709104D02*
X251547142Y-92851961D01*
X251547142Y-92851961D02*
X251642380Y-92947200D01*
X251642380Y-92947200D02*
X251785237Y-92994819D01*
X251785237Y-92994819D02*
X251880475Y-92994819D01*
X250499523Y-92994819D02*
X251070951Y-92994819D01*
X250785237Y-92994819D02*
X250785237Y-91994819D01*
X250785237Y-91994819D02*
X250880475Y-92137676D01*
X250880475Y-92137676D02*
X250975713Y-92232914D01*
X250975713Y-92232914D02*
X251070951Y-92280533D01*
X249880475Y-91994819D02*
X249785237Y-91994819D01*
X249785237Y-91994819D02*
X249689999Y-92042438D01*
X249689999Y-92042438D02*
X249642380Y-92090057D01*
X249642380Y-92090057D02*
X249594761Y-92185295D01*
X249594761Y-92185295D02*
X249547142Y-92375771D01*
X249547142Y-92375771D02*
X249547142Y-92613866D01*
X249547142Y-92613866D02*
X249594761Y-92804342D01*
X249594761Y-92804342D02*
X249642380Y-92899580D01*
X249642380Y-92899580D02*
X249689999Y-92947200D01*
X249689999Y-92947200D02*
X249785237Y-92994819D01*
X249785237Y-92994819D02*
X249880475Y-92994819D01*
X249880475Y-92994819D02*
X249975713Y-92947200D01*
X249975713Y-92947200D02*
X250023332Y-92899580D01*
X250023332Y-92899580D02*
X250070951Y-92804342D01*
X250070951Y-92804342D02*
X250118570Y-92613866D01*
X250118570Y-92613866D02*
X250118570Y-92375771D01*
X250118570Y-92375771D02*
X250070951Y-92185295D01*
X250070951Y-92185295D02*
X250023332Y-92090057D01*
X250023332Y-92090057D02*
X249975713Y-92042438D01*
X249975713Y-92042438D02*
X249880475Y-91994819D01*
X177195238Y-64230057D02*
X177290476Y-64182438D01*
X177290476Y-64182438D02*
X177385714Y-64087200D01*
X177385714Y-64087200D02*
X177528571Y-63944342D01*
X177528571Y-63944342D02*
X177623809Y-63896723D01*
X177623809Y-63896723D02*
X177719047Y-63896723D01*
X177671428Y-64134819D02*
X177766666Y-64087200D01*
X177766666Y-64087200D02*
X177861904Y-63991961D01*
X177861904Y-63991961D02*
X177909523Y-63801485D01*
X177909523Y-63801485D02*
X177909523Y-63468152D01*
X177909523Y-63468152D02*
X177861904Y-63277676D01*
X177861904Y-63277676D02*
X177766666Y-63182438D01*
X177766666Y-63182438D02*
X177671428Y-63134819D01*
X177671428Y-63134819D02*
X177480952Y-63134819D01*
X177480952Y-63134819D02*
X177385714Y-63182438D01*
X177385714Y-63182438D02*
X177290476Y-63277676D01*
X177290476Y-63277676D02*
X177242857Y-63468152D01*
X177242857Y-63468152D02*
X177242857Y-63801485D01*
X177242857Y-63801485D02*
X177290476Y-63991961D01*
X177290476Y-63991961D02*
X177385714Y-64087200D01*
X177385714Y-64087200D02*
X177480952Y-64134819D01*
X177480952Y-64134819D02*
X177671428Y-64134819D01*
X176385714Y-63468152D02*
X176385714Y-64134819D01*
X176623809Y-63087200D02*
X176861904Y-63801485D01*
X176861904Y-63801485D02*
X176242857Y-63801485D01*
X215562963Y-111146174D02*
X216135382Y-111045159D01*
X215967024Y-111550235D02*
X216674130Y-110843128D01*
X216674130Y-110843128D02*
X216404756Y-110573754D01*
X216404756Y-110573754D02*
X216303741Y-110540082D01*
X216303741Y-110540082D02*
X216236398Y-110540082D01*
X216236398Y-110540082D02*
X216135382Y-110573754D01*
X216135382Y-110573754D02*
X216034367Y-110674769D01*
X216034367Y-110674769D02*
X216000695Y-110775785D01*
X216000695Y-110775785D02*
X216000695Y-110843128D01*
X216000695Y-110843128D02*
X216034367Y-110944143D01*
X216034367Y-110944143D02*
X216303741Y-111213517D01*
X215933352Y-110237037D02*
X215933352Y-110169693D01*
X215933352Y-110169693D02*
X215899680Y-110068678D01*
X215899680Y-110068678D02*
X215731321Y-109900319D01*
X215731321Y-109900319D02*
X215630306Y-109866647D01*
X215630306Y-109866647D02*
X215562963Y-109866647D01*
X215562963Y-109866647D02*
X215461947Y-109900319D01*
X215461947Y-109900319D02*
X215394604Y-109967663D01*
X215394604Y-109967663D02*
X215327260Y-110102350D01*
X215327260Y-110102350D02*
X215327260Y-110910472D01*
X215327260Y-110910472D02*
X214889528Y-110472739D01*
X214216092Y-109799304D02*
X214620153Y-110203365D01*
X214418123Y-110001334D02*
X215125230Y-109294227D01*
X215125230Y-109294227D02*
X215091558Y-109462586D01*
X215091558Y-109462586D02*
X215091558Y-109597273D01*
X215091558Y-109597273D02*
X215125230Y-109698288D01*
X173836666Y-83054819D02*
X174169999Y-82578628D01*
X174408094Y-83054819D02*
X174408094Y-82054819D01*
X174408094Y-82054819D02*
X174027142Y-82054819D01*
X174027142Y-82054819D02*
X173931904Y-82102438D01*
X173931904Y-82102438D02*
X173884285Y-82150057D01*
X173884285Y-82150057D02*
X173836666Y-82245295D01*
X173836666Y-82245295D02*
X173836666Y-82388152D01*
X173836666Y-82388152D02*
X173884285Y-82483390D01*
X173884285Y-82483390D02*
X173931904Y-82531009D01*
X173931904Y-82531009D02*
X174027142Y-82578628D01*
X174027142Y-82578628D02*
X174408094Y-82578628D01*
X173455713Y-82150057D02*
X173408094Y-82102438D01*
X173408094Y-82102438D02*
X173312856Y-82054819D01*
X173312856Y-82054819D02*
X173074761Y-82054819D01*
X173074761Y-82054819D02*
X172979523Y-82102438D01*
X172979523Y-82102438D02*
X172931904Y-82150057D01*
X172931904Y-82150057D02*
X172884285Y-82245295D01*
X172884285Y-82245295D02*
X172884285Y-82340533D01*
X172884285Y-82340533D02*
X172931904Y-82483390D01*
X172931904Y-82483390D02*
X173503332Y-83054819D01*
X173503332Y-83054819D02*
X172884285Y-83054819D01*
X216642963Y-110176174D02*
X217215382Y-110075159D01*
X217047024Y-110580235D02*
X217754130Y-109873128D01*
X217754130Y-109873128D02*
X217484756Y-109603754D01*
X217484756Y-109603754D02*
X217383741Y-109570082D01*
X217383741Y-109570082D02*
X217316398Y-109570082D01*
X217316398Y-109570082D02*
X217215382Y-109603754D01*
X217215382Y-109603754D02*
X217114367Y-109704769D01*
X217114367Y-109704769D02*
X217080695Y-109805785D01*
X217080695Y-109805785D02*
X217080695Y-109873128D01*
X217080695Y-109873128D02*
X217114367Y-109974143D01*
X217114367Y-109974143D02*
X217383741Y-110243517D01*
X217013352Y-109267037D02*
X217013352Y-109199693D01*
X217013352Y-109199693D02*
X216979680Y-109098678D01*
X216979680Y-109098678D02*
X216811321Y-108930319D01*
X216811321Y-108930319D02*
X216710306Y-108896647D01*
X216710306Y-108896647D02*
X216642963Y-108896647D01*
X216642963Y-108896647D02*
X216541947Y-108930319D01*
X216541947Y-108930319D02*
X216474604Y-108997663D01*
X216474604Y-108997663D02*
X216407260Y-109132350D01*
X216407260Y-109132350D02*
X216407260Y-109940472D01*
X216407260Y-109940472D02*
X215969528Y-109502739D01*
X216238901Y-108357899D02*
X216171558Y-108290556D01*
X216171558Y-108290556D02*
X216070543Y-108256884D01*
X216070543Y-108256884D02*
X216003199Y-108256884D01*
X216003199Y-108256884D02*
X215902184Y-108290556D01*
X215902184Y-108290556D02*
X215733825Y-108391571D01*
X215733825Y-108391571D02*
X215565466Y-108559930D01*
X215565466Y-108559930D02*
X215464451Y-108728288D01*
X215464451Y-108728288D02*
X215430779Y-108829304D01*
X215430779Y-108829304D02*
X215430779Y-108896647D01*
X215430779Y-108896647D02*
X215464451Y-108997662D01*
X215464451Y-108997662D02*
X215531795Y-109065006D01*
X215531795Y-109065006D02*
X215632810Y-109098678D01*
X215632810Y-109098678D02*
X215700153Y-109098678D01*
X215700153Y-109098678D02*
X215801169Y-109065006D01*
X215801169Y-109065006D02*
X215969527Y-108963991D01*
X215969527Y-108963991D02*
X216137886Y-108795632D01*
X216137886Y-108795632D02*
X216238901Y-108627273D01*
X216238901Y-108627273D02*
X216272573Y-108526258D01*
X216272573Y-108526258D02*
X216272573Y-108458914D01*
X216272573Y-108458914D02*
X216238901Y-108357899D01*
X181634819Y-62266666D02*
X182349104Y-62266666D01*
X182349104Y-62266666D02*
X182491961Y-62219047D01*
X182491961Y-62219047D02*
X182587200Y-62123809D01*
X182587200Y-62123809D02*
X182634819Y-61980952D01*
X182634819Y-61980952D02*
X182634819Y-61885714D01*
X181634819Y-63171428D02*
X181634819Y-62980952D01*
X181634819Y-62980952D02*
X181682438Y-62885714D01*
X181682438Y-62885714D02*
X181730057Y-62838095D01*
X181730057Y-62838095D02*
X181872914Y-62742857D01*
X181872914Y-62742857D02*
X182063390Y-62695238D01*
X182063390Y-62695238D02*
X182444342Y-62695238D01*
X182444342Y-62695238D02*
X182539580Y-62742857D01*
X182539580Y-62742857D02*
X182587200Y-62790476D01*
X182587200Y-62790476D02*
X182634819Y-62885714D01*
X182634819Y-62885714D02*
X182634819Y-63076190D01*
X182634819Y-63076190D02*
X182587200Y-63171428D01*
X182587200Y-63171428D02*
X182539580Y-63219047D01*
X182539580Y-63219047D02*
X182444342Y-63266666D01*
X182444342Y-63266666D02*
X182206247Y-63266666D01*
X182206247Y-63266666D02*
X182111009Y-63219047D01*
X182111009Y-63219047D02*
X182063390Y-63171428D01*
X182063390Y-63171428D02*
X182015771Y-63076190D01*
X182015771Y-63076190D02*
X182015771Y-62885714D01*
X182015771Y-62885714D02*
X182063390Y-62790476D01*
X182063390Y-62790476D02*
X182111009Y-62742857D01*
X182111009Y-62742857D02*
X182206247Y-62695238D01*
X158302857Y-84614819D02*
X158636190Y-84138628D01*
X158874285Y-84614819D02*
X158874285Y-83614819D01*
X158874285Y-83614819D02*
X158493333Y-83614819D01*
X158493333Y-83614819D02*
X158398095Y-83662438D01*
X158398095Y-83662438D02*
X158350476Y-83710057D01*
X158350476Y-83710057D02*
X158302857Y-83805295D01*
X158302857Y-83805295D02*
X158302857Y-83948152D01*
X158302857Y-83948152D02*
X158350476Y-84043390D01*
X158350476Y-84043390D02*
X158398095Y-84091009D01*
X158398095Y-84091009D02*
X158493333Y-84138628D01*
X158493333Y-84138628D02*
X158874285Y-84138628D01*
X157350476Y-84614819D02*
X157921904Y-84614819D01*
X157636190Y-84614819D02*
X157636190Y-83614819D01*
X157636190Y-83614819D02*
X157731428Y-83757676D01*
X157731428Y-83757676D02*
X157826666Y-83852914D01*
X157826666Y-83852914D02*
X157921904Y-83900533D01*
X156445714Y-83614819D02*
X156921904Y-83614819D01*
X156921904Y-83614819D02*
X156969523Y-84091009D01*
X156969523Y-84091009D02*
X156921904Y-84043390D01*
X156921904Y-84043390D02*
X156826666Y-83995771D01*
X156826666Y-83995771D02*
X156588571Y-83995771D01*
X156588571Y-83995771D02*
X156493333Y-84043390D01*
X156493333Y-84043390D02*
X156445714Y-84091009D01*
X156445714Y-84091009D02*
X156398095Y-84186247D01*
X156398095Y-84186247D02*
X156398095Y-84424342D01*
X156398095Y-84424342D02*
X156445714Y-84519580D01*
X156445714Y-84519580D02*
X156493333Y-84567200D01*
X156493333Y-84567200D02*
X156588571Y-84614819D01*
X156588571Y-84614819D02*
X156826666Y-84614819D01*
X156826666Y-84614819D02*
X156921904Y-84567200D01*
X156921904Y-84567200D02*
X156969523Y-84519580D01*
X142486666Y-83064819D02*
X142819999Y-82588628D01*
X143058094Y-83064819D02*
X143058094Y-82064819D01*
X143058094Y-82064819D02*
X142677142Y-82064819D01*
X142677142Y-82064819D02*
X142581904Y-82112438D01*
X142581904Y-82112438D02*
X142534285Y-82160057D01*
X142534285Y-82160057D02*
X142486666Y-82255295D01*
X142486666Y-82255295D02*
X142486666Y-82398152D01*
X142486666Y-82398152D02*
X142534285Y-82493390D01*
X142534285Y-82493390D02*
X142581904Y-82541009D01*
X142581904Y-82541009D02*
X142677142Y-82588628D01*
X142677142Y-82588628D02*
X143058094Y-82588628D01*
X141629523Y-82064819D02*
X141819999Y-82064819D01*
X141819999Y-82064819D02*
X141915237Y-82112438D01*
X141915237Y-82112438D02*
X141962856Y-82160057D01*
X141962856Y-82160057D02*
X142058094Y-82302914D01*
X142058094Y-82302914D02*
X142105713Y-82493390D01*
X142105713Y-82493390D02*
X142105713Y-82874342D01*
X142105713Y-82874342D02*
X142058094Y-82969580D01*
X142058094Y-82969580D02*
X142010475Y-83017200D01*
X142010475Y-83017200D02*
X141915237Y-83064819D01*
X141915237Y-83064819D02*
X141724761Y-83064819D01*
X141724761Y-83064819D02*
X141629523Y-83017200D01*
X141629523Y-83017200D02*
X141581904Y-82969580D01*
X141581904Y-82969580D02*
X141534285Y-82874342D01*
X141534285Y-82874342D02*
X141534285Y-82636247D01*
X141534285Y-82636247D02*
X141581904Y-82541009D01*
X141581904Y-82541009D02*
X141629523Y-82493390D01*
X141629523Y-82493390D02*
X141724761Y-82445771D01*
X141724761Y-82445771D02*
X141915237Y-82445771D01*
X141915237Y-82445771D02*
X142010475Y-82493390D01*
X142010475Y-82493390D02*
X142058094Y-82541009D01*
X142058094Y-82541009D02*
X142105713Y-82636247D01*
X123009819Y-118623333D02*
X122533628Y-118290000D01*
X123009819Y-118051905D02*
X122009819Y-118051905D01*
X122009819Y-118051905D02*
X122009819Y-118432857D01*
X122009819Y-118432857D02*
X122057438Y-118528095D01*
X122057438Y-118528095D02*
X122105057Y-118575714D01*
X122105057Y-118575714D02*
X122200295Y-118623333D01*
X122200295Y-118623333D02*
X122343152Y-118623333D01*
X122343152Y-118623333D02*
X122438390Y-118575714D01*
X122438390Y-118575714D02*
X122486009Y-118528095D01*
X122486009Y-118528095D02*
X122533628Y-118432857D01*
X122533628Y-118432857D02*
X122533628Y-118051905D01*
X122438390Y-119194762D02*
X122390771Y-119099524D01*
X122390771Y-119099524D02*
X122343152Y-119051905D01*
X122343152Y-119051905D02*
X122247914Y-119004286D01*
X122247914Y-119004286D02*
X122200295Y-119004286D01*
X122200295Y-119004286D02*
X122105057Y-119051905D01*
X122105057Y-119051905D02*
X122057438Y-119099524D01*
X122057438Y-119099524D02*
X122009819Y-119194762D01*
X122009819Y-119194762D02*
X122009819Y-119385238D01*
X122009819Y-119385238D02*
X122057438Y-119480476D01*
X122057438Y-119480476D02*
X122105057Y-119528095D01*
X122105057Y-119528095D02*
X122200295Y-119575714D01*
X122200295Y-119575714D02*
X122247914Y-119575714D01*
X122247914Y-119575714D02*
X122343152Y-119528095D01*
X122343152Y-119528095D02*
X122390771Y-119480476D01*
X122390771Y-119480476D02*
X122438390Y-119385238D01*
X122438390Y-119385238D02*
X122438390Y-119194762D01*
X122438390Y-119194762D02*
X122486009Y-119099524D01*
X122486009Y-119099524D02*
X122533628Y-119051905D01*
X122533628Y-119051905D02*
X122628866Y-119004286D01*
X122628866Y-119004286D02*
X122819342Y-119004286D01*
X122819342Y-119004286D02*
X122914580Y-119051905D01*
X122914580Y-119051905D02*
X122962200Y-119099524D01*
X122962200Y-119099524D02*
X123009819Y-119194762D01*
X123009819Y-119194762D02*
X123009819Y-119385238D01*
X123009819Y-119385238D02*
X122962200Y-119480476D01*
X122962200Y-119480476D02*
X122914580Y-119528095D01*
X122914580Y-119528095D02*
X122819342Y-119575714D01*
X122819342Y-119575714D02*
X122628866Y-119575714D01*
X122628866Y-119575714D02*
X122533628Y-119528095D01*
X122533628Y-119528095D02*
X122486009Y-119480476D01*
X122486009Y-119480476D02*
X122438390Y-119385238D01*
X125944819Y-117537142D02*
X125468628Y-117203809D01*
X125944819Y-116965714D02*
X124944819Y-116965714D01*
X124944819Y-116965714D02*
X124944819Y-117346666D01*
X124944819Y-117346666D02*
X124992438Y-117441904D01*
X124992438Y-117441904D02*
X125040057Y-117489523D01*
X125040057Y-117489523D02*
X125135295Y-117537142D01*
X125135295Y-117537142D02*
X125278152Y-117537142D01*
X125278152Y-117537142D02*
X125373390Y-117489523D01*
X125373390Y-117489523D02*
X125421009Y-117441904D01*
X125421009Y-117441904D02*
X125468628Y-117346666D01*
X125468628Y-117346666D02*
X125468628Y-116965714D01*
X125944819Y-118489523D02*
X125944819Y-117918095D01*
X125944819Y-118203809D02*
X124944819Y-118203809D01*
X124944819Y-118203809D02*
X125087676Y-118108571D01*
X125087676Y-118108571D02*
X125182914Y-118013333D01*
X125182914Y-118013333D02*
X125230533Y-117918095D01*
X124944819Y-118822857D02*
X124944819Y-119441904D01*
X124944819Y-119441904D02*
X125325771Y-119108571D01*
X125325771Y-119108571D02*
X125325771Y-119251428D01*
X125325771Y-119251428D02*
X125373390Y-119346666D01*
X125373390Y-119346666D02*
X125421009Y-119394285D01*
X125421009Y-119394285D02*
X125516247Y-119441904D01*
X125516247Y-119441904D02*
X125754342Y-119441904D01*
X125754342Y-119441904D02*
X125849580Y-119394285D01*
X125849580Y-119394285D02*
X125897200Y-119346666D01*
X125897200Y-119346666D02*
X125944819Y-119251428D01*
X125944819Y-119251428D02*
X125944819Y-118965714D01*
X125944819Y-118965714D02*
X125897200Y-118870476D01*
X125897200Y-118870476D02*
X125849580Y-118822857D01*
X124454819Y-117497142D02*
X123978628Y-117163809D01*
X124454819Y-116925714D02*
X123454819Y-116925714D01*
X123454819Y-116925714D02*
X123454819Y-117306666D01*
X123454819Y-117306666D02*
X123502438Y-117401904D01*
X123502438Y-117401904D02*
X123550057Y-117449523D01*
X123550057Y-117449523D02*
X123645295Y-117497142D01*
X123645295Y-117497142D02*
X123788152Y-117497142D01*
X123788152Y-117497142D02*
X123883390Y-117449523D01*
X123883390Y-117449523D02*
X123931009Y-117401904D01*
X123931009Y-117401904D02*
X123978628Y-117306666D01*
X123978628Y-117306666D02*
X123978628Y-116925714D01*
X124454819Y-118449523D02*
X124454819Y-117878095D01*
X124454819Y-118163809D02*
X123454819Y-118163809D01*
X123454819Y-118163809D02*
X123597676Y-118068571D01*
X123597676Y-118068571D02*
X123692914Y-117973333D01*
X123692914Y-117973333D02*
X123740533Y-117878095D01*
X123454819Y-119068571D02*
X123454819Y-119163809D01*
X123454819Y-119163809D02*
X123502438Y-119259047D01*
X123502438Y-119259047D02*
X123550057Y-119306666D01*
X123550057Y-119306666D02*
X123645295Y-119354285D01*
X123645295Y-119354285D02*
X123835771Y-119401904D01*
X123835771Y-119401904D02*
X124073866Y-119401904D01*
X124073866Y-119401904D02*
X124264342Y-119354285D01*
X124264342Y-119354285D02*
X124359580Y-119306666D01*
X124359580Y-119306666D02*
X124407200Y-119259047D01*
X124407200Y-119259047D02*
X124454819Y-119163809D01*
X124454819Y-119163809D02*
X124454819Y-119068571D01*
X124454819Y-119068571D02*
X124407200Y-118973333D01*
X124407200Y-118973333D02*
X124359580Y-118925714D01*
X124359580Y-118925714D02*
X124264342Y-118878095D01*
X124264342Y-118878095D02*
X124073866Y-118830476D01*
X124073866Y-118830476D02*
X123835771Y-118830476D01*
X123835771Y-118830476D02*
X123645295Y-118878095D01*
X123645295Y-118878095D02*
X123550057Y-118925714D01*
X123550057Y-118925714D02*
X123502438Y-118973333D01*
X123502438Y-118973333D02*
X123454819Y-119068571D01*
X96529820Y-120943333D02*
X96053629Y-120610000D01*
X96529820Y-120371905D02*
X95529820Y-120371905D01*
X95529820Y-120371905D02*
X95529820Y-120752857D01*
X95529820Y-120752857D02*
X95577439Y-120848095D01*
X95577439Y-120848095D02*
X95625058Y-120895714D01*
X95625058Y-120895714D02*
X95720296Y-120943333D01*
X95720296Y-120943333D02*
X95863153Y-120943333D01*
X95863153Y-120943333D02*
X95958391Y-120895714D01*
X95958391Y-120895714D02*
X96006010Y-120848095D01*
X96006010Y-120848095D02*
X96053629Y-120752857D01*
X96053629Y-120752857D02*
X96053629Y-120371905D01*
X95863153Y-121800476D02*
X96529820Y-121800476D01*
X95482201Y-121562381D02*
X96196486Y-121324286D01*
X96196486Y-121324286D02*
X96196486Y-121943333D01*
X186559523Y-87359819D02*
X186559523Y-88074104D01*
X186559523Y-88074104D02*
X186607142Y-88216961D01*
X186607142Y-88216961D02*
X186702380Y-88312200D01*
X186702380Y-88312200D02*
X186845237Y-88359819D01*
X186845237Y-88359819D02*
X186940475Y-88359819D01*
X185559523Y-88359819D02*
X186130951Y-88359819D01*
X185845237Y-88359819D02*
X185845237Y-87359819D01*
X185845237Y-87359819D02*
X185940475Y-87502676D01*
X185940475Y-87502676D02*
X186035713Y-87597914D01*
X186035713Y-87597914D02*
X186130951Y-87645533D01*
X185178570Y-87455057D02*
X185130951Y-87407438D01*
X185130951Y-87407438D02*
X185035713Y-87359819D01*
X185035713Y-87359819D02*
X184797618Y-87359819D01*
X184797618Y-87359819D02*
X184702380Y-87407438D01*
X184702380Y-87407438D02*
X184654761Y-87455057D01*
X184654761Y-87455057D02*
X184607142Y-87550295D01*
X184607142Y-87550295D02*
X184607142Y-87645533D01*
X184607142Y-87645533D02*
X184654761Y-87788390D01*
X184654761Y-87788390D02*
X185226189Y-88359819D01*
X185226189Y-88359819D02*
X184607142Y-88359819D01*
X204753923Y-106300419D02*
X204420590Y-107300419D01*
X204420590Y-107300419D02*
X204087257Y-106300419D01*
X203182495Y-107300419D02*
X203515828Y-106824228D01*
X203753923Y-107300419D02*
X203753923Y-106300419D01*
X203753923Y-106300419D02*
X203372971Y-106300419D01*
X203372971Y-106300419D02*
X203277733Y-106348038D01*
X203277733Y-106348038D02*
X203230114Y-106395657D01*
X203230114Y-106395657D02*
X203182495Y-106490895D01*
X203182495Y-106490895D02*
X203182495Y-106633752D01*
X203182495Y-106633752D02*
X203230114Y-106728990D01*
X203230114Y-106728990D02*
X203277733Y-106776609D01*
X203277733Y-106776609D02*
X203372971Y-106824228D01*
X203372971Y-106824228D02*
X203753923Y-106824228D01*
X202230114Y-107300419D02*
X202801542Y-107300419D01*
X202515828Y-107300419D02*
X202515828Y-106300419D01*
X202515828Y-106300419D02*
X202611066Y-106443276D01*
X202611066Y-106443276D02*
X202706304Y-106538514D01*
X202706304Y-106538514D02*
X202801542Y-106586133D01*
X197189447Y-61113819D02*
X196998971Y-61113819D01*
X196998971Y-61113819D02*
X196903733Y-61161438D01*
X196903733Y-61161438D02*
X196808495Y-61256676D01*
X196808495Y-61256676D02*
X196760876Y-61447152D01*
X196760876Y-61447152D02*
X196760876Y-61780485D01*
X196760876Y-61780485D02*
X196808495Y-61970961D01*
X196808495Y-61970961D02*
X196903733Y-62066200D01*
X196903733Y-62066200D02*
X196998971Y-62113819D01*
X196998971Y-62113819D02*
X197189447Y-62113819D01*
X197189447Y-62113819D02*
X197284685Y-62066200D01*
X197284685Y-62066200D02*
X197379923Y-61970961D01*
X197379923Y-61970961D02*
X197427542Y-61780485D01*
X197427542Y-61780485D02*
X197427542Y-61447152D01*
X197427542Y-61447152D02*
X197379923Y-61256676D01*
X197379923Y-61256676D02*
X197284685Y-61161438D01*
X197284685Y-61161438D02*
X197189447Y-61113819D01*
X196332304Y-61113819D02*
X196332304Y-61923342D01*
X196332304Y-61923342D02*
X196284685Y-62018580D01*
X196284685Y-62018580D02*
X196237066Y-62066200D01*
X196237066Y-62066200D02*
X196141828Y-62113819D01*
X196141828Y-62113819D02*
X195951352Y-62113819D01*
X195951352Y-62113819D02*
X195856114Y-62066200D01*
X195856114Y-62066200D02*
X195808495Y-62018580D01*
X195808495Y-62018580D02*
X195760876Y-61923342D01*
X195760876Y-61923342D02*
X195760876Y-61113819D01*
X195427542Y-61113819D02*
X194856114Y-61113819D01*
X195141828Y-62113819D02*
X195141828Y-61113819D01*
X194522780Y-61732866D02*
X193760876Y-61732866D01*
X192162856Y-104474819D02*
X192162856Y-103474819D01*
X191686666Y-104474819D02*
X191686666Y-103474819D01*
X191686666Y-103474819D02*
X191115238Y-104474819D01*
X191115238Y-104474819D02*
X191115238Y-103474819D01*
X190639047Y-104093866D02*
X189877143Y-104093866D01*
X213928047Y-61113819D02*
X213737571Y-61113819D01*
X213737571Y-61113819D02*
X213642333Y-61161438D01*
X213642333Y-61161438D02*
X213547095Y-61256676D01*
X213547095Y-61256676D02*
X213499476Y-61447152D01*
X213499476Y-61447152D02*
X213499476Y-61780485D01*
X213499476Y-61780485D02*
X213547095Y-61970961D01*
X213547095Y-61970961D02*
X213642333Y-62066200D01*
X213642333Y-62066200D02*
X213737571Y-62113819D01*
X213737571Y-62113819D02*
X213928047Y-62113819D01*
X213928047Y-62113819D02*
X214023285Y-62066200D01*
X214023285Y-62066200D02*
X214118523Y-61970961D01*
X214118523Y-61970961D02*
X214166142Y-61780485D01*
X214166142Y-61780485D02*
X214166142Y-61447152D01*
X214166142Y-61447152D02*
X214118523Y-61256676D01*
X214118523Y-61256676D02*
X214023285Y-61161438D01*
X214023285Y-61161438D02*
X213928047Y-61113819D01*
X213070904Y-61113819D02*
X213070904Y-61923342D01*
X213070904Y-61923342D02*
X213023285Y-62018580D01*
X213023285Y-62018580D02*
X212975666Y-62066200D01*
X212975666Y-62066200D02*
X212880428Y-62113819D01*
X212880428Y-62113819D02*
X212689952Y-62113819D01*
X212689952Y-62113819D02*
X212594714Y-62066200D01*
X212594714Y-62066200D02*
X212547095Y-62018580D01*
X212547095Y-62018580D02*
X212499476Y-61923342D01*
X212499476Y-61923342D02*
X212499476Y-61113819D01*
X212166142Y-61113819D02*
X211594714Y-61113819D01*
X211880428Y-62113819D02*
X211880428Y-61113819D01*
X211261380Y-61732866D02*
X210499476Y-61732866D01*
X210880428Y-62113819D02*
X210880428Y-61351914D01*
X207140259Y-79652265D02*
X207140259Y-79176075D01*
X207140259Y-79176075D02*
X206140259Y-79176075D01*
X207140259Y-79985599D02*
X206140259Y-79985599D01*
X206140259Y-79985599D02*
X206854544Y-80318932D01*
X206854544Y-80318932D02*
X206140259Y-80652265D01*
X206140259Y-80652265D02*
X207140259Y-80652265D01*
X206235497Y-81080837D02*
X206187878Y-81128456D01*
X206187878Y-81128456D02*
X206140259Y-81223694D01*
X206140259Y-81223694D02*
X206140259Y-81461789D01*
X206140259Y-81461789D02*
X206187878Y-81557027D01*
X206187878Y-81557027D02*
X206235497Y-81604646D01*
X206235497Y-81604646D02*
X206330735Y-81652265D01*
X206330735Y-81652265D02*
X206425973Y-81652265D01*
X206425973Y-81652265D02*
X206568830Y-81604646D01*
X206568830Y-81604646D02*
X207140259Y-81033218D01*
X207140259Y-81033218D02*
X207140259Y-81652265D01*
X206140259Y-82557027D02*
X206140259Y-82080837D01*
X206140259Y-82080837D02*
X206616449Y-82033218D01*
X206616449Y-82033218D02*
X206568830Y-82080837D01*
X206568830Y-82080837D02*
X206521211Y-82176075D01*
X206521211Y-82176075D02*
X206521211Y-82414170D01*
X206521211Y-82414170D02*
X206568830Y-82509408D01*
X206568830Y-82509408D02*
X206616449Y-82557027D01*
X206616449Y-82557027D02*
X206711687Y-82604646D01*
X206711687Y-82604646D02*
X206949782Y-82604646D01*
X206949782Y-82604646D02*
X207045020Y-82557027D01*
X207045020Y-82557027D02*
X207092640Y-82509408D01*
X207092640Y-82509408D02*
X207140259Y-82414170D01*
X207140259Y-82414170D02*
X207140259Y-82176075D01*
X207140259Y-82176075D02*
X207092640Y-82080837D01*
X207092640Y-82080837D02*
X207045020Y-82033218D01*
X207140259Y-83080837D02*
X207140259Y-83271313D01*
X207140259Y-83271313D02*
X207092640Y-83366551D01*
X207092640Y-83366551D02*
X207045020Y-83414170D01*
X207045020Y-83414170D02*
X206902163Y-83509408D01*
X206902163Y-83509408D02*
X206711687Y-83557027D01*
X206711687Y-83557027D02*
X206330735Y-83557027D01*
X206330735Y-83557027D02*
X206235497Y-83509408D01*
X206235497Y-83509408D02*
X206187878Y-83461789D01*
X206187878Y-83461789D02*
X206140259Y-83366551D01*
X206140259Y-83366551D02*
X206140259Y-83176075D01*
X206140259Y-83176075D02*
X206187878Y-83080837D01*
X206187878Y-83080837D02*
X206235497Y-83033218D01*
X206235497Y-83033218D02*
X206330735Y-82985599D01*
X206330735Y-82985599D02*
X206568830Y-82985599D01*
X206568830Y-82985599D02*
X206664068Y-83033218D01*
X206664068Y-83033218D02*
X206711687Y-83080837D01*
X206711687Y-83080837D02*
X206759306Y-83176075D01*
X206759306Y-83176075D02*
X206759306Y-83366551D01*
X206759306Y-83366551D02*
X206711687Y-83461789D01*
X206711687Y-83461789D02*
X206664068Y-83509408D01*
X206664068Y-83509408D02*
X206568830Y-83557027D01*
X206140259Y-84414170D02*
X206140259Y-84223694D01*
X206140259Y-84223694D02*
X206187878Y-84128456D01*
X206187878Y-84128456D02*
X206235497Y-84080837D01*
X206235497Y-84080837D02*
X206378354Y-83985599D01*
X206378354Y-83985599D02*
X206568830Y-83937980D01*
X206568830Y-83937980D02*
X206949782Y-83937980D01*
X206949782Y-83937980D02*
X207045020Y-83985599D01*
X207045020Y-83985599D02*
X207092640Y-84033218D01*
X207092640Y-84033218D02*
X207140259Y-84128456D01*
X207140259Y-84128456D02*
X207140259Y-84318932D01*
X207140259Y-84318932D02*
X207092640Y-84414170D01*
X207092640Y-84414170D02*
X207045020Y-84461789D01*
X207045020Y-84461789D02*
X206949782Y-84509408D01*
X206949782Y-84509408D02*
X206711687Y-84509408D01*
X206711687Y-84509408D02*
X206616449Y-84461789D01*
X206616449Y-84461789D02*
X206568830Y-84414170D01*
X206568830Y-84414170D02*
X206521211Y-84318932D01*
X206521211Y-84318932D02*
X206521211Y-84128456D01*
X206521211Y-84128456D02*
X206568830Y-84033218D01*
X206568830Y-84033218D02*
X206616449Y-83985599D01*
X206616449Y-83985599D02*
X206711687Y-83937980D01*
X206616449Y-86033218D02*
X206664068Y-86176075D01*
X206664068Y-86176075D02*
X206711687Y-86223694D01*
X206711687Y-86223694D02*
X206806925Y-86271313D01*
X206806925Y-86271313D02*
X206949782Y-86271313D01*
X206949782Y-86271313D02*
X207045020Y-86223694D01*
X207045020Y-86223694D02*
X207092640Y-86176075D01*
X207092640Y-86176075D02*
X207140259Y-86080837D01*
X207140259Y-86080837D02*
X207140259Y-85699885D01*
X207140259Y-85699885D02*
X206140259Y-85699885D01*
X206140259Y-85699885D02*
X206140259Y-86033218D01*
X206140259Y-86033218D02*
X206187878Y-86128456D01*
X206187878Y-86128456D02*
X206235497Y-86176075D01*
X206235497Y-86176075D02*
X206330735Y-86223694D01*
X206330735Y-86223694D02*
X206425973Y-86223694D01*
X206425973Y-86223694D02*
X206521211Y-86176075D01*
X206521211Y-86176075D02*
X206568830Y-86128456D01*
X206568830Y-86128456D02*
X206616449Y-86033218D01*
X206616449Y-86033218D02*
X206616449Y-85699885D01*
X206473592Y-87128456D02*
X207140259Y-87128456D01*
X206473592Y-86699885D02*
X206997401Y-86699885D01*
X206997401Y-86699885D02*
X207092640Y-86747504D01*
X207092640Y-86747504D02*
X207140259Y-86842742D01*
X207140259Y-86842742D02*
X207140259Y-86985599D01*
X207140259Y-86985599D02*
X207092640Y-87080837D01*
X207092640Y-87080837D02*
X207045020Y-87128456D01*
X207092640Y-88033218D02*
X207140259Y-87937980D01*
X207140259Y-87937980D02*
X207140259Y-87747504D01*
X207140259Y-87747504D02*
X207092640Y-87652266D01*
X207092640Y-87652266D02*
X207045020Y-87604647D01*
X207045020Y-87604647D02*
X206949782Y-87557028D01*
X206949782Y-87557028D02*
X206664068Y-87557028D01*
X206664068Y-87557028D02*
X206568830Y-87604647D01*
X206568830Y-87604647D02*
X206521211Y-87652266D01*
X206521211Y-87652266D02*
X206473592Y-87747504D01*
X206473592Y-87747504D02*
X206473592Y-87937980D01*
X206473592Y-87937980D02*
X206521211Y-88033218D01*
X207140259Y-88461790D02*
X206140259Y-88461790D01*
X206759306Y-88557028D02*
X207140259Y-88842742D01*
X206473592Y-88842742D02*
X206854544Y-88461790D01*
X213114339Y-106652703D02*
X212114339Y-106652703D01*
X213114339Y-107128893D02*
X212114339Y-107128893D01*
X212114339Y-107128893D02*
X213114339Y-107700321D01*
X213114339Y-107700321D02*
X212114339Y-107700321D01*
X212733386Y-108176512D02*
X212733386Y-108938417D01*
X213114339Y-108557464D02*
X212352434Y-108557464D01*
X98332857Y-107819580D02*
X98380476Y-107867200D01*
X98380476Y-107867200D02*
X98523333Y-107914819D01*
X98523333Y-107914819D02*
X98618571Y-107914819D01*
X98618571Y-107914819D02*
X98761428Y-107867200D01*
X98761428Y-107867200D02*
X98856666Y-107771961D01*
X98856666Y-107771961D02*
X98904285Y-107676723D01*
X98904285Y-107676723D02*
X98951904Y-107486247D01*
X98951904Y-107486247D02*
X98951904Y-107343390D01*
X98951904Y-107343390D02*
X98904285Y-107152914D01*
X98904285Y-107152914D02*
X98856666Y-107057676D01*
X98856666Y-107057676D02*
X98761428Y-106962438D01*
X98761428Y-106962438D02*
X98618571Y-106914819D01*
X98618571Y-106914819D02*
X98523333Y-106914819D01*
X98523333Y-106914819D02*
X98380476Y-106962438D01*
X98380476Y-106962438D02*
X98332857Y-107010057D01*
X97951904Y-107010057D02*
X97904285Y-106962438D01*
X97904285Y-106962438D02*
X97809047Y-106914819D01*
X97809047Y-106914819D02*
X97570952Y-106914819D01*
X97570952Y-106914819D02*
X97475714Y-106962438D01*
X97475714Y-106962438D02*
X97428095Y-107010057D01*
X97428095Y-107010057D02*
X97380476Y-107105295D01*
X97380476Y-107105295D02*
X97380476Y-107200533D01*
X97380476Y-107200533D02*
X97428095Y-107343390D01*
X97428095Y-107343390D02*
X97999523Y-107914819D01*
X97999523Y-107914819D02*
X97380476Y-107914819D01*
X96523333Y-106914819D02*
X96713809Y-106914819D01*
X96713809Y-106914819D02*
X96809047Y-106962438D01*
X96809047Y-106962438D02*
X96856666Y-107010057D01*
X96856666Y-107010057D02*
X96951904Y-107152914D01*
X96951904Y-107152914D02*
X96999523Y-107343390D01*
X96999523Y-107343390D02*
X96999523Y-107724342D01*
X96999523Y-107724342D02*
X96951904Y-107819580D01*
X96951904Y-107819580D02*
X96904285Y-107867200D01*
X96904285Y-107867200D02*
X96809047Y-107914819D01*
X96809047Y-107914819D02*
X96618571Y-107914819D01*
X96618571Y-107914819D02*
X96523333Y-107867200D01*
X96523333Y-107867200D02*
X96475714Y-107819580D01*
X96475714Y-107819580D02*
X96428095Y-107724342D01*
X96428095Y-107724342D02*
X96428095Y-107486247D01*
X96428095Y-107486247D02*
X96475714Y-107391009D01*
X96475714Y-107391009D02*
X96523333Y-107343390D01*
X96523333Y-107343390D02*
X96618571Y-107295771D01*
X96618571Y-107295771D02*
X96809047Y-107295771D01*
X96809047Y-107295771D02*
X96904285Y-107343390D01*
X96904285Y-107343390D02*
X96951904Y-107391009D01*
X96951904Y-107391009D02*
X96999523Y-107486247D01*
X104008333Y-61679819D02*
X104008333Y-62394104D01*
X104008333Y-62394104D02*
X104055952Y-62536961D01*
X104055952Y-62536961D02*
X104151190Y-62632200D01*
X104151190Y-62632200D02*
X104294047Y-62679819D01*
X104294047Y-62679819D02*
X104389285Y-62679819D01*
X103627380Y-61679819D02*
X103008333Y-61679819D01*
X103008333Y-61679819D02*
X103341666Y-62060771D01*
X103341666Y-62060771D02*
X103198809Y-62060771D01*
X103198809Y-62060771D02*
X103103571Y-62108390D01*
X103103571Y-62108390D02*
X103055952Y-62156009D01*
X103055952Y-62156009D02*
X103008333Y-62251247D01*
X103008333Y-62251247D02*
X103008333Y-62489342D01*
X103008333Y-62489342D02*
X103055952Y-62584580D01*
X103055952Y-62584580D02*
X103103571Y-62632200D01*
X103103571Y-62632200D02*
X103198809Y-62679819D01*
X103198809Y-62679819D02*
X103484523Y-62679819D01*
X103484523Y-62679819D02*
X103579761Y-62632200D01*
X103579761Y-62632200D02*
X103627380Y-62584580D01*
X191473333Y-75594819D02*
X191473333Y-76309104D01*
X191473333Y-76309104D02*
X191520952Y-76451961D01*
X191520952Y-76451961D02*
X191616190Y-76547200D01*
X191616190Y-76547200D02*
X191759047Y-76594819D01*
X191759047Y-76594819D02*
X191854285Y-76594819D01*
X190949523Y-76594819D02*
X190759047Y-76594819D01*
X190759047Y-76594819D02*
X190663809Y-76547200D01*
X190663809Y-76547200D02*
X190616190Y-76499580D01*
X190616190Y-76499580D02*
X190520952Y-76356723D01*
X190520952Y-76356723D02*
X190473333Y-76166247D01*
X190473333Y-76166247D02*
X190473333Y-75785295D01*
X190473333Y-75785295D02*
X190520952Y-75690057D01*
X190520952Y-75690057D02*
X190568571Y-75642438D01*
X190568571Y-75642438D02*
X190663809Y-75594819D01*
X190663809Y-75594819D02*
X190854285Y-75594819D01*
X190854285Y-75594819D02*
X190949523Y-75642438D01*
X190949523Y-75642438D02*
X190997142Y-75690057D01*
X190997142Y-75690057D02*
X191044761Y-75785295D01*
X191044761Y-75785295D02*
X191044761Y-76023390D01*
X191044761Y-76023390D02*
X190997142Y-76118628D01*
X190997142Y-76118628D02*
X190949523Y-76166247D01*
X190949523Y-76166247D02*
X190854285Y-76213866D01*
X190854285Y-76213866D02*
X190663809Y-76213866D01*
X190663809Y-76213866D02*
X190568571Y-76166247D01*
X190568571Y-76166247D02*
X190520952Y-76118628D01*
X190520952Y-76118628D02*
X190473333Y-76023390D01*
X80818066Y-104405459D02*
X81323142Y-104910535D01*
X81323142Y-104910535D02*
X81457829Y-104977879D01*
X81457829Y-104977879D02*
X81592516Y-104977879D01*
X81592516Y-104977879D02*
X81727203Y-104910535D01*
X81727203Y-104910535D02*
X81794547Y-104843192D01*
X80818066Y-105819673D02*
X81222127Y-105415612D01*
X81020096Y-105617642D02*
X80312989Y-104910535D01*
X80312989Y-104910535D02*
X80481348Y-104944207D01*
X80481348Y-104944207D02*
X80616035Y-104944207D01*
X80616035Y-104944207D02*
X80717050Y-104910535D01*
X79740570Y-105954360D02*
X80211974Y-106425764D01*
X79639554Y-105516627D02*
X80312989Y-105853344D01*
X80312989Y-105853344D02*
X79875257Y-106291077D01*
X253299523Y-109904819D02*
X253299523Y-110619104D01*
X253299523Y-110619104D02*
X253347142Y-110761961D01*
X253347142Y-110761961D02*
X253442380Y-110857200D01*
X253442380Y-110857200D02*
X253585237Y-110904819D01*
X253585237Y-110904819D02*
X253680475Y-110904819D01*
X252299523Y-110904819D02*
X252870951Y-110904819D01*
X252585237Y-110904819D02*
X252585237Y-109904819D01*
X252585237Y-109904819D02*
X252680475Y-110047676D01*
X252680475Y-110047676D02*
X252775713Y-110142914D01*
X252775713Y-110142914D02*
X252870951Y-110190533D01*
X251347142Y-110904819D02*
X251918570Y-110904819D01*
X251632856Y-110904819D02*
X251632856Y-109904819D01*
X251632856Y-109904819D02*
X251728094Y-110047676D01*
X251728094Y-110047676D02*
X251823332Y-110142914D01*
X251823332Y-110142914D02*
X251918570Y-110190533D01*
X119999580Y-120577142D02*
X120047200Y-120529523D01*
X120047200Y-120529523D02*
X120094819Y-120386666D01*
X120094819Y-120386666D02*
X120094819Y-120291428D01*
X120094819Y-120291428D02*
X120047200Y-120148571D01*
X120047200Y-120148571D02*
X119951961Y-120053333D01*
X119951961Y-120053333D02*
X119856723Y-120005714D01*
X119856723Y-120005714D02*
X119666247Y-119958095D01*
X119666247Y-119958095D02*
X119523390Y-119958095D01*
X119523390Y-119958095D02*
X119332914Y-120005714D01*
X119332914Y-120005714D02*
X119237676Y-120053333D01*
X119237676Y-120053333D02*
X119142438Y-120148571D01*
X119142438Y-120148571D02*
X119094819Y-120291428D01*
X119094819Y-120291428D02*
X119094819Y-120386666D01*
X119094819Y-120386666D02*
X119142438Y-120529523D01*
X119142438Y-120529523D02*
X119190057Y-120577142D01*
X120094819Y-121529523D02*
X120094819Y-120958095D01*
X120094819Y-121243809D02*
X119094819Y-121243809D01*
X119094819Y-121243809D02*
X119237676Y-121148571D01*
X119237676Y-121148571D02*
X119332914Y-121053333D01*
X119332914Y-121053333D02*
X119380533Y-120958095D01*
X119190057Y-121910476D02*
X119142438Y-121958095D01*
X119142438Y-121958095D02*
X119094819Y-122053333D01*
X119094819Y-122053333D02*
X119094819Y-122291428D01*
X119094819Y-122291428D02*
X119142438Y-122386666D01*
X119142438Y-122386666D02*
X119190057Y-122434285D01*
X119190057Y-122434285D02*
X119285295Y-122481904D01*
X119285295Y-122481904D02*
X119380533Y-122481904D01*
X119380533Y-122481904D02*
X119523390Y-122434285D01*
X119523390Y-122434285D02*
X120094819Y-121862857D01*
X120094819Y-121862857D02*
X120094819Y-122481904D01*
X142432857Y-84494819D02*
X142766190Y-84018628D01*
X143004285Y-84494819D02*
X143004285Y-83494819D01*
X143004285Y-83494819D02*
X142623333Y-83494819D01*
X142623333Y-83494819D02*
X142528095Y-83542438D01*
X142528095Y-83542438D02*
X142480476Y-83590057D01*
X142480476Y-83590057D02*
X142432857Y-83685295D01*
X142432857Y-83685295D02*
X142432857Y-83828152D01*
X142432857Y-83828152D02*
X142480476Y-83923390D01*
X142480476Y-83923390D02*
X142528095Y-83971009D01*
X142528095Y-83971009D02*
X142623333Y-84018628D01*
X142623333Y-84018628D02*
X143004285Y-84018628D01*
X141480476Y-84494819D02*
X142051904Y-84494819D01*
X141766190Y-84494819D02*
X141766190Y-83494819D01*
X141766190Y-83494819D02*
X141861428Y-83637676D01*
X141861428Y-83637676D02*
X141956666Y-83732914D01*
X141956666Y-83732914D02*
X142051904Y-83780533D01*
X141099523Y-83590057D02*
X141051904Y-83542438D01*
X141051904Y-83542438D02*
X140956666Y-83494819D01*
X140956666Y-83494819D02*
X140718571Y-83494819D01*
X140718571Y-83494819D02*
X140623333Y-83542438D01*
X140623333Y-83542438D02*
X140575714Y-83590057D01*
X140575714Y-83590057D02*
X140528095Y-83685295D01*
X140528095Y-83685295D02*
X140528095Y-83780533D01*
X140528095Y-83780533D02*
X140575714Y-83923390D01*
X140575714Y-83923390D02*
X141147142Y-84494819D01*
X141147142Y-84494819D02*
X140528095Y-84494819D01*
X107029523Y-96104819D02*
X106696190Y-97104819D01*
X106696190Y-97104819D02*
X106362857Y-96104819D01*
X105458095Y-97104819D02*
X105791428Y-96628628D01*
X106029523Y-97104819D02*
X106029523Y-96104819D01*
X106029523Y-96104819D02*
X105648571Y-96104819D01*
X105648571Y-96104819D02*
X105553333Y-96152438D01*
X105553333Y-96152438D02*
X105505714Y-96200057D01*
X105505714Y-96200057D02*
X105458095Y-96295295D01*
X105458095Y-96295295D02*
X105458095Y-96438152D01*
X105458095Y-96438152D02*
X105505714Y-96533390D01*
X105505714Y-96533390D02*
X105553333Y-96581009D01*
X105553333Y-96581009D02*
X105648571Y-96628628D01*
X105648571Y-96628628D02*
X106029523Y-96628628D01*
X105077142Y-96200057D02*
X105029523Y-96152438D01*
X105029523Y-96152438D02*
X104934285Y-96104819D01*
X104934285Y-96104819D02*
X104696190Y-96104819D01*
X104696190Y-96104819D02*
X104600952Y-96152438D01*
X104600952Y-96152438D02*
X104553333Y-96200057D01*
X104553333Y-96200057D02*
X104505714Y-96295295D01*
X104505714Y-96295295D02*
X104505714Y-96390533D01*
X104505714Y-96390533D02*
X104553333Y-96533390D01*
X104553333Y-96533390D02*
X105124761Y-97104819D01*
X105124761Y-97104819D02*
X104505714Y-97104819D01*
X112274523Y-61569819D02*
X112274523Y-62284104D01*
X112274523Y-62284104D02*
X112322142Y-62426961D01*
X112322142Y-62426961D02*
X112417380Y-62522200D01*
X112417380Y-62522200D02*
X112560237Y-62569819D01*
X112560237Y-62569819D02*
X112655475Y-62569819D01*
X111274523Y-62569819D02*
X111845951Y-62569819D01*
X111560237Y-62569819D02*
X111560237Y-61569819D01*
X111560237Y-61569819D02*
X111655475Y-61712676D01*
X111655475Y-61712676D02*
X111750713Y-61807914D01*
X111750713Y-61807914D02*
X111845951Y-61855533D01*
X110941189Y-61569819D02*
X110322142Y-61569819D01*
X110322142Y-61569819D02*
X110655475Y-61950771D01*
X110655475Y-61950771D02*
X110512618Y-61950771D01*
X110512618Y-61950771D02*
X110417380Y-61998390D01*
X110417380Y-61998390D02*
X110369761Y-62046009D01*
X110369761Y-62046009D02*
X110322142Y-62141247D01*
X110322142Y-62141247D02*
X110322142Y-62379342D01*
X110322142Y-62379342D02*
X110369761Y-62474580D01*
X110369761Y-62474580D02*
X110417380Y-62522200D01*
X110417380Y-62522200D02*
X110512618Y-62569819D01*
X110512618Y-62569819D02*
X110798332Y-62569819D01*
X110798332Y-62569819D02*
X110893570Y-62522200D01*
X110893570Y-62522200D02*
X110941189Y-62474580D01*
D12*
%TO.C,DSP1*%
X173851000Y-103842183D02*
X175181000Y-103842183D01*
X173851000Y-105172183D02*
X173851000Y-103842183D01*
X173851000Y-106442183D02*
X173851000Y-124282183D01*
X173851000Y-106442183D02*
X176511000Y-106442183D01*
X173851000Y-124282183D02*
X176511000Y-124282183D01*
X176511000Y-106442183D02*
X176511000Y-124282183D01*
%TO.C,S2*%
X218869752Y-108490820D02*
X219810204Y-107550368D01*
X219767777Y-111269750D02*
X221606255Y-113108227D01*
X219767777Y-111269750D02*
X221648681Y-109388846D01*
X219810204Y-107550368D02*
X220750656Y-108490820D01*
X221606255Y-113108227D02*
X223487159Y-111227323D01*
X221648681Y-109388846D02*
X223487159Y-111227323D01*
%TO.C,S1*%
X93115300Y-116236200D02*
X94445300Y-116236200D01*
X93115300Y-117566200D02*
X93115300Y-116236200D01*
X95715300Y-116236200D02*
X98315300Y-116236200D01*
X95715300Y-118896200D02*
X95715300Y-116236200D01*
X95715300Y-118896200D02*
X98315300Y-118896200D01*
X98315300Y-118896200D02*
X98315300Y-116236200D01*
%TO.C,J5*%
X147960000Y-112750000D02*
X149290000Y-112750000D01*
X147960000Y-114080000D02*
X147960000Y-112750000D01*
X147960000Y-115350000D02*
X150620000Y-115350000D01*
X147960000Y-120490000D02*
X147960000Y-115350000D01*
X147960000Y-120490000D02*
X150620000Y-120490000D01*
X150620000Y-120490000D02*
X150620000Y-115350000D01*
%TO.C,R7*%
X126447500Y-121012742D02*
X126447500Y-121487258D01*
X127492500Y-121012742D02*
X127492500Y-121487258D01*
%TO.C,R9*%
X119387258Y-112837500D02*
X118912742Y-112837500D01*
X119387258Y-113882500D02*
X118912742Y-113882500D01*
%TO.C,C27*%
X216099970Y-113721219D02*
X216298781Y-113920030D01*
X216821219Y-112999970D02*
X217020030Y-113198781D01*
%TO.C,R14*%
X160817258Y-82027500D02*
X160342742Y-82027500D01*
X160817258Y-83072500D02*
X160342742Y-83072500D01*
%TO.C,C9*%
X176490581Y-85050000D02*
X176209419Y-85050000D01*
X176490581Y-86070000D02*
X176209419Y-86070000D01*
%TO.C,C25*%
X110941252Y-106610000D02*
X109518748Y-106610000D01*
X110941252Y-108430000D02*
X109518748Y-108430000D01*
%TO.C,C13*%
X119009420Y-111350000D02*
X119290580Y-111350000D01*
X119009420Y-112370000D02*
X119290580Y-112370000D01*
%TO.C,R11*%
X118907742Y-109867500D02*
X119382258Y-109867500D01*
X118907742Y-110912500D02*
X119382258Y-110912500D01*
%TO.C,J7*%
X219670000Y-77570000D02*
X222330000Y-77570000D01*
X219670000Y-85250000D02*
X219670000Y-77570000D01*
X219670000Y-85250000D02*
X222330000Y-85250000D01*
X221000000Y-74970000D02*
X222330000Y-74970000D01*
X222330000Y-74970000D02*
X222330000Y-76300000D01*
X222330000Y-85250000D02*
X222330000Y-77570000D01*
%TO.C,C11*%
X127930000Y-121119419D02*
X127930000Y-121400581D01*
X128950000Y-121119419D02*
X128950000Y-121400581D01*
%TO.C,C8*%
X92219419Y-119790000D02*
X92500581Y-119790000D01*
X92219419Y-120810000D02*
X92500581Y-120810000D01*
%TO.C,R23*%
X168442258Y-63047500D02*
X167967742Y-63047500D01*
X168442258Y-64092500D02*
X167967742Y-64092500D01*
%TO.C,J8*%
X106255000Y-63665000D02*
X107585000Y-63665000D01*
X106255000Y-64995000D02*
X106255000Y-63665000D01*
X106255000Y-66265000D02*
X108915000Y-66265000D01*
X106255000Y-71405000D02*
X106255000Y-66265000D01*
X106255000Y-71405000D02*
X108915000Y-71405000D01*
X108915000Y-71405000D02*
X108915000Y-66265000D01*
%TO.C,DRV1*%
X228126200Y-90840100D02*
X243126200Y-90840100D01*
X243126200Y-70340100D01*
X228126200Y-70340100D01*
X228126200Y-90840100D01*
X241110200Y-72305300D02*
X243126200Y-72305300D01*
X243126200Y-70340100D01*
X241110200Y-70340100D01*
X241110200Y-72305300D01*
%TO.C,J4*%
X187790000Y-92915000D02*
X187790000Y-91585000D01*
X189120000Y-92915000D02*
X187790000Y-92915000D01*
X190390001Y-92915000D02*
X190390001Y-90255000D01*
X192990000Y-90255000D02*
X190390001Y-90255000D01*
X192990000Y-92915000D02*
X190390001Y-92915000D01*
X192990000Y-92915000D02*
X192990000Y-90255000D01*
%TO.C,C10*%
X145010581Y-84980000D02*
X144729419Y-84980000D01*
X145010581Y-86000000D02*
X144729419Y-86000000D01*
%TO.C,C14*%
X160730581Y-85040000D02*
X160449419Y-85040000D01*
X160730581Y-86060000D02*
X160449419Y-86060000D01*
%TO.C,VR3*%
X114200000Y-63170000D02*
X114200000Y-106170000D01*
X114200000Y-106170000D02*
X134700000Y-106170000D01*
D13*
X123843240Y-69628080D02*
X123843240Y-99595000D01*
X123843240Y-99595000D02*
X121028920Y-94870601D01*
X123858480Y-99600080D02*
X126596600Y-94931560D01*
D12*
X134700000Y-63170000D02*
X114200000Y-63170000D01*
X134700000Y-106170000D02*
X134700000Y-63170000D01*
%TO.C,R5*%
X176102742Y-83537500D02*
X176577258Y-83537500D01*
X176102742Y-84582500D02*
X176577258Y-84582500D01*
%TO.C,R3*%
X92592258Y-121317500D02*
X92117742Y-121317500D01*
X92592258Y-122362500D02*
X92117742Y-122362500D01*
D11*
%TO.C,C15*%
X216820000Y-63840000D02*
X226320000Y-63840000D01*
X216820000Y-72140000D02*
X223045000Y-72140001D01*
D14*
%TO.C,J10*%
X240249999Y-93360000D02*
X240249999Y-93360000D01*
X240249999Y-93360000D02*
X252250000Y-93360000D01*
X240250000Y-101860000D02*
X240249999Y-93360000D01*
X252250000Y-93360000D02*
X252250000Y-101860000D01*
X252250000Y-101860000D02*
X240250000Y-101860000D01*
D12*
%TO.C,Q4*%
X175880000Y-65570000D02*
X175880000Y-61970000D01*
X171430000Y-63770000D02*
G75*
G02*
X175868478Y-61931522I2600000J0D01*
G01*
X175868478Y-65608478D02*
G75*
G02*
X171429999Y-63770000I-1838478J1838478D01*
G01*
%TO.C,R21*%
X217082770Y-112611697D02*
X217418303Y-112947230D01*
X217821697Y-111872770D02*
X218157230Y-112208303D01*
%TO.C,R2*%
X176597258Y-82037500D02*
X176122742Y-82037500D01*
X176597258Y-83082500D02*
X176122742Y-83082500D01*
%TO.C,R20*%
X218122770Y-111581697D02*
X218458303Y-111917230D01*
X218861697Y-110842770D02*
X219197230Y-111178303D01*
D14*
%TO.C,J6*%
X184050000Y-61420000D02*
X192550000Y-61420000D01*
X184050000Y-73420000D02*
X184050000Y-61420000D01*
X192550000Y-61420000D02*
X192550000Y-61420000D01*
X192550000Y-61420000D02*
X192550000Y-73420000D01*
X192550000Y-73420000D02*
X184050000Y-73420000D01*
D12*
%TO.C,R15*%
X160342742Y-83537500D02*
X160817258Y-83537500D01*
X160342742Y-84582500D02*
X160817258Y-84582500D01*
%TO.C,R6*%
X145102258Y-82037500D02*
X144627742Y-82037500D01*
X145102258Y-83082500D02*
X144627742Y-83082500D01*
%TO.C,R8*%
X122017500Y-121002742D02*
X122017500Y-121477258D01*
X123062500Y-121002742D02*
X123062500Y-121477258D01*
%TO.C,R13*%
X124967500Y-121477258D02*
X124967500Y-121002742D01*
X126012500Y-121477258D02*
X126012500Y-121002742D01*
%TO.C,R10*%
X123497500Y-121477258D02*
X123497500Y-121002742D01*
X124542500Y-121477258D02*
X124542500Y-121002742D01*
%TO.C,R4*%
X94122501Y-120872742D02*
X94122501Y-121347258D01*
X95167501Y-120872742D02*
X95167501Y-121347258D01*
%TO.C,J12*%
X187790000Y-89235000D02*
X187790000Y-87905000D01*
X189120000Y-89235000D02*
X187790000Y-89235000D01*
X190390001Y-89235000D02*
X190390001Y-86575000D01*
X192990000Y-86575000D02*
X190390001Y-86575000D01*
X192990000Y-89235000D02*
X190390001Y-89235000D01*
X192990000Y-89235000D02*
X192990000Y-86575000D01*
%TO.C,VR1*%
X193690000Y-62450000D02*
X193690000Y-105450000D01*
X193690000Y-105450000D02*
X214190000Y-105450000D01*
D13*
X204531520Y-69019920D02*
X201793400Y-73688440D01*
X204546760Y-69025000D02*
X207361080Y-73749399D01*
X204546760Y-98991920D02*
X204546760Y-69025000D01*
D12*
X214190000Y-62450000D02*
X193690000Y-62450000D01*
X214190000Y-105450000D02*
X214190000Y-62450000D01*
%TO.C,C26*%
X100798748Y-106580000D02*
X102221252Y-106580000D01*
X100798748Y-108400000D02*
X102221252Y-108400000D01*
%TO.C,J3*%
X102345000Y-63665000D02*
X103675000Y-63665000D01*
X102345000Y-64995000D02*
X102345000Y-63665000D01*
X102345000Y-66265000D02*
X105005000Y-66265000D01*
X102345000Y-71405000D02*
X102345000Y-66265000D01*
X102345000Y-71405000D02*
X105005000Y-71405000D01*
X105005000Y-71405000D02*
X105005000Y-66265000D01*
%TO.C,J9*%
X189895000Y-77145000D02*
X191225000Y-77145000D01*
X189895000Y-78475000D02*
X189895000Y-77145000D01*
X189895000Y-79745000D02*
X192555000Y-79745000D01*
X189895000Y-84885000D02*
X189895000Y-79745000D01*
X189895000Y-84885000D02*
X192555000Y-84885000D01*
X192555000Y-84885000D02*
X192555000Y-79745000D01*
%TO.C,J14*%
X79603045Y-108123948D02*
X88668154Y-117189057D01*
X83280000Y-104446993D02*
X79603045Y-108123948D01*
X83280000Y-104446993D02*
X90506631Y-111673624D01*
X88668154Y-113512102D02*
X90506631Y-115350580D01*
X90506631Y-111673624D02*
X88668154Y-113512102D01*
X90506631Y-115350580D02*
X88668154Y-117189057D01*
X91404657Y-112571650D02*
X92345109Y-113512102D01*
X92345109Y-113512102D02*
X91404657Y-114452554D01*
D11*
%TO.C,J11*%
X239870000Y-111410000D02*
X254370000Y-111410000D01*
X254370000Y-111410000D02*
X254370000Y-120410000D01*
X254370000Y-120410000D02*
X247120000Y-120410000D01*
X237567001Y-116470999D02*
G75*
G02*
X237438999Y-116470999I-64001J0D01*
G01*
X237438999Y-116470999D02*
G75*
G02*
X237567001Y-116470999I64001J0D01*
G01*
D12*
%TO.C,C12*%
X120570000Y-121079419D02*
X120570000Y-121360581D01*
X121590000Y-121079419D02*
X121590000Y-121360581D01*
%TO.C,R12*%
X144622742Y-83497500D02*
X145097258Y-83497500D01*
X144622742Y-84542500D02*
X145097258Y-84542500D01*
D14*
%TO.C,VR2*%
X112011001Y-99500000D02*
X112011001Y-99500000D01*
X112111001Y-99500000D02*
X112111001Y-99500000D01*
X112011001Y-99500000D02*
G75*
G02*
X112111001Y-99500000I50000J1D01*
G01*
X112111001Y-99500000D02*
G75*
G02*
X112011001Y-99500000I-50000J1D01*
G01*
D12*
%TO.C,J13*%
X110135000Y-63555000D02*
X111465000Y-63555000D01*
X110135000Y-64885000D02*
X110135000Y-63555000D01*
X110135000Y-66155000D02*
X112795000Y-66155000D01*
X110135000Y-71295000D02*
X110135000Y-66155000D01*
X110135000Y-71295000D02*
X112795000Y-71295000D01*
X112795000Y-71295000D02*
X112795000Y-66155000D01*
%TD*%
M02*
