%TF.GenerationSoftware,KiCad,Pcbnew,8.0.8*%
%TF.CreationDate,2025-04-02T20:08:15-06:00*%
%TF.ProjectId,Animation Platter_V3,416e696d-6174-4696-9f6e-20506c617474,rev?*%
%TF.SameCoordinates,Original*%
%TF.FileFunction,Paste,Bot*%
%TF.FilePolarity,Positive*%
%FSLAX46Y46*%
G04 Gerber Fmt 4.6, Leading zero omitted, Abs format (unit mm)*
G04 Created by KiCad (PCBNEW 8.0.8) date 2025-04-02 20:08:15*
%MOMM*%
%LPD*%
G01*
G04 APERTURE LIST*
G04 Aperture macros list*
%AMRoundRect*
0 Rectangle with rounded corners*
0 $1 Rounding radius*
0 $2 $3 $4 $5 $6 $7 $8 $9 X,Y pos of 4 corners*
0 Add a 4 corners polygon primitive as box body*
4,1,4,$2,$3,$4,$5,$6,$7,$8,$9,$2,$3,0*
0 Add four circle primitives for the rounded corners*
1,1,$1+$1,$2,$3*
1,1,$1+$1,$4,$5*
1,1,$1+$1,$6,$7*
1,1,$1+$1,$8,$9*
0 Add four rect primitives between the rounded corners*
20,1,$1+$1,$2,$3,$4,$5,0*
20,1,$1+$1,$4,$5,$6,$7,0*
20,1,$1+$1,$6,$7,$8,$9,0*
20,1,$1+$1,$8,$9,$2,$3,0*%
G04 Aperture macros list end*
%ADD10RoundRect,0.200000X0.275000X-0.200000X0.275000X0.200000X-0.275000X0.200000X-0.275000X-0.200000X0*%
%ADD11RoundRect,0.200000X-0.200000X-0.275000X0.200000X-0.275000X0.200000X0.275000X-0.200000X0.275000X0*%
%ADD12RoundRect,0.225000X0.335876X0.017678X0.017678X0.335876X-0.335876X-0.017678X-0.017678X-0.335876X0*%
%ADD13RoundRect,0.225000X-0.225000X-0.250000X0.225000X-0.250000X0.225000X0.250000X-0.225000X0.250000X0*%
%ADD14RoundRect,0.250000X-0.325000X-0.650000X0.325000X-0.650000X0.325000X0.650000X-0.325000X0.650000X0*%
%ADD15RoundRect,0.225000X0.225000X0.250000X-0.225000X0.250000X-0.225000X-0.250000X0.225000X-0.250000X0*%
%ADD16RoundRect,0.200000X0.200000X0.275000X-0.200000X0.275000X-0.200000X-0.275000X0.200000X-0.275000X0*%
%ADD17RoundRect,0.225000X0.250000X-0.225000X0.250000X0.225000X-0.250000X0.225000X-0.250000X-0.225000X0*%
%ADD18R,3.600000X2.050000*%
%ADD19RoundRect,0.200000X0.335876X0.053033X0.053033X0.335876X-0.335876X-0.053033X-0.053033X-0.335876X0*%
%ADD20RoundRect,0.200000X-0.275000X0.200000X-0.275000X-0.200000X0.275000X-0.200000X0.275000X0.200000X0*%
%ADD21RoundRect,0.250000X0.325000X0.650000X-0.325000X0.650000X-0.325000X-0.650000X0.325000X-0.650000X0*%
%ADD22R,2.500000X1.500000*%
%ADD23R,7.000000X7.000000*%
G04 APERTURE END LIST*
D10*
%TO.C,R7*%
X126970000Y-122075000D03*
X126970000Y-120425000D03*
%TD*%
D11*
%TO.C,R9*%
X118325000Y-113360000D03*
X119975000Y-113360000D03*
%TD*%
D12*
%TO.C,C27*%
X217108008Y-114008008D03*
X216011992Y-112911992D03*
%TD*%
D11*
%TO.C,R14*%
X159755000Y-82550000D03*
X161405000Y-82550000D03*
%TD*%
D13*
%TO.C,C9*%
X175575000Y-85560000D03*
X177125000Y-85560000D03*
%TD*%
D14*
%TO.C,C25*%
X108754999Y-107520000D03*
X111705001Y-107520000D03*
%TD*%
D15*
%TO.C,C13*%
X119925000Y-111860000D03*
X118375000Y-111860000D03*
%TD*%
D16*
%TO.C,R11*%
X119970000Y-110390000D03*
X118320000Y-110390000D03*
%TD*%
D17*
%TO.C,C11*%
X128440000Y-122035000D03*
X128440000Y-120485000D03*
%TD*%
D15*
%TO.C,C8*%
X93135000Y-120300000D03*
X91585000Y-120300000D03*
%TD*%
D11*
%TO.C,R23*%
X167380000Y-63570000D03*
X169030000Y-63570000D03*
%TD*%
D13*
%TO.C,C10*%
X144095000Y-85490000D03*
X145645000Y-85490000D03*
%TD*%
%TO.C,C14*%
X159815000Y-85550000D03*
X161365000Y-85550000D03*
%TD*%
D16*
%TO.C,R5*%
X177165000Y-84060000D03*
X175515000Y-84060000D03*
%TD*%
D11*
%TO.C,R3*%
X91530000Y-121840000D03*
X93180000Y-121840000D03*
%TD*%
D18*
%TO.C,C15*%
X224520000Y-67990000D03*
X217420000Y-67990000D03*
%TD*%
D19*
%TO.C,R21*%
X218203363Y-112993363D03*
X217036637Y-111826637D03*
%TD*%
D11*
%TO.C,R2*%
X175535000Y-82560000D03*
X177185000Y-82560000D03*
%TD*%
D19*
%TO.C,R20*%
X219243363Y-111963363D03*
X218076637Y-110796637D03*
%TD*%
D16*
%TO.C,R15*%
X161405000Y-84060000D03*
X159755000Y-84060000D03*
%TD*%
D11*
%TO.C,R6*%
X144040000Y-82560000D03*
X145690000Y-82560000D03*
%TD*%
D10*
%TO.C,R8*%
X122540000Y-122065000D03*
X122540000Y-120415000D03*
%TD*%
D20*
%TO.C,R13*%
X125490000Y-120415000D03*
X125490000Y-122065000D03*
%TD*%
%TO.C,R10*%
X124020000Y-120415000D03*
X124020000Y-122065000D03*
%TD*%
D10*
%TO.C,R4*%
X94645001Y-121935000D03*
X94645001Y-120285000D03*
%TD*%
D21*
%TO.C,C26*%
X102985000Y-107490000D03*
X100035000Y-107490000D03*
%TD*%
D17*
%TO.C,C12*%
X121080000Y-121995000D03*
X121080000Y-120445000D03*
%TD*%
D16*
%TO.C,R12*%
X145685000Y-84020000D03*
X144035000Y-84020000D03*
%TD*%
D22*
%TO.C,VR2*%
X110280000Y-99500000D03*
D23*
X103430000Y-101800000D03*
D22*
X110280000Y-104100000D03*
%TD*%
M02*
