%TF.GenerationSoftware,KiCad,Pcbnew,8.0.8*%
%TF.CreationDate,2025-04-02T20:08:16-06:00*%
%TF.ProjectId,Animation Platter_V3,416e696d-6174-4696-9f6e-20506c617474,rev?*%
%TF.SameCoordinates,Original*%
%TF.FileFunction,Soldermask,Bot*%
%TF.FilePolarity,Negative*%
%FSLAX46Y46*%
G04 Gerber Fmt 4.6, Leading zero omitted, Abs format (unit mm)*
G04 Created by KiCad (PCBNEW 8.0.8) date 2025-04-02 20:08:16*
%MOMM*%
%LPD*%
G01*
G04 APERTURE LIST*
G04 Aperture macros list*
%AMRoundRect*
0 Rectangle with rounded corners*
0 $1 Rounding radius*
0 $2 $3 $4 $5 $6 $7 $8 $9 X,Y pos of 4 corners*
0 Add a 4 corners polygon primitive as box body*
4,1,4,$2,$3,$4,$5,$6,$7,$8,$9,$2,$3,0*
0 Add four circle primitives for the rounded corners*
1,1,$1+$1,$2,$3*
1,1,$1+$1,$4,$5*
1,1,$1+$1,$6,$7*
1,1,$1+$1,$8,$9*
0 Add four rect primitives between the rounded corners*
20,1,$1+$1,$2,$3,$4,$5,0*
20,1,$1+$1,$4,$5,$6,$7,0*
20,1,$1+$1,$6,$7,$8,$9,0*
20,1,$1+$1,$8,$9,$2,$3,0*%
%AMHorizOval*
0 Thick line with rounded ends*
0 $1 width*
0 $2 $3 position (X,Y) of the first rounded end (center of the circle)*
0 $4 $5 position (X,Y) of the second rounded end (center of the circle)*
0 Add line between two ends*
20,1,$1,$2,$3,$4,$5,0*
0 Add two circle primitives to create the rounded ends*
1,1,$1,$2,$3*
1,1,$1,$4,$5*%
%AMRotRect*
0 Rectangle, with rotation*
0 The origin of the aperture is its center*
0 $1 length*
0 $2 width*
0 $3 Rotation angle, in degrees counterclockwise*
0 Add horizontal line*
21,1,$1,$2,0,0,$3*%
G04 Aperture macros list end*
%ADD10C,0.150000*%
%ADD11C,0.125000*%
%ADD12R,1.700000X1.700000*%
%ADD13O,1.700000X1.700000*%
%ADD14C,2.775000*%
%ADD15C,2.000000*%
%ADD16C,1.800000*%
%ADD17C,4.667000*%
%ADD18C,4.000000*%
%ADD19C,7.000000*%
%ADD20R,1.500000X1.500000*%
%ADD21C,1.500000*%
%ADD22C,4.455000*%
%ADD23RotRect,1.700000X1.700000X45.000000*%
%ADD24HorizOval,1.700000X0.000000X0.000000X0.000000X0.000000X0*%
%ADD25C,12.000000*%
%ADD26RoundRect,0.200000X0.275000X-0.200000X0.275000X0.200000X-0.275000X0.200000X-0.275000X-0.200000X0*%
%ADD27RoundRect,0.200000X-0.200000X-0.275000X0.200000X-0.275000X0.200000X0.275000X-0.200000X0.275000X0*%
%ADD28RoundRect,0.225000X0.335876X0.017678X0.017678X0.335876X-0.335876X-0.017678X-0.017678X-0.335876X0*%
%ADD29RoundRect,0.225000X-0.225000X-0.250000X0.225000X-0.250000X0.225000X0.250000X-0.225000X0.250000X0*%
%ADD30RoundRect,0.250000X-0.325000X-0.650000X0.325000X-0.650000X0.325000X0.650000X-0.325000X0.650000X0*%
%ADD31RoundRect,0.225000X0.225000X0.250000X-0.225000X0.250000X-0.225000X-0.250000X0.225000X-0.250000X0*%
%ADD32RoundRect,0.200000X0.200000X0.275000X-0.200000X0.275000X-0.200000X-0.275000X0.200000X-0.275000X0*%
%ADD33RoundRect,0.225000X0.250000X-0.225000X0.250000X0.225000X-0.250000X0.225000X-0.250000X-0.225000X0*%
%ADD34RoundRect,0.425000X-0.425000X0.425000X-0.425000X-0.425000X0.425000X-0.425000X0.425000X0.425000X0*%
%ADD35C,1.700000*%
%ADD36R,3.600000X2.050000*%
%ADD37R,1.300000X1.300000*%
%ADD38C,1.300000*%
%ADD39RoundRect,0.200000X0.335876X0.053033X0.053033X0.335876X-0.335876X-0.053033X-0.053033X-0.335876X0*%
%ADD40RoundRect,0.200000X-0.275000X0.200000X-0.275000X-0.200000X0.275000X-0.200000X0.275000X0.200000X0*%
%ADD41RoundRect,0.425000X0.425000X-0.425000X0.425000X0.425000X-0.425000X0.425000X-0.425000X-0.425000X0*%
%ADD42RoundRect,0.250000X0.325000X0.650000X-0.325000X0.650000X-0.325000X-0.650000X0.325000X-0.650000X0*%
%ADD43C,4.800000*%
%ADD44R,2.500000X1.500000*%
%ADD45R,7.000000X7.000000*%
G04 APERTURE END LIST*
D10*
X244551558Y-109956224D02*
G75*
G02*
X243204410Y-109956224I-673574J0D01*
G01*
X243204410Y-109956224D02*
G75*
G02*
X244551558Y-109956224I673574J0D01*
G01*
X246619966Y-109979796D02*
G75*
G02*
X246416004Y-109979796I-101981J0D01*
G01*
X246416004Y-109979796D02*
G75*
G02*
X246619966Y-109979796I101981J0D01*
G01*
X248467984Y-109959797D02*
X247234411Y-109963642D01*
X249811558Y-109946224D02*
G75*
G02*
X248464410Y-109946224I-673574J0D01*
G01*
X248464410Y-109946224D02*
G75*
G02*
X249811558Y-109946224I673574J0D01*
G01*
X246724138Y-109963642D02*
G75*
G02*
X246311828Y-109963642I-206155J0D01*
G01*
X246311828Y-109963642D02*
G75*
G02*
X246724138Y-109963642I206155J0D01*
G01*
X246534137Y-109963642D02*
G75*
G02*
X246501829Y-109963642I-16154J0D01*
G01*
X246501829Y-109963642D02*
G75*
G02*
X246534137Y-109963642I16154J0D01*
G01*
X246067985Y-109469798D02*
G75*
G02*
X246089994Y-110470007I470115J-490002D01*
G01*
X246517985Y-109979796D02*
X244577984Y-109979797D01*
D11*
X243661079Y-109951891D02*
X244042032Y-109951891D01*
X243851555Y-109761415D02*
X243851555Y-110142367D01*
X248937507Y-109941891D02*
X249318460Y-109941891D01*
D10*
X248623110Y-108465091D02*
X247861205Y-108465091D01*
X248289776Y-108846044D02*
X248194538Y-108084139D01*
X247367157Y-107941282D02*
X247313586Y-107893663D01*
X247313586Y-107893663D02*
X247212396Y-107846044D01*
X247212396Y-107846044D02*
X246974300Y-107846044D01*
X246974300Y-107846044D02*
X246885015Y-107893663D01*
X246885015Y-107893663D02*
X246843348Y-107941282D01*
X246843348Y-107941282D02*
X246807634Y-108036520D01*
X246807634Y-108036520D02*
X246819538Y-108131758D01*
X246819538Y-108131758D02*
X246885015Y-108274615D01*
X246885015Y-108274615D02*
X247527872Y-108846044D01*
X247527872Y-108846044D02*
X246908824Y-108846044D01*
X245968348Y-108179377D02*
X246051681Y-108846044D01*
X246158824Y-107798425D02*
X246486205Y-108512710D01*
X246486205Y-108512710D02*
X245867157Y-108512710D01*
X245545729Y-107846044D02*
X245337395Y-108846044D01*
X245337395Y-108846044D02*
X244879062Y-107846044D01*
D12*
%TO.C,DSP2*%
X224903800Y-105512966D03*
D13*
X227443800Y-105512966D03*
X229983800Y-105512966D03*
X232523800Y-105512966D03*
X235063800Y-105512966D03*
X237603800Y-105512966D03*
X240143800Y-105512966D03*
%TD*%
D14*
%TO.C,SW4*%
X165520000Y-91640000D03*
X165520000Y-86940000D03*
X165520000Y-82240000D03*
%TD*%
D15*
%TO.C,TP2*%
X250660000Y-106450000D03*
%TD*%
D16*
%TO.C,SW3*%
X122210000Y-124860000D03*
X127210000Y-124860000D03*
X124710000Y-124860000D03*
D17*
X119210000Y-117360000D03*
X130210000Y-117360000D03*
D16*
X122210000Y-110360000D03*
X127210000Y-110360000D03*
%TD*%
D12*
%TO.C,DSP1*%
X175181000Y-105172183D03*
D18*
X150130000Y-101770217D03*
X150130000Y-126070217D03*
D13*
X175181000Y-107712183D03*
D18*
X181930000Y-101770217D03*
X181930000Y-126070217D03*
D13*
X175181000Y-110252183D03*
X175181000Y-112792183D03*
X175181000Y-115332183D03*
X175181000Y-117872183D03*
X175181000Y-120412183D03*
X175181000Y-122952183D03*
%TD*%
D14*
%TO.C,SW2*%
X149840000Y-91790000D03*
X149840000Y-87090000D03*
X149840000Y-82390000D03*
%TD*%
%TO.C,SW1*%
X181330000Y-91730000D03*
X181330000Y-87030000D03*
X181330000Y-82330000D03*
%TD*%
D19*
%TO.C,H2*%
X69520000Y-125060000D03*
%TD*%
D20*
%TO.C,RV1*%
X203550000Y-126275000D03*
D21*
X206050000Y-126275000D03*
X208550000Y-126275000D03*
X211050000Y-126275000D03*
D22*
X201500000Y-115275000D03*
X213100000Y-115275000D03*
%TD*%
D12*
%TO.C,J1*%
X89220000Y-65145000D03*
D13*
X89220000Y-62605000D03*
%TD*%
D23*
%TO.C,S2*%
X219828164Y-109390401D03*
D24*
X221624216Y-111186453D03*
D25*
X228072039Y-117921645D03*
%TD*%
D19*
%TO.C,H1*%
X249470000Y-65100000D03*
%TD*%
D12*
%TO.C,S1*%
X94429100Y-117524600D03*
D13*
X96969100Y-117524600D03*
D25*
X106290900Y-117727800D03*
%TD*%
D12*
%TO.C,J5*%
X149290000Y-114080000D03*
D13*
X149290000Y-116620000D03*
X149290000Y-119160000D03*
%TD*%
D26*
%TO.C,R7*%
X126970000Y-122075000D03*
X126970000Y-120425000D03*
%TD*%
D27*
%TO.C,R9*%
X118325000Y-113360000D03*
X119975000Y-113360000D03*
%TD*%
D28*
%TO.C,C27*%
X217108008Y-114008008D03*
X216011992Y-112911992D03*
%TD*%
D27*
%TO.C,R14*%
X159755000Y-82550000D03*
X161405000Y-82550000D03*
%TD*%
D29*
%TO.C,C9*%
X175575000Y-85560000D03*
X177125000Y-85560000D03*
%TD*%
D30*
%TO.C,C25*%
X108754999Y-107520000D03*
X111705001Y-107520000D03*
%TD*%
D31*
%TO.C,C13*%
X119925000Y-111860000D03*
X118375000Y-111860000D03*
%TD*%
D32*
%TO.C,R11*%
X119970000Y-110390000D03*
X118320000Y-110390000D03*
%TD*%
D12*
%TO.C,J7*%
X221000000Y-76300000D03*
D13*
X221000000Y-78840000D03*
X221000000Y-81380000D03*
X221000000Y-83920000D03*
%TD*%
D33*
%TO.C,C11*%
X128440000Y-122035000D03*
X128440000Y-120485000D03*
%TD*%
D31*
%TO.C,C8*%
X93135000Y-120300000D03*
X91585000Y-120300000D03*
%TD*%
D27*
%TO.C,R23*%
X167380000Y-63570000D03*
X169030000Y-63570000D03*
%TD*%
D12*
%TO.C,J8*%
X107585000Y-64995000D03*
D13*
X107585000Y-67535000D03*
X107585000Y-70075000D03*
%TD*%
D21*
%TO.C,DRV1*%
X242126200Y-71340100D03*
X242126200Y-73880100D03*
X242126200Y-76420100D03*
X242126200Y-78960100D03*
X242126200Y-81500100D03*
X242126200Y-84040100D03*
X242126200Y-86580100D03*
X242126200Y-89120100D03*
X229426200Y-71416300D03*
X229426200Y-73880100D03*
X229426200Y-76420100D03*
X229426200Y-78960100D03*
X229426200Y-81500100D03*
X229426200Y-84040100D03*
X229426200Y-86580100D03*
X229426200Y-89120100D03*
%TD*%
D12*
%TO.C,J4*%
X189120000Y-91585000D03*
D13*
X191660000Y-91585000D03*
%TD*%
D29*
%TO.C,C10*%
X144095000Y-85490000D03*
X145645000Y-85490000D03*
%TD*%
%TO.C,C14*%
X159815000Y-85550000D03*
X161365000Y-85550000D03*
%TD*%
D34*
%TO.C,VR3*%
X115700000Y-64670000D03*
D35*
X133200000Y-64670000D03*
X133200000Y-104670000D03*
X115700000Y-104670000D03*
%TD*%
D32*
%TO.C,R5*%
X177165000Y-84060000D03*
X175515000Y-84060000D03*
%TD*%
D27*
%TO.C,R3*%
X91530000Y-121840000D03*
X93180000Y-121840000D03*
%TD*%
D36*
%TO.C,C15*%
X224520000Y-67990000D03*
X217420000Y-67990000D03*
%TD*%
D21*
%TO.C,J10*%
X247550000Y-100110000D03*
X242550000Y-96610000D03*
%TD*%
D37*
%TO.C,Q4*%
X174030000Y-62500000D03*
D38*
X172760000Y-63770000D03*
X174030000Y-65040000D03*
%TD*%
D39*
%TO.C,R21*%
X218203363Y-112993363D03*
X217036637Y-111826637D03*
%TD*%
D27*
%TO.C,R2*%
X175535000Y-82560000D03*
X177185000Y-82560000D03*
%TD*%
D39*
%TO.C,R20*%
X219243363Y-111963363D03*
X218076637Y-110796637D03*
%TD*%
D21*
%TO.C,J6*%
X185800000Y-68720000D03*
X189300000Y-63720000D03*
%TD*%
D32*
%TO.C,R15*%
X161405000Y-84060000D03*
X159755000Y-84060000D03*
%TD*%
D27*
%TO.C,R6*%
X144040000Y-82560000D03*
X145690000Y-82560000D03*
%TD*%
D26*
%TO.C,R8*%
X122540000Y-122065000D03*
X122540000Y-120415000D03*
%TD*%
D40*
%TO.C,R13*%
X125490000Y-120415000D03*
X125490000Y-122065000D03*
%TD*%
%TO.C,R10*%
X124020000Y-120415000D03*
X124020000Y-122065000D03*
%TD*%
D26*
%TO.C,R4*%
X94645001Y-121935000D03*
X94645001Y-120285000D03*
%TD*%
D12*
%TO.C,J12*%
X189120000Y-87905000D03*
D13*
X191660000Y-87905000D03*
%TD*%
D41*
%TO.C,VR1*%
X212690000Y-103950000D03*
D35*
X195190000Y-103950000D03*
X195190000Y-63950000D03*
X212690000Y-63950000D03*
%TD*%
D42*
%TO.C,C26*%
X102985000Y-107490000D03*
X100035000Y-107490000D03*
%TD*%
D12*
%TO.C,J3*%
X103675000Y-64995000D03*
D13*
X103675000Y-67535000D03*
X103675000Y-70075000D03*
%TD*%
D12*
%TO.C,J9*%
X191225000Y-78475000D03*
D13*
X191225000Y-81015000D03*
X191225000Y-83555000D03*
%TD*%
D23*
%TO.C,J14*%
X90464205Y-113512102D03*
D24*
X88668154Y-115308153D03*
X88668154Y-111716051D03*
X86872103Y-113512102D03*
X86872103Y-109920000D03*
X85076051Y-111716051D03*
X85076051Y-108123948D03*
X83280000Y-109920000D03*
X83280000Y-106327897D03*
X81483949Y-108123948D03*
%TD*%
D43*
%TO.C,J11*%
X240770000Y-116610000D03*
X246570000Y-116610000D03*
X243770000Y-121410000D03*
%TD*%
D33*
%TO.C,C12*%
X121080000Y-121995000D03*
X121080000Y-120445000D03*
%TD*%
D32*
%TO.C,R12*%
X145685000Y-84020000D03*
X144035000Y-84020000D03*
%TD*%
D44*
%TO.C,VR2*%
X110280000Y-99500000D03*
D45*
X103430000Y-101800000D03*
D44*
X110280000Y-104100000D03*
%TD*%
D12*
%TO.C,J13*%
X111465000Y-64885000D03*
D13*
X111465000Y-67425000D03*
X111465000Y-69965000D03*
%TD*%
M02*
