%TF.GenerationSoftware,KiCad,Pcbnew,8.0.8*%
%TF.CreationDate,2025-04-02T20:08:16-06:00*%
%TF.ProjectId,Animation Platter_V3,416e696d-6174-4696-9f6e-20506c617474,rev?*%
%TF.SameCoordinates,Original*%
%TF.FileFunction,Soldermask,Top*%
%TF.FilePolarity,Negative*%
%FSLAX46Y46*%
G04 Gerber Fmt 4.6, Leading zero omitted, Abs format (unit mm)*
G04 Created by KiCad (PCBNEW 8.0.8) date 2025-04-02 20:08:16*
%MOMM*%
%LPD*%
G01*
G04 APERTURE LIST*
G04 Aperture macros list*
%AMRoundRect*
0 Rectangle with rounded corners*
0 $1 Rounding radius*
0 $2 $3 $4 $5 $6 $7 $8 $9 X,Y pos of 4 corners*
0 Add a 4 corners polygon primitive as box body*
4,1,4,$2,$3,$4,$5,$6,$7,$8,$9,$2,$3,0*
0 Add four circle primitives for the rounded corners*
1,1,$1+$1,$2,$3*
1,1,$1+$1,$4,$5*
1,1,$1+$1,$6,$7*
1,1,$1+$1,$8,$9*
0 Add four rect primitives between the rounded corners*
20,1,$1+$1,$2,$3,$4,$5,0*
20,1,$1+$1,$4,$5,$6,$7,0*
20,1,$1+$1,$6,$7,$8,$9,0*
20,1,$1+$1,$8,$9,$2,$3,0*%
%AMHorizOval*
0 Thick line with rounded ends*
0 $1 width*
0 $2 $3 position (X,Y) of the first rounded end (center of the circle)*
0 $4 $5 position (X,Y) of the second rounded end (center of the circle)*
0 Add line between two ends*
20,1,$1,$2,$3,$4,$5,0*
0 Add two circle primitives to create the rounded ends*
1,1,$1,$2,$3*
1,1,$1,$4,$5*%
%AMRotRect*
0 Rectangle, with rotation*
0 The origin of the aperture is its center*
0 $1 length*
0 $2 width*
0 $3 Rotation angle, in degrees counterclockwise*
0 Add horizontal line*
21,1,$1,$2,0,0,$3*%
G04 Aperture macros list end*
%ADD10C,0.150000*%
%ADD11C,0.200000*%
%ADD12RoundRect,0.200000X-0.053033X0.335876X-0.335876X0.053033X0.053033X-0.335876X0.335876X-0.053033X0*%
%ADD13RoundRect,0.200000X0.053033X-0.335876X0.335876X-0.053033X-0.053033X0.335876X-0.335876X0.053033X0*%
%ADD14RoundRect,0.225000X-0.017678X0.335876X-0.335876X0.017678X0.017678X-0.335876X0.335876X-0.017678X0*%
%ADD15R,1.700000X1.700000*%
%ADD16O,1.700000X1.700000*%
%ADD17RotRect,0.700000X1.525000X315.000000*%
%ADD18RoundRect,0.200000X-0.200000X-0.275000X0.200000X-0.275000X0.200000X0.275000X-0.200000X0.275000X0*%
%ADD19RoundRect,0.225000X0.335876X0.017678X0.017678X0.335876X-0.335876X-0.017678X-0.017678X-0.335876X0*%
%ADD20RoundRect,0.225000X0.017678X-0.335876X0.335876X-0.017678X-0.017678X0.335876X-0.335876X0.017678X0*%
%ADD21R,1.500000X0.900000*%
%ADD22R,2.000000X1.000000*%
%ADD23R,1.000000X0.600000*%
%ADD24RoundRect,0.200000X-0.335876X-0.053033X-0.053033X-0.335876X0.335876X0.053033X0.053033X0.335876X0*%
%ADD25C,2.775000*%
%ADD26C,2.000000*%
%ADD27RoundRect,0.218750X-0.026517X0.335876X-0.335876X0.026517X0.026517X-0.335876X0.335876X-0.026517X0*%
%ADD28C,1.800000*%
%ADD29C,4.667000*%
%ADD30RoundRect,0.225000X-0.225000X-0.250000X0.225000X-0.250000X0.225000X0.250000X-0.225000X0.250000X0*%
%ADD31RoundRect,0.218750X0.026517X-0.335876X0.335876X-0.026517X-0.026517X0.335876X-0.335876X0.026517X0*%
%ADD32RoundRect,0.200000X0.335876X0.053033X0.053033X0.335876X-0.335876X-0.053033X-0.053033X-0.335876X0*%
%ADD33RotRect,1.150000X1.000000X45.000000*%
%ADD34C,4.000000*%
%ADD35RoundRect,0.225000X-0.335876X-0.017678X-0.017678X-0.335876X0.335876X0.017678X0.017678X0.335876X0*%
%ADD36RoundRect,0.200000X0.200000X0.275000X-0.200000X0.275000X-0.200000X-0.275000X0.200000X-0.275000X0*%
%ADD37RotRect,0.300000X0.850000X135.000000*%
%ADD38RoundRect,0.225000X0.225000X0.250000X-0.225000X0.250000X-0.225000X-0.250000X0.225000X-0.250000X0*%
%ADD39C,7.000000*%
%ADD40RotRect,1.500000X0.800000X225.000000*%
%ADD41R,1.500000X1.500000*%
%ADD42C,1.500000*%
%ADD43C,4.455000*%
%ADD44R,5.100000X2.500000*%
%ADD45C,17.800000*%
%ADD46RotRect,1.700000X1.700000X45.000000*%
%ADD47HorizOval,1.700000X0.000000X0.000000X0.000000X0.000000X0*%
%ADD48C,12.000000*%
%ADD49RoundRect,0.075000X-0.441942X-0.548008X0.548008X0.441942X0.441942X0.548008X-0.548008X-0.441942X0*%
%ADD50RoundRect,0.075000X0.441942X-0.548008X0.548008X-0.441942X-0.441942X0.548008X-0.548008X0.441942X0*%
%ADD51R,0.850000X0.300000*%
%ADD52RotRect,0.450000X1.400000X135.000000*%
%ADD53RoundRect,0.425000X-0.425000X0.425000X-0.425000X-0.425000X0.425000X-0.425000X0.425000X0.425000X0*%
%ADD54C,1.700000*%
%ADD55R,1.300000X1.300000*%
%ADD56C,1.300000*%
%ADD57RoundRect,0.425000X0.425000X-0.425000X0.425000X0.425000X-0.425000X0.425000X-0.425000X-0.425000X0*%
%ADD58C,4.800000*%
G04 APERTURE END LIST*
D10*
X81531133Y-66898445D02*
X81531133Y-67660350D01*
X81150180Y-67231779D02*
X81912085Y-67327017D01*
D11*
X218771816Y-128691504D02*
X219248006Y-128691504D01*
X218640863Y-128977219D02*
X219099197Y-127977219D01*
X219099197Y-127977219D02*
X219307530Y-128977219D01*
X219724197Y-128310552D02*
X219640863Y-128977219D01*
X219712292Y-128405790D02*
X219765863Y-128358171D01*
X219765863Y-128358171D02*
X219867054Y-128310552D01*
X219867054Y-128310552D02*
X220009911Y-128310552D01*
X220009911Y-128310552D02*
X220099197Y-128358171D01*
X220099197Y-128358171D02*
X220134911Y-128453409D01*
X220134911Y-128453409D02*
X220069435Y-128977219D01*
X220545625Y-128977219D02*
X220628959Y-128310552D01*
X220670625Y-127977219D02*
X220617054Y-128024838D01*
X220617054Y-128024838D02*
X220658721Y-128072457D01*
X220658721Y-128072457D02*
X220712292Y-128024838D01*
X220712292Y-128024838D02*
X220670625Y-127977219D01*
X220670625Y-127977219D02*
X220658721Y-128072457D01*
X221021815Y-128977219D02*
X221105149Y-128310552D01*
X221093244Y-128405790D02*
X221146815Y-128358171D01*
X221146815Y-128358171D02*
X221248006Y-128310552D01*
X221248006Y-128310552D02*
X221390863Y-128310552D01*
X221390863Y-128310552D02*
X221480149Y-128358171D01*
X221480149Y-128358171D02*
X221515863Y-128453409D01*
X221515863Y-128453409D02*
X221450387Y-128977219D01*
X221515863Y-128453409D02*
X221575387Y-128358171D01*
X221575387Y-128358171D02*
X221676577Y-128310552D01*
X221676577Y-128310552D02*
X221819434Y-128310552D01*
X221819434Y-128310552D02*
X221908720Y-128358171D01*
X221908720Y-128358171D02*
X221944434Y-128453409D01*
X221944434Y-128453409D02*
X221878958Y-128977219D01*
X222783720Y-128977219D02*
X222849196Y-128453409D01*
X222849196Y-128453409D02*
X222813482Y-128358171D01*
X222813482Y-128358171D02*
X222724196Y-128310552D01*
X222724196Y-128310552D02*
X222533720Y-128310552D01*
X222533720Y-128310552D02*
X222432529Y-128358171D01*
X222789672Y-128929600D02*
X222688482Y-128977219D01*
X222688482Y-128977219D02*
X222450386Y-128977219D01*
X222450386Y-128977219D02*
X222361101Y-128929600D01*
X222361101Y-128929600D02*
X222325386Y-128834361D01*
X222325386Y-128834361D02*
X222337291Y-128739123D01*
X222337291Y-128739123D02*
X222396815Y-128643885D01*
X222396815Y-128643885D02*
X222498006Y-128596266D01*
X222498006Y-128596266D02*
X222736101Y-128596266D01*
X222736101Y-128596266D02*
X222837291Y-128548647D01*
X223200387Y-128310552D02*
X223581339Y-128310552D01*
X223384910Y-127977219D02*
X223277768Y-128834361D01*
X223277768Y-128834361D02*
X223313482Y-128929600D01*
X223313482Y-128929600D02*
X223402768Y-128977219D01*
X223402768Y-128977219D02*
X223498006Y-128977219D01*
X223831339Y-128977219D02*
X223914673Y-128310552D01*
X223956339Y-127977219D02*
X223902768Y-128024838D01*
X223902768Y-128024838D02*
X223944435Y-128072457D01*
X223944435Y-128072457D02*
X223998006Y-128024838D01*
X223998006Y-128024838D02*
X223956339Y-127977219D01*
X223956339Y-127977219D02*
X223944435Y-128072457D01*
X224450387Y-128977219D02*
X224361101Y-128929600D01*
X224361101Y-128929600D02*
X224319434Y-128881980D01*
X224319434Y-128881980D02*
X224283720Y-128786742D01*
X224283720Y-128786742D02*
X224319434Y-128501028D01*
X224319434Y-128501028D02*
X224378958Y-128405790D01*
X224378958Y-128405790D02*
X224432529Y-128358171D01*
X224432529Y-128358171D02*
X224533720Y-128310552D01*
X224533720Y-128310552D02*
X224676577Y-128310552D01*
X224676577Y-128310552D02*
X224765863Y-128358171D01*
X224765863Y-128358171D02*
X224807529Y-128405790D01*
X224807529Y-128405790D02*
X224843244Y-128501028D01*
X224843244Y-128501028D02*
X224807529Y-128786742D01*
X224807529Y-128786742D02*
X224748006Y-128881980D01*
X224748006Y-128881980D02*
X224694434Y-128929600D01*
X224694434Y-128929600D02*
X224593244Y-128977219D01*
X224593244Y-128977219D02*
X224450387Y-128977219D01*
X225295625Y-128310552D02*
X225212291Y-128977219D01*
X225283720Y-128405790D02*
X225337291Y-128358171D01*
X225337291Y-128358171D02*
X225438482Y-128310552D01*
X225438482Y-128310552D02*
X225581339Y-128310552D01*
X225581339Y-128310552D02*
X225670625Y-128358171D01*
X225670625Y-128358171D02*
X225706339Y-128453409D01*
X225706339Y-128453409D02*
X225640863Y-128977219D01*
X226878958Y-128977219D02*
X227003958Y-127977219D01*
X227003958Y-127977219D02*
X227384911Y-127977219D01*
X227384911Y-127977219D02*
X227474196Y-128024838D01*
X227474196Y-128024838D02*
X227515863Y-128072457D01*
X227515863Y-128072457D02*
X227551577Y-128167695D01*
X227551577Y-128167695D02*
X227533720Y-128310552D01*
X227533720Y-128310552D02*
X227474196Y-128405790D01*
X227474196Y-128405790D02*
X227420625Y-128453409D01*
X227420625Y-128453409D02*
X227319435Y-128501028D01*
X227319435Y-128501028D02*
X226938482Y-128501028D01*
X228021816Y-128977219D02*
X227932530Y-128929600D01*
X227932530Y-128929600D02*
X227896816Y-128834361D01*
X227896816Y-128834361D02*
X228003958Y-127977219D01*
X228831340Y-128977219D02*
X228896816Y-128453409D01*
X228896816Y-128453409D02*
X228861102Y-128358171D01*
X228861102Y-128358171D02*
X228771816Y-128310552D01*
X228771816Y-128310552D02*
X228581340Y-128310552D01*
X228581340Y-128310552D02*
X228480149Y-128358171D01*
X228837292Y-128929600D02*
X228736102Y-128977219D01*
X228736102Y-128977219D02*
X228498006Y-128977219D01*
X228498006Y-128977219D02*
X228408721Y-128929600D01*
X228408721Y-128929600D02*
X228373006Y-128834361D01*
X228373006Y-128834361D02*
X228384911Y-128739123D01*
X228384911Y-128739123D02*
X228444435Y-128643885D01*
X228444435Y-128643885D02*
X228545626Y-128596266D01*
X228545626Y-128596266D02*
X228783721Y-128596266D01*
X228783721Y-128596266D02*
X228884911Y-128548647D01*
X229248007Y-128310552D02*
X229628959Y-128310552D01*
X229432530Y-127977219D02*
X229325388Y-128834361D01*
X229325388Y-128834361D02*
X229361102Y-128929600D01*
X229361102Y-128929600D02*
X229450388Y-128977219D01*
X229450388Y-128977219D02*
X229545626Y-128977219D01*
X229819436Y-128310552D02*
X230200388Y-128310552D01*
X230003959Y-127977219D02*
X229896817Y-128834361D01*
X229896817Y-128834361D02*
X229932531Y-128929600D01*
X229932531Y-128929600D02*
X230021817Y-128977219D01*
X230021817Y-128977219D02*
X230117055Y-128977219D01*
X230837293Y-128929600D02*
X230736103Y-128977219D01*
X230736103Y-128977219D02*
X230545626Y-128977219D01*
X230545626Y-128977219D02*
X230456341Y-128929600D01*
X230456341Y-128929600D02*
X230420626Y-128834361D01*
X230420626Y-128834361D02*
X230468246Y-128453409D01*
X230468246Y-128453409D02*
X230527769Y-128358171D01*
X230527769Y-128358171D02*
X230628960Y-128310552D01*
X230628960Y-128310552D02*
X230819436Y-128310552D01*
X230819436Y-128310552D02*
X230908722Y-128358171D01*
X230908722Y-128358171D02*
X230944436Y-128453409D01*
X230944436Y-128453409D02*
X230932531Y-128548647D01*
X230932531Y-128548647D02*
X230444436Y-128643885D01*
X231307531Y-128977219D02*
X231390865Y-128310552D01*
X231367055Y-128501028D02*
X231426579Y-128405790D01*
X231426579Y-128405790D02*
X231480150Y-128358171D01*
X231480150Y-128358171D02*
X231581341Y-128310552D01*
X231581341Y-128310552D02*
X231676579Y-128310552D01*
X231676579Y-129072457D02*
X232438484Y-129072457D01*
X232670627Y-127977219D02*
X232878961Y-128977219D01*
X232878961Y-128977219D02*
X233337294Y-127977219D01*
X233575389Y-127977219D02*
X234194437Y-127977219D01*
X234194437Y-127977219D02*
X233813485Y-128358171D01*
X233813485Y-128358171D02*
X233956342Y-128358171D01*
X233956342Y-128358171D02*
X234045627Y-128405790D01*
X234045627Y-128405790D02*
X234087294Y-128453409D01*
X234087294Y-128453409D02*
X234123008Y-128548647D01*
X234123008Y-128548647D02*
X234093246Y-128786742D01*
X234093246Y-128786742D02*
X234033723Y-128881980D01*
X234033723Y-128881980D02*
X233980151Y-128929600D01*
X233980151Y-128929600D02*
X233878961Y-128977219D01*
X233878961Y-128977219D02*
X233593246Y-128977219D01*
X233593246Y-128977219D02*
X233503961Y-128929600D01*
X233503961Y-128929600D02*
X233462294Y-128881980D01*
X234509913Y-128881980D02*
X234551580Y-128929600D01*
X234551580Y-128929600D02*
X234498008Y-128977219D01*
X234498008Y-128977219D02*
X234456342Y-128929600D01*
X234456342Y-128929600D02*
X234509913Y-128881980D01*
X234509913Y-128881980D02*
X234498008Y-128977219D01*
X235289675Y-127977219D02*
X235384913Y-127977219D01*
X235384913Y-127977219D02*
X235474198Y-128024838D01*
X235474198Y-128024838D02*
X235515865Y-128072457D01*
X235515865Y-128072457D02*
X235551579Y-128167695D01*
X235551579Y-128167695D02*
X235575389Y-128358171D01*
X235575389Y-128358171D02*
X235545627Y-128596266D01*
X235545627Y-128596266D02*
X235474198Y-128786742D01*
X235474198Y-128786742D02*
X235414675Y-128881980D01*
X235414675Y-128881980D02*
X235361103Y-128929600D01*
X235361103Y-128929600D02*
X235259913Y-128977219D01*
X235259913Y-128977219D02*
X235164675Y-128977219D01*
X235164675Y-128977219D02*
X235075389Y-128929600D01*
X235075389Y-128929600D02*
X235033722Y-128881980D01*
X235033722Y-128881980D02*
X234998008Y-128786742D01*
X234998008Y-128786742D02*
X234974198Y-128596266D01*
X234974198Y-128596266D02*
X235003960Y-128358171D01*
X235003960Y-128358171D02*
X235075389Y-128167695D01*
X235075389Y-128167695D02*
X235134913Y-128072457D01*
X235134913Y-128072457D02*
X235188484Y-128024838D01*
X235188484Y-128024838D02*
X235289675Y-127977219D01*
X236676580Y-128691504D02*
X237152770Y-128691504D01*
X236545627Y-128977219D02*
X237003961Y-127977219D01*
X237003961Y-127977219D02*
X237212294Y-128977219D01*
X237628961Y-128310552D02*
X237503961Y-129310552D01*
X237623008Y-128358171D02*
X237724199Y-128310552D01*
X237724199Y-128310552D02*
X237914675Y-128310552D01*
X237914675Y-128310552D02*
X238003961Y-128358171D01*
X238003961Y-128358171D02*
X238045627Y-128405790D01*
X238045627Y-128405790D02*
X238081342Y-128501028D01*
X238081342Y-128501028D02*
X238045627Y-128786742D01*
X238045627Y-128786742D02*
X237986104Y-128881980D01*
X237986104Y-128881980D02*
X237932532Y-128929600D01*
X237932532Y-128929600D02*
X237831342Y-128977219D01*
X237831342Y-128977219D02*
X237640865Y-128977219D01*
X237640865Y-128977219D02*
X237551580Y-128929600D01*
X238450389Y-128977219D02*
X238533723Y-128310552D01*
X238509913Y-128501028D02*
X238569437Y-128405790D01*
X238569437Y-128405790D02*
X238623008Y-128358171D01*
X238623008Y-128358171D02*
X238724199Y-128310552D01*
X238724199Y-128310552D02*
X238819437Y-128310552D01*
X239069437Y-128977219D02*
X239152771Y-128310552D01*
X239194437Y-127977219D02*
X239140866Y-128024838D01*
X239140866Y-128024838D02*
X239182533Y-128072457D01*
X239182533Y-128072457D02*
X239236104Y-128024838D01*
X239236104Y-128024838D02*
X239194437Y-127977219D01*
X239194437Y-127977219D02*
X239182533Y-128072457D01*
X239688485Y-128977219D02*
X239599199Y-128929600D01*
X239599199Y-128929600D02*
X239563485Y-128834361D01*
X239563485Y-128834361D02*
X239670627Y-127977219D01*
X240896819Y-128072457D02*
X240950390Y-128024838D01*
X240950390Y-128024838D02*
X241051580Y-127977219D01*
X241051580Y-127977219D02*
X241289676Y-127977219D01*
X241289676Y-127977219D02*
X241378961Y-128024838D01*
X241378961Y-128024838D02*
X241420628Y-128072457D01*
X241420628Y-128072457D02*
X241456342Y-128167695D01*
X241456342Y-128167695D02*
X241444438Y-128262933D01*
X241444438Y-128262933D02*
X241378961Y-128405790D01*
X241378961Y-128405790D02*
X240736104Y-128977219D01*
X240736104Y-128977219D02*
X241355152Y-128977219D01*
X242099200Y-127977219D02*
X242194438Y-127977219D01*
X242194438Y-127977219D02*
X242283723Y-128024838D01*
X242283723Y-128024838D02*
X242325390Y-128072457D01*
X242325390Y-128072457D02*
X242361104Y-128167695D01*
X242361104Y-128167695D02*
X242384914Y-128358171D01*
X242384914Y-128358171D02*
X242355152Y-128596266D01*
X242355152Y-128596266D02*
X242283723Y-128786742D01*
X242283723Y-128786742D02*
X242224200Y-128881980D01*
X242224200Y-128881980D02*
X242170628Y-128929600D01*
X242170628Y-128929600D02*
X242069438Y-128977219D01*
X242069438Y-128977219D02*
X241974200Y-128977219D01*
X241974200Y-128977219D02*
X241884914Y-128929600D01*
X241884914Y-128929600D02*
X241843247Y-128881980D01*
X241843247Y-128881980D02*
X241807533Y-128786742D01*
X241807533Y-128786742D02*
X241783723Y-128596266D01*
X241783723Y-128596266D02*
X241813485Y-128358171D01*
X241813485Y-128358171D02*
X241884914Y-128167695D01*
X241884914Y-128167695D02*
X241944438Y-128072457D01*
X241944438Y-128072457D02*
X241998009Y-128024838D01*
X241998009Y-128024838D02*
X242099200Y-127977219D01*
X242801581Y-128072457D02*
X242855152Y-128024838D01*
X242855152Y-128024838D02*
X242956342Y-127977219D01*
X242956342Y-127977219D02*
X243194438Y-127977219D01*
X243194438Y-127977219D02*
X243283723Y-128024838D01*
X243283723Y-128024838D02*
X243325390Y-128072457D01*
X243325390Y-128072457D02*
X243361104Y-128167695D01*
X243361104Y-128167695D02*
X243349200Y-128262933D01*
X243349200Y-128262933D02*
X243283723Y-128405790D01*
X243283723Y-128405790D02*
X242640866Y-128977219D01*
X242640866Y-128977219D02*
X243259914Y-128977219D01*
X244289676Y-127977219D02*
X243813485Y-127977219D01*
X243813485Y-127977219D02*
X243706343Y-128453409D01*
X243706343Y-128453409D02*
X243759914Y-128405790D01*
X243759914Y-128405790D02*
X243861104Y-128358171D01*
X243861104Y-128358171D02*
X244099200Y-128358171D01*
X244099200Y-128358171D02*
X244188485Y-128405790D01*
X244188485Y-128405790D02*
X244230152Y-128453409D01*
X244230152Y-128453409D02*
X244265866Y-128548647D01*
X244265866Y-128548647D02*
X244236104Y-128786742D01*
X244236104Y-128786742D02*
X244176581Y-128881980D01*
X244176581Y-128881980D02*
X244123009Y-128929600D01*
X244123009Y-128929600D02*
X244021819Y-128977219D01*
X244021819Y-128977219D02*
X243783723Y-128977219D01*
X243783723Y-128977219D02*
X243694438Y-128929600D01*
X243694438Y-128929600D02*
X243652771Y-128881980D01*
D10*
%TO.C,REF\u002A\u002A*%
X247944900Y-127361400D02*
X250570100Y-127348600D01*
X247945100Y-124698600D02*
X247944900Y-127361400D01*
X247945100Y-124698600D02*
X250570300Y-124685800D01*
X248745000Y-124455000D02*
X248745200Y-124242200D01*
X248745100Y-126898600D02*
X247944900Y-127361400D01*
X248745100Y-126898600D02*
X248745100Y-124948600D01*
X248745100Y-126898600D02*
X250320100Y-126898600D01*
X248745300Y-124235800D02*
X247945100Y-124698600D01*
X248745300Y-124235800D02*
X251370500Y-124223000D01*
X249402550Y-126493725D02*
X249387650Y-125053475D01*
X249887650Y-126503475D02*
X249395100Y-125773600D01*
X249937650Y-125078475D02*
X249395100Y-125773600D01*
X250570300Y-124685800D02*
X250570100Y-127348600D01*
X250870100Y-126898600D02*
X251370300Y-126885800D01*
X251370300Y-126885800D02*
X250570100Y-127348600D01*
X251370500Y-124223000D02*
X250570300Y-124685800D01*
X251370500Y-124223000D02*
X251370300Y-126885800D01*
%TD*%
D12*
%TO.C,D6*%
X110493363Y-81456637D03*
X109326637Y-82623363D03*
%TD*%
D13*
%TO.C,R29*%
X135790933Y-90753612D03*
X136957659Y-89586886D03*
%TD*%
D14*
%TO.C,C28*%
X123799727Y-84215893D03*
X122703711Y-85311909D03*
%TD*%
D15*
%TO.C,DSP2*%
X224903800Y-105512966D03*
D16*
X227443800Y-105512966D03*
X229983800Y-105512966D03*
X232523800Y-105512966D03*
X235063800Y-105512966D03*
X237603800Y-105512966D03*
X240143800Y-105512966D03*
%TD*%
D17*
%TO.C,U3*%
X125578101Y-80104067D03*
X124680075Y-79206041D03*
X123782050Y-78308016D03*
X122884024Y-77409990D03*
X119048677Y-81245337D03*
X119946703Y-82143363D03*
X120844728Y-83041388D03*
X121742754Y-83939414D03*
%TD*%
D18*
%TO.C,R18*%
X79625001Y-73870000D03*
X81275001Y-73870000D03*
%TD*%
D12*
%TO.C,D1*%
X106273363Y-77276637D03*
X105106637Y-78443363D03*
%TD*%
D13*
%TO.C,D3*%
X88156637Y-92483363D03*
X89323363Y-91316637D03*
%TD*%
D19*
%TO.C,C5*%
X90798008Y-88918008D03*
X89701992Y-87821992D03*
%TD*%
D20*
%TO.C,C6*%
X106181992Y-79448008D03*
X107278008Y-78351992D03*
%TD*%
D21*
%TO.C,D19*%
X152310000Y-71620000D03*
X152310000Y-68320000D03*
X147410000Y-68320000D03*
X147410000Y-71620000D03*
%TD*%
D22*
%TO.C,J2*%
X81120000Y-65640000D03*
X77620000Y-65640000D03*
X81120000Y-63100000D03*
X77620000Y-63100000D03*
%TD*%
D23*
%TO.C,Q1*%
X86340000Y-67290000D03*
X86340000Y-65390000D03*
X84040000Y-66340000D03*
%TD*%
D24*
%TO.C,R35*%
X92090829Y-74430514D03*
X93257555Y-75597240D03*
%TD*%
%TO.C,R33*%
X96886637Y-76196637D03*
X98053363Y-77363363D03*
%TD*%
D12*
%TO.C,R30*%
X127715773Y-96806446D03*
X126549047Y-97973172D03*
%TD*%
D13*
%TO.C,R17*%
X97756637Y-102333363D03*
X98923363Y-101166637D03*
%TD*%
D25*
%TO.C,SW4*%
X165520000Y-91640000D03*
X165520000Y-86940000D03*
X165520000Y-82240000D03*
%TD*%
D26*
%TO.C,TP2*%
X250660000Y-106450000D03*
%TD*%
D21*
%TO.C,D14*%
X78460000Y-115830000D03*
X78460000Y-119130000D03*
X83360000Y-119130000D03*
X83360000Y-115830000D03*
%TD*%
D27*
%TO.C,D18*%
X126635668Y-95779373D03*
X125521974Y-96893067D03*
%TD*%
D21*
%TO.C,D21*%
X183850000Y-71730000D03*
X183850000Y-68430000D03*
X178950000Y-68430000D03*
X178950000Y-71730000D03*
%TD*%
D20*
%TO.C,C4*%
X107221992Y-80498008D03*
X108318008Y-79401992D03*
%TD*%
D13*
%TO.C,R28*%
X124448940Y-95873065D03*
X125615666Y-94706339D03*
%TD*%
%TO.C,R26*%
X132679663Y-87642342D03*
X133846389Y-86475616D03*
%TD*%
D28*
%TO.C,SW3*%
X122210000Y-124860000D03*
X127210000Y-124860000D03*
X124710000Y-124860000D03*
D29*
X119210000Y-117360000D03*
X130210000Y-117360000D03*
D28*
X122210000Y-110360000D03*
X127210000Y-110360000D03*
%TD*%
D13*
%TO.C,R27*%
X133719110Y-88681789D03*
X134885836Y-87515063D03*
%TD*%
%TO.C,R31*%
X134758557Y-89721236D03*
X135925283Y-88554510D03*
%TD*%
D19*
%TO.C,C23*%
X91818008Y-87868008D03*
X90721992Y-86771992D03*
%TD*%
D30*
%TO.C,C17*%
X77935000Y-113910000D03*
X79485000Y-113910000D03*
%TD*%
D31*
%TO.C,D13*%
X98854189Y-103335812D03*
X99967883Y-102222118D03*
%TD*%
D18*
%TO.C,R24*%
X79625002Y-72379999D03*
X81275002Y-72379999D03*
%TD*%
D32*
%TO.C,D22*%
X91796637Y-83744023D03*
X90629911Y-82577297D03*
%TD*%
%TO.C,D9*%
X109033363Y-98893363D03*
X107866637Y-97726637D03*
%TD*%
D33*
%TO.C,Y1*%
X93291256Y-97853693D03*
X94528693Y-96616256D03*
X93538744Y-95626307D03*
X92301307Y-96863744D03*
%TD*%
D18*
%TO.C,R25*%
X70075002Y-72370000D03*
X71725002Y-72370000D03*
%TD*%
D15*
%TO.C,DSP1*%
X175181000Y-105172183D03*
D34*
X150130000Y-101770217D03*
X150130000Y-126070217D03*
D16*
X175181000Y-107712183D03*
D34*
X181930000Y-101770217D03*
X181930000Y-126070217D03*
D16*
X175181000Y-110252183D03*
X175181000Y-112792183D03*
X175181000Y-115332183D03*
X175181000Y-117872183D03*
X175181000Y-120412183D03*
X175181000Y-122952183D03*
%TD*%
D32*
%TO.C,D10*%
X112183363Y-95763363D03*
X111016637Y-94596637D03*
%TD*%
D21*
%TO.C,D20*%
X167770000Y-71720000D03*
X167770000Y-68420000D03*
X162870000Y-68420000D03*
X162870000Y-71720000D03*
%TD*%
D25*
%TO.C,SW2*%
X149840000Y-91790000D03*
X149840000Y-87090000D03*
X149840000Y-82390000D03*
%TD*%
D35*
%TO.C,C7*%
X113131992Y-92541992D03*
X114228008Y-93638008D03*
%TD*%
D12*
%TO.C,D7*%
X109443363Y-80406637D03*
X108276637Y-81573363D03*
%TD*%
D36*
%TO.C,D16*%
X81285001Y-70880000D03*
X79635001Y-70880000D03*
%TD*%
D14*
%TO.C,C2*%
X92378008Y-94481992D03*
X91281992Y-95578008D03*
%TD*%
D18*
%TO.C,D12*%
X70075000Y-75339999D03*
X71725000Y-75339999D03*
%TD*%
D24*
%TO.C,R36*%
X94777835Y-74105245D03*
X95944561Y-75271971D03*
%TD*%
D37*
%TO.C,U5*%
X92005977Y-78793363D03*
X92359530Y-79146916D03*
X92713084Y-79500470D03*
X93066637Y-79854023D03*
X95294023Y-77626637D03*
X94940470Y-77273084D03*
X94586916Y-76919530D03*
X94233363Y-76565977D03*
%TD*%
D32*
%TO.C,D5*%
X110073363Y-97873363D03*
X108906637Y-96706637D03*
%TD*%
D24*
%TO.C,D25*%
X95831424Y-73051656D03*
X96998150Y-74218382D03*
%TD*%
D12*
%TO.C,D2*%
X105233363Y-76226637D03*
X104066637Y-77393363D03*
%TD*%
D25*
%TO.C,SW1*%
X181330000Y-91730000D03*
X181330000Y-87030000D03*
X181330000Y-82330000D03*
%TD*%
D24*
%TO.C,D24*%
X88534082Y-80419709D03*
X89700808Y-81586435D03*
%TD*%
D14*
%TO.C,C1*%
X96788008Y-99071992D03*
X95691992Y-100168008D03*
%TD*%
D20*
%TO.C,C3*%
X94641992Y-99128008D03*
X95738008Y-98031992D03*
%TD*%
D35*
%TO.C,C29*%
X112091992Y-93581992D03*
X113188008Y-94678008D03*
%TD*%
D38*
%TO.C,C18*%
X152495000Y-73580000D03*
X150945000Y-73580000D03*
%TD*%
D18*
%TO.C,R19*%
X70075002Y-73840000D03*
X71725002Y-73840000D03*
%TD*%
D20*
%TO.C,C31*%
X128818859Y-89509105D03*
X129914875Y-88413089D03*
%TD*%
D39*
%TO.C,H2*%
X69520000Y-125060000D03*
%TD*%
D40*
%TO.C,Y2*%
X127680330Y-78150330D03*
X126619670Y-77089670D03*
%TD*%
D32*
%TO.C,D23*%
X99083363Y-76323363D03*
X97916637Y-75156637D03*
%TD*%
D24*
%TO.C,R34*%
X89566458Y-79373191D03*
X90733184Y-80539917D03*
%TD*%
D18*
%TO.C,D17*%
X70085001Y-70899999D03*
X71735001Y-70899999D03*
%TD*%
D38*
%TO.C,C19*%
X167820000Y-73740000D03*
X166270000Y-73740000D03*
%TD*%
D35*
%TO.C,C22*%
X114181992Y-91501992D03*
X115278008Y-92598008D03*
%TD*%
D13*
%TO.C,D8*%
X90226637Y-94573363D03*
X91393363Y-93406637D03*
%TD*%
D14*
%TO.C,C21*%
X97848008Y-100151992D03*
X96751992Y-101248008D03*
%TD*%
D41*
%TO.C,RV1*%
X203550000Y-126275000D03*
D42*
X206050000Y-126275000D03*
X208550000Y-126275000D03*
X211050000Y-126275000D03*
D43*
X201500000Y-115275000D03*
X213100000Y-115275000D03*
%TD*%
D15*
%TO.C,J1*%
X89220000Y-65145000D03*
D16*
X89220000Y-62605000D03*
%TD*%
D36*
%TO.C,D11*%
X81285002Y-75330001D03*
X79635002Y-75330001D03*
%TD*%
D44*
%TO.C,BT1*%
X75050000Y-103020002D03*
D45*
X75050000Y-91570001D03*
D44*
X75050000Y-80120000D03*
%TD*%
D46*
%TO.C,S2*%
X219828164Y-109390401D03*
D47*
X221624216Y-111186453D03*
D48*
X228072039Y-117921645D03*
%TD*%
D32*
%TO.C,D4*%
X111113363Y-96813363D03*
X109946637Y-95646637D03*
%TD*%
D24*
%TO.C,R1*%
X91736637Y-85696637D03*
X92903363Y-86863363D03*
%TD*%
%TO.C,R32*%
X91703274Y-81510660D03*
X92870000Y-82677386D03*
%TD*%
D38*
%TO.C,C20*%
X184025000Y-73680000D03*
X182475000Y-73680000D03*
%TD*%
D13*
%TO.C,D15*%
X89196637Y-93523363D03*
X90363363Y-92356637D03*
%TD*%
D30*
%TO.C,C16*%
X74165001Y-75029999D03*
X75715001Y-75029999D03*
%TD*%
D39*
%TO.C,H1*%
X249470000Y-65100000D03*
%TD*%
D15*
%TO.C,S1*%
X94429100Y-117524600D03*
D16*
X96969100Y-117524600D03*
D48*
X106290900Y-117727800D03*
%TD*%
D49*
%TO.C,U1*%
X94995519Y-92151181D03*
X95349072Y-92504734D03*
X95702625Y-92858287D03*
X96056179Y-93211841D03*
X96409732Y-93565394D03*
X96763286Y-93918948D03*
X97116839Y-94272501D03*
X97470392Y-94626054D03*
X97823946Y-94979608D03*
X98177499Y-95333161D03*
X98531052Y-95686714D03*
X98884606Y-96040268D03*
X99238159Y-96393821D03*
X99591713Y-96747375D03*
X99945266Y-97100928D03*
X100298819Y-97454481D03*
D50*
X103021181Y-97454481D03*
X103374734Y-97100928D03*
X103728287Y-96747375D03*
X104081841Y-96393821D03*
X104435394Y-96040268D03*
X104788948Y-95686714D03*
X105142501Y-95333161D03*
X105496054Y-94979608D03*
X105849608Y-94626054D03*
X106203161Y-94272501D03*
X106556714Y-93918948D03*
X106910268Y-93565394D03*
X107263821Y-93211841D03*
X107617375Y-92858287D03*
X107970928Y-92504734D03*
X108324481Y-92151181D03*
D49*
X108324481Y-89428819D03*
X107970928Y-89075266D03*
X107617375Y-88721713D03*
X107263821Y-88368159D03*
X106910268Y-88014606D03*
X106556714Y-87661052D03*
X106203161Y-87307499D03*
X105849608Y-86953946D03*
X105496054Y-86600392D03*
X105142501Y-86246839D03*
X104788948Y-85893286D03*
X104435394Y-85539732D03*
X104081841Y-85186179D03*
X103728287Y-84832625D03*
X103374734Y-84479072D03*
X103021181Y-84125519D03*
D50*
X100298819Y-84125519D03*
X99945266Y-84479072D03*
X99591713Y-84832625D03*
X99238159Y-85186179D03*
X98884606Y-85539732D03*
X98531052Y-85893286D03*
X98177499Y-86246839D03*
X97823946Y-86600392D03*
X97470392Y-86953946D03*
X97116839Y-87307499D03*
X96763286Y-87661052D03*
X96409732Y-88014606D03*
X96056179Y-88368159D03*
X95702625Y-88721713D03*
X95349072Y-89075266D03*
X94995519Y-89428819D03*
%TD*%
D51*
%TO.C,U2*%
X77285000Y-73710000D03*
X77285000Y-73210000D03*
X77285000Y-72710000D03*
X77285000Y-72210000D03*
X74135000Y-72210000D03*
X74135000Y-72710000D03*
X74135000Y-73210000D03*
X74135000Y-73710000D03*
%TD*%
D35*
%TO.C,C24*%
X106571992Y-99131992D03*
X107668008Y-100228008D03*
%TD*%
D52*
%TO.C,U4*%
X127736986Y-92804222D03*
X128196605Y-93263841D03*
X128656225Y-93723461D03*
X129115844Y-94183080D03*
X132227114Y-91071810D03*
X131767495Y-90612191D03*
X131307875Y-90152571D03*
X130848256Y-89692952D03*
%TD*%
D15*
%TO.C,J5*%
X149290000Y-114080000D03*
D16*
X149290000Y-116620000D03*
X149290000Y-119160000D03*
%TD*%
D15*
%TO.C,J7*%
X221000000Y-76300000D03*
D16*
X221000000Y-78840000D03*
X221000000Y-81380000D03*
X221000000Y-83920000D03*
%TD*%
D15*
%TO.C,J8*%
X107585000Y-64995000D03*
D16*
X107585000Y-67535000D03*
X107585000Y-70075000D03*
%TD*%
D42*
%TO.C,DRV1*%
X242126200Y-71340100D03*
X242126200Y-73880100D03*
X242126200Y-76420100D03*
X242126200Y-78960100D03*
X242126200Y-81500100D03*
X242126200Y-84040100D03*
X242126200Y-86580100D03*
X242126200Y-89120100D03*
X229426200Y-71416300D03*
X229426200Y-73880100D03*
X229426200Y-76420100D03*
X229426200Y-78960100D03*
X229426200Y-81500100D03*
X229426200Y-84040100D03*
X229426200Y-86580100D03*
X229426200Y-89120100D03*
%TD*%
D15*
%TO.C,J4*%
X189120000Y-91585000D03*
D16*
X191660000Y-91585000D03*
%TD*%
D53*
%TO.C,VR3*%
X115700000Y-64670000D03*
D54*
X133200000Y-64670000D03*
X133200000Y-104670000D03*
X115700000Y-104670000D03*
%TD*%
D42*
%TO.C,J10*%
X247550000Y-100110000D03*
X242550000Y-96610000D03*
%TD*%
D55*
%TO.C,Q4*%
X174030000Y-62500000D03*
D56*
X172760000Y-63770000D03*
X174030000Y-65040000D03*
%TD*%
D42*
%TO.C,J6*%
X185800000Y-68720000D03*
X189300000Y-63720000D03*
%TD*%
D15*
%TO.C,J12*%
X189120000Y-87905000D03*
D16*
X191660000Y-87905000D03*
%TD*%
D57*
%TO.C,VR1*%
X212690000Y-103950000D03*
D54*
X195190000Y-103950000D03*
X195190000Y-63950000D03*
X212690000Y-63950000D03*
%TD*%
D15*
%TO.C,J3*%
X103675000Y-64995000D03*
D16*
X103675000Y-67535000D03*
X103675000Y-70075000D03*
%TD*%
D15*
%TO.C,J9*%
X191225000Y-78475000D03*
D16*
X191225000Y-81015000D03*
X191225000Y-83555000D03*
%TD*%
D46*
%TO.C,J14*%
X90464205Y-113512102D03*
D47*
X88668154Y-115308153D03*
X88668154Y-111716051D03*
X86872103Y-113512102D03*
X86872103Y-109920000D03*
X85076051Y-111716051D03*
X85076051Y-108123948D03*
X83280000Y-109920000D03*
X83280000Y-106327897D03*
X81483949Y-108123948D03*
%TD*%
D58*
%TO.C,J11*%
X240770000Y-116610000D03*
X246570000Y-116610000D03*
X243770000Y-121410000D03*
%TD*%
D15*
%TO.C,J13*%
X111465000Y-64885000D03*
D16*
X111465000Y-67425000D03*
X111465000Y-69965000D03*
%TD*%
M02*
