M48
; DRILL file {KiCad 8.0.8} date 2025-04-02T20:08:04-0600
; FORMAT={-:-/ absolute / inch / decimal}
; #@! TF.CreationDate,2025-04-02T20:08:04-06:00
; #@! TF.GenerationSoftware,Kicad,Pcbnew,8.0.8
; #@! TF.FileFunction,Plated,1,6,PTH
FMAT,2
INCH
; #@! TA.AperFunction,Plated,PTH,ViaDrill
T1C0.0118
; #@! TA.AperFunction,Plated,PTH,ViaDrill
T2C0.0236
; #@! TA.AperFunction,Plated,PTH,ComponentDrill
T3C0.0295
; #@! TA.AperFunction,Plated,PTH,ComponentDrill
T4C0.0394
; #@! TA.AperFunction,Plated,PTH,ComponentDrill
T5C0.0472
; #@! TA.AperFunction,Plated,PTH,ComponentDrill
T6C0.0728
; #@! TA.AperFunction,Plated,PTH,ComponentDrill
T7C0.0984
; #@! TA.AperFunction,Plated,PTH,ComponentDrill
T8C0.1169
; #@! TA.AperFunction,Plated,PTH,ComponentDrill
T9C0.1225
; #@! TA.AperFunction,Plated,PTH,ComponentDrill
T10C0.1260
; #@! TA.AperFunction,Plated,PTH,ComponentDrill
T11C0.1378
; #@! TA.AperFunction,Plated,PTH,ComponentDrill
T12C0.2953
%
G90
G05
T1
X2.6283Y-3.0
X2.7039Y-3.0165
X2.7602Y-2.7362
X2.7602Y-3.0169
X2.8866Y-3.0232
X2.9185Y-3.0008
X2.9835Y-2.4858
X2.9909Y-4.2248
X3.0134Y-4.7236
X3.0142Y-4.6898
X3.028Y-2.9543
X3.0433Y-2.8118
X3.0559Y-2.4295
X3.1685Y-4.4843
X3.1976Y-4.5953
X3.2Y-2.7402
X3.202Y-3.0173
X3.2165Y-4.5583
X3.2335Y-3.1031
X3.2339Y-4.6898
X3.2689Y-2.4937
X3.2913Y-2.4555
X3.2976Y-3.2398
X3.376Y-3.0258
X3.3992Y-2.6134
X3.413Y-2.7091
X3.4154Y-3.0138
X3.4484Y-3.6654
X3.4524Y-2.7055
X3.4602Y-3.1004
X3.4618Y-3.1406
X3.4677Y-2.8106
X3.4689Y-2.8783
X3.4886Y-3.7051
X3.4984Y-3.0957
X3.4992Y-3.4331
X3.5307Y-3.7476
X3.5382Y-3.3929
X3.5697Y-3.7886
X3.5732Y-4.7366
X3.5732Y-4.7972
X3.574Y-2.9256
X3.5791Y-3.3504
X3.6Y-3.0803
X3.6039Y-3.8406
X3.6177Y-3.4988
X3.6268Y-3.3323
X3.6283Y-3.0555
X3.6335Y-3.6774
X3.6339Y-2.461
X3.6539Y-3.0787
X3.6594Y-3.298
X3.7087Y-3.5382
X3.7138Y-3.9358
X3.7319Y-4.5205
X3.7343Y-3.5681
X3.7547Y-3.9827
X3.7654Y-4.5445
X3.7827Y-3.5563
X3.7929Y-3.5941
X3.7988Y-2.85
X3.8075Y-4.0244
X3.8146Y-3.7823
X3.8181Y-3.0717
X3.8197Y-3.5661
X3.828Y-3.5106
X3.8421Y-3.6303
X3.8453Y-3.8252
X3.8472Y-3.5421
X3.852Y-3.3205
X3.8646Y-3.6673
X3.8862Y-2.9248
X3.8866Y-4.1094
X3.8882Y-2.8386
X3.889Y-3.2697
X3.9028Y-3.7142
X3.9035Y-3.4449
X3.9035Y-4.2299
X3.9059Y-3.6705
X3.9087Y-2.9524
X3.9189Y-2.8768
X3.9243Y-3.2198
X3.9252Y-2.9768
X3.9331Y-2.6272
X3.9331Y-3.4878
X3.939Y-3.7004
X3.9398Y-3.452
X3.9413Y-3.4138
X3.9413Y-3.7445
X3.965Y-3.2252
X3.9709Y-3.3638
X3.972Y-3.7732
X3.9972Y-3.8138
X4.0037Y-3.2226
X4.0043Y-3.1815
X4.0122Y-3.8469
X4.0165Y-4.2346
X4.0287Y-3.7819
X4.0315Y-3.7087
X4.0386Y-3.7461
X4.0512Y-3.4079
X4.0669Y-3.6945
X4.0701Y-3.7291
X4.0945Y-4.2343
X4.098Y-3.289
X4.1075Y-3.45
X4.1079Y-3.7035
X4.135Y-3.6693
X4.1492Y-3.1567
X4.1559Y-3.3252
X4.1642Y-3.8563
X4.1657Y-2.9772
X4.1937Y-3.3492
X4.2079Y-3.0161
X4.2138Y-3.602
X4.2441Y-4.2315
X4.2512Y-3.0563
X4.2618Y-3.9748
X4.2689Y-3.7386
X4.2864Y-3.2707
X4.2906Y-3.6075
X4.2921Y-3.0949
X4.3028Y-3.7081
X4.3201Y-4.2335
X4.3327Y-3.135
X4.3417Y-3.9173
X4.3524Y-3.8768
X4.3756Y-3.1787
X4.3839Y-3.8445
X4.4169Y-3.6157
X4.4512Y-3.5925
X4.4878Y-3.737
X4.5193Y-3.7165
X4.5559Y-3.6791
X4.5969Y-4.3358
X4.6232Y-4.4031
X4.6252Y-4.4646
X4.6402Y-3.1886
X4.6414Y-3.2442
X4.6476Y-3.6402
X4.6846Y-2.6858
X4.726Y-4.8063
X4.7606Y-3.1854
X4.7787Y-4.8555
X4.7933Y-3.1803
X4.8157Y-3.024
X4.8268Y-4.8358
X4.8398Y-4.678
X4.8598Y-3.7248
X4.8642Y-3.2728
X4.878Y-4.6783
X4.9335Y-4.678
X4.9748Y-4.678
X4.9823Y-3.6335
X4.9992Y-3.9331
X5.0Y-4.837
X5.0457Y-3.5012
X5.0508Y-3.9335
X5.0579Y-4.8394
X5.0846Y-2.6937
X5.1051Y-3.7346
X5.2921Y-3.3831
X5.3311Y-3.4224
X5.3335Y-4.3937
X5.3508Y-4.8457
X5.4118Y-3.5035
X5.5236Y-4.0878
X5.6051Y-3.3323
X5.6287Y-3.3016
X5.6319Y-3.365
X5.672Y-3.2181
X5.6894Y-2.7799
X5.6894Y-2.8217
X5.863Y-2.6862
X5.8949Y-2.8992
X6.0063Y-3.4374
X6.0118Y-3.2453
X6.1311Y-4.6827
X6.2429Y-3.3102
X6.2472Y-3.2724
X6.2539Y-2.7209
X6.2594Y-3.3665
X6.2594Y-4.0622
X6.2894Y-3.2122
X6.3535Y-4.6114
X6.3736Y-5.0106
X6.4205Y-4.1138
X6.4598Y-2.6906
X6.5012Y-2.55
X6.5114Y-2.9043
X6.5634Y-2.5732
X6.6185Y-3.2449
X6.6311Y-3.426
X6.665Y-4.1236
X6.665Y-4.237
X6.7685Y-2.4476
X6.7701Y-3.1606
X6.7898Y-4.2398
X6.7965Y-4.1291
X6.8004Y-4.387
X6.8417Y-3.3157
X6.8661Y-3.287
X6.8803Y-3.3693
X6.8807Y-3.2528
X6.9913Y-4.7465
X7.063Y-4.6283
X7.0776Y-4.5307
X7.0961Y-2.6937
X7.1469Y-2.8996
X7.2421Y-3.2339
X7.2421Y-3.4264
X7.2965Y-2.9504
X7.363Y-3.6098
X7.3642Y-2.4591
X7.3665Y-3.4602
X7.4209Y-3.0516
X7.4335Y-3.1425
X7.472Y-4.5276
X7.6461Y-3.2945
X7.6472Y-3.185
X7.6496Y-3.0906
X7.9118Y-2.5224
X7.9685Y-3.8319
X7.9748Y-3.2713
X8.0165Y-4.8783
X8.1929Y-4.8732
X8.2878Y-4.0575
X8.2909Y-2.9846
X8.2937Y-3.5902
X8.4823Y-4.4217
X8.5661Y-2.7665
X8.5689Y-2.5898
X8.5831Y-4.837
X8.6008Y-4.5913
X8.6429Y-4.4551
X9.1087Y-3.7606
X9.2083Y-2.5921
X9.2598Y-4.0606
X9.2976Y-3.2846
X9.324Y-4.3126
X9.3319Y-2.5457
X9.4146Y-4.9122
X9.6441Y-3.3311
X9.7894Y-4.0311
X9.8402Y-3.9256
X9.8654Y-2.889
X9.8681Y-3.5398
X9.9024Y-4.6358
T2
X4.072Y-4.0079
X4.1614Y-4.1024
X4.8173Y-3.2299
X4.9544Y-3.885
T3
X6.8016Y-2.5106
X6.8516Y-2.4606
X6.8516Y-2.5606
T4
X3.208Y-4.2568
X3.2787Y-4.1861
X3.2787Y-4.3276
X3.3495Y-4.2568
X3.3495Y-4.3983
X3.4202Y-4.3276
X3.4202Y-4.469
X3.4909Y-4.3983
X3.4909Y-4.5397
X3.5126Y-2.4648
X3.5126Y-2.5648
X3.5616Y-4.469
X3.7177Y-4.627
X3.8177Y-4.627
X4.0817Y-2.5589
X4.0817Y-2.6589
X4.0817Y-2.7589
X4.2356Y-2.5589
X4.2356Y-2.6589
X4.2356Y-2.7589
X4.3884Y-2.5545
X4.3884Y-2.6545
X4.3884Y-2.7545
X4.5551Y-2.5461
X4.5551Y-4.1209
X5.2441Y-2.5461
X5.2441Y-4.1209
X5.8776Y-4.4913
X5.8776Y-4.5913
X5.8776Y-4.6913
X6.8969Y-4.1406
X6.8969Y-4.2406
X6.8969Y-4.3406
X6.8969Y-4.4406
X6.8969Y-4.5406
X6.8969Y-4.6406
X6.8969Y-4.7406
X6.8969Y-4.8406
X7.315Y-2.7055
X7.4457Y-3.4608
X7.4457Y-3.6057
X7.4528Y-2.5087
X7.5285Y-3.0896
X7.5285Y-3.1896
X7.5285Y-3.2896
X7.5457Y-3.4608
X7.5457Y-3.6057
X7.6846Y-2.5177
X7.6846Y-4.0925
X8.0138Y-4.9715
X8.1122Y-4.9715
X8.2106Y-4.9715
X8.3091Y-4.9715
X8.3736Y-2.5177
X8.3736Y-4.0925
X8.6547Y-4.3067
X8.7008Y-3.0039
X8.7008Y-3.1039
X8.7008Y-3.2039
X8.7008Y-3.3039
X8.7254Y-4.3774
X8.8545Y-4.1541
X8.9545Y-4.1541
X9.0325Y-2.8117
X9.0325Y-2.9087
X9.0325Y-3.0087
X9.0325Y-3.1087
X9.0325Y-3.2087
X9.0325Y-3.3087
X9.0325Y-3.4087
X9.0325Y-3.5087
X9.0545Y-4.1541
X9.1545Y-4.1541
X9.2545Y-4.1541
X9.3545Y-4.1541
X9.4545Y-4.1541
X9.5325Y-2.8087
X9.5325Y-2.9087
X9.5325Y-3.0087
X9.5325Y-3.1087
X9.5325Y-3.2087
X9.5325Y-3.3087
X9.5325Y-3.4087
X9.5325Y-3.5087
X9.5492Y-3.8035
X9.7461Y-3.9413
X9.8685Y-4.1909
T5
X4.8114Y-4.3449
X4.8114Y-4.9157
X4.9098Y-4.9157
X5.0083Y-4.3449
X5.0083Y-4.9157
T6
X5.8992Y-3.2437
X5.8992Y-3.4287
X5.8992Y-3.6138
X6.5165Y-3.2378
X6.5165Y-3.4228
X6.5165Y-3.6079
X7.139Y-3.2413
X7.139Y-3.4264
X7.139Y-3.6114
T7
X5.9106Y-4.0067
X5.9106Y-4.9634
X7.1626Y-4.0067
X7.1626Y-4.9634
T8
X7.9331Y-4.5384
X8.3898Y-4.5384
T9
X4.6933Y-4.6205
X5.1264Y-4.6205
T10
X9.4791Y-4.5909
X9.5972Y-4.7799
X9.7075Y-4.5909
T11
X2.737Y-4.9236
X9.8217Y-2.563
T12
X4.1847Y-4.635
X8.9792Y-4.6426
M30
