M48
; DRILL file {KiCad 9.0.6} date 2025-12-07T15:07:31-0700
; FORMAT={-:-/ absolute / metric / decimal}
; #@! TF.CreationDate,2025-12-07T15:07:31-07:00
; #@! TF.GenerationSoftware,Kicad,Pcbnew,9.0.6
; #@! TF.FileFunction,Plated,1,4,PTH
FMAT,2
METRIC
; #@! TA.AperFunction,Plated,PTH,ViaDrill
T1C0.300
; #@! TA.AperFunction,Plated,PTH,ViaDrill
T2C0.400
; #@! TA.AperFunction,Plated,PTH,ViaDrill
T3C0.600
; #@! TA.AperFunction,Plated,PTH,ViaDrill
T4C0.800
; #@! TA.AperFunction,Plated,PTH,ComponentDrill
T5C0.950
; #@! TA.AperFunction,Plated,PTH,ComponentDrill
T6C1.000
; #@! TA.AperFunction,Plated,PTH,ComponentDrill
T7C1.200
; #@! TA.AperFunction,Plated,PTH,ComponentDrill
T8C1.300
; #@! TA.AperFunction,Plated,PTH,ComponentDrill
T9C1.850
; #@! TA.AperFunction,Plated,PTH,ComponentDrill
T10C2.500
; #@! TA.AperFunction,Plated,PTH,ComponentDrill
T11C2.970
; #@! TA.AperFunction,Plated,PTH,ComponentDrill
T12C3.111
; #@! TA.AperFunction,Plated,PTH,ComponentDrill
T13C3.200
; #@! TA.AperFunction,Plated,PTH,ComponentDrill
T14C3.500
; #@! TA.AperFunction,Plated,PTH,ComponentDrill
T15C7.500
%
G90
G05
T1
X65.75Y-85.15
X65.75Y-92.8
X65.75Y-96.25
X65.8Y-89.1
X65.85Y-81.25
X65.95Y-101.3
X66.1Y-77.55
X66.1Y-120.5
X66.25Y-117.4
X66.6Y-106.7
X66.65Y-111.2
X66.65Y-112.1
X66.85Y-99.0
X66.85Y-104.6
X67.05Y-65.3
X67.1Y-62.4
X67.2Y-108.6
X67.4Y-119.35
X67.6Y-109.85
X67.6Y-110.75
X67.85Y-78.5
X68.4Y-108.25
X68.55Y-86.9
X68.6Y-109.6
X68.65Y-106.05
X68.85Y-91.2
X68.85Y-96.2
X69.4Y-103.8
X69.5Y-100.4
X69.6Y-101.85
X69.65Y-85.85
X70.2Y-85.2
X70.4Y-64.35
X71.0Y-94.0
X71.8Y-80.3
X72.5Y-96.8
X72.55Y-62.5
X72.95Y-65.35
X73.1Y-114.0
X73.2Y-108.35
X73.5Y-96.9
X73.6Y-96.15
X73.6Y-105.55
X73.75Y-82.1
X73.75Y-107.4
X73.85Y-128.6
X74.0Y-70.35
X74.0Y-108.3
X74.35Y-105.95
X74.55Y-98.85
X74.6Y-68.05
X74.95Y-126.85
X75.15Y-109.3
X75.3Y-98.85
X75.3Y-110.05
X75.6Y-114.6
X75.65Y-117.1
X75.95Y-63.1
X76.1Y-79.95
X76.15Y-110.45
X76.35Y-128.55
X76.45Y-73.45
X76.45Y-98.5
X76.65Y-88.5
X76.65Y-100.05
X76.7Y-86.45
X77.0Y-80.0
X77.0Y-100.7
X77.15Y-111.5
X77.25Y-99.65
X77.35Y-76.1
X77.35Y-76.9
X77.55Y-98.4
X77.6Y-86.45
X77.6Y-97.5
X77.65Y-62.0
X78.05Y-100.5
X78.1Y-71.6
X78.2Y-99.5
X78.3Y-101.5
X78.35Y-97.0
X78.55Y-106.6
X78.65Y-107.9
X78.9Y-85.6
X79.0Y-96.4
X79.05Y-87.9
X79.2Y-107.25
X79.25Y-69.9
X79.25Y-108.3
X79.3Y-111.0
X79.8Y-110.5
X79.85Y-107.65
X80.25Y-100.9
X80.35Y-79.7
X80.425Y-102.125
X81.25Y-85.2
X81.4Y-114.65
X81.45Y-83.6
X81.45Y-86.5
X81.7Y-103.5
X81.8Y-100.75
X81.8Y-101.6
X81.9Y-104.25
X82.15Y-84.45
X82.3Y-71.8
X82.4Y-75.5
X82.9Y-76.45
X82.9Y-103.35
X82.9Y-107.25
X83.0Y-102.1
X83.15Y-86.25
X83.2Y-111.45
X83.35Y-107.9
X83.5Y-77.0
X83.6Y-67.85
X83.6Y-91.05
X83.65Y-102.6
X83.65Y-120.9
X83.85Y-110.2
X84.05Y-100.35
X84.2Y-74.45
X84.2Y-83.7
X84.25Y-96.7
X84.3Y-98.3
X84.3Y-101.8
X84.35Y-110.85
X84.45Y-91.7
X84.95Y-83.6
X84.95Y-100.0
X85.0Y-74.5
X85.0Y-89.3
X85.0Y-121.7
X85.1Y-99.05
X85.5Y-88.35
X85.5Y-93.0
X85.7Y-98.2
X85.9Y-100.9
X86.0Y-71.7
X86.2Y-93.35
X86.3Y-100.3
X86.3Y-111.15
X86.45Y-75.25
X86.55Y-72.25
X86.6Y-74.4
X86.65Y-63.05
X86.9Y-88.75
X87.0Y-99.85
X87.05Y-93.85
X87.05Y-123.75
X87.35Y-110.15
X87.9Y-89.8
X87.95Y-71.65
X87.95Y-75.05
X88.0Y-64.55
X88.35Y-95.6
X88.5Y-94.85
X88.55Y-109.4
X88.8Y-83.25
X88.9Y-76.5
X88.9Y-96.4
X89.4Y-94.05
X89.65Y-83.25
X89.9Y-93.35
X90.25Y-123.35
X90.4Y-86.85
X90.55Y-99.75
X90.6Y-107.1
X90.9Y-71.95
X91.3Y-93.4
X91.35Y-98.95
X91.55Y-119.9
X91.6Y-102.5
X91.7Y-83.4
X91.7Y-106.0
X91.85Y-86.7
X92.2Y-103.0
X92.25Y-67.7
X92.35Y-78.4
X92.45Y-101.35
X92.6Y-65.25
X92.65Y-105.05
X92.75Y-86.6
X93.05Y-90.55
X93.3Y-101.1
X93.9Y-65.45
X93.9Y-75.55
X93.9Y-118.55
X94.1Y-67.4
X94.1Y-122.3
X94.35Y-90.1
X94.45Y-74.9
X94.45Y-98.8
X94.5Y-72.6
X94.55Y-62.85
X94.55Y-64.1
X94.75Y-110.5
X95.05Y-98.25
X95.35Y-109.7
X95.8Y-65.65
X95.85Y-123.7
X96.0Y-120.25
X96.6Y-108.55
X96.85Y-111.7
X97.1Y-62.25
X97.3Y-107.75
X97.4Y-114.35
X98.1Y-64.05
X98.5Y-64.75
X98.6Y-100.05
X98.7Y-98.35
X98.75Y-72.05
X98.75Y-90.6
X98.75Y-123.7
X99.05Y-75.4
X99.05Y-110.75
X99.25Y-86.25
X99.4Y-88.7
X99.55Y-87.5
X99.55Y-100.35
X99.65Y-74.65
X99.7Y-63.25
X99.95Y-89.4
X100.15Y-86.2
X100.3Y-82.0
X100.7Y-105.0
X101.1Y-62.5
X101.1Y-71.7
X101.15Y-94.05
X101.3Y-64.55
X101.35Y-75.95
X101.8Y-63.35
X102.35Y-62.65
X102.95Y-82.3
X102.95Y-105.0
X103.05Y-83.15
X103.75Y-93.25
X104.05Y-103.75
X104.55Y-72.8
X104.75Y-95.65
X104.8Y-73.65
X104.95Y-88.25
X105.1Y-86.45
X105.4Y-73.1
X105.65Y-83.4
X105.65Y-88.25
X106.5Y-73.7
X106.8Y-98.55
X106.95Y-69.55
X106.95Y-88.1
X107.25Y-103.7
X107.5Y-81.8
X108.4Y-107.0
X109.15Y-70.1
X109.4Y-71.0
X109.45Y-66.8
X109.7Y-83.75
X109.7Y-93.1
X109.8Y-107.05
X110.0Y-79.15
X110.2Y-79.9
X110.2Y-82.95
X110.7Y-70.6
X110.8Y-77.85
X110.85Y-72.95
X110.85Y-96.95
X110.9Y-71.45
X110.95Y-79.0
X111.05Y-83.6
X111.25Y-81.85
X111.45Y-73.4
X111.7Y-86.45
X111.85Y-65.55
X112.15Y-79.05
X112.25Y-109.9
X112.3Y-104.3
X112.95Y-96.8
X113.15Y-90.6
X113.7Y-104.35
X113.8Y-79.8
X113.8Y-102.85
X113.85Y-76.85
X114.1Y-113.05
X114.4Y-71.35
X115.35Y-116.8
X115.45Y-72.45
X115.7Y-78.05
X116.05Y-75.4
X116.45Y-124.25
X116.5Y-74.8
X116.8Y-113.45
X117.55Y-94.9
X117.55Y-99.85
X117.6Y-97.05
X117.6Y-109.95
X117.7Y-82.4
X118.05Y-88.5
X118.1Y-92.7
X118.15Y-91.2
X118.15Y-121.7
X118.15Y-122.6
X118.35Y-106.05
X119.3Y-86.9
X119.3Y-112.45
X119.35Y-72.7
X119.85Y-75.2
X120.025Y-76.075
X120.6Y-123.7
X120.65Y-90.5
X120.65Y-93.45
X120.7Y-76.75
X120.7Y-79.6
X121.2Y-74.65
X121.2Y-83.85
X121.6Y-113.45
X121.6Y-114.35
X122.1Y-106.05
X122.5Y-80.35
X122.65Y-81.2
X123.05Y-72.15
X123.1Y-93.5
X123.15Y-96.35
X123.35Y-99.55
X123.4Y-87.95
X123.4Y-100.65
X123.45Y-89.15
X123.5Y-90.3
X123.7Y-123.6
X123.95Y-115.45
X124.05Y-102.2
X124.45Y-83.5
X124.75Y-87.9
X124.75Y-89.15
X125.05Y-99.85
X125.25Y-92.05
X125.85Y-123.7
X125.95Y-89.95
X125.95Y-98.6
X126.15Y-106.1
X126.5Y-89.0
X126.7Y-99.9
X127.45Y-94.25
X127.5Y-102.25
X127.7Y-89.95
X127.7Y-98.6
X128.05Y-112.75
X128.2Y-80.55
X128.2Y-114.85
X128.25Y-113.9
X128.3Y-82.1
X128.35Y-88.65
X128.35Y-123.7
X128.4Y-99.9
X128.55Y-79.6
X128.9Y-80.35
X129.35Y-90.0
X129.4Y-98.6
X129.85Y-79.95
X130.2Y-99.85
X130.7Y-122.6
X130.75Y-80.25
X130.8Y-66.6
X130.9Y-89.95
X130.95Y-98.55
X131.05Y-121.65
X131.6Y-76.85
X131.85Y-76.05
X131.9Y-69.9
X131.9Y-92.5
X131.9Y-100.25
X131.95Y-97.1
X132.0Y-91.45
X132.25Y-94.25
X132.25Y-95.4
X132.3Y-98.45
X132.65Y-84.35
X132.8Y-92.65
X133.0Y-101.35
X133.05Y-83.5
X133.2Y-88.4
X133.4Y-80.2
X134.05Y-102.4
X135.05Y-90.55
X135.25Y-102.55
X135.5Y-71.8
X135.65Y-69.15
X136.2Y-89.4
X136.4Y-116.75
X136.5Y-109.35
X136.7Y-84.65
X136.75Y-83.7
X136.8Y-92.55
X137.45Y-93.1
X137.8Y-89.55
X139.95Y-110.25
X139.95Y-111.1
X140.15Y-81.45
X140.85Y-70.4
X140.85Y-96.95
X140.9Y-103.1
X141.35Y-76.65
X141.35Y-79.2
X141.35Y-120.95
X142.55Y-110.25
X142.55Y-111.1
X142.6Y-128.75
X143.05Y-85.5
X143.1Y-68.4
X143.1Y-82.5
X143.1Y-87.0
X143.5Y-81.5
X144.3Y-121.05
X144.6Y-112.6
X145.1Y-76.2
X145.15Y-78.85
X145.15Y-79.75
X145.2Y-77.2
X146.2Y-110.2
X146.9Y-121.55
X147.0Y-91.3
X147.15Y-90.4
X147.75Y-102.85
X147.9Y-121.55
X147.95Y-112.55
X148.15Y-97.8
X148.7Y-68.4
X149.15Y-71.2
X149.3Y-110.15
X150.4Y-70.75
X150.4Y-99.1
X150.4Y-101.8
X150.8Y-72.65
X151.0Y-112.6
X151.15Y-128.85
X151.2Y-97.8
X151.2Y-102.7
X152.3Y-83.55
X152.3Y-109.85
X152.5Y-91.65
X152.7Y-87.1
X152.75Y-97.8
X152.8Y-102.65
X154.3Y-112.6
X154.6Y-81.2
X155.95Y-102.05
X156.0Y-109.95
X156.25Y-68.05
X156.75Y-115.9
X156.9Y-78.35
X157.6Y-112.6
X157.65Y-88.55
X158.3Y-68.05
X158.4Y-77.75
X159.0Y-109.75
X159.15Y-78.2
X159.75Y-81.6
X159.75Y-88.05
X160.2Y-99.0
X160.35Y-102.25
X160.35Y-112.35
X160.55Y-81.35
X160.65Y-68.05
X160.7Y-128.85
X161.5Y-109.85
X161.6Y-102.6
X161.75Y-68.5
X162.15Y-97.85
X163.15Y-111.75
X163.3Y-91.05
X164.0Y-103.8
X164.55Y-113.9
X164.6Y-68.55
X164.85Y-67.25
X165.15Y-76.65
X165.2Y-120.85
X165.95Y-101.4
X166.15Y-102.45
X166.85Y-74.75
X167.15Y-97.95
X167.25Y-89.2
X167.25Y-114.85
X167.6Y-128.85
X167.8Y-84.4
X167.8Y-102.4
X168.45Y-91.85
X169.0Y-120.75
X169.2Y-113.3
X169.5Y-91.95
X169.95Y-98.55
X170.0Y-102.05
X170.35Y-75.6
X170.35Y-88.2
X170.35Y-89.15
X170.45Y-91.75
X170.8Y-71.8
X171.1Y-85.65
X171.8Y-102.5
X171.85Y-81.75
X171.95Y-97.7
X172.2Y-93.4
X172.2Y-115.6
X172.9Y-120.8
X173.1Y-68.3
X173.7Y-104.15
X173.75Y-91.1
X173.95Y-90.4
X174.5Y-128.85
X174.65Y-87.05
X174.65Y-113.2
X174.75Y-81.85
X175.3Y-102.4
X175.55Y-81.45
X175.7Y-101.4
X176.05Y-67.55
X176.7Y-86.1
X176.9Y-76.75
X177.3Y-97.95
X177.6Y-102.55
X177.7Y-88.55
X177.7Y-89.35
X177.75Y-91.1
X178.85Y-67.65
X178.85Y-102.45
X179.05Y-97.95
X179.2Y-77.1
X179.55Y-128.9
X179.65Y-89.75
X179.8Y-111.45
X181.05Y-98.95
X182.2Y-69.6
X182.95Y-74.9
X182.95Y-103.3
X183.35Y-89.7
X183.5Y-84.95
X183.85Y-94.5
X183.85Y-115.95
X184.6Y-114.55
X185.0Y-78.3
X185.15Y-77.5
X185.35Y-129.0
X185.55Y-100.9
X185.7Y-76.3
X187.15Y-89.4
X187.15Y-103.05
X187.2Y-96.55
X187.25Y-111.45
X187.3Y-86.15
X187.3Y-92.7
X187.7Y-118.3
X187.85Y-115.45
X188.9Y-72.5
X188.95Y-77.8
X188.95Y-78.65
X189.45Y-125.05
X189.95Y-81.55
X191.25Y-70.0
X191.7Y-129.05
X191.8Y-94.95
X191.8Y-98.4
X191.8Y-101.5
X191.85Y-65.0
X192.1Y-72.9
X192.425Y-64.425
X192.7Y-89.55
X192.7Y-91.1
X192.7Y-92.55
X192.9Y-86.65
X192.95Y-81.45
X193.2Y-107.25
X193.3Y-82.35
X193.65Y-83.1
X193.65Y-84.05
X193.65Y-87.15
X193.95Y-106.9
X194.1Y-95.1
X195.3Y-69.3
X195.7Y-80.15
X195.9Y-81.8
X196.0Y-72.55
X196.1Y-84.05
X196.1Y-99.7
X196.35Y-93.6
X196.5Y-129.0
X196.6Y-94.8
X196.75Y-72.55
X196.85Y-77.65
X196.95Y-73.85
X197.55Y-73.1
X197.55Y-89.55
X197.6Y-77.6
X197.95Y-122.55
X200.05Y-94.8
X200.65Y-67.35
X200.8Y-72.55
X200.9Y-76.4
X200.95Y-128.15
X201.65Y-75.15
X201.75Y-73.0
X201.75Y-73.8
X202.2Y-90.55
X202.3Y-76.4
X202.55Y-75.15
X202.7Y-125.65
X203.25Y-85.85
X203.7Y-68.15
X203.8Y-119.4
X204.0Y-82.9
X204.35Y-127.9
X204.9Y-78.95
X204.95Y-80.4
X204.95Y-120.45
X205.25Y-74.75
X205.25Y-75.5
X205.45Y-90.2
X205.5Y-99.7
X205.5Y-103.3
X205.525Y-85.175
X205.85Y-95.85
X205.9Y-80.3
X205.95Y-94.4
X206.1Y-90.75
X206.7Y-86.25
X206.8Y-94.4
X207.3Y-120.75
X207.55Y-61.65
X207.75Y-72.75
X208.05Y-128.45
X208.5Y-72.75
X208.5Y-117.9
X209.3Y-102.6
X209.9Y-115.0
X210.55Y-65.85
X210.75Y-121.6
X211.4Y-107.85
X211.6Y-61.35
X212.7Y-122.5
X212.75Y-114.55
X212.95Y-117.8
X213.55Y-78.1
X213.9Y-93.75
X214.55Y-110.05
X215.25Y-61.4
X215.6Y-70.7
X216.4Y-122.25
X216.45Y-95.7
X216.5Y-103.45
X217.0Y-127.7
X217.4Y-93.55
X217.5Y-98.2
X217.7Y-80.0
X217.7Y-125.45
X217.75Y-78.75
X217.95Y-70.4
X218.15Y-66.85
X218.55Y-77.9
X218.6Y-80.5
X218.65Y-79.25
X218.7Y-70.35
X218.75Y-119.55
X218.85Y-73.95
X219.05Y-110.25
X219.3Y-104.85
X220.1Y-61.55
X220.2Y-122.65
X220.25Y-65.3
X221.2Y-85.4
X221.2Y-99.1
X221.25Y-67.7
X221.35Y-71.6
X221.4Y-107.45
X221.55Y-93.25
X221.6Y-111.0
X221.6Y-126.1
X222.3Y-103.45
X222.65Y-65.25
X223.55Y-93.3
X223.55Y-95.45
X224.4Y-108.8
X224.75Y-66.35
X225.5Y-66.35
X225.5Y-70.05
X225.75Y-126.5
X226.35Y-70.05
X227.25Y-61.65
X227.45Y-93.3
X227.45Y-95.45
X228.1Y-70.9
X228.75Y-84.75
X228.95Y-89.35
X229.2Y-63.3
X229.65Y-108.4
X230.25Y-126.6
X231.4Y-65.75
X231.65Y-61.8
X232.0Y-71.35
X232.3Y-67.4
X232.35Y-78.1
X232.7Y-82.7
X233.0Y-63.85
X233.7Y-108.55
X233.75Y-126.4
X233.85Y-80.6
X234.05Y-89.35
X234.65Y-78.4
X234.65Y-83.65
X236.1Y-61.95
X236.5Y-79.65
X236.5Y-86.4
X236.85Y-81.75
X236.85Y-108.5
X237.4Y-92.8
X237.5Y-106.05
X237.55Y-112.75
X237.85Y-84.7
X238.15Y-121.85
X238.75Y-87.05
X239.6Y-61.8
X239.95Y-120.5
X240.95Y-65.35
X241.35Y-71.4
X241.95Y-63.7
X242.2Y-109.3
X242.45Y-67.3
X242.9Y-70.25
X243.0Y-72.3
X243.1Y-61.8
X243.35Y-126.2
X244.0Y-86.1
X244.2Y-94.1
X244.4Y-63.35
X244.6Y-112.65
X245.5Y-108.5
X245.55Y-61.7
X246.05Y-70.45
X246.15Y-80.05
X246.45Y-72.9
X246.6Y-86.15
X247.75Y-84.4
X247.9Y-88.55
X248.25Y-112.8
X248.45Y-106.15
X248.8Y-84.35
X248.9Y-69.45
X250.0Y-84.3
X250.05Y-118.15
X250.15Y-71.9
X250.2Y-79.95
X250.4Y-105.8
X250.75Y-90.1
X250.75Y-91.15
X250.85Y-74.25
X250.85Y-105.2
X250.85Y-113.2
X251.4Y-69.45
X251.8Y-100.55
X252.6Y-71.05
X252.65Y-116.0
X252.7Y-74.75
X252.95Y-69.15
X253.6Y-103.7
T2
X107.0Y-102.05
X107.45Y-100.8
X146.3Y-76.7
X146.35Y-79.2
X150.15Y-71.75
X181.75Y-68.65
X184.05Y-75.35
X185.15Y-72.0
X185.25Y-75.2
X186.0Y-71.2
X186.1Y-73.15
X204.55Y-103.8
X209.0Y-103.55
T3
X249.05Y-90.55
T4
X154.3Y-102.0
X164.025Y-101.975
X173.675Y-102.375
T5
X226.95Y-74.0
X226.95Y-76.5
X226.95Y-79.0
X226.95Y-81.5
T6
X115.8Y-66.05
X115.8Y-106.05
X133.3Y-66.05
X133.3Y-106.05
X138.882Y-106.06
X138.882Y-123.84
X141.422Y-106.06
X141.422Y-123.84
X143.963Y-106.06
X143.963Y-123.84
X146.502Y-106.06
X146.502Y-123.84
X149.042Y-106.06
X149.042Y-123.84
X151.582Y-106.06
X151.582Y-123.84
X154.123Y-106.06
X154.123Y-123.84
X156.662Y-106.06
X156.662Y-123.84
X159.202Y-106.06
X159.202Y-123.84
X161.743Y-106.06
X161.743Y-123.84
X164.282Y-106.06
X164.282Y-123.84
X166.822Y-106.06
X166.822Y-123.84
X169.362Y-106.06
X169.362Y-123.84
X171.903Y-106.06
X171.903Y-123.84
X174.442Y-106.06
X174.442Y-123.84
X176.982Y-106.06
X176.982Y-123.84
X179.522Y-106.06
X179.522Y-123.84
X182.062Y-106.06
X182.062Y-123.84
X184.602Y-106.06
X184.602Y-123.84
X184.95Y-63.35
X184.95Y-103.35
X187.142Y-106.06
X187.142Y-123.84
X202.45Y-63.35
X202.45Y-103.35
X207.3Y-126.125
X209.8Y-126.125
X212.3Y-126.125
X214.8Y-126.125
T7
X122.21Y-110.36
X122.21Y-124.86
X124.71Y-124.86
X127.21Y-110.36
X127.21Y-124.86
T8
X138.36Y-70.45
X143.44Y-70.45
X232.79Y-75.395
X240.41Y-75.395
X240.41Y-85.595
X240.41Y-93.215
T9
X149.84Y-82.39
X149.84Y-87.09
X149.84Y-91.79
X165.52Y-82.24
X165.52Y-86.94
X165.52Y-91.64
X181.33Y-82.33
X181.33Y-87.03
X181.33Y-91.73
T10
X214.082Y-67.099
X214.082Y-90.199
X245.582Y-67.099
X245.582Y-90.199
T11
X205.25Y-115.125
X216.85Y-115.125
T12
X119.21Y-117.36
X130.21Y-117.36
T13
X240.77Y-116.61
X243.77Y-121.41
X246.57Y-116.61
T14
X68.65Y-72.9
X69.52Y-125.06
X249.9Y-125.45
X250.35Y-64.3
T15
X106.291Y-117.728
X228.765Y-117.88
M30
