%TF.GenerationSoftware,KiCad,Pcbnew,9.0.6*%
%TF.CreationDate,2025-12-07T15:07:22-07:00*%
%TF.ProjectId,Animation Platter_V4,416e696d-6174-4696-9f6e-20506c617474,rev?*%
%TF.SameCoordinates,Original*%
%TF.FileFunction,Paste,Bot*%
%TF.FilePolarity,Positive*%
%FSLAX46Y46*%
G04 Gerber Fmt 4.6, Leading zero omitted, Abs format (unit mm)*
G04 Created by KiCad (PCBNEW 9.0.6) date 2025-12-07 15:07:22*
%MOMM*%
%LPD*%
G01*
G04 APERTURE LIST*
G04 Aperture macros list*
%AMRoundRect*
0 Rectangle with rounded corners*
0 $1 Rounding radius*
0 $2 $3 $4 $5 $6 $7 $8 $9 X,Y pos of 4 corners*
0 Add a 4 corners polygon primitive as box body*
4,1,4,$2,$3,$4,$5,$6,$7,$8,$9,$2,$3,0*
0 Add four circle primitives for the rounded corners*
1,1,$1+$1,$2,$3*
1,1,$1+$1,$4,$5*
1,1,$1+$1,$6,$7*
1,1,$1+$1,$8,$9*
0 Add four rect primitives between the rounded corners*
20,1,$1+$1,$2,$3,$4,$5,0*
20,1,$1+$1,$4,$5,$6,$7,0*
20,1,$1+$1,$6,$7,$8,$9,0*
20,1,$1+$1,$8,$9,$2,$3,0*%
%AMRotRect*
0 Rectangle, with rotation*
0 The origin of the aperture is its center*
0 $1 length*
0 $2 width*
0 $3 Rotation angle, in degrees counterclockwise*
0 Add horizontal line*
21,1,$1,$2,0,0,$3*%
G04 Aperture macros list end*
%ADD10RoundRect,0.250000X-1.944544X-1.590990X-1.590990X-1.944544X1.944544X1.590990X1.590990X1.944544X0*%
%ADD11RoundRect,0.250000X-1.272792X-0.494975X-0.494975X-1.272792X1.272792X0.494975X0.494975X1.272792X0*%
%ADD12RoundRect,0.250000X2.500000X-0.250000X2.500000X0.250000X-2.500000X0.250000X-2.500000X-0.250000X0*%
%ADD13RoundRect,0.250000X1.250000X-0.550000X1.250000X0.550000X-1.250000X0.550000X-1.250000X-0.550000X0*%
%ADD14RoundRect,0.225000X-0.335876X-0.017678X-0.017678X-0.335876X0.335876X0.017678X0.017678X0.335876X0*%
%ADD15RoundRect,0.200000X-0.275000X0.200000X-0.275000X-0.200000X0.275000X-0.200000X0.275000X0.200000X0*%
%ADD16RoundRect,0.200000X0.200000X0.275000X-0.200000X0.275000X-0.200000X-0.275000X0.200000X-0.275000X0*%
%ADD17R,1.900000X1.000000*%
%ADD18RoundRect,0.225000X-0.250000X0.225000X-0.250000X-0.225000X0.250000X-0.225000X0.250000X0.225000X0*%
%ADD19R,1.000000X1.900000*%
%ADD20RoundRect,0.200000X-0.200000X-0.275000X0.200000X-0.275000X0.200000X0.275000X-0.200000X0.275000X0*%
%ADD21RoundRect,0.225000X0.250000X-0.225000X0.250000X0.225000X-0.250000X0.225000X-0.250000X-0.225000X0*%
%ADD22R,1.820000X1.670000*%
%ADD23RoundRect,0.225000X-0.225000X-0.250000X0.225000X-0.250000X0.225000X0.250000X-0.225000X0.250000X0*%
%ADD24RoundRect,0.200000X-0.335876X-0.053033X-0.053033X-0.335876X0.335876X0.053033X0.053033X0.335876X0*%
%ADD25RoundRect,0.250000X-0.250000X-2.500000X0.250000X-2.500000X0.250000X2.500000X-0.250000X2.500000X0*%
%ADD26RoundRect,0.250000X-0.550000X-1.250000X0.550000X-1.250000X0.550000X1.250000X-0.550000X1.250000X0*%
%ADD27R,2.510000X1.000000*%
%ADD28RoundRect,0.200000X0.275000X-0.200000X0.275000X0.200000X-0.275000X0.200000X-0.275000X-0.200000X0*%
%ADD29RoundRect,0.250000X-2.500000X0.250000X-2.500000X-0.250000X2.500000X-0.250000X2.500000X0.250000X0*%
%ADD30RoundRect,0.250000X-1.250000X0.550000X-1.250000X-0.550000X1.250000X-0.550000X1.250000X0.550000X0*%
%ADD31RoundRect,0.150000X-0.150000X0.512500X-0.150000X-0.512500X0.150000X-0.512500X0.150000X0.512500X0*%
%ADD32RoundRect,0.200000X0.335876X0.053033X0.053033X0.335876X-0.335876X-0.053033X-0.053033X-0.335876X0*%
%ADD33R,3.600000X2.050000*%
%ADD34RotRect,2.510000X1.000000X225.000000*%
%ADD35R,2.050000X3.600000*%
G04 APERTURE END LIST*
D10*
%TO.C,S2*%
X240771040Y-107468575D03*
X239356826Y-106054361D03*
D11*
X239250760Y-102766315D03*
X244059086Y-107574641D03*
%TD*%
D12*
%TO.C,S1*%
X90439300Y-116600800D03*
X90439300Y-118600800D03*
D13*
X88189300Y-121000800D03*
X88189300Y-114200800D03*
%TD*%
D14*
%TO.C,C27*%
X248201992Y-104501992D03*
X249298008Y-105598008D03*
%TD*%
D15*
%TO.C,D8*%
X126950000Y-112725000D03*
X126950000Y-114375000D03*
%TD*%
D16*
%TO.C,R77*%
X93500000Y-74650000D03*
X91850000Y-74650000D03*
%TD*%
D17*
%TO.C,DRV1*%
X205250000Y-86790001D03*
X208550000Y-84250000D03*
X205250000Y-81710001D03*
X208550000Y-79170001D03*
X205250000Y-76630001D03*
X208550000Y-74090000D03*
X205250000Y-71550001D03*
X208550000Y-69010001D03*
X217920038Y-86741466D03*
X221220038Y-84201467D03*
X217920038Y-81661467D03*
X221220038Y-79121467D03*
X217920037Y-76581467D03*
X221220038Y-74041467D03*
X217920038Y-71501467D03*
X221220038Y-68961467D03*
%TD*%
D18*
%TO.C,C13*%
X123950000Y-112775000D03*
X123950000Y-114325000D03*
%TD*%
D19*
%TO.C,J19*%
X176920000Y-112250000D03*
X174380000Y-108950000D03*
X171840000Y-112250000D03*
X169300000Y-108950000D03*
X166760000Y-112250000D03*
%TD*%
D20*
%TO.C,R68*%
X175075000Y-89350000D03*
X176725000Y-89350000D03*
%TD*%
%TO.C,R14*%
X159755000Y-82550000D03*
X161405000Y-82550000D03*
%TD*%
D21*
%TO.C,C11*%
X125200000Y-122525000D03*
X125200000Y-120975000D03*
%TD*%
D22*
%TO.C,D36*%
X242750000Y-98200000D03*
X238550000Y-98200000D03*
%TD*%
D23*
%TO.C,C9*%
X175575000Y-87050000D03*
X177125000Y-87050000D03*
%TD*%
D24*
%TO.C,R21*%
X250266637Y-102350000D03*
X251433363Y-103516726D03*
%TD*%
D15*
%TO.C,R70*%
X138900000Y-108575000D03*
X138900000Y-110225000D03*
%TD*%
D25*
%TO.C,SW6*%
X236350000Y-66650000D03*
X238350000Y-66650000D03*
D26*
X233950000Y-68900000D03*
X240750000Y-68900000D03*
%TD*%
D25*
%TO.C,J3*%
X98349999Y-78650000D03*
X100349999Y-78650001D03*
X102349999Y-78650000D03*
D26*
X95949999Y-80900000D03*
X104749999Y-80900000D03*
%TD*%
D27*
%TO.C,J5*%
X159205000Y-74140000D03*
X155895000Y-76680000D03*
X159205000Y-79220000D03*
%TD*%
D16*
%TO.C,R75*%
X104075000Y-88300000D03*
X102425000Y-88300000D03*
%TD*%
D20*
%TO.C,D5*%
X144025000Y-85500000D03*
X145675000Y-85500000D03*
%TD*%
D27*
%TO.C,JP4*%
X252260000Y-88690000D03*
X248950000Y-86150000D03*
%TD*%
D28*
%TO.C,R78*%
X94150000Y-86325000D03*
X94150000Y-84675000D03*
%TD*%
D25*
%TO.C,J9*%
X98500000Y-68299999D03*
X100500000Y-68300000D03*
X102500000Y-68299999D03*
D26*
X96100000Y-70549999D03*
X104900000Y-70549999D03*
%TD*%
D15*
%TO.C,D38*%
X174950000Y-67600000D03*
X174950000Y-69250000D03*
%TD*%
D17*
%TO.C,J16*%
X108350000Y-93140000D03*
X111650000Y-90600000D03*
X108350000Y-88060000D03*
X111650000Y-85520000D03*
X108350000Y-82980000D03*
X111650000Y-80440000D03*
X108350000Y-77900000D03*
X111650000Y-75360000D03*
%TD*%
D25*
%TO.C,J21*%
X144600000Y-98200000D03*
X146600000Y-98200000D03*
D26*
X142200000Y-100450000D03*
X149000000Y-100450000D03*
%TD*%
D29*
%TO.C,J17*%
X73349999Y-84450000D03*
X73349999Y-86450000D03*
X73349999Y-88450000D03*
X73349999Y-90450000D03*
D30*
X71100000Y-82050000D03*
X71100000Y-92850000D03*
%TD*%
D21*
%TO.C,C8*%
X95900000Y-113175000D03*
X95900000Y-111625000D03*
%TD*%
D23*
%TO.C,C10*%
X144075000Y-87000000D03*
X145625000Y-87000000D03*
%TD*%
D29*
%TO.C,J20*%
X73350000Y-97850000D03*
X73350000Y-99850000D03*
X73350000Y-101850000D03*
X73350000Y-103850000D03*
D30*
X71100001Y-95450000D03*
X71100001Y-106250000D03*
%TD*%
D31*
%TO.C,Q4*%
X174937501Y-91062500D03*
X176837499Y-91062500D03*
X175887500Y-93337500D03*
%TD*%
D32*
%TO.C,R20*%
X250383363Y-104583363D03*
X249216637Y-103416637D03*
%TD*%
D28*
%TO.C,R7*%
X129700000Y-122575000D03*
X129700000Y-120925000D03*
%TD*%
D21*
%TO.C,C12*%
X123700000Y-122525000D03*
X123700000Y-120975000D03*
%TD*%
D15*
%TO.C,R69*%
X141400000Y-108625000D03*
X141400000Y-110275000D03*
%TD*%
D28*
%TO.C,R8*%
X119200000Y-122575000D03*
X119200000Y-120925000D03*
%TD*%
D23*
%TO.C,C14*%
X159775000Y-87050000D03*
X161325000Y-87050000D03*
%TD*%
D20*
%TO.C,R76*%
X84000000Y-84750000D03*
X85650000Y-84750000D03*
%TD*%
D15*
%TO.C,R10*%
X122200000Y-120925000D03*
X122200000Y-122575000D03*
%TD*%
D33*
%TO.C,C33*%
X150195000Y-66230000D03*
X157295000Y-66230000D03*
%TD*%
D28*
%TO.C,R67*%
X169400000Y-90800000D03*
X169400000Y-89150000D03*
%TD*%
D16*
%TO.C,D4*%
X177175000Y-85550000D03*
X175525000Y-85550000D03*
%TD*%
D20*
%TO.C,D3*%
X89850000Y-111650000D03*
X91500000Y-111650000D03*
%TD*%
D31*
%TO.C,Q3*%
X168487501Y-92962500D03*
X170387499Y-92962500D03*
X169437500Y-95237500D03*
%TD*%
D15*
%TO.C,R23*%
X155250000Y-87625000D03*
X155250000Y-89275000D03*
%TD*%
D27*
%TO.C,JP5*%
X148995000Y-76680000D03*
X152305000Y-79220000D03*
%TD*%
D16*
%TO.C,R5*%
X177165000Y-84060000D03*
X175515000Y-84060000D03*
%TD*%
D28*
%TO.C,D7*%
X120700000Y-122575000D03*
X120700000Y-120925000D03*
%TD*%
D25*
%TO.C,J8*%
X85900000Y-78699999D03*
X87900000Y-78700000D03*
X89900000Y-78699999D03*
D26*
X83500000Y-80949999D03*
X92300000Y-80949999D03*
%TD*%
D34*
%TO.C,J10*%
X205863426Y-105094472D03*
X210000000Y-104550000D03*
%TD*%
D20*
%TO.C,R2*%
X175535000Y-82560000D03*
X177185000Y-82560000D03*
%TD*%
D28*
%TO.C,R9*%
X122450000Y-114375000D03*
X122450000Y-112725000D03*
%TD*%
D15*
%TO.C,R13*%
X126700000Y-120925000D03*
X126700000Y-122575000D03*
%TD*%
D22*
%TO.C,D47*%
X170800000Y-117100000D03*
X166600000Y-117100000D03*
%TD*%
D29*
%TO.C,J18*%
X110650000Y-100850000D03*
X110650000Y-102850000D03*
D30*
X108400000Y-98450000D03*
X108400000Y-105250000D03*
%TD*%
D15*
%TO.C,D9*%
X209800000Y-121600000D03*
X209800000Y-123250000D03*
%TD*%
D28*
%TO.C,D6*%
X128200000Y-122575000D03*
X128200000Y-120925000D03*
%TD*%
D16*
%TO.C,R15*%
X161405000Y-84060000D03*
X159755000Y-84060000D03*
%TD*%
D25*
%TO.C,J4*%
X154300000Y-98100000D03*
X156300000Y-98100000D03*
D26*
X151900000Y-100350000D03*
X158700000Y-100350000D03*
%TD*%
D25*
%TO.C,J12*%
X173750000Y-98000000D03*
X175750000Y-98000000D03*
D26*
X171350000Y-100250000D03*
X178150000Y-100250000D03*
%TD*%
D25*
%TO.C,J14*%
X164000000Y-97950000D03*
X166000000Y-97950000D03*
D26*
X161600000Y-100200000D03*
X168400000Y-100200000D03*
%TD*%
D20*
%TO.C,R6*%
X144040000Y-82560000D03*
X145690000Y-82560000D03*
%TD*%
D35*
%TO.C,C15*%
X225800000Y-87300000D03*
X225800000Y-94400000D03*
%TD*%
D25*
%TO.C,J13*%
X86000000Y-68250000D03*
X88000000Y-68250001D03*
X90000000Y-68250000D03*
D26*
X83600000Y-70500000D03*
X92400000Y-70500000D03*
%TD*%
D19*
%TO.C,J15*%
X159250000Y-120850000D03*
X156710000Y-117550000D03*
X154170000Y-120850000D03*
X151630000Y-117550000D03*
X149090000Y-120850000D03*
%TD*%
D27*
%TO.C,JP2*%
X174395000Y-117130000D03*
X177705000Y-119670000D03*
%TD*%
D31*
%TO.C,Q2*%
X156950001Y-90862500D03*
X158849999Y-90862500D03*
X157900000Y-93137500D03*
%TD*%
D24*
%TO.C,D15*%
X251316637Y-101316637D03*
X252483363Y-102483363D03*
%TD*%
D33*
%TO.C,C32*%
X169095000Y-66280000D03*
X161995000Y-66280000D03*
%TD*%
D15*
%TO.C,R3*%
X94400000Y-111575000D03*
X94400000Y-113225000D03*
%TD*%
D28*
%TO.C,R4*%
X92900000Y-113225000D03*
X92900000Y-111575000D03*
%TD*%
D15*
%TO.C,R11*%
X125450000Y-112725000D03*
X125450000Y-114375000D03*
%TD*%
D25*
%TO.C,J1*%
X174950000Y-73300000D03*
X176950000Y-73300001D03*
X178950000Y-73300000D03*
D26*
X172550000Y-75550000D03*
X181350000Y-75550000D03*
%TD*%
D16*
%TO.C,R12*%
X145685000Y-84020000D03*
X144035000Y-84020000D03*
%TD*%
%TO.C,D10*%
X161375000Y-85550000D03*
X159725000Y-85550000D03*
%TD*%
D27*
%TO.C,JP3*%
X252255000Y-94870000D03*
X248945000Y-92330000D03*
%TD*%
%TO.C,JP1*%
X181395000Y-117080000D03*
X184705000Y-119620000D03*
%TD*%
M02*
