%TF.GenerationSoftware,KiCad,Pcbnew,9.0.6*%
%TF.CreationDate,2025-12-07T15:07:22-07:00*%
%TF.ProjectId,Animation Platter_V4,416e696d-6174-4696-9f6e-20506c617474,rev?*%
%TF.SameCoordinates,Original*%
%TF.FileFunction,Paste,Top*%
%TF.FilePolarity,Positive*%
%FSLAX46Y46*%
G04 Gerber Fmt 4.6, Leading zero omitted, Abs format (unit mm)*
G04 Created by KiCad (PCBNEW 9.0.6) date 2025-12-07 15:07:22*
%MOMM*%
%LPD*%
G01*
G04 APERTURE LIST*
G04 Aperture macros list*
%AMRoundRect*
0 Rectangle with rounded corners*
0 $1 Rounding radius*
0 $2 $3 $4 $5 $6 $7 $8 $9 X,Y pos of 4 corners*
0 Add a 4 corners polygon primitive as box body*
4,1,4,$2,$3,$4,$5,$6,$7,$8,$9,$2,$3,0*
0 Add four circle primitives for the rounded corners*
1,1,$1+$1,$2,$3*
1,1,$1+$1,$4,$5*
1,1,$1+$1,$6,$7*
1,1,$1+$1,$8,$9*
0 Add four rect primitives between the rounded corners*
20,1,$1+$1,$2,$3,$4,$5,0*
20,1,$1+$1,$4,$5,$6,$7,0*
20,1,$1+$1,$6,$7,$8,$9,0*
20,1,$1+$1,$8,$9,$2,$3,0*%
%AMRotRect*
0 Rectangle, with rotation*
0 The origin of the aperture is its center*
0 $1 length*
0 $2 width*
0 $3 Rotation angle, in degrees counterclockwise*
0 Add horizontal line*
21,1,$1,$2,0,0,$3*%
G04 Aperture macros list end*
%ADD10RoundRect,0.200000X0.335876X0.053033X0.053033X0.335876X-0.335876X-0.053033X-0.053033X-0.335876X0*%
%ADD11RoundRect,0.200000X0.200000X0.275000X-0.200000X0.275000X-0.200000X-0.275000X0.200000X-0.275000X0*%
%ADD12RoundRect,0.200000X-0.200000X-0.275000X0.200000X-0.275000X0.200000X0.275000X-0.200000X0.275000X0*%
%ADD13RoundRect,0.200000X-0.335876X-0.053033X-0.053033X-0.335876X0.335876X0.053033X0.053033X0.335876X0*%
%ADD14RoundRect,0.225000X0.335876X0.017678X0.017678X0.335876X-0.335876X-0.017678X-0.017678X-0.335876X0*%
%ADD15RoundRect,0.200000X0.275000X-0.200000X0.275000X0.200000X-0.275000X0.200000X-0.275000X-0.200000X0*%
%ADD16RoundRect,0.090000X0.660000X0.360000X-0.660000X0.360000X-0.660000X-0.360000X0.660000X-0.360000X0*%
%ADD17RoundRect,0.200000X-0.053033X0.335876X-0.335876X0.053033X0.053033X-0.335876X0.335876X-0.053033X0*%
%ADD18R,2.000000X1.000000*%
%ADD19RoundRect,0.200000X-0.275000X0.200000X-0.275000X-0.200000X0.275000X-0.200000X0.275000X0.200000X0*%
%ADD20R,1.000000X0.600000*%
%ADD21RoundRect,0.225000X-0.017678X0.335876X-0.335876X0.017678X0.017678X-0.335876X0.335876X-0.017678X0*%
%ADD22RoundRect,0.200000X0.053033X-0.335876X0.335876X-0.053033X-0.053033X0.335876X-0.335876X0.053033X0*%
%ADD23R,1.400000X0.450000*%
%ADD24RoundRect,0.225000X0.017678X-0.335876X0.335876X-0.017678X-0.017678X0.335876X-0.335876X0.017678X0*%
%ADD25RoundRect,0.218750X0.218750X0.256250X-0.218750X0.256250X-0.218750X-0.256250X0.218750X-0.256250X0*%
%ADD26RoundRect,0.225000X0.225000X0.250000X-0.225000X0.250000X-0.225000X-0.250000X0.225000X-0.250000X0*%
%ADD27R,2.510000X1.000000*%
%ADD28RoundRect,0.225000X-0.335876X-0.017678X-0.017678X-0.335876X0.335876X0.017678X0.017678X0.335876X0*%
%ADD29R,2.400000X0.760000*%
%ADD30RoundRect,0.218750X-0.218750X-0.256250X0.218750X-0.256250X0.218750X0.256250X-0.218750X0.256250X0*%
%ADD31RotRect,0.300000X0.850000X315.000000*%
%ADD32R,0.700000X1.600000*%
%ADD33RoundRect,0.150000X-0.477297X-0.689429X0.689429X0.477297X0.477297X0.689429X-0.689429X-0.477297X0*%
%ADD34RoundRect,0.218750X-0.256250X0.218750X-0.256250X-0.218750X0.256250X-0.218750X0.256250X0.218750X0*%
%ADD35RoundRect,0.218750X-0.335876X-0.026517X-0.026517X-0.335876X0.335876X0.026517X0.026517X0.335876X0*%
%ADD36RoundRect,0.150000X0.825000X0.150000X-0.825000X0.150000X-0.825000X-0.150000X0.825000X-0.150000X0*%
%ADD37RoundRect,0.150000X0.477297X0.689429X-0.689429X-0.477297X-0.477297X-0.689429X0.689429X0.477297X0*%
%ADD38RoundRect,0.090000X-0.660000X-0.360000X0.660000X-0.360000X0.660000X0.360000X-0.660000X0.360000X0*%
%ADD39RoundRect,0.075000X0.548008X-0.441942X-0.441942X0.548008X-0.548008X0.441942X0.441942X-0.548008X0*%
%ADD40RoundRect,0.075000X0.548008X0.441942X0.441942X0.548008X-0.548008X-0.441942X-0.441942X-0.548008X0*%
%ADD41RoundRect,0.250000X0.325000X0.650000X-0.325000X0.650000X-0.325000X-0.650000X0.325000X-0.650000X0*%
%ADD42RotRect,1.150000X1.000000X135.000000*%
%ADD43RoundRect,0.218750X-0.026517X0.335876X-0.335876X0.026517X0.026517X-0.335876X0.335876X-0.026517X0*%
%ADD44RoundRect,0.225000X-0.225000X-0.250000X0.225000X-0.250000X0.225000X0.250000X-0.225000X0.250000X0*%
%ADD45RoundRect,0.225000X0.250000X-0.225000X0.250000X0.225000X-0.250000X0.225000X-0.250000X-0.225000X0*%
%ADD46RoundRect,0.250000X-0.325000X-0.650000X0.325000X-0.650000X0.325000X0.650000X-0.325000X0.650000X0*%
%ADD47R,2.500000X1.500000*%
%ADD48R,7.000000X7.000000*%
G04 APERTURE END LIST*
D10*
%TO.C,D13*%
X104647666Y-103137005D03*
X103480940Y-101970279D03*
%TD*%
D11*
%TO.C,R28*%
X204100000Y-80400000D03*
X202450000Y-80400000D03*
%TD*%
D12*
%TO.C,R73*%
X223875000Y-68950000D03*
X225525000Y-68950000D03*
%TD*%
D11*
%TO.C,R29*%
X204075000Y-81900000D03*
X202425000Y-81900000D03*
%TD*%
D13*
%TO.C,R38*%
X75066637Y-91166637D03*
X76233363Y-92333363D03*
%TD*%
D14*
%TO.C,C5*%
X72851830Y-95669849D03*
X71755814Y-94573833D03*
%TD*%
D15*
%TO.C,R45*%
X203049998Y-101350000D03*
X203049998Y-99700000D03*
%TD*%
D16*
%TO.C,D21*%
X183700000Y-71950000D03*
X183700000Y-68650000D03*
X178800000Y-68650000D03*
X178800000Y-71950000D03*
%TD*%
D17*
%TO.C,R60*%
X74883363Y-105416637D03*
X73716637Y-106583363D03*
%TD*%
D13*
%TO.C,R53*%
X74016637Y-92216637D03*
X75183363Y-93383363D03*
%TD*%
D11*
%TO.C,D31*%
X85725000Y-63050000D03*
X84075000Y-63050000D03*
%TD*%
D15*
%TO.C,D22*%
X187300000Y-110425000D03*
X187300000Y-108775000D03*
%TD*%
D18*
%TO.C,J2*%
X81120000Y-65640000D03*
X77620000Y-65640000D03*
X81120000Y-63100000D03*
X77620000Y-63100000D03*
%TD*%
D19*
%TO.C,D24*%
X204550001Y-99700000D03*
X204550001Y-101350000D03*
%TD*%
D20*
%TO.C,Q1*%
X86340000Y-67290000D03*
X86340000Y-65390000D03*
X84040000Y-66340000D03*
%TD*%
D11*
%TO.C,R41*%
X195300001Y-92550000D03*
X193650001Y-92550000D03*
%TD*%
%TO.C,R37*%
X207625000Y-93400000D03*
X205975000Y-93400000D03*
%TD*%
D21*
%TO.C,C23*%
X78001830Y-108598833D03*
X76905814Y-109694849D03*
%TD*%
%TO.C,C16*%
X111034027Y-80571463D03*
X109938011Y-81667479D03*
%TD*%
D22*
%TO.C,R64*%
X133627297Y-100694023D03*
X134794023Y-99527297D03*
%TD*%
D11*
%TO.C,R51*%
X197850000Y-65150000D03*
X196200000Y-65150000D03*
%TD*%
D19*
%TO.C,R40*%
X204550002Y-90250000D03*
X204550002Y-91900000D03*
%TD*%
D15*
%TO.C,D18*%
X179800000Y-110425000D03*
X179800000Y-108775000D03*
%TD*%
D23*
%TO.C,U8*%
X80350000Y-77075000D03*
X80350000Y-77725000D03*
X80350000Y-78375000D03*
X80350000Y-79025000D03*
X84750000Y-79025000D03*
X84750000Y-78375000D03*
X84750000Y-77725000D03*
X84750000Y-77075000D03*
%TD*%
D24*
%TO.C,C30*%
X86155813Y-91619849D03*
X87251829Y-90523833D03*
%TD*%
D15*
%TO.C,R47*%
X198550000Y-101350000D03*
X198550000Y-99700000D03*
%TD*%
D13*
%TO.C,R39*%
X76150000Y-90100000D03*
X77316726Y-91266726D03*
%TD*%
D17*
%TO.C,R16*%
X115842353Y-74136792D03*
X114675627Y-75303518D03*
%TD*%
D25*
%TO.C,D35*%
X197037501Y-122500000D03*
X195462499Y-122500000D03*
%TD*%
D17*
%TO.C,R17*%
X103909926Y-79917390D03*
X102743200Y-81084116D03*
%TD*%
D11*
%TO.C,D27*%
X79250000Y-68950000D03*
X77600000Y-68950000D03*
%TD*%
D26*
%TO.C,C20*%
X184075000Y-73950000D03*
X182525000Y-73950000D03*
%TD*%
D27*
%TO.C,JP6*%
X92605000Y-64080000D03*
X89295000Y-66620000D03*
%TD*%
D28*
%TO.C,C1*%
X84555814Y-109473832D03*
X85651830Y-110569848D03*
%TD*%
D19*
%TO.C,R35*%
X182800000Y-108775000D03*
X182800000Y-110425000D03*
%TD*%
D16*
%TO.C,D19*%
X152300000Y-71700000D03*
X152300000Y-68400000D03*
X147400000Y-68400000D03*
X147400000Y-71700000D03*
%TD*%
D11*
%TO.C,R27*%
X204075000Y-78900000D03*
X202425000Y-78900000D03*
%TD*%
%TO.C,R49*%
X197850000Y-68150000D03*
X196200000Y-68150000D03*
%TD*%
D15*
%TO.C,R36*%
X200050000Y-101350000D03*
X200050000Y-99700000D03*
%TD*%
D29*
%TO.C,U5*%
X244150000Y-74930000D03*
X248050000Y-74930000D03*
X244150000Y-76200000D03*
X248050000Y-76200000D03*
X244150000Y-77470000D03*
X248050000Y-77470000D03*
X244150000Y-78740000D03*
X248050000Y-78740000D03*
X244150000Y-80010000D03*
X248050000Y-80010000D03*
X244150000Y-81280000D03*
X248050000Y-81280000D03*
X244150000Y-82550000D03*
X248050000Y-82550000D03*
X211687277Y-74870449D03*
X215587277Y-74870449D03*
X211687277Y-76140449D03*
X215587277Y-76140449D03*
X211687277Y-77410449D03*
X215587277Y-77410449D03*
X211687277Y-78680449D03*
X215587277Y-78680449D03*
X211687277Y-79950449D03*
X215587277Y-79950449D03*
X211687277Y-81220449D03*
X215587277Y-81220449D03*
X211687277Y-82490449D03*
X215587277Y-82490449D03*
%TD*%
D30*
%TO.C,D34*%
X207562500Y-62800000D03*
X209137500Y-62800000D03*
%TD*%
%TO.C,D1*%
X186762500Y-76300000D03*
X188337500Y-76300000D03*
%TD*%
D31*
%TO.C,U2*%
X106344722Y-97126598D03*
X105991169Y-96773045D03*
X105637615Y-96419491D03*
X105284062Y-96065938D03*
X103056676Y-98293324D03*
X103410229Y-98646877D03*
X103763783Y-99000431D03*
X104117336Y-99353984D03*
%TD*%
D19*
%TO.C,R34*%
X185800000Y-108775000D03*
X185800000Y-110425000D03*
%TD*%
D32*
%TO.C,U9*%
X126020000Y-78150000D03*
X127290000Y-78150000D03*
X128560000Y-78150000D03*
X129830000Y-78150000D03*
%TD*%
D33*
%TO.C,U10*%
X134505923Y-94905924D03*
X135403949Y-95803949D03*
X136301974Y-96701975D03*
X137200000Y-97600000D03*
X138098026Y-98498026D03*
X138996051Y-99396052D03*
X139894077Y-100294077D03*
X140792102Y-101192103D03*
X144292281Y-97691924D03*
X143394255Y-96793899D03*
X142496230Y-95895873D03*
X141598204Y-94997848D03*
X140700178Y-94099822D03*
X139802153Y-93201796D03*
X138904127Y-92303771D03*
X138006102Y-91405745D03*
%TD*%
D34*
%TO.C,D33*%
X139200000Y-80737500D03*
X139200000Y-82312502D03*
%TD*%
D13*
%TO.C,D16*%
X99273654Y-97762994D03*
X100440380Y-98929720D03*
%TD*%
D35*
%TO.C,D30*%
X71453811Y-85432490D03*
X72567505Y-86546184D03*
%TD*%
D22*
%TO.C,R18*%
X107882679Y-95588641D03*
X109049405Y-94421915D03*
%TD*%
D15*
%TO.C,R46*%
X201550000Y-101350000D03*
X201550000Y-99700000D03*
%TD*%
D36*
%TO.C,U3*%
X199325000Y-81420000D03*
X199325000Y-80150000D03*
X199325000Y-78880000D03*
X199325000Y-77610000D03*
X199325000Y-76340000D03*
X199325000Y-75070000D03*
X199325000Y-73800000D03*
X199325000Y-72530000D03*
X194375000Y-72530000D03*
X194375000Y-73800000D03*
X194375000Y-75070000D03*
X194375000Y-76340000D03*
X194375000Y-77610000D03*
X194375000Y-78880000D03*
X194375000Y-80150000D03*
X194375000Y-81420000D03*
%TD*%
D24*
%TO.C,C22*%
X85105814Y-90569849D03*
X86201830Y-89473833D03*
%TD*%
D16*
%TO.C,D20*%
X168100000Y-71800000D03*
X168100000Y-68500000D03*
X163200000Y-68500000D03*
X163200000Y-71800000D03*
%TD*%
D19*
%TO.C,D23*%
X197049999Y-99700000D03*
X197049999Y-101350000D03*
%TD*%
D37*
%TO.C,U7*%
X112243179Y-77043000D03*
X111345153Y-76144975D03*
X110447128Y-75246949D03*
X109549102Y-74348924D03*
X108651076Y-73450898D03*
X107753051Y-72552872D03*
X106855025Y-71654847D03*
X105957000Y-70756821D03*
X102456821Y-74257000D03*
X103354847Y-75155025D03*
X104252872Y-76053051D03*
X105150898Y-76951076D03*
X106048924Y-77849102D03*
X106946949Y-78747128D03*
X107844975Y-79645153D03*
X108743000Y-80543179D03*
%TD*%
D22*
%TO.C,R62*%
X132566637Y-99633363D03*
X133733363Y-98466637D03*
%TD*%
D17*
%TO.C,R61*%
X76983363Y-107516637D03*
X75816637Y-108683363D03*
%TD*%
D10*
%TO.C,D11*%
X110092388Y-97692283D03*
X108925662Y-96525557D03*
%TD*%
D15*
%TO.C,R55*%
X77900000Y-80050000D03*
X77900000Y-78400000D03*
%TD*%
D24*
%TO.C,C21*%
X105054252Y-100255546D03*
X106150268Y-99159530D03*
%TD*%
D38*
%TO.C,D14*%
X78700000Y-116600000D03*
X78700000Y-119900000D03*
X83600000Y-119900000D03*
X83600000Y-116600000D03*
%TD*%
D11*
%TO.C,R71*%
X209175000Y-64300000D03*
X207525000Y-64300000D03*
%TD*%
D39*
%TO.C,U1*%
X82911181Y-106014481D03*
X83264734Y-105660928D03*
X83618287Y-105307375D03*
X83971841Y-104953821D03*
X84325394Y-104600268D03*
X84678948Y-104246714D03*
X85032501Y-103893161D03*
X85386054Y-103539608D03*
X85739608Y-103186054D03*
X86093161Y-102832501D03*
X86446714Y-102478948D03*
X86800268Y-102125394D03*
X87153821Y-101771841D03*
X87507375Y-101418287D03*
X87860928Y-101064734D03*
X88214481Y-100711181D03*
D40*
X88214481Y-97988819D03*
X87860928Y-97635266D03*
X87507375Y-97281713D03*
X87153821Y-96928159D03*
X86800268Y-96574606D03*
X86446714Y-96221052D03*
X86093161Y-95867499D03*
X85739608Y-95513946D03*
X85386054Y-95160392D03*
X85032501Y-94806839D03*
X84678948Y-94453286D03*
X84325394Y-94099732D03*
X83971841Y-93746179D03*
X83618287Y-93392625D03*
X83264734Y-93039072D03*
X82911181Y-92685519D03*
D39*
X80188819Y-92685519D03*
X79835266Y-93039072D03*
X79481713Y-93392625D03*
X79128159Y-93746179D03*
X78774606Y-94099732D03*
X78421052Y-94453286D03*
X78067499Y-94806839D03*
X77713946Y-95160392D03*
X77360392Y-95513946D03*
X77006839Y-95867499D03*
X76653286Y-96221052D03*
X76299732Y-96574606D03*
X75946179Y-96928159D03*
X75592625Y-97281713D03*
X75239072Y-97635266D03*
X74885519Y-97988819D03*
D40*
X74885519Y-100711181D03*
X75239072Y-101064734D03*
X75592625Y-101418287D03*
X75946179Y-101771841D03*
X76299732Y-102125394D03*
X76653286Y-102478948D03*
X77006839Y-102832501D03*
X77360392Y-103186054D03*
X77713946Y-103539608D03*
X78067499Y-103893161D03*
X78421052Y-104246714D03*
X78774606Y-104600268D03*
X79128159Y-104953821D03*
X79481713Y-105307375D03*
X79835266Y-105660928D03*
X80188819Y-106014481D03*
%TD*%
D41*
%TO.C,C25*%
X122125001Y-100050000D03*
X119174999Y-100050000D03*
%TD*%
D24*
%TO.C,C35*%
X135856497Y-91377461D03*
X136952513Y-90281445D03*
%TD*%
D13*
%TO.C,D12*%
X104516637Y-92466637D03*
X105683363Y-93633363D03*
%TD*%
D11*
%TO.C,R43*%
X195300002Y-89550000D03*
X193650002Y-89550000D03*
%TD*%
D24*
%TO.C,C24*%
X89555814Y-95169850D03*
X90651830Y-94073834D03*
%TD*%
D22*
%TO.C,R65*%
X134687957Y-101754683D03*
X135854683Y-100587957D03*
%TD*%
D11*
%TO.C,R44*%
X195300003Y-88050000D03*
X193650003Y-88050000D03*
%TD*%
D26*
%TO.C,C6*%
X199075001Y-94800000D03*
X197525001Y-94800000D03*
%TD*%
D12*
%TO.C,R54*%
X74775000Y-76900000D03*
X76425000Y-76900000D03*
%TD*%
%TO.C,R58*%
X87125000Y-80750000D03*
X88775000Y-80750000D03*
%TD*%
D30*
%TO.C,D17*%
X206012500Y-91900002D03*
X207587502Y-91900002D03*
%TD*%
D42*
%TO.C,Y1*%
X88913693Y-107573743D03*
X87676256Y-106336306D03*
X86686307Y-107326255D03*
X87923744Y-108563692D03*
%TD*%
D22*
%TO.C,R19*%
X106822018Y-94527980D03*
X107988744Y-93361254D03*
%TD*%
D28*
%TO.C,C29*%
X90955813Y-103223833D03*
X92051829Y-104319849D03*
%TD*%
D22*
%TO.C,R25*%
X101377297Y-102094023D03*
X102544023Y-100927297D03*
%TD*%
D12*
%TO.C,R74*%
X223875000Y-67450000D03*
X225525000Y-67450000D03*
%TD*%
D25*
%TO.C,D32*%
X76387501Y-78400000D03*
X74812499Y-78400000D03*
%TD*%
D11*
%TO.C,R42*%
X195300001Y-91050000D03*
X193650001Y-91050000D03*
%TD*%
D35*
%TO.C,D29*%
X70393153Y-86493153D03*
X71506847Y-87606847D03*
%TD*%
D19*
%TO.C,R66*%
X139200000Y-83700000D03*
X139200000Y-85350000D03*
%TD*%
D43*
%TO.C,D2*%
X101762089Y-77822585D03*
X100648395Y-78936279D03*
%TD*%
D44*
%TO.C,C17*%
X78425000Y-114700000D03*
X79975000Y-114700000D03*
%TD*%
D15*
%TO.C,R63*%
X137699999Y-85350001D03*
X137699999Y-83700001D03*
%TD*%
D12*
%TO.C,R59*%
X87125000Y-82250000D03*
X88775000Y-82250000D03*
%TD*%
%TO.C,R56*%
X87125000Y-77750000D03*
X88775000Y-77750000D03*
%TD*%
D11*
%TO.C,R48*%
X197850000Y-63650000D03*
X196200000Y-63650000D03*
%TD*%
D12*
%TO.C,D26*%
X196200000Y-69650000D03*
X197850000Y-69650000D03*
%TD*%
%TO.C,R1*%
X189725000Y-76300000D03*
X191375000Y-76300000D03*
%TD*%
%TO.C,R57*%
X87125000Y-79250000D03*
X88775000Y-79250000D03*
%TD*%
D26*
%TO.C,C18*%
X152700000Y-73550000D03*
X151150000Y-73550000D03*
%TD*%
D11*
%TO.C,R72*%
X197075000Y-124000000D03*
X195425000Y-124000000D03*
%TD*%
D21*
%TO.C,C4*%
X79051830Y-109623833D03*
X77955814Y-110719849D03*
%TD*%
D22*
%TO.C,R31*%
X101682540Y-80023455D03*
X102849266Y-78856729D03*
%TD*%
D28*
%TO.C,C28*%
X89905812Y-104273834D03*
X91001828Y-105369850D03*
%TD*%
D35*
%TO.C,D28*%
X69332490Y-87553811D03*
X70446184Y-88667505D03*
%TD*%
D23*
%TO.C,U6*%
X202150000Y-93225000D03*
X202150000Y-92575000D03*
X202150000Y-91925000D03*
X202150000Y-91275000D03*
X197750000Y-91275000D03*
X197750000Y-91925000D03*
X197750000Y-92575000D03*
X197750000Y-93225000D03*
%TD*%
D45*
%TO.C,C34*%
X127300000Y-82125000D03*
X127300000Y-80575000D03*
%TD*%
D46*
%TO.C,C26*%
X119250000Y-88500000D03*
X122200002Y-88500000D03*
%TD*%
D28*
%TO.C,C2*%
X85601993Y-108451991D03*
X86698009Y-109548007D03*
%TD*%
D47*
%TO.C,VR2*%
X120600000Y-91950000D03*
D48*
X127450000Y-94250000D03*
D47*
X120600000Y-96550000D03*
%TD*%
D17*
%TO.C,R30*%
X113721032Y-72015471D03*
X112554306Y-73182197D03*
%TD*%
D11*
%TO.C,R26*%
X191375000Y-77800000D03*
X189725000Y-77800000D03*
%TD*%
%TO.C,R50*%
X197850000Y-66650000D03*
X196200000Y-66650000D03*
%TD*%
D26*
%TO.C,C7*%
X195950000Y-83100000D03*
X194400000Y-83100000D03*
%TD*%
D22*
%TO.C,R24*%
X100316637Y-101033363D03*
X101483363Y-99866637D03*
%TD*%
D26*
%TO.C,C19*%
X168425000Y-73750000D03*
X166875000Y-73750000D03*
%TD*%
D12*
%TO.C,D25*%
X196200000Y-62150000D03*
X197850000Y-62150000D03*
%TD*%
D19*
%TO.C,R32*%
X181300000Y-108775000D03*
X181300000Y-110425000D03*
%TD*%
D44*
%TO.C,C31*%
X83425000Y-75500000D03*
X84975000Y-75500000D03*
%TD*%
D19*
%TO.C,R33*%
X184300000Y-108775000D03*
X184300000Y-110425000D03*
%TD*%
D17*
%TO.C,R22*%
X114781692Y-73076131D03*
X113614966Y-74242857D03*
%TD*%
D22*
%TO.C,R52*%
X74766637Y-107633363D03*
X75933363Y-106466637D03*
%TD*%
D14*
%TO.C,C3*%
X89948008Y-106448007D03*
X88851992Y-105351991D03*
%TD*%
M02*
