%TF.GenerationSoftware,KiCad,Pcbnew,9.0.6*%
%TF.CreationDate,2025-12-07T15:07:23-07:00*%
%TF.ProjectId,Animation Platter_V4,416e696d-6174-4696-9f6e-20506c617474,rev?*%
%TF.SameCoordinates,Original*%
%TF.FileFunction,Soldermask,Top*%
%TF.FilePolarity,Negative*%
%FSLAX46Y46*%
G04 Gerber Fmt 4.6, Leading zero omitted, Abs format (unit mm)*
G04 Created by KiCad (PCBNEW 9.0.6) date 2025-12-07 15:07:23*
%MOMM*%
%LPD*%
G01*
G04 APERTURE LIST*
G04 Aperture macros list*
%AMRoundRect*
0 Rectangle with rounded corners*
0 $1 Rounding radius*
0 $2 $3 $4 $5 $6 $7 $8 $9 X,Y pos of 4 corners*
0 Add a 4 corners polygon primitive as box body*
4,1,4,$2,$3,$4,$5,$6,$7,$8,$9,$2,$3,0*
0 Add four circle primitives for the rounded corners*
1,1,$1+$1,$2,$3*
1,1,$1+$1,$4,$5*
1,1,$1+$1,$6,$7*
1,1,$1+$1,$8,$9*
0 Add four rect primitives between the rounded corners*
20,1,$1+$1,$2,$3,$4,$5,0*
20,1,$1+$1,$4,$5,$6,$7,0*
20,1,$1+$1,$6,$7,$8,$9,0*
20,1,$1+$1,$8,$9,$2,$3,0*%
%AMRotRect*
0 Rectangle, with rotation*
0 The origin of the aperture is its center*
0 $1 length*
0 $2 width*
0 $3 Rotation angle, in degrees counterclockwise*
0 Add horizontal line*
21,1,$1,$2,0,0,$3*%
G04 Aperture macros list end*
%ADD10C,0.200000*%
%ADD11C,0.150000*%
%ADD12RoundRect,0.200000X0.335876X0.053033X0.053033X0.335876X-0.335876X-0.053033X-0.053033X-0.335876X0*%
%ADD13RoundRect,0.200000X0.200000X0.275000X-0.200000X0.275000X-0.200000X-0.275000X0.200000X-0.275000X0*%
%ADD14RoundRect,0.200000X-0.200000X-0.275000X0.200000X-0.275000X0.200000X0.275000X-0.200000X0.275000X0*%
%ADD15RoundRect,0.200000X-0.335876X-0.053033X-0.053033X-0.335876X0.335876X0.053033X0.053033X0.335876X0*%
%ADD16RoundRect,0.225000X0.335876X0.017678X0.017678X0.335876X-0.335876X-0.017678X-0.017678X-0.335876X0*%
%ADD17C,2.000000*%
%ADD18RoundRect,0.200000X0.275000X-0.200000X0.275000X0.200000X-0.275000X0.200000X-0.275000X-0.200000X0*%
%ADD19RoundRect,0.090000X0.660000X0.360000X-0.660000X0.360000X-0.660000X-0.360000X0.660000X-0.360000X0*%
%ADD20RoundRect,0.200000X-0.053033X0.335876X-0.335876X0.053033X0.053033X-0.335876X0.335876X-0.053033X0*%
%ADD21R,2.000000X1.000000*%
%ADD22RoundRect,0.200000X-0.275000X0.200000X-0.275000X-0.200000X0.275000X-0.200000X0.275000X0.200000X0*%
%ADD23R,1.000000X0.600000*%
%ADD24RoundRect,0.225000X-0.017678X0.335876X-0.335876X0.017678X0.017678X-0.335876X0.335876X-0.017678X0*%
%ADD25RoundRect,0.200000X0.053033X-0.335876X0.335876X-0.053033X-0.053033X0.335876X-0.335876X0.053033X0*%
%ADD26C,2.775000*%
%ADD27R,1.400000X0.450000*%
%ADD28RoundRect,0.225000X0.017678X-0.335876X0.335876X-0.017678X-0.017678X0.335876X-0.335876X0.017678X0*%
%ADD29RoundRect,0.218750X0.218750X0.256250X-0.218750X0.256250X-0.218750X-0.256250X0.218750X-0.256250X0*%
%ADD30RoundRect,0.225000X0.225000X0.250000X-0.225000X0.250000X-0.225000X-0.250000X0.225000X-0.250000X0*%
%ADD31R,2.510000X1.000000*%
%ADD32RoundRect,0.225000X-0.335876X-0.017678X-0.017678X-0.335876X0.335876X0.017678X0.017678X0.335876X0*%
%ADD33C,1.800000*%
%ADD34C,4.667000*%
%ADD35C,7.000000*%
%ADD36C,1.000000*%
%ADD37R,2.400000X0.760000*%
%ADD38C,4.500000*%
%ADD39RoundRect,0.218750X-0.218750X-0.256250X0.218750X-0.256250X0.218750X0.256250X-0.218750X0.256250X0*%
%ADD40RotRect,0.300000X0.850000X315.000000*%
%ADD41R,0.700000X1.600000*%
%ADD42RoundRect,0.150000X-0.477297X-0.689429X0.689429X0.477297X0.477297X0.689429X-0.689429X-0.477297X0*%
%ADD43RoundRect,0.218750X-0.256250X0.218750X-0.256250X-0.218750X0.256250X-0.218750X0.256250X0.218750X0*%
%ADD44RoundRect,0.218750X-0.335876X-0.026517X-0.026517X-0.335876X0.335876X0.026517X0.026517X0.335876X0*%
%ADD45RoundRect,0.150000X0.825000X0.150000X-0.825000X0.150000X-0.825000X-0.150000X0.825000X-0.150000X0*%
%ADD46RoundRect,0.150000X0.477297X0.689429X-0.689429X-0.477297X-0.477297X-0.689429X0.689429X0.477297X0*%
%ADD47RoundRect,0.090000X-0.660000X-0.360000X0.660000X-0.360000X0.660000X0.360000X-0.660000X0.360000X0*%
%ADD48RoundRect,0.075000X0.548008X-0.441942X-0.441942X0.548008X-0.548008X0.441942X0.441942X-0.548008X0*%
%ADD49RoundRect,0.075000X0.548008X0.441942X0.441942X0.548008X-0.548008X-0.441942X-0.441942X-0.548008X0*%
%ADD50RoundRect,0.250000X0.325000X0.650000X-0.325000X0.650000X-0.325000X-0.650000X0.325000X-0.650000X0*%
%ADD51RotRect,1.150000X1.000000X135.000000*%
%ADD52RoundRect,0.218750X-0.026517X0.335876X-0.335876X0.026517X0.026517X-0.335876X0.335876X-0.026517X0*%
%ADD53RoundRect,0.225000X-0.225000X-0.250000X0.225000X-0.250000X0.225000X0.250000X-0.225000X0.250000X0*%
%ADD54R,1.500000X1.500000*%
%ADD55C,1.500000*%
%ADD56C,4.455000*%
%ADD57RoundRect,0.225000X0.250000X-0.225000X0.250000X0.225000X-0.250000X0.225000X-0.250000X-0.225000X0*%
%ADD58RoundRect,0.250000X-0.325000X-0.650000X0.325000X-0.650000X0.325000X0.650000X-0.325000X0.650000X0*%
%ADD59C,12.000000*%
%ADD60R,2.500000X1.500000*%
%ADD61R,7.000000X7.000000*%
%ADD62R,1.950000X1.950000*%
%ADD63C,1.950000*%
%ADD64RoundRect,0.425000X-0.425000X0.425000X-0.425000X-0.425000X0.425000X-0.425000X0.425000X0.425000X0*%
%ADD65C,1.700000*%
%ADD66RoundRect,0.425000X0.425000X-0.425000X0.425000X0.425000X-0.425000X0.425000X-0.425000X-0.425000X0*%
%ADD67C,1.200000*%
%ADD68RoundRect,0.250000X0.725000X-0.600000X0.725000X0.600000X-0.725000X0.600000X-0.725000X-0.600000X0*%
%ADD69O,1.950000X1.700000*%
%ADD70C,4.800000*%
G04 APERTURE END LIST*
D10*
X218771816Y-128691504D02*
X219248006Y-128691504D01*
X218640863Y-128977219D02*
X219099197Y-127977219D01*
X219099197Y-127977219D02*
X219307530Y-128977219D01*
X219724197Y-128310552D02*
X219640863Y-128977219D01*
X219712292Y-128405790D02*
X219765863Y-128358171D01*
X219765863Y-128358171D02*
X219867054Y-128310552D01*
X219867054Y-128310552D02*
X220009911Y-128310552D01*
X220009911Y-128310552D02*
X220099197Y-128358171D01*
X220099197Y-128358171D02*
X220134911Y-128453409D01*
X220134911Y-128453409D02*
X220069435Y-128977219D01*
X220545625Y-128977219D02*
X220628959Y-128310552D01*
X220670625Y-127977219D02*
X220617054Y-128024838D01*
X220617054Y-128024838D02*
X220658721Y-128072457D01*
X220658721Y-128072457D02*
X220712292Y-128024838D01*
X220712292Y-128024838D02*
X220670625Y-127977219D01*
X220670625Y-127977219D02*
X220658721Y-128072457D01*
X221021815Y-128977219D02*
X221105149Y-128310552D01*
X221093244Y-128405790D02*
X221146815Y-128358171D01*
X221146815Y-128358171D02*
X221248006Y-128310552D01*
X221248006Y-128310552D02*
X221390863Y-128310552D01*
X221390863Y-128310552D02*
X221480149Y-128358171D01*
X221480149Y-128358171D02*
X221515863Y-128453409D01*
X221515863Y-128453409D02*
X221450387Y-128977219D01*
X221515863Y-128453409D02*
X221575387Y-128358171D01*
X221575387Y-128358171D02*
X221676577Y-128310552D01*
X221676577Y-128310552D02*
X221819434Y-128310552D01*
X221819434Y-128310552D02*
X221908720Y-128358171D01*
X221908720Y-128358171D02*
X221944434Y-128453409D01*
X221944434Y-128453409D02*
X221878958Y-128977219D01*
X222783720Y-128977219D02*
X222849196Y-128453409D01*
X222849196Y-128453409D02*
X222813482Y-128358171D01*
X222813482Y-128358171D02*
X222724196Y-128310552D01*
X222724196Y-128310552D02*
X222533720Y-128310552D01*
X222533720Y-128310552D02*
X222432529Y-128358171D01*
X222789672Y-128929600D02*
X222688482Y-128977219D01*
X222688482Y-128977219D02*
X222450386Y-128977219D01*
X222450386Y-128977219D02*
X222361101Y-128929600D01*
X222361101Y-128929600D02*
X222325386Y-128834361D01*
X222325386Y-128834361D02*
X222337291Y-128739123D01*
X222337291Y-128739123D02*
X222396815Y-128643885D01*
X222396815Y-128643885D02*
X222498006Y-128596266D01*
X222498006Y-128596266D02*
X222736101Y-128596266D01*
X222736101Y-128596266D02*
X222837291Y-128548647D01*
X223200387Y-128310552D02*
X223581339Y-128310552D01*
X223384910Y-127977219D02*
X223277768Y-128834361D01*
X223277768Y-128834361D02*
X223313482Y-128929600D01*
X223313482Y-128929600D02*
X223402768Y-128977219D01*
X223402768Y-128977219D02*
X223498006Y-128977219D01*
X223831339Y-128977219D02*
X223914673Y-128310552D01*
X223956339Y-127977219D02*
X223902768Y-128024838D01*
X223902768Y-128024838D02*
X223944435Y-128072457D01*
X223944435Y-128072457D02*
X223998006Y-128024838D01*
X223998006Y-128024838D02*
X223956339Y-127977219D01*
X223956339Y-127977219D02*
X223944435Y-128072457D01*
X224450387Y-128977219D02*
X224361101Y-128929600D01*
X224361101Y-128929600D02*
X224319434Y-128881980D01*
X224319434Y-128881980D02*
X224283720Y-128786742D01*
X224283720Y-128786742D02*
X224319434Y-128501028D01*
X224319434Y-128501028D02*
X224378958Y-128405790D01*
X224378958Y-128405790D02*
X224432529Y-128358171D01*
X224432529Y-128358171D02*
X224533720Y-128310552D01*
X224533720Y-128310552D02*
X224676577Y-128310552D01*
X224676577Y-128310552D02*
X224765863Y-128358171D01*
X224765863Y-128358171D02*
X224807529Y-128405790D01*
X224807529Y-128405790D02*
X224843244Y-128501028D01*
X224843244Y-128501028D02*
X224807529Y-128786742D01*
X224807529Y-128786742D02*
X224748006Y-128881980D01*
X224748006Y-128881980D02*
X224694434Y-128929600D01*
X224694434Y-128929600D02*
X224593244Y-128977219D01*
X224593244Y-128977219D02*
X224450387Y-128977219D01*
X225295625Y-128310552D02*
X225212291Y-128977219D01*
X225283720Y-128405790D02*
X225337291Y-128358171D01*
X225337291Y-128358171D02*
X225438482Y-128310552D01*
X225438482Y-128310552D02*
X225581339Y-128310552D01*
X225581339Y-128310552D02*
X225670625Y-128358171D01*
X225670625Y-128358171D02*
X225706339Y-128453409D01*
X225706339Y-128453409D02*
X225640863Y-128977219D01*
X226878958Y-128977219D02*
X227003958Y-127977219D01*
X227003958Y-127977219D02*
X227384911Y-127977219D01*
X227384911Y-127977219D02*
X227474196Y-128024838D01*
X227474196Y-128024838D02*
X227515863Y-128072457D01*
X227515863Y-128072457D02*
X227551577Y-128167695D01*
X227551577Y-128167695D02*
X227533720Y-128310552D01*
X227533720Y-128310552D02*
X227474196Y-128405790D01*
X227474196Y-128405790D02*
X227420625Y-128453409D01*
X227420625Y-128453409D02*
X227319435Y-128501028D01*
X227319435Y-128501028D02*
X226938482Y-128501028D01*
X228021816Y-128977219D02*
X227932530Y-128929600D01*
X227932530Y-128929600D02*
X227896816Y-128834361D01*
X227896816Y-128834361D02*
X228003958Y-127977219D01*
X228831340Y-128977219D02*
X228896816Y-128453409D01*
X228896816Y-128453409D02*
X228861102Y-128358171D01*
X228861102Y-128358171D02*
X228771816Y-128310552D01*
X228771816Y-128310552D02*
X228581340Y-128310552D01*
X228581340Y-128310552D02*
X228480149Y-128358171D01*
X228837292Y-128929600D02*
X228736102Y-128977219D01*
X228736102Y-128977219D02*
X228498006Y-128977219D01*
X228498006Y-128977219D02*
X228408721Y-128929600D01*
X228408721Y-128929600D02*
X228373006Y-128834361D01*
X228373006Y-128834361D02*
X228384911Y-128739123D01*
X228384911Y-128739123D02*
X228444435Y-128643885D01*
X228444435Y-128643885D02*
X228545626Y-128596266D01*
X228545626Y-128596266D02*
X228783721Y-128596266D01*
X228783721Y-128596266D02*
X228884911Y-128548647D01*
X229248007Y-128310552D02*
X229628959Y-128310552D01*
X229432530Y-127977219D02*
X229325388Y-128834361D01*
X229325388Y-128834361D02*
X229361102Y-128929600D01*
X229361102Y-128929600D02*
X229450388Y-128977219D01*
X229450388Y-128977219D02*
X229545626Y-128977219D01*
X229819436Y-128310552D02*
X230200388Y-128310552D01*
X230003959Y-127977219D02*
X229896817Y-128834361D01*
X229896817Y-128834361D02*
X229932531Y-128929600D01*
X229932531Y-128929600D02*
X230021817Y-128977219D01*
X230021817Y-128977219D02*
X230117055Y-128977219D01*
X230837293Y-128929600D02*
X230736103Y-128977219D01*
X230736103Y-128977219D02*
X230545626Y-128977219D01*
X230545626Y-128977219D02*
X230456341Y-128929600D01*
X230456341Y-128929600D02*
X230420626Y-128834361D01*
X230420626Y-128834361D02*
X230468246Y-128453409D01*
X230468246Y-128453409D02*
X230527769Y-128358171D01*
X230527769Y-128358171D02*
X230628960Y-128310552D01*
X230628960Y-128310552D02*
X230819436Y-128310552D01*
X230819436Y-128310552D02*
X230908722Y-128358171D01*
X230908722Y-128358171D02*
X230944436Y-128453409D01*
X230944436Y-128453409D02*
X230932531Y-128548647D01*
X230932531Y-128548647D02*
X230444436Y-128643885D01*
X231307531Y-128977219D02*
X231390865Y-128310552D01*
X231367055Y-128501028D02*
X231426579Y-128405790D01*
X231426579Y-128405790D02*
X231480150Y-128358171D01*
X231480150Y-128358171D02*
X231581341Y-128310552D01*
X231581341Y-128310552D02*
X231676579Y-128310552D01*
X231676579Y-129072457D02*
X232438484Y-129072457D01*
X232670627Y-127977219D02*
X232878961Y-128977219D01*
X232878961Y-128977219D02*
X233337294Y-127977219D01*
X234057532Y-128310552D02*
X233974199Y-128977219D01*
X233867056Y-127929600D02*
X233539675Y-128643885D01*
X233539675Y-128643885D02*
X234158723Y-128643885D01*
X234509913Y-128881980D02*
X234551580Y-128929600D01*
X234551580Y-128929600D02*
X234498008Y-128977219D01*
X234498008Y-128977219D02*
X234456342Y-128929600D01*
X234456342Y-128929600D02*
X234509913Y-128881980D01*
X234509913Y-128881980D02*
X234498008Y-128977219D01*
X235289675Y-127977219D02*
X235384913Y-127977219D01*
X235384913Y-127977219D02*
X235474198Y-128024838D01*
X235474198Y-128024838D02*
X235515865Y-128072457D01*
X235515865Y-128072457D02*
X235551579Y-128167695D01*
X235551579Y-128167695D02*
X235575389Y-128358171D01*
X235575389Y-128358171D02*
X235545627Y-128596266D01*
X235545627Y-128596266D02*
X235474198Y-128786742D01*
X235474198Y-128786742D02*
X235414675Y-128881980D01*
X235414675Y-128881980D02*
X235361103Y-128929600D01*
X235361103Y-128929600D02*
X235259913Y-128977219D01*
X235259913Y-128977219D02*
X235164675Y-128977219D01*
X235164675Y-128977219D02*
X235075389Y-128929600D01*
X235075389Y-128929600D02*
X235033722Y-128881980D01*
X235033722Y-128881980D02*
X234998008Y-128786742D01*
X234998008Y-128786742D02*
X234974198Y-128596266D01*
X234974198Y-128596266D02*
X235003960Y-128358171D01*
X235003960Y-128358171D02*
X235075389Y-128167695D01*
X235075389Y-128167695D02*
X235134913Y-128072457D01*
X235134913Y-128072457D02*
X235188484Y-128024838D01*
X235188484Y-128024838D02*
X235289675Y-127977219D01*
X236688484Y-128977219D02*
X236813484Y-127977219D01*
X236813484Y-127977219D02*
X237051580Y-127977219D01*
X237051580Y-127977219D02*
X237188484Y-128024838D01*
X237188484Y-128024838D02*
X237271818Y-128120076D01*
X237271818Y-128120076D02*
X237307532Y-128215314D01*
X237307532Y-128215314D02*
X237331342Y-128405790D01*
X237331342Y-128405790D02*
X237313484Y-128548647D01*
X237313484Y-128548647D02*
X237242056Y-128739123D01*
X237242056Y-128739123D02*
X237182532Y-128834361D01*
X237182532Y-128834361D02*
X237075389Y-128929600D01*
X237075389Y-128929600D02*
X236926580Y-128977219D01*
X236926580Y-128977219D02*
X236688484Y-128977219D01*
X238075389Y-128929600D02*
X237974199Y-128977219D01*
X237974199Y-128977219D02*
X237783722Y-128977219D01*
X237783722Y-128977219D02*
X237694437Y-128929600D01*
X237694437Y-128929600D02*
X237658722Y-128834361D01*
X237658722Y-128834361D02*
X237706342Y-128453409D01*
X237706342Y-128453409D02*
X237765865Y-128358171D01*
X237765865Y-128358171D02*
X237867056Y-128310552D01*
X237867056Y-128310552D02*
X238057532Y-128310552D01*
X238057532Y-128310552D02*
X238146818Y-128358171D01*
X238146818Y-128358171D02*
X238182532Y-128453409D01*
X238182532Y-128453409D02*
X238170627Y-128548647D01*
X238170627Y-128548647D02*
X237682532Y-128643885D01*
X238980151Y-128929600D02*
X238878961Y-128977219D01*
X238878961Y-128977219D02*
X238688485Y-128977219D01*
X238688485Y-128977219D02*
X238599199Y-128929600D01*
X238599199Y-128929600D02*
X238557532Y-128881980D01*
X238557532Y-128881980D02*
X238521818Y-128786742D01*
X238521818Y-128786742D02*
X238557532Y-128501028D01*
X238557532Y-128501028D02*
X238617056Y-128405790D01*
X238617056Y-128405790D02*
X238670627Y-128358171D01*
X238670627Y-128358171D02*
X238771818Y-128310552D01*
X238771818Y-128310552D02*
X238962294Y-128310552D01*
X238962294Y-128310552D02*
X239051580Y-128358171D01*
X240230152Y-128072457D02*
X240283723Y-128024838D01*
X240283723Y-128024838D02*
X240384913Y-127977219D01*
X240384913Y-127977219D02*
X240623009Y-127977219D01*
X240623009Y-127977219D02*
X240712294Y-128024838D01*
X240712294Y-128024838D02*
X240753961Y-128072457D01*
X240753961Y-128072457D02*
X240789675Y-128167695D01*
X240789675Y-128167695D02*
X240777771Y-128262933D01*
X240777771Y-128262933D02*
X240712294Y-128405790D01*
X240712294Y-128405790D02*
X240069437Y-128977219D01*
X240069437Y-128977219D02*
X240688485Y-128977219D01*
X241432533Y-127977219D02*
X241527771Y-127977219D01*
X241527771Y-127977219D02*
X241617056Y-128024838D01*
X241617056Y-128024838D02*
X241658723Y-128072457D01*
X241658723Y-128072457D02*
X241694437Y-128167695D01*
X241694437Y-128167695D02*
X241718247Y-128358171D01*
X241718247Y-128358171D02*
X241688485Y-128596266D01*
X241688485Y-128596266D02*
X241617056Y-128786742D01*
X241617056Y-128786742D02*
X241557533Y-128881980D01*
X241557533Y-128881980D02*
X241503961Y-128929600D01*
X241503961Y-128929600D02*
X241402771Y-128977219D01*
X241402771Y-128977219D02*
X241307533Y-128977219D01*
X241307533Y-128977219D02*
X241218247Y-128929600D01*
X241218247Y-128929600D02*
X241176580Y-128881980D01*
X241176580Y-128881980D02*
X241140866Y-128786742D01*
X241140866Y-128786742D02*
X241117056Y-128596266D01*
X241117056Y-128596266D02*
X241146818Y-128358171D01*
X241146818Y-128358171D02*
X241218247Y-128167695D01*
X241218247Y-128167695D02*
X241277771Y-128072457D01*
X241277771Y-128072457D02*
X241331342Y-128024838D01*
X241331342Y-128024838D02*
X241432533Y-127977219D01*
X242134914Y-128072457D02*
X242188485Y-128024838D01*
X242188485Y-128024838D02*
X242289675Y-127977219D01*
X242289675Y-127977219D02*
X242527771Y-127977219D01*
X242527771Y-127977219D02*
X242617056Y-128024838D01*
X242617056Y-128024838D02*
X242658723Y-128072457D01*
X242658723Y-128072457D02*
X242694437Y-128167695D01*
X242694437Y-128167695D02*
X242682533Y-128262933D01*
X242682533Y-128262933D02*
X242617056Y-128405790D01*
X242617056Y-128405790D02*
X241974199Y-128977219D01*
X241974199Y-128977219D02*
X242593247Y-128977219D01*
X243623009Y-127977219D02*
X243146818Y-127977219D01*
X243146818Y-127977219D02*
X243039676Y-128453409D01*
X243039676Y-128453409D02*
X243093247Y-128405790D01*
X243093247Y-128405790D02*
X243194437Y-128358171D01*
X243194437Y-128358171D02*
X243432533Y-128358171D01*
X243432533Y-128358171D02*
X243521818Y-128405790D01*
X243521818Y-128405790D02*
X243563485Y-128453409D01*
X243563485Y-128453409D02*
X243599199Y-128548647D01*
X243599199Y-128548647D02*
X243569437Y-128786742D01*
X243569437Y-128786742D02*
X243509914Y-128881980D01*
X243509914Y-128881980D02*
X243456342Y-128929600D01*
X243456342Y-128929600D02*
X243355152Y-128977219D01*
X243355152Y-128977219D02*
X243117056Y-128977219D01*
X243117056Y-128977219D02*
X243027771Y-128929600D01*
X243027771Y-128929600D02*
X242986104Y-128881980D01*
D11*
%TO.C,REF\u002A\u002A*%
X237374900Y-126781400D02*
X240000100Y-126768600D01*
X237375100Y-124118600D02*
X237374900Y-126781400D01*
X237375100Y-124118600D02*
X240000300Y-124105800D01*
X238175000Y-123875000D02*
X238175200Y-123662200D01*
X238175100Y-126318600D02*
X237374900Y-126781400D01*
X238175100Y-126318600D02*
X238175100Y-124368600D01*
X238175100Y-126318600D02*
X239750100Y-126318600D01*
X238175300Y-123655800D02*
X237375100Y-124118600D01*
X238175300Y-123655800D02*
X240800500Y-123643000D01*
X238832550Y-125913725D02*
X238817650Y-124473475D01*
X239317650Y-125923475D02*
X238825100Y-125193600D01*
X239367650Y-124498475D02*
X238825100Y-125193600D01*
X240000300Y-124105800D02*
X240000100Y-126768600D01*
X240300100Y-126318600D02*
X240800300Y-126305800D01*
X240800300Y-126305800D02*
X240000100Y-126768600D01*
X240800500Y-123643000D02*
X240000300Y-124105800D01*
X240800500Y-123643000D02*
X240800300Y-126305800D01*
%TD*%
D12*
%TO.C,D13*%
X104647666Y-103137005D03*
X103480940Y-101970279D03*
%TD*%
D13*
%TO.C,R28*%
X204100000Y-80400000D03*
X202450000Y-80400000D03*
%TD*%
D14*
%TO.C,R73*%
X223875000Y-68950000D03*
X225525000Y-68950000D03*
%TD*%
D13*
%TO.C,R29*%
X204075000Y-81900000D03*
X202425000Y-81900000D03*
%TD*%
D15*
%TO.C,R38*%
X75066637Y-91166637D03*
X76233363Y-92333363D03*
%TD*%
D16*
%TO.C,C5*%
X72851830Y-95669849D03*
X71755814Y-94573833D03*
%TD*%
D17*
%TO.C,U4*%
X187142500Y-106060000D03*
X184602500Y-106060000D03*
X182062500Y-106060000D03*
X179522500Y-106060000D03*
X176982500Y-106060000D03*
X174442500Y-106060000D03*
X171902500Y-106060000D03*
X169362500Y-106060000D03*
X166822500Y-106060000D03*
X164282500Y-106060000D03*
X161742500Y-106060000D03*
X159202500Y-106060000D03*
X156662500Y-106060000D03*
X154122500Y-106060000D03*
X151582500Y-106060000D03*
X149042500Y-106060000D03*
X146502500Y-106060000D03*
X143962500Y-106060000D03*
X141422500Y-106060000D03*
X138882500Y-106060000D03*
X138882500Y-123840000D03*
X141422500Y-123840000D03*
X143962500Y-123840000D03*
X146502500Y-123840000D03*
X149042500Y-123840000D03*
X151582500Y-123840000D03*
X154122500Y-123840000D03*
X156662500Y-123840000D03*
X159202500Y-123840000D03*
X161742500Y-123840000D03*
X164282500Y-123840000D03*
X166822500Y-123840000D03*
X169362500Y-123840000D03*
X171902500Y-123840000D03*
X174442500Y-123840000D03*
X176982500Y-123840000D03*
X179522500Y-123840000D03*
X182062500Y-123840000D03*
X184602500Y-123840000D03*
X187142500Y-123840000D03*
%TD*%
D18*
%TO.C,R45*%
X203049998Y-101350000D03*
X203049998Y-99700000D03*
%TD*%
D19*
%TO.C,D21*%
X183700000Y-71950000D03*
X183700000Y-68650000D03*
X178800000Y-68650000D03*
X178800000Y-71950000D03*
%TD*%
D20*
%TO.C,R60*%
X74883363Y-105416637D03*
X73716637Y-106583363D03*
%TD*%
D15*
%TO.C,R53*%
X74016637Y-92216637D03*
X75183363Y-93383363D03*
%TD*%
D13*
%TO.C,D31*%
X85725000Y-63050000D03*
X84075000Y-63050000D03*
%TD*%
D18*
%TO.C,D22*%
X187300000Y-110425000D03*
X187300000Y-108775000D03*
%TD*%
D21*
%TO.C,J2*%
X81120000Y-65640000D03*
X77620000Y-65640000D03*
X81120000Y-63100000D03*
X77620000Y-63100000D03*
%TD*%
D22*
%TO.C,D24*%
X204550001Y-99700000D03*
X204550001Y-101350000D03*
%TD*%
D23*
%TO.C,Q1*%
X86340000Y-67290000D03*
X86340000Y-65390000D03*
X84040000Y-66340000D03*
%TD*%
D13*
%TO.C,R41*%
X195300001Y-92550000D03*
X193650001Y-92550000D03*
%TD*%
%TO.C,R37*%
X207625000Y-93400000D03*
X205975000Y-93400000D03*
%TD*%
D24*
%TO.C,C23*%
X78001830Y-108598833D03*
X76905814Y-109694849D03*
%TD*%
%TO.C,C16*%
X111034027Y-80571463D03*
X109938011Y-81667479D03*
%TD*%
D25*
%TO.C,R64*%
X133627297Y-100694023D03*
X134794023Y-99527297D03*
%TD*%
D13*
%TO.C,R51*%
X197850000Y-65150000D03*
X196200000Y-65150000D03*
%TD*%
D26*
%TO.C,SW4*%
X165520000Y-91640000D03*
X165520000Y-86940000D03*
X165520000Y-82240000D03*
%TD*%
D22*
%TO.C,R40*%
X204550002Y-90250000D03*
X204550002Y-91900000D03*
%TD*%
D18*
%TO.C,D18*%
X179800000Y-110425000D03*
X179800000Y-108775000D03*
%TD*%
D27*
%TO.C,U8*%
X80350000Y-77075000D03*
X80350000Y-77725000D03*
X80350000Y-78375000D03*
X80350000Y-79025000D03*
X84750000Y-79025000D03*
X84750000Y-78375000D03*
X84750000Y-77725000D03*
X84750000Y-77075000D03*
%TD*%
D28*
%TO.C,C30*%
X86155813Y-91619849D03*
X87251829Y-90523833D03*
%TD*%
D18*
%TO.C,R47*%
X198550000Y-101350000D03*
X198550000Y-99700000D03*
%TD*%
D15*
%TO.C,R39*%
X76150000Y-90100000D03*
X77316726Y-91266726D03*
%TD*%
D20*
%TO.C,R16*%
X115842353Y-74136792D03*
X114675627Y-75303518D03*
%TD*%
D29*
%TO.C,D35*%
X197037501Y-122500000D03*
X195462499Y-122500000D03*
%TD*%
D20*
%TO.C,R17*%
X103909926Y-79917390D03*
X102743200Y-81084116D03*
%TD*%
D13*
%TO.C,D27*%
X79250000Y-68950000D03*
X77600000Y-68950000D03*
%TD*%
D30*
%TO.C,C20*%
X184075000Y-73950000D03*
X182525000Y-73950000D03*
%TD*%
D31*
%TO.C,JP6*%
X92605000Y-64080000D03*
X89295000Y-66620000D03*
%TD*%
D32*
%TO.C,C1*%
X84555814Y-109473832D03*
X85651830Y-110569848D03*
%TD*%
D22*
%TO.C,R35*%
X182800000Y-108775000D03*
X182800000Y-110425000D03*
%TD*%
D33*
%TO.C,SW3*%
X122210000Y-124860000D03*
X127210000Y-124860000D03*
X124710000Y-124860000D03*
D34*
X119210000Y-117360000D03*
X130210000Y-117360000D03*
D33*
X122210000Y-110360000D03*
X127210000Y-110360000D03*
%TD*%
D35*
%TO.C,H3*%
X250350000Y-64300000D03*
%TD*%
D19*
%TO.C,D19*%
X152300000Y-71700000D03*
X152300000Y-68400000D03*
X147400000Y-68400000D03*
X147400000Y-71700000D03*
%TD*%
D13*
%TO.C,R27*%
X204075000Y-78900000D03*
X202425000Y-78900000D03*
%TD*%
%TO.C,R49*%
X197850000Y-68150000D03*
X196200000Y-68150000D03*
%TD*%
D18*
%TO.C,R36*%
X200050000Y-101350000D03*
X200050000Y-99700000D03*
%TD*%
D36*
%TO.C,U5*%
X213637277Y-75505449D03*
X213637277Y-81855449D03*
X246100000Y-75565000D03*
X246100000Y-81915000D03*
D37*
X244150000Y-74930000D03*
X248050000Y-74930000D03*
X244150000Y-76200000D03*
X248050000Y-76200000D03*
X244150000Y-77470000D03*
X248050000Y-77470000D03*
X244150000Y-78740000D03*
X248050000Y-78740000D03*
X244150000Y-80010000D03*
X248050000Y-80010000D03*
X244150000Y-81280000D03*
X248050000Y-81280000D03*
X244150000Y-82550000D03*
X248050000Y-82550000D03*
X211687277Y-74870449D03*
X215587277Y-74870449D03*
X211687277Y-76140449D03*
X211687277Y-77410449D03*
X215587277Y-77410449D03*
X211687277Y-78680449D03*
X215587277Y-78680449D03*
X211687277Y-79950449D03*
X215587277Y-79950449D03*
X211687277Y-81220449D03*
X215587277Y-81220449D03*
X211687277Y-82490449D03*
X215587277Y-82490449D03*
D38*
X214081934Y-67099056D03*
X214081934Y-90199056D03*
X245581934Y-67099056D03*
X245581934Y-90199056D03*
%TD*%
D39*
%TO.C,D34*%
X207562500Y-62800000D03*
X209137500Y-62800000D03*
%TD*%
%TO.C,D1*%
X186762500Y-76300000D03*
X188337500Y-76300000D03*
%TD*%
D40*
%TO.C,U2*%
X106344722Y-97126598D03*
X105991169Y-96773045D03*
X105637615Y-96419491D03*
X105284062Y-96065938D03*
X103056676Y-98293324D03*
X103410229Y-98646877D03*
X103763783Y-99000431D03*
X104117336Y-99353984D03*
%TD*%
D22*
%TO.C,R34*%
X185800000Y-108775000D03*
X185800000Y-110425000D03*
%TD*%
D41*
%TO.C,U9*%
X126020000Y-78150000D03*
X127290000Y-78150000D03*
X128560000Y-78150000D03*
X129830000Y-78150000D03*
%TD*%
D42*
%TO.C,U10*%
X134505923Y-94905924D03*
X135403949Y-95803949D03*
X136301974Y-96701975D03*
X137200000Y-97600000D03*
X138098026Y-98498026D03*
X138996051Y-99396052D03*
X139894077Y-100294077D03*
X140792102Y-101192103D03*
X144292281Y-97691924D03*
X143394255Y-96793899D03*
X142496230Y-95895873D03*
X141598204Y-94997848D03*
X140700178Y-94099822D03*
X139802153Y-93201796D03*
X138904127Y-92303771D03*
X138006102Y-91405745D03*
%TD*%
D43*
%TO.C,D33*%
X139200000Y-80737500D03*
X139200000Y-82312502D03*
%TD*%
D15*
%TO.C,D16*%
X99273654Y-97762994D03*
X100440380Y-98929720D03*
%TD*%
D44*
%TO.C,D30*%
X71453811Y-85432490D03*
X72567505Y-86546184D03*
%TD*%
D25*
%TO.C,R18*%
X107882679Y-95588641D03*
X109049405Y-94421915D03*
%TD*%
D18*
%TO.C,R46*%
X201550000Y-101350000D03*
X201550000Y-99700000D03*
%TD*%
D45*
%TO.C,U3*%
X199325000Y-81420000D03*
X199325000Y-80150000D03*
X199325000Y-78880000D03*
X199325000Y-77610000D03*
X199325000Y-76340000D03*
X199325000Y-75070000D03*
X199325000Y-73800000D03*
X199325000Y-72530000D03*
X194375000Y-72530000D03*
X194375000Y-73800000D03*
X194375000Y-75070000D03*
X194375000Y-76340000D03*
X194375000Y-77610000D03*
X194375000Y-78880000D03*
X194375000Y-80150000D03*
X194375000Y-81420000D03*
%TD*%
D28*
%TO.C,C22*%
X85105814Y-90569849D03*
X86201830Y-89473833D03*
%TD*%
D19*
%TO.C,D20*%
X168100000Y-71800000D03*
X168100000Y-68500000D03*
X163200000Y-68500000D03*
X163200000Y-71800000D03*
%TD*%
D22*
%TO.C,D23*%
X197049999Y-99700000D03*
X197049999Y-101350000D03*
%TD*%
D46*
%TO.C,U7*%
X112243179Y-77043000D03*
X111345153Y-76144975D03*
X110447128Y-75246949D03*
X109549102Y-74348924D03*
X108651076Y-73450898D03*
X107753051Y-72552872D03*
X106855025Y-71654847D03*
X105957000Y-70756821D03*
X102456821Y-74257000D03*
X103354847Y-75155025D03*
X104252872Y-76053051D03*
X105150898Y-76951076D03*
X106048924Y-77849102D03*
X106946949Y-78747128D03*
X107844975Y-79645153D03*
X108743000Y-80543179D03*
%TD*%
D26*
%TO.C,SW2*%
X149840000Y-91790000D03*
X149840000Y-87090000D03*
X149840000Y-82390000D03*
%TD*%
D25*
%TO.C,R62*%
X132566637Y-99633363D03*
X133733363Y-98466637D03*
%TD*%
D20*
%TO.C,R61*%
X76983363Y-107516637D03*
X75816637Y-108683363D03*
%TD*%
D12*
%TO.C,D11*%
X110092388Y-97692283D03*
X108925662Y-96525557D03*
%TD*%
D18*
%TO.C,R55*%
X77900000Y-80050000D03*
X77900000Y-78400000D03*
%TD*%
D28*
%TO.C,C21*%
X105054252Y-100255546D03*
X106150268Y-99159530D03*
%TD*%
D47*
%TO.C,D14*%
X78700000Y-116600000D03*
X78700000Y-119900000D03*
X83600000Y-119900000D03*
X83600000Y-116600000D03*
%TD*%
D13*
%TO.C,R71*%
X209175000Y-64300000D03*
X207525000Y-64300000D03*
%TD*%
D48*
%TO.C,U1*%
X82911181Y-106014481D03*
X83264734Y-105660928D03*
X83618287Y-105307375D03*
X83971841Y-104953821D03*
X84325394Y-104600268D03*
X84678948Y-104246714D03*
X85032501Y-103893161D03*
X85386054Y-103539608D03*
X85739608Y-103186054D03*
X86093161Y-102832501D03*
X86446714Y-102478948D03*
X86800268Y-102125394D03*
X87153821Y-101771841D03*
X87507375Y-101418287D03*
X87860928Y-101064734D03*
X88214481Y-100711181D03*
D49*
X88214481Y-97988819D03*
X87860928Y-97635266D03*
X87507375Y-97281713D03*
X87153821Y-96928159D03*
X86800268Y-96574606D03*
X86446714Y-96221052D03*
X86093161Y-95867499D03*
X85739608Y-95513946D03*
X85386054Y-95160392D03*
X85032501Y-94806839D03*
X84678948Y-94453286D03*
X84325394Y-94099732D03*
X83971841Y-93746179D03*
X83618287Y-93392625D03*
X83264734Y-93039072D03*
X82911181Y-92685519D03*
D48*
X80188819Y-92685519D03*
X79835266Y-93039072D03*
X79481713Y-93392625D03*
X79128159Y-93746179D03*
X78774606Y-94099732D03*
X78421052Y-94453286D03*
X78067499Y-94806839D03*
X77713946Y-95160392D03*
X77360392Y-95513946D03*
X77006839Y-95867499D03*
X76653286Y-96221052D03*
X76299732Y-96574606D03*
X75946179Y-96928159D03*
X75592625Y-97281713D03*
X75239072Y-97635266D03*
X74885519Y-97988819D03*
D49*
X74885519Y-100711181D03*
X75239072Y-101064734D03*
X75592625Y-101418287D03*
X75946179Y-101771841D03*
X76299732Y-102125394D03*
X76653286Y-102478948D03*
X77006839Y-102832501D03*
X77360392Y-103186054D03*
X77713946Y-103539608D03*
X78067499Y-103893161D03*
X78421052Y-104246714D03*
X78774606Y-104600268D03*
X79128159Y-104953821D03*
X79481713Y-105307375D03*
X79835266Y-105660928D03*
X80188819Y-106014481D03*
%TD*%
D50*
%TO.C,C25*%
X122125001Y-100050000D03*
X119174999Y-100050000D03*
%TD*%
D28*
%TO.C,C35*%
X135856497Y-91377461D03*
X136952513Y-90281445D03*
%TD*%
D15*
%TO.C,D12*%
X104516637Y-92466637D03*
X105683363Y-93633363D03*
%TD*%
D13*
%TO.C,R43*%
X195300002Y-89550000D03*
X193650002Y-89550000D03*
%TD*%
D28*
%TO.C,C24*%
X89555814Y-95169850D03*
X90651830Y-94073834D03*
%TD*%
D25*
%TO.C,R65*%
X134687957Y-101754683D03*
X135854683Y-100587957D03*
%TD*%
D26*
%TO.C,SW1*%
X181330000Y-91730000D03*
X181330000Y-87030000D03*
X181330000Y-82330000D03*
%TD*%
D13*
%TO.C,R44*%
X195300003Y-88050000D03*
X193650003Y-88050000D03*
%TD*%
D30*
%TO.C,C6*%
X199075001Y-94800000D03*
X197525001Y-94800000D03*
%TD*%
D14*
%TO.C,R54*%
X74775000Y-76900000D03*
X76425000Y-76900000D03*
%TD*%
%TO.C,R58*%
X87125000Y-80750000D03*
X88775000Y-80750000D03*
%TD*%
D39*
%TO.C,D17*%
X206012500Y-91900002D03*
X207587502Y-91900002D03*
%TD*%
D51*
%TO.C,Y1*%
X88913693Y-107573743D03*
X87676256Y-106336306D03*
X86686307Y-107326255D03*
X87923744Y-108563692D03*
%TD*%
D25*
%TO.C,R19*%
X106822018Y-94527980D03*
X107988744Y-93361254D03*
%TD*%
D32*
%TO.C,C29*%
X90955813Y-103223833D03*
X92051829Y-104319849D03*
%TD*%
D25*
%TO.C,R25*%
X101377297Y-102094023D03*
X102544023Y-100927297D03*
%TD*%
D14*
%TO.C,R74*%
X223875000Y-67450000D03*
X225525000Y-67450000D03*
%TD*%
D29*
%TO.C,D32*%
X76387501Y-78400000D03*
X74812499Y-78400000D03*
%TD*%
D35*
%TO.C,H1*%
X249900000Y-125450000D03*
%TD*%
D13*
%TO.C,R42*%
X195300001Y-91050000D03*
X193650001Y-91050000D03*
%TD*%
D44*
%TO.C,D29*%
X70393153Y-86493153D03*
X71506847Y-87606847D03*
%TD*%
D22*
%TO.C,R66*%
X139200000Y-83700000D03*
X139200000Y-85350000D03*
%TD*%
D52*
%TO.C,D2*%
X101762089Y-77822585D03*
X100648395Y-78936279D03*
%TD*%
D53*
%TO.C,C17*%
X78425000Y-114700000D03*
X79975000Y-114700000D03*
%TD*%
D35*
%TO.C,H2*%
X69520000Y-125060000D03*
%TD*%
D18*
%TO.C,R63*%
X137699999Y-85350001D03*
X137699999Y-83700001D03*
%TD*%
D14*
%TO.C,R59*%
X87125000Y-82250000D03*
X88775000Y-82250000D03*
%TD*%
%TO.C,R56*%
X87125000Y-77750000D03*
X88775000Y-77750000D03*
%TD*%
D13*
%TO.C,R48*%
X197850000Y-63650000D03*
X196200000Y-63650000D03*
%TD*%
D14*
%TO.C,D26*%
X196200000Y-69650000D03*
X197850000Y-69650000D03*
%TD*%
%TO.C,R1*%
X189725000Y-76300000D03*
X191375000Y-76300000D03*
%TD*%
%TO.C,R57*%
X87125000Y-79250000D03*
X88775000Y-79250000D03*
%TD*%
D30*
%TO.C,C18*%
X152700000Y-73550000D03*
X151150000Y-73550000D03*
%TD*%
D13*
%TO.C,R72*%
X197075000Y-124000000D03*
X195425000Y-124000000D03*
%TD*%
D24*
%TO.C,C4*%
X79051830Y-109623833D03*
X77955814Y-110719849D03*
%TD*%
D25*
%TO.C,R31*%
X101682540Y-80023455D03*
X102849266Y-78856729D03*
%TD*%
D32*
%TO.C,C28*%
X89905812Y-104273834D03*
X91001828Y-105369850D03*
%TD*%
D44*
%TO.C,D28*%
X69332490Y-87553811D03*
X70446184Y-88667505D03*
%TD*%
D54*
%TO.C,RV1*%
X207300000Y-126125000D03*
D55*
X209800000Y-126125000D03*
X212300000Y-126125000D03*
X214800000Y-126125000D03*
D56*
X205250000Y-115125000D03*
X216850000Y-115125000D03*
%TD*%
D27*
%TO.C,U6*%
X202150000Y-93225000D03*
X202150000Y-92575000D03*
X202150000Y-91925000D03*
X202150000Y-91275000D03*
X197750000Y-91275000D03*
X197750000Y-91925000D03*
X197750000Y-92575000D03*
X197750000Y-93225000D03*
%TD*%
D57*
%TO.C,C34*%
X127300000Y-82125000D03*
X127300000Y-80575000D03*
%TD*%
D58*
%TO.C,C26*%
X119250000Y-88500000D03*
X122200002Y-88500000D03*
%TD*%
D32*
%TO.C,C2*%
X85601993Y-108451991D03*
X86698009Y-109548007D03*
%TD*%
D59*
%TO.C,S2*%
X228765356Y-117880439D03*
%TD*%
D60*
%TO.C,VR2*%
X120600000Y-91950000D03*
D61*
X127450000Y-94250000D03*
D60*
X120600000Y-96550000D03*
%TD*%
D20*
%TO.C,R30*%
X113721032Y-72015471D03*
X112554306Y-73182197D03*
%TD*%
D13*
%TO.C,R26*%
X191375000Y-77800000D03*
X189725000Y-77800000D03*
%TD*%
%TO.C,R50*%
X197850000Y-66650000D03*
X196200000Y-66650000D03*
%TD*%
D30*
%TO.C,C7*%
X195950000Y-83100000D03*
X194400000Y-83100000D03*
%TD*%
D25*
%TO.C,R24*%
X100316637Y-101033363D03*
X101483363Y-99866637D03*
%TD*%
D30*
%TO.C,C19*%
X168425000Y-73750000D03*
X166875000Y-73750000D03*
%TD*%
D14*
%TO.C,D25*%
X196200000Y-62150000D03*
X197850000Y-62150000D03*
%TD*%
D22*
%TO.C,R32*%
X181300000Y-108775000D03*
X181300000Y-110425000D03*
%TD*%
D35*
%TO.C,H4*%
X68650000Y-72900000D03*
%TD*%
D53*
%TO.C,C31*%
X83425000Y-75500000D03*
X84975000Y-75500000D03*
%TD*%
D59*
%TO.C,S1*%
X106290900Y-117727800D03*
%TD*%
D22*
%TO.C,R33*%
X184300000Y-108775000D03*
X184300000Y-110425000D03*
%TD*%
D20*
%TO.C,R22*%
X114781692Y-73076131D03*
X113614966Y-74242857D03*
%TD*%
D25*
%TO.C,R52*%
X74766637Y-107633363D03*
X75933363Y-106466637D03*
%TD*%
D16*
%TO.C,C3*%
X89948008Y-106448007D03*
X88851992Y-105351991D03*
%TD*%
D62*
%TO.C,J6*%
X143440000Y-70450000D03*
D63*
X138360000Y-70450000D03*
%TD*%
D64*
%TO.C,VR3*%
X115800000Y-66050000D03*
D65*
X133300000Y-66050000D03*
X133300000Y-106050000D03*
X115800000Y-106050000D03*
%TD*%
D62*
%TO.C,K4*%
X240410000Y-75395000D03*
D63*
X240410000Y-85595000D03*
X240410000Y-93215000D03*
X232790000Y-75395000D03*
%TD*%
D66*
%TO.C,VR1*%
X202450000Y-103350000D03*
D65*
X184950000Y-103350000D03*
X184950000Y-63350000D03*
X202450000Y-63350000D03*
%TD*%
D67*
%TO.C,J7*%
X224950000Y-83100000D03*
D68*
X226950000Y-81500000D03*
D69*
X226950000Y-79000000D03*
X226950000Y-76500000D03*
X226950000Y-74000000D03*
%TD*%
D70*
%TO.C,J11*%
X240770000Y-116610000D03*
X246570000Y-116610000D03*
X243770000Y-121410000D03*
%TD*%
M02*
