%TF.GenerationSoftware,KiCad,Pcbnew,10.0.1*%
%TF.CreationDate,2026-05-01T20:34:33-06:00*%
%TF.ProjectId,PoweredPlatter2_LED Blade_V1,506f7765-7265-4645-906c-617474657232,rev?*%
%TF.SameCoordinates,PX73df160PY5cfbb60*%
%TF.FileFunction,Copper,L1,Top*%
%TF.FilePolarity,Positive*%
%FSLAX46Y46*%
G04 Gerber Fmt 4.6, Leading zero omitted, Abs format (unit mm)*
G04 Created by KiCad (PCBNEW 10.0.1) date 2026-05-01 20:34:33*
%MOMM*%
%LPD*%
G01*
G04 APERTURE LIST*
G04 Aperture macros list*
%AMRoundRect*
0 Rectangle with rounded corners*
0 $1 Rounding radius*
0 $2 $3 $4 $5 $6 $7 $8 $9 X,Y pos of 4 corners*
0 Add a 4 corners polygon primitive as box body*
4,1,4,$2,$3,$4,$5,$6,$7,$8,$9,$2,$3,0*
0 Add four circle primitives for the rounded corners*
1,1,$1+$1,$2,$3*
1,1,$1+$1,$4,$5*
1,1,$1+$1,$6,$7*
1,1,$1+$1,$8,$9*
0 Add four rect primitives between the rounded corners*
20,1,$1+$1,$2,$3,$4,$5,0*
20,1,$1+$1,$4,$5,$6,$7,0*
20,1,$1+$1,$6,$7,$8,$9,0*
20,1,$1+$1,$8,$9,$2,$3,0*%
G04 Aperture macros list end*
%ADD10C,0.150000*%
%TA.AperFunction,ComponentPad*%
%ADD11C,1.800000*%
%TD*%
%TA.AperFunction,ComponentPad*%
%ADD12R,1.800000X1.800000*%
%TD*%
%TA.AperFunction,SMDPad,CuDef*%
%ADD13RoundRect,0.237500X-0.250000X-0.237500X0.250000X-0.237500X0.250000X0.237500X-0.250000X0.237500X0*%
%TD*%
%TA.AperFunction,ComponentPad*%
%ADD14R,1.700000X1.700000*%
%TD*%
%TA.AperFunction,ComponentPad*%
%ADD15C,1.700000*%
%TD*%
%TA.AperFunction,Conductor*%
%ADD16C,1.000000*%
%TD*%
%TA.AperFunction,Conductor*%
%ADD17C,0.500000*%
%TD*%
G04 APERTURE END LIST*
D10*
G36*
X3391503Y13517010D02*
G01*
X3465616Y13442897D01*
X3504109Y13365910D01*
X3547493Y13192376D01*
X3547493Y13067987D01*
X3504109Y12894453D01*
X3465615Y12817466D01*
X3391503Y12743353D01*
X3276990Y12705181D01*
X3126065Y12705181D01*
X3126065Y13555181D01*
X3276990Y13555181D01*
X3391503Y13517010D01*
G37*
G36*
X5248646Y13040820D02*
G01*
X5275140Y13014326D01*
X5309398Y12945810D01*
X5309398Y12838363D01*
X5275139Y12769847D01*
X5244732Y12739439D01*
X5176217Y12705181D01*
X4887970Y12705181D01*
X4887970Y13078991D01*
X5134133Y13078991D01*
X5248646Y13040820D01*
G37*
G36*
X5197114Y13520923D02*
G01*
X5227521Y13490516D01*
X5261779Y13422000D01*
X5261779Y13362172D01*
X5227521Y13293656D01*
X5197114Y13263249D01*
X5128598Y13228991D01*
X4887970Y13228991D01*
X4887970Y13555181D01*
X5128598Y13555181D01*
X5197114Y13520923D01*
G37*
G36*
X6690351Y12724153D02*
G01*
X6652408Y12705181D01*
X6449723Y12705181D01*
X6392681Y12733702D01*
X6364161Y12790744D01*
X6364161Y12850572D01*
X6392681Y12907614D01*
X6449723Y12936134D01*
X6670113Y12936134D01*
X6684745Y12937575D01*
X6687234Y12938607D01*
X6689922Y12938797D01*
X6690351Y12938962D01*
X6690351Y12724153D01*
G37*
G36*
X7595113Y13202877D02*
G01*
X7595113Y12724153D01*
X7557170Y12705181D01*
X7402104Y12705181D01*
X7333588Y12739439D01*
X7303181Y12769847D01*
X7268923Y12838363D01*
X7268923Y13088667D01*
X7303181Y13157183D01*
X7333588Y13187590D01*
X7402104Y13221848D01*
X7557170Y13221848D01*
X7595113Y13202877D01*
G37*
G36*
X8471354Y13193328D02*
G01*
X8499875Y13136286D01*
X8499875Y13120238D01*
X8173685Y13055001D01*
X8173685Y13136286D01*
X8202205Y13193328D01*
X8259247Y13221848D01*
X8414313Y13221848D01*
X8471354Y13193328D01*
G37*
G36*
X11330974Y12348832D02*
G01*
X1150668Y12348832D01*
X1150668Y12549575D01*
X8691793Y12549575D01*
X8691793Y12520311D01*
X8702992Y12493275D01*
X8723684Y12472583D01*
X8750720Y12461384D01*
X8765352Y12459943D01*
X9527256Y12459943D01*
X9541888Y12461384D01*
X9568924Y12472583D01*
X9589616Y12493275D01*
X9600815Y12520311D01*
X9600815Y12549575D01*
X9589616Y12576611D01*
X9568924Y12597303D01*
X9541888Y12608502D01*
X9527256Y12609943D01*
X8765352Y12609943D01*
X8750720Y12608502D01*
X8723684Y12597303D01*
X8702992Y12576611D01*
X8691793Y12549575D01*
X1150668Y12549575D01*
X1150668Y13630181D01*
X1261779Y13630181D01*
X1261779Y12630181D01*
X1263220Y12615549D01*
X1274419Y12588513D01*
X1295111Y12567821D01*
X1322147Y12556622D01*
X1336779Y12555181D01*
X1812969Y12555181D01*
X1827601Y12556622D01*
X1854637Y12567821D01*
X1875329Y12588513D01*
X1886528Y12615549D01*
X1886528Y12644813D01*
X1875329Y12671849D01*
X1854637Y12692541D01*
X1827601Y12703740D01*
X1812969Y12705181D01*
X1411779Y12705181D01*
X1411779Y13630181D01*
X2071303Y13630181D01*
X2071303Y12630181D01*
X2072744Y12615549D01*
X2083943Y12588513D01*
X2104635Y12567821D01*
X2131671Y12556622D01*
X2146303Y12555181D01*
X2622493Y12555181D01*
X2637125Y12556622D01*
X2664161Y12567821D01*
X2684853Y12588513D01*
X2696052Y12615549D01*
X2696052Y12644813D01*
X2684853Y12671849D01*
X2664161Y12692541D01*
X2637125Y12703740D01*
X2622493Y12705181D01*
X2221303Y12705181D01*
X2221303Y13078991D01*
X2479636Y13078991D01*
X2494268Y13080432D01*
X2521304Y13091631D01*
X2541996Y13112323D01*
X2553195Y13139359D01*
X2553195Y13168623D01*
X2541996Y13195659D01*
X2521304Y13216351D01*
X2494268Y13227550D01*
X2479636Y13228991D01*
X2221303Y13228991D01*
X2221303Y13555181D01*
X2622493Y13555181D01*
X2637125Y13556622D01*
X2664161Y13567821D01*
X2684853Y13588513D01*
X2696052Y13615549D01*
X2696052Y13630181D01*
X2976065Y13630181D01*
X2976065Y12630181D01*
X2977506Y12615549D01*
X2988705Y12588513D01*
X3009397Y12567821D01*
X3036433Y12556622D01*
X3051065Y12555181D01*
X3289160Y12555181D01*
X3296565Y12555911D01*
X3298540Y12555770D01*
X3301137Y12556361D01*
X3303792Y12556622D01*
X3305623Y12557381D01*
X3312877Y12559030D01*
X3455734Y12606649D01*
X3469159Y12612643D01*
X3471194Y12614409D01*
X3473685Y12615440D01*
X3485050Y12624767D01*
X3580289Y12720007D01*
X3585006Y12725756D01*
X3586505Y12727055D01*
X3587926Y12729314D01*
X3589616Y12731372D01*
X3590373Y12733202D01*
X3594337Y12739498D01*
X3641956Y12834736D01*
X3642365Y12835806D01*
X3642688Y12836241D01*
X3644880Y12842378D01*
X3647211Y12848467D01*
X3647249Y12849008D01*
X3647635Y12850087D01*
X3695254Y13040563D01*
X3695629Y13043100D01*
X3696052Y13044121D01*
X3696594Y13049634D01*
X3697404Y13055107D01*
X3697241Y13056200D01*
X3697493Y13058753D01*
X3697493Y13201610D01*
X3697241Y13204164D01*
X3697404Y13205256D01*
X3696594Y13210730D01*
X3696052Y13216242D01*
X3695629Y13217264D01*
X3695254Y13219800D01*
X3647635Y13410276D01*
X3647249Y13411356D01*
X3647211Y13411896D01*
X3644874Y13418003D01*
X3642688Y13424122D01*
X3642365Y13424558D01*
X3641956Y13425627D01*
X3594337Y13520865D01*
X3590374Y13527160D01*
X3589616Y13528992D01*
X3587924Y13531054D01*
X3586505Y13533308D01*
X3585008Y13534607D01*
X3580288Y13540357D01*
X3490464Y13630181D01*
X4737970Y13630181D01*
X4737970Y12630181D01*
X4739411Y12615549D01*
X4750610Y12588513D01*
X4771302Y12567821D01*
X4798338Y12556622D01*
X4812970Y12555181D01*
X5193922Y12555181D01*
X5208554Y12556622D01*
X5211043Y12557654D01*
X5213731Y12557844D01*
X5227463Y12563099D01*
X5322701Y12610718D01*
X5329000Y12614683D01*
X5330828Y12615440D01*
X5332884Y12617128D01*
X5335144Y12618550D01*
X5336444Y12620050D01*
X5342194Y12624768D01*
X5389812Y12672387D01*
X5394530Y12678137D01*
X5396029Y12679436D01*
X5397450Y12681695D01*
X5399140Y12683753D01*
X5399897Y12685583D01*
X5403861Y12691879D01*
X5451480Y12787117D01*
X5456735Y12800848D01*
X5456926Y12803538D01*
X5457957Y12806026D01*
X5459398Y12820658D01*
X5459398Y12963515D01*
X5457957Y12978147D01*
X5456926Y12980636D01*
X5456735Y12983325D01*
X5451480Y12997056D01*
X5403861Y13092294D01*
X5399896Y13098594D01*
X5399139Y13100421D01*
X5397450Y13102478D01*
X5396029Y13104737D01*
X5394530Y13106037D01*
X5389812Y13111786D01*
X5342193Y13159405D01*
X5330828Y13168732D01*
X5328337Y13169764D01*
X5326302Y13171529D01*
X5320234Y13174238D01*
X5342193Y13196196D01*
X5346911Y13201946D01*
X5348410Y13203245D01*
X5349831Y13205505D01*
X5351520Y13207561D01*
X5352277Y13209389D01*
X5356242Y13215688D01*
X5403861Y13310926D01*
X5409116Y13324657D01*
X5409307Y13327347D01*
X5410338Y13329835D01*
X5411779Y13344467D01*
X5411779Y13439705D01*
X5410338Y13454337D01*
X5409307Y13456826D01*
X5409116Y13459515D01*
X5403861Y13473246D01*
X5356242Y13568484D01*
X5352277Y13574784D01*
X5351520Y13576611D01*
X5349831Y13578668D01*
X5348410Y13580927D01*
X5346911Y13582227D01*
X5342193Y13587976D01*
X5299988Y13630181D01*
X5737970Y13630181D01*
X5737970Y12773039D01*
X5739411Y12758407D01*
X5740442Y12755918D01*
X5740633Y12753230D01*
X5745888Y12739498D01*
X5793507Y12644259D01*
X5795047Y12641813D01*
X5795432Y12640658D01*
X5796678Y12639221D01*
X5801339Y12631817D01*
X5808441Y12625658D01*
X5814605Y12618550D01*
X5822010Y12613889D01*
X5823447Y12612643D01*
X5824600Y12612259D01*
X5827048Y12610718D01*
X5922286Y12563099D01*
X5936017Y12557844D01*
X5965207Y12555770D01*
X5992969Y12565024D01*
X6015076Y12584197D01*
X6028164Y12610372D01*
X6030238Y12639562D01*
X6020984Y12667323D01*
X6001811Y12689431D01*
X5989368Y12697263D01*
X5916490Y12733702D01*
X5887970Y12790744D01*
X5887970Y12868277D01*
X6214161Y12868277D01*
X6214161Y12773039D01*
X6215602Y12758407D01*
X6216633Y12755918D01*
X6216824Y12753230D01*
X6222079Y12739498D01*
X6269698Y12644259D01*
X6271238Y12641813D01*
X6271623Y12640658D01*
X6272869Y12639221D01*
X6277530Y12631817D01*
X6284632Y12625658D01*
X6290796Y12618550D01*
X6298201Y12613889D01*
X6299638Y12612643D01*
X6300791Y12612259D01*
X6303239Y12610718D01*
X6398477Y12563099D01*
X6412208Y12557844D01*
X6414897Y12557653D01*
X6417386Y12556622D01*
X6432018Y12555181D01*
X6670113Y12555181D01*
X6684745Y12556622D01*
X6687234Y12557654D01*
X6689922Y12557844D01*
X6703654Y12563099D01*
X6720154Y12571350D01*
X6723683Y12567821D01*
X6750719Y12556622D01*
X6779983Y12556622D01*
X6807019Y12567821D01*
X6827711Y12588513D01*
X6838910Y12615549D01*
X6840351Y12630181D01*
X6840351Y13106372D01*
X7118923Y13106372D01*
X7118923Y12820658D01*
X7120364Y12806026D01*
X7121395Y12803537D01*
X7121586Y12800849D01*
X7126841Y12787117D01*
X7174460Y12691879D01*
X7178423Y12685583D01*
X7179181Y12683753D01*
X7180870Y12681695D01*
X7182292Y12679436D01*
X7183790Y12678137D01*
X7188508Y12672388D01*
X7236127Y12624768D01*
X7241876Y12620050D01*
X7243177Y12618550D01*
X7245436Y12617128D01*
X7247493Y12615440D01*
X7249320Y12614683D01*
X7255620Y12610718D01*
X7350858Y12563099D01*
X7364589Y12557844D01*
X7367278Y12557653D01*
X7369767Y12556622D01*
X7384399Y12555181D01*
X7574875Y12555181D01*
X7589507Y12556622D01*
X7591996Y12557654D01*
X7594684Y12557844D01*
X7608416Y12563099D01*
X7624916Y12571350D01*
X7628445Y12567821D01*
X7655481Y12556622D01*
X7684745Y12556622D01*
X7711781Y12567821D01*
X7732473Y12588513D01*
X7743672Y12615549D01*
X7745113Y12630181D01*
X7745113Y13153991D01*
X8023685Y13153991D01*
X8023685Y12773039D01*
X8025126Y12758407D01*
X8026157Y12755918D01*
X8026348Y12753230D01*
X8031603Y12739498D01*
X8079222Y12644259D01*
X8080762Y12641813D01*
X8081147Y12640658D01*
X8082393Y12639221D01*
X8087054Y12631817D01*
X8094156Y12625658D01*
X8100320Y12618550D01*
X8107725Y12613889D01*
X8109162Y12612643D01*
X8110315Y12612259D01*
X8112763Y12610718D01*
X8208001Y12563099D01*
X8221732Y12557844D01*
X8224421Y12557653D01*
X8226910Y12556622D01*
X8241542Y12555181D01*
X8432018Y12555181D01*
X8446650Y12556622D01*
X8449139Y12557654D01*
X8451827Y12557844D01*
X8465559Y12563099D01*
X8560797Y12610718D01*
X8573240Y12618550D01*
X8592413Y12640658D01*
X8601667Y12668419D01*
X8599593Y12697609D01*
X8586505Y12723784D01*
X8564398Y12742957D01*
X8536636Y12752211D01*
X8507446Y12750137D01*
X8493715Y12744882D01*
X8414313Y12705181D01*
X8259247Y12705181D01*
X8202205Y12733702D01*
X8173685Y12790744D01*
X8173685Y12902030D01*
X8589583Y12985209D01*
X8603649Y12989492D01*
X8609754Y12993581D01*
X8616543Y12996393D01*
X8621795Y13001646D01*
X8627963Y13005776D01*
X8632037Y13011887D01*
X8637235Y13017085D01*
X8640078Y13023949D01*
X8644195Y13030124D01*
X8645620Y13037330D01*
X8648434Y13044121D01*
X8649875Y13058753D01*
X8649875Y13153991D01*
X8648434Y13168623D01*
X8647403Y13171112D01*
X8647212Y13173801D01*
X8641957Y13187532D01*
X8594338Y13282770D01*
X8592797Y13285218D01*
X8592413Y13286371D01*
X8591167Y13287808D01*
X8586506Y13295213D01*
X8579401Y13301375D01*
X8573240Y13308479D01*
X8565834Y13313141D01*
X8564398Y13314386D01*
X8563244Y13314771D01*
X8560797Y13316311D01*
X8465559Y13363930D01*
X8451827Y13369185D01*
X8449139Y13369376D01*
X8446650Y13370407D01*
X8432018Y13371848D01*
X8241542Y13371848D01*
X8226910Y13370407D01*
X8224421Y13369377D01*
X8221732Y13369185D01*
X8208001Y13363930D01*
X8112763Y13316311D01*
X8110315Y13314771D01*
X8109162Y13314386D01*
X8107725Y13313141D01*
X8100320Y13308479D01*
X8094158Y13301375D01*
X8087054Y13295213D01*
X8082392Y13287808D01*
X8081147Y13286371D01*
X8080762Y13285218D01*
X8079222Y13282770D01*
X8031603Y13187532D01*
X8026348Y13173800D01*
X8026157Y13171113D01*
X8025126Y13168623D01*
X8023685Y13153991D01*
X7745113Y13153991D01*
X7745113Y13620801D01*
X9548084Y13620801D01*
X9551344Y13606464D01*
X9884677Y12606464D01*
X9890671Y12593039D01*
X9894181Y12588992D01*
X9896578Y12584198D01*
X9903686Y12578033D01*
X9909845Y12570932D01*
X9914634Y12568538D01*
X9918685Y12565024D01*
X9927610Y12562050D01*
X9936018Y12557845D01*
X9941362Y12557466D01*
X9946448Y12555770D01*
X9955828Y12556437D01*
X9965208Y12555770D01*
X9970293Y12557466D01*
X9975638Y12557845D01*
X9984048Y12562051D01*
X9992970Y12565024D01*
X9997017Y12568535D01*
X10001811Y12570931D01*
X10007974Y12578037D01*
X10015078Y12584198D01*
X10017473Y12588990D01*
X10020985Y12593038D01*
X10026979Y12606464D01*
X10276107Y13353848D01*
X10500465Y13353848D01*
X10502539Y13324658D01*
X10515626Y13298483D01*
X10537734Y13279310D01*
X10565495Y13270056D01*
X10594685Y13272130D01*
X10608417Y13277385D01*
X10703655Y13325004D01*
X10709954Y13328969D01*
X10711782Y13329726D01*
X10713838Y13331415D01*
X10716098Y13332836D01*
X10717397Y13334335D01*
X10723147Y13339053D01*
X10785590Y13401496D01*
X10785590Y12705181D01*
X10574876Y12705181D01*
X10560244Y12703740D01*
X10533208Y12692541D01*
X10512516Y12671849D01*
X10501317Y12644813D01*
X10501317Y12615549D01*
X10512516Y12588513D01*
X10533208Y12567821D01*
X10560244Y12556622D01*
X10574876Y12555181D01*
X11146304Y12555181D01*
X11160936Y12556622D01*
X11187972Y12567821D01*
X11208664Y12588513D01*
X11219863Y12615549D01*
X11219863Y12644813D01*
X11208664Y12671849D01*
X11187972Y12692541D01*
X11160936Y12703740D01*
X11146304Y12705181D01*
X10935590Y12705181D01*
X10935590Y13630181D01*
X10935584Y13630234D01*
X10935590Y13630260D01*
X10935574Y13630337D01*
X10934149Y13644813D01*
X10931307Y13651674D01*
X10929851Y13658955D01*
X10925761Y13665062D01*
X10922950Y13671849D01*
X10917701Y13677098D01*
X10913568Y13683270D01*
X10907451Y13687348D01*
X10902258Y13692541D01*
X10895398Y13695383D01*
X10889219Y13699502D01*
X10882010Y13700928D01*
X10875222Y13703740D01*
X10867795Y13703740D01*
X10860511Y13705181D01*
X10853306Y13703740D01*
X10845958Y13703740D01*
X10839097Y13700899D01*
X10831817Y13699442D01*
X10825711Y13695354D01*
X10818922Y13692541D01*
X10813671Y13687291D01*
X10807502Y13683159D01*
X10798281Y13671901D01*
X10798230Y13671849D01*
X10798220Y13671827D01*
X10798186Y13671784D01*
X10707066Y13535104D01*
X10625687Y13453725D01*
X10541335Y13411549D01*
X10528892Y13403717D01*
X10509719Y13381609D01*
X10500465Y13353848D01*
X10276107Y13353848D01*
X10360312Y13606464D01*
X10363572Y13620800D01*
X10361497Y13649990D01*
X10348411Y13676164D01*
X10326303Y13695338D01*
X10298541Y13704592D01*
X10269351Y13702517D01*
X10243178Y13689430D01*
X10224004Y13667323D01*
X10218010Y13653898D01*
X9955828Y12867352D01*
X9693646Y13653898D01*
X9687652Y13667324D01*
X9668478Y13689431D01*
X9642305Y13702517D01*
X9613115Y13704592D01*
X9585352Y13695338D01*
X9563245Y13676164D01*
X9550159Y13649991D01*
X9548084Y13620801D01*
X7745113Y13620801D01*
X7745113Y13630181D01*
X7743672Y13644813D01*
X7732473Y13671849D01*
X7711781Y13692541D01*
X7684745Y13703740D01*
X7655481Y13703740D01*
X7628445Y13692541D01*
X7607753Y13671849D01*
X7596554Y13644813D01*
X7595113Y13630181D01*
X7595113Y13369021D01*
X7594684Y13369185D01*
X7591996Y13369376D01*
X7589507Y13370407D01*
X7574875Y13371848D01*
X7384399Y13371848D01*
X7369767Y13370407D01*
X7367278Y13369377D01*
X7364589Y13369185D01*
X7350858Y13363930D01*
X7255620Y13316311D01*
X7249320Y13312347D01*
X7247493Y13311589D01*
X7245436Y13309901D01*
X7243177Y13308479D01*
X7241877Y13306981D01*
X7236128Y13302262D01*
X7188509Y13254643D01*
X7183790Y13248894D01*
X7182292Y13247594D01*
X7180870Y13245335D01*
X7179182Y13243278D01*
X7178424Y13241451D01*
X7174460Y13235151D01*
X7126841Y13139913D01*
X7121586Y13126181D01*
X7121395Y13123494D01*
X7120364Y13121004D01*
X7118923Y13106372D01*
X6840351Y13106372D01*
X6840351Y13153991D01*
X6838910Y13168623D01*
X6837879Y13171112D01*
X6837688Y13173801D01*
X6832433Y13187532D01*
X6784814Y13282770D01*
X6783273Y13285218D01*
X6782889Y13286371D01*
X6781643Y13287808D01*
X6776982Y13295213D01*
X6769877Y13301375D01*
X6763716Y13308479D01*
X6756310Y13313141D01*
X6754874Y13314386D01*
X6753720Y13314771D01*
X6751273Y13316311D01*
X6656035Y13363930D01*
X6642303Y13369185D01*
X6639615Y13369376D01*
X6637126Y13370407D01*
X6622494Y13371848D01*
X6432018Y13371848D01*
X6417386Y13370407D01*
X6414897Y13369377D01*
X6412208Y13369185D01*
X6398477Y13363930D01*
X6303239Y13316311D01*
X6290796Y13308479D01*
X6271623Y13286371D01*
X6262369Y13258610D01*
X6264443Y13229420D01*
X6277530Y13203245D01*
X6299638Y13184072D01*
X6327399Y13174818D01*
X6356589Y13176892D01*
X6370321Y13182147D01*
X6449723Y13221848D01*
X6604789Y13221848D01*
X6661830Y13193328D01*
X6690351Y13136286D01*
X6690351Y13105106D01*
X6652408Y13086134D01*
X6432018Y13086134D01*
X6417386Y13084693D01*
X6414897Y13083663D01*
X6412208Y13083471D01*
X6398477Y13078216D01*
X6303239Y13030597D01*
X6300791Y13029057D01*
X6299638Y13028672D01*
X6298201Y13027427D01*
X6290796Y13022765D01*
X6284634Y13015661D01*
X6277530Y13009499D01*
X6272868Y13002094D01*
X6271623Y13000657D01*
X6271238Y12999504D01*
X6269698Y12997056D01*
X6222079Y12901818D01*
X6216824Y12888086D01*
X6216633Y12885399D01*
X6215602Y12882909D01*
X6214161Y12868277D01*
X5887970Y12868277D01*
X5887970Y13630181D01*
X5886529Y13644813D01*
X5875330Y13671849D01*
X5854638Y13692541D01*
X5827602Y13703740D01*
X5798338Y13703740D01*
X5771302Y13692541D01*
X5750610Y13671849D01*
X5739411Y13644813D01*
X5737970Y13630181D01*
X5299988Y13630181D01*
X5294574Y13635595D01*
X5288824Y13640314D01*
X5287525Y13641812D01*
X5285265Y13643234D01*
X5283209Y13644922D01*
X5281381Y13645680D01*
X5275082Y13649644D01*
X5179844Y13697263D01*
X5166112Y13702518D01*
X5163424Y13702709D01*
X5160935Y13703740D01*
X5146303Y13705181D01*
X4812970Y13705181D01*
X4798338Y13703740D01*
X4771302Y13692541D01*
X4750610Y13671849D01*
X4739411Y13644813D01*
X4737970Y13630181D01*
X3490464Y13630181D01*
X3485050Y13635595D01*
X3473685Y13644922D01*
X3471194Y13645954D01*
X3469159Y13647719D01*
X3455734Y13653713D01*
X3312877Y13701332D01*
X3305623Y13702982D01*
X3303792Y13703740D01*
X3301137Y13704002D01*
X3298540Y13704592D01*
X3296565Y13704452D01*
X3289160Y13705181D01*
X3051065Y13705181D01*
X3036433Y13703740D01*
X3009397Y13692541D01*
X2988705Y13671849D01*
X2977506Y13644813D01*
X2976065Y13630181D01*
X2696052Y13630181D01*
X2696052Y13644813D01*
X2684853Y13671849D01*
X2664161Y13692541D01*
X2637125Y13703740D01*
X2622493Y13705181D01*
X2146303Y13705181D01*
X2131671Y13703740D01*
X2104635Y13692541D01*
X2083943Y13671849D01*
X2072744Y13644813D01*
X2071303Y13630181D01*
X1411779Y13630181D01*
X1410338Y13644813D01*
X1399139Y13671849D01*
X1378447Y13692541D01*
X1351411Y13703740D01*
X1322147Y13703740D01*
X1295111Y13692541D01*
X1274419Y13671849D01*
X1263220Y13644813D01*
X1261779Y13630181D01*
X1150668Y13630181D01*
X1150668Y13816292D01*
X11330974Y13816292D01*
X11330974Y12348832D01*
G37*
D11*
%TO.P,D1,2,A_2*%
%TO.N,Net-(D1-A)*%
X52250000Y5980000D03*
D12*
%TO.P,D1,1,K_1*%
%TO.N,GND*%
X52250000Y8520000D03*
%TD*%
D13*
%TO.P,R1,2*%
%TO.N,Net-(D1-A)*%
X52162500Y3750000D03*
%TO.P,R1,1*%
%TO.N,/pixel1*%
X50337500Y3750000D03*
%TD*%
%TO.P,R7,1*%
%TO.N,/pixel7*%
X23425000Y10750000D03*
%TO.P,R7,2*%
%TO.N,Net-(D7-A)*%
X25250000Y10750000D03*
%TD*%
%TO.P,R6,1*%
%TO.N,/pixel6*%
X27925000Y10750000D03*
%TO.P,R6,2*%
%TO.N,Net-(D6-A)*%
X29750000Y10750000D03*
%TD*%
%TO.P,R5,1*%
%TO.N,/pixel5*%
X32425000Y10750000D03*
%TO.P,R5,2*%
%TO.N,Net-(D5-A)*%
X34250000Y10750000D03*
%TD*%
%TO.P,R4,1*%
%TO.N,/pixel4*%
X36925000Y10750000D03*
%TO.P,R4,2*%
%TO.N,Net-(D4-A)*%
X38750000Y10750000D03*
%TD*%
%TO.P,R3,1*%
%TO.N,/pixel3*%
X41337500Y3750000D03*
%TO.P,R3,2*%
%TO.N,Net-(D3-A)*%
X43162500Y3750000D03*
%TD*%
%TO.P,R2,1*%
%TO.N,/pixel2*%
X45837500Y3750000D03*
%TO.P,R2,2*%
%TO.N,Net-(D2-A)*%
X47662500Y3750000D03*
%TD*%
D14*
%TO.P,J1,1,Pin_1_1*%
%TO.N,/pixel1*%
X3220000Y6000000D03*
D15*
%TO.P,J1,2,Pin_2_2*%
%TO.N,/pixel2*%
X5760000Y6000000D03*
%TO.P,J1,3,Pin_3_3*%
%TO.N,/pixel3*%
X8300000Y6000000D03*
%TO.P,J1,4,Pin_4_4*%
%TO.N,/pixel4*%
X10840000Y6000000D03*
%TO.P,J1,5,Pin_5_5*%
%TO.N,/pixel5*%
X13380000Y6000000D03*
%TO.P,J1,6,Pin_6_6*%
%TO.N,/pixel6*%
X15920000Y6000000D03*
%TO.P,J1,7,Pin_7_7*%
%TO.N,/pixel7*%
X18460000Y6000000D03*
%TO.P,J1,8,Pin_8_8*%
%TO.N,GND*%
X21000000Y6000000D03*
%TD*%
D12*
%TO.P,D7,1,K_1*%
%TO.N,GND*%
X25250000Y5980000D03*
D11*
%TO.P,D7,2,A_2*%
%TO.N,Net-(D7-A)*%
X25250000Y8520000D03*
%TD*%
D12*
%TO.P,D6,1,K_1*%
%TO.N,GND*%
X29750000Y5980000D03*
D11*
%TO.P,D6,2,A_2*%
%TO.N,Net-(D6-A)*%
X29750000Y8520000D03*
%TD*%
D12*
%TO.P,D5,1,K_1*%
%TO.N,GND*%
X34250000Y5980000D03*
D11*
%TO.P,D5,2,A_2*%
%TO.N,Net-(D5-A)*%
X34250000Y8520000D03*
%TD*%
D12*
%TO.P,D4,1,K_1*%
%TO.N,GND*%
X38750000Y5980000D03*
D11*
%TO.P,D4,2,A_2*%
%TO.N,Net-(D4-A)*%
X38750000Y8520000D03*
%TD*%
D12*
%TO.P,D3,1,K_1*%
%TO.N,GND*%
X43250000Y8520000D03*
D11*
%TO.P,D3,2,A_2*%
%TO.N,Net-(D3-A)*%
X43250000Y5980000D03*
%TD*%
D12*
%TO.P,D2,1,K_1*%
%TO.N,GND*%
X47750000Y8520000D03*
D11*
%TO.P,D2,2,A_2*%
%TO.N,Net-(D2-A)*%
X47750000Y5980000D03*
%TD*%
%TO.N,GND*%
D16*
X39730000Y5980000D02*
X42270000Y8520000D01*
X38750000Y5980000D02*
X39730000Y5980000D01*
X42270000Y8520000D02*
X43250000Y8520000D01*
X47750000Y8520000D02*
X52250000Y8520000D01*
X43250000Y8520000D02*
X47750000Y8520000D01*
%TO.N,/pixel1*%
D17*
X5500000Y1250000D02*
X47837500Y1250000D01*
X3220000Y3530000D02*
X5500000Y1250000D01*
X3220000Y6000000D02*
X3220000Y3530000D01*
X47837500Y1250000D02*
X50337500Y3750000D01*
%TO.N,/pixel2*%
X44587500Y2500000D02*
X45837500Y3750000D01*
X6500000Y2500000D02*
X44587500Y2500000D01*
X5760000Y3240000D02*
X6500000Y2500000D01*
X5760000Y6000000D02*
X5760000Y3240000D01*
%TO.N,/pixel3*%
X8300000Y4450000D02*
X9000000Y3750000D01*
X8300000Y6000000D02*
X8300000Y4450000D01*
X9000000Y3750000D02*
X41337500Y3750000D01*
%TO.N,Net-(D1-A)*%
D16*
X52250000Y5980000D02*
X52250000Y3750000D01*
%TO.N,/pixel4*%
D17*
X33675000Y14000000D02*
X36925000Y10750000D01*
X15750000Y14000000D02*
X33675000Y14000000D01*
X10840000Y9090000D02*
X15750000Y14000000D01*
X10840000Y6000000D02*
X10840000Y9090000D01*
%TO.N,/pixel5*%
X16750000Y13000000D02*
X30175000Y13000000D01*
X13380000Y9630000D02*
X16750000Y13000000D01*
X13380000Y6000000D02*
X13380000Y9630000D01*
X30175000Y13000000D02*
X32425000Y10750000D01*
%TO.N,/pixel6*%
X19000000Y12000000D02*
X26675000Y12000000D01*
X26675000Y12000000D02*
X27925000Y10750000D01*
X15920000Y8920000D02*
X19000000Y12000000D01*
X15920000Y6000000D02*
X15920000Y8920000D01*
%TO.N,/pixel7*%
X18460000Y8210000D02*
X18460000Y6000000D01*
X21000000Y10750000D02*
X18460000Y8210000D01*
X23425000Y10750000D02*
X21000000Y10750000D01*
%TO.N,Net-(D3-A)*%
D16*
X43230000Y5980000D02*
X43250000Y5960000D01*
%TO.N,GND*%
X34250000Y5980000D02*
X38750000Y5980000D01*
X29750000Y5980000D02*
X34250000Y5980000D01*
X25250000Y5980000D02*
X29750000Y5980000D01*
X25230000Y6000000D02*
X25250000Y5980000D01*
X21000000Y6000000D02*
X25230000Y6000000D01*
%TO.N,Net-(D7-A)*%
X25250000Y8520000D02*
X25250000Y10750000D01*
%TO.N,Net-(D6-A)*%
X29750000Y8520000D02*
X29750000Y10750000D01*
%TO.N,Net-(D5-A)*%
X34250000Y8520000D02*
X34250000Y10750000D01*
%TO.N,Net-(D4-A)*%
X38750000Y8520000D02*
X38750000Y10750000D01*
%TO.N,Net-(D3-A)*%
X43250000Y5980000D02*
X43250000Y3730000D01*
%TO.N,Net-(D2-A)*%
X47750000Y5980000D02*
X47750000Y3730000D01*
%TD*%
%TA.AperFunction,NonConductor*%
G36*
X33172703Y12729815D02*
G01*
X33193345Y12713181D01*
X33570391Y12336135D01*
X33603876Y12274812D01*
X33598892Y12205120D01*
X33557020Y12149187D01*
X33533991Y12135555D01*
X33388781Y12069598D01*
X33319602Y12059795D01*
X33286219Y12069598D01*
X33085536Y12160752D01*
X33085533Y12160753D01*
X32869457Y12215200D01*
X32869451Y12215201D01*
X32761816Y12223672D01*
X32696528Y12248556D01*
X32683865Y12259609D01*
X32405655Y12537819D01*
X32372170Y12599142D01*
X32377154Y12668834D01*
X32419026Y12724767D01*
X32484490Y12749184D01*
X32493336Y12749500D01*
X33105664Y12749500D01*
X33172703Y12729815D01*
G37*
%TD.AperFunction*%
%TA.AperFunction,NonConductor*%
G36*
X36168163Y9380238D02*
G01*
X36172944Y9380067D01*
X36185066Y9375312D01*
X36213544Y9362377D01*
X36264462Y9339249D01*
X36264466Y9339248D01*
X36480542Y9284801D01*
X36480545Y9284801D01*
X36480551Y9284799D01*
X36611416Y9274500D01*
X36823025Y9274500D01*
X36890064Y9254815D01*
X36935819Y9202011D01*
X36945763Y9132853D01*
X36942800Y9118407D01*
X36882017Y8891564D01*
X36849501Y8644576D01*
X36849500Y8644559D01*
X36849500Y8395442D01*
X36849501Y8395425D01*
X36882017Y8148439D01*
X36946498Y7907793D01*
X37041830Y7677639D01*
X37041835Y7677629D01*
X37041836Y7677627D01*
X37044324Y7673317D01*
X37048261Y7666499D01*
X37064733Y7598599D01*
X37041880Y7532572D01*
X36986958Y7489382D01*
X36940873Y7480500D01*
X36059127Y7480500D01*
X35992088Y7500185D01*
X35946333Y7552989D01*
X35936389Y7622147D01*
X35951741Y7666502D01*
X35952129Y7667175D01*
X35958164Y7677627D01*
X36053502Y7907793D01*
X36117982Y8148435D01*
X36150500Y8395435D01*
X36150500Y8644565D01*
X36117982Y8891565D01*
X36053502Y9132207D01*
X36019223Y9214962D01*
X36016640Y9238988D01*
X36009785Y9262160D01*
X36012973Y9273101D01*
X36011755Y9284430D01*
X36022572Y9306041D01*
X36029333Y9329239D01*
X36037928Y9336719D01*
X36043030Y9346909D01*
X36063812Y9359240D01*
X36082043Y9375102D01*
X36093319Y9376747D01*
X36103119Y9382561D01*
X36127265Y9381699D01*
X36151181Y9385187D01*
X36168163Y9380238D01*
G37*
%TD.AperFunction*%
%TA.AperFunction,NonConductor*%
G36*
X31672944Y9380067D02*
G01*
X31685066Y9375312D01*
X31713544Y9362377D01*
X31764462Y9339249D01*
X31764466Y9339248D01*
X31980542Y9284801D01*
X31980545Y9284801D01*
X31980551Y9284799D01*
X32111416Y9274500D01*
X32323025Y9274500D01*
X32390064Y9254815D01*
X32435819Y9202011D01*
X32445763Y9132853D01*
X32442800Y9118407D01*
X32382017Y8891564D01*
X32349501Y8644576D01*
X32349500Y8644559D01*
X32349500Y8395442D01*
X32349501Y8395425D01*
X32382017Y8148439D01*
X32446498Y7907793D01*
X32541830Y7677639D01*
X32541835Y7677629D01*
X32541836Y7677627D01*
X32544324Y7673317D01*
X32548261Y7666499D01*
X32564733Y7598599D01*
X32541880Y7532572D01*
X32486958Y7489382D01*
X32440873Y7480500D01*
X31559127Y7480500D01*
X31492088Y7500185D01*
X31446333Y7552989D01*
X31436389Y7622147D01*
X31451741Y7666502D01*
X31452129Y7667175D01*
X31458164Y7677627D01*
X31553502Y7907793D01*
X31617982Y8148435D01*
X31650500Y8395435D01*
X31650500Y8644565D01*
X31617982Y8891565D01*
X31553502Y9132207D01*
X31519223Y9214962D01*
X31511755Y9284430D01*
X31543030Y9346909D01*
X31603119Y9382561D01*
X31672944Y9380067D01*
G37*
%TD.AperFunction*%
%TA.AperFunction,NonConductor*%
G36*
X27168163Y9380238D02*
G01*
X27172944Y9380067D01*
X27185066Y9375312D01*
X27213544Y9362377D01*
X27264462Y9339249D01*
X27264466Y9339248D01*
X27480542Y9284801D01*
X27480545Y9284801D01*
X27480551Y9284799D01*
X27611416Y9274500D01*
X27823025Y9274500D01*
X27890064Y9254815D01*
X27935819Y9202011D01*
X27945763Y9132853D01*
X27942800Y9118407D01*
X27882017Y8891564D01*
X27849501Y8644576D01*
X27849500Y8644559D01*
X27849500Y8395442D01*
X27849501Y8395425D01*
X27882017Y8148439D01*
X27946498Y7907793D01*
X28041830Y7677639D01*
X28041835Y7677629D01*
X28041836Y7677627D01*
X28044324Y7673317D01*
X28048261Y7666499D01*
X28064733Y7598599D01*
X28041880Y7532572D01*
X27986958Y7489382D01*
X27940873Y7480500D01*
X27059127Y7480500D01*
X26992088Y7500185D01*
X26946333Y7552989D01*
X26936389Y7622147D01*
X26951741Y7666502D01*
X26952129Y7667175D01*
X26958164Y7677627D01*
X27053502Y7907793D01*
X27117982Y8148435D01*
X27150500Y8395435D01*
X27150500Y8644565D01*
X27117982Y8891565D01*
X27053502Y9132207D01*
X27019223Y9214962D01*
X27016640Y9238988D01*
X27009785Y9262160D01*
X27012973Y9273101D01*
X27011755Y9284430D01*
X27022572Y9306041D01*
X27029333Y9329239D01*
X27037928Y9336719D01*
X27043030Y9346909D01*
X27063812Y9359240D01*
X27082043Y9375102D01*
X27093319Y9376747D01*
X27103119Y9382561D01*
X27127265Y9381699D01*
X27151181Y9385187D01*
X27168163Y9380238D01*
G37*
%TD.AperFunction*%
%TA.AperFunction,NonConductor*%
G36*
X22491564Y9479815D02*
G01*
X22495141Y9477428D01*
X22561567Y9431408D01*
X22764462Y9339249D01*
X22764466Y9339248D01*
X22980542Y9284801D01*
X22980545Y9284801D01*
X22980551Y9284799D01*
X23111416Y9274500D01*
X23323025Y9274500D01*
X23390064Y9254815D01*
X23435819Y9202011D01*
X23445763Y9132853D01*
X23442800Y9118407D01*
X23382017Y8891564D01*
X23349501Y8644576D01*
X23349500Y8644559D01*
X23349500Y8395442D01*
X23349501Y8395425D01*
X23382017Y8148439D01*
X23446498Y7907793D01*
X23543389Y7673876D01*
X23542037Y7673317D01*
X23552987Y7610521D01*
X23525870Y7546128D01*
X23468245Y7506618D01*
X23429777Y7500500D01*
X22126382Y7500500D01*
X22059343Y7520185D01*
X22050896Y7526124D01*
X22030288Y7541937D01*
X21820215Y7663223D01*
X21820205Y7663227D01*
X21596104Y7756053D01*
X21361785Y7818839D01*
X21121289Y7850500D01*
X21121288Y7850500D01*
X20878712Y7850500D01*
X20878711Y7850500D01*
X20638214Y7818839D01*
X20403895Y7756053D01*
X20179794Y7663227D01*
X20179785Y7663223D01*
X19969706Y7541933D01*
X19909986Y7496108D01*
X19896740Y7490988D01*
X19886011Y7481690D01*
X19864803Y7478641D01*
X19844817Y7470914D01*
X19830908Y7473767D01*
X19816853Y7471746D01*
X19797360Y7480649D01*
X19776372Y7484953D01*
X19766214Y7494872D01*
X19753297Y7500771D01*
X19741712Y7518798D01*
X19726382Y7533767D01*
X19722462Y7548751D01*
X19715523Y7559549D01*
X19710500Y7594484D01*
X19710500Y7640664D01*
X19730185Y7707703D01*
X19746819Y7728345D01*
X21481655Y9463181D01*
X21542978Y9496666D01*
X21569336Y9499500D01*
X22424525Y9499500D01*
X22491564Y9479815D01*
G37*
%TD.AperFunction*%
%TA.AperFunction,NonConductor*%
G36*
X50507912Y6999815D02*
G01*
X50553667Y6947011D01*
X50563611Y6877853D01*
X50548261Y6833501D01*
X50541835Y6822372D01*
X50541830Y6822362D01*
X50446498Y6592208D01*
X50382017Y6351562D01*
X50349501Y6104576D01*
X50349500Y6104559D01*
X50349500Y5855442D01*
X50349501Y5855425D01*
X50382017Y5608437D01*
X50442800Y5381593D01*
X50441137Y5311743D01*
X50401974Y5253881D01*
X50337746Y5226377D01*
X50323025Y5225500D01*
X50023910Y5225500D01*
X49893051Y5215201D01*
X49682656Y5162186D01*
X49612839Y5164894D01*
X49555569Y5204918D01*
X49529028Y5269551D01*
X49537797Y5329880D01*
X49553502Y5367793D01*
X49617982Y5608435D01*
X49650500Y5855435D01*
X49650500Y6104565D01*
X49617982Y6351565D01*
X49553502Y6592207D01*
X49458164Y6822373D01*
X49451738Y6833502D01*
X49435267Y6901401D01*
X49458120Y6967428D01*
X49513042Y7010618D01*
X49559127Y7019500D01*
X50440873Y7019500D01*
X50507912Y6999815D01*
G37*
%TD.AperFunction*%
%TA.AperFunction,NonConductor*%
G36*
X46007912Y6999815D02*
G01*
X46053667Y6947011D01*
X46063611Y6877853D01*
X46048261Y6833501D01*
X46041835Y6822372D01*
X46041830Y6822362D01*
X45946498Y6592208D01*
X45882017Y6351562D01*
X45849501Y6104576D01*
X45849500Y6104559D01*
X45849500Y5855442D01*
X45849501Y5855425D01*
X45882017Y5608437D01*
X45942800Y5381593D01*
X45941137Y5311743D01*
X45901974Y5253881D01*
X45837746Y5226377D01*
X45823025Y5225500D01*
X45523910Y5225500D01*
X45393051Y5215201D01*
X45182656Y5162186D01*
X45112839Y5164894D01*
X45055569Y5204918D01*
X45029028Y5269551D01*
X45037797Y5329880D01*
X45053502Y5367793D01*
X45117982Y5608435D01*
X45150500Y5855435D01*
X45150500Y6104565D01*
X45117982Y6351565D01*
X45053502Y6592207D01*
X44958164Y6822373D01*
X44951738Y6833502D01*
X44935267Y6901401D01*
X44958120Y6967428D01*
X45013042Y7010618D01*
X45059127Y7019500D01*
X45940873Y7019500D01*
X46007912Y6999815D01*
G37*
%TD.AperFunction*%
%TA.AperFunction,NonConductor*%
G36*
X54442539Y14479815D02*
G01*
X54488294Y14427011D01*
X54499500Y14375500D01*
X54499500Y624500D01*
X54479815Y557461D01*
X54427011Y511706D01*
X54375500Y500500D01*
X49155836Y500500D01*
X49088797Y520185D01*
X49043042Y572989D01*
X49033098Y642147D01*
X49062123Y705703D01*
X49068155Y712181D01*
X50596367Y2240394D01*
X50657688Y2273877D01*
X50674308Y2276328D01*
X50781949Y2284799D01*
X50998038Y2339249D01*
X51198721Y2430404D01*
X51267897Y2440206D01*
X51301276Y2430405D01*
X51501962Y2339249D01*
X51501966Y2339248D01*
X51718042Y2284801D01*
X51718045Y2284801D01*
X51718051Y2284799D01*
X51848916Y2274500D01*
X51964306Y2274500D01*
X51983704Y2272973D01*
X52131903Y2249500D01*
X52131908Y2249500D01*
X52368090Y2249500D01*
X52368092Y2249500D01*
X52570386Y2281541D01*
X52580006Y2282680D01*
X52606949Y2284799D01*
X52606952Y2284800D01*
X52606954Y2284800D01*
X52714993Y2312024D01*
X52823038Y2339249D01*
X53025933Y2431408D01*
X53209111Y2558315D01*
X53366685Y2715889D01*
X53493592Y2899067D01*
X53500254Y2913735D01*
X53512839Y2935347D01*
X53533343Y2963567D01*
X53640568Y3174008D01*
X53713553Y3398632D01*
X53718772Y3431583D01*
X53750500Y3631903D01*
X53750500Y4771484D01*
X53770185Y4838523D01*
X53776115Y4846959D01*
X53833599Y4921873D01*
X53958164Y5137627D01*
X54053502Y5367793D01*
X54117982Y5608435D01*
X54150500Y5855435D01*
X54150500Y6104565D01*
X54117982Y6351565D01*
X54053502Y6592207D01*
X53958164Y6822373D01*
X53931450Y6868642D01*
X53914978Y6936541D01*
X53937830Y7002568D01*
X53942711Y7008970D01*
X53989698Y7066593D01*
X54083909Y7246951D01*
X54139886Y7442582D01*
X54150500Y7561963D01*
X54150499Y9478036D01*
X54139886Y9597418D01*
X54083909Y9793049D01*
X53989698Y9973407D01*
X53914085Y10066139D01*
X53861109Y10131110D01*
X53703409Y10259696D01*
X53703410Y10259696D01*
X53703407Y10259698D01*
X53523049Y10353909D01*
X53523048Y10353910D01*
X53523045Y10353911D01*
X53405829Y10387450D01*
X53327418Y10409886D01*
X53327415Y10409887D01*
X53327413Y10409887D01*
X53261102Y10415783D01*
X53208037Y10420500D01*
X53208032Y10420500D01*
X51291971Y10420500D01*
X51291965Y10420500D01*
X51291964Y10420499D01*
X51280316Y10419464D01*
X51172584Y10409887D01*
X50976954Y10353911D01*
X50886772Y10306804D01*
X50796593Y10259698D01*
X50796591Y10259697D01*
X50796590Y10259696D01*
X50638890Y10131110D01*
X50585915Y10066139D01*
X50528294Y10026622D01*
X50489813Y10020500D01*
X49510187Y10020500D01*
X49443148Y10040185D01*
X49414085Y10066139D01*
X49361109Y10131110D01*
X49203409Y10259696D01*
X49203410Y10259696D01*
X49203407Y10259698D01*
X49023049Y10353909D01*
X49023048Y10353910D01*
X49023045Y10353911D01*
X48905829Y10387450D01*
X48827418Y10409886D01*
X48827415Y10409887D01*
X48827413Y10409887D01*
X48761102Y10415783D01*
X48708037Y10420500D01*
X48708032Y10420500D01*
X46791971Y10420500D01*
X46791965Y10420500D01*
X46791964Y10420499D01*
X46780316Y10419464D01*
X46672584Y10409887D01*
X46476954Y10353911D01*
X46386772Y10306804D01*
X46296593Y10259698D01*
X46296591Y10259697D01*
X46296590Y10259696D01*
X46138890Y10131110D01*
X46085915Y10066139D01*
X46028294Y10026622D01*
X45989813Y10020500D01*
X45010187Y10020500D01*
X44943148Y10040185D01*
X44914085Y10066139D01*
X44861109Y10131110D01*
X44703409Y10259696D01*
X44703410Y10259696D01*
X44703407Y10259698D01*
X44523049Y10353909D01*
X44523048Y10353910D01*
X44523045Y10353911D01*
X44405829Y10387450D01*
X44327418Y10409886D01*
X44327415Y10409887D01*
X44327413Y10409887D01*
X44261102Y10415783D01*
X44208037Y10420500D01*
X44208032Y10420500D01*
X42291971Y10420500D01*
X42291965Y10420500D01*
X42291964Y10420499D01*
X42280316Y10419464D01*
X42172584Y10409887D01*
X41976954Y10353911D01*
X41886772Y10306804D01*
X41796593Y10259698D01*
X41796591Y10259697D01*
X41796590Y10259696D01*
X41638890Y10131110D01*
X41510304Y9973410D01*
X41510302Y9973407D01*
X41416091Y9793049D01*
X41416090Y9793048D01*
X41413855Y9785235D01*
X41376484Y9726200D01*
X41367528Y9719037D01*
X41292492Y9664520D01*
X40745260Y9117288D01*
X40683937Y9083803D01*
X40614245Y9088787D01*
X40558312Y9130659D01*
X40543018Y9157517D01*
X40530216Y9188423D01*
X40490296Y9284800D01*
X40458169Y9362362D01*
X40458162Y9362377D01*
X40333604Y9578118D01*
X40333599Y9578127D01*
X40276122Y9653033D01*
X40250930Y9718201D01*
X40250500Y9728517D01*
X40250500Y10868097D01*
X40239527Y10937374D01*
X40238000Y10956773D01*
X40238000Y11051077D01*
X40238000Y11051084D01*
X40227701Y11181949D01*
X40173251Y11398038D01*
X40081092Y11600933D01*
X39954185Y11784111D01*
X39954184Y11784113D01*
X39796612Y11941685D01*
X39613432Y12068593D01*
X39613430Y12068594D01*
X39410536Y12160752D01*
X39410533Y12160753D01*
X39194457Y12215200D01*
X39194451Y12215201D01*
X39063589Y12225500D01*
X39063584Y12225500D01*
X39035694Y12225500D01*
X39016296Y12227027D01*
X38868097Y12250500D01*
X38868092Y12250500D01*
X38631908Y12250500D01*
X38631903Y12250500D01*
X38483704Y12227027D01*
X38464306Y12225500D01*
X38436410Y12225500D01*
X38305548Y12215201D01*
X38305542Y12215200D01*
X38089466Y12160753D01*
X38089463Y12160752D01*
X37888781Y12069598D01*
X37819602Y12059795D01*
X37786219Y12069598D01*
X37585536Y12160752D01*
X37585533Y12160753D01*
X37369457Y12215200D01*
X37369451Y12215201D01*
X37261816Y12223672D01*
X37196528Y12248556D01*
X37183865Y12259609D01*
X35155655Y14287819D01*
X35122170Y14349142D01*
X35127154Y14418834D01*
X35169026Y14474767D01*
X35234490Y14499184D01*
X35243336Y14499500D01*
X54375500Y14499500D01*
X54442539Y14479815D01*
G37*
%TD.AperFunction*%
%TA.AperFunction,NonConductor*%
G36*
X14248703Y14479815D02*
G01*
X14294458Y14427011D01*
X14304402Y14357853D01*
X14275377Y14294297D01*
X14269345Y14287819D01*
X9886174Y9904649D01*
X9886174Y9904648D01*
X9886172Y9904646D01*
X9836485Y9836259D01*
X9770476Y9745406D01*
X9681113Y9570022D01*
X9645529Y9460501D01*
X9645529Y9460500D01*
X9620290Y9382824D01*
X9620290Y9382823D01*
X9589500Y9188423D01*
X9589500Y7594484D01*
X9569815Y7527445D01*
X9517011Y7481690D01*
X9447853Y7471746D01*
X9390014Y7496108D01*
X9330293Y7541933D01*
X9330292Y7541934D01*
X9330289Y7541936D01*
X9120212Y7663224D01*
X9120205Y7663227D01*
X8896104Y7756053D01*
X8661785Y7818839D01*
X8421289Y7850500D01*
X8421288Y7850500D01*
X8178712Y7850500D01*
X8178711Y7850500D01*
X7938214Y7818839D01*
X7703895Y7756053D01*
X7479794Y7663227D01*
X7479785Y7663223D01*
X7269706Y7541933D01*
X7105486Y7415923D01*
X7040317Y7390729D01*
X6971872Y7404768D01*
X6954514Y7415923D01*
X6790293Y7541933D01*
X6790292Y7541934D01*
X6790289Y7541936D01*
X6580212Y7663224D01*
X6580205Y7663227D01*
X6356104Y7756053D01*
X6121785Y7818839D01*
X5881289Y7850500D01*
X5881288Y7850500D01*
X5638712Y7850500D01*
X5638711Y7850500D01*
X5398214Y7818839D01*
X5163895Y7756053D01*
X4939794Y7663227D01*
X4939789Y7663225D01*
X4847640Y7610023D01*
X4779740Y7593551D01*
X4713713Y7616404D01*
X4707281Y7621309D01*
X4623412Y7689695D01*
X4623408Y7689697D01*
X4623407Y7689698D01*
X4443049Y7783909D01*
X4443048Y7783910D01*
X4443045Y7783911D01*
X4325829Y7817450D01*
X4247418Y7839886D01*
X4247415Y7839887D01*
X4247413Y7839887D01*
X4181102Y7845783D01*
X4128037Y7850500D01*
X4128032Y7850500D01*
X2311971Y7850500D01*
X2311965Y7850500D01*
X2311964Y7850499D01*
X2300316Y7849464D01*
X2192584Y7839887D01*
X1996954Y7783911D01*
X1943625Y7756054D01*
X1816593Y7689698D01*
X1816591Y7689697D01*
X1816590Y7689696D01*
X1658890Y7561110D01*
X1530304Y7403410D01*
X1436089Y7223046D01*
X1380114Y7027417D01*
X1380113Y7027414D01*
X1369500Y6908034D01*
X1369500Y5091972D01*
X1369501Y5091966D01*
X1380113Y4972585D01*
X1436089Y4776955D01*
X1436090Y4776952D01*
X1436091Y4776951D01*
X1530302Y4596593D01*
X1530304Y4596591D01*
X1658890Y4438891D01*
X1765966Y4351583D01*
X1816593Y4310302D01*
X1902911Y4265214D01*
X1953219Y4216727D01*
X1969500Y4155305D01*
X1969500Y3431578D01*
X2000290Y3237174D01*
X2061117Y3049970D01*
X2130533Y2913735D01*
X2150476Y2874595D01*
X2266172Y2715354D01*
X2266174Y2715352D01*
X4269345Y712181D01*
X4302830Y650858D01*
X4297846Y581166D01*
X4255974Y525233D01*
X4190510Y500816D01*
X4181664Y500500D01*
X624500Y500500D01*
X557461Y520185D01*
X511706Y572989D01*
X500500Y624500D01*
X500500Y13630181D01*
X1261779Y13630181D01*
X1261779Y12630181D01*
X1263095Y12616818D01*
X1263220Y12615552D01*
X1263221Y12615545D01*
X1274419Y12588512D01*
X1295109Y12567822D01*
X1295110Y12567822D01*
X1295111Y12567821D01*
X1309041Y12562051D01*
X1319713Y12557630D01*
X1322147Y12556622D01*
X1336779Y12555181D01*
X1336783Y12555181D01*
X1812965Y12555181D01*
X1812969Y12555181D01*
X1827601Y12556622D01*
X1854637Y12567821D01*
X1875329Y12588513D01*
X1875330Y12588517D01*
X1876533Y12590315D01*
X1880179Y12593363D01*
X1883965Y12597148D01*
X1884303Y12596810D01*
X1930145Y12635121D01*
X1999470Y12643828D01*
X2062498Y12613674D01*
X2082739Y12590315D01*
X2083945Y12588510D01*
X2104633Y12567822D01*
X2104634Y12567822D01*
X2104635Y12567821D01*
X2118565Y12562051D01*
X2129237Y12557630D01*
X2131671Y12556622D01*
X2146303Y12555181D01*
X2146307Y12555181D01*
X2622489Y12555181D01*
X2622493Y12555181D01*
X2637125Y12556622D01*
X2664161Y12567821D01*
X2684853Y12588513D01*
X2685052Y12588992D01*
X2692864Y12607853D01*
X2696052Y12615549D01*
X2696052Y12644813D01*
X2692868Y12652500D01*
X2684854Y12671848D01*
X2684851Y12671852D01*
X2664162Y12692541D01*
X2637129Y12703739D01*
X2637126Y12703740D01*
X2637125Y12703740D01*
X2622493Y12705181D01*
X2622489Y12705181D01*
X2345303Y12705181D01*
X2336617Y12707732D01*
X2327656Y12706443D01*
X2303615Y12717422D01*
X2278264Y12724866D01*
X2272336Y12731707D01*
X2264100Y12735468D01*
X2249810Y12757703D01*
X2232509Y12777670D01*
X2230221Y12788185D01*
X2226326Y12794246D01*
X2221303Y12829181D01*
X2221303Y12954991D01*
X2240988Y13022030D01*
X2293792Y13067785D01*
X2345303Y13078991D01*
X2479632Y13078991D01*
X2479636Y13078991D01*
X2494268Y13080432D01*
X2521304Y13091631D01*
X2541996Y13112323D01*
X2553195Y13139359D01*
X2553195Y13168623D01*
X2551991Y13171529D01*
X2541997Y13195658D01*
X2541994Y13195662D01*
X2521305Y13216351D01*
X2494272Y13227549D01*
X2494269Y13227550D01*
X2494268Y13227550D01*
X2479636Y13228991D01*
X2479632Y13228991D01*
X2345303Y13228991D01*
X2336617Y13231542D01*
X2327656Y13230253D01*
X2303615Y13241232D01*
X2278264Y13248676D01*
X2272336Y13255517D01*
X2264100Y13259278D01*
X2249810Y13281513D01*
X2232509Y13301480D01*
X2230221Y13311995D01*
X2226326Y13318056D01*
X2221303Y13352991D01*
X2221303Y13431181D01*
X2240988Y13498220D01*
X2293792Y13543975D01*
X2345303Y13555181D01*
X2622489Y13555181D01*
X2622493Y13555181D01*
X2637125Y13556622D01*
X2664161Y13567821D01*
X2684853Y13588513D01*
X2696052Y13615549D01*
X2696052Y13630181D01*
X2976065Y13630181D01*
X2976065Y12630181D01*
X2977381Y12616818D01*
X2977506Y12615552D01*
X2977507Y12615545D01*
X2988705Y12588512D01*
X3009395Y12567822D01*
X3009396Y12567822D01*
X3009397Y12567821D01*
X3023327Y12562051D01*
X3033999Y12557630D01*
X3036433Y12556622D01*
X3051065Y12555181D01*
X3051069Y12555181D01*
X3289133Y12555181D01*
X3289160Y12555181D01*
X3296565Y12555911D01*
X3298540Y12555770D01*
X3301137Y12556361D01*
X3303792Y12556622D01*
X3303799Y12556626D01*
X3309505Y12558054D01*
X3310015Y12558230D01*
X3312866Y12559028D01*
X3312877Y12559030D01*
X3455734Y12606649D01*
X3469159Y12612643D01*
X3471194Y12614409D01*
X3473685Y12615440D01*
X3485050Y12624767D01*
X3580289Y12720007D01*
X3583264Y12723634D01*
X3584886Y12725170D01*
X3586498Y12727050D01*
X3586505Y12727055D01*
X3586509Y12727063D01*
X3588245Y12729085D01*
X3589613Y12731370D01*
X3589616Y12731372D01*
X3589617Y12731376D01*
X3592645Y12736428D01*
X3592884Y12736918D01*
X3594323Y12739477D01*
X3594337Y12739498D01*
X3641956Y12834736D01*
X3642365Y12835806D01*
X3642688Y12836241D01*
X3644880Y12842378D01*
X3647211Y12848467D01*
X3647211Y12848471D01*
X3647293Y12848684D01*
X3647471Y12849438D01*
X3647629Y12850071D01*
X3647635Y12850087D01*
X3695254Y13040563D01*
X3695629Y13043100D01*
X3696052Y13044121D01*
X3696594Y13049634D01*
X3697404Y13055107D01*
X3697403Y13055111D01*
X3697441Y13055364D01*
X3697493Y13057476D01*
X3697493Y13200019D01*
X3697493Y13201610D01*
X3697241Y13204164D01*
X3697404Y13205256D01*
X3696594Y13210730D01*
X3696052Y13216242D01*
X3696051Y13216243D01*
X3696027Y13216493D01*
X3695562Y13218565D01*
X3695255Y13219793D01*
X3695254Y13219800D01*
X3647635Y13410276D01*
X3647249Y13411356D01*
X3647211Y13411896D01*
X3644874Y13418003D01*
X3642688Y13424122D01*
X3642687Y13424123D01*
X3642608Y13424345D01*
X3642271Y13424997D01*
X3630602Y13448334D01*
X3594337Y13520865D01*
X3590374Y13527160D01*
X3589616Y13528992D01*
X3587924Y13531054D01*
X3586505Y13533308D01*
X3586502Y13533311D01*
X3586500Y13533314D01*
X3583534Y13536771D01*
X3581503Y13538876D01*
X3580288Y13540357D01*
X3490464Y13630181D01*
X4737970Y13630181D01*
X4737970Y12630181D01*
X4739286Y12616818D01*
X4739411Y12615552D01*
X4739412Y12615545D01*
X4750610Y12588512D01*
X4771300Y12567822D01*
X4771301Y12567822D01*
X4771302Y12567821D01*
X4785232Y12562051D01*
X4795904Y12557630D01*
X4798338Y12556622D01*
X4812970Y12555181D01*
X4812974Y12555181D01*
X5193918Y12555181D01*
X5193922Y12555181D01*
X5208554Y12556622D01*
X5211043Y12557654D01*
X5213731Y12557844D01*
X5227463Y12563099D01*
X5322701Y12610718D01*
X5326929Y12613380D01*
X5328921Y12614298D01*
X5330820Y12615437D01*
X5330828Y12615440D01*
X5330834Y12615446D01*
X5333124Y12616818D01*
X5335137Y12618547D01*
X5335144Y12618550D01*
X5335148Y12618556D01*
X5339608Y12622382D01*
X5339983Y12622764D01*
X5342183Y12624760D01*
X5342194Y12624768D01*
X5389812Y12672387D01*
X5394530Y12678137D01*
X5396029Y12679436D01*
X5397450Y12681695D01*
X5399140Y12683753D01*
X5399142Y12683757D01*
X5402169Y12688809D01*
X5402408Y12689299D01*
X5403855Y12691870D01*
X5403861Y12691879D01*
X5451480Y12787117D01*
X5451760Y12787847D01*
X5456733Y12800844D01*
X5456735Y12800848D01*
X5456735Y12800856D01*
X5456952Y12801827D01*
X5457470Y12802767D01*
X5457633Y12803194D01*
X5457732Y12805129D01*
X5457955Y12806023D01*
X5457957Y12806026D01*
X5459398Y12820658D01*
X5459398Y12963515D01*
X5457957Y12978147D01*
X5456926Y12980636D01*
X5456735Y12983325D01*
X5451480Y12997056D01*
X5403861Y13092294D01*
X5401194Y13096531D01*
X5400276Y13098523D01*
X5399141Y13100417D01*
X5399139Y13100421D01*
X5399135Y13100426D01*
X5397761Y13102718D01*
X5392145Y13109266D01*
X5391715Y13109687D01*
X5391555Y13109864D01*
X5391455Y13110070D01*
X5390066Y13111690D01*
X5390496Y13112060D01*
X5361202Y13172796D01*
X5369691Y13242148D01*
X5372626Y13248457D01*
X5403861Y13310926D01*
X5404271Y13311995D01*
X5409114Y13324653D01*
X5409116Y13324657D01*
X5409116Y13324665D01*
X5409333Y13325636D01*
X5410113Y13328938D01*
X5410336Y13329832D01*
X5410338Y13329835D01*
X5411779Y13344467D01*
X5411779Y13439705D01*
X5410338Y13454337D01*
X5409307Y13456826D01*
X5409116Y13459515D01*
X5403861Y13473246D01*
X5356242Y13568484D01*
X5353575Y13572721D01*
X5352657Y13574713D01*
X5351522Y13576607D01*
X5351520Y13576611D01*
X5351516Y13576616D01*
X5350142Y13578908D01*
X5344594Y13585377D01*
X5344197Y13585765D01*
X5342188Y13587982D01*
X5299988Y13630181D01*
X5737970Y13630181D01*
X5737970Y12773039D01*
X5739411Y12758408D01*
X5739644Y12757479D01*
X5740418Y12754199D01*
X5740633Y12753230D01*
X5743827Y12744882D01*
X5745888Y12739498D01*
X5761537Y12708199D01*
X5789882Y12651508D01*
X5789885Y12651502D01*
X5793507Y12644259D01*
X5795047Y12641813D01*
X5795432Y12640658D01*
X5796678Y12639221D01*
X5801339Y12631817D01*
X5801534Y12631648D01*
X5801774Y12631440D01*
X5814219Y12618995D01*
X5814605Y12618550D01*
X5822010Y12613889D01*
X5823447Y12612643D01*
X5824600Y12612259D01*
X5827048Y12610718D01*
X5834301Y12607092D01*
X5834307Y12607088D01*
X5880088Y12584198D01*
X5922286Y12563099D01*
X5936017Y12557844D01*
X5965207Y12555770D01*
X5965207Y12555771D01*
X5965208Y12555770D01*
X5984050Y12562051D01*
X5992969Y12565024D01*
X6015076Y12584197D01*
X6028164Y12610372D01*
X6028231Y12611327D01*
X6028963Y12613291D01*
X6029045Y12613589D01*
X6028637Y12615857D01*
X6041179Y12646096D01*
X6048275Y12665150D01*
X6008958Y12683105D01*
X6007578Y12684483D01*
X6001809Y12689433D01*
X5989372Y12697261D01*
X5956516Y12713689D01*
X5955347Y12714776D01*
X6195943Y12714776D01*
X6210791Y12705956D01*
X6239556Y12690269D01*
X6241320Y12687822D01*
X6242716Y12686993D01*
X6262831Y12657992D01*
X6267932Y12647789D01*
X6268927Y12645387D01*
X6274006Y12636476D01*
X6277026Y12632404D01*
X6277526Y12631821D01*
X6277529Y12631819D01*
X6277530Y12631817D01*
X6277725Y12631648D01*
X6277965Y12631440D01*
X6290410Y12618995D01*
X6290796Y12618550D01*
X6298201Y12613889D01*
X6299638Y12612643D01*
X6300791Y12612259D01*
X6303239Y12610718D01*
X6310492Y12607092D01*
X6310498Y12607088D01*
X6356279Y12584198D01*
X6398477Y12563099D01*
X6398480Y12563098D01*
X6398493Y12563092D01*
X6412201Y12557846D01*
X6412205Y12557846D01*
X6412208Y12557844D01*
X6412210Y12557844D01*
X6413175Y12557630D01*
X6416470Y12556852D01*
X6417381Y12556624D01*
X6417386Y12556622D01*
X6432018Y12555181D01*
X6432022Y12555181D01*
X6670109Y12555181D01*
X6670113Y12555181D01*
X6684745Y12556622D01*
X6684754Y12556626D01*
X6685645Y12556849D01*
X6689018Y12557645D01*
X6689915Y12557844D01*
X6689922Y12557844D01*
X6689928Y12557847D01*
X6690365Y12557943D01*
X6741341Y12558487D01*
X6750717Y12556622D01*
X6750719Y12556622D01*
X6779982Y12556622D01*
X6779983Y12556622D01*
X6800274Y12565027D01*
X6807017Y12567820D01*
X6807017Y12567821D01*
X6807019Y12567821D01*
X6827711Y12588513D01*
X6838910Y12615549D01*
X6840351Y12630181D01*
X6840351Y13106372D01*
X7118923Y13106372D01*
X7118923Y12820658D01*
X7120364Y12806026D01*
X7121395Y12803537D01*
X7121586Y12800849D01*
X7126841Y12787117D01*
X7174460Y12691879D01*
X7177118Y12687657D01*
X7178038Y12685661D01*
X7179179Y12683757D01*
X7179181Y12683753D01*
X7179183Y12683750D01*
X7180558Y12681457D01*
X7186117Y12674978D01*
X7186498Y12674605D01*
X7188510Y12672385D01*
X7213106Y12647789D01*
X7236127Y12624768D01*
X7241876Y12620050D01*
X7243177Y12618550D01*
X7245436Y12617128D01*
X7247493Y12615440D01*
X7247494Y12615440D01*
X7247496Y12615438D01*
X7252516Y12612430D01*
X7253002Y12612193D01*
X7255601Y12610730D01*
X7255620Y12610718D01*
X7350858Y12563099D01*
X7350861Y12563098D01*
X7350874Y12563092D01*
X7364582Y12557846D01*
X7364586Y12557846D01*
X7364589Y12557844D01*
X7364591Y12557844D01*
X7365556Y12557630D01*
X7368851Y12556852D01*
X7369762Y12556624D01*
X7369767Y12556622D01*
X7384399Y12555181D01*
X7384403Y12555181D01*
X7574871Y12555181D01*
X7574875Y12555181D01*
X7589507Y12556622D01*
X7589516Y12556626D01*
X7590407Y12556849D01*
X7593780Y12557645D01*
X7594677Y12557844D01*
X7594684Y12557844D01*
X7594690Y12557847D01*
X7595127Y12557943D01*
X7646103Y12558487D01*
X7655479Y12556622D01*
X7655481Y12556622D01*
X7684744Y12556622D01*
X7684745Y12556622D01*
X7705036Y12565027D01*
X7711779Y12567820D01*
X7711779Y12567821D01*
X7711781Y12567821D01*
X7732473Y12588513D01*
X7743672Y12615549D01*
X7745113Y12630181D01*
X7745113Y13153991D01*
X8023685Y13153991D01*
X8023685Y12773039D01*
X8025126Y12758407D01*
X8026157Y12755918D01*
X8026348Y12753230D01*
X8031603Y12739498D01*
X8078454Y12645795D01*
X8079391Y12643737D01*
X8083530Y12636476D01*
X8086550Y12632404D01*
X8087050Y12631821D01*
X8087053Y12631819D01*
X8087054Y12631817D01*
X8087249Y12631648D01*
X8087489Y12631440D01*
X8099934Y12618995D01*
X8100320Y12618550D01*
X8107725Y12613889D01*
X8109162Y12612643D01*
X8110315Y12612259D01*
X8112763Y12610718D01*
X8120016Y12607092D01*
X8120022Y12607088D01*
X8165803Y12584198D01*
X8208001Y12563099D01*
X8208004Y12563098D01*
X8208017Y12563092D01*
X8221725Y12557846D01*
X8221729Y12557846D01*
X8221732Y12557844D01*
X8221734Y12557844D01*
X8222699Y12557630D01*
X8225994Y12556852D01*
X8226905Y12556624D01*
X8226910Y12556622D01*
X8241542Y12555181D01*
X8241546Y12555181D01*
X8432014Y12555181D01*
X8432018Y12555181D01*
X8446650Y12556622D01*
X8449139Y12557654D01*
X8451827Y12557844D01*
X8465559Y12563099D01*
X8522065Y12591353D01*
X8524950Y12592615D01*
X8556589Y12596657D01*
X8587988Y12602307D01*
X8591010Y12601054D01*
X8594257Y12601468D01*
X8623062Y12587761D01*
X8652527Y12575540D01*
X8654620Y12572743D01*
X8657347Y12571445D01*
X8665886Y12557686D01*
X8689238Y12526477D01*
X8702990Y12493277D01*
X8702993Y12493273D01*
X8723682Y12472584D01*
X8723683Y12472584D01*
X8723684Y12472583D01*
X8750720Y12461384D01*
X8765352Y12459943D01*
X8765356Y12459943D01*
X9527252Y12459943D01*
X9527256Y12459943D01*
X9541888Y12461384D01*
X9568924Y12472583D01*
X9589616Y12493275D01*
X9600815Y12520311D01*
X9600815Y12549575D01*
X9598249Y12555770D01*
X9589617Y12576610D01*
X9589614Y12576614D01*
X9568925Y12597303D01*
X9541892Y12608501D01*
X9541889Y12608502D01*
X9541888Y12608502D01*
X9527256Y12609943D01*
X8765352Y12609943D01*
X8758848Y12609303D01*
X8750715Y12608502D01*
X8749801Y12608272D01*
X8748799Y12608313D01*
X8744130Y12607853D01*
X8741336Y12606464D01*
X8710746Y12609846D01*
X8679988Y12611084D01*
X8676329Y12613650D01*
X8671889Y12614140D01*
X8647982Y12633524D01*
X8622778Y12651194D01*
X8620112Y12656120D01*
X8617617Y12658143D01*
X8609009Y12676637D01*
X8601913Y12689750D01*
X8599667Y12696564D01*
X8599593Y12697609D01*
X8586505Y12723784D01*
X8576815Y12732188D01*
X8564397Y12742958D01*
X8564395Y12742960D01*
X8562581Y12743564D01*
X8559147Y12745951D01*
X8553789Y12749005D01*
X8554062Y12749485D01*
X8505209Y12783442D01*
X8478505Y12848007D01*
X8490946Y12916760D01*
X8538583Y12967873D01*
X8577481Y12982789D01*
X8589583Y12985209D01*
X8603649Y12989492D01*
X8603650Y12989493D01*
X8603654Y12989494D01*
X8611915Y12993412D01*
X8611933Y12993373D01*
X8612392Y12993619D01*
X8616537Y12996389D01*
X8616539Y12996392D01*
X8616543Y12996393D01*
X8621795Y13001646D01*
X8627963Y13005776D01*
X8632037Y13011887D01*
X8637235Y13017085D01*
X8640078Y13023949D01*
X8644195Y13030124D01*
X8645620Y13037330D01*
X8648434Y13044121D01*
X8649875Y13058753D01*
X8649875Y13153991D01*
X8648434Y13168623D01*
X8647403Y13171112D01*
X8647212Y13173801D01*
X8641957Y13187532D01*
X8595093Y13281260D01*
X8594177Y13283272D01*
X8592415Y13286365D01*
X8592413Y13286371D01*
X8592408Y13286377D01*
X8590025Y13290560D01*
X8587015Y13294619D01*
X8586504Y13295215D01*
X8586061Y13295599D01*
X8573626Y13308034D01*
X8573408Y13308286D01*
X8573406Y13308287D01*
X8573240Y13308479D01*
X8565834Y13313141D01*
X8564398Y13314386D01*
X8563244Y13314771D01*
X8560797Y13316311D01*
X8553571Y13319924D01*
X8553566Y13319927D01*
X8465556Y13363932D01*
X8451827Y13369185D01*
X8450858Y13369400D01*
X8447578Y13370174D01*
X8446651Y13370407D01*
X8446650Y13370407D01*
X8432018Y13371848D01*
X8241542Y13371848D01*
X8241540Y13371848D01*
X8232659Y13370974D01*
X8232656Y13370973D01*
X8226910Y13370407D01*
X8224421Y13369377D01*
X8221732Y13369185D01*
X8208001Y13363930D01*
X8114277Y13317069D01*
X8112228Y13316135D01*
X8105001Y13312015D01*
X8100884Y13308963D01*
X8100313Y13308474D01*
X8099943Y13308048D01*
X8099944Y13308047D01*
X8097023Y13304678D01*
X8094158Y13301375D01*
X8087054Y13295213D01*
X8082392Y13287808D01*
X8081147Y13286371D01*
X8081145Y13286367D01*
X8081139Y13286359D01*
X8078463Y13281664D01*
X8077470Y13279268D01*
X8031602Y13187531D01*
X8031599Y13187524D01*
X8026348Y13173804D01*
X8026143Y13172876D01*
X8025370Y13169598D01*
X8025125Y13168623D01*
X8024218Y13159405D01*
X8023685Y13153991D01*
X7745113Y13153991D01*
X7745113Y13620802D01*
X9548083Y13620802D01*
X9549278Y13615549D01*
X9551344Y13606464D01*
X9803308Y12850572D01*
X9884677Y12606464D01*
X9889055Y12596657D01*
X9890671Y12593039D01*
X9894181Y12588992D01*
X9896578Y12584198D01*
X9903686Y12578033D01*
X9909837Y12570941D01*
X9909844Y12570933D01*
X9914065Y12567658D01*
X9918681Y12565027D01*
X9918685Y12565024D01*
X9924441Y12563106D01*
X9927611Y12562050D01*
X9936018Y12557845D01*
X9941360Y12557467D01*
X9943203Y12556852D01*
X9946448Y12555770D01*
X9947039Y12555812D01*
X9964617Y12555812D01*
X9965208Y12555770D01*
X9965211Y12555771D01*
X9965213Y12555771D01*
X9970298Y12557467D01*
X9975638Y12557845D01*
X9984042Y12562049D01*
X9990590Y12564232D01*
X9992970Y12565024D01*
X9992973Y12565027D01*
X9992974Y12565027D01*
X9997599Y12567664D01*
X10001806Y12570929D01*
X10001811Y12570931D01*
X10002203Y12571384D01*
X10014635Y12583814D01*
X10015078Y12584198D01*
X10015079Y12584202D01*
X10016992Y12586666D01*
X10017542Y12587636D01*
X10020977Y12593030D01*
X10020985Y12593038D01*
X10026979Y12606464D01*
X10276107Y13353848D01*
X10500465Y13353848D01*
X10502539Y13324658D01*
X10515626Y13298483D01*
X10518294Y13296170D01*
X10518294Y13296169D01*
X10521192Y13293656D01*
X10533165Y13283272D01*
X10537733Y13279311D01*
X10537734Y13279310D01*
X10565495Y13270056D01*
X10565497Y13270057D01*
X10565498Y13270056D01*
X10583009Y13271301D01*
X10594685Y13272130D01*
X10608417Y13277385D01*
X10608429Y13277392D01*
X10611196Y13278608D01*
X10611256Y13278472D01*
X10611261Y13278473D01*
X10611298Y13278376D01*
X10611799Y13277238D01*
X10674789Y13288632D01*
X10739352Y13261923D01*
X10779227Y13204549D01*
X10785590Y13165336D01*
X10785590Y12829181D01*
X10765905Y12762142D01*
X10713101Y12716387D01*
X10661590Y12705181D01*
X10574876Y12705181D01*
X10560244Y12703740D01*
X10560242Y12703740D01*
X10560239Y12703739D01*
X10533206Y12692541D01*
X10512517Y12671852D01*
X10512514Y12671848D01*
X10501318Y12644818D01*
X10501317Y12644812D01*
X10501317Y12615551D01*
X10501318Y12615545D01*
X10512514Y12588515D01*
X10512517Y12588511D01*
X10533206Y12567822D01*
X10533207Y12567822D01*
X10533208Y12567821D01*
X10547138Y12562051D01*
X10557810Y12557630D01*
X10560244Y12556622D01*
X10574876Y12555181D01*
X10574880Y12555181D01*
X11146300Y12555181D01*
X11146304Y12555181D01*
X11160936Y12556622D01*
X11187972Y12567821D01*
X11208664Y12588513D01*
X11208863Y12588992D01*
X11216675Y12607853D01*
X11219863Y12615549D01*
X11219863Y12644813D01*
X11216679Y12652500D01*
X11208665Y12671848D01*
X11208662Y12671852D01*
X11187973Y12692541D01*
X11160940Y12703739D01*
X11160937Y12703740D01*
X11160936Y12703740D01*
X11146304Y12705181D01*
X11146300Y12705181D01*
X11059590Y12705181D01*
X10992551Y12724866D01*
X10946796Y12777670D01*
X10935590Y12829181D01*
X10935590Y13625575D01*
X10935590Y13630181D01*
X10935584Y13630234D01*
X10935590Y13630260D01*
X10935574Y13630337D01*
X10934149Y13644813D01*
X10931307Y13651674D01*
X10929851Y13658955D01*
X10925761Y13665062D01*
X10922950Y13671849D01*
X10922948Y13671851D01*
X10920349Y13675741D01*
X10916874Y13679971D01*
X10913566Y13683272D01*
X10907449Y13687350D01*
X10902258Y13692541D01*
X10895401Y13695382D01*
X10889224Y13699500D01*
X10889215Y13699504D01*
X10882005Y13700930D01*
X10875222Y13703740D01*
X10867797Y13703740D01*
X10860511Y13705181D01*
X10855527Y13705176D01*
X10850844Y13704712D01*
X10845960Y13703741D01*
X10845395Y13703507D01*
X10839097Y13700899D01*
X10831817Y13699442D01*
X10825711Y13695354D01*
X10818922Y13692541D01*
X10818921Y13692541D01*
X10818918Y13692539D01*
X10815060Y13689962D01*
X10814261Y13689305D01*
X10814265Y13689301D01*
X10807498Y13683157D01*
X10802644Y13677230D01*
X10802603Y13677179D01*
X10798281Y13671901D01*
X10798230Y13671849D01*
X10798220Y13671827D01*
X10798186Y13671784D01*
X10797130Y13670202D01*
X10796871Y13669870D01*
X10793351Y13664736D01*
X10792668Y13663507D01*
X10713876Y13545320D01*
X10698384Y13526423D01*
X10639917Y13467955D01*
X10607689Y13444726D01*
X10559839Y13420802D01*
X10559838Y13420801D01*
X10541335Y13411549D01*
X10528892Y13403717D01*
X10509719Y13381609D01*
X10500465Y13353848D01*
X10276107Y13353848D01*
X10360312Y13606464D01*
X10363572Y13620800D01*
X10361497Y13649990D01*
X10348411Y13676164D01*
X10326303Y13695338D01*
X10326301Y13695339D01*
X10326302Y13695339D01*
X10303371Y13702982D01*
X10298541Y13704592D01*
X10298540Y13704592D01*
X10269352Y13702518D01*
X10243178Y13689431D01*
X10224005Y13667325D01*
X10224001Y13667319D01*
X10218013Y13653907D01*
X10073464Y13220262D01*
X10033589Y13162888D01*
X9969026Y13136179D01*
X9900272Y13148616D01*
X9849157Y13196250D01*
X9838193Y13220255D01*
X9693646Y13653898D01*
X9691388Y13658955D01*
X9687652Y13667324D01*
X9668479Y13689430D01*
X9668478Y13689431D01*
X9642305Y13702517D01*
X9613115Y13704592D01*
X9613114Y13704592D01*
X9585352Y13695339D01*
X9563246Y13676166D01*
X9563244Y13676163D01*
X9550159Y13649992D01*
X9548083Y13620802D01*
X7745113Y13620802D01*
X7745113Y13630181D01*
X7743672Y13644813D01*
X7732473Y13671849D01*
X7732472Y13671850D01*
X7732472Y13671851D01*
X7711783Y13692540D01*
X7711779Y13692543D01*
X7684749Y13703739D01*
X7684745Y13703740D01*
X7655481Y13703740D01*
X7655480Y13703740D01*
X7655476Y13703739D01*
X7628446Y13692543D01*
X7628442Y13692540D01*
X7607753Y13671851D01*
X7596555Y13644818D01*
X7596554Y13644815D01*
X7596554Y13644813D01*
X7595119Y13630234D01*
X7595113Y13630177D01*
X7595113Y13495848D01*
X7593280Y13489606D01*
X7594467Y13483210D01*
X7583556Y13456493D01*
X7575428Y13428809D01*
X7570512Y13424551D01*
X7568053Y13418526D01*
X7544427Y13401947D01*
X7522624Y13383054D01*
X7514861Y13381200D01*
X7510860Y13378391D01*
X7485947Y13374290D01*
X7476159Y13371951D01*
X7473630Y13371848D01*
X7384399Y13371848D01*
X7369767Y13370407D01*
X7367278Y13369377D01*
X7364589Y13369185D01*
X7359392Y13367197D01*
X7359389Y13367196D01*
X7350868Y13363935D01*
X7350853Y13363928D01*
X7255609Y13316306D01*
X7249318Y13312347D01*
X7247493Y13311589D01*
X7245444Y13309908D01*
X7243176Y13308480D01*
X7238744Y13304678D01*
X7238375Y13304300D01*
X7236130Y13302266D01*
X7188517Y13254653D01*
X7188509Y13254643D01*
X7183790Y13248894D01*
X7182292Y13247594D01*
X7180872Y13245340D01*
X7179180Y13243277D01*
X7175919Y13237839D01*
X7175959Y13237816D01*
X7174471Y13235173D01*
X7126836Y13139904D01*
X7121587Y13126188D01*
X7121376Y13125232D01*
X7120602Y13121955D01*
X7120363Y13121004D01*
X7119287Y13110070D01*
X7118923Y13106372D01*
X6840351Y13106372D01*
X6840351Y13153991D01*
X6838910Y13168623D01*
X6838908Y13168628D01*
X6838680Y13169539D01*
X6837902Y13172834D01*
X6837686Y13173808D01*
X6832440Y13187516D01*
X6832426Y13187546D01*
X6788443Y13275513D01*
X6788439Y13275519D01*
X6784814Y13282770D01*
X6783273Y13285218D01*
X6782889Y13286371D01*
X6781643Y13287808D01*
X6776982Y13295213D01*
X6776537Y13295599D01*
X6764102Y13308034D01*
X6763884Y13308286D01*
X6763882Y13308287D01*
X6763716Y13308479D01*
X6756310Y13313141D01*
X6754874Y13314386D01*
X6753720Y13314771D01*
X6751273Y13316311D01*
X6744047Y13319924D01*
X6744042Y13319927D01*
X6656032Y13363932D01*
X6642303Y13369185D01*
X6641334Y13369400D01*
X6638054Y13370174D01*
X6637127Y13370407D01*
X6637126Y13370407D01*
X6622494Y13371848D01*
X6432018Y13371848D01*
X6432016Y13371848D01*
X6417380Y13370408D01*
X6416405Y13370163D01*
X6413183Y13369402D01*
X6412208Y13369186D01*
X6398487Y13363935D01*
X6398472Y13363928D01*
X6303231Y13316307D01*
X6290797Y13308481D01*
X6271623Y13286373D01*
X6262369Y13258611D01*
X6262368Y13258606D01*
X6264442Y13229425D01*
X6264442Y13229422D01*
X6264443Y13229420D01*
X6271032Y13216242D01*
X6277530Y13203245D01*
X6280755Y13200448D01*
X6285649Y13192825D01*
X6293268Y13187923D01*
X6304229Y13163886D01*
X6318504Y13141654D01*
X6318500Y13132595D01*
X6322259Y13124352D01*
X6318485Y13098204D01*
X6318474Y13071785D01*
X6313309Y13062337D01*
X6312279Y13055199D01*
X6293182Y13025517D01*
X6290401Y13022311D01*
X6277994Y13009903D01*
X6277724Y13009670D01*
X6277720Y13009665D01*
X6277530Y13009499D01*
X6272868Y13002094D01*
X6271623Y13000657D01*
X6271238Y12999504D01*
X6269698Y12997056D01*
X6266098Y12989857D01*
X6266088Y12989839D01*
X6222078Y12901817D01*
X6222075Y12901810D01*
X6216825Y12888093D01*
X6216614Y12887137D01*
X6216052Y12886072D01*
X6215982Y12885890D01*
X6215840Y12883860D01*
X6215601Y12882909D01*
X6214161Y12868277D01*
X6214161Y12776818D01*
X6195943Y12714776D01*
X5955347Y12714776D01*
X5937052Y12731794D01*
X5915249Y12747003D01*
X5911865Y12755222D01*
X5905357Y12761276D01*
X5897311Y12790578D01*
X5888652Y12811613D01*
X5889803Y12817919D01*
X5887970Y12824598D01*
X5887970Y13630177D01*
X5887970Y13630181D01*
X5886529Y13644813D01*
X5875330Y13671849D01*
X5875329Y13671850D01*
X5875329Y13671851D01*
X5854640Y13692540D01*
X5854636Y13692543D01*
X5827606Y13703739D01*
X5827602Y13703740D01*
X5798338Y13703740D01*
X5798337Y13703740D01*
X5798333Y13703739D01*
X5771303Y13692543D01*
X5771299Y13692540D01*
X5750610Y13671851D01*
X5739412Y13644818D01*
X5739411Y13644815D01*
X5739411Y13644813D01*
X5737970Y13630181D01*
X5299988Y13630181D01*
X5294579Y13635590D01*
X5294574Y13635595D01*
X5288824Y13640314D01*
X5287525Y13641812D01*
X5285272Y13643230D01*
X5283214Y13644919D01*
X5277903Y13648105D01*
X5277741Y13648147D01*
X5275087Y13649641D01*
X5275085Y13649642D01*
X5275082Y13649644D01*
X5179844Y13697263D01*
X5179843Y13697264D01*
X5179836Y13697267D01*
X5166112Y13702518D01*
X5165143Y13702733D01*
X5161863Y13703507D01*
X5160936Y13703740D01*
X5160935Y13703740D01*
X5146303Y13705181D01*
X4812970Y13705181D01*
X4798338Y13703740D01*
X4798336Y13703740D01*
X4798333Y13703739D01*
X4771300Y13692541D01*
X4750610Y13671851D01*
X4739412Y13644818D01*
X4739411Y13644815D01*
X4739411Y13644813D01*
X4737970Y13630181D01*
X3490464Y13630181D01*
X3485050Y13635595D01*
X3480914Y13638990D01*
X3473683Y13644924D01*
X3472834Y13645433D01*
X3469974Y13647201D01*
X3469162Y13647718D01*
X3455742Y13653710D01*
X3455736Y13653712D01*
X3455734Y13653713D01*
X3385183Y13677230D01*
X3312882Y13701331D01*
X3311025Y13701754D01*
X3305623Y13702982D01*
X3303792Y13703740D01*
X3301137Y13704002D01*
X3299156Y13704452D01*
X3298532Y13704594D01*
X3292706Y13705039D01*
X3292191Y13705033D01*
X3289172Y13705181D01*
X3289160Y13705181D01*
X3051065Y13705181D01*
X3036433Y13703740D01*
X3036431Y13703740D01*
X3036428Y13703739D01*
X3009395Y13692541D01*
X2988705Y13671851D01*
X2977507Y13644818D01*
X2977506Y13644815D01*
X2977506Y13644813D01*
X2976065Y13630181D01*
X2696052Y13630181D01*
X2696052Y13644813D01*
X2694848Y13647719D01*
X2684854Y13671848D01*
X2684851Y13671852D01*
X2664162Y13692541D01*
X2637129Y13703739D01*
X2637126Y13703740D01*
X2637125Y13703740D01*
X2622493Y13705181D01*
X2146303Y13705181D01*
X2131671Y13703740D01*
X2131669Y13703740D01*
X2131666Y13703739D01*
X2104633Y13692541D01*
X2083943Y13671851D01*
X2072745Y13644818D01*
X2072744Y13644815D01*
X2072744Y13644813D01*
X2071309Y13630234D01*
X2071303Y13630177D01*
X2071303Y12775238D01*
X2051618Y12708199D01*
X1998814Y12662444D01*
X1929656Y12652500D01*
X1866100Y12681525D01*
X1859622Y12687557D01*
X1854638Y12692541D01*
X1827605Y12703739D01*
X1827602Y12703740D01*
X1827601Y12703740D01*
X1812969Y12705181D01*
X1812965Y12705181D01*
X1535779Y12705181D01*
X1468740Y12724866D01*
X1422985Y12777670D01*
X1411779Y12829181D01*
X1411779Y13630177D01*
X1411779Y13630181D01*
X1410338Y13644813D01*
X1399139Y13671849D01*
X1399138Y13671850D01*
X1399138Y13671851D01*
X1378449Y13692540D01*
X1378445Y13692543D01*
X1351415Y13703739D01*
X1351411Y13703740D01*
X1322147Y13703740D01*
X1322146Y13703740D01*
X1322142Y13703739D01*
X1295112Y13692543D01*
X1295108Y13692540D01*
X1274419Y13671851D01*
X1263221Y13644818D01*
X1263220Y13644815D01*
X1263220Y13644813D01*
X1261779Y13630181D01*
X500500Y13630181D01*
X500500Y14375500D01*
X520185Y14442539D01*
X572989Y14488294D01*
X624500Y14499500D01*
X14181664Y14499500D01*
X14248703Y14479815D01*
G37*
%TD.AperFunction*%
%TA.AperFunction,NonConductor*%
G36*
X7538152Y13202163D02*
G01*
X7583907Y13149359D01*
X7595113Y13097848D01*
X7595113Y12829181D01*
X7575428Y12762142D01*
X7522624Y12716387D01*
X7471113Y12705181D01*
X7431376Y12705181D01*
X7375922Y12718272D01*
X7351588Y12730439D01*
X7349162Y12732188D01*
X7347587Y12732531D01*
X7319338Y12753689D01*
X7317386Y12755642D01*
X7294181Y12787847D01*
X7282014Y12812181D01*
X7268923Y12867635D01*
X7268923Y13059395D01*
X7282014Y13114849D01*
X7284709Y13120238D01*
X7285092Y13121004D01*
X7286337Y13123494D01*
X7286766Y13124352D01*
X7292733Y13136286D01*
X7294182Y13139185D01*
X7295918Y13141595D01*
X7296259Y13143158D01*
X7317410Y13171412D01*
X7319359Y13173361D01*
X7351586Y13196589D01*
X7375922Y13208757D01*
X7431376Y13221848D01*
X7471113Y13221848D01*
X7538152Y13202163D01*
G37*
%TD.AperFunction*%
%TA.AperFunction,NonConductor*%
G36*
X3296079Y13548818D02*
G01*
X3363734Y13526267D01*
X3412202Y13496311D01*
X3451386Y13457127D01*
X3453122Y13454719D01*
X3454498Y13453901D01*
X3474614Y13424900D01*
X3498020Y13378088D01*
X3507409Y13352709D01*
X3543791Y13207184D01*
X3547493Y13177109D01*
X3547493Y13083255D01*
X3543791Y13053180D01*
X3507410Y12907658D01*
X3498021Y12882279D01*
X3474614Y12835465D01*
X3451386Y12803238D01*
X3412199Y12764051D01*
X3363732Y12734096D01*
X3323642Y12720733D01*
X3296081Y12711545D01*
X3256868Y12705181D01*
X3250065Y12705181D01*
X3183026Y12724866D01*
X3137271Y12777670D01*
X3126065Y12829181D01*
X3126065Y13431181D01*
X3128615Y13439867D01*
X3127327Y13448828D01*
X3138305Y13472869D01*
X3145750Y13498220D01*
X3152590Y13504148D01*
X3156352Y13512384D01*
X3178586Y13526674D01*
X3198554Y13543975D01*
X3209068Y13546263D01*
X3215130Y13550158D01*
X3250065Y13555181D01*
X3256867Y13555181D01*
X3296079Y13548818D01*
G37*
%TD.AperFunction*%
M02*
