%TF.GenerationSoftware,KiCad,Pcbnew,10.0.0*%
%TF.CreationDate,2026-05-01T19:23:38-06:00*%
%TF.ProjectId,PoweredPlatter2_MainBoard_V1,506f7765-7265-4645-906c-617474657232,rev?*%
%TF.SameCoordinates,PX6ad2be5PY7276497*%
%TF.FileFunction,Copper,L1,Top*%
%TF.FilePolarity,Positive*%
%FSLAX46Y46*%
G04 Gerber Fmt 4.6, Leading zero omitted, Abs format (unit mm)*
G04 Created by KiCad (PCBNEW 10.0.0) date 2026-05-01 19:23:38*
%MOMM*%
%LPD*%
G01*
G04 APERTURE LIST*
G04 Aperture macros list*
%AMRoundRect*
0 Rectangle with rounded corners*
0 $1 Rounding radius*
0 $2 $3 $4 $5 $6 $7 $8 $9 X,Y pos of 4 corners*
0 Add a 4 corners polygon primitive as box body*
4,1,4,$2,$3,$4,$5,$6,$7,$8,$9,$2,$3,0*
0 Add four circle primitives for the rounded corners*
1,1,$1+$1,$2,$3*
1,1,$1+$1,$4,$5*
1,1,$1+$1,$6,$7*
1,1,$1+$1,$8,$9*
0 Add four rect primitives between the rounded corners*
20,1,$1+$1,$2,$3,$4,$5,0*
20,1,$1+$1,$4,$5,$6,$7,0*
20,1,$1+$1,$6,$7,$8,$9,0*
20,1,$1+$1,$8,$9,$2,$3,0*%
G04 Aperture macros list end*
%ADD10C,0.300000*%
%TA.AperFunction,ComponentPad*%
%ADD11R,1.700000X1.700000*%
%TD*%
%TA.AperFunction,ComponentPad*%
%ADD12C,1.700000*%
%TD*%
%TA.AperFunction,SMDPad,CuDef*%
%ADD13R,0.850000X0.300000*%
%TD*%
%TA.AperFunction,SMDPad,CuDef*%
%ADD14RoundRect,0.200000X-0.200000X-0.275000X0.200000X-0.275000X0.200000X0.275000X-0.200000X0.275000X0*%
%TD*%
%TA.AperFunction,SMDPad,CuDef*%
%ADD15RoundRect,0.225000X-0.225000X-0.250000X0.225000X-0.250000X0.225000X0.250000X-0.225000X0.250000X0*%
%TD*%
%TA.AperFunction,SMDPad,CuDef*%
%ADD16RoundRect,0.225000X0.250000X-0.225000X0.250000X0.225000X-0.250000X0.225000X-0.250000X-0.225000X0*%
%TD*%
%TA.AperFunction,SMDPad,CuDef*%
%ADD17RoundRect,0.200000X0.275000X-0.200000X0.275000X0.200000X-0.275000X0.200000X-0.275000X-0.200000X0*%
%TD*%
%TA.AperFunction,SMDPad,CuDef*%
%ADD18RoundRect,0.200000X-0.275000X0.200000X-0.275000X-0.200000X0.275000X-0.200000X0.275000X0.200000X0*%
%TD*%
%TA.AperFunction,SMDPad,CuDef*%
%ADD19R,0.950000X2.850000*%
%TD*%
%TA.AperFunction,SMDPad,CuDef*%
%ADD20R,3.250000X2.850000*%
%TD*%
%TA.AperFunction,SMDPad,CuDef*%
%ADD21R,1.000000X1.150000*%
%TD*%
%TA.AperFunction,SMDPad,CuDef*%
%ADD22RoundRect,0.243750X0.456250X-0.243750X0.456250X0.243750X-0.456250X0.243750X-0.456250X-0.243750X0*%
%TD*%
%TA.AperFunction,SMDPad,CuDef*%
%ADD23RoundRect,0.125000X-0.125000X0.625000X-0.125000X-0.625000X0.125000X-0.625000X0.125000X0.625000X0*%
%TD*%
%TA.AperFunction,SMDPad,CuDef*%
%ADD24RoundRect,0.125000X-0.625000X0.125000X-0.625000X-0.125000X0.625000X-0.125000X0.625000X0.125000X0*%
%TD*%
%TA.AperFunction,SMDPad,CuDef*%
%ADD25RoundRect,0.218750X0.256250X-0.218750X0.256250X0.218750X-0.256250X0.218750X-0.256250X-0.218750X0*%
%TD*%
%TA.AperFunction,SMDPad,CuDef*%
%ADD26R,1.000000X2.000000*%
%TD*%
%TA.AperFunction,ViaPad*%
%ADD27C,2.500000*%
%TD*%
%TA.AperFunction,ViaPad*%
%ADD28C,7.000000*%
%TD*%
%TA.AperFunction,Conductor*%
%ADD29C,0.750000*%
%TD*%
%TA.AperFunction,Conductor*%
%ADD30C,1.000000*%
%TD*%
%TA.AperFunction,Conductor*%
%ADD31C,0.300000*%
%TD*%
%TA.AperFunction,Conductor*%
%ADD32C,0.500000*%
%TD*%
G04 APERTURE END LIST*
D10*
G36*
X5430447Y2538107D02*
G01*
X5456622Y2485756D01*
X5049393Y2404310D01*
X5049393Y2471644D01*
X5082624Y2538107D01*
X5149089Y2571339D01*
X5363983Y2571339D01*
X5430447Y2538107D01*
G37*
G36*
X10963678Y1885473D02*
G01*
X10935411Y1871339D01*
X10649087Y1871339D01*
X10582624Y1904570D01*
X10549392Y1971034D01*
X10549392Y2043073D01*
X10582623Y2109536D01*
X10649087Y2142767D01*
X10963678Y2142767D01*
X10963678Y1885473D01*
G37*
G36*
X14001875Y2538107D02*
G01*
X14028050Y2485756D01*
X13620821Y2404310D01*
X13620821Y2471644D01*
X13654052Y2538107D01*
X13720517Y2571339D01*
X13935411Y2571339D01*
X14001875Y2538107D01*
G37*
G36*
X2167682Y3026632D02*
G01*
X2204686Y2989628D01*
X2249392Y2900216D01*
X2249392Y2756749D01*
X2204685Y2667336D01*
X2167680Y2630331D01*
X2078268Y2585625D01*
X1692249Y2585625D01*
X1692249Y3071339D01*
X2078268Y3071339D01*
X2167682Y3026632D01*
G37*
G36*
X8810539Y3026632D02*
G01*
X8847543Y2989628D01*
X8892249Y2900216D01*
X8892249Y2756749D01*
X8847542Y2667336D01*
X8810537Y2630331D01*
X8721125Y2585625D01*
X8335106Y2585625D01*
X8335106Y3071339D01*
X8721125Y3071339D01*
X8810539Y3026632D01*
G37*
G36*
X19287487Y1261815D02*
G01*
X1225582Y1261815D01*
X1225582Y3221339D01*
X1392249Y3221339D01*
X1392249Y1721339D01*
X1395131Y1692075D01*
X1417529Y1638003D01*
X1458913Y1596619D01*
X1512985Y1574221D01*
X1571513Y1574221D01*
X1625585Y1596619D01*
X1666969Y1638003D01*
X1689367Y1692075D01*
X1692249Y1721339D01*
X1692249Y2285625D01*
X2113678Y2285625D01*
X2142942Y2288507D01*
X2147920Y2290570D01*
X2153296Y2290951D01*
X2180760Y2301461D01*
X2323617Y2372889D01*
X2336210Y2380817D01*
X2339870Y2382332D01*
X2343989Y2385714D01*
X2348503Y2388554D01*
X2351099Y2391548D01*
X2362601Y2400987D01*
X2434030Y2472416D01*
X2443471Y2483921D01*
X2446463Y2486515D01*
X2449301Y2491025D01*
X2452685Y2495147D01*
X2454201Y2498809D01*
X2462128Y2511400D01*
X2533556Y2654258D01*
X2544066Y2681721D01*
X2544447Y2687097D01*
X2546510Y2692075D01*
X2549392Y2721339D01*
X2892249Y2721339D01*
X2892249Y1721339D01*
X2895131Y1692075D01*
X2917529Y1638003D01*
X2958913Y1596619D01*
X3012985Y1574221D01*
X3071513Y1574221D01*
X3125585Y1596619D01*
X3166969Y1638003D01*
X3189367Y1692075D01*
X3192249Y1721339D01*
X3192249Y2709813D01*
X3464122Y2709813D01*
X3479917Y2653457D01*
X3495730Y2628666D01*
X3815772Y2221339D01*
X3495730Y1814012D01*
X3479917Y1789221D01*
X3464122Y1732865D01*
X3471095Y1674756D01*
X3499774Y1623737D01*
X3545796Y1587578D01*
X3602152Y1571783D01*
X3660261Y1578756D01*
X3711280Y1607435D01*
X3731626Y1628666D01*
X4006535Y1978551D01*
X4281445Y1628666D01*
X4301791Y1607435D01*
X4352810Y1578756D01*
X4410919Y1571783D01*
X4467275Y1587578D01*
X4513297Y1623737D01*
X4541976Y1674756D01*
X4548949Y1732865D01*
X4533154Y1789221D01*
X4517341Y1814012D01*
X4197298Y2221339D01*
X4421788Y2507053D01*
X4749393Y2507053D01*
X4749393Y1935625D01*
X4752275Y1906361D01*
X4754337Y1901383D01*
X4754719Y1896007D01*
X4765229Y1868544D01*
X4836657Y1725685D01*
X4839736Y1720793D01*
X4840507Y1718482D01*
X4843002Y1715605D01*
X4852322Y1700800D01*
X4866528Y1688479D01*
X4878854Y1674267D01*
X4893658Y1664949D01*
X4896536Y1662453D01*
X4898847Y1661683D01*
X4903740Y1658603D01*
X5046598Y1587174D01*
X5074061Y1576665D01*
X5079436Y1576284D01*
X5084415Y1574221D01*
X5113679Y1571339D01*
X5399393Y1571339D01*
X5428657Y1574221D01*
X5433635Y1576284D01*
X5439011Y1576665D01*
X5466475Y1587175D01*
X5609332Y1658603D01*
X5634218Y1674268D01*
X5672564Y1718483D01*
X5691072Y1774005D01*
X5686924Y1832385D01*
X5660750Y1884734D01*
X5616535Y1923081D01*
X5561012Y1941589D01*
X5502632Y1937441D01*
X5475169Y1926931D01*
X5363983Y1871339D01*
X5149088Y1871339D01*
X5082625Y1904570D01*
X5049393Y1971034D01*
X5049393Y2098369D01*
X5642942Y2217078D01*
X5642943Y2217078D01*
X5642943Y2217079D01*
X5643097Y2217109D01*
X5671227Y2225674D01*
X5683438Y2233853D01*
X5697015Y2239476D01*
X5707516Y2249978D01*
X5719857Y2258242D01*
X5728009Y2270470D01*
X5738399Y2280860D01*
X5744081Y2294580D01*
X5752321Y2306938D01*
X5755173Y2321356D01*
X5760797Y2334932D01*
X5763679Y2364196D01*
X5763679Y2364348D01*
X5763680Y2364353D01*
X5763679Y2364358D01*
X5763679Y2507053D01*
X5760797Y2536317D01*
X5758733Y2541298D01*
X5758352Y2546672D01*
X5747843Y2574136D01*
X5676414Y2716992D01*
X5673333Y2721887D01*
X5672564Y2724194D01*
X5670071Y2727069D01*
X5660749Y2741878D01*
X5646539Y2754202D01*
X5634218Y2768409D01*
X5619412Y2777729D01*
X5616534Y2780225D01*
X5614222Y2780996D01*
X5609332Y2784074D01*
X5466475Y2855503D01*
X5439012Y2866012D01*
X5433637Y2866394D01*
X5428657Y2868457D01*
X5399393Y2871339D01*
X5113679Y2871339D01*
X5084415Y2868457D01*
X5079437Y2866396D01*
X5074060Y2866013D01*
X5046597Y2855503D01*
X4903739Y2784074D01*
X4898844Y2780994D01*
X4896537Y2780224D01*
X4893662Y2777732D01*
X4878853Y2768409D01*
X4866530Y2754201D01*
X4852322Y2741878D01*
X4842999Y2727069D01*
X4840507Y2724194D01*
X4839737Y2721887D01*
X4836657Y2716992D01*
X4765229Y2574135D01*
X4754719Y2546671D01*
X4754337Y2541296D01*
X4752275Y2536317D01*
X4749393Y2507053D01*
X4421788Y2507053D01*
X4517341Y2628666D01*
X4533154Y2653457D01*
X4548949Y2709813D01*
X4541976Y2767922D01*
X4513297Y2818941D01*
X4467275Y2855100D01*
X4410919Y2870895D01*
X4352810Y2863922D01*
X4301791Y2835243D01*
X4281445Y2814012D01*
X4006535Y2464128D01*
X3731626Y2814012D01*
X3711280Y2835243D01*
X3660261Y2863922D01*
X3602152Y2870895D01*
X3545796Y2855100D01*
X3499774Y2818941D01*
X3471095Y2767922D01*
X3464122Y2709813D01*
X3192249Y2709813D01*
X3192249Y2721339D01*
X3189367Y2750603D01*
X3166969Y2804675D01*
X3125585Y2846059D01*
X3071513Y2868457D01*
X3012985Y2868457D01*
X2958913Y2846059D01*
X2917529Y2804675D01*
X2895131Y2750603D01*
X2892249Y2721339D01*
X2549392Y2721339D01*
X2549392Y2935625D01*
X2546510Y2964889D01*
X2544447Y2969868D01*
X2544066Y2975243D01*
X2533556Y3002706D01*
X2462128Y3145564D01*
X2454199Y3158159D01*
X2452684Y3161818D01*
X2449302Y3165939D01*
X2446463Y3170449D01*
X2443471Y3173044D01*
X2438442Y3179172D01*
X2823703Y3179172D01*
X2823703Y3120646D01*
X2829047Y3107746D01*
X2846100Y3066575D01*
X2864755Y3043844D01*
X2936183Y2972416D01*
X2958913Y2953761D01*
X2981310Y2944485D01*
X3012985Y2931364D01*
X3071513Y2931364D01*
X3109747Y2947202D01*
X3125584Y2953761D01*
X3125588Y2953766D01*
X3148314Y2972415D01*
X3219743Y3043843D01*
X3238398Y3066574D01*
X3238399Y3066575D01*
X3260796Y3120647D01*
X3260796Y3179173D01*
X3243331Y3221339D01*
X6106535Y3221339D01*
X6106535Y1935625D01*
X6109417Y1906361D01*
X6111478Y1901384D01*
X6111861Y1896006D01*
X6122371Y1868543D01*
X6193800Y1725685D01*
X6196880Y1720791D01*
X6197650Y1718483D01*
X6200142Y1715610D01*
X6209465Y1700799D01*
X6223676Y1688475D01*
X6235997Y1674268D01*
X6250804Y1664947D01*
X6253680Y1662453D01*
X6255988Y1661684D01*
X6260882Y1658603D01*
X6403740Y1587175D01*
X6431203Y1576665D01*
X6489583Y1572517D01*
X6545106Y1591025D01*
X6589321Y1629372D01*
X6615495Y1681721D01*
X6619643Y1740101D01*
X6601135Y1795623D01*
X6562789Y1839838D01*
X6537903Y1855503D01*
X6439767Y1904571D01*
X6406535Y1971035D01*
X6406535Y3221339D01*
X8035106Y3221339D01*
X8035106Y1721339D01*
X8037988Y1692075D01*
X8060386Y1638003D01*
X8101770Y1596619D01*
X8155842Y1574221D01*
X8214370Y1574221D01*
X8268442Y1596619D01*
X8309826Y1638003D01*
X8332224Y1692075D01*
X8335106Y1721339D01*
X8335106Y2285625D01*
X8756535Y2285625D01*
X8785799Y2288507D01*
X8790777Y2290570D01*
X8796153Y2290951D01*
X8823617Y2301461D01*
X8966474Y2372889D01*
X8979067Y2380817D01*
X8982727Y2382332D01*
X8986846Y2385714D01*
X8991360Y2388554D01*
X8993956Y2391548D01*
X9005458Y2400987D01*
X9076887Y2472416D01*
X9086328Y2483921D01*
X9089320Y2486515D01*
X9092158Y2491025D01*
X9095542Y2495147D01*
X9097058Y2498809D01*
X9104985Y2511400D01*
X9176413Y2654258D01*
X9186923Y2681721D01*
X9187304Y2687097D01*
X9189367Y2692075D01*
X9192249Y2721339D01*
X9192249Y2935625D01*
X9189367Y2964889D01*
X9187304Y2969868D01*
X9186923Y2975243D01*
X9176413Y3002706D01*
X9104985Y3145564D01*
X9097056Y3158159D01*
X9095541Y3161818D01*
X9092159Y3165939D01*
X9089320Y3170449D01*
X9086328Y3173044D01*
X9076886Y3184549D01*
X9040095Y3221339D01*
X9535106Y3221339D01*
X9535106Y1935625D01*
X9537988Y1906361D01*
X9540049Y1901384D01*
X9540432Y1896006D01*
X9550942Y1868543D01*
X9622371Y1725685D01*
X9625451Y1720791D01*
X9626221Y1718483D01*
X9628713Y1715610D01*
X9638036Y1700799D01*
X9652247Y1688475D01*
X9664568Y1674268D01*
X9679375Y1664947D01*
X9682251Y1662453D01*
X9684559Y1661684D01*
X9689453Y1658603D01*
X9832311Y1587175D01*
X9859774Y1576665D01*
X9918154Y1572517D01*
X9973677Y1591025D01*
X10017892Y1629372D01*
X10044066Y1681721D01*
X10048214Y1740101D01*
X10029706Y1795623D01*
X9991360Y1839838D01*
X9966474Y1855503D01*
X9868338Y1904571D01*
X9835106Y1971035D01*
X9835106Y2078482D01*
X10249392Y2078482D01*
X10249392Y1935625D01*
X10252274Y1906361D01*
X10254336Y1901383D01*
X10254718Y1896007D01*
X10265228Y1868544D01*
X10336656Y1725685D01*
X10339735Y1720793D01*
X10340506Y1718482D01*
X10343001Y1715605D01*
X10352321Y1700800D01*
X10366527Y1688479D01*
X10378853Y1674267D01*
X10393657Y1664949D01*
X10396535Y1662453D01*
X10398846Y1661683D01*
X10403739Y1658603D01*
X10546597Y1587174D01*
X10574060Y1576665D01*
X10579435Y1576284D01*
X10584414Y1574221D01*
X10613678Y1571339D01*
X10970820Y1571339D01*
X11000084Y1574221D01*
X11005062Y1576284D01*
X11010438Y1576665D01*
X11037901Y1587175D01*
X11044806Y1590628D01*
X11084414Y1574221D01*
X11142942Y1574221D01*
X11197014Y1596619D01*
X11238398Y1638003D01*
X11260796Y1692075D01*
X11263678Y1721339D01*
X11263678Y2507053D01*
X11260796Y2536317D01*
X11258732Y2541298D01*
X11258351Y2546672D01*
X11247842Y2574136D01*
X11176413Y2716992D01*
X11173332Y2721887D01*
X11172563Y2724194D01*
X11170070Y2727069D01*
X11160748Y2741878D01*
X11150688Y2750603D01*
X11466560Y2750603D01*
X11466560Y2692075D01*
X11488958Y2638003D01*
X11530342Y2596619D01*
X11584414Y2574221D01*
X11613678Y2571339D01*
X11677963Y2571339D01*
X11677963Y1935625D01*
X11680845Y1906361D01*
X11682906Y1901384D01*
X11683289Y1896006D01*
X11693799Y1868543D01*
X11765228Y1725685D01*
X11768308Y1720791D01*
X11769078Y1718483D01*
X11771570Y1715610D01*
X11780893Y1700799D01*
X11795104Y1688475D01*
X11807425Y1674268D01*
X11822232Y1664947D01*
X11825108Y1662453D01*
X11827416Y1661684D01*
X11832310Y1658603D01*
X11975168Y1587175D01*
X12002631Y1576665D01*
X12008006Y1576284D01*
X12012985Y1574221D01*
X12042249Y1571339D01*
X12185106Y1571339D01*
X12214370Y1574221D01*
X12268442Y1596619D01*
X12309826Y1638003D01*
X12332224Y1692075D01*
X12332224Y1750603D01*
X12309826Y1804675D01*
X12268442Y1846059D01*
X12214370Y1868457D01*
X12185106Y1871339D01*
X12077659Y1871339D01*
X12011195Y1904571D01*
X11977963Y1971035D01*
X11977963Y2571339D01*
X12185106Y2571339D01*
X12214370Y2574221D01*
X12268442Y2596619D01*
X12309826Y2638003D01*
X12327963Y2681790D01*
X12346101Y2638003D01*
X12387485Y2596619D01*
X12441557Y2574221D01*
X12470821Y2571339D01*
X12535106Y2571339D01*
X12535106Y1935625D01*
X12537988Y1906361D01*
X12540049Y1901384D01*
X12540432Y1896006D01*
X12550942Y1868543D01*
X12622371Y1725685D01*
X12625451Y1720791D01*
X12626221Y1718483D01*
X12628713Y1715610D01*
X12638036Y1700799D01*
X12652247Y1688475D01*
X12664568Y1674268D01*
X12679375Y1664947D01*
X12682251Y1662453D01*
X12684559Y1661684D01*
X12689453Y1658603D01*
X12832311Y1587175D01*
X12859774Y1576665D01*
X12865149Y1576284D01*
X12870128Y1574221D01*
X12899392Y1571339D01*
X13042249Y1571339D01*
X13071513Y1574221D01*
X13125585Y1596619D01*
X13166969Y1638003D01*
X13189367Y1692075D01*
X13189367Y1750603D01*
X13166969Y1804675D01*
X13125585Y1846059D01*
X13071513Y1868457D01*
X13042249Y1871339D01*
X12934802Y1871339D01*
X12868338Y1904571D01*
X12835106Y1971035D01*
X12835106Y2507053D01*
X13320821Y2507053D01*
X13320821Y1935625D01*
X13323703Y1906361D01*
X13325765Y1901383D01*
X13326147Y1896007D01*
X13336657Y1868544D01*
X13408085Y1725685D01*
X13411164Y1720793D01*
X13411935Y1718482D01*
X13414430Y1715605D01*
X13423750Y1700800D01*
X13437956Y1688479D01*
X13450282Y1674267D01*
X13465086Y1664949D01*
X13467964Y1662453D01*
X13470275Y1661683D01*
X13475168Y1658603D01*
X13618026Y1587174D01*
X13645489Y1576665D01*
X13650864Y1576284D01*
X13655843Y1574221D01*
X13685107Y1571339D01*
X13970821Y1571339D01*
X14000085Y1574221D01*
X14005063Y1576284D01*
X14010439Y1576665D01*
X14037903Y1587175D01*
X14180760Y1658603D01*
X14205646Y1674268D01*
X14243992Y1718483D01*
X14262500Y1774005D01*
X14258352Y1832385D01*
X14232178Y1884734D01*
X14187963Y1923081D01*
X14132440Y1941589D01*
X14074060Y1937441D01*
X14046597Y1926931D01*
X13935411Y1871339D01*
X13720516Y1871339D01*
X13654053Y1904570D01*
X13620821Y1971034D01*
X13620821Y2098369D01*
X14214370Y2217078D01*
X14214371Y2217078D01*
X14214371Y2217079D01*
X14214525Y2217109D01*
X14242655Y2225674D01*
X14254866Y2233853D01*
X14268443Y2239476D01*
X14278944Y2249978D01*
X14291285Y2258242D01*
X14299437Y2270470D01*
X14309827Y2280860D01*
X14315509Y2294580D01*
X14323749Y2306938D01*
X14326601Y2321356D01*
X14332225Y2334932D01*
X14335107Y2364196D01*
X14335107Y2364348D01*
X14335108Y2364353D01*
X14335107Y2364358D01*
X14335107Y2507053D01*
X14332225Y2536317D01*
X14330161Y2541298D01*
X14329780Y2546672D01*
X14319271Y2574136D01*
X14247842Y2716992D01*
X14245106Y2721339D01*
X14677963Y2721339D01*
X14677963Y1721339D01*
X14680845Y1692075D01*
X14703243Y1638003D01*
X14744627Y1596619D01*
X14798699Y1574221D01*
X14857227Y1574221D01*
X14911299Y1596619D01*
X14922426Y1607746D01*
X15252274Y1607746D01*
X15252274Y1549218D01*
X15274672Y1495146D01*
X15316056Y1453762D01*
X15370128Y1431364D01*
X15399392Y1428482D01*
X16542249Y1428482D01*
X16571513Y1431364D01*
X16625585Y1453762D01*
X16666969Y1495146D01*
X16689367Y1549218D01*
X16689367Y1607746D01*
X16666969Y1661818D01*
X16625585Y1703202D01*
X16571513Y1725600D01*
X16542249Y1728482D01*
X15399392Y1728482D01*
X15370128Y1725600D01*
X15316056Y1703202D01*
X15274672Y1661818D01*
X15252274Y1607746D01*
X14922426Y1607746D01*
X14952683Y1638003D01*
X14975081Y1692075D01*
X14977963Y1721339D01*
X14977963Y2400215D01*
X15022670Y2489629D01*
X15059674Y2526632D01*
X15149088Y2571339D01*
X15256535Y2571339D01*
X15285799Y2574221D01*
X15339871Y2596619D01*
X15381255Y2638003D01*
X15403653Y2692075D01*
X15403653Y2750603D01*
X15381255Y2804675D01*
X15339871Y2846059D01*
X15285799Y2868457D01*
X15256535Y2871339D01*
X15113678Y2871339D01*
X15084414Y2868457D01*
X15079433Y2866394D01*
X15074059Y2866012D01*
X15046595Y2855503D01*
X14950102Y2807256D01*
X14911299Y2846059D01*
X14857227Y2868457D01*
X14798699Y2868457D01*
X14744627Y2846059D01*
X14703243Y2804675D01*
X14680845Y2750603D01*
X14677963Y2721339D01*
X14245106Y2721339D01*
X14244761Y2721887D01*
X14243992Y2724194D01*
X14241499Y2727069D01*
X14232177Y2741878D01*
X14217967Y2754202D01*
X14205646Y2768409D01*
X14190840Y2777729D01*
X14187962Y2780225D01*
X14185650Y2780996D01*
X14180760Y2784074D01*
X14037903Y2855503D01*
X14010440Y2866012D01*
X14005065Y2866394D01*
X14000085Y2868457D01*
X13970821Y2871339D01*
X13685107Y2871339D01*
X13655843Y2868457D01*
X13650865Y2866396D01*
X13645488Y2866013D01*
X13618025Y2855503D01*
X13475167Y2784074D01*
X13470272Y2780994D01*
X13467965Y2780224D01*
X13465090Y2777732D01*
X13450281Y2768409D01*
X13437958Y2754201D01*
X13423750Y2741878D01*
X13414427Y2727069D01*
X13411935Y2724194D01*
X13411165Y2721887D01*
X13408085Y2716992D01*
X13336657Y2574135D01*
X13326147Y2546671D01*
X13325765Y2541296D01*
X13323703Y2536317D01*
X13320821Y2507053D01*
X12835106Y2507053D01*
X12835106Y2571339D01*
X13042249Y2571339D01*
X13071513Y2574221D01*
X13125585Y2596619D01*
X13166969Y2638003D01*
X13189367Y2692075D01*
X13189367Y2750603D01*
X13166969Y2804675D01*
X13125585Y2846059D01*
X13071513Y2868457D01*
X13042249Y2871339D01*
X12835106Y2871339D01*
X12835106Y3202578D01*
X16536284Y3202578D01*
X16542804Y3173905D01*
X17042804Y1673905D01*
X17054792Y1647054D01*
X17061814Y1638957D01*
X17066607Y1629372D01*
X17080813Y1617051D01*
X17093139Y1602839D01*
X17102726Y1598046D01*
X17110821Y1591025D01*
X17128663Y1585078D01*
X17145487Y1576666D01*
X17156177Y1575907D01*
X17166345Y1572517D01*
X17185101Y1573850D01*
X17203867Y1572516D01*
X17214037Y1575907D01*
X17224726Y1576666D01*
X17241547Y1585077D01*
X17259391Y1591025D01*
X17267487Y1598048D01*
X17277073Y1602840D01*
X17289396Y1617049D01*
X17303605Y1629372D01*
X17308397Y1638958D01*
X17315420Y1647054D01*
X17327408Y1673905D01*
X17352974Y1750603D01*
X17895130Y1750603D01*
X17895130Y1692075D01*
X17904407Y1669678D01*
X17917527Y1638004D01*
X17958913Y1596618D01*
X17990587Y1583499D01*
X18012984Y1574221D01*
X18042248Y1571339D01*
X18970820Y1571339D01*
X19000084Y1574221D01*
X19054156Y1596619D01*
X19095540Y1638003D01*
X19117938Y1692075D01*
X19117938Y1750603D01*
X19095540Y1804675D01*
X19054156Y1846059D01*
X19000084Y1868457D01*
X18970820Y1871339D01*
X18404380Y1871339D01*
X19005457Y2472416D01*
X19024112Y2495146D01*
X19026175Y2500128D01*
X19029705Y2504197D01*
X19041693Y2531047D01*
X19113122Y2745332D01*
X19116421Y2759842D01*
X19117938Y2763503D01*
X19118460Y2768812D01*
X19119642Y2774006D01*
X19119361Y2777956D01*
X19120820Y2792767D01*
X19120820Y2935625D01*
X19117938Y2964889D01*
X19115874Y2969870D01*
X19115493Y2975244D01*
X19104984Y3002708D01*
X19033555Y3145564D01*
X19025628Y3158156D01*
X19024112Y3161818D01*
X19020728Y3165941D01*
X19017890Y3170450D01*
X19014897Y3173046D01*
X19005457Y3184548D01*
X18934029Y3255976D01*
X18922527Y3265416D01*
X18919931Y3268409D01*
X18915417Y3271250D01*
X18911298Y3274631D01*
X18907638Y3276147D01*
X18895045Y3284074D01*
X18752187Y3355503D01*
X18724724Y3366013D01*
X18719346Y3366396D01*
X18714369Y3368457D01*
X18685105Y3371339D01*
X18327963Y3371339D01*
X18298699Y3368457D01*
X18293721Y3366396D01*
X18288344Y3366013D01*
X18260881Y3355503D01*
X18118023Y3284074D01*
X18105431Y3276148D01*
X18101769Y3274631D01*
X18097646Y3271248D01*
X18093137Y3268409D01*
X18090541Y3265417D01*
X18079039Y3255976D01*
X18007611Y3184548D01*
X17988956Y3161817D01*
X17966559Y3107745D01*
X17966559Y3049219D01*
X17988956Y2995147D01*
X18030342Y2953761D01*
X18084414Y2931364D01*
X18142940Y2931364D01*
X18197012Y2953761D01*
X18219743Y2972416D01*
X18273959Y3026632D01*
X18363373Y3071339D01*
X18649695Y3071339D01*
X18739109Y3026632D01*
X18776113Y2989628D01*
X18820820Y2900215D01*
X18820820Y2817108D01*
X18768286Y2659510D01*
X17936182Y1827405D01*
X17917527Y1804674D01*
X17910831Y1788507D01*
X17895130Y1750603D01*
X17352974Y1750603D01*
X17827409Y3173905D01*
X17833929Y3202579D01*
X17829779Y3260959D01*
X17803605Y3313306D01*
X17759391Y3351653D01*
X17703867Y3370162D01*
X17645487Y3366012D01*
X17593139Y3339839D01*
X17554792Y3295624D01*
X17542804Y3268773D01*
X17185106Y2195681D01*
X16827408Y3268773D01*
X16815420Y3295624D01*
X16777073Y3339838D01*
X16724726Y3366012D01*
X16666345Y3370161D01*
X16610821Y3351653D01*
X16566607Y3313306D01*
X16540433Y3260959D01*
X16536284Y3202578D01*
X12835106Y3202578D01*
X12835106Y3221339D01*
X12832224Y3250603D01*
X12809826Y3304675D01*
X12768442Y3346059D01*
X12714370Y3368457D01*
X12655842Y3368457D01*
X12601770Y3346059D01*
X12560386Y3304675D01*
X12537988Y3250603D01*
X12535106Y3221339D01*
X12535106Y2871339D01*
X12470821Y2871339D01*
X12441557Y2868457D01*
X12387485Y2846059D01*
X12346101Y2804675D01*
X12327963Y2760889D01*
X12309826Y2804675D01*
X12268442Y2846059D01*
X12214370Y2868457D01*
X12185106Y2871339D01*
X11977963Y2871339D01*
X11977963Y3221339D01*
X11975081Y3250603D01*
X11952683Y3304675D01*
X11911299Y3346059D01*
X11857227Y3368457D01*
X11798699Y3368457D01*
X11744627Y3346059D01*
X11703243Y3304675D01*
X11680845Y3250603D01*
X11677963Y3221339D01*
X11677963Y2871339D01*
X11613678Y2871339D01*
X11584414Y2868457D01*
X11530342Y2846059D01*
X11488958Y2804675D01*
X11466560Y2750603D01*
X11150688Y2750603D01*
X11146538Y2754202D01*
X11134217Y2768409D01*
X11119411Y2777729D01*
X11116533Y2780225D01*
X11114221Y2780996D01*
X11109331Y2784074D01*
X10966474Y2855503D01*
X10939011Y2866012D01*
X10933636Y2866394D01*
X10928656Y2868457D01*
X10899392Y2871339D01*
X10613678Y2871339D01*
X10584414Y2868457D01*
X10579436Y2866396D01*
X10574059Y2866013D01*
X10546596Y2855503D01*
X10403738Y2784074D01*
X10378852Y2768409D01*
X10340506Y2724194D01*
X10321998Y2668672D01*
X10326146Y2610291D01*
X10352321Y2557942D01*
X10396536Y2519596D01*
X10452058Y2501088D01*
X10510439Y2505236D01*
X10537902Y2515746D01*
X10649088Y2571339D01*
X10863982Y2571339D01*
X10930446Y2538107D01*
X10963678Y2471643D01*
X10963678Y2456901D01*
X10935410Y2442767D01*
X10613678Y2442767D01*
X10584414Y2439885D01*
X10579435Y2437823D01*
X10574060Y2437441D01*
X10546597Y2426932D01*
X10403739Y2355503D01*
X10398845Y2352423D01*
X10396536Y2351653D01*
X10393660Y2349160D01*
X10378853Y2339839D01*
X10366528Y2325629D01*
X10352321Y2313307D01*
X10343000Y2298501D01*
X10340506Y2295624D01*
X10339735Y2293314D01*
X10336656Y2288421D01*
X10265228Y2145564D01*
X10254718Y2118100D01*
X10254336Y2112725D01*
X10252274Y2107746D01*
X10249392Y2078482D01*
X9835106Y2078482D01*
X9835106Y3221339D01*
X9832224Y3250603D01*
X9809826Y3304675D01*
X9768442Y3346059D01*
X9714370Y3368457D01*
X9655842Y3368457D01*
X9601770Y3346059D01*
X9560386Y3304675D01*
X9537988Y3250603D01*
X9535106Y3221339D01*
X9040095Y3221339D01*
X9005457Y3255977D01*
X8993957Y3265415D01*
X8991360Y3268409D01*
X8986843Y3271252D01*
X8982726Y3274631D01*
X8979069Y3276146D01*
X8966474Y3284074D01*
X8823617Y3355503D01*
X8796154Y3366012D01*
X8790779Y3366394D01*
X8785799Y3368457D01*
X8756535Y3371339D01*
X8185106Y3371339D01*
X8155842Y3368457D01*
X8101770Y3346059D01*
X8060386Y3304675D01*
X8037988Y3250603D01*
X8035106Y3221339D01*
X6406535Y3221339D01*
X6403653Y3250603D01*
X6381255Y3304675D01*
X6339871Y3346059D01*
X6285799Y3368457D01*
X6227271Y3368457D01*
X6173199Y3346059D01*
X6131815Y3304675D01*
X6109417Y3250603D01*
X6106535Y3221339D01*
X3243331Y3221339D01*
X3238399Y3233245D01*
X3219744Y3255976D01*
X3148315Y3327405D01*
X3125584Y3346060D01*
X3093910Y3359180D01*
X3071513Y3368457D01*
X3012985Y3368457D01*
X2990588Y3359180D01*
X2958914Y3346060D01*
X2958913Y3346059D01*
X2936182Y3327404D01*
X2864754Y3255975D01*
X2846104Y3233250D01*
X2846100Y3233245D01*
X2825930Y3184548D01*
X2823703Y3179172D01*
X2438442Y3179172D01*
X2434029Y3184549D01*
X2362600Y3255977D01*
X2351100Y3265415D01*
X2348503Y3268409D01*
X2343986Y3271252D01*
X2339869Y3274631D01*
X2336212Y3276146D01*
X2323617Y3284074D01*
X2180760Y3355503D01*
X2153297Y3366012D01*
X2147922Y3366394D01*
X2142942Y3368457D01*
X2113678Y3371339D01*
X1542249Y3371339D01*
X1512985Y3368457D01*
X1458913Y3346059D01*
X1417529Y3304675D01*
X1395131Y3250603D01*
X1392249Y3221339D01*
X1225582Y3221339D01*
X1225582Y3538006D01*
X19287487Y3538006D01*
X19287487Y1261815D01*
G37*
D11*
%TO.P,J5,1,Pin_1_1*%
%TO.N,+12V*%
X28407739Y24522167D03*
D12*
%TO.P,J5,2,Pin_2_2*%
%TO.N,strobe*%
X30947739Y24522167D03*
%TO.P,J5,3,Pin_3_3*%
%TO.N,GND*%
X33487739Y24522167D03*
%TD*%
D13*
%TO.P,U3,1,1A_1*%
%TO.N,Net-(U3-1A)*%
X17562739Y49272167D03*
%TO.P,U3,2,3Y_2*%
%TO.N,unconnected-(U3-3Y-Pad2)*%
X17562739Y49772167D03*
%TO.P,U3,3,2A_3*%
%TO.N,unconnected-(U3-2A-Pad3)*%
X17562739Y50272167D03*
%TO.P,U3,4,GND_4*%
%TO.N,GND*%
X17562739Y50772167D03*
%TO.P,U3,5,2Y_5*%
%TO.N,unconnected-(U3-2Y-Pad5)*%
X14412739Y50772167D03*
%TO.P,U3,6,3A_6*%
%TO.N,unconnected-(U3-3A-Pad6)*%
X14412739Y50272167D03*
%TO.P,U3,7,1Y_7*%
%TO.N,Net-(U3-1Y)*%
X14412739Y49772167D03*
%TO.P,U3,8,VCC_8*%
%TO.N,+5V*%
X14412739Y49272167D03*
%TD*%
D14*
%TO.P,R25,1*%
%TO.N,neopixels_5v*%
X9662739Y49022167D03*
%TO.P,R25,2*%
%TO.N,Net-(U3-1Y)*%
X11312739Y49022167D03*
%TD*%
%TO.P,R18,1*%
%TO.N,Net-(U3-1A)*%
X20837739Y49022167D03*
%TO.P,R18,2*%
%TO.N,neopixels_3v3*%
X22487739Y49022167D03*
%TD*%
D11*
%TO.P,J6,1,Pin_1_1*%
%TO.N,+5V*%
X53487739Y47022167D03*
D12*
%TO.P,J6,2,Pin_2_2*%
%TO.N,/Connectors/neopixelOutIn*%
X53487739Y49562167D03*
%TO.P,J6,3,Pin_3_3*%
%TO.N,unconnected-(J6-Pin_3-Pad3)*%
X53487739Y52102167D03*
%TO.P,J6,4,Pin_4_4*%
%TO.N,GND*%
X53487739Y54642167D03*
%TD*%
D11*
%TO.P,J5,1,Pin_1_1*%
%TO.N,+5V*%
X6487739Y47022167D03*
D12*
%TO.P,J5,2,Pin_2_2*%
%TO.N,neopixels_5v*%
X6487739Y49562167D03*
%TO.P,J5,3,Pin_3_3*%
%TO.N,/Connectors/neopixelOutIn*%
X6487739Y52102167D03*
%TO.P,J5,4,Pin_4_4*%
%TO.N,GND*%
X6487739Y54642167D03*
%TD*%
D15*
%TO.P,C21,1*%
%TO.N,+5V*%
X14429445Y47892770D03*
%TO.P,C21,2*%
%TO.N,GND*%
X15979445Y47892770D03*
%TD*%
D16*
%TO.P,C2,1*%
%TO.N,STM32_PH0*%
X33987739Y53347167D03*
%TO.P,C2,2*%
%TO.N,GND*%
X33987739Y54897167D03*
%TD*%
D17*
%TO.P,R39,1*%
%TO.N,Net-(D30-A)*%
X20487739Y27747167D03*
%TO.P,R39,2*%
%TO.N,testLED*%
X20487739Y29397167D03*
%TD*%
%TO.P,R40,1*%
%TO.N,+9V*%
X33987739Y13322167D03*
%TO.P,R40,2*%
%TO.N,Net-(VR3-ADJ)*%
X33987739Y14972167D03*
%TD*%
D16*
%TO.P,C4,1*%
%TO.N,+3V3*%
X26987739Y53397167D03*
%TO.P,C4,2*%
%TO.N,GND*%
X26987739Y54947167D03*
%TD*%
D18*
%TO.P,R42,1*%
%TO.N,Net-(VR1-ADJ)*%
X35987739Y12347167D03*
%TO.P,R42,2*%
%TO.N,GND*%
X35987739Y10697167D03*
%TD*%
D11*
%TO.P,U2,1,Pin_1_1*%
%TO.N,IR_input*%
X46527739Y54522167D03*
D12*
%TO.P,U2,2,Pin_2_2*%
%TO.N,GND*%
X43987739Y54522167D03*
%TO.P,U2,3,Pin_3_3*%
%TO.N,+3V3*%
X41447740Y54522167D03*
%TD*%
D19*
%TO.P,VR1,1,ADJ_1*%
%TO.N,Net-(VR1-ADJ)*%
X39687739Y11922167D03*
%TO.P,VR1,2,VOUT_1_2*%
%TO.N,+3V3*%
X41987739Y11922167D03*
%TO.P,VR1,3,VIN_3*%
%TO.N,+9V*%
X44287739Y11922167D03*
D20*
%TO.P,VR1,4,VOUT_2_4*%
%TO.N,+3V3*%
X41987739Y17122167D03*
%TD*%
D19*
%TO.P,VR2,1,ADJ_1*%
%TO.N,Net-(VR2-ADJ)*%
X18187739Y11922167D03*
%TO.P,VR2,2,VOUT_1_2*%
%TO.N,+5V*%
X20487739Y11922167D03*
%TO.P,VR2,3,VIN_3*%
%TO.N,+9V*%
X22787739Y11922167D03*
D20*
%TO.P,VR2,4,VOUT_2_4*%
%TO.N,+5V*%
X20487739Y17122167D03*
%TD*%
D19*
%TO.P,VR3,1,ADJ_1*%
%TO.N,Net-(VR3-ADJ)*%
X30287739Y17122167D03*
%TO.P,VR3,2,VOUT_1_2*%
%TO.N,+9V*%
X27987739Y17122167D03*
%TO.P,VR3,3,VIN_3*%
%TO.N,+12V*%
X25687739Y17122167D03*
D20*
%TO.P,VR3,4,VOUT_2_4*%
%TO.N,+9V*%
X27987739Y11922167D03*
%TD*%
D21*
%TO.P,Y1,1,1_1*%
%TO.N,STM32_PH1*%
X30787739Y55272167D03*
%TO.P,Y1,2,2_2*%
%TO.N,unconnected-(Y1-Pad2)*%
X30787739Y53522167D03*
%TO.P,Y1,3,3_3*%
%TO.N,STM32_PH0*%
X32187739Y53522167D03*
%TO.P,Y1,4,4_4*%
%TO.N,GND*%
X32187739Y55272167D03*
%TD*%
D17*
%TO.P,R41,1*%
%TO.N,Net-(VR3-ADJ)*%
X33987739Y16522167D03*
%TO.P,R41,2*%
%TO.N,GND*%
X33987739Y18172167D03*
%TD*%
D18*
%TO.P,R43,1*%
%TO.N,+3V3*%
X35987739Y15347167D03*
%TO.P,R43,2*%
%TO.N,Net-(VR1-ADJ)*%
X35987739Y13697167D03*
%TD*%
D22*
%TO.P,D32,1,K_1*%
%TO.N,GND*%
X22487739Y24084667D03*
%TO.P,D32,2,A_2*%
%TO.N,Net-(D32-A)*%
X22487739Y25959667D03*
%TD*%
D23*
%TO.P,U1,1,PB9_1*%
%TO.N,IR_input*%
X32287739Y48697167D03*
%TO.P,U1,2,PC14_2*%
%TO.N,STM32_PH0*%
X31487739Y48697167D03*
%TO.P,U1,3,PC15_3*%
%TO.N,STM32_PH1*%
X30687739Y48697167D03*
%TO.P,U1,4,VDD_4*%
%TO.N,+3V3*%
X29887739Y48697167D03*
%TO.P,U1,5,VSS_5*%
%TO.N,GND*%
X29087739Y48697167D03*
%TO.P,U1,6,PF2_6*%
%TO.N,unconnected-(U1-PF2-Pad6)*%
X28287739Y48697167D03*
%TO.P,U1,7,PA0_7*%
%TO.N,unconnected-(U1-PA0-Pad7)*%
X27487739Y48697167D03*
%TO.P,U1,8,PA1_8*%
%TO.N,unconnected-(U1-PA1-Pad8)*%
X26687739Y48697167D03*
D24*
%TO.P,U1,9,PA2_9*%
%TO.N,neopixels_3v3*%
X25312739Y47322167D03*
%TO.P,U1,10,PA3_10*%
%TO.N,unconnected-(U1-PA3-Pad10)*%
X25312739Y46522167D03*
%TO.P,U1,11,PA4_11*%
%TO.N,bladeLED1*%
X25312739Y45722167D03*
%TO.P,U1,12,PA5_12*%
%TO.N,bladeLED2*%
X25312739Y44922167D03*
%TO.P,U1,13,PA6_13*%
%TO.N,bladeLED3*%
X25312739Y44122167D03*
%TO.P,U1,14,PA7_14*%
%TO.N,bladeLED4*%
X25312739Y43322167D03*
%TO.P,U1,15,PB0_15*%
%TO.N,bladeLED5*%
X25312739Y42522167D03*
%TO.P,U1,16,PB1_16*%
%TO.N,bladeLED6*%
X25312739Y41722167D03*
D23*
%TO.P,U1,17,PB2_17*%
%TO.N,bladeLED7*%
X26687739Y40347167D03*
%TO.P,U1,18,PA8_18*%
%TO.N,unconnected-(U1-PA8-Pad18)*%
X27487739Y40347167D03*
%TO.P,U1,19,PA9_19*%
%TO.N,testLED2*%
X28287739Y40347167D03*
%TO.P,U1,20,PC6_20*%
%TO.N,unconnected-(U1-PC6-Pad20)*%
X29087739Y40347167D03*
%TO.P,U1,21,PA10_21*%
%TO.N,testLED*%
X29887739Y40347167D03*
%TO.P,U1,22,PA11_22*%
%TO.N,testLED3*%
X30687739Y40347167D03*
%TO.P,U1,23,PA12_23*%
%TO.N,strobe*%
X31487739Y40347167D03*
%TO.P,U1,24,PA13_24*%
%TO.N,SWDIO*%
X32287739Y40347167D03*
D24*
%TO.P,U1,25,PA14_25*%
%TO.N,SWCLK*%
X33662739Y41722167D03*
%TO.P,U1,26,PA15_26*%
%TO.N,bladeLED8*%
X33662739Y42522167D03*
%TO.P,U1,27,PB3_27*%
%TO.N,bladeLED9*%
X33662739Y43322167D03*
%TO.P,U1,28,PB4_28*%
%TO.N,bladeLED10*%
X33662739Y44122167D03*
%TO.P,U1,29,PB5_29*%
%TO.N,bladeLED11*%
X33662739Y44922167D03*
%TO.P,U1,30,PB6_30*%
%TO.N,bladeLED12*%
X33662739Y45722167D03*
%TO.P,U1,31,PB7_31*%
%TO.N,bladeLED13*%
X33662739Y46522167D03*
%TO.P,U1,32,PB8_32*%
%TO.N,bladeLED14*%
X33662739Y47322167D03*
%TD*%
D11*
%TO.P,J1,1,Pin_1_1*%
%TO.N,bladeLED1*%
X6487739Y39682167D03*
D12*
%TO.P,J1,2,Pin_2_2*%
%TO.N,bladeLED2*%
X6487739Y37142167D03*
%TO.P,J1,3,Pin_3_3*%
%TO.N,bladeLED3*%
X6487739Y34602167D03*
%TO.P,J1,4,Pin_4_4*%
%TO.N,bladeLED4*%
X6487739Y32062167D03*
%TO.P,J1,5,Pin_5_5*%
%TO.N,bladeLED5*%
X6487739Y29522167D03*
%TO.P,J1,6,Pin_6_6*%
%TO.N,bladeLED6*%
X6487739Y26982167D03*
%TO.P,J1,7,Pin_7_7*%
%TO.N,bladeLED7*%
X6487739Y24442167D03*
%TO.P,J1,8,Pin_8_8*%
%TO.N,GND*%
X6487739Y21902167D03*
%TD*%
D11*
%TO.P,J4,1,Pin_1_1*%
%TO.N,+12V*%
X27407739Y21522167D03*
D12*
%TO.P,J4,2,Pin_2_2*%
%TO.N,strobe*%
X29947739Y21522167D03*
%TO.P,J4,3,Pin_3_3*%
%TO.N,GND*%
X32487739Y21522167D03*
%TD*%
D16*
%TO.P,C3,1*%
%TO.N,GND*%
X28987739Y53347167D03*
%TO.P,C3,2*%
%TO.N,STM32_PH1*%
X28987739Y54897167D03*
%TD*%
%TO.P,C5,1*%
%TO.N,+3V3*%
X24987739Y53397167D03*
%TO.P,C5,2*%
%TO.N,GND*%
X24987739Y54947167D03*
%TD*%
D14*
%TO.P,R48,1*%
%TO.N,strobe*%
X31662739Y37022167D03*
%TO.P,R48,2*%
%TO.N,+3V3*%
X33312739Y37022167D03*
%TD*%
D22*
%TO.P,D31,1,K_1*%
%TO.N,GND*%
X18487739Y23809667D03*
%TO.P,D31,2,A_2*%
%TO.N,Net-(D31-A)*%
X18487739Y25684667D03*
%TD*%
D17*
%TO.P,R47,1*%
%TO.N,Net-(D32-A)*%
X22487739Y27697167D03*
%TO.P,R47,2*%
%TO.N,testLED3*%
X22487739Y29347167D03*
%TD*%
D18*
%TO.P,R44,1*%
%TO.N,Net-(VR2-ADJ)*%
X15487739Y12672167D03*
%TO.P,R44,2*%
%TO.N,GND*%
X15487739Y11022167D03*
%TD*%
D25*
%TO.P,D30,1,K_1*%
%TO.N,GND*%
X20487739Y23959667D03*
%TO.P,D30,2,A_2*%
%TO.N,Net-(D30-A)*%
X20487739Y25534667D03*
%TD*%
D18*
%TO.P,R45,1*%
%TO.N,+5V*%
X15487739Y15672167D03*
%TO.P,R45,2*%
%TO.N,Net-(VR2-ADJ)*%
X15487739Y14022167D03*
%TD*%
D26*
%TO.P,J3,1,1_1*%
%TO.N,+3V3*%
X56257739Y16122167D03*
%TO.P,J3,2,2_2*%
%TO.N,SWDIO*%
X56257739Y12622167D03*
%TO.P,J3,3,3_3*%
%TO.N,SWCLK*%
X53717739Y16122167D03*
%TO.P,J3,4,4_4*%
%TO.N,GND*%
X53717739Y12622167D03*
%TD*%
D11*
%TO.P,J2,1,Pin_1_1*%
%TO.N,bladeLED14*%
X53487739Y39682167D03*
D12*
%TO.P,J2,2,Pin_2_2*%
%TO.N,bladeLED13*%
X53487739Y37142167D03*
%TO.P,J2,3,Pin_3_3*%
%TO.N,bladeLED12*%
X53487739Y34602167D03*
%TO.P,J2,4,Pin_4_4*%
%TO.N,bladeLED11*%
X53487739Y32062167D03*
%TO.P,J2,5,Pin_5_5*%
%TO.N,bladeLED10*%
X53487739Y29522167D03*
%TO.P,J2,6,Pin_6_6*%
%TO.N,bladeLED9*%
X53487739Y26982167D03*
%TO.P,J2,7,Pin_7_7*%
%TO.N,bladeLED8*%
X53487739Y24442167D03*
%TO.P,J2,8,Pin_8_8*%
%TO.N,GND*%
X53487739Y21902167D03*
%TD*%
D17*
%TO.P,R46,1*%
%TO.N,Net-(D31-A)*%
X18487739Y27647167D03*
%TO.P,R46,2*%
%TO.N,testLED2*%
X18487739Y29297167D03*
%TD*%
D27*
%TO.N,GND*%
X36987739Y4522167D03*
X48987739Y48022167D03*
X56487739Y20022167D03*
X49987739Y44522167D03*
X16987739Y54022167D03*
X22987739Y7022167D03*
X45487739Y4522167D03*
X28487739Y5522167D03*
X40487739Y51522167D03*
X10987739Y11022167D03*
X14867739Y21902167D03*
%TO.N,+3V3*%
X27237739Y52272167D03*
X36987739Y24022167D03*
%TO.N,GND*%
X51987739Y56022167D03*
X45987739Y48022167D03*
X20987739Y54022167D03*
X8987739Y55522167D03*
X32487739Y19022167D03*
X33487739Y11022167D03*
X50987739Y13522167D03*
%TO.N,+3V3*%
X37987739Y54522167D03*
D28*
%TO.N,*%
X29987739Y30022167D03*
%TD*%
%TO.N,/Connectors/neopixelOutIn*%
D29*
X47237739Y57272167D02*
X50487739Y54022167D01*
X15237739Y57272167D02*
X47237739Y57272167D01*
X50487739Y54022167D02*
X50487739Y51022167D01*
X10067739Y52102167D02*
X15237739Y57272167D01*
X6487739Y52102167D02*
X10067739Y52102167D01*
X50487739Y51022167D02*
X51947739Y49562167D01*
X51947739Y49562167D02*
X53487739Y49562167D01*
%TO.N,+5V*%
D30*
X55009906Y59000000D02*
X5465572Y59000000D01*
X56487739Y57522167D02*
X55009906Y59000000D01*
X1987739Y55522167D02*
X1987739Y50022167D01*
X55987739Y47022167D02*
X56487739Y47522167D01*
X56487739Y47522167D02*
X56487739Y57522167D01*
X5465572Y59000000D02*
X1987739Y55522167D01*
X53487739Y47022167D02*
X55987739Y47022167D01*
X1987739Y21022167D02*
X1987739Y50022167D01*
X7337739Y15672167D02*
X1987739Y21022167D01*
X15487739Y15672167D02*
X7337739Y15672167D01*
X1987739Y50022167D02*
X3487739Y48522167D01*
%TO.N,SWDIO*%
X47487739Y11522167D02*
X49487739Y9522167D01*
X39987739Y32522167D02*
X39987739Y25522167D01*
X39987739Y25522167D02*
X47487739Y18022167D01*
X56257739Y10792167D02*
X56257739Y12622167D01*
X33987739Y38522167D02*
X39987739Y32522167D01*
X47487739Y18022167D02*
X47487739Y11522167D01*
X49487739Y9522167D02*
X54987739Y9522167D01*
X54987739Y9522167D02*
X56257739Y10792167D01*
%TO.N,GND*%
X56487739Y22522167D02*
X55867739Y21902167D01*
X55867739Y21902167D02*
X53487739Y21902167D01*
X51487739Y44522167D02*
X52987739Y43022167D01*
X49987739Y44522167D02*
X51487739Y44522167D01*
X49987739Y46022167D02*
X48987739Y47022167D01*
X54487739Y43022167D02*
X56487739Y41022167D01*
X49987739Y44522167D02*
X49987739Y46022167D01*
X52987739Y43022167D02*
X54487739Y43022167D01*
X48987739Y47022167D02*
X48987739Y48022167D01*
X56487739Y41022167D02*
X56487739Y22522167D01*
X48987739Y48022167D02*
X45987739Y48022167D01*
%TO.N,Net-(U3-1Y)*%
D31*
X13374496Y49772167D02*
X13372327Y49769998D01*
X14412739Y49772167D02*
X13374496Y49772167D01*
D32*
X13370158Y49772167D02*
X13372327Y49769998D01*
X12062739Y49772167D02*
X13370158Y49772167D01*
%TO.N,unconnected-(U3-2Y-Pad5)*%
X14237739Y50947167D02*
X13484344Y51700562D01*
X13484344Y51700562D02*
X13309344Y51700562D01*
%TO.N,GND*%
D30*
X40487739Y51522167D02*
X41987739Y51522167D01*
%TO.N,IR_input*%
D32*
X32462739Y48522167D02*
X32287739Y48697167D01*
X33987739Y49022167D02*
X33487739Y48522167D01*
X33487739Y48522167D02*
X32462739Y48522167D01*
D30*
X33987739Y49022167D02*
X43487739Y49022167D01*
X43487739Y49022167D02*
X46527739Y52062167D01*
X46527739Y52062167D02*
X46527739Y54522167D01*
%TO.N,GND*%
X37487739Y51522167D02*
X40487739Y51522167D01*
X35487739Y53522167D02*
X37487739Y51522167D01*
X43987739Y53522167D02*
X43987739Y54522167D01*
X35487739Y54022167D02*
X35487739Y53522167D01*
X34612739Y54897167D02*
X35487739Y54022167D01*
X33987739Y54897167D02*
X34612739Y54897167D01*
X41987739Y51522167D02*
X43987739Y53522167D01*
%TO.N,bladeLED12*%
X51487739Y35022167D02*
X51987739Y34522167D01*
X51987739Y34522167D02*
X53407739Y34522167D01*
%TO.N,strobe*%
D29*
X35487739Y32522167D02*
X35487739Y28522167D01*
X31662739Y36347167D02*
X35487739Y32522167D01*
X33487739Y26522167D02*
X32947739Y26522167D01*
X31662739Y37022167D02*
X31662739Y36347167D01*
X35487739Y28522167D02*
X33487739Y26522167D01*
X32947739Y26522167D02*
X30947739Y24522167D01*
%TO.N,GND*%
D30*
X32487739Y23522167D02*
X32487739Y21522167D01*
X33487739Y24522167D02*
X32487739Y23522167D01*
%TO.N,strobe*%
X29947739Y23522167D02*
X30947739Y24522167D01*
X29947739Y21522167D02*
X29947739Y23522167D01*
%TO.N,+12V*%
X25687739Y19802167D02*
X27407739Y21522167D01*
X25687739Y17122167D02*
X25687739Y19802167D01*
X27407739Y23522167D02*
X28407739Y24522167D01*
X27407739Y21522167D02*
X27407739Y23522167D01*
%TO.N,GND*%
X32487739Y19022167D02*
X32487739Y21522167D01*
X33337739Y18172167D02*
X33987739Y18172167D01*
X32487739Y19022167D02*
X33337739Y18172167D01*
X15487739Y11022167D02*
X10987739Y11022167D01*
%TO.N,+3V3*%
X27237739Y52272167D02*
X27487739Y52022167D01*
%TO.N,GND*%
X20987739Y52272167D02*
X19487739Y50772167D01*
X20987739Y54022167D02*
X20987739Y52272167D01*
D32*
X19487739Y50772167D02*
X24737739Y50772167D01*
%TO.N,+3V3*%
D30*
X37487739Y24522167D02*
X36987739Y24022167D01*
D32*
X33312739Y36697167D02*
X37487739Y32522167D01*
D30*
X37487739Y32522167D02*
X37487739Y24522167D01*
D32*
X33312739Y37022167D02*
X33312739Y36697167D01*
D30*
X36987739Y24022167D02*
X36987739Y19022167D01*
%TO.N,GND*%
X21912739Y54947167D02*
X20987739Y54022167D01*
X24987739Y54947167D02*
X21912739Y54947167D01*
X7367739Y55522167D02*
X8987739Y55522167D01*
X6487739Y54642167D02*
X7367739Y55522167D01*
%TO.N,+5V*%
X13558842Y47022167D02*
X14429445Y47892770D01*
X6487739Y47022167D02*
X13558842Y47022167D01*
%TO.N,GND*%
X16775239Y23809667D02*
X18487739Y23809667D01*
X14867739Y21902167D02*
X16775239Y23809667D01*
X6487739Y21902167D02*
X14867739Y21902167D01*
X33487739Y11022167D02*
X33812739Y10697167D01*
X35987739Y10697167D02*
X33812739Y10697167D01*
X51887739Y12622167D02*
X50987739Y13522167D01*
X53717739Y12622167D02*
X51887739Y12622167D01*
%TO.N,+3V3*%
X58487739Y13892167D02*
X56257739Y16122167D01*
X58487739Y9522167D02*
X58487739Y13892167D01*
X56487739Y7522167D02*
X58487739Y9522167D01*
X48592509Y7522167D02*
X56487739Y7522167D01*
X45907402Y10207274D02*
X48592509Y7522167D01*
X45907402Y15602504D02*
X45907402Y10207274D01*
X44387739Y17122167D02*
X45907402Y15602504D01*
X41987739Y17122167D02*
X44387739Y17122167D01*
%TO.N,bladeLED9*%
D29*
X46487739Y29522167D02*
X48987739Y27022167D01*
X46487739Y34022167D02*
X46487739Y29522167D01*
D32*
X37187739Y43322167D02*
X46487739Y34022167D01*
X33662739Y43322167D02*
X37187739Y43322167D01*
%TO.N,bladeLED10*%
D29*
X47987739Y34522167D02*
X47987739Y31022167D01*
X47987739Y31022167D02*
X49487739Y29522167D01*
D32*
X38387739Y44122167D02*
X47987739Y34522167D01*
X33662739Y44122167D02*
X38387739Y44122167D01*
%TO.N,bladeLED11*%
D29*
X49487739Y33022167D02*
X50487739Y32022167D01*
D32*
X50487739Y32022167D02*
X50527739Y32062167D01*
D29*
X49487739Y35022167D02*
X49487739Y33022167D01*
D32*
X39587739Y44922167D02*
X49487739Y35022167D01*
X33662739Y44922167D02*
X39587739Y44922167D01*
%TO.N,bladeLED12*%
X51487739Y35022167D02*
X40787739Y45722167D01*
X40787739Y45722167D02*
X33662739Y45722167D01*
%TO.N,bladeLED13*%
X51367739Y37142167D02*
X41987739Y46522167D01*
X51487739Y37142167D02*
X51367739Y37142167D01*
X41987739Y46522167D02*
X33662739Y46522167D01*
%TO.N,bladeLED14*%
X42937739Y47322167D02*
X33662739Y47322167D01*
D29*
X50577739Y39682167D02*
X42937739Y47322167D01*
X51487739Y39682167D02*
X50577739Y39682167D01*
D30*
X53487739Y39682167D02*
X51487739Y39682167D01*
%TO.N,bladeLED13*%
X53487739Y37142167D02*
X51487739Y37142167D01*
%TO.N,bladeLED12*%
D32*
X53407739Y34522167D02*
X53487739Y34602167D01*
%TO.N,bladeLED11*%
D30*
X50527739Y32062167D02*
X53487739Y32062167D01*
%TO.N,bladeLED10*%
X49487739Y29522167D02*
X53487739Y29522167D01*
%TO.N,bladeLED9*%
D32*
X51987739Y27022167D02*
X52027739Y26982167D01*
D30*
X48987739Y27022167D02*
X51987739Y27022167D01*
X52027739Y26982167D02*
X53487739Y26982167D01*
%TO.N,bladeLED8*%
D29*
X44487739Y28522167D02*
X48567739Y24442167D01*
X44487739Y34022167D02*
X44487739Y28522167D01*
D32*
X35987739Y42522167D02*
X44487739Y34022167D01*
D30*
X48567739Y24442167D02*
X53487739Y24442167D01*
D32*
X33662739Y42522167D02*
X35987739Y42522167D01*
%TO.N,SWCLK*%
D30*
X42487739Y33522167D02*
X42487739Y27522167D01*
X35487739Y40522167D02*
X42487739Y33522167D01*
D32*
X53717739Y16292167D02*
X53717739Y16122167D01*
X34787739Y41722167D02*
X35487739Y41022167D01*
D30*
X42487739Y27522167D02*
X53717739Y16292167D01*
D32*
X33662739Y41722167D02*
X34787739Y41722167D01*
D30*
X35487739Y41022167D02*
X35487739Y40522167D01*
%TO.N,SWDIO*%
D32*
X33987739Y38647167D02*
X33987739Y38522167D01*
X32287739Y40347167D02*
X33987739Y38647167D01*
%TO.N,+3V3*%
D30*
X35987739Y18022167D02*
X35987739Y15347167D01*
X36987739Y19022167D02*
X35987739Y18022167D01*
%TO.N,GND*%
X52107739Y56022167D02*
X51987739Y56022167D01*
X53487739Y54642167D02*
X52107739Y56022167D01*
%TO.N,+3V3*%
X41447740Y54522167D02*
X37987739Y54522167D01*
%TO.N,+5V*%
X4987739Y47022167D02*
X6487739Y47022167D01*
X3487739Y48522167D02*
X4987739Y47022167D01*
%TO.N,bladeLED7*%
D32*
X6567739Y24522167D02*
X6487739Y24442167D01*
D30*
X11487739Y24522167D02*
X6567739Y24522167D01*
D29*
X15987739Y29022167D02*
X11487739Y24522167D01*
X26312739Y40347167D02*
X15987739Y30022167D01*
X15987739Y30022167D02*
X15987739Y29022167D01*
D32*
X26687739Y40347167D02*
X26312739Y40347167D01*
%TO.N,bladeLED6*%
X6527739Y27022167D02*
X6487739Y26982167D01*
D29*
X13987739Y29522167D02*
X11487739Y27022167D01*
X13987739Y30397167D02*
X13987739Y29522167D01*
D32*
X25312739Y41722167D02*
X13987739Y30397167D01*
D30*
X11487739Y27022167D02*
X6527739Y27022167D01*
%TO.N,bladeLED1*%
X12647739Y39682167D02*
X6487739Y39682167D01*
D29*
X18687739Y45722167D02*
X12647739Y39682167D01*
D32*
X25312739Y45722167D02*
X18687739Y45722167D01*
%TO.N,bladeLED2*%
D30*
X6487739Y37142167D02*
X12607739Y37142167D01*
D32*
X20387739Y44922167D02*
X12607739Y37142167D01*
X25312739Y44922167D02*
X20387739Y44922167D01*
%TO.N,bladeLED3*%
X7907739Y34602167D02*
X6487739Y34602167D01*
X7987739Y34522167D02*
X7907739Y34602167D01*
D30*
X11987739Y34522167D02*
X7987739Y34522167D01*
D32*
X21587739Y44122167D02*
X11987739Y34522167D01*
X25312739Y44122167D02*
X21587739Y44122167D01*
%TO.N,bladeLED4*%
X6527739Y32022167D02*
X6487739Y32062167D01*
D30*
X11487739Y32022167D02*
X6527739Y32022167D01*
D32*
X22787739Y43322167D02*
X11487739Y32022167D01*
X25312739Y43322167D02*
X22787739Y43322167D01*
%TO.N,bladeLED5*%
X23987739Y42522167D02*
X10987739Y29522167D01*
X25312739Y42522167D02*
X23987739Y42522167D01*
D30*
X10987739Y29522167D02*
X6487739Y29522167D01*
%TO.N,testLED2*%
D29*
X18487739Y30522167D02*
X18487739Y29297167D01*
X26487739Y38522167D02*
X18487739Y30522167D01*
D32*
X28287739Y39580529D02*
X27229377Y38522167D01*
X28287739Y40347167D02*
X28287739Y39580529D01*
D29*
X27229377Y38522167D02*
X26487739Y38522167D01*
%TO.N,testLED*%
X20487739Y30522167D02*
X20487739Y29397167D01*
X27987739Y37522167D02*
X27487739Y37522167D01*
D32*
X29887739Y39422167D02*
X27987739Y37522167D01*
X29887739Y40347167D02*
X29887739Y39422167D01*
D29*
X27487739Y37522167D02*
X20487739Y30522167D01*
%TO.N,testLED3*%
D32*
X30687739Y38722167D02*
X22487739Y30522167D01*
X30687739Y40347167D02*
X30687739Y38722167D01*
D29*
X22487739Y30522167D02*
X22487739Y29347167D01*
%TO.N,strobe*%
D31*
X31487739Y37197167D02*
X31662739Y37022167D01*
D32*
X31487739Y40347167D02*
X31487739Y37197167D01*
%TO.N,STM32_PH0*%
D31*
X32187739Y52222167D02*
X32187739Y53522167D01*
X31487739Y51522167D02*
X32187739Y52222167D01*
X31487739Y48697167D02*
X31487739Y51522167D01*
%TO.N,STM32_PH1*%
X29937739Y53947167D02*
X28987739Y54897167D01*
X29937739Y52597167D02*
X29937739Y53947167D01*
X30687739Y48697167D02*
X30687739Y51847167D01*
X30687739Y51847167D02*
X29937739Y52597167D01*
%TO.N,neopixels_3v3*%
D32*
X22487739Y48522167D02*
X22487739Y49022167D01*
D30*
X23687739Y47322167D02*
X22487739Y48522167D01*
D32*
X25312739Y47322167D02*
X23687739Y47322167D01*
%TO.N,GND*%
X29087739Y49463805D02*
X29087739Y48697167D01*
X28029377Y50522167D02*
X29087739Y49463805D01*
X24737739Y50772167D02*
X24987739Y50522167D01*
X24987739Y50522167D02*
X28029377Y50522167D01*
X17562739Y50772167D02*
X19487739Y50772167D01*
%TO.N,+3V3*%
D30*
X26987739Y52522167D02*
X27237739Y52272167D01*
X26987739Y53397167D02*
X26987739Y52522167D01*
X27987739Y52022167D02*
X27487739Y52022167D01*
D32*
X29887739Y50122167D02*
X27987739Y52022167D01*
X29887739Y48697167D02*
X29887739Y50122167D01*
%TO.N,GND*%
X28587739Y53347167D02*
X26987739Y54947167D01*
X28987739Y53347167D02*
X28587739Y53347167D01*
D30*
X33612739Y55272167D02*
X33987739Y54897167D01*
X32187739Y55272167D02*
X33612739Y55272167D01*
%TO.N,STM32_PH0*%
X33812739Y53522167D02*
X33987739Y53347167D01*
X32187739Y53522167D02*
X33812739Y53522167D01*
%TO.N,STM32_PH1*%
X29362739Y55272167D02*
X28987739Y54897167D01*
X30787739Y55272167D02*
X29362739Y55272167D01*
%TO.N,GND*%
X24987739Y54947167D02*
X26987739Y54947167D01*
%TO.N,+3V3*%
X24987739Y53397167D02*
X26987739Y53397167D01*
%TO.N,unconnected-(U3-2Y-Pad5)*%
X13309344Y51700562D02*
X12679817Y51700562D01*
%TO.N,GND*%
D32*
X15979445Y50013873D02*
X15979445Y47892770D01*
X16737739Y50772167D02*
X15979445Y50013873D01*
X17562739Y50772167D02*
X16737739Y50772167D01*
%TO.N,Net-(U3-1A)*%
D30*
X20337739Y48522167D02*
X20837739Y49022167D01*
X17987739Y48522167D02*
X20337739Y48522167D01*
X17562739Y48947167D02*
X17987739Y48522167D01*
D31*
X17562739Y49272167D02*
X17562739Y48947167D01*
%TO.N,+5V*%
X14429445Y49155461D02*
X14412739Y49172167D01*
D32*
X14429445Y47892770D02*
X14429445Y49155461D01*
%TO.N,Net-(U3-1Y)*%
X12062739Y49772167D02*
X11312739Y49022167D01*
%TO.N,neopixels_5v*%
D30*
X6487739Y49562167D02*
X9122739Y49562167D01*
X9122739Y49562167D02*
X9662739Y49022167D01*
%TO.N,GND*%
X22362739Y23959667D02*
X22487739Y24084667D01*
X20487739Y23959667D02*
X22362739Y23959667D01*
X20337739Y23809667D02*
X20487739Y23959667D01*
X18487739Y23809667D02*
X20337739Y23809667D01*
%TO.N,+5V*%
X20337739Y15672167D02*
X20487739Y15522167D01*
X15487739Y15672167D02*
X20337739Y15672167D01*
X20487739Y15522167D02*
X20487739Y11922167D01*
%TO.N,Net-(VR2-ADJ)*%
X15487739Y12672167D02*
X17437739Y12672167D01*
X17437739Y12672167D02*
X18187739Y11922167D01*
X15487739Y14022167D02*
X15487739Y12672167D01*
%TO.N,+5V*%
X20487739Y17122167D02*
X20487739Y15522167D01*
%TO.N,+9V*%
X42487739Y8022167D02*
X44287739Y9822167D01*
X44287739Y9822167D02*
X44287739Y11922167D01*
X31987739Y8022167D02*
X42487739Y8022167D01*
X28087739Y11922167D02*
X31987739Y8022167D01*
X27987739Y11922167D02*
X28087739Y11922167D01*
%TO.N,Net-(VR3-ADJ)*%
X33987739Y16522167D02*
X33987739Y14972167D01*
%TO.N,+9V*%
X22787739Y11922167D02*
X27987739Y11922167D01*
%TO.N,Net-(VR3-ADJ)*%
X30887739Y16522167D02*
X30287739Y17122167D01*
X33987739Y16522167D02*
X30887739Y16522167D01*
%TO.N,Net-(VR1-ADJ)*%
X39262739Y12347167D02*
X39687739Y11922167D01*
X35987739Y12347167D02*
X39262739Y12347167D01*
X35987739Y13697167D02*
X35987739Y12347167D01*
%TO.N,+3V3*%
X35987739Y15347167D02*
X41662739Y15347167D01*
X41662739Y15347167D02*
X41987739Y15022167D01*
X41987739Y17122167D02*
X41987739Y15022167D01*
X41987739Y15022167D02*
X41987739Y11922167D01*
%TO.N,+9V*%
X33987739Y13322167D02*
X29387739Y13322167D01*
X29387739Y13322167D02*
X27987739Y11922167D01*
X27987739Y17122167D02*
X27987739Y11922167D01*
%TO.N,Net-(D32-A)*%
X22487739Y25959667D02*
X22487739Y27697167D01*
%TO.N,Net-(D30-A)*%
X20487739Y25534667D02*
X20487739Y27747167D01*
%TO.N,Net-(D31-A)*%
X18487739Y25684667D02*
X18487739Y27647167D01*
%TD*%
%TA.AperFunction,Conductor*%
%TO.N,GND*%
G36*
X705703Y20228452D02*
G01*
X724817Y20207626D01*
X782740Y20127902D01*
X843223Y20044656D01*
X843224Y20044655D01*
X6360230Y14527648D01*
X6360235Y14527644D01*
X6541182Y14396178D01*
X6541183Y14396178D01*
X6545589Y14392978D01*
X6551306Y14388824D01*
X6704664Y14310684D01*
X6761742Y14281601D01*
X6761744Y14281601D01*
X6761747Y14281599D01*
X6882151Y14242478D01*
X6986370Y14208614D01*
X7219642Y14171667D01*
X7219647Y14171667D01*
X7219648Y14171667D01*
X7455831Y14171667D01*
X13863239Y14171667D01*
X13930278Y14151982D01*
X13976033Y14099178D01*
X13987239Y14047667D01*
X13987239Y12554070D01*
X14011613Y12400172D01*
X14012842Y12389364D01*
X14018657Y12305598D01*
X14069593Y12089032D01*
X14069599Y12089016D01*
X14159460Y11885499D01*
X14242676Y11764018D01*
X14285197Y11701946D01*
X14442518Y11544625D01*
X14480281Y11518757D01*
X14524463Y11464632D01*
X14532369Y11395211D01*
X14528589Y11379569D01*
X14519148Y11349271D01*
X14512739Y11278740D01*
X14512739Y11272167D01*
X14921136Y11272167D01*
X14959453Y11266099D01*
X15047161Y11237601D01*
X15136370Y11208614D01*
X15369642Y11171667D01*
X15369647Y11171667D01*
X15605831Y11171667D01*
X16588240Y11171667D01*
X16655279Y11151982D01*
X16701034Y11099178D01*
X16712240Y11047667D01*
X16712240Y10439133D01*
X16722852Y10319752D01*
X16778828Y10124122D01*
X16778829Y10124119D01*
X16778830Y10124118D01*
X16873041Y9943760D01*
X16873043Y9943758D01*
X17001629Y9786058D01*
X17082852Y9719830D01*
X17159332Y9657469D01*
X17339690Y9563258D01*
X17535321Y9507281D01*
X17654702Y9496667D01*
X18720775Y9496668D01*
X18840157Y9507281D01*
X19035788Y9563258D01*
X19216146Y9657469D01*
X19259378Y9692721D01*
X19323773Y9719830D01*
X19392603Y9707821D01*
X19416096Y9692723D01*
X19459332Y9657469D01*
X19639690Y9563258D01*
X19835321Y9507281D01*
X19954702Y9496667D01*
X21020775Y9496668D01*
X21140157Y9507281D01*
X21335788Y9563258D01*
X21516146Y9657469D01*
X21559378Y9692721D01*
X21623773Y9719830D01*
X21692603Y9707821D01*
X21716096Y9692723D01*
X21759332Y9657469D01*
X21939690Y9563258D01*
X22135321Y9507281D01*
X22254702Y9496667D01*
X23320775Y9496668D01*
X23440157Y9507281D01*
X23635788Y9563258D01*
X23816146Y9657469D01*
X23973848Y9786058D01*
X24102437Y9943760D01*
X24196648Y10124118D01*
X24252625Y10319749D01*
X24252625Y10319760D01*
X24252730Y10320317D01*
X24252860Y10320576D01*
X24254246Y10325416D01*
X24255180Y10325149D01*
X24284329Y10382633D01*
X24344603Y10417973D01*
X24374644Y10421667D01*
X25250834Y10421667D01*
X25317873Y10401982D01*
X25363628Y10349178D01*
X25371144Y10325392D01*
X25371232Y10325416D01*
X25372144Y10322227D01*
X25372748Y10320317D01*
X25372853Y10319749D01*
X25428828Y10124122D01*
X25428829Y10124119D01*
X25428830Y10124118D01*
X25523041Y9943760D01*
X25523043Y9943758D01*
X25651629Y9786058D01*
X25732852Y9719830D01*
X25809332Y9657469D01*
X25989690Y9563258D01*
X26185321Y9507281D01*
X26304702Y9496667D01*
X28339849Y9496668D01*
X28406888Y9476983D01*
X28427530Y9460349D01*
X31010229Y6877650D01*
X31201306Y6738824D01*
X31300730Y6688165D01*
X31411742Y6631601D01*
X31411744Y6631601D01*
X31411747Y6631599D01*
X31532151Y6592478D01*
X31636370Y6558614D01*
X31869642Y6521667D01*
X31869647Y6521667D01*
X42605836Y6521667D01*
X42839107Y6558614D01*
X43063731Y6631599D01*
X43274173Y6738824D01*
X43465249Y6877650D01*
X45202442Y8614845D01*
X45263765Y8648329D01*
X45333457Y8643345D01*
X45377804Y8614844D01*
X47615000Y6377648D01*
X47615005Y6377644D01*
X47781664Y6256561D01*
X47806076Y6238824D01*
X47940168Y6170501D01*
X48016512Y6131601D01*
X48016514Y6131601D01*
X48016517Y6131599D01*
X48136921Y6092478D01*
X48241140Y6058614D01*
X48474412Y6021667D01*
X48474417Y6021667D01*
X56605836Y6021667D01*
X56839107Y6058614D01*
X57063731Y6131599D01*
X57274173Y6238824D01*
X57465249Y6377650D01*
X59287819Y8200220D01*
X59349142Y8233705D01*
X59418834Y8228721D01*
X59474767Y8186849D01*
X59499184Y8121385D01*
X59499500Y8112539D01*
X59499500Y624500D01*
X59479815Y557461D01*
X59427011Y511706D01*
X59375500Y500500D01*
X624500Y500500D01*
X557461Y520185D01*
X511706Y572989D01*
X500500Y624500D01*
X500500Y3221339D01*
X1392249Y3221339D01*
X1392249Y1721339D01*
X1394272Y1700800D01*
X1395131Y1692078D01*
X1395132Y1692071D01*
X1417529Y1638002D01*
X1458910Y1596621D01*
X1458914Y1596618D01*
X1510863Y1575100D01*
X1512985Y1574221D01*
X1512986Y1574221D01*
X1571512Y1574221D01*
X1571513Y1574221D01*
X1625585Y1596619D01*
X1666969Y1638003D01*
X1689367Y1692075D01*
X1692249Y1721339D01*
X1692249Y2161625D01*
X1711934Y2228664D01*
X1764738Y2274419D01*
X1816249Y2285625D01*
X2113676Y2285625D01*
X2113678Y2285625D01*
X2142942Y2288507D01*
X2147920Y2290570D01*
X2153296Y2290951D01*
X2180760Y2301461D01*
X2323617Y2372889D01*
X2333888Y2379356D01*
X2338460Y2381489D01*
X2339859Y2382328D01*
X2339870Y2382332D01*
X2341788Y2383908D01*
X2343994Y2385718D01*
X2348503Y2388554D01*
X2351097Y2391547D01*
X2359229Y2398219D01*
X2359231Y2398221D01*
X2362591Y2400979D01*
X2362601Y2400987D01*
X2434030Y2472416D01*
X2443471Y2483921D01*
X2446463Y2486515D01*
X2449301Y2491025D01*
X2452685Y2495147D01*
X2452686Y2495152D01*
X2457243Y2502754D01*
X2459809Y2507718D01*
X2462128Y2511400D01*
X2533556Y2654258D01*
X2536345Y2661545D01*
X2544063Y2681712D01*
X2544063Y2681715D01*
X2544066Y2681721D01*
X2544066Y2681728D01*
X2544849Y2685258D01*
X2545634Y2688581D01*
X2546508Y2692071D01*
X2546510Y2692075D01*
X2549392Y2721339D01*
X2549392Y2935625D01*
X2546510Y2964889D01*
X2546509Y2964891D01*
X2546509Y2964895D01*
X2545625Y2968424D01*
X2545724Y2970911D01*
X2533561Y3002694D01*
X2533558Y3002702D01*
X2481037Y3107745D01*
X2462128Y3145564D01*
X2457798Y3152441D01*
X2455993Y3155737D01*
X2455799Y3156620D01*
X2452685Y3161816D01*
X2452684Y3161817D01*
X2452684Y3161818D01*
X2449302Y3165939D01*
X2446463Y3170449D01*
X2443471Y3173044D01*
X2438442Y3179172D01*
X2823703Y3179172D01*
X2823703Y3120645D01*
X2829043Y3107755D01*
X2829044Y3107748D01*
X2829046Y3107748D01*
X2829047Y3107746D01*
X2846100Y3066575D01*
X2852933Y3058249D01*
X2864759Y3043839D01*
X2923044Y2985554D01*
X2956529Y2924231D01*
X2951545Y2854539D01*
X2923047Y2810195D01*
X2917529Y2804677D01*
X2895132Y2750608D01*
X2895131Y2750605D01*
X2895131Y2750603D01*
X2892249Y2721339D01*
X2892249Y1721339D01*
X2894272Y1700800D01*
X2895131Y1692078D01*
X2895132Y1692071D01*
X2917529Y1638002D01*
X2958910Y1596621D01*
X2958914Y1596618D01*
X3010863Y1575100D01*
X3012985Y1574221D01*
X3012986Y1574221D01*
X3071512Y1574221D01*
X3071513Y1574221D01*
X3125585Y1596619D01*
X3166969Y1638003D01*
X3189367Y1692075D01*
X3192249Y1721339D01*
X3192249Y2709812D01*
X3464121Y2709812D01*
X3479914Y2653463D01*
X3479917Y2653457D01*
X3495730Y2628666D01*
X3538578Y2574132D01*
X3755578Y2297948D01*
X3781518Y2233072D01*
X3768265Y2164471D01*
X3755578Y2144730D01*
X3495735Y1814019D01*
X3495726Y1814006D01*
X3479917Y1789222D01*
X3479914Y1789216D01*
X3464121Y1732867D01*
X3471095Y1674756D01*
X3499773Y1623737D01*
X3532470Y1598048D01*
X3545796Y1587578D01*
X3602152Y1571783D01*
X3660261Y1578756D01*
X3711280Y1607435D01*
X3731626Y1628666D01*
X3909033Y1854458D01*
X3965928Y1895009D01*
X4035717Y1898363D01*
X4096241Y1863454D01*
X4104038Y1854456D01*
X4281438Y1628674D01*
X4281445Y1628666D01*
X4301788Y1607437D01*
X4301790Y1607436D01*
X4301791Y1607435D01*
X4352810Y1578756D01*
X4410919Y1571783D01*
X4467275Y1587578D01*
X4513297Y1623737D01*
X4541976Y1674756D01*
X4548949Y1732865D01*
X4537020Y1775428D01*
X4537121Y1783672D01*
X4532149Y1790796D01*
X4517347Y1814003D01*
X4517345Y1814006D01*
X4517341Y1814012D01*
X4257490Y2144731D01*
X4231550Y2209605D01*
X4244803Y2278206D01*
X4257488Y2297945D01*
X4421788Y2507053D01*
X4749393Y2507053D01*
X4749393Y1935625D01*
X4751794Y1911239D01*
X4752275Y1906360D01*
X4753152Y1902860D01*
X4753151Y1902860D01*
X4754659Y1896846D01*
X4754719Y1896007D01*
X4755156Y1894864D01*
X4756968Y1887641D01*
X4756624Y1879018D01*
X4761553Y1874639D01*
X4767328Y1864345D01*
X4834779Y1729439D01*
X4834784Y1729430D01*
X4836657Y1725685D01*
X4839736Y1720793D01*
X4840507Y1718482D01*
X4843002Y1715605D01*
X4848550Y1706792D01*
X4852322Y1700800D01*
X4852324Y1700797D01*
X4859875Y1694248D01*
X4872298Y1681826D01*
X4878854Y1674267D01*
X4878856Y1674266D01*
X4878858Y1674264D01*
X4879432Y1673903D01*
X4893658Y1664949D01*
X4896536Y1662453D01*
X4898847Y1661683D01*
X4903740Y1658603D01*
X5046598Y1587174D01*
X5046602Y1587173D01*
X5046603Y1587172D01*
X5046608Y1587170D01*
X5074057Y1576666D01*
X5074060Y1576666D01*
X5074061Y1576665D01*
X5077597Y1575881D01*
X5080907Y1575100D01*
X5084410Y1574223D01*
X5084415Y1574221D01*
X5113679Y1571339D01*
X5113682Y1571339D01*
X5399391Y1571339D01*
X5399393Y1571339D01*
X5428657Y1574221D01*
X5428658Y1574222D01*
X5432169Y1575101D01*
X5435472Y1575881D01*
X5439005Y1576665D01*
X5439011Y1576665D01*
X5466475Y1587175D01*
X5609332Y1658603D01*
X5634218Y1674268D01*
X5672564Y1718483D01*
X5691072Y1774005D01*
X5691025Y1774660D01*
X5686924Y1832384D01*
X5683198Y1839838D01*
X5660750Y1884734D01*
X5616535Y1923081D01*
X5608468Y1925770D01*
X5561011Y1941590D01*
X5505161Y1937622D01*
X5503850Y1937908D01*
X5475169Y1926932D01*
X5475164Y1926930D01*
X5390164Y1884430D01*
X5321399Y1872056D01*
X5278988Y1889646D01*
X5203656Y1873947D01*
X5134011Y1879541D01*
X5122906Y1884430D01*
X5119594Y1886086D01*
X5068435Y1933673D01*
X5063648Y1942533D01*
X5063626Y1942578D01*
X5051866Y2011451D01*
X5079208Y2075748D01*
X5136972Y2115057D01*
X5150705Y2118632D01*
X5436439Y2175778D01*
X5449259Y2174645D01*
X5453096Y2177513D01*
X5472044Y2182899D01*
X5642942Y2217078D01*
X5642943Y2217078D01*
X5642943Y2217079D01*
X5643097Y2217109D01*
X5671227Y2225674D01*
X5673237Y2227021D01*
X5694788Y2238555D01*
X5697015Y2239476D01*
X5698926Y2241388D01*
X5717607Y2256736D01*
X5719857Y2258242D01*
X5728009Y2270470D01*
X5738399Y2280860D01*
X5744079Y2294578D01*
X5750819Y2304686D01*
X5750821Y2304688D01*
X5750822Y2304691D01*
X5752321Y2306938D01*
X5752789Y2309305D01*
X5759874Y2332706D01*
X5760797Y2334932D01*
X5763679Y2364196D01*
X5763679Y2364348D01*
X5763680Y2364353D01*
X5763679Y2364358D01*
X5763679Y2507053D01*
X5760797Y2536317D01*
X5760793Y2536327D01*
X5759909Y2539856D01*
X5759125Y2543178D01*
X5758352Y2546664D01*
X5758352Y2546672D01*
X5747843Y2574136D01*
X5676414Y2716992D01*
X5673333Y2721887D01*
X5672564Y2724194D01*
X5670071Y2727069D01*
X5664526Y2735878D01*
X5664518Y2735891D01*
X5660750Y2741877D01*
X5656750Y2745346D01*
X5646539Y2754202D01*
X5634218Y2768409D01*
X5619412Y2777729D01*
X5619409Y2777732D01*
X5616532Y2780227D01*
X5611433Y2783135D01*
X5610147Y2783667D01*
X5466472Y2855505D01*
X5439009Y2866013D01*
X5435451Y2866802D01*
X5432173Y2867576D01*
X5428657Y2868457D01*
X5424240Y2868892D01*
X5399393Y2871339D01*
X5113679Y2871339D01*
X5103771Y2870364D01*
X5088829Y2868892D01*
X5088828Y2868892D01*
X5084415Y2868457D01*
X5079437Y2866396D01*
X5074060Y2866013D01*
X5046597Y2855503D01*
X4903739Y2784074D01*
X4903095Y2783670D01*
X4900443Y2782452D01*
X4893409Y2778441D01*
X4885662Y2772697D01*
X4878858Y2768414D01*
X4878849Y2768406D01*
X4872297Y2760852D01*
X4859879Y2748434D01*
X4852325Y2741882D01*
X4852317Y2741873D01*
X4848547Y2735885D01*
X4848487Y2735788D01*
X4842999Y2727069D01*
X4840507Y2724194D01*
X4839737Y2721887D01*
X4836657Y2716992D01*
X4834793Y2713265D01*
X4834782Y2713246D01*
X4767329Y2578336D01*
X4758384Y2568720D01*
X4756973Y2555053D01*
X4755161Y2547829D01*
X4754719Y2546671D01*
X4754658Y2545821D01*
X4752278Y2536325D01*
X4752275Y2536317D01*
X4752274Y2536309D01*
X4752273Y2536304D01*
X4751321Y2526632D01*
X4749393Y2507053D01*
X4421788Y2507053D01*
X4517341Y2628666D01*
X4532151Y2651886D01*
X4534569Y2653996D01*
X4534380Y2655751D01*
X4537021Y2667255D01*
X4538181Y2671393D01*
X4548949Y2709813D01*
X4541976Y2767922D01*
X4528008Y2792771D01*
X4513297Y2818942D01*
X4467275Y2855100D01*
X4410919Y2870895D01*
X4352810Y2863923D01*
X4301788Y2835242D01*
X4281445Y2814013D01*
X4281438Y2814005D01*
X4104038Y2588223D01*
X4047141Y2547670D01*
X3977352Y2544316D01*
X3916828Y2579225D01*
X3909032Y2588223D01*
X3731632Y2814005D01*
X3731625Y2814013D01*
X3711282Y2835242D01*
X3660260Y2863923D01*
X3609124Y2870059D01*
X3602152Y2870895D01*
X3602151Y2870895D01*
X3545795Y2855100D01*
X3499773Y2818942D01*
X3471095Y2767923D01*
X3464121Y2709812D01*
X3192249Y2709812D01*
X3192249Y2721339D01*
X3189367Y2750603D01*
X3184023Y2763503D01*
X3175671Y2783667D01*
X3166969Y2804675D01*
X3166968Y2804676D01*
X3166968Y2804677D01*
X3161453Y2810192D01*
X3127968Y2871515D01*
X3132952Y2941207D01*
X3159334Y2983383D01*
X3160367Y2984468D01*
X3219743Y3043843D01*
X3237447Y3065416D01*
X3238039Y3066037D01*
X3238398Y3066574D01*
X3238399Y3066575D01*
X3260796Y3120647D01*
X3260796Y3179173D01*
X3260795Y3179174D01*
X3260795Y3179177D01*
X3243333Y3221335D01*
X6106535Y3221335D01*
X6106535Y1935627D01*
X6108982Y1910772D01*
X6108982Y1910771D01*
X6109417Y1906361D01*
X6111478Y1901384D01*
X6111861Y1896006D01*
X6122371Y1868543D01*
X6193800Y1725685D01*
X6194205Y1725041D01*
X6195426Y1722381D01*
X6199444Y1715335D01*
X6205195Y1707582D01*
X6209464Y1700800D01*
X6209465Y1700798D01*
X6217017Y1694249D01*
X6217016Y1694249D01*
X6223681Y1688469D01*
X6235997Y1674268D01*
X6250804Y1664947D01*
X6253680Y1662453D01*
X6253683Y1662452D01*
X6258806Y1659532D01*
X6260080Y1659004D01*
X6260881Y1658604D01*
X6260882Y1658603D01*
X6403740Y1587175D01*
X6431203Y1576665D01*
X6489583Y1572517D01*
X6545106Y1591025D01*
X6589321Y1629372D01*
X6615495Y1681721D01*
X6617276Y1706792D01*
X6619643Y1740097D01*
X6619643Y1740100D01*
X6619643Y1740101D01*
X6601135Y1795623D01*
X6562789Y1839838D01*
X6562788Y1839839D01*
X6562787Y1839840D01*
X6537912Y1855498D01*
X6537893Y1855509D01*
X6476736Y1886087D01*
X6425577Y1933674D01*
X6421282Y1941541D01*
X6419618Y1944868D01*
X6406535Y2000307D01*
X6406535Y3221335D01*
X6406535Y3221339D01*
X8035106Y3221339D01*
X8035106Y1721339D01*
X8037129Y1700800D01*
X8037988Y1692078D01*
X8037989Y1692071D01*
X8060386Y1638002D01*
X8101767Y1596621D01*
X8101771Y1596618D01*
X8153720Y1575100D01*
X8155842Y1574221D01*
X8155843Y1574221D01*
X8214369Y1574221D01*
X8214370Y1574221D01*
X8268442Y1596619D01*
X8309826Y1638003D01*
X8332224Y1692075D01*
X8335106Y1721339D01*
X8335106Y2161625D01*
X8354791Y2228664D01*
X8407595Y2274419D01*
X8459106Y2285625D01*
X8756533Y2285625D01*
X8756535Y2285625D01*
X8785799Y2288507D01*
X8790777Y2290570D01*
X8796153Y2290951D01*
X8823617Y2301461D01*
X8966474Y2372889D01*
X8976745Y2379356D01*
X8981317Y2381489D01*
X8982716Y2382328D01*
X8982727Y2382332D01*
X8984645Y2383908D01*
X8986851Y2385718D01*
X8991360Y2388554D01*
X8993954Y2391547D01*
X9002086Y2398219D01*
X9002088Y2398221D01*
X9005448Y2400979D01*
X9005458Y2400987D01*
X9076887Y2472416D01*
X9086328Y2483921D01*
X9089320Y2486515D01*
X9092158Y2491025D01*
X9095542Y2495147D01*
X9095543Y2495152D01*
X9100100Y2502754D01*
X9102666Y2507718D01*
X9104985Y2511400D01*
X9176413Y2654258D01*
X9179202Y2661545D01*
X9186920Y2681712D01*
X9186920Y2681715D01*
X9186923Y2681721D01*
X9186923Y2681728D01*
X9187706Y2685258D01*
X9188491Y2688581D01*
X9189365Y2692071D01*
X9189367Y2692075D01*
X9192249Y2721339D01*
X9192249Y2935625D01*
X9189367Y2964889D01*
X9187304Y2969868D01*
X9186923Y2975243D01*
X9176413Y3002706D01*
X9104985Y3145564D01*
X9098521Y3155832D01*
X9096382Y3160415D01*
X9096246Y3160642D01*
X9096245Y3160644D01*
X9094610Y3163373D01*
X9090509Y3169064D01*
X9083574Y3177147D01*
X9079658Y3181171D01*
X9076886Y3184549D01*
X9049154Y3212281D01*
X9040100Y3221335D01*
X9535106Y3221335D01*
X9535106Y1935627D01*
X9537553Y1910772D01*
X9537553Y1910771D01*
X9537988Y1906361D01*
X9540049Y1901384D01*
X9540432Y1896006D01*
X9550942Y1868543D01*
X9622371Y1725685D01*
X9622776Y1725041D01*
X9623997Y1722381D01*
X9628015Y1715335D01*
X9633766Y1707582D01*
X9638035Y1700800D01*
X9638036Y1700798D01*
X9645588Y1694249D01*
X9645587Y1694249D01*
X9652252Y1688469D01*
X9664568Y1674268D01*
X9679375Y1664947D01*
X9682251Y1662453D01*
X9682254Y1662452D01*
X9687377Y1659532D01*
X9688651Y1659004D01*
X9689452Y1658604D01*
X9689453Y1658603D01*
X9832311Y1587175D01*
X9859774Y1576665D01*
X9918154Y1572517D01*
X9973677Y1591025D01*
X10017892Y1629372D01*
X10044066Y1681721D01*
X10045847Y1706792D01*
X10048214Y1740097D01*
X10048213Y1740098D01*
X10048214Y1740101D01*
X10029706Y1795623D01*
X9991360Y1839838D01*
X9991359Y1839839D01*
X9991358Y1839840D01*
X9966483Y1855498D01*
X9966464Y1855509D01*
X9905307Y1886087D01*
X9854148Y1933674D01*
X9849853Y1941541D01*
X9848189Y1944868D01*
X9835106Y2000307D01*
X9835106Y2078482D01*
X10249392Y2078482D01*
X10249392Y1935625D01*
X10251793Y1911239D01*
X10252274Y1906360D01*
X10253151Y1902860D01*
X10253649Y1900748D01*
X10254510Y1898934D01*
X10254718Y1896007D01*
X10265228Y1868544D01*
X10336656Y1725685D01*
X10336861Y1725359D01*
X10338194Y1722550D01*
X10338211Y1722507D01*
X10342295Y1715344D01*
X10348051Y1707583D01*
X10352321Y1700800D01*
X10352323Y1700797D01*
X10359874Y1694248D01*
X10372297Y1681826D01*
X10378853Y1674267D01*
X10378855Y1674266D01*
X10378857Y1674264D01*
X10379431Y1673903D01*
X10393657Y1664949D01*
X10396535Y1662453D01*
X10398846Y1661683D01*
X10403739Y1658603D01*
X10546597Y1587174D01*
X10546601Y1587173D01*
X10546602Y1587172D01*
X10546607Y1587170D01*
X10574056Y1576666D01*
X10574059Y1576666D01*
X10574060Y1576665D01*
X10577596Y1575881D01*
X10580906Y1575100D01*
X10584409Y1574223D01*
X10584414Y1574221D01*
X10613678Y1571339D01*
X10613681Y1571339D01*
X10970818Y1571339D01*
X10970820Y1571339D01*
X11000084Y1574221D01*
X11000088Y1574223D01*
X11003578Y1575097D01*
X11006894Y1575880D01*
X11010434Y1576665D01*
X11010438Y1576665D01*
X11010441Y1576667D01*
X11016617Y1578035D01*
X11071976Y1574294D01*
X11072436Y1576604D01*
X11084413Y1574222D01*
X11084414Y1574221D01*
X11084415Y1574221D01*
X11142941Y1574221D01*
X11142942Y1574221D01*
X11197014Y1596619D01*
X11238398Y1638003D01*
X11260796Y1692075D01*
X11263678Y1721339D01*
X11263678Y2507053D01*
X11260796Y2536317D01*
X11260792Y2536327D01*
X11260519Y2537416D01*
X11258527Y2544183D01*
X11258351Y2546672D01*
X11255941Y2552971D01*
X11254556Y2557676D01*
X11254551Y2565050D01*
X11244779Y2580263D01*
X11178300Y2713218D01*
X11176413Y2716992D01*
X11173332Y2721887D01*
X11172563Y2724194D01*
X11170070Y2727069D01*
X11164525Y2735878D01*
X11164517Y2735891D01*
X11160749Y2741877D01*
X11156749Y2745346D01*
X11150689Y2750602D01*
X11466560Y2750602D01*
X11466560Y2692075D01*
X11470248Y2683172D01*
X11471875Y2668039D01*
X11472142Y2667842D01*
X11475763Y2661545D01*
X11477781Y2659799D01*
X11485241Y2645065D01*
X11488069Y2640147D01*
X11488956Y2638005D01*
X11488959Y2638001D01*
X11530340Y2596620D01*
X11530341Y2596620D01*
X11530342Y2596619D01*
X11584409Y2574223D01*
X11592864Y2570721D01*
X11592339Y2569456D01*
X11644329Y2538931D01*
X11675890Y2476596D01*
X11677963Y2454019D01*
X11677963Y1935627D01*
X11680410Y1910772D01*
X11680410Y1910771D01*
X11680845Y1906361D01*
X11682906Y1901384D01*
X11683289Y1896006D01*
X11693799Y1868543D01*
X11765228Y1725685D01*
X11765633Y1725041D01*
X11766854Y1722381D01*
X11770872Y1715335D01*
X11776623Y1707582D01*
X11780892Y1700800D01*
X11780893Y1700798D01*
X11788445Y1694249D01*
X11788444Y1694249D01*
X11795109Y1688469D01*
X11807425Y1674268D01*
X11822232Y1664947D01*
X11825108Y1662453D01*
X11825111Y1662452D01*
X11830234Y1659532D01*
X11831508Y1659004D01*
X11975172Y1587173D01*
X11975180Y1587170D01*
X12002625Y1576667D01*
X12002626Y1576667D01*
X12002631Y1576665D01*
X12002635Y1576665D01*
X12006147Y1575886D01*
X12009450Y1575106D01*
X12012979Y1574222D01*
X12012983Y1574222D01*
X12012985Y1574221D01*
X12042249Y1571339D01*
X12042252Y1571339D01*
X12185102Y1571339D01*
X12185106Y1571339D01*
X12214370Y1574221D01*
X12268442Y1596619D01*
X12309826Y1638003D01*
X12310286Y1639112D01*
X12322009Y1667415D01*
X12332224Y1692075D01*
X12332224Y1750603D01*
X12328537Y1759504D01*
X12326906Y1774660D01*
X12326631Y1774862D01*
X12323003Y1781171D01*
X12320983Y1782919D01*
X12313518Y1797663D01*
X12310702Y1802561D01*
X12309826Y1804675D01*
X12309824Y1804678D01*
X12268443Y1846059D01*
X12214374Y1868456D01*
X12214371Y1868457D01*
X12214370Y1868457D01*
X12185106Y1871339D01*
X12185102Y1871339D01*
X12106931Y1871339D01*
X12051477Y1884430D01*
X12048165Y1886086D01*
X11997006Y1933673D01*
X11992710Y1941541D01*
X11991567Y1943828D01*
X11991054Y1944853D01*
X11977963Y2000307D01*
X11977963Y2447339D01*
X11997648Y2514378D01*
X12050452Y2560133D01*
X12101963Y2571339D01*
X12185102Y2571339D01*
X12185106Y2571339D01*
X12214370Y2574221D01*
X12268442Y2596619D01*
X12268441Y2596619D01*
X12279726Y2601293D01*
X12281368Y2597329D01*
X12325624Y2611235D01*
X12374757Y2597810D01*
X12376201Y2601293D01*
X12387485Y2596619D01*
X12441552Y2574223D01*
X12450007Y2570721D01*
X12449482Y2569456D01*
X12501472Y2538931D01*
X12533033Y2476596D01*
X12525884Y2407093D01*
X12482293Y2352489D01*
X12473970Y2349677D01*
X12533736Y1950963D01*
X12534956Y1938672D01*
X12535105Y1935632D01*
X12537987Y1906360D01*
X12538256Y1905288D01*
X12540254Y1898495D01*
X12540432Y1896006D01*
X12542831Y1889736D01*
X12544222Y1885010D01*
X12544225Y1877640D01*
X12554005Y1862416D01*
X12618781Y1732866D01*
X12622371Y1725685D01*
X12625451Y1720791D01*
X12626221Y1718483D01*
X12628713Y1715610D01*
X12634264Y1706792D01*
X12634297Y1706738D01*
X12638035Y1700800D01*
X12638036Y1700798D01*
X12645588Y1694249D01*
X12645587Y1694249D01*
X12652252Y1688469D01*
X12664568Y1674268D01*
X12679375Y1664947D01*
X12682251Y1662453D01*
X12682254Y1662452D01*
X12687377Y1659532D01*
X12688651Y1659004D01*
X12832315Y1587173D01*
X12832323Y1587170D01*
X12859768Y1576667D01*
X12859769Y1576667D01*
X12859774Y1576665D01*
X12859778Y1576665D01*
X12863290Y1575886D01*
X12866593Y1575106D01*
X12870122Y1574222D01*
X12870126Y1574222D01*
X12870128Y1574221D01*
X12899392Y1571339D01*
X12899395Y1571339D01*
X13042245Y1571339D01*
X13042249Y1571339D01*
X13071513Y1574221D01*
X13125585Y1596619D01*
X13166969Y1638003D01*
X13189367Y1692075D01*
X13189367Y1692077D01*
X13192472Y1699572D01*
X13236313Y1753975D01*
X13302608Y1776040D01*
X13370307Y1758761D01*
X13408207Y1723811D01*
X13411892Y1718611D01*
X13411935Y1718482D01*
X13412198Y1718179D01*
X13415716Y1713214D01*
X13416071Y1712179D01*
X13419480Y1707583D01*
X13423750Y1700800D01*
X13423752Y1700797D01*
X13431303Y1694248D01*
X13443726Y1681826D01*
X13450282Y1674267D01*
X13450284Y1674266D01*
X13450286Y1674264D01*
X13450860Y1673903D01*
X13465086Y1664949D01*
X13467964Y1662453D01*
X13470275Y1661683D01*
X13475168Y1658603D01*
X13618026Y1587174D01*
X13618030Y1587173D01*
X13618031Y1587172D01*
X13618036Y1587170D01*
X13645485Y1576666D01*
X13645488Y1576666D01*
X13645489Y1576665D01*
X13649025Y1575881D01*
X13652335Y1575100D01*
X13655838Y1574223D01*
X13655843Y1574221D01*
X13685107Y1571339D01*
X13685110Y1571339D01*
X13970819Y1571339D01*
X13970821Y1571339D01*
X14000085Y1574221D01*
X14000086Y1574222D01*
X14003597Y1575101D01*
X14006900Y1575881D01*
X14010433Y1576665D01*
X14010439Y1576665D01*
X14037903Y1587175D01*
X14180760Y1658603D01*
X14205646Y1674268D01*
X14243992Y1718483D01*
X14262500Y1774005D01*
X14262453Y1774660D01*
X14258352Y1832384D01*
X14254626Y1839838D01*
X14232178Y1884734D01*
X14187963Y1923081D01*
X14179896Y1925770D01*
X14132439Y1941590D01*
X14076589Y1937622D01*
X14075299Y1937904D01*
X14074127Y1937446D01*
X14074060Y1937441D01*
X14046597Y1926931D01*
X14044285Y1925776D01*
X14044272Y1925770D01*
X13961592Y1884430D01*
X13906139Y1871339D01*
X13749788Y1871339D01*
X13694334Y1884430D01*
X13691022Y1886086D01*
X13639863Y1933673D01*
X13635076Y1942533D01*
X13635054Y1942578D01*
X13623294Y2011451D01*
X13650636Y2075748D01*
X13708400Y2115057D01*
X13722133Y2118632D01*
X14007867Y2175778D01*
X14020687Y2174645D01*
X14024524Y2177513D01*
X14043472Y2182899D01*
X14214370Y2217078D01*
X14214371Y2217078D01*
X14214371Y2217079D01*
X14214525Y2217109D01*
X14242655Y2225674D01*
X14244665Y2227021D01*
X14266216Y2238555D01*
X14268443Y2239476D01*
X14270354Y2241388D01*
X14289035Y2256736D01*
X14291285Y2258242D01*
X14299437Y2270470D01*
X14309827Y2280860D01*
X14315507Y2294578D01*
X14322247Y2304686D01*
X14322249Y2304688D01*
X14322250Y2304691D01*
X14323749Y2306938D01*
X14324217Y2309305D01*
X14331302Y2332706D01*
X14332225Y2334932D01*
X14335107Y2364196D01*
X14335107Y2364348D01*
X14335108Y2364353D01*
X14335107Y2364358D01*
X14335107Y2507053D01*
X14332225Y2536317D01*
X14330161Y2541298D01*
X14329780Y2546672D01*
X14319271Y2574136D01*
X14247842Y2716992D01*
X14247839Y2716996D01*
X14247437Y2717801D01*
X14246907Y2719081D01*
X14245620Y2721339D01*
X14677963Y2721339D01*
X14677963Y1721339D01*
X14679986Y1700800D01*
X14680845Y1692078D01*
X14680846Y1692071D01*
X14703243Y1638002D01*
X14744624Y1596621D01*
X14744628Y1596618D01*
X14796577Y1575100D01*
X14798699Y1574221D01*
X14798700Y1574221D01*
X14857226Y1574221D01*
X14857227Y1574221D01*
X14911299Y1596619D01*
X14922425Y1607745D01*
X15252274Y1607745D01*
X15252274Y1549220D01*
X15252275Y1549214D01*
X15274670Y1495148D01*
X15274673Y1495144D01*
X15316054Y1453763D01*
X15316055Y1453763D01*
X15316056Y1453762D01*
X15370128Y1431364D01*
X15399392Y1428482D01*
X15399396Y1428482D01*
X16542245Y1428482D01*
X16542249Y1428482D01*
X16571513Y1431364D01*
X16625585Y1453762D01*
X16666969Y1495146D01*
X16689367Y1549218D01*
X16689367Y1607746D01*
X16688269Y1610397D01*
X16666970Y1661817D01*
X16666967Y1661821D01*
X16625586Y1703202D01*
X16571517Y1725599D01*
X16571514Y1725600D01*
X16571513Y1725600D01*
X16542249Y1728482D01*
X15399392Y1728482D01*
X15370128Y1725600D01*
X15370126Y1725600D01*
X15370123Y1725599D01*
X15316054Y1703202D01*
X15274673Y1661821D01*
X15274670Y1661817D01*
X15252275Y1607751D01*
X15252274Y1607745D01*
X14922425Y1607745D01*
X14952683Y1638003D01*
X14975081Y1692075D01*
X14977963Y1721339D01*
X14977963Y2370943D01*
X14991053Y2426396D01*
X14991321Y2426932D01*
X15013673Y2471637D01*
X15036899Y2503859D01*
X15045451Y2512410D01*
X15077668Y2535630D01*
X15122906Y2558248D01*
X15178360Y2571339D01*
X15256531Y2571339D01*
X15256535Y2571339D01*
X15285799Y2574221D01*
X15339871Y2596619D01*
X15381255Y2638003D01*
X15403653Y2692075D01*
X15403653Y2750603D01*
X15399392Y2760889D01*
X15381256Y2804674D01*
X15381253Y2804678D01*
X15339872Y2846059D01*
X15285803Y2868456D01*
X15285800Y2868457D01*
X15285799Y2868457D01*
X15256535Y2871339D01*
X15113678Y2871339D01*
X15111172Y2871093D01*
X15086567Y2868670D01*
X15086563Y2868669D01*
X15084414Y2868457D01*
X15079433Y2866394D01*
X15074059Y2866012D01*
X15046595Y2855503D01*
X15020778Y2842595D01*
X15015799Y2840621D01*
X14986125Y2837892D01*
X14956797Y2832614D01*
X14951101Y2834669D01*
X14946223Y2834220D01*
X14932346Y2841435D01*
X14923868Y2844493D01*
X14922582Y2841386D01*
X14857231Y2868456D01*
X14857227Y2868457D01*
X14798699Y2868457D01*
X14798698Y2868457D01*
X14798694Y2868456D01*
X14744628Y2846061D01*
X14744624Y2846058D01*
X14703243Y2804677D01*
X14680846Y2750608D01*
X14680845Y2750605D01*
X14680845Y2750603D01*
X14677963Y2721339D01*
X14245620Y2721339D01*
X14242208Y2727325D01*
X14236451Y2735088D01*
X14232178Y2741877D01*
X14228178Y2745346D01*
X14217967Y2754202D01*
X14205646Y2768409D01*
X14190840Y2777729D01*
X14190837Y2777732D01*
X14187960Y2780227D01*
X14182861Y2783135D01*
X14181575Y2783667D01*
X14037900Y2855505D01*
X14010437Y2866013D01*
X14006879Y2866802D01*
X14003601Y2867576D01*
X14000085Y2868457D01*
X13995668Y2868892D01*
X13970821Y2871339D01*
X13685107Y2871339D01*
X13675199Y2870364D01*
X13660257Y2868892D01*
X13660256Y2868892D01*
X13655843Y2868457D01*
X13650865Y2866396D01*
X13645488Y2866013D01*
X13618025Y2855503D01*
X13475167Y2784074D01*
X13474523Y2783670D01*
X13471871Y2782452D01*
X13464837Y2778441D01*
X13457090Y2772697D01*
X13450286Y2768414D01*
X13450277Y2768406D01*
X13443725Y2760852D01*
X13431307Y2748434D01*
X13423753Y2741882D01*
X13423745Y2741873D01*
X13419462Y2735069D01*
X13415702Y2729443D01*
X13412195Y2724495D01*
X13411935Y2724194D01*
X13411892Y2724068D01*
X13408207Y2718866D01*
X13385376Y2700827D01*
X13364429Y2680642D01*
X13358294Y2679427D01*
X13353386Y2675548D01*
X13324433Y2672716D01*
X13295893Y2667060D01*
X13290072Y2669355D01*
X13283848Y2668746D01*
X13257960Y2682016D01*
X13230893Y2692688D01*
X13226887Y2697944D01*
X13221671Y2700618D01*
X13211510Y2718123D01*
X13192472Y2743106D01*
X13187876Y2754201D01*
X13166969Y2804675D01*
X13166968Y2804676D01*
X13166968Y2804677D01*
X13125586Y2846059D01*
X13071517Y2868456D01*
X13071514Y2868457D01*
X13071513Y2868457D01*
X13042249Y2871339D01*
X13042245Y2871339D01*
X12959106Y2871339D01*
X12892067Y2891024D01*
X12846312Y2943828D01*
X12835106Y2995339D01*
X12835106Y3202577D01*
X16536284Y3202577D01*
X16542802Y3173910D01*
X16665881Y2804674D01*
X17042804Y1673905D01*
X17054792Y1647054D01*
X17061814Y1638957D01*
X17066607Y1629372D01*
X17080810Y1617053D01*
X17086583Y1610397D01*
X17086589Y1610391D01*
X17093139Y1602839D01*
X17102726Y1598046D01*
X17110821Y1591025D01*
X17128663Y1585078D01*
X17145487Y1576666D01*
X17146360Y1576604D01*
X17156179Y1575907D01*
X17166345Y1572517D01*
X17185101Y1573850D01*
X17203867Y1572516D01*
X17214037Y1575907D01*
X17224726Y1576666D01*
X17241547Y1585077D01*
X17259391Y1591025D01*
X17259392Y1591027D01*
X17266954Y1595337D01*
X17270198Y1597505D01*
X17277070Y1602838D01*
X17277070Y1602839D01*
X17277073Y1602840D01*
X17283626Y1610397D01*
X17296048Y1622819D01*
X17303605Y1629372D01*
X17303606Y1629375D01*
X17303607Y1629375D01*
X17308943Y1636251D01*
X17310855Y1639112D01*
X17310503Y1639336D01*
X17315417Y1647051D01*
X17315416Y1647051D01*
X17315420Y1647054D01*
X17327408Y1673905D01*
X17761367Y2975782D01*
X17801240Y3033154D01*
X17865804Y3059862D01*
X17934558Y3047426D01*
X17980763Y3004367D01*
X17982168Y3005305D01*
X17988955Y2995148D01*
X17988956Y2995147D01*
X18030342Y2953761D01*
X18084414Y2931364D01*
X18084416Y2931364D01*
X18142938Y2931364D01*
X18142940Y2931364D01*
X18197012Y2953761D01*
X18219743Y2972416D01*
X18259731Y3012405D01*
X18291951Y3035629D01*
X18337193Y3058250D01*
X18392645Y3071339D01*
X18620423Y3071339D01*
X18675877Y3058248D01*
X18721111Y3035631D01*
X18753338Y3012403D01*
X18761883Y3003858D01*
X18785110Y2971632D01*
X18807728Y2926397D01*
X18820820Y2870942D01*
X18820820Y2837230D01*
X18814456Y2798017D01*
X18812706Y2792767D01*
X18777542Y2687279D01*
X18747587Y2638812D01*
X17936186Y1827411D01*
X17917527Y1804675D01*
X17910830Y1788505D01*
X17910829Y1788503D01*
X17895130Y1750604D01*
X17895130Y1692077D01*
X17895131Y1692072D01*
X17904406Y1669679D01*
X17917526Y1638006D01*
X17917529Y1638001D01*
X17958910Y1596620D01*
X17958911Y1596620D01*
X17958913Y1596618D01*
X17990582Y1583501D01*
X17990587Y1583497D01*
X17990588Y1583498D01*
X18012979Y1574223D01*
X18012981Y1574222D01*
X18012984Y1574221D01*
X18042248Y1571339D01*
X18042251Y1571339D01*
X18970816Y1571339D01*
X18970820Y1571339D01*
X19000084Y1574221D01*
X19054156Y1596619D01*
X19095540Y1638003D01*
X19096000Y1639112D01*
X19107723Y1667415D01*
X19117938Y1692075D01*
X19117938Y1750603D01*
X19108245Y1774004D01*
X19095541Y1804674D01*
X19095538Y1804678D01*
X19054157Y1846059D01*
X19000088Y1868456D01*
X19000085Y1868457D01*
X19000084Y1868457D01*
X18970820Y1871339D01*
X18970816Y1871339D01*
X18703742Y1871339D01*
X18636703Y1891024D01*
X18590948Y1943828D01*
X18581004Y2012986D01*
X18610029Y2076542D01*
X18616061Y2083020D01*
X18807460Y2274419D01*
X19005457Y2472416D01*
X19024112Y2495146D01*
X19024116Y2495158D01*
X19025986Y2498275D01*
X19027779Y2501175D01*
X19029702Y2504195D01*
X19029705Y2504197D01*
X19041693Y2531047D01*
X19113122Y2745332D01*
X19116421Y2759842D01*
X19117938Y2763503D01*
X19118459Y2768809D01*
X19119641Y2774003D01*
X19119642Y2774006D01*
X19119641Y2774012D01*
X19120316Y2782827D01*
X19120391Y2788422D01*
X19120820Y2792767D01*
X19120820Y2935625D01*
X19117938Y2964889D01*
X19117934Y2964899D01*
X19117050Y2968428D01*
X19116266Y2971750D01*
X19115493Y2975236D01*
X19115493Y2975244D01*
X19104984Y3002708D01*
X19033555Y3145564D01*
X19026595Y3156620D01*
X19025626Y3158159D01*
X19024112Y3161818D01*
X19020728Y3165941D01*
X19018762Y3169064D01*
X19017887Y3170455D01*
X19012162Y3177128D01*
X19008236Y3181162D01*
X19005457Y3184548D01*
X18934029Y3255976D01*
X18930645Y3258754D01*
X18922526Y3265417D01*
X18919931Y3268409D01*
X18915422Y3271247D01*
X18911301Y3274629D01*
X18903716Y3279176D01*
X18898735Y3281751D01*
X18895049Y3284072D01*
X18895035Y3284080D01*
X18752197Y3355499D01*
X18752181Y3355505D01*
X18724727Y3366012D01*
X18724717Y3366016D01*
X18721153Y3366806D01*
X18717893Y3367575D01*
X18714370Y3368458D01*
X18689552Y3370901D01*
X18685105Y3371339D01*
X18327963Y3371339D01*
X18322870Y3370838D01*
X18303413Y3368922D01*
X18303410Y3368922D01*
X18298699Y3368457D01*
X18293721Y3366396D01*
X18288344Y3366013D01*
X18260881Y3355503D01*
X18118023Y3284074D01*
X18107748Y3277607D01*
X18103168Y3275469D01*
X18101768Y3274631D01*
X18098315Y3271797D01*
X18097646Y3271248D01*
X18093137Y3268409D01*
X18090541Y3265417D01*
X18082422Y3258753D01*
X18082420Y3258751D01*
X18082416Y3258750D01*
X18079039Y3255978D01*
X18035342Y3212281D01*
X17974019Y3178797D01*
X17904327Y3183782D01*
X17848394Y3225654D01*
X17836227Y3250531D01*
X17835240Y3250037D01*
X17803606Y3313304D01*
X17803605Y3313306D01*
X17759391Y3351653D01*
X17759389Y3351654D01*
X17703866Y3370163D01*
X17645487Y3366013D01*
X17593139Y3339840D01*
X17593138Y3339839D01*
X17554792Y3295626D01*
X17554791Y3295623D01*
X17542805Y3268776D01*
X17542804Y3268773D01*
X17302743Y2548592D01*
X17262868Y2491217D01*
X17198305Y2464508D01*
X17129551Y2476945D01*
X17078436Y2524579D01*
X17067469Y2548592D01*
X16995832Y2763503D01*
X16827408Y3268773D01*
X16815420Y3295624D01*
X16777073Y3339838D01*
X16777072Y3339839D01*
X16777070Y3339841D01*
X16724727Y3366012D01*
X16724729Y3366012D01*
X16666345Y3370162D01*
X16610822Y3351654D01*
X16566604Y3313304D01*
X16540433Y3260962D01*
X16536284Y3202577D01*
X12835106Y3202577D01*
X12835106Y3221335D01*
X12834681Y3225654D01*
X12832224Y3250603D01*
X12809826Y3304675D01*
X12809825Y3304676D01*
X12809825Y3304677D01*
X12768444Y3346058D01*
X12768440Y3346061D01*
X12714374Y3368456D01*
X12714370Y3368457D01*
X12655842Y3368457D01*
X12655841Y3368457D01*
X12655837Y3368456D01*
X12601771Y3346061D01*
X12601767Y3346058D01*
X12560386Y3304677D01*
X12537989Y3250608D01*
X12537988Y3250605D01*
X12537988Y3250603D01*
X12536282Y3233272D01*
X12535106Y3221335D01*
X12535106Y2988660D01*
X12515421Y2921621D01*
X12482795Y2893352D01*
X12480580Y2890144D01*
X12475841Y2887326D01*
X12462617Y2875866D01*
X12457136Y2873520D01*
X12445423Y2868838D01*
X12441557Y2868457D01*
X12387485Y2846059D01*
X12386846Y2845421D01*
X12373993Y2840282D01*
X12351592Y2838154D01*
X12330119Y2831441D01*
X12317483Y2834914D01*
X12304436Y2833674D01*
X12284442Y2843994D01*
X12281178Y2844891D01*
X12279726Y2841385D01*
X12214374Y2868456D01*
X12214371Y2868457D01*
X12214370Y2868457D01*
X12185106Y2871339D01*
X12185102Y2871339D01*
X12101963Y2871339D01*
X12034924Y2891024D01*
X11989169Y2943828D01*
X11977963Y2995339D01*
X11977963Y3221335D01*
X11977538Y3225654D01*
X11975081Y3250603D01*
X11952683Y3304675D01*
X11952682Y3304676D01*
X11952682Y3304677D01*
X11911301Y3346058D01*
X11911297Y3346061D01*
X11857231Y3368456D01*
X11857227Y3368457D01*
X11798699Y3368457D01*
X11798698Y3368457D01*
X11798694Y3368456D01*
X11744628Y3346061D01*
X11744624Y3346058D01*
X11703243Y3304677D01*
X11680846Y3250608D01*
X11680845Y3250605D01*
X11680845Y3250603D01*
X11679139Y3233272D01*
X11677963Y3221335D01*
X11677963Y2988660D01*
X11658278Y2921621D01*
X11605474Y2875866D01*
X11584924Y2868669D01*
X11530340Y2846059D01*
X11488959Y2804678D01*
X11488956Y2804674D01*
X11466561Y2750608D01*
X11466560Y2750602D01*
X11150689Y2750602D01*
X11146538Y2754202D01*
X11134217Y2768409D01*
X11119411Y2777729D01*
X11119408Y2777732D01*
X11116531Y2780227D01*
X11111432Y2783135D01*
X11110146Y2783667D01*
X10966471Y2855505D01*
X10939008Y2866013D01*
X10935450Y2866802D01*
X10932172Y2867576D01*
X10928656Y2868457D01*
X10924239Y2868892D01*
X10899392Y2871339D01*
X10613678Y2871339D01*
X10603923Y2870379D01*
X10584410Y2868457D01*
X10580897Y2867577D01*
X10577639Y2866808D01*
X10574065Y2866016D01*
X10546585Y2855499D01*
X10403747Y2784080D01*
X10403728Y2784069D01*
X10378853Y2768411D01*
X10340506Y2724195D01*
X10340505Y2724193D01*
X10321998Y2668674D01*
X10321997Y2668668D01*
X10326145Y2610293D01*
X10352320Y2557942D01*
X10377256Y2536317D01*
X10383332Y2531047D01*
X10383336Y2531044D01*
X10421085Y2472250D01*
X10421055Y2402380D01*
X10390450Y2350366D01*
X10382092Y2341879D01*
X10378853Y2339839D01*
X10369745Y2329339D01*
X10366981Y2326531D01*
X10366002Y2325987D01*
X10359875Y2319860D01*
X10352323Y2313310D01*
X10352316Y2313302D01*
X10348550Y2307319D01*
X10348513Y2307259D01*
X10343000Y2298501D01*
X10340506Y2295624D01*
X10339735Y2293314D01*
X10336656Y2288421D01*
X10334790Y2284691D01*
X10334782Y2284676D01*
X10265228Y2145565D01*
X10254717Y2118098D01*
X10253925Y2114526D01*
X10253152Y2111253D01*
X10252273Y2107746D01*
X10249839Y2083020D01*
X10249392Y2078482D01*
X9835106Y2078482D01*
X9835106Y3221335D01*
X9834681Y3225654D01*
X9832224Y3250603D01*
X9809826Y3304675D01*
X9809825Y3304676D01*
X9809825Y3304677D01*
X9768444Y3346058D01*
X9768440Y3346061D01*
X9714374Y3368456D01*
X9714370Y3368457D01*
X9655842Y3368457D01*
X9655841Y3368457D01*
X9655837Y3368456D01*
X9601771Y3346061D01*
X9601767Y3346058D01*
X9560386Y3304677D01*
X9537989Y3250608D01*
X9537988Y3250605D01*
X9537988Y3250603D01*
X9536282Y3233272D01*
X9535106Y3221335D01*
X9040100Y3221335D01*
X9005462Y3255973D01*
X9002080Y3258749D01*
X8993957Y3265415D01*
X8991360Y3268409D01*
X8986843Y3271252D01*
X8982726Y3274631D01*
X8982724Y3274632D01*
X8982723Y3274633D01*
X8975171Y3279160D01*
X8970182Y3281740D01*
X8966474Y3284074D01*
X8966467Y3284078D01*
X8966458Y3284083D01*
X8823614Y3355505D01*
X8796151Y3366013D01*
X8792593Y3366802D01*
X8789315Y3367576D01*
X8785799Y3368457D01*
X8781077Y3368922D01*
X8756535Y3371339D01*
X8185106Y3371339D01*
X8155842Y3368457D01*
X8155840Y3368457D01*
X8155837Y3368456D01*
X8101768Y3346059D01*
X8060386Y3304677D01*
X8037989Y3250608D01*
X8037988Y3250605D01*
X8037988Y3250603D01*
X8035106Y3221339D01*
X6406535Y3221339D01*
X6406110Y3225654D01*
X6403653Y3250603D01*
X6381255Y3304675D01*
X6381254Y3304676D01*
X6381254Y3304677D01*
X6339873Y3346058D01*
X6339869Y3346061D01*
X6285803Y3368456D01*
X6285799Y3368457D01*
X6227271Y3368457D01*
X6227270Y3368457D01*
X6227266Y3368456D01*
X6173200Y3346061D01*
X6173196Y3346058D01*
X6131815Y3304677D01*
X6109418Y3250608D01*
X6109417Y3250605D01*
X6109417Y3250603D01*
X6107711Y3233272D01*
X6106535Y3221335D01*
X3243333Y3221335D01*
X3238401Y3233241D01*
X3238400Y3233243D01*
X3238399Y3233245D01*
X3219744Y3255976D01*
X3219742Y3255978D01*
X3219739Y3255982D01*
X3148318Y3327403D01*
X3125588Y3346057D01*
X3125581Y3346062D01*
X3093911Y3359180D01*
X3071516Y3368456D01*
X3071514Y3368457D01*
X3071513Y3368457D01*
X3012985Y3368457D01*
X3012983Y3368457D01*
X3012981Y3368456D01*
X2990587Y3359180D01*
X2958915Y3346061D01*
X2957218Y3344927D01*
X2954204Y3342195D01*
X2936191Y3327412D01*
X2936187Y3327409D01*
X2864749Y3255970D01*
X2846121Y3233272D01*
X2846101Y3233247D01*
X2846100Y3233246D01*
X2846100Y3233245D01*
X2825930Y3184548D01*
X2823703Y3179172D01*
X2438442Y3179172D01*
X2434029Y3184549D01*
X2406297Y3212281D01*
X2362605Y3255973D01*
X2359223Y3258749D01*
X2351100Y3265415D01*
X2348503Y3268409D01*
X2343986Y3271252D01*
X2339869Y3274631D01*
X2339867Y3274632D01*
X2339866Y3274633D01*
X2332314Y3279160D01*
X2327325Y3281740D01*
X2323617Y3284074D01*
X2323610Y3284078D01*
X2323601Y3284083D01*
X2180757Y3355505D01*
X2153294Y3366013D01*
X2149736Y3366802D01*
X2146458Y3367576D01*
X2142942Y3368457D01*
X2138220Y3368922D01*
X2113678Y3371339D01*
X1542249Y3371339D01*
X1512985Y3368457D01*
X1512983Y3368457D01*
X1512980Y3368456D01*
X1458911Y3346059D01*
X1417529Y3304677D01*
X1395132Y3250608D01*
X1395131Y3250605D01*
X1395131Y3250603D01*
X1392249Y3221339D01*
X500500Y3221339D01*
X500500Y10765585D01*
X14512740Y10765585D01*
X14519147Y10695065D01*
X14519148Y10695060D01*
X14569720Y10532771D01*
X14657666Y10387290D01*
X14777861Y10267095D01*
X14923343Y10179148D01*
X14923342Y10179148D01*
X15085633Y10128577D01*
X15085631Y10128577D01*
X15156157Y10122168D01*
X15737739Y10122168D01*
X15819320Y10122168D01*
X15889841Y10128576D01*
X15889846Y10128577D01*
X16052135Y10179149D01*
X16197616Y10267095D01*
X16317811Y10387290D01*
X16405758Y10532772D01*
X16456329Y10695061D01*
X16462739Y10765595D01*
X16462739Y10772167D01*
X15737739Y10772167D01*
X15737739Y10122168D01*
X15156157Y10122168D01*
X15237738Y10122169D01*
X15237739Y10122169D01*
X15237739Y10772167D01*
X14512740Y10772167D01*
X14512740Y10765585D01*
X500500Y10765585D01*
X500500Y20134739D01*
X520185Y20201778D01*
X572989Y20247533D01*
X642147Y20257477D01*
X705703Y20228452D01*
G37*
%TD.AperFunction*%
%TA.AperFunction,Conductor*%
G36*
X34534067Y11845743D02*
G01*
X34563418Y11790288D01*
X34569594Y11764031D01*
X34569598Y11764018D01*
X34659460Y11560499D01*
X34756464Y11418890D01*
X34785197Y11376946D01*
X34942518Y11219625D01*
X34980281Y11193757D01*
X35024463Y11139632D01*
X35032369Y11070211D01*
X35028589Y11054569D01*
X35019148Y11024271D01*
X35012739Y10953740D01*
X35012739Y10947167D01*
X35421136Y10947167D01*
X35459453Y10941099D01*
X35547161Y10912601D01*
X35636370Y10883614D01*
X35869642Y10846667D01*
X35869647Y10846667D01*
X36105831Y10846667D01*
X38088240Y10846667D01*
X38155279Y10826982D01*
X38201034Y10774178D01*
X38212240Y10722667D01*
X38212240Y10439133D01*
X38222852Y10319752D01*
X38278828Y10124122D01*
X38278829Y10124119D01*
X38278830Y10124118D01*
X38373041Y9943760D01*
X38373043Y9943758D01*
X38501631Y9786056D01*
X38554719Y9742769D01*
X38594237Y9685149D01*
X38596329Y9615310D01*
X38560331Y9555427D01*
X38497673Y9524513D01*
X38476359Y9522667D01*
X32660628Y9522667D01*
X32593589Y9542352D01*
X32572947Y9558986D01*
X31691348Y10440585D01*
X35012740Y10440585D01*
X35019147Y10370065D01*
X35019148Y10370060D01*
X35069720Y10207771D01*
X35157666Y10062290D01*
X35277861Y9942095D01*
X35423343Y9854148D01*
X35423342Y9854148D01*
X35585633Y9803577D01*
X35585631Y9803577D01*
X35656157Y9797168D01*
X36237739Y9797168D01*
X36319320Y9797168D01*
X36389841Y9803576D01*
X36389846Y9803577D01*
X36552135Y9854149D01*
X36697616Y9942095D01*
X36817811Y10062290D01*
X36905758Y10207772D01*
X36956329Y10370061D01*
X36962739Y10440595D01*
X36962739Y10447167D01*
X36237739Y10447167D01*
X36237739Y9797168D01*
X35656157Y9797168D01*
X35737738Y9797169D01*
X35737739Y9797169D01*
X35737739Y10447167D01*
X35012740Y10447167D01*
X35012740Y10440585D01*
X31691348Y10440585D01*
X30649557Y11482376D01*
X30616072Y11543699D01*
X30613238Y11570058D01*
X30613239Y11697668D01*
X30632924Y11764707D01*
X30685728Y11810462D01*
X30737239Y11821667D01*
X34105836Y11821667D01*
X34211865Y11838462D01*
X34339107Y11858614D01*
X34404396Y11879829D01*
X34474234Y11881823D01*
X34534067Y11845743D01*
G37*
%TD.AperFunction*%
%TA.AperFunction,Conductor*%
G36*
X49004511Y18883368D02*
G01*
X52180920Y15706959D01*
X52214405Y15645636D01*
X52217239Y15619278D01*
X52217239Y15064139D01*
X52217240Y15064133D01*
X52227852Y14944752D01*
X52283828Y14749122D01*
X52283829Y14749119D01*
X52283830Y14749118D01*
X52378041Y14568760D01*
X52378043Y14568758D01*
X52506629Y14411058D01*
X52597390Y14337053D01*
X52664332Y14282469D01*
X52843863Y14188690D01*
X52894170Y14140204D01*
X52910277Y14072217D01*
X52887071Y14006313D01*
X52866792Y13985656D01*
X52866821Y13985627D01*
X52863717Y13982524D01*
X52860771Y13979522D01*
X52860552Y13979359D01*
X52860548Y13979355D01*
X52774388Y13864261D01*
X52774384Y13864254D01*
X52724142Y13729547D01*
X52724140Y13729540D01*
X52717739Y13670012D01*
X52717739Y12872167D01*
X53593739Y12872167D01*
X53660778Y12852482D01*
X53706533Y12799678D01*
X53717739Y12748167D01*
X53717739Y12496167D01*
X53698054Y12429128D01*
X53645250Y12383373D01*
X53593739Y12372167D01*
X52717739Y12372167D01*
X52717739Y11574323D01*
X52724140Y11514795D01*
X52724142Y11514788D01*
X52774384Y11380081D01*
X52774388Y11380074D01*
X52860548Y11264980D01*
X52885991Y11245933D01*
X52927861Y11189999D01*
X52932845Y11120307D01*
X52899359Y11058985D01*
X52838036Y11025500D01*
X52811679Y11022667D01*
X50160628Y11022667D01*
X50093589Y11042352D01*
X50072947Y11058986D01*
X49024558Y12107375D01*
X48991073Y12168698D01*
X48988239Y12195056D01*
X48988239Y18140265D01*
X48951292Y18373536D01*
X48892209Y18555373D01*
X48878307Y18598159D01*
X48878305Y18598162D01*
X48878305Y18598164D01*
X48806345Y18739392D01*
X48793449Y18808061D01*
X48819725Y18872802D01*
X48876832Y18913059D01*
X48946637Y18916051D01*
X49004511Y18883368D01*
G37*
%TD.AperFunction*%
%TA.AperFunction,Conductor*%
G36*
X24204611Y55876982D02*
G01*
X24250366Y55824178D01*
X24260310Y55755020D01*
X24231285Y55691464D01*
X24225253Y55684986D01*
X24165166Y55624900D01*
X24165163Y55624896D01*
X24076196Y55480660D01*
X24076191Y55480649D01*
X24022883Y55319774D01*
X24012739Y55220490D01*
X24012739Y55197167D01*
X26863739Y55197167D01*
X26930778Y55177482D01*
X26976533Y55124678D01*
X26987739Y55073167D01*
X26987739Y55021667D01*
X26968054Y54954628D01*
X26915250Y54908873D01*
X26863739Y54897667D01*
X24869642Y54897667D01*
X24636367Y54860720D01*
X24585028Y54844039D01*
X24556447Y54838353D01*
X24545264Y54837473D01*
X24545254Y54837471D01*
X24331343Y54783571D01*
X24165560Y54708268D01*
X24114279Y54697167D01*
X24012740Y54697167D01*
X24012740Y54675702D01*
X23993055Y54608663D01*
X23959360Y54573777D01*
X23949177Y54566723D01*
X23949161Y54566709D01*
X23793188Y54410736D01*
X23667565Y54229411D01*
X23576335Y54028563D01*
X23522435Y53814652D01*
X23512239Y53685106D01*
X23512239Y53682863D01*
X23510712Y53663465D01*
X23487239Y53515265D01*
X23487239Y53279070D01*
X23510712Y53130861D01*
X23512239Y53111491D01*
X23512239Y53109241D01*
X23522435Y52979682D01*
X23576335Y52765772D01*
X23667565Y52564924D01*
X23793188Y52383599D01*
X23949170Y52227617D01*
X24130495Y52101994D01*
X24130496Y52101994D01*
X24130500Y52101991D01*
X24240573Y52051994D01*
X24331343Y52010764D01*
X24331344Y52010764D01*
X24331346Y52010763D01*
X24545254Y51956863D01*
X24545262Y51956863D01*
X24545265Y51956862D01*
X24556435Y51955983D01*
X24585030Y51950296D01*
X24596706Y51946503D01*
X24636371Y51933614D01*
X24723849Y51919759D01*
X24869642Y51896667D01*
X24869647Y51896667D01*
X24913317Y51896667D01*
X24980356Y51876982D01*
X25026111Y51824178D01*
X25033090Y51804766D01*
X25082819Y51619173D01*
X25102100Y51547216D01*
X25102103Y51547206D01*
X25214993Y51274667D01*
X25214997Y51274657D01*
X25362500Y51019174D01*
X25542091Y50785127D01*
X25542097Y50785120D01*
X25750691Y50576526D01*
X25750695Y50576523D01*
X25750697Y50576521D01*
X25899281Y50462508D01*
X25922347Y50444809D01*
X25963549Y50388381D01*
X25967704Y50318635D01*
X25933491Y50257714D01*
X25916363Y50243742D01*
X25842886Y50194012D01*
X25842881Y50194008D01*
X25690898Y50042025D01*
X25690890Y50042016D01*
X25570416Y49864013D01*
X25485805Y49666428D01*
X25485802Y49666417D01*
X25441714Y49463745D01*
X25440115Y49456393D01*
X25437239Y49408115D01*
X25437239Y49408103D01*
X25437239Y48696667D01*
X25417554Y48629628D01*
X25364750Y48583873D01*
X25313239Y48572667D01*
X24610628Y48572667D01*
X24543589Y48592352D01*
X24522947Y48608986D01*
X23924558Y49207375D01*
X23891073Y49268698D01*
X23888239Y49295056D01*
X23888239Y49371263D01*
X23882892Y49448292D01*
X23881820Y49463734D01*
X23881818Y49463740D01*
X23881818Y49463745D01*
X23830884Y49680303D01*
X23830883Y49680306D01*
X23830882Y49680310D01*
X23741016Y49883838D01*
X23615281Y50067388D01*
X23615276Y50067394D01*
X23457965Y50224705D01*
X23457959Y50224710D01*
X23274407Y50350446D01*
X23070890Y50440307D01*
X23070874Y50440313D01*
X22854316Y50491247D01*
X22854300Y50491249D01*
X22761835Y50497667D01*
X22761831Y50497667D01*
X22213647Y50497667D01*
X22213643Y50497667D01*
X22121177Y50491249D01*
X22121161Y50491247D01*
X21904603Y50440313D01*
X21904596Y50440310D01*
X21773395Y50382379D01*
X21712825Y50355635D01*
X21643547Y50346564D01*
X21612653Y50355635D01*
X21568431Y50375161D01*
X21420882Y50440310D01*
X21420879Y50440311D01*
X21420874Y50440313D01*
X21204316Y50491247D01*
X21204300Y50491249D01*
X21120549Y50497062D01*
X21109737Y50498291D01*
X20955836Y50522667D01*
X20955831Y50522667D01*
X20719647Y50522667D01*
X20565730Y50498291D01*
X20554922Y50497063D01*
X20471169Y50491249D01*
X20254603Y50440313D01*
X20254587Y50440307D01*
X20051070Y50350446D01*
X19867518Y50224710D01*
X19867512Y50224705D01*
X19706143Y50063335D01*
X19705332Y50064146D01*
X19652282Y50028452D01*
X19614851Y50022667D01*
X18660628Y50022667D01*
X18593589Y50042352D01*
X18583412Y50049643D01*
X18577916Y50054017D01*
X18540249Y50091684D01*
X18429270Y50172316D01*
X18427141Y50174010D01*
X18408547Y50200444D01*
X18388806Y50226046D01*
X18388564Y50228854D01*
X18386944Y50231158D01*
X18385593Y50263454D01*
X18382827Y50295660D01*
X18384124Y50298557D01*
X18384024Y50300967D01*
X18389067Y50309587D01*
X18405091Y50345346D01*
X18431091Y50380078D01*
X18431093Y50380081D01*
X18481335Y50514788D01*
X18481337Y50514795D01*
X18487738Y50574323D01*
X18487739Y50574340D01*
X18487739Y50622167D01*
X16637739Y50622167D01*
X16637739Y50574323D01*
X16644140Y50514795D01*
X16644142Y50514788D01*
X16694384Y50380081D01*
X16694386Y50380078D01*
X16720387Y50345345D01*
X16744804Y50279880D01*
X16729952Y50211607D01*
X16694006Y50170717D01*
X16585235Y50091689D01*
X16585226Y50091682D01*
X16418223Y49924679D01*
X16279396Y49733602D01*
X16172172Y49523164D01*
X16099185Y49298536D01*
X16062239Y49065265D01*
X16062239Y48829070D01*
X16099185Y48595799D01*
X16172172Y48371171D01*
X16196169Y48324076D01*
X16214835Y48287441D01*
X16215930Y48285293D01*
X16228826Y48216624D01*
X16202550Y48151883D01*
X16145443Y48111626D01*
X16135469Y48111199D01*
X16225617Y46921599D01*
X16229445Y46917771D01*
X16252753Y46917771D01*
X16252767Y46917772D01*
X16352052Y46927915D01*
X16512926Y46981223D01*
X16512937Y46981228D01*
X16657173Y47070195D01*
X16657177Y47070198D01*
X16777016Y47190037D01*
X16858879Y47322757D01*
X16910827Y47369481D01*
X16979790Y47380704D01*
X17037303Y47357978D01*
X17181097Y47253506D01*
X17201306Y47238824D01*
X17320935Y47177870D01*
X17411742Y47131601D01*
X17411744Y47131601D01*
X17411747Y47131599D01*
X17636371Y47058614D01*
X17775273Y47036615D01*
X17792820Y47033835D01*
X17855954Y47003906D01*
X17892886Y46944595D01*
X17891888Y46874732D01*
X17853278Y46816499D01*
X17846308Y46811044D01*
X17791662Y46771342D01*
X12239307Y41218986D01*
X12177984Y41185501D01*
X12151626Y41182667D01*
X8157156Y41182667D01*
X8090117Y41202352D01*
X8061054Y41228306D01*
X8048848Y41243276D01*
X7891146Y41371865D01*
X7710788Y41466076D01*
X7710787Y41466077D01*
X7710784Y41466078D01*
X7593568Y41499617D01*
X7515157Y41522053D01*
X7515154Y41522054D01*
X7515152Y41522054D01*
X7448841Y41527950D01*
X7395776Y41532667D01*
X7395771Y41532667D01*
X5579710Y41532667D01*
X5579704Y41532667D01*
X5579703Y41532666D01*
X5568055Y41531631D01*
X5460323Y41522054D01*
X5264693Y41466078D01*
X5174511Y41418971D01*
X5084332Y41371865D01*
X5084330Y41371864D01*
X5084329Y41371863D01*
X4926629Y41243277D01*
X4798043Y41085577D01*
X4703828Y40905213D01*
X4647853Y40709584D01*
X4647852Y40709581D01*
X4637239Y40590201D01*
X4637239Y38774139D01*
X4637240Y38774133D01*
X4647852Y38654752D01*
X4703828Y38459122D01*
X4703829Y38459120D01*
X4703830Y38459118D01*
X4798040Y38278761D01*
X4798044Y38278755D01*
X4866430Y38194886D01*
X4893539Y38130490D01*
X4881529Y38061660D01*
X4877716Y38054527D01*
X4824514Y37962378D01*
X4824512Y37962373D01*
X4731686Y37738272D01*
X4668900Y37503953D01*
X4637239Y37263456D01*
X4637239Y37020879D01*
X4668900Y36780382D01*
X4731686Y36546063D01*
X4806012Y36366626D01*
X4824515Y36321955D01*
X4945803Y36111878D01*
X4945805Y36111875D01*
X4945806Y36111874D01*
X5071816Y35947653D01*
X5097010Y35882484D01*
X5082971Y35814039D01*
X5071816Y35796681D01*
X4945806Y35632461D01*
X4824516Y35422382D01*
X4824512Y35422373D01*
X4731686Y35198272D01*
X4668900Y34963953D01*
X4637239Y34723456D01*
X4637239Y34480879D01*
X4668900Y34240382D01*
X4731686Y34006063D01*
X4819569Y33793895D01*
X4824515Y33781955D01*
X4945803Y33571878D01*
X4945805Y33571875D01*
X4945806Y33571874D01*
X5071816Y33407653D01*
X5097010Y33342484D01*
X5082971Y33274039D01*
X5071816Y33256681D01*
X4945806Y33092461D01*
X4824516Y32882382D01*
X4824512Y32882373D01*
X4731686Y32658272D01*
X4668900Y32423953D01*
X4637239Y32183456D01*
X4637239Y31940879D01*
X4668900Y31700382D01*
X4731686Y31466063D01*
X4824512Y31241962D01*
X4824515Y31241955D01*
X4945803Y31031878D01*
X4945805Y31031875D01*
X4945806Y31031874D01*
X5071816Y30867653D01*
X5097010Y30802484D01*
X5082971Y30734039D01*
X5071816Y30716681D01*
X4945806Y30552461D01*
X4824516Y30342382D01*
X4824512Y30342373D01*
X4731686Y30118272D01*
X4668900Y29883953D01*
X4637239Y29643456D01*
X4637239Y29400879D01*
X4668900Y29160382D01*
X4731686Y28926063D01*
X4798802Y28764032D01*
X4824515Y28701955D01*
X4945803Y28491878D01*
X4945805Y28491875D01*
X4945806Y28491874D01*
X5071816Y28327653D01*
X5097010Y28262484D01*
X5082971Y28194039D01*
X5071816Y28176681D01*
X4945806Y28012461D01*
X4824516Y27802382D01*
X4824512Y27802373D01*
X4731686Y27578272D01*
X4668900Y27343953D01*
X4637239Y27103456D01*
X4637239Y26860879D01*
X4668900Y26620382D01*
X4731686Y26386063D01*
X4803842Y26211863D01*
X4824515Y26161955D01*
X4945803Y25951878D01*
X4945805Y25951875D01*
X4945806Y25951874D01*
X5071816Y25787653D01*
X5097010Y25722484D01*
X5082971Y25654039D01*
X5071816Y25636681D01*
X4945806Y25472461D01*
X4824516Y25262382D01*
X4824512Y25262373D01*
X4731686Y25038272D01*
X4668900Y24803953D01*
X4637239Y24563456D01*
X4637239Y24320879D01*
X4668900Y24080382D01*
X4731686Y23846063D01*
X4824512Y23621962D01*
X4824516Y23621953D01*
X4846713Y23583506D01*
X4945803Y23411878D01*
X4945805Y23411875D01*
X4945806Y23411874D01*
X5093472Y23219431D01*
X5093478Y23219424D01*
X5264995Y23047907D01*
X5265002Y23047901D01*
X5332585Y22996043D01*
X5403449Y22941667D01*
X5417303Y22931037D01*
X5458506Y22874609D01*
X5462661Y22804863D01*
X5442136Y22759776D01*
X5333115Y22609721D01*
X5236643Y22420385D01*
X5170981Y22218298D01*
X5170981Y22218295D01*
X5137739Y22008414D01*
X5137739Y21795921D01*
X5170981Y21586040D01*
X5170981Y21586037D01*
X5236643Y21383950D01*
X5333114Y21194617D01*
X5372467Y21140451D01*
X6004775Y21772760D01*
X6021814Y21709174D01*
X6087640Y21595160D01*
X6180732Y21502068D01*
X6294746Y21436242D01*
X6358329Y21419205D01*
X5726021Y20786898D01*
X5726021Y20786897D01*
X5780188Y20747543D01*
X5969521Y20651072D01*
X6171609Y20585410D01*
X6381493Y20552167D01*
X6593985Y20552167D01*
X6803866Y20585410D01*
X6803869Y20585410D01*
X7005956Y20651072D01*
X7195293Y20747545D01*
X7249455Y20786897D01*
X7249456Y20786897D01*
X6617147Y21419205D01*
X6680732Y21436242D01*
X6794746Y21502068D01*
X6887838Y21595160D01*
X6953664Y21709174D01*
X6970701Y21772758D01*
X7603009Y21140450D01*
X7603009Y21140451D01*
X7642361Y21194613D01*
X7738834Y21383950D01*
X7804496Y21586037D01*
X7804496Y21586040D01*
X7837739Y21795921D01*
X7837739Y22008414D01*
X7804496Y22218295D01*
X7804496Y22218298D01*
X7738834Y22420385D01*
X7642359Y22609725D01*
X7533342Y22759776D01*
X7509862Y22825582D01*
X7525688Y22893636D01*
X7558171Y22931035D01*
X7642893Y22996044D01*
X7708063Y23021237D01*
X7718379Y23021667D01*
X11605836Y23021667D01*
X11839107Y23058614D01*
X11845727Y23060765D01*
X12063731Y23131599D01*
X12274172Y23238824D01*
X12465249Y23377650D01*
X12603951Y23516352D01*
X17287739Y23516352D01*
X17298146Y23414494D01*
X17352833Y23249458D01*
X17352835Y23249453D01*
X17444109Y23101476D01*
X17567047Y22978538D01*
X17715024Y22887264D01*
X17715029Y22887262D01*
X17880065Y22832575D01*
X17981923Y22822168D01*
X17981936Y22822167D01*
X18237739Y22822167D01*
X18237739Y23559667D01*
X18737739Y23559667D01*
X18737739Y22822167D01*
X18993542Y22822167D01*
X18993554Y22822168D01*
X19095412Y22832575D01*
X19260448Y22887262D01*
X19260453Y22887264D01*
X19408430Y22978538D01*
X19531368Y23101476D01*
X19572300Y23167836D01*
X19624248Y23214560D01*
X19693211Y23225783D01*
X19757293Y23197939D01*
X19765520Y23190420D01*
X19782658Y23173282D01*
X19925661Y23085076D01*
X19925666Y23085074D01*
X20085155Y23032225D01*
X20183594Y23022168D01*
X20237738Y23022169D01*
X20237739Y23022169D01*
X20237739Y23709667D01*
X20737739Y23709667D01*
X20737739Y23022168D01*
X20791875Y23022168D01*
X20791891Y23022169D01*
X20890322Y23032224D01*
X21049811Y23085074D01*
X21049816Y23085076D01*
X21192819Y23173282D01*
X21311623Y23292086D01*
X21312024Y23292735D01*
X21312417Y23293089D01*
X21316107Y23297755D01*
X21316903Y23297126D01*
X21363966Y23339467D01*
X21432927Y23350697D01*
X21497013Y23322862D01*
X21505252Y23315333D01*
X21567047Y23253538D01*
X21715024Y23162264D01*
X21715029Y23162262D01*
X21880065Y23107575D01*
X21981923Y23097168D01*
X21981936Y23097167D01*
X22237739Y23097167D01*
X22737739Y23097167D01*
X22993542Y23097167D01*
X22993554Y23097168D01*
X23095412Y23107575D01*
X23260448Y23162262D01*
X23260453Y23162264D01*
X23408430Y23253538D01*
X23531368Y23376476D01*
X23622642Y23524453D01*
X23622644Y23524458D01*
X23677331Y23689494D01*
X23687738Y23791352D01*
X23687739Y23791365D01*
X23687739Y23834667D01*
X22737739Y23834667D01*
X22737739Y23097167D01*
X22237739Y23097167D01*
X22237739Y23834667D01*
X21592739Y23834667D01*
X21592739Y23833667D01*
X21573054Y23766628D01*
X21520250Y23720873D01*
X21468739Y23709667D01*
X20737739Y23709667D01*
X20237739Y23709667D01*
X19817739Y23709667D01*
X19817739Y23683667D01*
X19798054Y23616628D01*
X19745250Y23570873D01*
X19693739Y23559667D01*
X18737739Y23559667D01*
X18237739Y23559667D01*
X17287739Y23559667D01*
X17287739Y23516352D01*
X12603951Y23516352D01*
X12632256Y23544657D01*
X12771082Y23735734D01*
X12878307Y23946175D01*
X12879360Y23949419D01*
X12909612Y23998791D01*
X16776149Y27865327D01*
X16837472Y27898812D01*
X16907164Y27893828D01*
X16963097Y27851956D01*
X16987514Y27786492D01*
X16987448Y27767924D01*
X16987239Y27765267D01*
X16987239Y26644759D01*
X16967554Y26577720D01*
X16965167Y26574142D01*
X16944940Y26544948D01*
X16852315Y26341028D01*
X16797591Y26123847D01*
X16791601Y26047735D01*
X16787239Y25992315D01*
X16787239Y25377019D01*
X16797591Y25245487D01*
X16852315Y25028306D01*
X16898627Y24926347D01*
X16944940Y24824387D01*
X16944944Y24824381D01*
X17072480Y24640294D01*
X17072484Y24640289D01*
X17072487Y24640285D01*
X17176029Y24536743D01*
X17230859Y24481913D01*
X17283974Y24445115D01*
X17327870Y24390757D01*
X17335410Y24321295D01*
X17331064Y24304184D01*
X17298146Y24204844D01*
X17298146Y24204843D01*
X17287739Y24102983D01*
X17287739Y24059667D01*
X19382739Y24059667D01*
X19382739Y24085667D01*
X19402424Y24152706D01*
X19455228Y24198461D01*
X19506739Y24209667D01*
X19691942Y24209667D01*
X19743222Y24198567D01*
X19827169Y24160436D01*
X19975930Y24122952D01*
X19983885Y24120660D01*
X20091582Y24085667D01*
X20136370Y24071114D01*
X20369642Y24034167D01*
X20369647Y24034167D01*
X20605836Y24034167D01*
X20711865Y24050962D01*
X20839107Y24071114D01*
X20991573Y24120654D01*
X20999556Y24122954D01*
X21148309Y24160436D01*
X21348131Y24251199D01*
X21436751Y24312596D01*
X21503067Y24334592D01*
X21507367Y24334667D01*
X23687739Y24334667D01*
X23687739Y24377970D01*
X23687738Y24377983D01*
X23677331Y24479841D01*
X23644413Y24579183D01*
X23642011Y24649011D01*
X23677743Y24709053D01*
X23691498Y24720112D01*
X23744621Y24756915D01*
X23902991Y24915285D01*
X24030538Y25099388D01*
X24123163Y25303306D01*
X24177887Y25520487D01*
X24188239Y25652019D01*
X24188239Y26267315D01*
X24177887Y26398847D01*
X24123163Y26616028D01*
X24030538Y26819946D01*
X24010311Y26849142D01*
X23988314Y26915459D01*
X23988239Y26919759D01*
X23988239Y27815264D01*
X23975795Y27893828D01*
X23963859Y27969187D01*
X23962634Y27979963D01*
X23956820Y28063734D01*
X23956818Y28063740D01*
X23956818Y28063745D01*
X23905884Y28280303D01*
X23905883Y28280305D01*
X23905882Y28280310D01*
X23821206Y28472082D01*
X23812136Y28541359D01*
X23821207Y28572253D01*
X23905882Y28764024D01*
X23956820Y28980600D01*
X23963239Y29073075D01*
X23963239Y29621259D01*
X23956820Y29713734D01*
X23956818Y29713740D01*
X23956818Y29713745D01*
X23905884Y29930303D01*
X23905882Y29930306D01*
X23905882Y29930310D01*
X23898068Y29948006D01*
X23873804Y30002962D01*
X23863239Y30053047D01*
X23863239Y30077832D01*
X23882924Y30144871D01*
X23899553Y30165508D01*
X25630679Y31896635D01*
X25692000Y31930118D01*
X25761692Y31925134D01*
X25817625Y31883262D01*
X25842042Y31817798D01*
X25830744Y31756555D01*
X25825861Y31746084D01*
X25691447Y31376787D01*
X25691447Y31376785D01*
X25589732Y30997184D01*
X25589730Y30997173D01*
X25521490Y30610167D01*
X25521490Y30610163D01*
X25487239Y30218668D01*
X25487239Y29825667D01*
X25521490Y29434172D01*
X25521490Y29434168D01*
X25589730Y29047162D01*
X25589732Y29047152D01*
X25691446Y28667551D01*
X25815159Y28327653D01*
X25825863Y28298246D01*
X25991934Y27942105D01*
X25991946Y27942081D01*
X26188434Y27601755D01*
X26188443Y27601740D01*
X26413854Y27279820D01*
X26561842Y27103456D01*
X26666461Y26978776D01*
X26944348Y26700889D01*
X27057431Y26606001D01*
X27184609Y26499286D01*
X27223311Y26441115D01*
X27224419Y26371254D01*
X27187582Y26311884D01*
X27162316Y26294390D01*
X27004332Y26211865D01*
X27004330Y26211864D01*
X27004329Y26211863D01*
X26846629Y26083277D01*
X26718043Y25925577D01*
X26718041Y25925574D01*
X26703327Y25897405D01*
X26623828Y25745213D01*
X26567853Y25549584D01*
X26567852Y25549581D01*
X26557239Y25430201D01*
X26557239Y24845057D01*
X26537554Y24778018D01*
X26520920Y24757376D01*
X26263223Y24499679D01*
X26124396Y24308602D01*
X26098466Y24257710D01*
X26028335Y24120070D01*
X26022535Y24108688D01*
X26017169Y24098156D01*
X25944186Y23873540D01*
X25944186Y23873537D01*
X25907239Y23640265D01*
X25907239Y23191585D01*
X25887554Y23124546D01*
X25861604Y23095486D01*
X25846630Y23083276D01*
X25718043Y22925577D01*
X25623828Y22745213D01*
X25604251Y22676792D01*
X25568675Y22552456D01*
X25567853Y22549584D01*
X25567852Y22549581D01*
X25557239Y22430201D01*
X25557239Y21845057D01*
X25537554Y21778018D01*
X25520920Y21757376D01*
X24543223Y20779679D01*
X24404396Y20588602D01*
X24351976Y20485720D01*
X24297172Y20378164D01*
X24224185Y20153536D01*
X24187239Y19920265D01*
X24187239Y17004070D01*
X24210712Y16855869D01*
X24212239Y16836471D01*
X24212239Y15639139D01*
X24212240Y15639133D01*
X24222852Y15519752D01*
X24278828Y15324122D01*
X24278829Y15324119D01*
X24278830Y15324118D01*
X24373041Y15143760D01*
X24373043Y15143758D01*
X24501629Y14986058D01*
X24587689Y14915886D01*
X24659332Y14857469D01*
X24839690Y14763258D01*
X25035321Y14707281D01*
X25154702Y14696667D01*
X26220775Y14696668D01*
X26340157Y14707281D01*
X26340167Y14707285D01*
X26340579Y14707360D01*
X26340796Y14707338D01*
X26346029Y14707803D01*
X26346118Y14706794D01*
X26410086Y14700258D01*
X26464721Y14656705D01*
X26487135Y14590528D01*
X26487239Y14585448D01*
X26487239Y14471667D01*
X26467554Y14404628D01*
X26414750Y14358873D01*
X26363241Y14347667D01*
X26304712Y14347667D01*
X26304703Y14347666D01*
X26185323Y14337054D01*
X25989693Y14281078D01*
X25899511Y14233971D01*
X25809332Y14186865D01*
X25809330Y14186864D01*
X25809329Y14186863D01*
X25651629Y14058277D01*
X25523043Y13900577D01*
X25428828Y13720213D01*
X25372853Y13524586D01*
X25372748Y13524017D01*
X25372617Y13523759D01*
X25371232Y13518918D01*
X25370297Y13519186D01*
X25341149Y13461701D01*
X25280875Y13426361D01*
X25250834Y13422667D01*
X24374644Y13422667D01*
X24307605Y13442352D01*
X24261850Y13495156D01*
X24254333Y13518943D01*
X24254246Y13518918D01*
X24253333Y13522108D01*
X24252730Y13524017D01*
X24252625Y13524577D01*
X24252625Y13524585D01*
X24196648Y13720216D01*
X24102437Y13900574D01*
X24038196Y13979359D01*
X23973848Y14058277D01*
X23816148Y14186863D01*
X23816149Y14186863D01*
X23816146Y14186865D01*
X23635788Y14281076D01*
X23635787Y14281077D01*
X23635784Y14281078D01*
X23518568Y14314617D01*
X23440157Y14337053D01*
X23440154Y14337054D01*
X23440152Y14337054D01*
X23373841Y14342950D01*
X23320776Y14347667D01*
X23320771Y14347667D01*
X22254710Y14347667D01*
X22254704Y14347667D01*
X22254703Y14347666D01*
X22243850Y14346702D01*
X22135311Y14337053D01*
X22134880Y14336972D01*
X22134661Y14336995D01*
X22129449Y14336531D01*
X22129359Y14337537D01*
X22065374Y14344084D01*
X22010746Y14387646D01*
X21988342Y14453826D01*
X21988239Y14458887D01*
X21988239Y14572668D01*
X22007924Y14639707D01*
X22060728Y14685462D01*
X22112239Y14696668D01*
X22170767Y14696668D01*
X22170775Y14696668D01*
X22290157Y14707281D01*
X22485788Y14763258D01*
X22666146Y14857469D01*
X22823848Y14986058D01*
X22952437Y15143760D01*
X23046648Y15324118D01*
X23102625Y15519749D01*
X23113239Y15639130D01*
X23113238Y18605203D01*
X23102625Y18724585D01*
X23046648Y18920216D01*
X22952437Y19100574D01*
X22900423Y19164364D01*
X22823848Y19258277D01*
X22708672Y19352190D01*
X22666146Y19386865D01*
X22485788Y19481076D01*
X22485787Y19481077D01*
X22485784Y19481078D01*
X22368568Y19514617D01*
X22290157Y19537053D01*
X22290154Y19537054D01*
X22290152Y19537054D01*
X22223841Y19542950D01*
X22170776Y19547667D01*
X22170771Y19547667D01*
X18804710Y19547667D01*
X18804704Y19547667D01*
X18804703Y19547666D01*
X18793055Y19546631D01*
X18685323Y19537054D01*
X18489693Y19481078D01*
X18399511Y19433971D01*
X18309332Y19386865D01*
X18309330Y19386864D01*
X18309329Y19386863D01*
X18151629Y19258277D01*
X18023043Y19100577D01*
X18023041Y19100574D01*
X18004855Y19065759D01*
X17928828Y18920213D01*
X17872853Y18724584D01*
X17872852Y18724581D01*
X17862239Y18605201D01*
X17862239Y17296667D01*
X17842554Y17229628D01*
X17789750Y17183873D01*
X17738239Y17172667D01*
X8010629Y17172667D01*
X7943590Y17192352D01*
X7922948Y17208986D01*
X3524558Y21607376D01*
X3491073Y21668699D01*
X3488239Y21695057D01*
X3488239Y46100278D01*
X3507924Y46167317D01*
X3560728Y46213072D01*
X3629886Y46223016D01*
X3693442Y46193991D01*
X3699920Y46187959D01*
X4010229Y45877650D01*
X4118313Y45799122D01*
X4201306Y45738823D01*
X4261667Y45708068D01*
X4322030Y45677312D01*
X4411742Y45631601D01*
X4411744Y45631601D01*
X4411747Y45631599D01*
X4636371Y45558614D01*
X4831556Y45527700D01*
X4894690Y45497771D01*
X4908260Y45483587D01*
X4926629Y45461058D01*
X5020542Y45384483D01*
X5084332Y45332469D01*
X5264690Y45238258D01*
X5460321Y45182281D01*
X5579702Y45171667D01*
X7395775Y45171668D01*
X7515157Y45182281D01*
X7710788Y45238258D01*
X7891146Y45332469D01*
X8048848Y45461058D01*
X8061054Y45476029D01*
X8118676Y45515545D01*
X8157156Y45521667D01*
X13676939Y45521667D01*
X13910210Y45558614D01*
X13910213Y45558615D01*
X14134834Y45631599D01*
X14345276Y45738824D01*
X14536352Y45877650D01*
X15190096Y46531395D01*
X15226493Y46556610D01*
X15261684Y46572594D01*
X15443012Y46698219D01*
X15598996Y46854203D01*
X15606049Y46864384D01*
X15660403Y46908281D01*
X15707976Y46917771D01*
X15729445Y46917772D01*
X15729445Y47019311D01*
X15740546Y47070592D01*
X15744750Y47079846D01*
X15815849Y47236377D01*
X15869749Y47450285D01*
X15870629Y47461468D01*
X15876315Y47490063D01*
X15892998Y47541402D01*
X15921459Y47721098D01*
X15929945Y47774674D01*
X15929945Y48010868D01*
X15896736Y48220536D01*
X15892998Y48244139D01*
X15876315Y48295483D01*
X15870628Y48324072D01*
X15869749Y48335255D01*
X15815849Y48549163D01*
X15794666Y48595799D01*
X15740546Y48714950D01*
X15732995Y48736773D01*
X15683495Y48939174D01*
X15683570Y48940822D01*
X15682779Y48942271D01*
X15679945Y48968632D01*
X15679945Y49253884D01*
X15655518Y49408103D01*
X15649154Y49448287D01*
X15649153Y49448291D01*
X15649153Y49448292D01*
X15588330Y49635483D01*
X15588330Y49635484D01*
X15576754Y49658204D01*
X15563239Y49714498D01*
X15563239Y49862719D01*
X15546758Y49966770D01*
X15534910Y50041576D01*
X15506930Y50127691D01*
X15478951Y50213804D01*
X15478950Y50213807D01*
X15401609Y50365595D01*
X15388713Y50434264D01*
X15395765Y50462297D01*
X15395116Y50462508D01*
X15396620Y50467138D01*
X15396622Y50467141D01*
X15457448Y50654341D01*
X15478162Y50785127D01*
X15488239Y50848746D01*
X15488239Y50970012D01*
X16637739Y50970012D01*
X16637739Y50922167D01*
X17412739Y50922167D01*
X17712739Y50922167D01*
X18487739Y50922167D01*
X18487739Y50969995D01*
X18487738Y50970012D01*
X18481337Y51029540D01*
X18481335Y51029547D01*
X18431093Y51164254D01*
X18431089Y51164261D01*
X18344929Y51279355D01*
X18344926Y51279358D01*
X18229832Y51365518D01*
X18229825Y51365522D01*
X18095118Y51415764D01*
X18095111Y51415766D01*
X18035583Y51422167D01*
X17712739Y51422167D01*
X17712739Y50922167D01*
X17412739Y50922167D01*
X17412739Y51422167D01*
X17089894Y51422167D01*
X17030366Y51415766D01*
X17030359Y51415764D01*
X16895652Y51365522D01*
X16895645Y51365518D01*
X16780551Y51279358D01*
X16780548Y51279355D01*
X16694388Y51164261D01*
X16694384Y51164254D01*
X16644142Y51029547D01*
X16644140Y51029540D01*
X16637739Y50970012D01*
X15488239Y50970012D01*
X15488239Y51045590D01*
X15469443Y51164261D01*
X15457448Y51239994D01*
X15396622Y51427193D01*
X15396620Y51427196D01*
X15396620Y51427198D01*
X15335468Y51547215D01*
X15307262Y51602573D01*
X15191567Y51761813D01*
X14732074Y52221306D01*
X14701822Y52270674D01*
X14701499Y52271667D01*
X14699912Y52276554D01*
X14699911Y52276555D01*
X14699911Y52276557D01*
X14592686Y52486996D01*
X14583658Y52499422D01*
X14453861Y52678072D01*
X14286854Y52845079D01*
X14095777Y52983905D01*
X14060299Y53001982D01*
X13885340Y53091129D01*
X13660712Y53164116D01*
X13427441Y53201062D01*
X13427436Y53201062D01*
X13411247Y53201062D01*
X13344208Y53220747D01*
X13298453Y53273551D01*
X13288509Y53342709D01*
X13317534Y53406265D01*
X13323566Y53412743D01*
X15771170Y55860348D01*
X15832493Y55893833D01*
X15858851Y55896667D01*
X24137572Y55896667D01*
X24204611Y55876982D01*
G37*
%TD.AperFunction*%
%TA.AperFunction,Conductor*%
G36*
X59442539Y59479815D02*
G01*
X59488294Y59427011D01*
X59499500Y59375500D01*
X59499500Y15301795D01*
X59479815Y15234756D01*
X59427011Y15189001D01*
X59357853Y15179057D01*
X59294297Y15208082D01*
X59287819Y15214114D01*
X57794557Y16707376D01*
X57761072Y16768699D01*
X57758238Y16795057D01*
X57758238Y17180196D01*
X57758238Y17180203D01*
X57747625Y17299585D01*
X57691648Y17495216D01*
X57597437Y17675574D01*
X57527739Y17761052D01*
X57468848Y17833277D01*
X57311148Y17961863D01*
X57311149Y17961863D01*
X57311146Y17961865D01*
X57130788Y18056076D01*
X57130787Y18056077D01*
X57130784Y18056078D01*
X56994209Y18095156D01*
X56935157Y18112053D01*
X56935154Y18112054D01*
X56935152Y18112054D01*
X56868841Y18117950D01*
X56815776Y18122667D01*
X56815771Y18122667D01*
X55699710Y18122667D01*
X55699704Y18122667D01*
X55699703Y18122666D01*
X55688055Y18121631D01*
X55580323Y18112054D01*
X55384693Y18056078D01*
X55294511Y18008971D01*
X55204332Y17961865D01*
X55204330Y17961864D01*
X55204329Y17961863D01*
X55066100Y17849152D01*
X55001703Y17822043D01*
X54932874Y17834052D01*
X54909378Y17849152D01*
X54771148Y17961863D01*
X54771149Y17961863D01*
X54771146Y17961865D01*
X54590788Y18056076D01*
X54590787Y18056077D01*
X54590784Y18056078D01*
X54454209Y18095156D01*
X54395157Y18112053D01*
X54395154Y18112054D01*
X54395152Y18112054D01*
X54322370Y18118525D01*
X54275776Y18122667D01*
X54275772Y18122667D01*
X54060628Y18122667D01*
X53993589Y18142352D01*
X53972947Y18158986D01*
X49401947Y22729986D01*
X49368462Y22791309D01*
X49373446Y22861001D01*
X49415318Y22916934D01*
X49480782Y22941351D01*
X49489628Y22941667D01*
X52330924Y22941667D01*
X52397963Y22921982D01*
X52443718Y22869178D01*
X52453662Y22800020D01*
X52431242Y22744782D01*
X52333118Y22609725D01*
X52236643Y22420385D01*
X52170981Y22218298D01*
X52170981Y22218295D01*
X52137739Y22008414D01*
X52137739Y21795921D01*
X52170981Y21586040D01*
X52170981Y21586037D01*
X52236643Y21383950D01*
X52333114Y21194617D01*
X52372467Y21140451D01*
X53004775Y21772760D01*
X53021814Y21709174D01*
X53087640Y21595160D01*
X53180732Y21502068D01*
X53294746Y21436242D01*
X53358329Y21419205D01*
X52726021Y20786898D01*
X52726021Y20786897D01*
X52780188Y20747543D01*
X52969521Y20651072D01*
X53171609Y20585410D01*
X53381493Y20552167D01*
X53593985Y20552167D01*
X53803866Y20585410D01*
X53803869Y20585410D01*
X54005956Y20651072D01*
X54195293Y20747545D01*
X54249455Y20786897D01*
X54249456Y20786897D01*
X53617147Y21419205D01*
X53680732Y21436242D01*
X53794746Y21502068D01*
X53887838Y21595160D01*
X53953664Y21709174D01*
X53970701Y21772758D01*
X54603009Y21140450D01*
X54603009Y21140451D01*
X54642361Y21194613D01*
X54738834Y21383950D01*
X54804496Y21586037D01*
X54804496Y21586040D01*
X54837739Y21795921D01*
X54837739Y22008414D01*
X54804496Y22218295D01*
X54804496Y22218298D01*
X54738834Y22420385D01*
X54642359Y22609725D01*
X54533342Y22759776D01*
X54509862Y22825582D01*
X54525688Y22893636D01*
X54558171Y22931035D01*
X54710477Y23047902D01*
X54882004Y23219429D01*
X55029675Y23411878D01*
X55150963Y23621955D01*
X55243793Y23846067D01*
X55306577Y24080378D01*
X55338239Y24320879D01*
X55338239Y24563455D01*
X55336168Y24579183D01*
X55328123Y24640294D01*
X55306577Y24803956D01*
X55243793Y25038267D01*
X55150963Y25262379D01*
X55029675Y25472456D01*
X54903661Y25636681D01*
X54878467Y25701850D01*
X54892505Y25770295D01*
X54903661Y25787653D01*
X54987877Y25897406D01*
X55029675Y25951878D01*
X55150963Y26161955D01*
X55243793Y26386067D01*
X55306577Y26620378D01*
X55338239Y26860879D01*
X55338239Y27103455D01*
X55306577Y27343956D01*
X55243793Y27578267D01*
X55150963Y27802379D01*
X55029675Y28012456D01*
X54903661Y28176681D01*
X54878467Y28241850D01*
X54892505Y28310295D01*
X54903661Y28327653D01*
X54904838Y28329188D01*
X55029675Y28491878D01*
X55150963Y28701955D01*
X55243793Y28926067D01*
X55306577Y29160378D01*
X55338239Y29400879D01*
X55338239Y29643455D01*
X55306577Y29883956D01*
X55243793Y30118267D01*
X55150963Y30342379D01*
X55029675Y30552456D01*
X54903661Y30716681D01*
X54878467Y30781850D01*
X54892505Y30850295D01*
X54903661Y30867653D01*
X54904838Y30869188D01*
X55029675Y31031878D01*
X55150963Y31241955D01*
X55243793Y31466067D01*
X55306577Y31700378D01*
X55338239Y31940879D01*
X55338239Y32183455D01*
X55306577Y32423956D01*
X55243793Y32658267D01*
X55150963Y32882379D01*
X55029675Y33092456D01*
X54903661Y33256681D01*
X54878467Y33321850D01*
X54892505Y33390295D01*
X54903661Y33407653D01*
X54904838Y33409188D01*
X55029675Y33571878D01*
X55150963Y33781955D01*
X55243793Y34006067D01*
X55306577Y34240378D01*
X55338239Y34480879D01*
X55338239Y34723455D01*
X55306577Y34963956D01*
X55243793Y35198267D01*
X55150963Y35422379D01*
X55029675Y35632456D01*
X54903661Y35796681D01*
X54878467Y35861850D01*
X54892505Y35930295D01*
X54903661Y35947653D01*
X54963065Y36025070D01*
X55029675Y36111878D01*
X55150963Y36321955D01*
X55243793Y36546067D01*
X55306577Y36780378D01*
X55338239Y37020879D01*
X55338239Y37263455D01*
X55306577Y37503956D01*
X55243793Y37738267D01*
X55150963Y37962379D01*
X55150957Y37962390D01*
X55097762Y38054528D01*
X55081289Y38122428D01*
X55104142Y38188455D01*
X55109046Y38194886D01*
X55177437Y38278760D01*
X55271648Y38459118D01*
X55327625Y38654749D01*
X55338239Y38774130D01*
X55338238Y40590203D01*
X55327625Y40709585D01*
X55271648Y40905216D01*
X55177437Y41085574D01*
X55098268Y41182667D01*
X55048848Y41243277D01*
X54891148Y41371863D01*
X54891149Y41371863D01*
X54891146Y41371865D01*
X54710788Y41466076D01*
X54710787Y41466077D01*
X54710784Y41466078D01*
X54593568Y41499617D01*
X54515157Y41522053D01*
X54515154Y41522054D01*
X54515152Y41522054D01*
X54448841Y41527950D01*
X54395776Y41532667D01*
X54395771Y41532667D01*
X52579710Y41532667D01*
X52579704Y41532667D01*
X52579703Y41532666D01*
X52568055Y41531631D01*
X52460323Y41522054D01*
X52264693Y41466078D01*
X52174511Y41418971D01*
X52084332Y41371865D01*
X52084330Y41371864D01*
X52084329Y41371863D01*
X51926632Y41243278D01*
X51914424Y41228306D01*
X51856802Y41188789D01*
X51818322Y41182667D01*
X51369642Y41182667D01*
X51132359Y41145085D01*
X51063065Y41154040D01*
X51025280Y41179877D01*
X44484059Y47721098D01*
X44450574Y47782421D01*
X44455558Y47852113D01*
X44484059Y47896460D01*
X46051344Y49463745D01*
X47672256Y51084657D01*
X47811082Y51275733D01*
X47918307Y51486175D01*
X47932857Y51530956D01*
X47991292Y51710799D01*
X48010516Y51832174D01*
X48028239Y51944070D01*
X48028239Y52852751D01*
X48047924Y52919790D01*
X48073877Y52948852D01*
X48088848Y52961058D01*
X48217437Y53118760D01*
X48311648Y53299118D01*
X48367625Y53494749D01*
X48378239Y53614130D01*
X48378238Y53887057D01*
X48397922Y53954094D01*
X48450726Y53999849D01*
X48519885Y54009793D01*
X48583440Y53980768D01*
X48589919Y53974736D01*
X49075920Y53488736D01*
X49109405Y53427413D01*
X49112239Y53401055D01*
X49112239Y50913913D01*
X49117421Y50881197D01*
X49141896Y50726667D01*
X49146108Y50700069D01*
X49213011Y50494161D01*
X49213012Y50494158D01*
X49271138Y50380081D01*
X49309134Y50305510D01*
X49311308Y50301245D01*
X49438560Y50126096D01*
X49438564Y50126091D01*
X51051662Y48512993D01*
X51051667Y48512989D01*
X51204441Y48401993D01*
X51226820Y48385734D01*
X51325892Y48335254D01*
X51419725Y48287443D01*
X51419727Y48287443D01*
X51419730Y48287441D01*
X51553000Y48244139D01*
X51576898Y48236374D01*
X51634573Y48196936D01*
X51661771Y48132577D01*
X51657795Y48084334D01*
X51647854Y48049591D01*
X51647852Y48049581D01*
X51637239Y47930201D01*
X51637239Y46114139D01*
X51637240Y46114133D01*
X51647852Y45994752D01*
X51703828Y45799122D01*
X51703829Y45799119D01*
X51703830Y45799118D01*
X51798041Y45618760D01*
X51798043Y45618758D01*
X51926629Y45461058D01*
X52020542Y45384483D01*
X52084332Y45332469D01*
X52264690Y45238258D01*
X52460321Y45182281D01*
X52579702Y45171667D01*
X54395775Y45171668D01*
X54515157Y45182281D01*
X54710788Y45238258D01*
X54891146Y45332469D01*
X55048848Y45461058D01*
X55061054Y45476029D01*
X55118676Y45515545D01*
X55157156Y45521667D01*
X56105836Y45521667D01*
X56339107Y45558614D01*
X56339110Y45558615D01*
X56563731Y45631599D01*
X56774173Y45738824D01*
X56965249Y45877650D01*
X57632257Y46544657D01*
X57771082Y46735734D01*
X57878307Y46946175D01*
X57951292Y47170799D01*
X57961678Y47236375D01*
X57988239Y47404070D01*
X57988239Y57640265D01*
X57951292Y57873536D01*
X57879814Y58093520D01*
X57878751Y58097287D01*
X57878307Y58098159D01*
X57878307Y58098160D01*
X57771082Y58308601D01*
X57632256Y58499677D01*
X56844114Y59287819D01*
X56810629Y59349142D01*
X56815613Y59418834D01*
X56857485Y59474767D01*
X56922949Y59499184D01*
X56931795Y59499500D01*
X59375500Y59499500D01*
X59442539Y59479815D01*
G37*
%TD.AperFunction*%
%TA.AperFunction,Conductor*%
G36*
X34603008Y23760451D02*
G01*
X34633436Y23762845D01*
X34701813Y23748481D01*
X34751570Y23699430D01*
X34766104Y23655412D01*
X34775744Y23582185D01*
X34775745Y23582180D01*
X34775746Y23582174D01*
X34852100Y23297216D01*
X34852103Y23297206D01*
X34964993Y23024667D01*
X34964997Y23024657D01*
X35112500Y22769174D01*
X35292090Y22535128D01*
X35292092Y22535126D01*
X35292093Y22535125D01*
X35450921Y22376297D01*
X35484405Y22314975D01*
X35487239Y22288617D01*
X35487239Y19695057D01*
X35467554Y19628018D01*
X35450920Y19607376D01*
X34843219Y18999675D01*
X34829182Y18980355D01*
X34773850Y18937692D01*
X34704236Y18931716D01*
X34664717Y18947128D01*
X34552134Y19015187D01*
X34552135Y19015187D01*
X34389844Y19065758D01*
X34389845Y19065758D01*
X34319311Y19072167D01*
X34237739Y19072167D01*
X34237739Y18296167D01*
X34218054Y18229128D01*
X34165250Y18183373D01*
X34113739Y18172167D01*
X33987739Y18172167D01*
X33987739Y18146667D01*
X33968054Y18079628D01*
X33915250Y18033873D01*
X33863739Y18022667D01*
X31887238Y18022667D01*
X31820199Y18042352D01*
X31774444Y18095156D01*
X31763238Y18146667D01*
X31763238Y18428740D01*
X33012739Y18428740D01*
X33012739Y18422167D01*
X33737739Y18422167D01*
X33737739Y19072167D01*
X33737738Y19072168D01*
X33656156Y19072167D01*
X33585636Y19065759D01*
X33585631Y19065758D01*
X33423342Y19015186D01*
X33277861Y18927240D01*
X33157666Y18807045D01*
X33069719Y18661563D01*
X33019148Y18499274D01*
X33012739Y18428740D01*
X31763238Y18428740D01*
X31763238Y18605196D01*
X31763238Y18605199D01*
X31763238Y18605203D01*
X31752625Y18724585D01*
X31696648Y18920216D01*
X31602437Y19100574D01*
X31550423Y19164364D01*
X31473848Y19258277D01*
X31358672Y19352190D01*
X31316146Y19386865D01*
X31135788Y19481076D01*
X31135787Y19481077D01*
X31135784Y19481078D01*
X31018568Y19514617D01*
X30940157Y19537053D01*
X30940154Y19537054D01*
X30940152Y19537054D01*
X30867370Y19543525D01*
X30820776Y19547667D01*
X30820772Y19547667D01*
X30639854Y19547667D01*
X30572815Y19567352D01*
X30527060Y19620156D01*
X30517116Y19689314D01*
X30546141Y19752870D01*
X30592402Y19786228D01*
X30767939Y19858938D01*
X30767939Y19858939D01*
X30767951Y19858943D01*
X30978028Y19980231D01*
X31170477Y20127902D01*
X31342004Y20299429D01*
X31458871Y20451734D01*
X31515296Y20492935D01*
X31585042Y20497090D01*
X31630130Y20476564D01*
X31780181Y20367547D01*
X31969521Y20271072D01*
X32171609Y20205410D01*
X32381493Y20172167D01*
X32593985Y20172167D01*
X32803866Y20205410D01*
X32803869Y20205410D01*
X33005956Y20271072D01*
X33195293Y20367545D01*
X33249455Y20406897D01*
X33249456Y20406897D01*
X32617148Y21039205D01*
X32680732Y21056242D01*
X32794746Y21122068D01*
X32887838Y21215160D01*
X32953664Y21329174D01*
X32970701Y21392759D01*
X33603009Y20760450D01*
X33603009Y20760451D01*
X33642361Y20814613D01*
X33738834Y21003950D01*
X33804496Y21206037D01*
X33804496Y21206040D01*
X33837739Y21415921D01*
X33837739Y21628414D01*
X33804496Y21838295D01*
X33804496Y21838298D01*
X33738834Y22040385D01*
X33642363Y22229718D01*
X33603009Y22283885D01*
X33603008Y22283885D01*
X32970701Y21651577D01*
X32953664Y21715160D01*
X32887838Y21829174D01*
X32794746Y21922266D01*
X32680732Y21988092D01*
X32617146Y22005131D01*
X33249455Y22637439D01*
X33195289Y22676792D01*
X33005956Y22773263D01*
X32803868Y22838925D01*
X32593985Y22872167D01*
X32381493Y22872167D01*
X32177866Y22839916D01*
X32108572Y22848871D01*
X32055120Y22893867D01*
X32034481Y22960619D01*
X32053206Y23027932D01*
X32082982Y23060765D01*
X32114665Y23085076D01*
X32170477Y23127902D01*
X32342004Y23299429D01*
X32458871Y23451734D01*
X32515296Y23492935D01*
X32585042Y23497090D01*
X32630130Y23476564D01*
X32780181Y23367547D01*
X32969521Y23271072D01*
X33171609Y23205410D01*
X33381493Y23172167D01*
X33593985Y23172167D01*
X33803866Y23205410D01*
X33803869Y23205410D01*
X34005956Y23271072D01*
X34195293Y23367545D01*
X34249455Y23406897D01*
X34249456Y23406897D01*
X33617148Y24039205D01*
X33680732Y24056242D01*
X33794746Y24122068D01*
X33887838Y24215160D01*
X33953664Y24329174D01*
X33970701Y24392759D01*
X34603008Y23760451D01*
G37*
%TD.AperFunction*%
%TA.AperFunction,Conductor*%
G36*
X35906573Y26893237D02*
G01*
X35962506Y26851365D01*
X35986923Y26785901D01*
X35987239Y26777055D01*
X35987239Y26114774D01*
X35967554Y26047735D01*
X35925239Y26007387D01*
X35734745Y25897406D01*
X35500698Y25717815D01*
X35500691Y25717809D01*
X35292097Y25509215D01*
X35292091Y25509208D01*
X35112500Y25275161D01*
X34963838Y25017670D01*
X34913271Y24969454D01*
X34844664Y24956231D01*
X34779799Y24982199D01*
X34741372Y25036163D01*
X34740699Y25035884D01*
X34739486Y25038812D01*
X34739271Y25039114D01*
X34738888Y25040256D01*
X34738836Y25040382D01*
X34642363Y25229718D01*
X34603009Y25283885D01*
X34603008Y25283885D01*
X33970701Y24651577D01*
X33953664Y24715160D01*
X33887838Y24829174D01*
X33794746Y24922266D01*
X33680732Y24988092D01*
X33617146Y25005131D01*
X33763184Y25151168D01*
X33812548Y25181418D01*
X34015742Y25247439D01*
X34015748Y25247441D01*
X34208658Y25345734D01*
X34260879Y25383675D01*
X34383077Y25472456D01*
X34383813Y25472991D01*
X34383813Y25472992D01*
X34383817Y25472994D01*
X35775558Y26864737D01*
X35836881Y26898221D01*
X35906573Y26893237D01*
G37*
%TD.AperFunction*%
%TA.AperFunction,Conductor*%
G36*
X13287499Y57479815D02*
G01*
X13333254Y57427011D01*
X13343198Y57357853D01*
X13314173Y57294297D01*
X13308141Y57287820D01*
X11410584Y55390263D01*
X9534307Y53513986D01*
X9472984Y53480501D01*
X9446626Y53477667D01*
X7777025Y53477667D01*
X7709986Y53497352D01*
X7701539Y53503291D01*
X7558174Y53613299D01*
X7516971Y53669727D01*
X7512816Y53739473D01*
X7533342Y53784561D01*
X7642361Y53934613D01*
X7738834Y54123950D01*
X7804496Y54326037D01*
X7804496Y54326040D01*
X7837739Y54535921D01*
X7837739Y54748414D01*
X7804496Y54958295D01*
X7804496Y54958298D01*
X7738834Y55160385D01*
X7642363Y55349718D01*
X7603009Y55403885D01*
X7603008Y55403885D01*
X6970701Y54771578D01*
X6953664Y54835160D01*
X6887838Y54949174D01*
X6794746Y55042266D01*
X6680732Y55108092D01*
X6617148Y55125130D01*
X7249455Y55757439D01*
X7195289Y55796792D01*
X7005956Y55893263D01*
X6803868Y55958925D01*
X6593985Y55992167D01*
X6381493Y55992167D01*
X6171611Y55958925D01*
X6171608Y55958925D01*
X5969521Y55893263D01*
X5780178Y55796787D01*
X5726021Y55757440D01*
X5726021Y55757439D01*
X6358330Y55125130D01*
X6294746Y55108092D01*
X6180732Y55042266D01*
X6087640Y54949174D01*
X6021814Y54835160D01*
X6004776Y54771576D01*
X5372467Y55403885D01*
X5372466Y55403885D01*
X5333119Y55349728D01*
X5236643Y55160385D01*
X5170981Y54958298D01*
X5170981Y54958295D01*
X5137739Y54748414D01*
X5137739Y54535921D01*
X5170981Y54326040D01*
X5170981Y54326037D01*
X5236643Y54123950D01*
X5333118Y53934610D01*
X5442135Y53784559D01*
X5465615Y53718753D01*
X5449789Y53650699D01*
X5417303Y53613298D01*
X5265002Y53496434D01*
X5264995Y53496428D01*
X5093478Y53324911D01*
X5093472Y53324904D01*
X4945806Y53132461D01*
X4945803Y53132457D01*
X4945803Y53132456D01*
X4933699Y53111491D01*
X4824516Y52922382D01*
X4824512Y52922373D01*
X4731686Y52698272D01*
X4668900Y52463953D01*
X4637239Y52223456D01*
X4637239Y51980879D01*
X4668900Y51740382D01*
X4731686Y51506063D01*
X4824512Y51281962D01*
X4824516Y51281953D01*
X4846713Y51243506D01*
X4945803Y51071878D01*
X4945805Y51071875D01*
X4945806Y51071874D01*
X5071816Y50907653D01*
X5097010Y50842484D01*
X5082971Y50774039D01*
X5071816Y50756681D01*
X4945806Y50592461D01*
X4824516Y50382382D01*
X4824512Y50382373D01*
X4731686Y50158272D01*
X4668900Y49923953D01*
X4648099Y49765950D01*
X4619832Y49702053D01*
X4561508Y49663582D01*
X4491643Y49662751D01*
X4437479Y49694454D01*
X3524558Y50607375D01*
X3491073Y50668698D01*
X3488239Y50695056D01*
X3488239Y54849278D01*
X3507924Y54916317D01*
X3524558Y54936959D01*
X4385460Y55797861D01*
X4875666Y56288066D01*
X6050781Y57463181D01*
X6112104Y57496666D01*
X6138462Y57499500D01*
X13220460Y57499500D01*
X13287499Y57479815D01*
G37*
%TD.AperFunction*%
%TA.AperFunction,Conductor*%
G36*
X36034917Y55876982D02*
G01*
X36080672Y55824178D01*
X36090616Y55755020D01*
X36075265Y55710667D01*
X35964997Y55519678D01*
X35964993Y55519668D01*
X35852103Y55247129D01*
X35852100Y55247119D01*
X35782695Y54988092D01*
X35775747Y54962163D01*
X35775745Y54962152D01*
X35737239Y54669681D01*
X35737239Y54374654D01*
X35764237Y54169591D01*
X35775746Y54082174D01*
X35818931Y53921005D01*
X35852100Y53797216D01*
X35852103Y53797206D01*
X35964993Y53524667D01*
X35964997Y53524657D01*
X36112500Y53269174D01*
X36292091Y53035127D01*
X36292097Y53035120D01*
X36500691Y52826526D01*
X36500698Y52826520D01*
X36734745Y52646929D01*
X36990228Y52499426D01*
X36990229Y52499426D01*
X36990232Y52499424D01*
X37262787Y52386528D01*
X37547746Y52310174D01*
X37840233Y52271667D01*
X37840240Y52271667D01*
X38135238Y52271667D01*
X38135245Y52271667D01*
X38427732Y52310174D01*
X38712691Y52386528D01*
X38985246Y52499424D01*
X39240733Y52646929D01*
X39474781Y52826521D01*
X39633609Y52985350D01*
X39694931Y53018833D01*
X39721289Y53021667D01*
X40321358Y53021667D01*
X40388397Y53001982D01*
X40396844Y52996043D01*
X40417451Y52980231D01*
X40627524Y52858945D01*
X40627525Y52858945D01*
X40627528Y52858943D01*
X40851640Y52766113D01*
X41085951Y52703329D01*
X41266326Y52679583D01*
X41326451Y52671667D01*
X41326452Y52671667D01*
X41569029Y52671667D01*
X41617702Y52678075D01*
X41809529Y52703329D01*
X42043840Y52766113D01*
X42267952Y52858943D01*
X42478029Y52980231D01*
X42670478Y53127902D01*
X42842005Y53299429D01*
X42958870Y53451732D01*
X43015298Y53492934D01*
X43085044Y53497089D01*
X43130131Y53476563D01*
X43280181Y53367547D01*
X43469521Y53271072D01*
X43671609Y53205410D01*
X43881493Y53172167D01*
X44093985Y53172167D01*
X44303866Y53205410D01*
X44303869Y53205410D01*
X44505958Y53271073D01*
X44596025Y53316965D01*
X44664694Y53329862D01*
X44729434Y53303587D01*
X44762229Y53263893D01*
X44838039Y53118763D01*
X44838041Y53118760D01*
X44917210Y53021667D01*
X44943478Y52989451D01*
X44966630Y52961058D01*
X44981598Y52948853D01*
X45021116Y52891235D01*
X45027239Y52852751D01*
X45027239Y52735056D01*
X45007554Y52668017D01*
X44990920Y52647375D01*
X42902531Y50558986D01*
X42841208Y50525501D01*
X42814850Y50522667D01*
X33869642Y50522667D01*
X33636370Y50485721D01*
X33411742Y50412734D01*
X33201302Y50305509D01*
X33159075Y50274829D01*
X33093268Y50251350D01*
X33025214Y50267177D01*
X33016689Y50272457D01*
X32954584Y50314490D01*
X32757000Y50399100D01*
X32756998Y50399101D01*
X32735876Y50403696D01*
X32674556Y50437182D01*
X32641072Y50498506D01*
X32638239Y50524861D01*
X32638239Y50994253D01*
X32657924Y51061292D01*
X32674554Y51081930D01*
X32930171Y51337548D01*
X32930178Y51337553D01*
X32937238Y51344613D01*
X32937240Y51344614D01*
X33065292Y51472666D01*
X33171735Y51619173D01*
X33253950Y51780528D01*
X33278115Y51854901D01*
X33317551Y51912577D01*
X33381910Y51939776D01*
X33423509Y51937505D01*
X33424916Y51937186D01*
X33545254Y51906863D01*
X33565411Y51905277D01*
X33574176Y51903286D01*
X33576489Y51901996D01*
X33585028Y51900297D01*
X33636370Y51883615D01*
X33675249Y51877458D01*
X33869642Y51846668D01*
X33869647Y51846668D01*
X34105836Y51846668D01*
X34211865Y51863463D01*
X34339107Y51883615D01*
X34390445Y51900297D01*
X34419041Y51905983D01*
X34430215Y51906862D01*
X34430215Y51906863D01*
X34430224Y51906863D01*
X34644132Y51960763D01*
X34844978Y52051991D01*
X35026306Y52177616D01*
X35182290Y52333600D01*
X35307915Y52514928D01*
X35399143Y52715774D01*
X35453043Y52929682D01*
X35463239Y53059234D01*
X35463238Y53061468D01*
X35464764Y53080873D01*
X35488238Y53229075D01*
X35488238Y53465259D01*
X35488238Y53465265D01*
X35464765Y53613465D01*
X35463238Y53632863D01*
X35463238Y53635092D01*
X35463237Y53635107D01*
X35462010Y53650699D01*
X35453043Y53764652D01*
X35399143Y53978560D01*
X35384956Y54009793D01*
X35352080Y54082172D01*
X35307915Y54179406D01*
X35292574Y54201549D01*
X35182289Y54360736D01*
X35026316Y54516709D01*
X35026309Y54516715D01*
X35026306Y54516718D01*
X35016120Y54523775D01*
X34972225Y54578134D01*
X34962739Y54625701D01*
X34962739Y54647167D01*
X34861199Y54647167D01*
X34809916Y54658269D01*
X34799787Y54662870D01*
X34778184Y54675450D01*
X34599173Y54805510D01*
X34388835Y54912682D01*
X34338039Y54960656D01*
X34321244Y55028477D01*
X34343781Y55094612D01*
X34398496Y55138064D01*
X34445130Y55147167D01*
X34962738Y55147167D01*
X34962738Y55170475D01*
X34962737Y55170490D01*
X34952594Y55269775D01*
X34899286Y55430649D01*
X34899281Y55430660D01*
X34810314Y55574896D01*
X34810311Y55574900D01*
X34700225Y55684986D01*
X34666740Y55746309D01*
X34671724Y55816001D01*
X34713596Y55871934D01*
X34779060Y55896351D01*
X34787906Y55896667D01*
X35967878Y55896667D01*
X36034917Y55876982D01*
G37*
%TD.AperFunction*%
%TA.AperFunction,Conductor*%
G36*
X54404056Y57479815D02*
G01*
X54424698Y57463181D01*
X54950920Y56936959D01*
X54984405Y56875636D01*
X54987239Y56849278D01*
X54987239Y55178779D01*
X54967554Y55111740D01*
X54914750Y55065985D01*
X54845592Y55056041D01*
X54782036Y55085066D01*
X54745308Y55140461D01*
X54738834Y55160385D01*
X54642363Y55349718D01*
X54603009Y55403885D01*
X54603008Y55403885D01*
X53970701Y54771578D01*
X53953664Y54835160D01*
X53887838Y54949174D01*
X53794746Y55042266D01*
X53680732Y55108092D01*
X53617148Y55125130D01*
X54249455Y55757439D01*
X54195289Y55796792D01*
X54005956Y55893263D01*
X53803868Y55958925D01*
X53593985Y55992167D01*
X53381493Y55992167D01*
X53171611Y55958925D01*
X53171608Y55958925D01*
X52969521Y55893263D01*
X52780178Y55796787D01*
X52726021Y55757440D01*
X52726021Y55757439D01*
X53358330Y55125130D01*
X53294746Y55108092D01*
X53180732Y55042266D01*
X53087640Y54949174D01*
X53021814Y54835160D01*
X53004776Y54771576D01*
X52372467Y55403885D01*
X52372466Y55403885D01*
X52333119Y55349728D01*
X52236643Y55160385D01*
X52170981Y54958298D01*
X52170981Y54958295D01*
X52137739Y54748414D01*
X52137739Y54535921D01*
X52170981Y54326040D01*
X52170981Y54326037D01*
X52236643Y54123950D01*
X52333118Y53934610D01*
X52442135Y53784559D01*
X52465615Y53718753D01*
X52449789Y53650699D01*
X52417303Y53613298D01*
X52265002Y53496434D01*
X52264995Y53496428D01*
X52093475Y53324908D01*
X52085614Y53314662D01*
X52029186Y53273460D01*
X51959440Y53269306D01*
X51898520Y53303519D01*
X51865767Y53365237D01*
X51863239Y53390150D01*
X51863239Y54130421D01*
X51857035Y54169591D01*
X51829369Y54344264D01*
X51773336Y54516718D01*
X51762466Y54550174D01*
X51762465Y54550177D01*
X51682053Y54707993D01*
X51664172Y54743086D01*
X51536911Y54918245D01*
X51383817Y55071339D01*
X49167338Y57287819D01*
X49133853Y57349142D01*
X49138837Y57418834D01*
X49180709Y57474767D01*
X49246173Y57499184D01*
X49255019Y57499500D01*
X54337017Y57499500D01*
X54404056Y57479815D01*
G37*
%TD.AperFunction*%
%TD*%
M02*
