M48
; DRILL file KiCad 10.0.0 date 2026-05-01T19:23:42
; FORMAT={-:-/ absolute / metric / decimal}
; #@! TF.CreationDate,2026-05-01T19:23:42-06:00
; #@! TF.GenerationSoftware,Kicad,Pcbnew,10.0.0
; #@! TF.FileFunction,Plated,1,4,PTH
FMAT,2
METRIC
; #@! TA.AperFunction,Plated,PTH,ViaDrill
T1C1.000
; #@! TA.AperFunction,Plated,PTH,ComponentDrill
T2C1.000
; #@! TA.AperFunction,Plated,PTH,ViaDrill
T3C3.500
%
G90
G05
T1
X8.988Y55.522
X10.988Y11.022
X14.868Y21.902
X16.988Y54.022
X20.988Y54.022
X22.988Y7.022
X27.238Y52.272
X28.488Y5.522
X32.488Y19.022
X33.488Y11.022
X36.988Y24.022
X36.988Y4.522
X37.988Y54.522
X40.488Y51.522
X45.488Y4.522
X45.988Y48.022
X48.988Y48.022
X49.988Y44.522
X50.988Y13.522
X51.988Y56.022
X56.488Y20.022
T2
X6.488Y54.642
X6.488Y52.102
X6.488Y49.562
X6.488Y47.022
X6.488Y39.682
X6.488Y37.142
X6.488Y34.602
X6.488Y32.062
X6.488Y29.522
X6.488Y26.982
X6.488Y24.442
X6.488Y21.902
X27.408Y21.522
X28.408Y24.522
X29.948Y21.522
X30.948Y24.522
X32.488Y21.522
X33.488Y24.522
X41.448Y54.522
X43.988Y54.522
X46.528Y54.522
X53.488Y54.642
X53.488Y52.102
X53.488Y49.562
X53.488Y47.022
X53.488Y39.682
X53.488Y37.142
X53.488Y34.602
X53.488Y32.062
X53.488Y29.522
X53.488Y26.982
X53.488Y24.442
X53.488Y21.902
T3
X29.988Y30.022
M30
