M48
; DRILL file KiCad 10.0.0 date 2026-04-19T17:00:28
; FORMAT={-:-/ absolute / metric / decimal}
; #@! TF.CreationDate,2026-04-19T17:00:28-06:00
; #@! TF.GenerationSoftware,Kicad,Pcbnew,10.0.0
; #@! TF.FileFunction,Plated,1,2,PTH
FMAT,2
METRIC
; #@! TA.AperFunction,Plated,PTH,ViaDrill
T1C1.000
; #@! TA.AperFunction,Plated,PTH,ComponentDrill
T2C1.000
; #@! TA.AperFunction,Plated,PTH,ViaDrill
T3C3.500
%
G90
G05
T1
X12.488Y24.022
X21.488Y26.522
X23.488Y54.522
X24.988Y49.022
X38.988Y39.522
X44.488Y51.022
X47.488Y18.522
X55.988Y43.022
T2
X3.988Y34.522
X3.988Y31.982
X3.988Y29.442
X3.988Y26.902
X27.448Y18.522
X29.988Y18.522
X32.528Y18.522
X55.988Y34.602
X55.988Y32.062
X55.988Y29.522
X55.988Y26.982
T3
X29.988Y30.022
M30
