%TF.GenerationSoftware,KiCad,Pcbnew,10.0.0*%
%TF.CreationDate,2026-04-19T17:00:24-06:00*%
%TF.ProjectId,Basic Pixels_MCU PCB_V1.0,42617369-6320-4506-9978-656c735f4d43,rev?*%
%TF.SameCoordinates,PX41d0b25PY76c0eb7*%
%TF.FileFunction,Copper,L1,Top*%
%TF.FilePolarity,Positive*%
%FSLAX46Y46*%
G04 Gerber Fmt 4.6, Leading zero omitted, Abs format (unit mm)*
G04 Created by KiCad (PCBNEW 10.0.0) date 2026-04-19 17:00:24*
%MOMM*%
%LPD*%
G01*
G04 APERTURE LIST*
G04 Aperture macros list*
%AMRoundRect*
0 Rectangle with rounded corners*
0 $1 Rounding radius*
0 $2 $3 $4 $5 $6 $7 $8 $9 X,Y pos of 4 corners*
0 Add a 4 corners polygon primitive as box body*
4,1,4,$2,$3,$4,$5,$6,$7,$8,$9,$2,$3,0*
0 Add four circle primitives for the rounded corners*
1,1,$1+$1,$2,$3*
1,1,$1+$1,$4,$5*
1,1,$1+$1,$6,$7*
1,1,$1+$1,$8,$9*
0 Add four rect primitives between the rounded corners*
20,1,$1+$1,$2,$3,$4,$5,0*
20,1,$1+$1,$4,$5,$6,$7,0*
20,1,$1+$1,$6,$7,$8,$9,0*
20,1,$1+$1,$8,$9,$2,$3,0*%
G04 Aperture macros list end*
%ADD10C,0.300000*%
%TA.AperFunction,SMDPad,CuDef*%
%ADD11R,1.150000X1.000000*%
%TD*%
%TA.AperFunction,SMDPad,CuDef*%
%ADD12R,0.950000X2.850000*%
%TD*%
%TA.AperFunction,SMDPad,CuDef*%
%ADD13R,3.250000X2.850000*%
%TD*%
%TA.AperFunction,SMDPad,CuDef*%
%ADD14R,0.300000X0.850000*%
%TD*%
%TA.AperFunction,SMDPad,CuDef*%
%ADD15RoundRect,0.100000X-0.637500X-0.100000X0.637500X-0.100000X0.637500X0.100000X-0.637500X0.100000X0*%
%TD*%
%TA.AperFunction,SMDPad,CuDef*%
%ADD16RoundRect,0.200000X0.200000X0.275000X-0.200000X0.275000X-0.200000X-0.275000X0.200000X-0.275000X0*%
%TD*%
%TA.AperFunction,SMDPad,CuDef*%
%ADD17RoundRect,0.200000X-0.275000X0.200000X-0.275000X-0.200000X0.275000X-0.200000X0.275000X0.200000X0*%
%TD*%
%TA.AperFunction,SMDPad,CuDef*%
%ADD18RoundRect,0.200000X0.275000X-0.200000X0.275000X0.200000X-0.275000X0.200000X-0.275000X-0.200000X0*%
%TD*%
%TA.AperFunction,ComponentPad*%
%ADD19R,1.700000X1.700000*%
%TD*%
%TA.AperFunction,ComponentPad*%
%ADD20C,1.700000*%
%TD*%
%TA.AperFunction,SMDPad,CuDef*%
%ADD21R,1.000000X2.000000*%
%TD*%
%TA.AperFunction,SMDPad,CuDef*%
%ADD22RoundRect,0.218750X0.256250X-0.218750X0.256250X0.218750X-0.256250X0.218750X-0.256250X-0.218750X0*%
%TD*%
%TA.AperFunction,SMDPad,CuDef*%
%ADD23RoundRect,0.225000X0.250000X-0.225000X0.250000X0.225000X-0.250000X0.225000X-0.250000X-0.225000X0*%
%TD*%
%TA.AperFunction,SMDPad,CuDef*%
%ADD24RoundRect,0.225000X0.225000X0.250000X-0.225000X0.250000X-0.225000X-0.250000X0.225000X-0.250000X0*%
%TD*%
%TA.AperFunction,ViaPad*%
%ADD25C,2.500000*%
%TD*%
%TA.AperFunction,ViaPad*%
%ADD26C,7.000000*%
%TD*%
%TA.AperFunction,Conductor*%
%ADD27C,0.300000*%
%TD*%
%TA.AperFunction,Conductor*%
%ADD28C,1.000000*%
%TD*%
%TA.AperFunction,Conductor*%
%ADD29C,0.750000*%
%TD*%
%TA.AperFunction,Conductor*%
%ADD30C,0.500000*%
%TD*%
G04 APERTURE END LIST*
D10*
G36*
X56842569Y4739116D02*
G01*
X56879574Y4702111D01*
X56924281Y4612698D01*
X56924281Y4226678D01*
X56438567Y4226678D01*
X56438567Y4612697D01*
X56483274Y4702112D01*
X56520278Y4739116D01*
X56609691Y4783821D01*
X56753157Y4783821D01*
X56842569Y4739116D01*
G37*
G36*
X57105596Y7583822D02*
G01*
X57038263Y7583822D01*
X56971799Y7617054D01*
X56938567Y7683518D01*
X56938567Y7898412D01*
X56971799Y7964876D01*
X57024150Y7991052D01*
X57105596Y7583822D01*
G37*
G36*
X56842569Y11381973D02*
G01*
X56879574Y11344968D01*
X56924281Y11255555D01*
X56924281Y10869535D01*
X56438567Y10869535D01*
X56438567Y11255554D01*
X56483274Y11344969D01*
X56520278Y11381973D01*
X56609691Y11426678D01*
X56753157Y11426678D01*
X56842569Y11381973D01*
G37*
G36*
X57638567Y13469840D02*
G01*
X57638567Y13183516D01*
X57605335Y13117053D01*
X57538872Y13083821D01*
X57466834Y13083821D01*
X57400369Y13117053D01*
X57367139Y13183516D01*
X57367139Y13498106D01*
X57624434Y13498106D01*
X57638567Y13469840D01*
G37*
G36*
X57105596Y16155250D02*
G01*
X57038263Y16155250D01*
X56971799Y16188482D01*
X56938567Y16254946D01*
X56938567Y16469840D01*
X56971799Y16536304D01*
X57024150Y16562480D01*
X57105596Y16155250D01*
G37*
G36*
X58248091Y3760011D02*
G01*
X55971900Y3760011D01*
X55971900Y4648107D01*
X56138567Y4648107D01*
X56138567Y4076678D01*
X56141449Y4047414D01*
X56163847Y3993342D01*
X56205231Y3951958D01*
X56259303Y3929560D01*
X56288567Y3926678D01*
X57788567Y3926678D01*
X57817831Y3929560D01*
X57871903Y3951958D01*
X57913287Y3993342D01*
X57935685Y4047414D01*
X57935685Y4105942D01*
X57913287Y4160014D01*
X57871903Y4201398D01*
X57817831Y4223796D01*
X57788567Y4226678D01*
X57224281Y4226678D01*
X57224281Y4648107D01*
X57221399Y4677371D01*
X57219336Y4682350D01*
X57218955Y4687725D01*
X57208445Y4715188D01*
X57137017Y4858046D01*
X57129090Y4870638D01*
X57127574Y4874299D01*
X57124190Y4878422D01*
X57121352Y4882931D01*
X57118360Y4885526D01*
X57108919Y4897030D01*
X57037490Y4968459D01*
X57025988Y4977899D01*
X57023392Y4980892D01*
X57018878Y4983733D01*
X57014759Y4987114D01*
X57011099Y4988630D01*
X56998506Y4996557D01*
X56855649Y5067985D01*
X56828185Y5078495D01*
X56822809Y5078877D01*
X56817831Y5080939D01*
X56788567Y5083821D01*
X56574281Y5083821D01*
X56545017Y5080939D01*
X56540038Y5078877D01*
X56534663Y5078495D01*
X56507200Y5067985D01*
X56364342Y4996557D01*
X56351747Y4988629D01*
X56348088Y4987113D01*
X56343967Y4983732D01*
X56339457Y4980892D01*
X56336862Y4977901D01*
X56325357Y4968458D01*
X56253929Y4897029D01*
X56244491Y4885530D01*
X56241497Y4882932D01*
X56238654Y4878416D01*
X56235275Y4874298D01*
X56233760Y4870642D01*
X56225832Y4858046D01*
X56154403Y4715189D01*
X56143894Y4687726D01*
X56143512Y4682352D01*
X56141449Y4677371D01*
X56138567Y4648107D01*
X55971900Y4648107D01*
X55971900Y5605942D01*
X56141449Y5605942D01*
X56141449Y5605941D01*
X56141449Y5605940D01*
X56141449Y5547414D01*
X56143675Y5542041D01*
X56163846Y5493343D01*
X56163847Y5493342D01*
X56182502Y5470611D01*
X56253931Y5399183D01*
X56276660Y5380530D01*
X56276661Y5380529D01*
X56330733Y5358132D01*
X56330734Y5358132D01*
X56389259Y5358132D01*
X56443331Y5380529D01*
X56466062Y5399184D01*
X56537490Y5470612D01*
X56556145Y5493342D01*
X56565421Y5515740D01*
X56578542Y5547414D01*
X56578542Y5605942D01*
X56641449Y5605942D01*
X56641449Y5547414D01*
X56663847Y5493342D01*
X56705231Y5451958D01*
X56759303Y5429560D01*
X56788567Y5426678D01*
X57788567Y5426678D01*
X57817831Y5429560D01*
X57871903Y5451958D01*
X57913287Y5493342D01*
X57935685Y5547414D01*
X57935685Y5605942D01*
X57913287Y5660014D01*
X57871903Y5701398D01*
X57817831Y5723796D01*
X57788567Y5726678D01*
X56788567Y5726678D01*
X56759303Y5723796D01*
X56705231Y5701398D01*
X56663847Y5660014D01*
X56641449Y5605942D01*
X56578542Y5605942D01*
X56556145Y5660012D01*
X56556145Y5660013D01*
X56537491Y5682743D01*
X56466063Y5754172D01*
X56443332Y5772827D01*
X56443331Y5772828D01*
X56411657Y5785948D01*
X56389260Y5795225D01*
X56389259Y5795225D01*
X56330733Y5795225D01*
X56276661Y5772828D01*
X56253930Y5754173D01*
X56182501Y5682744D01*
X56163846Y5660013D01*
X56163846Y5660012D01*
X56141449Y5605942D01*
X55971900Y5605942D01*
X55971900Y6945347D01*
X56639011Y6945347D01*
X56645984Y6887238D01*
X56674664Y6836219D01*
X56695894Y6815873D01*
X57045777Y6540964D01*
X56695894Y6266055D01*
X56674664Y6245709D01*
X56645984Y6194690D01*
X56639011Y6136581D01*
X56654805Y6080225D01*
X56690965Y6034204D01*
X56741984Y6005524D01*
X56800093Y5998551D01*
X56856449Y6014345D01*
X56881240Y6030159D01*
X57288566Y6350202D01*
X57695893Y6030159D01*
X57720685Y6014346D01*
X57777041Y5998551D01*
X57835150Y6005524D01*
X57886168Y6034204D01*
X57922328Y6080225D01*
X57938123Y6136581D01*
X57931150Y6194690D01*
X57902470Y6245709D01*
X57881240Y6266055D01*
X57531355Y6540964D01*
X57881240Y6815873D01*
X57902470Y6836219D01*
X57931150Y6887238D01*
X57938123Y6945347D01*
X57922328Y7001703D01*
X57886168Y7047724D01*
X57835150Y7076404D01*
X57777041Y7083377D01*
X57720685Y7067582D01*
X57695893Y7051769D01*
X57288566Y6731727D01*
X56881240Y7051769D01*
X56856449Y7067583D01*
X56800093Y7083377D01*
X56741984Y7076404D01*
X56690965Y7047724D01*
X56654805Y7001703D01*
X56639011Y6945347D01*
X55971900Y6945347D01*
X55971900Y7933822D01*
X56638567Y7933822D01*
X56638567Y7648107D01*
X56641449Y7618843D01*
X56643512Y7613863D01*
X56643894Y7608488D01*
X56654403Y7581025D01*
X56725832Y7438168D01*
X56728912Y7433274D01*
X56729682Y7430966D01*
X56732174Y7428093D01*
X56741497Y7413282D01*
X56755708Y7400958D01*
X56768029Y7386751D01*
X56782836Y7377430D01*
X56785712Y7374936D01*
X56788020Y7374167D01*
X56792914Y7371086D01*
X56935772Y7299658D01*
X56963235Y7289148D01*
X56968610Y7288767D01*
X56973589Y7286704D01*
X57002853Y7283822D01*
X57288719Y7283822D01*
X57288724Y7283821D01*
X57288729Y7283822D01*
X57574281Y7283822D01*
X57603545Y7286704D01*
X57608523Y7288767D01*
X57613899Y7289148D01*
X57641362Y7299658D01*
X57784221Y7371086D01*
X57789114Y7374167D01*
X57791423Y7374936D01*
X57794297Y7377430D01*
X57809106Y7386751D01*
X57821430Y7400961D01*
X57835638Y7413283D01*
X57844957Y7428088D01*
X57847453Y7430965D01*
X57848223Y7433276D01*
X57851303Y7438168D01*
X57922731Y7581026D01*
X57933241Y7608489D01*
X57933622Y7613865D01*
X57935685Y7618843D01*
X57938567Y7648107D01*
X57938567Y7933822D01*
X57935685Y7963086D01*
X57933622Y7968065D01*
X57933241Y7973440D01*
X57922731Y8000903D01*
X57851303Y8143761D01*
X57835638Y8168646D01*
X57791423Y8206993D01*
X57735901Y8225501D01*
X57677521Y8221353D01*
X57625172Y8195178D01*
X57586825Y8150963D01*
X57568317Y8095441D01*
X57572465Y8037061D01*
X57582975Y8009597D01*
X57638567Y7898413D01*
X57638567Y7683517D01*
X57605335Y7617054D01*
X57538872Y7583822D01*
X57411537Y7583822D01*
X57292797Y8177524D01*
X57284232Y8205655D01*
X57276053Y8217867D01*
X57270430Y8231443D01*
X57259927Y8241946D01*
X57251664Y8254284D01*
X57239438Y8262435D01*
X57229046Y8272827D01*
X57215325Y8278511D01*
X57202968Y8286749D01*
X57188551Y8289601D01*
X57174974Y8295225D01*
X57145710Y8298107D01*
X57002853Y8298107D01*
X56973589Y8295225D01*
X56968610Y8293163D01*
X56963235Y8292781D01*
X56935772Y8282271D01*
X56792914Y8210843D01*
X56788020Y8207763D01*
X56785712Y8206993D01*
X56782836Y8204500D01*
X56768029Y8195178D01*
X56755708Y8180972D01*
X56741497Y8168647D01*
X56732174Y8153837D01*
X56729682Y8150963D01*
X56728912Y8148656D01*
X56725832Y8143761D01*
X56654403Y8000904D01*
X56643894Y7973441D01*
X56643512Y7968067D01*
X56641449Y7963086D01*
X56638567Y7933822D01*
X55971900Y7933822D01*
X55971900Y8820228D01*
X56141449Y8820228D01*
X56141449Y8761700D01*
X56163847Y8707628D01*
X56205231Y8666244D01*
X56259303Y8643846D01*
X56288567Y8640964D01*
X57574281Y8640964D01*
X57603545Y8643846D01*
X57608522Y8645908D01*
X57613900Y8646290D01*
X57641363Y8656800D01*
X57784221Y8728229D01*
X57789115Y8731310D01*
X57791423Y8732079D01*
X57794296Y8734572D01*
X57809107Y8743894D01*
X57821431Y8758106D01*
X57835638Y8770426D01*
X57844959Y8785234D01*
X57847453Y8788109D01*
X57848222Y8790418D01*
X57851303Y8795311D01*
X57922731Y8938169D01*
X57933241Y8965632D01*
X57937389Y9024012D01*
X57918881Y9079535D01*
X57880534Y9123750D01*
X57828185Y9149924D01*
X57769805Y9154072D01*
X57714283Y9135564D01*
X57670068Y9097218D01*
X57654403Y9072332D01*
X57605335Y8974197D01*
X57538871Y8940964D01*
X56288567Y8940964D01*
X56259303Y8938082D01*
X56205231Y8915684D01*
X56163847Y8874300D01*
X56141449Y8820228D01*
X55971900Y8820228D01*
X55971900Y11290964D01*
X56138567Y11290964D01*
X56138567Y10719535D01*
X56141449Y10690271D01*
X56163847Y10636199D01*
X56205231Y10594815D01*
X56259303Y10572417D01*
X56288567Y10569535D01*
X57788567Y10569535D01*
X57817831Y10572417D01*
X57871903Y10594815D01*
X57913287Y10636199D01*
X57935685Y10690271D01*
X57935685Y10748799D01*
X57913287Y10802871D01*
X57871903Y10844255D01*
X57817831Y10866653D01*
X57788567Y10869535D01*
X57224281Y10869535D01*
X57224281Y11290964D01*
X57221399Y11320228D01*
X57219336Y11325207D01*
X57218955Y11330582D01*
X57208445Y11358045D01*
X57137017Y11500903D01*
X57129090Y11513495D01*
X57127574Y11517156D01*
X57124190Y11521279D01*
X57121352Y11525788D01*
X57118360Y11528383D01*
X57108919Y11539887D01*
X57037490Y11611316D01*
X57025988Y11620756D01*
X57023392Y11623749D01*
X57018878Y11626590D01*
X57014759Y11629971D01*
X57011099Y11631487D01*
X56998506Y11639414D01*
X56855649Y11710842D01*
X56828185Y11721352D01*
X56822809Y11721734D01*
X56817831Y11723796D01*
X56788567Y11726678D01*
X56574281Y11726678D01*
X56545017Y11723796D01*
X56540038Y11721734D01*
X56534663Y11721352D01*
X56507200Y11710842D01*
X56364342Y11639414D01*
X56351747Y11631486D01*
X56348088Y11629970D01*
X56343967Y11626589D01*
X56339457Y11623749D01*
X56336862Y11620758D01*
X56325357Y11611315D01*
X56253929Y11539886D01*
X56244491Y11528387D01*
X56241497Y11525789D01*
X56238654Y11521273D01*
X56235275Y11517155D01*
X56233760Y11513499D01*
X56225832Y11500903D01*
X56154403Y11358046D01*
X56143894Y11330583D01*
X56143512Y11325209D01*
X56141449Y11320228D01*
X56138567Y11290964D01*
X55971900Y11290964D01*
X55971900Y12248799D01*
X56141449Y12248799D01*
X56141449Y12190271D01*
X56163847Y12136199D01*
X56205231Y12094815D01*
X56259303Y12072417D01*
X56288567Y12069535D01*
X57574281Y12069535D01*
X57603545Y12072417D01*
X57608522Y12074479D01*
X57613900Y12074861D01*
X57641363Y12085371D01*
X57784221Y12156800D01*
X57789115Y12159881D01*
X57791423Y12160650D01*
X57794296Y12163143D01*
X57809107Y12172465D01*
X57821431Y12186677D01*
X57835638Y12198997D01*
X57844959Y12213805D01*
X57847453Y12216680D01*
X57848222Y12218989D01*
X57851303Y12223882D01*
X57922731Y12366740D01*
X57933241Y12394203D01*
X57937389Y12452583D01*
X57918881Y12508106D01*
X57880534Y12552321D01*
X57828185Y12578495D01*
X57769805Y12582643D01*
X57714283Y12564135D01*
X57670068Y12525789D01*
X57654403Y12500903D01*
X57605335Y12402768D01*
X57538871Y12369535D01*
X56288567Y12369535D01*
X56259303Y12366653D01*
X56205231Y12344255D01*
X56163847Y12302871D01*
X56141449Y12248799D01*
X55971900Y12248799D01*
X55971900Y13433821D01*
X56638567Y13433821D01*
X56638567Y13148106D01*
X56641449Y13118842D01*
X56643512Y13113862D01*
X56643894Y13108487D01*
X56654403Y13081024D01*
X56725832Y12938167D01*
X56741497Y12913281D01*
X56785712Y12874935D01*
X56841235Y12856427D01*
X56899615Y12860576D01*
X56951964Y12886750D01*
X56990311Y12930966D01*
X57008818Y12986488D01*
X57004669Y13044868D01*
X56994160Y13072332D01*
X56938567Y13183517D01*
X56938567Y13398411D01*
X56971799Y13464875D01*
X57038263Y13498106D01*
X57053005Y13498106D01*
X57067139Y13469839D01*
X57067139Y13148106D01*
X57070021Y13118842D01*
X57072083Y13113864D01*
X57072465Y13108488D01*
X57082975Y13081024D01*
X57154403Y12938167D01*
X57157483Y12933273D01*
X57158253Y12930965D01*
X57160745Y12928092D01*
X57170068Y12913281D01*
X57184279Y12900957D01*
X57196600Y12886750D01*
X57211407Y12877429D01*
X57214283Y12874935D01*
X57216591Y12874166D01*
X57221485Y12871085D01*
X57364343Y12799657D01*
X57391806Y12789147D01*
X57397181Y12788766D01*
X57402160Y12786703D01*
X57431424Y12783821D01*
X57574281Y12783821D01*
X57603545Y12786703D01*
X57608523Y12788766D01*
X57613899Y12789147D01*
X57641362Y12799657D01*
X57784221Y12871085D01*
X57789114Y12874166D01*
X57791423Y12874935D01*
X57794297Y12877429D01*
X57809106Y12886750D01*
X57821430Y12900960D01*
X57835638Y12913282D01*
X57844957Y12928087D01*
X57847453Y12930964D01*
X57848223Y12933275D01*
X57851303Y12938167D01*
X57922731Y13081025D01*
X57933241Y13108488D01*
X57933622Y13113864D01*
X57935685Y13118842D01*
X57938567Y13148106D01*
X57938567Y13505249D01*
X57935685Y13534513D01*
X57933622Y13539492D01*
X57933241Y13544867D01*
X57922731Y13572330D01*
X57919278Y13579235D01*
X57935685Y13618842D01*
X57935685Y13677370D01*
X57913287Y13731442D01*
X57871903Y13772826D01*
X57817831Y13795224D01*
X57788567Y13798106D01*
X57002853Y13798106D01*
X56973589Y13795224D01*
X56968610Y13793162D01*
X56963235Y13792780D01*
X56935772Y13782270D01*
X56792914Y13710842D01*
X56788020Y13707762D01*
X56785712Y13706992D01*
X56782836Y13704499D01*
X56768029Y13695177D01*
X56755708Y13680971D01*
X56741497Y13668646D01*
X56732174Y13653836D01*
X56729682Y13650962D01*
X56728912Y13648655D01*
X56725832Y13643760D01*
X56654403Y13500903D01*
X56643894Y13473440D01*
X56643512Y13468066D01*
X56641449Y13463085D01*
X56638567Y13433821D01*
X55971900Y13433821D01*
X55971900Y15248799D01*
X56141449Y15248799D01*
X56141449Y15190271D01*
X56163847Y15136199D01*
X56205231Y15094815D01*
X56259303Y15072417D01*
X56288567Y15069535D01*
X56638567Y15069535D01*
X56638567Y15005250D01*
X56641449Y14975986D01*
X56663847Y14921914D01*
X56705231Y14880530D01*
X56749017Y14862393D01*
X56705231Y14844255D01*
X56663847Y14802871D01*
X56641449Y14748799D01*
X56638567Y14719535D01*
X56638567Y14512392D01*
X56288567Y14512392D01*
X56259303Y14509510D01*
X56205231Y14487112D01*
X56163847Y14445728D01*
X56141449Y14391656D01*
X56141449Y14333128D01*
X56163847Y14279056D01*
X56205231Y14237672D01*
X56259303Y14215274D01*
X56288567Y14212392D01*
X56638567Y14212392D01*
X56638567Y14148107D01*
X56641449Y14118843D01*
X56663847Y14064771D01*
X56705231Y14023387D01*
X56759303Y14000989D01*
X56817831Y14000989D01*
X56871903Y14023387D01*
X56913287Y14064771D01*
X56935685Y14118843D01*
X56938567Y14148107D01*
X56938567Y14212392D01*
X57574281Y14212392D01*
X57603545Y14215274D01*
X57608522Y14217336D01*
X57613900Y14217718D01*
X57641363Y14228228D01*
X57784221Y14299657D01*
X57789115Y14302738D01*
X57791423Y14303507D01*
X57794296Y14306000D01*
X57809107Y14315322D01*
X57821431Y14329534D01*
X57835638Y14341854D01*
X57844959Y14356662D01*
X57847453Y14359537D01*
X57848222Y14361846D01*
X57851303Y14366739D01*
X57922731Y14509597D01*
X57933241Y14537060D01*
X57933622Y14542436D01*
X57935685Y14547414D01*
X57938567Y14576678D01*
X57938567Y14719535D01*
X57935685Y14748799D01*
X57913287Y14802871D01*
X57871903Y14844255D01*
X57817831Y14866653D01*
X57759303Y14866653D01*
X57705231Y14844255D01*
X57663847Y14802871D01*
X57641449Y14748799D01*
X57638567Y14719535D01*
X57638567Y14612088D01*
X57605335Y14545625D01*
X57538871Y14512392D01*
X56938567Y14512392D01*
X56938567Y14719535D01*
X56935685Y14748799D01*
X56913287Y14802871D01*
X56871903Y14844255D01*
X56828116Y14862393D01*
X56871903Y14880530D01*
X56913287Y14921914D01*
X56935685Y14975986D01*
X56938567Y15005250D01*
X56938567Y15069535D01*
X57574281Y15069535D01*
X57603545Y15072417D01*
X57608522Y15074479D01*
X57613900Y15074861D01*
X57641363Y15085371D01*
X57784221Y15156800D01*
X57789115Y15159881D01*
X57791423Y15160650D01*
X57794296Y15163143D01*
X57809107Y15172465D01*
X57821431Y15186677D01*
X57835638Y15198997D01*
X57844959Y15213805D01*
X57847453Y15216680D01*
X57848222Y15218989D01*
X57851303Y15223882D01*
X57922731Y15366740D01*
X57933241Y15394203D01*
X57933622Y15399579D01*
X57935685Y15404557D01*
X57938567Y15433821D01*
X57938567Y15576678D01*
X57935685Y15605942D01*
X57913287Y15660014D01*
X57871903Y15701398D01*
X57817831Y15723796D01*
X57759303Y15723796D01*
X57705231Y15701398D01*
X57663847Y15660014D01*
X57641449Y15605942D01*
X57638567Y15576678D01*
X57638567Y15469231D01*
X57605335Y15402768D01*
X57538871Y15369535D01*
X56938567Y15369535D01*
X56938567Y15576678D01*
X56935685Y15605942D01*
X56913287Y15660014D01*
X56871903Y15701398D01*
X56817831Y15723796D01*
X56759303Y15723796D01*
X56705231Y15701398D01*
X56663847Y15660014D01*
X56641449Y15605942D01*
X56638567Y15576678D01*
X56638567Y15369535D01*
X56288567Y15369535D01*
X56259303Y15366653D01*
X56205231Y15344255D01*
X56163847Y15302871D01*
X56141449Y15248799D01*
X55971900Y15248799D01*
X55971900Y16505250D01*
X56638567Y16505250D01*
X56638567Y16219535D01*
X56641449Y16190271D01*
X56643512Y16185291D01*
X56643894Y16179916D01*
X56654403Y16152453D01*
X56725832Y16009596D01*
X56728912Y16004702D01*
X56729682Y16002394D01*
X56732174Y15999521D01*
X56741497Y15984710D01*
X56755708Y15972386D01*
X56768029Y15958179D01*
X56782836Y15948858D01*
X56785712Y15946364D01*
X56788020Y15945595D01*
X56792914Y15942514D01*
X56935772Y15871086D01*
X56963235Y15860576D01*
X56968610Y15860195D01*
X56973589Y15858132D01*
X57002853Y15855250D01*
X57288719Y15855250D01*
X57288724Y15855249D01*
X57288729Y15855250D01*
X57574281Y15855250D01*
X57603545Y15858132D01*
X57608523Y15860195D01*
X57613899Y15860576D01*
X57641362Y15871086D01*
X57784221Y15942514D01*
X57789114Y15945595D01*
X57791423Y15946364D01*
X57794297Y15948858D01*
X57809106Y15958179D01*
X57821430Y15972389D01*
X57835638Y15984711D01*
X57844957Y15999516D01*
X57847453Y16002393D01*
X57848223Y16004704D01*
X57851303Y16009596D01*
X57922731Y16152454D01*
X57933241Y16179917D01*
X57933622Y16185293D01*
X57935685Y16190271D01*
X57938567Y16219535D01*
X57938567Y16505250D01*
X57935685Y16534514D01*
X57933622Y16539493D01*
X57933241Y16544868D01*
X57922731Y16572331D01*
X57851303Y16715189D01*
X57835638Y16740074D01*
X57791423Y16778421D01*
X57735901Y16796929D01*
X57677521Y16792781D01*
X57625172Y16766606D01*
X57586825Y16722391D01*
X57568317Y16666869D01*
X57572465Y16608489D01*
X57582975Y16581025D01*
X57638567Y16469841D01*
X57638567Y16254945D01*
X57605335Y16188482D01*
X57538872Y16155250D01*
X57411537Y16155250D01*
X57292797Y16748952D01*
X57284232Y16777083D01*
X57276053Y16789295D01*
X57270430Y16802871D01*
X57259927Y16813374D01*
X57251664Y16825712D01*
X57239438Y16833863D01*
X57229046Y16844255D01*
X57215325Y16849939D01*
X57202968Y16858177D01*
X57188551Y16861029D01*
X57174974Y16866653D01*
X57145710Y16869535D01*
X57002853Y16869535D01*
X56973589Y16866653D01*
X56968610Y16864591D01*
X56963235Y16864209D01*
X56935772Y16853699D01*
X56792914Y16782271D01*
X56788020Y16779191D01*
X56785712Y16778421D01*
X56782836Y16775928D01*
X56768029Y16766606D01*
X56755708Y16752400D01*
X56741497Y16740075D01*
X56732174Y16725265D01*
X56729682Y16722391D01*
X56728912Y16720084D01*
X56725832Y16715189D01*
X56654403Y16572332D01*
X56643894Y16544869D01*
X56643512Y16539495D01*
X56641449Y16534514D01*
X56638567Y16505250D01*
X55971900Y16505250D01*
X55971900Y17790964D01*
X56638567Y17790964D01*
X56638567Y17648107D01*
X56641449Y17618843D01*
X56643510Y17613866D01*
X56643893Y17608488D01*
X56654403Y17581025D01*
X56702650Y17484531D01*
X56663847Y17445728D01*
X56641449Y17391656D01*
X56641449Y17333128D01*
X56663847Y17279056D01*
X56705231Y17237672D01*
X56759303Y17215274D01*
X56788567Y17212392D01*
X57788567Y17212392D01*
X57817831Y17215274D01*
X57871903Y17237672D01*
X57913287Y17279056D01*
X57935685Y17333128D01*
X57935685Y17391656D01*
X57913287Y17445728D01*
X57871903Y17487112D01*
X57817831Y17509510D01*
X57788567Y17512392D01*
X57109691Y17512392D01*
X57020278Y17557099D01*
X56983274Y17594103D01*
X56938567Y17683517D01*
X56938567Y17790964D01*
X56935685Y17820228D01*
X56913287Y17874300D01*
X56871903Y17915684D01*
X56817831Y17938082D01*
X56759303Y17938082D01*
X56705231Y17915684D01*
X56663847Y17874300D01*
X56641449Y17820228D01*
X56638567Y17790964D01*
X55971900Y17790964D01*
X55971900Y20238296D01*
X56139745Y20238296D01*
X56143894Y20179915D01*
X56170068Y20127568D01*
X56214282Y20089221D01*
X56241133Y20077233D01*
X57314224Y19719535D01*
X56241133Y19361837D01*
X56214282Y19349849D01*
X56170068Y19311502D01*
X56143894Y19259155D01*
X56139745Y19200774D01*
X56158253Y19145250D01*
X56196600Y19101036D01*
X56248947Y19074862D01*
X56307328Y19070713D01*
X56333560Y19076678D01*
X57781424Y19076678D01*
X57781424Y17933820D01*
X57784306Y17904556D01*
X57806704Y17850484D01*
X57848088Y17809100D01*
X57902160Y17786702D01*
X57960688Y17786702D01*
X58014760Y17809100D01*
X58056144Y17850484D01*
X58078542Y17904556D01*
X58081424Y17933820D01*
X58081424Y19076678D01*
X58078542Y19105942D01*
X58056144Y19160014D01*
X58014760Y19201398D01*
X57960688Y19223796D01*
X57902160Y19223796D01*
X57848088Y19201398D01*
X57806704Y19160014D01*
X57784306Y19105942D01*
X57781424Y19076678D01*
X56333560Y19076678D01*
X56336001Y19077233D01*
X57836001Y19577233D01*
X57862852Y19589221D01*
X57870949Y19596244D01*
X57880534Y19601036D01*
X57892855Y19615243D01*
X57907067Y19627568D01*
X57911860Y19637156D01*
X57918881Y19645250D01*
X57924829Y19663095D01*
X57933240Y19679916D01*
X57933999Y19690604D01*
X57937390Y19700774D01*
X57936056Y19719535D01*
X57937390Y19738296D01*
X57933999Y19748467D01*
X57933240Y19759154D01*
X57924829Y19775976D01*
X57918881Y19793820D01*
X57911860Y19801915D01*
X57907067Y19811502D01*
X57892855Y19823828D01*
X57880534Y19838034D01*
X57870949Y19842827D01*
X57862852Y19849849D01*
X57836001Y19861837D01*
X56336001Y20361837D01*
X56307328Y20368357D01*
X56248947Y20364208D01*
X56196600Y20338034D01*
X56158253Y20293820D01*
X56139745Y20238296D01*
X55971900Y20238296D01*
X55971900Y21076519D01*
X56138567Y21076519D01*
X56141449Y21062110D01*
X56141449Y21047413D01*
X56147132Y21033693D01*
X56150045Y21019130D01*
X56158222Y21006919D01*
X56163847Y20993341D01*
X56174348Y20982840D01*
X56182612Y20970500D01*
X56205124Y20952064D01*
X56205231Y20951957D01*
X56205278Y20951938D01*
X56205362Y20951869D01*
X56407291Y20817250D01*
X56522432Y20702109D01*
X56582975Y20581024D01*
X56598640Y20556138D01*
X56642855Y20517792D01*
X56698378Y20499284D01*
X56756758Y20503433D01*
X56809107Y20529607D01*
X56847454Y20573823D01*
X56865961Y20629345D01*
X56861812Y20687725D01*
X56851303Y20715189D01*
X56779874Y20858045D01*
X56771947Y20870637D01*
X56770431Y20874299D01*
X56767047Y20878422D01*
X56764209Y20882931D01*
X56761216Y20885527D01*
X56751776Y20897029D01*
X56722128Y20926677D01*
X57638567Y20926677D01*
X57638567Y20648106D01*
X57641449Y20618842D01*
X57663847Y20564770D01*
X57705231Y20523386D01*
X57759303Y20500988D01*
X57817831Y20500988D01*
X57871903Y20523386D01*
X57913287Y20564770D01*
X57935685Y20618842D01*
X57938567Y20648106D01*
X57938567Y21505249D01*
X57935685Y21534513D01*
X57913287Y21588585D01*
X57871903Y21629969D01*
X57817831Y21652367D01*
X57759303Y21652367D01*
X57705231Y21629969D01*
X57663847Y21588585D01*
X57641449Y21534513D01*
X57638567Y21505249D01*
X57638567Y21226677D01*
X56288567Y21226677D01*
X56288461Y21226667D01*
X56288409Y21226677D01*
X56288255Y21226647D01*
X56259303Y21223795D01*
X56245582Y21218112D01*
X56231020Y21215199D01*
X56218808Y21207022D01*
X56205231Y21201397D01*
X56194729Y21190896D01*
X56182390Y21182632D01*
X56174238Y21170405D01*
X56163847Y21160013D01*
X56158163Y21146292D01*
X56149925Y21133934D01*
X56147073Y21119520D01*
X56141449Y21105941D01*
X56141449Y21091088D01*
X56138567Y21076519D01*
X55971900Y21076519D01*
X55971900Y21819034D01*
X58248091Y21819034D01*
X58248091Y3760011D01*
G37*
D11*
%TO.P,Y1,1,1_1*%
%TO.N,STM32_PH1*%
X17112739Y43322167D03*
%TO.P,Y1,2,2_2*%
%TO.N,GND*%
X18862739Y43322167D03*
%TO.P,Y1,3,3_3*%
%TO.N,STM32_PH0*%
X18862739Y44722167D03*
%TO.P,Y1,4,4_4*%
%TO.N,GND*%
X17112739Y44722167D03*
%TD*%
D12*
%TO.P,VR3,1,ADJ_1*%
%TO.N,Net-(VR3-ADJ)*%
X32247739Y12182167D03*
%TO.P,VR3,2,VOUT_1_2*%
%TO.N,+9V*%
X29947739Y12182167D03*
%TO.P,VR3,3,VIN_3*%
%TO.N,+12V*%
X27647739Y12182167D03*
D13*
%TO.P,VR3,4,VOUT_2_4*%
%TO.N,+9V*%
X29947739Y6982167D03*
%TD*%
D12*
%TO.P,VR2,1,ADJ_1*%
%TO.N,Net-(VR2-ADJ)*%
X41647739Y6782167D03*
%TO.P,VR2,2,VOUT_1_2*%
%TO.N,+5V*%
X43947739Y6782167D03*
%TO.P,VR2,3,VIN_3*%
%TO.N,+9V*%
X46247739Y6782167D03*
D13*
%TO.P,VR2,4,VOUT_2_4*%
%TO.N,+5V*%
X43947739Y11982167D03*
%TD*%
D12*
%TO.P,VR1,1,ADJ_1*%
%TO.N,Net-(VR1-ADJ)*%
X16647739Y6282167D03*
%TO.P,VR1,2,VOUT_1_2*%
%TO.N,+3V3*%
X18947739Y6282167D03*
%TO.P,VR1,3,VIN_3*%
%TO.N,+9V*%
X21247739Y6282167D03*
D13*
%TO.P,VR1,4,VOUT_2_4*%
%TO.N,+3V3*%
X18947739Y11482167D03*
%TD*%
D14*
%TO.P,U2,1,1A_1*%
%TO.N,Net-(U2-1A)*%
X50237739Y49597167D03*
%TO.P,U2,2,3Y_2*%
%TO.N,unconnected-(U2-3Y-Pad2)*%
X49737739Y49597167D03*
%TO.P,U2,3,2A_3*%
%TO.N,unconnected-(U2-2A-Pad3)*%
X49237739Y49597167D03*
%TO.P,U2,4,GND_4*%
%TO.N,GND*%
X48737739Y49597167D03*
%TO.P,U2,5,2Y_5*%
%TO.N,unconnected-(U2-2Y-Pad5)*%
X48737739Y46447167D03*
%TO.P,U2,6,3A_6*%
%TO.N,unconnected-(U2-3A-Pad6)*%
X49237739Y46447167D03*
%TO.P,U2,7,1Y_7*%
%TO.N,Net-(U2-1Y)*%
X49737739Y46447167D03*
%TO.P,U2,8,VCC_8*%
%TO.N,+5V*%
X50237739Y46447167D03*
%TD*%
D15*
%TO.P,U1,1,PB7_1*%
%TO.N,unconnected-(U1-PB7-Pad1)*%
X23125239Y46947167D03*
%TO.P,U1,2,PC14_2*%
%TO.N,STM32_PH0*%
X23125239Y46297167D03*
%TO.P,U1,3,PC15_3*%
%TO.N,STM32_PH1*%
X23125239Y45647167D03*
%TO.P,U1,4,VDD_4*%
%TO.N,+3V3*%
X23125239Y44997167D03*
%TO.P,U1,5,VSS_5*%
%TO.N,GND*%
X23125239Y44347167D03*
%TO.P,U1,6,PF2_6*%
%TO.N,unconnected-(U1-PF2-Pad6)*%
X23125239Y43697167D03*
%TO.P,U1,7,PA0_7*%
%TO.N,unconnected-(U1-PA0-Pad7)*%
X23125239Y43047167D03*
%TO.P,U1,8,PA1_8*%
%TO.N,neopixels_3v3*%
X23125239Y42397167D03*
%TO.P,U1,9,PA2_9*%
%TO.N,unconnected-(U1-PA2-Pad9)*%
X23125239Y41747167D03*
%TO.P,U1,10,PA3_10*%
%TO.N,unconnected-(U1-PA3-Pad10)*%
X23125239Y41097167D03*
%TO.P,U1,11,PA4_11*%
%TO.N,unconnected-(U1-PA4-Pad11)*%
X28850239Y41097167D03*
%TO.P,U1,12,PA5_12*%
%TO.N,strobe*%
X28850239Y41747167D03*
%TO.P,U1,13,PA6_13*%
%TO.N,unconnected-(U1-PA6-Pad13)*%
X28850239Y42397167D03*
%TO.P,U1,14,PA7_14*%
%TO.N,unconnected-(U1-PA7-Pad14)*%
X28850239Y43047167D03*
%TO.P,U1,15,PA8_15*%
%TO.N,unconnected-(U1-PA8-Pad15)*%
X28850239Y43697167D03*
%TO.P,U1,16,PA9/PA11_16*%
%TO.N,unconnected-(U1-PA9{slash}PA11-Pad16)*%
X28850239Y44347167D03*
%TO.P,U1,17,PA10/PA12_17*%
%TO.N,unconnected-(U1-PA10{slash}PA12-Pad17)*%
X28850239Y44997167D03*
%TO.P,U1,18,PA13_18*%
%TO.N,SWDIO*%
X28850239Y45647167D03*
%TO.P,U1,19,PA14_19*%
%TO.N,SWCLK*%
X28850239Y46297167D03*
%TO.P,U1,20,PB6_20*%
%TO.N,testLED*%
X28850239Y46947167D03*
%TD*%
D16*
%TO.P,R48,1*%
%TO.N,strobe*%
X28137739Y21522167D03*
%TO.P,R48,2*%
%TO.N,+3V3*%
X26487739Y21522167D03*
%TD*%
D17*
%TO.P,R45,1*%
%TO.N,+5V*%
X39447739Y10307167D03*
%TO.P,R45,2*%
%TO.N,Net-(VR2-ADJ)*%
X39447739Y8657167D03*
%TD*%
%TO.P,R44,1*%
%TO.N,Net-(VR2-ADJ)*%
X39447739Y7307167D03*
%TO.P,R44,2*%
%TO.N,GND*%
X39447739Y5657167D03*
%TD*%
%TO.P,R43,1*%
%TO.N,+3V3*%
X14447739Y9632167D03*
%TO.P,R43,2*%
%TO.N,Net-(VR1-ADJ)*%
X14447739Y7982167D03*
%TD*%
%TO.P,R42,1*%
%TO.N,Net-(VR1-ADJ)*%
X14447739Y6632167D03*
%TO.P,R42,2*%
%TO.N,GND*%
X14447739Y4982167D03*
%TD*%
D18*
%TO.P,R41,1*%
%TO.N,Net-(VR3-ADJ)*%
X34447739Y11657167D03*
%TO.P,R41,2*%
%TO.N,GND*%
X34447739Y13307167D03*
%TD*%
%TO.P,R40,1*%
%TO.N,+9V*%
X34447739Y8657167D03*
%TO.P,R40,2*%
%TO.N,Net-(VR3-ADJ)*%
X34447739Y10307167D03*
%TD*%
D17*
%TO.P,R39,1*%
%TO.N,Net-(D30-A)*%
X28350239Y51472167D03*
%TO.P,R39,2*%
%TO.N,testLED*%
X28350239Y49822167D03*
%TD*%
D18*
%TO.P,R25,1*%
%TO.N,neopixels_5v*%
X50487739Y42372167D03*
%TO.P,R25,2*%
%TO.N,Net-(U2-1Y)*%
X50487739Y44022167D03*
%TD*%
%TO.P,R18,1*%
%TO.N,Net-(U2-1A)*%
X50487739Y51697167D03*
%TO.P,R18,2*%
%TO.N,neopixels_3v3*%
X50487739Y53347167D03*
%TD*%
D19*
%TO.P,J6,1,Pin_1_1*%
%TO.N,+5V*%
X3987739Y26902167D03*
D20*
%TO.P,J6,2,Pin_2_2*%
%TO.N,/Connectors/neopixelOutIn*%
X3987739Y29442167D03*
%TO.P,J6,3,Pin_3_3*%
%TO.N,unconnected-(J6-Pin_3-Pad3)*%
X3987739Y31982167D03*
%TO.P,J6,4,Pin_4_4*%
%TO.N,GND*%
X3987739Y34522167D03*
%TD*%
D19*
%TO.P,J5,1,Pin_1_1*%
%TO.N,+5V*%
X55987739Y34602167D03*
D20*
%TO.P,J5,2,Pin_2_2*%
%TO.N,neopixels_5v*%
X55987739Y32062167D03*
%TO.P,J5,3,Pin_3_3*%
%TO.N,/Connectors/neopixelOutIn*%
X55987739Y29522167D03*
%TO.P,J5,4,Pin_4_4*%
%TO.N,GND*%
X55987739Y26982167D03*
%TD*%
D19*
%TO.P,J4,1,Pin_1_1*%
%TO.N,+12V*%
X27447739Y18522167D03*
D20*
%TO.P,J4,2,Pin_2_2*%
%TO.N,strobe*%
X29987739Y18522167D03*
%TO.P,J4,3,Pin_3_3*%
%TO.N,GND*%
X32527739Y18522167D03*
%TD*%
D21*
%TO.P,J3,1,1_1*%
%TO.N,+3V3*%
X37580239Y42547167D03*
%TO.P,J3,2,2_2*%
%TO.N,SWDIO*%
X37580239Y46047167D03*
%TO.P,J3,3,3_3*%
%TO.N,SWCLK*%
X40120239Y42547167D03*
%TO.P,J3,4,4_4*%
%TO.N,GND*%
X40120239Y46047167D03*
%TD*%
D22*
%TO.P,D30,1,K_1*%
%TO.N,GND*%
X30055239Y49859667D03*
%TO.P,D30,2,A_2*%
%TO.N,Net-(D30-A)*%
X30055239Y51434667D03*
%TD*%
D23*
%TO.P,C21,1*%
%TO.N,+5V*%
X51987739Y46247167D03*
%TO.P,C21,2*%
%TO.N,GND*%
X51987739Y47797167D03*
%TD*%
%TO.P,C5,1*%
%TO.N,+3V3*%
X23350239Y49872167D03*
%TO.P,C5,2*%
%TO.N,GND*%
X23350239Y51422167D03*
%TD*%
%TO.P,C4,1*%
%TO.N,+3V3*%
X21850239Y49872167D03*
%TO.P,C4,2*%
%TO.N,GND*%
X21850239Y51422167D03*
%TD*%
D24*
%TO.P,C3,1*%
%TO.N,GND*%
X18762739Y41022167D03*
%TO.P,C3,2*%
%TO.N,STM32_PH1*%
X17212739Y41022167D03*
%TD*%
%TO.P,C2,1*%
%TO.N,STM32_PH0*%
X18762739Y46522167D03*
%TO.P,C2,2*%
%TO.N,GND*%
X17212739Y46522167D03*
%TD*%
D25*
%TO.N,+5V*%
X55987739Y43022167D03*
X47487739Y18522167D03*
X12487739Y24022167D03*
%TO.N,+3V3*%
X21487739Y26522167D03*
X24987739Y49022167D03*
X38987739Y39522167D03*
%TO.N,GND*%
X44487739Y51022167D03*
X23487739Y54522167D03*
D26*
X29987739Y30022167D03*
%TD*%
%TO.N,GND*%
D27*
X19987739Y41022167D02*
X18762739Y41022167D01*
X21487739Y42522167D02*
X19987739Y41022167D01*
X21487739Y43772167D02*
X21487739Y42522167D01*
X23125239Y44347167D02*
X22062739Y44347167D01*
X22062739Y44347167D02*
X21487739Y43772167D01*
%TO.N,STM32_PH1*%
X19487739Y42022167D02*
X17112739Y42022167D01*
X20487739Y43022167D02*
X19487739Y42022167D01*
X20487739Y44522167D02*
X20487739Y43022167D01*
X21612739Y45647167D02*
X20487739Y44522167D01*
X23125239Y45647167D02*
X21612739Y45647167D01*
%TO.N,+3V3*%
D28*
X18947739Y13982167D02*
X26487739Y21522167D01*
X18947739Y11482167D02*
X18947739Y13982167D01*
%TO.N,strobe*%
X29987739Y18522167D02*
X29987739Y21522167D01*
X29987739Y21522167D02*
X28137739Y21522167D01*
%TO.N,+3V3*%
X26487739Y21522167D02*
X23987739Y24022167D01*
%TO.N,+12V*%
X27447739Y12382167D02*
X27647739Y12182167D01*
X27447739Y18522167D02*
X27447739Y12382167D01*
%TO.N,/Connectors/neopixelOutIn*%
X1487739Y44022167D02*
X14987739Y57522167D01*
X14987739Y57522167D02*
X53487739Y57522167D01*
X58487739Y52522167D02*
X58487739Y31022167D01*
X1487739Y30522167D02*
X1487739Y44022167D01*
X58487739Y31022167D02*
X56987739Y29522167D01*
X3987739Y29442167D02*
X2567739Y29442167D01*
X2567739Y29442167D02*
X1487739Y30522167D01*
X56987739Y29522167D02*
X55987739Y29522167D01*
X53487739Y57522167D02*
X58487739Y52522167D01*
%TO.N,neopixels_3v3*%
D27*
X28312739Y53347167D02*
X50487739Y53347167D01*
X26987739Y52022167D02*
X28312739Y53347167D01*
X26987739Y44022167D02*
X26987739Y52022167D01*
X25362739Y42397167D02*
X26987739Y44022167D01*
X23125239Y42397167D02*
X25362739Y42397167D01*
%TO.N,strobe*%
D29*
X35987739Y27522167D02*
X29987739Y21522167D01*
X30762739Y41747167D02*
X35987739Y36522167D01*
D27*
X28850239Y41747167D02*
X30762739Y41747167D01*
D29*
X35987739Y36522167D02*
X35987739Y27522167D01*
%TO.N,+5V*%
D28*
X47487739Y15522167D02*
X43947739Y11982167D01*
X47487739Y18522167D02*
X47487739Y15522167D01*
X9607739Y26902167D02*
X12487739Y24022167D01*
X3987739Y26902167D02*
X9607739Y26902167D01*
%TO.N,+3V3*%
X21487739Y26522167D02*
X23987739Y24022167D01*
X37580239Y40929667D02*
X38987739Y39522167D01*
X37580239Y42547167D02*
X37580239Y40929667D01*
%TO.N,GND*%
X44487739Y51022167D02*
X44487739Y48389667D01*
X23350239Y54384667D02*
X23487739Y54522167D01*
X23350239Y51422167D02*
X23350239Y54384667D01*
X44487739Y48389667D02*
X48620239Y48389667D01*
X51507739Y26502167D02*
X44487739Y33522167D01*
X55507739Y26502167D02*
X51507739Y26502167D01*
X44487739Y33522167D02*
X44487739Y48389667D01*
X55987739Y26982167D02*
X55507739Y26502167D01*
X48620239Y48389667D02*
X48737739Y48272167D01*
X40120239Y48389667D02*
X44487739Y48389667D01*
X30055239Y49859667D02*
X38325239Y49859667D01*
X38487739Y50022167D02*
X38325239Y49859667D01*
X40120239Y48389667D02*
X38487739Y50022167D01*
X40120239Y46047167D02*
X40120239Y48389667D01*
X21850239Y51422167D02*
X23350239Y51422167D01*
X17212739Y46522167D02*
X17212739Y48247167D01*
X20387739Y51422167D02*
X17212739Y48247167D01*
X21850239Y51422167D02*
X20387739Y51422167D01*
X17212739Y44822167D02*
X17112739Y44722167D01*
X17212739Y46522167D02*
X17212739Y44822167D01*
X18762739Y40297167D02*
X18762739Y41022167D01*
X14987739Y36522167D02*
X18762739Y40297167D01*
X5987739Y36522167D02*
X14987739Y36522167D01*
X3987739Y34522167D02*
X5987739Y36522167D01*
%TO.N,+9V*%
D29*
X30987739Y8022167D02*
X29947739Y6982167D01*
X33487739Y8022167D02*
X30987739Y8022167D01*
X34122739Y8657167D02*
X33487739Y8022167D01*
X34447739Y8657167D02*
X34122739Y8657167D01*
D28*
X45487739Y3522167D02*
X33407739Y3522167D01*
X46247739Y4282167D02*
X45487739Y3522167D01*
X46247739Y6782167D02*
X46247739Y4282167D01*
X33407739Y3522167D02*
X29947739Y6982167D01*
%TO.N,+3V3*%
D27*
X24137739Y49872167D02*
X23350239Y49872167D01*
X24987739Y49022167D02*
X24137739Y49872167D01*
X23962739Y44997167D02*
X24987739Y46022167D01*
D30*
X24987739Y46022167D02*
X24987739Y49022167D01*
D27*
X23125239Y44997167D02*
X23962739Y44997167D01*
%TO.N,GND*%
X49212739Y47797167D02*
X51987739Y47797167D01*
X48737739Y48272167D02*
X49212739Y47797167D01*
X48737739Y49597167D02*
X48737739Y48272167D01*
D28*
X51527739Y7062167D02*
X51527739Y22522167D01*
X45987739Y1522167D02*
X51527739Y7062167D01*
X17907739Y1522167D02*
X45987739Y1522167D01*
X14447739Y4982167D02*
X17907739Y1522167D01*
X33527739Y22522167D02*
X45487739Y22522167D01*
X32527739Y21522167D02*
X33527739Y22522167D01*
X55987739Y26982167D02*
X51527739Y22522167D01*
X45487739Y22522167D02*
X51527739Y22522167D01*
X36272739Y13307167D02*
X45487739Y22522167D01*
X36272739Y13307167D02*
X34447739Y13307167D01*
X36487739Y13522167D02*
X36272739Y13307167D01*
X36487739Y6522167D02*
X36487739Y13522167D01*
X37352739Y5657167D02*
X36487739Y6522167D01*
X39447739Y5657167D02*
X37352739Y5657167D01*
%TO.N,neopixels_5v*%
X50487739Y36522167D02*
X50487739Y42372167D01*
X54947739Y32062167D02*
X50487739Y36522167D01*
X55987739Y32062167D02*
X54947739Y32062167D01*
%TO.N,+5V*%
X52762739Y46247167D02*
X51987739Y46247167D01*
X55987739Y43022167D02*
X52762739Y46247167D01*
X55987739Y34602167D02*
X55987739Y43022167D01*
%TO.N,+9V*%
D29*
X28327739Y6282167D02*
X21247739Y6282167D01*
X29027739Y6982167D02*
X28327739Y6282167D01*
X29947739Y6982167D02*
X29027739Y6982167D01*
%TO.N,Net-(VR2-ADJ)*%
X39447739Y7307167D02*
X41122739Y7307167D01*
X41122739Y7307167D02*
X41647739Y6782167D01*
X39447739Y8657167D02*
X39447739Y7307167D01*
%TO.N,+5V*%
X42272739Y10307167D02*
X43947739Y11982167D01*
X39447739Y10307167D02*
X42272739Y10307167D01*
X43947739Y11982167D02*
X43947739Y6782167D01*
%TO.N,+3V3*%
X17097739Y9632167D02*
X18947739Y11482167D01*
X14447739Y9632167D02*
X17097739Y9632167D01*
X18947739Y11482167D02*
X18947739Y6282167D01*
%TO.N,+9V*%
X29947739Y12182167D02*
X29947739Y6982167D01*
%TO.N,Net-(VR3-ADJ)*%
X32772739Y11657167D02*
X32247739Y12182167D01*
X34447739Y11657167D02*
X32772739Y11657167D01*
X34447739Y11657167D02*
X34447739Y10307167D01*
%TO.N,Net-(VR1-ADJ)*%
X14447739Y6632167D02*
X16297739Y6632167D01*
X16297739Y6632167D02*
X16647739Y6282167D01*
X14447739Y7982167D02*
X14447739Y6632167D01*
%TO.N,+5V*%
D27*
X51787739Y46447167D02*
X51987739Y46247167D01*
X50237739Y46447167D02*
X51787739Y46447167D01*
%TO.N,Net-(U2-1Y)*%
X49737739Y44772167D02*
X50487739Y44022167D01*
X49737739Y46447167D02*
X49737739Y44772167D01*
%TO.N,Net-(U2-1A)*%
X50237739Y51447167D02*
X50487739Y51697167D01*
X50237739Y49597167D02*
X50237739Y51447167D01*
%TO.N,STM32_PH1*%
X17112739Y42022167D02*
X17112739Y41122167D01*
X17112739Y43322167D02*
X17112739Y42022167D01*
X17112739Y41122167D02*
X17212739Y41022167D01*
%TO.N,STM32_PH0*%
X18862739Y46422167D02*
X18762739Y46522167D01*
X18862739Y44722167D02*
X18862739Y46422167D01*
X20487739Y46522167D02*
X18762739Y46522167D01*
X20712739Y46297167D02*
X20487739Y46522167D01*
X23125239Y46297167D02*
X20712739Y46297167D01*
%TO.N,+3V3*%
D30*
X21850239Y49872167D02*
X23350239Y49872167D01*
%TO.N,Net-(D30-A)*%
X28350239Y51472167D02*
X30017739Y51472167D01*
X30017739Y51472167D02*
X30055239Y51434667D01*
%TO.N,testLED*%
X28487739Y49684667D02*
X28350239Y49822167D01*
X28487739Y47309667D02*
X28487739Y49684667D01*
X28850239Y46947167D02*
X28487739Y47309667D01*
%TO.N,SWCLK*%
D27*
X31262739Y46297167D02*
X32987739Y48022167D01*
X28850239Y46297167D02*
X31262739Y46297167D01*
X38987739Y47022167D02*
X37987739Y48022167D01*
X40120239Y43389667D02*
X38987739Y44522167D01*
X38987739Y44522167D02*
X38987739Y47022167D01*
D30*
X40120239Y42547167D02*
X40120239Y43389667D01*
D27*
X37987739Y48022167D02*
X32987739Y48022167D01*
%TO.N,SWDIO*%
D30*
X37180239Y45647167D02*
X37580239Y46047167D01*
D27*
X28850239Y45647167D02*
X37180239Y45647167D01*
%TD*%
%TA.AperFunction,Conductor*%
%TO.N,GND*%
G36*
X52881889Y56001982D02*
G01*
X52902531Y55985348D01*
X56950920Y51936959D01*
X56984405Y51875636D01*
X56987239Y51849278D01*
X56987239Y45229664D01*
X56967554Y45162625D01*
X56914750Y45116870D01*
X56845592Y45106926D01*
X56815786Y45115103D01*
X56712700Y45157803D01*
X56712693Y45157805D01*
X56712691Y45157806D01*
X56427732Y45234160D01*
X56378852Y45240596D01*
X56135252Y45272667D01*
X56135245Y45272667D01*
X55910629Y45272667D01*
X55843590Y45292352D01*
X55822948Y45308986D01*
X53740251Y47391682D01*
X53740250Y47391683D01*
X53734820Y47395628D01*
X53549173Y47530510D01*
X53529048Y47540764D01*
X53338735Y47637734D01*
X53114107Y47710721D01*
X52880836Y47747667D01*
X52880831Y47747667D01*
X51869647Y47747667D01*
X51869642Y47747667D01*
X51636367Y47710720D01*
X51585028Y47694039D01*
X51556447Y47688353D01*
X51545264Y47687473D01*
X51545254Y47687471D01*
X51331343Y47633571D01*
X51276740Y47608768D01*
X51225459Y47597667D01*
X50147187Y47597667D01*
X50007136Y47575486D01*
X49968342Y47575486D01*
X49828291Y47597667D01*
X49828285Y47597667D01*
X49647193Y47597667D01*
X49647188Y47597667D01*
X49468328Y47569338D01*
X49296102Y47513380D01*
X49296099Y47513379D01*
X49134746Y47431164D01*
X49077583Y47389634D01*
X49011776Y47366156D01*
X48991446Y47366664D01*
X48990090Y47366810D01*
X48935612Y47372667D01*
X48935604Y47372667D01*
X48539868Y47372667D01*
X48539862Y47372666D01*
X48480255Y47366259D01*
X48345410Y47315965D01*
X48345403Y47315961D01*
X48230194Y47229715D01*
X48230191Y47229712D01*
X48143945Y47114503D01*
X48143941Y47114496D01*
X48093647Y46979650D01*
X48087240Y46920051D01*
X48087239Y46920032D01*
X48087239Y45974297D01*
X48087240Y45974291D01*
X48093647Y45914684D01*
X48143941Y45779839D01*
X48143945Y45779832D01*
X48230191Y45664623D01*
X48230194Y45664620D01*
X48345403Y45578374D01*
X48345410Y45578370D01*
X48480256Y45528076D01*
X48487801Y45526293D01*
X48487262Y45524016D01*
X48541026Y45501759D01*
X48580886Y45444374D01*
X48587239Y45405192D01*
X48587239Y44867129D01*
X48587238Y44867114D01*
X48587238Y44862713D01*
X48587238Y44681621D01*
X48599325Y44605310D01*
X48603707Y44577643D01*
X48615568Y44502757D01*
X48671526Y44330531D01*
X48671527Y44330528D01*
X48727403Y44220867D01*
X48740473Y44195216D01*
X48753745Y44169170D01*
X48860180Y44022673D01*
X48860184Y44022668D01*
X48975920Y43906932D01*
X49009405Y43845609D01*
X49012239Y43819251D01*
X49012239Y43748072D01*
X49018657Y43655606D01*
X49018659Y43655590D01*
X49069593Y43439032D01*
X49069595Y43439027D01*
X49069596Y43439024D01*
X49109223Y43349278D01*
X49154271Y43247253D01*
X49163342Y43177975D01*
X49154271Y43147083D01*
X49144802Y43125636D01*
X49069596Y42955310D01*
X49069593Y42955303D01*
X49018657Y42738737D01*
X49012843Y42654984D01*
X49011615Y42644176D01*
X48987239Y42490260D01*
X48987239Y36404070D01*
X49024185Y36170799D01*
X49097172Y35946171D01*
X49204396Y35735733D01*
X49343222Y35544657D01*
X53970229Y30917650D01*
X54161305Y30778824D01*
X54292127Y30712167D01*
X54365693Y30674683D01*
X54416489Y30626708D01*
X54433284Y30558887D01*
X54416786Y30502199D01*
X54324514Y30342378D01*
X54324512Y30342373D01*
X54231686Y30118272D01*
X54168900Y29883953D01*
X54137239Y29643456D01*
X54137239Y29400879D01*
X54168900Y29160382D01*
X54231686Y28926063D01*
X54295225Y28772667D01*
X54324515Y28701955D01*
X54445803Y28491878D01*
X54445805Y28491875D01*
X54445806Y28491874D01*
X54593472Y28299431D01*
X54593478Y28299424D01*
X54764995Y28127907D01*
X54765001Y28127902D01*
X54903449Y28021667D01*
X54917303Y28011037D01*
X54958506Y27954609D01*
X54962661Y27884863D01*
X54942136Y27839776D01*
X54833115Y27689721D01*
X54736643Y27500385D01*
X54670981Y27298298D01*
X54670981Y27298295D01*
X54637739Y27088414D01*
X54637739Y26875921D01*
X54670981Y26666040D01*
X54670981Y26666037D01*
X54736643Y26463950D01*
X54833114Y26274617D01*
X54872467Y26220451D01*
X55504775Y26852760D01*
X55521814Y26789174D01*
X55587640Y26675160D01*
X55680732Y26582068D01*
X55794746Y26516242D01*
X55858329Y26499205D01*
X55226021Y25866898D01*
X55226021Y25866897D01*
X55280188Y25827543D01*
X55469521Y25731072D01*
X55671609Y25665410D01*
X55881493Y25632167D01*
X56093985Y25632167D01*
X56303866Y25665410D01*
X56303869Y25665410D01*
X56505956Y25731072D01*
X56695293Y25827545D01*
X56749455Y25866897D01*
X56749456Y25866897D01*
X56117147Y26499205D01*
X56180732Y26516242D01*
X56294746Y26582068D01*
X56387838Y26675160D01*
X56453664Y26789174D01*
X56470701Y26852758D01*
X57103009Y26220450D01*
X57103009Y26220451D01*
X57142361Y26274613D01*
X57238834Y26463950D01*
X57304496Y26666037D01*
X57304496Y26666040D01*
X57337739Y26875921D01*
X57337739Y27088414D01*
X57304496Y27298295D01*
X57304496Y27298298D01*
X57238834Y27500385D01*
X57142359Y27689725D01*
X57041247Y27828896D01*
X57017767Y27894702D01*
X57033593Y27962756D01*
X57083699Y28011451D01*
X57122167Y28024254D01*
X57178172Y28033125D01*
X57339107Y28058614D01*
X57563731Y28131599D01*
X57774173Y28238824D01*
X57965249Y28377650D01*
X59287819Y29700220D01*
X59349142Y29733705D01*
X59418834Y29728721D01*
X59474767Y29686849D01*
X59499184Y29621385D01*
X59499500Y29612539D01*
X59499500Y624500D01*
X59479815Y557461D01*
X59427011Y511706D01*
X59375500Y500500D01*
X624500Y500500D01*
X557461Y520185D01*
X511706Y572989D01*
X500500Y624500D01*
X500500Y4725585D01*
X13472740Y4725585D01*
X13479147Y4655065D01*
X13479148Y4655060D01*
X13529720Y4492771D01*
X13617666Y4347290D01*
X13737861Y4227095D01*
X13883343Y4139148D01*
X13883342Y4139148D01*
X14045633Y4088577D01*
X14045631Y4088577D01*
X14116157Y4082168D01*
X14197738Y4082169D01*
X14197739Y4082169D01*
X14197739Y4732167D01*
X13472740Y4732167D01*
X13472740Y4725585D01*
X500500Y4725585D01*
X500500Y9906263D01*
X12972239Y9906263D01*
X12972239Y9358072D01*
X12978657Y9265606D01*
X12978659Y9265590D01*
X13029593Y9049032D01*
X13029595Y9049027D01*
X13029596Y9049024D01*
X13114271Y8857253D01*
X13123342Y8787975D01*
X13114271Y8757083D01*
X13087766Y8697053D01*
X13029596Y8565310D01*
X13029593Y8565303D01*
X12978659Y8348745D01*
X12978657Y8348729D01*
X12972239Y8256263D01*
X12972239Y7708072D01*
X12978657Y7615606D01*
X12978659Y7615590D01*
X13029593Y7399034D01*
X13029596Y7399023D01*
X13048040Y7357250D01*
X13057109Y7287971D01*
X13048040Y7257084D01*
X13029596Y7215312D01*
X13029593Y7215301D01*
X12978659Y6998745D01*
X12978657Y6998729D01*
X12972239Y6906263D01*
X12972239Y6358072D01*
X12978657Y6265606D01*
X12978659Y6265590D01*
X13029593Y6049032D01*
X13029599Y6049016D01*
X13119460Y5845499D01*
X13230950Y5682743D01*
X13245197Y5661946D01*
X13402518Y5504625D01*
X13440281Y5478757D01*
X13484463Y5424632D01*
X13492369Y5355211D01*
X13488589Y5339569D01*
X13479148Y5309271D01*
X13472739Y5238740D01*
X13472739Y5232167D01*
X14087411Y5232167D01*
X14091570Y5232159D01*
X14098647Y5231667D01*
X14324001Y5231667D01*
X14357680Y5221701D01*
X14390778Y5211982D01*
X14390866Y5211881D01*
X14390999Y5211841D01*
X14414006Y5185176D01*
X14436533Y5159178D01*
X14436565Y5159029D01*
X14436642Y5158940D01*
X14436748Y5158187D01*
X14447739Y5107667D01*
X14447739Y4982167D01*
X14573739Y4982167D01*
X14640778Y4962482D01*
X14686533Y4909678D01*
X14697739Y4858167D01*
X14697739Y4082168D01*
X14779320Y4082168D01*
X14849841Y4088576D01*
X14849846Y4088577D01*
X15012135Y4139149D01*
X15157616Y4227095D01*
X15191630Y4261110D01*
X15252952Y4294597D01*
X15322644Y4289614D01*
X15375415Y4251792D01*
X15461629Y4146058D01*
X15532125Y4088577D01*
X15619332Y4017469D01*
X15799690Y3923258D01*
X15995321Y3867281D01*
X16114702Y3856667D01*
X17180775Y3856668D01*
X17300157Y3867281D01*
X17495788Y3923258D01*
X17676146Y4017469D01*
X17719378Y4052721D01*
X17783773Y4079830D01*
X17852603Y4067821D01*
X17876096Y4052723D01*
X17919332Y4017469D01*
X18099690Y3923258D01*
X18295321Y3867281D01*
X18414702Y3856667D01*
X19480775Y3856668D01*
X19600157Y3867281D01*
X19795788Y3923258D01*
X19976146Y4017469D01*
X20019378Y4052721D01*
X20083773Y4079830D01*
X20152603Y4067821D01*
X20176096Y4052723D01*
X20219332Y4017469D01*
X20399690Y3923258D01*
X20595321Y3867281D01*
X20714702Y3856667D01*
X21780775Y3856668D01*
X21900157Y3867281D01*
X22095788Y3923258D01*
X22276146Y4017469D01*
X22433848Y4146058D01*
X22562437Y4303760D01*
X22656648Y4484118D01*
X22712625Y4679749D01*
X22722751Y4793650D01*
X22748295Y4858681D01*
X22804943Y4899580D01*
X22846264Y4906667D01*
X27503322Y4906667D01*
X27570361Y4886982D01*
X27599422Y4861030D01*
X27611630Y4846058D01*
X27769332Y4717469D01*
X27949690Y4623258D01*
X28145321Y4567281D01*
X28264702Y4556667D01*
X30199849Y4556668D01*
X30266888Y4536983D01*
X30287530Y4520349D01*
X32430229Y2377650D01*
X32621305Y2238824D01*
X32720731Y2188164D01*
X32831742Y2131601D01*
X32831744Y2131601D01*
X32831747Y2131599D01*
X32952151Y2092478D01*
X33056370Y2058614D01*
X33289642Y2021667D01*
X33289647Y2021667D01*
X45605836Y2021667D01*
X45839107Y2058614D01*
X46063731Y2131599D01*
X46274173Y2238824D01*
X46465249Y2377650D01*
X47392256Y3304657D01*
X47531082Y3495733D01*
X47638307Y3706175D01*
X47687205Y3856668D01*
X47687206Y3856669D01*
X47708841Y3923257D01*
X47711292Y3930799D01*
X47732994Y4067821D01*
X47748239Y4164070D01*
X47748239Y4648107D01*
X56138567Y4648107D01*
X56138567Y4076678D01*
X56140926Y4052720D01*
X56141449Y4047417D01*
X56141450Y4047410D01*
X56163847Y3993341D01*
X56205229Y3951959D01*
X56256304Y3930802D01*
X56259303Y3929560D01*
X56288567Y3926678D01*
X56288571Y3926678D01*
X57788563Y3926678D01*
X57788567Y3926678D01*
X57817831Y3929560D01*
X57871903Y3951958D01*
X57913287Y3993342D01*
X57935685Y4047414D01*
X57935685Y4105942D01*
X57931264Y4116615D01*
X57913288Y4160013D01*
X57913285Y4160017D01*
X57871904Y4201398D01*
X57817835Y4223795D01*
X57817832Y4223796D01*
X57817831Y4223796D01*
X57788567Y4226678D01*
X57788563Y4226678D01*
X57348281Y4226678D01*
X57281242Y4246363D01*
X57235487Y4299167D01*
X57224281Y4350678D01*
X57224281Y4648104D01*
X57223596Y4655060D01*
X57221399Y4677371D01*
X57219336Y4682350D01*
X57218955Y4687725D01*
X57208445Y4715188D01*
X57137017Y4858046D01*
X57130552Y4868315D01*
X57128414Y4872897D01*
X57127571Y4874304D01*
X57124185Y4878429D01*
X57121352Y4882931D01*
X57118363Y4885524D01*
X57111695Y4893648D01*
X57111694Y4893649D01*
X57108921Y4897028D01*
X57096271Y4909678D01*
X57037490Y4968459D01*
X57034106Y4971237D01*
X57025986Y4977901D01*
X57023392Y4980892D01*
X57018883Y4983730D01*
X57014762Y4987112D01*
X57007177Y4991659D01*
X57002196Y4994234D01*
X56998510Y4996555D01*
X56998496Y4996563D01*
X56855649Y5067985D01*
X56828185Y5078495D01*
X56828183Y5078496D01*
X56824613Y5079287D01*
X56821336Y5080061D01*
X56817833Y5080939D01*
X56808076Y5081900D01*
X56788567Y5083821D01*
X56574281Y5083821D01*
X56571658Y5083563D01*
X56545017Y5080940D01*
X56541510Y5080061D01*
X56539017Y5080162D01*
X56507199Y5067985D01*
X56364352Y4996563D01*
X56364324Y4996547D01*
X56360639Y4994228D01*
X56360640Y4994227D01*
X56351747Y4988629D01*
X56348088Y4987113D01*
X56343967Y4983733D01*
X56339452Y4980890D01*
X56332790Y4975175D01*
X56328758Y4971251D01*
X56325356Y4968459D01*
X56253929Y4897030D01*
X56253927Y4897028D01*
X56251134Y4893625D01*
X56244491Y4885530D01*
X56241497Y4882932D01*
X56238658Y4878424D01*
X56235278Y4874304D01*
X56230746Y4866744D01*
X56228169Y4861760D01*
X56225836Y4858055D01*
X56154400Y4715183D01*
X56145848Y4692833D01*
X56143894Y4687726D01*
X56143512Y4682352D01*
X56141449Y4677371D01*
X56138567Y4648107D01*
X47748239Y4648107D01*
X47748239Y5605942D01*
X56141449Y5605942D01*
X56141449Y5605941D01*
X56141449Y5605940D01*
X56141449Y5547414D01*
X56143675Y5542041D01*
X56163846Y5493343D01*
X56163847Y5493342D01*
X56182502Y5470611D01*
X56253931Y5399183D01*
X56253936Y5399179D01*
X56271953Y5384393D01*
X56274968Y5381660D01*
X56276659Y5380530D01*
X56276660Y5380530D01*
X56276661Y5380529D01*
X56330733Y5358132D01*
X56330734Y5358132D01*
X56330735Y5358132D01*
X56389257Y5358132D01*
X56389259Y5358132D01*
X56443331Y5380529D01*
X56466062Y5399184D01*
X56524353Y5457476D01*
X56541923Y5467070D01*
X56556581Y5480703D01*
X56571958Y5483470D01*
X56585674Y5490959D01*
X56605643Y5489531D01*
X56625346Y5493076D01*
X56639779Y5487090D01*
X56655366Y5485975D01*
X56678840Y5470889D01*
X56689885Y5466308D01*
X56693035Y5461767D01*
X56699714Y5457474D01*
X56705229Y5451959D01*
X56705230Y5451959D01*
X56705231Y5451958D01*
X56759303Y5429560D01*
X56788567Y5426678D01*
X56788571Y5426678D01*
X57788563Y5426678D01*
X57788567Y5426678D01*
X57817831Y5429560D01*
X57871903Y5451958D01*
X57913287Y5493342D01*
X57935685Y5547414D01*
X57935685Y5605942D01*
X57913288Y5660012D01*
X57913288Y5660013D01*
X57913285Y5660017D01*
X57871904Y5701398D01*
X57817835Y5723795D01*
X57817832Y5723796D01*
X57817831Y5723796D01*
X57788567Y5726678D01*
X56788567Y5726678D01*
X56759303Y5723796D01*
X56759301Y5723796D01*
X56759298Y5723795D01*
X56705229Y5701398D01*
X56699711Y5695880D01*
X56638387Y5662397D01*
X56568695Y5667384D01*
X56526523Y5693764D01*
X56525417Y5694818D01*
X56466063Y5754172D01*
X56444503Y5771866D01*
X56443873Y5772466D01*
X56443332Y5772827D01*
X56443331Y5772828D01*
X56443324Y5772831D01*
X56411658Y5785948D01*
X56389263Y5795224D01*
X56389261Y5795225D01*
X56389260Y5795225D01*
X56389259Y5795225D01*
X56330733Y5795225D01*
X56330731Y5795225D01*
X56330729Y5795224D01*
X56276665Y5772831D01*
X56276659Y5772827D01*
X56253924Y5754169D01*
X56182509Y5682754D01*
X56182501Y5682744D01*
X56163846Y5660013D01*
X56163846Y5660012D01*
X56141449Y5605942D01*
X47748239Y5605942D01*
X47748239Y6900255D01*
X47748239Y6900259D01*
X47741098Y6945347D01*
X56639011Y6945347D01*
X56645983Y6887240D01*
X56645983Y6887239D01*
X56645984Y6887238D01*
X56674664Y6836219D01*
X56695894Y6815873D01*
X56695897Y6815871D01*
X56695898Y6815870D01*
X56921682Y6638467D01*
X56962235Y6581570D01*
X56965589Y6511781D01*
X56930680Y6451257D01*
X56921682Y6443461D01*
X56695898Y6266059D01*
X56695897Y6266058D01*
X56674664Y6245710D01*
X56645983Y6194689D01*
X56639011Y6136582D01*
X56654805Y6080224D01*
X56690962Y6034207D01*
X56690963Y6034207D01*
X56690965Y6034204D01*
X56741984Y6005524D01*
X56800093Y5998551D01*
X56856449Y6014345D01*
X56881240Y6030159D01*
X57211958Y6290010D01*
X57276831Y6315950D01*
X57345433Y6302697D01*
X57365171Y6290012D01*
X57396254Y6265590D01*
X57695880Y6030168D01*
X57695887Y6030163D01*
X57695891Y6030160D01*
X57695893Y6030159D01*
X57720685Y6014346D01*
X57720687Y6014345D01*
X57742050Y6008358D01*
X57777041Y5998551D01*
X57835150Y6005524D01*
X57886168Y6034204D01*
X57922328Y6080225D01*
X57938123Y6136581D01*
X57931150Y6194690D01*
X57902470Y6245709D01*
X57881240Y6266055D01*
X57655448Y6443463D01*
X57614897Y6500357D01*
X57611543Y6570146D01*
X57646452Y6630670D01*
X57655437Y6638458D01*
X57881240Y6815873D01*
X57902470Y6836219D01*
X57931150Y6887238D01*
X57938123Y6945347D01*
X57922328Y7001703D01*
X57922327Y7001704D01*
X57922327Y7001705D01*
X57886169Y7047723D01*
X57886168Y7047724D01*
X57835150Y7076404D01*
X57835149Y7076405D01*
X57835148Y7076405D01*
X57784963Y7082427D01*
X57777041Y7083377D01*
X57777040Y7083377D01*
X57734472Y7071447D01*
X57726228Y7071549D01*
X57719117Y7066583D01*
X57695892Y7051769D01*
X57365175Y6791921D01*
X57300299Y6765981D01*
X57231697Y6779234D01*
X57211955Y6791922D01*
X56881243Y7051767D01*
X56858019Y7066582D01*
X56855911Y7068998D01*
X56854161Y7068808D01*
X56842660Y7071448D01*
X56800091Y7083378D01*
X56741985Y7076405D01*
X56690965Y7047724D01*
X56690962Y7047722D01*
X56654805Y7001705D01*
X56639011Y6945347D01*
X47741098Y6945347D01*
X47724765Y7048467D01*
X47723238Y7067865D01*
X47723238Y7933822D01*
X56638567Y7933822D01*
X56638567Y7648107D01*
X56641449Y7618843D01*
X56643512Y7613863D01*
X56643894Y7608488D01*
X56654403Y7581025D01*
X56725832Y7438168D01*
X56726237Y7437524D01*
X56727458Y7434864D01*
X56731476Y7427818D01*
X56737227Y7420065D01*
X56741496Y7413283D01*
X56741497Y7413281D01*
X56749049Y7406732D01*
X56749048Y7406732D01*
X56755713Y7400952D01*
X56768029Y7386751D01*
X56782836Y7377430D01*
X56785712Y7374936D01*
X56785715Y7374935D01*
X56790838Y7372015D01*
X56792112Y7371487D01*
X56792913Y7371087D01*
X56792914Y7371086D01*
X56931576Y7301756D01*
X56942003Y7292057D01*
X56951669Y7291328D01*
X56954875Y7291397D01*
X56962082Y7289590D01*
X56963235Y7289148D01*
X56964079Y7289089D01*
X56970092Y7287580D01*
X56970093Y7287580D01*
X56973583Y7286705D01*
X56973587Y7286705D01*
X56973589Y7286704D01*
X57002853Y7283822D01*
X57288719Y7283822D01*
X57288724Y7283821D01*
X57288729Y7283822D01*
X57574281Y7283822D01*
X57603545Y7286704D01*
X57603549Y7286706D01*
X57607018Y7287575D01*
X57613048Y7289088D01*
X57613899Y7289148D01*
X57615059Y7289593D01*
X57622263Y7291399D01*
X57630887Y7291056D01*
X57635265Y7295983D01*
X57645531Y7301743D01*
X57784221Y7371086D01*
X57789114Y7374167D01*
X57791423Y7374936D01*
X57794297Y7377430D01*
X57809106Y7386751D01*
X57819759Y7399034D01*
X57821430Y7400962D01*
X57835638Y7413283D01*
X57844953Y7428084D01*
X57847450Y7430961D01*
X57847450Y7430963D01*
X57847453Y7430965D01*
X57847454Y7430969D01*
X57850368Y7436080D01*
X57850899Y7437361D01*
X57851300Y7438165D01*
X57851303Y7438168D01*
X57922731Y7581026D01*
X57923801Y7583822D01*
X57933238Y7608480D01*
X57933238Y7608483D01*
X57933241Y7608489D01*
X57933241Y7608496D01*
X57934024Y7612026D01*
X57934809Y7615349D01*
X57935683Y7618839D01*
X57935685Y7618843D01*
X57938567Y7648107D01*
X57938567Y7933822D01*
X57935685Y7963086D01*
X57935684Y7963088D01*
X57935684Y7963092D01*
X57934800Y7966621D01*
X57934020Y7969924D01*
X57933241Y7973436D01*
X57933241Y7973440D01*
X57933239Y7973446D01*
X57922736Y8000891D01*
X57922733Y8000899D01*
X57851309Y8143749D01*
X57851308Y8143750D01*
X57851303Y8143761D01*
X57839401Y8162668D01*
X57835639Y8168645D01*
X57835636Y8168648D01*
X57791424Y8206992D01*
X57791423Y8206993D01*
X57784742Y8209220D01*
X57735902Y8225501D01*
X57735896Y8225502D01*
X57677522Y8221354D01*
X57625173Y8195179D01*
X57586824Y8150962D01*
X57586824Y8150961D01*
X57568317Y8095443D01*
X57568316Y8095436D01*
X57572284Y8039589D01*
X57571998Y8038279D01*
X57582974Y8009599D01*
X57582975Y8009597D01*
X57587322Y8000904D01*
X57587323Y8000902D01*
X57594012Y7987524D01*
X57601051Y7973446D01*
X57601054Y7973440D01*
X57602339Y7970870D01*
X57602812Y7969924D01*
X57604451Y7966646D01*
X57606228Y7963092D01*
X57620863Y7933822D01*
X57621732Y7932084D01*
X57625476Y7924595D01*
X57637851Y7855830D01*
X57620260Y7813420D01*
X57635959Y7738088D01*
X57630365Y7668442D01*
X57625463Y7657310D01*
X57623806Y7653998D01*
X57576206Y7602851D01*
X57569344Y7599065D01*
X57569299Y7599042D01*
X57500646Y7586060D01*
X57435872Y7612254D01*
X57395544Y7669310D01*
X57391276Y7685126D01*
X57334127Y7970873D01*
X57335260Y7983690D01*
X57332393Y7987524D01*
X57327006Y8006474D01*
X57292797Y8177524D01*
X57284232Y8205655D01*
X57276053Y8217867D01*
X57270430Y8231443D01*
X57259927Y8241946D01*
X57251664Y8254284D01*
X57249646Y8255630D01*
X57230755Y8271118D01*
X57229043Y8272830D01*
X57226543Y8273865D01*
X57205221Y8285247D01*
X57202968Y8286749D01*
X57202963Y8286751D01*
X57200591Y8287220D01*
X57177202Y8294302D01*
X57174974Y8295225D01*
X57145710Y8298107D01*
X57002853Y8298107D01*
X57000144Y8297841D01*
X56978008Y8295661D01*
X56978005Y8295660D01*
X56973589Y8295225D01*
X56968610Y8293163D01*
X56963235Y8292781D01*
X56935772Y8282271D01*
X56792914Y8210843D01*
X56792267Y8210437D01*
X56789617Y8209220D01*
X56782589Y8205214D01*
X56774835Y8199465D01*
X56768036Y8195185D01*
X56768026Y8195176D01*
X56761478Y8187626D01*
X56749056Y8175204D01*
X56741501Y8168652D01*
X56741492Y8168641D01*
X56737731Y8162668D01*
X56737669Y8162567D01*
X56732174Y8153837D01*
X56729682Y8150963D01*
X56728912Y8148656D01*
X56725832Y8143761D01*
X56723961Y8140021D01*
X56723956Y8140011D01*
X56654401Y8000902D01*
X56643891Y7973435D01*
X56643111Y7969915D01*
X56642340Y7966646D01*
X56641448Y7963087D01*
X56638567Y7933822D01*
X47723238Y7933822D01*
X47723238Y8265196D01*
X47723238Y8265203D01*
X47712625Y8384585D01*
X47667751Y8541411D01*
X47656649Y8580213D01*
X47656648Y8580214D01*
X47656648Y8580216D01*
X47562437Y8760574D01*
X47513797Y8820227D01*
X56141449Y8820227D01*
X56141449Y8761702D01*
X56141450Y8761696D01*
X56163845Y8707630D01*
X56163848Y8707626D01*
X56205229Y8666245D01*
X56205230Y8666245D01*
X56205231Y8666244D01*
X56259303Y8643846D01*
X56288567Y8640964D01*
X56288571Y8640964D01*
X57574278Y8640964D01*
X57574281Y8640964D01*
X57603545Y8643846D01*
X57608522Y8645908D01*
X57613900Y8646290D01*
X57641363Y8656800D01*
X57784221Y8728229D01*
X57784872Y8728640D01*
X57787507Y8729848D01*
X57791416Y8732077D01*
X57791423Y8732079D01*
X57791428Y8732084D01*
X57794583Y8733882D01*
X57802329Y8739629D01*
X57809107Y8743894D01*
X57815654Y8751445D01*
X57828086Y8763878D01*
X57835638Y8770426D01*
X57844959Y8785234D01*
X57847453Y8788109D01*
X57848222Y8790418D01*
X57851303Y8795311D01*
X57922731Y8938169D01*
X57933241Y8965632D01*
X57937389Y9024012D01*
X57918881Y9079535D01*
X57880534Y9123750D01*
X57828185Y9149924D01*
X57828183Y9149925D01*
X57769809Y9154073D01*
X57769803Y9154072D01*
X57714284Y9135565D01*
X57714282Y9135564D01*
X57670066Y9097217D01*
X57654408Y9072342D01*
X57654397Y9072322D01*
X57623818Y9011165D01*
X57576230Y8960007D01*
X57568391Y8955725D01*
X57566453Y8954756D01*
X57565077Y8954068D01*
X57509598Y8940964D01*
X56288567Y8940964D01*
X56259303Y8938082D01*
X56259301Y8938082D01*
X56259298Y8938081D01*
X56205229Y8915684D01*
X56163848Y8874303D01*
X56163845Y8874299D01*
X56141450Y8820233D01*
X56141449Y8820227D01*
X47513797Y8820227D01*
X47469706Y8874300D01*
X47433848Y8918277D01*
X47304172Y9024013D01*
X47276146Y9046865D01*
X47095788Y9141076D01*
X47095787Y9141077D01*
X47095784Y9141078D01*
X46978568Y9174617D01*
X46900157Y9197053D01*
X46900154Y9197054D01*
X46900152Y9197054D01*
X46832087Y9203105D01*
X46780776Y9207667D01*
X46780771Y9207667D01*
X45714710Y9207667D01*
X45714704Y9207667D01*
X45714703Y9207666D01*
X45703055Y9206631D01*
X45595323Y9197054D01*
X45481350Y9164442D01*
X45411482Y9164925D01*
X45352967Y9203105D01*
X45324382Y9266860D01*
X45323239Y9283658D01*
X45323239Y9432668D01*
X45342924Y9499707D01*
X45395728Y9545462D01*
X45447239Y9556668D01*
X45630767Y9556668D01*
X45630775Y9556668D01*
X45750157Y9567281D01*
X45945788Y9623258D01*
X46126146Y9717469D01*
X46283848Y9846058D01*
X46412437Y10003760D01*
X46506648Y10184118D01*
X46562625Y10379749D01*
X46573239Y10499130D01*
X46573238Y11290964D01*
X56138567Y11290964D01*
X56138567Y10719535D01*
X56140576Y10699131D01*
X56141449Y10690274D01*
X56141450Y10690267D01*
X56163847Y10636198D01*
X56205229Y10594816D01*
X56205230Y10594816D01*
X56205231Y10594815D01*
X56259303Y10572417D01*
X56288567Y10569535D01*
X56288571Y10569535D01*
X57788563Y10569535D01*
X57788567Y10569535D01*
X57817831Y10572417D01*
X57871903Y10594815D01*
X57913287Y10636199D01*
X57935685Y10690271D01*
X57935685Y10748799D01*
X57935683Y10748804D01*
X57913288Y10802870D01*
X57913285Y10802874D01*
X57871904Y10844255D01*
X57817835Y10866652D01*
X57817832Y10866653D01*
X57817831Y10866653D01*
X57788567Y10869535D01*
X57788563Y10869535D01*
X57348281Y10869535D01*
X57281242Y10889220D01*
X57235487Y10942024D01*
X57224281Y10993535D01*
X57224281Y11290961D01*
X57223981Y11294008D01*
X57221399Y11320228D01*
X57219336Y11325207D01*
X57218955Y11330582D01*
X57208445Y11358045D01*
X57137017Y11500903D01*
X57130552Y11511172D01*
X57128414Y11515754D01*
X57127571Y11517161D01*
X57124185Y11521286D01*
X57121352Y11525788D01*
X57118363Y11528381D01*
X57111695Y11536505D01*
X57111694Y11536506D01*
X57108921Y11539885D01*
X57088360Y11560446D01*
X57037490Y11611316D01*
X57034106Y11614094D01*
X57025986Y11620758D01*
X57023392Y11623749D01*
X57018883Y11626587D01*
X57014762Y11629969D01*
X57007177Y11634516D01*
X57002196Y11637091D01*
X56998510Y11639412D01*
X56998496Y11639420D01*
X56855649Y11710842D01*
X56828185Y11721352D01*
X56828183Y11721353D01*
X56824613Y11722144D01*
X56821336Y11722918D01*
X56817833Y11723796D01*
X56808076Y11724757D01*
X56788567Y11726678D01*
X56574281Y11726678D01*
X56570583Y11726314D01*
X56549733Y11724261D01*
X56549731Y11724261D01*
X56545017Y11723796D01*
X56540038Y11721734D01*
X56534663Y11721352D01*
X56507200Y11710842D01*
X56364342Y11639414D01*
X56354070Y11632949D01*
X56349488Y11630810D01*
X56348081Y11629967D01*
X56343957Y11626583D01*
X56339457Y11623749D01*
X56336868Y11620766D01*
X56328761Y11614112D01*
X56328758Y11614108D01*
X56325356Y11611316D01*
X56253929Y11539887D01*
X56253927Y11539885D01*
X56251134Y11536482D01*
X56244491Y11528387D01*
X56241497Y11525789D01*
X56238658Y11521281D01*
X56235278Y11517161D01*
X56230746Y11509601D01*
X56228169Y11504617D01*
X56225836Y11500912D01*
X56154400Y11358040D01*
X56145848Y11335690D01*
X56143894Y11330583D01*
X56143512Y11325209D01*
X56141449Y11320228D01*
X56138567Y11290964D01*
X46573238Y11290964D01*
X46573238Y11500903D01*
X46573238Y12248798D01*
X56141449Y12248798D01*
X56141449Y12190273D01*
X56141450Y12190267D01*
X56163845Y12136201D01*
X56163848Y12136197D01*
X56205229Y12094816D01*
X56205230Y12094816D01*
X56205231Y12094815D01*
X56259303Y12072417D01*
X56288567Y12069535D01*
X56288571Y12069535D01*
X57574278Y12069535D01*
X57574281Y12069535D01*
X57603545Y12072417D01*
X57608522Y12074479D01*
X57613900Y12074861D01*
X57641363Y12085371D01*
X57784221Y12156800D01*
X57784872Y12157211D01*
X57787507Y12158419D01*
X57791416Y12160648D01*
X57791423Y12160650D01*
X57791428Y12160655D01*
X57794583Y12162453D01*
X57802329Y12168200D01*
X57809107Y12172465D01*
X57815654Y12180016D01*
X57828086Y12192449D01*
X57835638Y12198997D01*
X57844959Y12213805D01*
X57847453Y12216680D01*
X57848222Y12218989D01*
X57851303Y12223882D01*
X57922731Y12366740D01*
X57933241Y12394203D01*
X57937389Y12452583D01*
X57918881Y12508106D01*
X57880534Y12552321D01*
X57828185Y12578495D01*
X57828183Y12578496D01*
X57769809Y12582644D01*
X57769802Y12582643D01*
X57737659Y12571928D01*
X57724852Y12571465D01*
X57715729Y12565390D01*
X57670066Y12525788D01*
X57654408Y12500913D01*
X57654397Y12500893D01*
X57623818Y12439736D01*
X57576230Y12388578D01*
X57568391Y12384296D01*
X57566453Y12383327D01*
X57565077Y12382639D01*
X57509598Y12369535D01*
X56288567Y12369535D01*
X56259303Y12366653D01*
X56259301Y12366653D01*
X56259298Y12366652D01*
X56205229Y12344255D01*
X56163848Y12302874D01*
X56163845Y12302870D01*
X56141450Y12248804D01*
X56141449Y12248798D01*
X46573238Y12248798D01*
X46573238Y12434279D01*
X46592923Y12501318D01*
X46609552Y12521955D01*
X47521419Y13433821D01*
X56638567Y13433821D01*
X56638567Y13148110D01*
X56641449Y13118842D01*
X56642330Y13115326D01*
X56643104Y13112048D01*
X56643893Y13108490D01*
X56654401Y13081027D01*
X56725826Y12938177D01*
X56725837Y12938158D01*
X56741495Y12913283D01*
X56741496Y12913282D01*
X56741497Y12913281D01*
X56785712Y12874935D01*
X56785715Y12874934D01*
X56785717Y12874933D01*
X56841232Y12856428D01*
X56841235Y12856427D01*
X56899615Y12860576D01*
X56951964Y12886750D01*
X56978864Y12917768D01*
X57037656Y12955515D01*
X57107526Y12955485D01*
X57159538Y12924882D01*
X57168026Y12916525D01*
X57170068Y12913281D01*
X57180572Y12904172D01*
X57183376Y12901411D01*
X57183921Y12900430D01*
X57190054Y12894298D01*
X57196600Y12886750D01*
X57211407Y12877429D01*
X57214283Y12874935D01*
X57216591Y12874166D01*
X57221485Y12871085D01*
X57342503Y12810577D01*
X57364347Y12799655D01*
X57364355Y12799652D01*
X57391800Y12789149D01*
X57391801Y12789149D01*
X57391806Y12789147D01*
X57391810Y12789147D01*
X57395322Y12788368D01*
X57398625Y12787588D01*
X57402154Y12786704D01*
X57402158Y12786704D01*
X57402160Y12786703D01*
X57431424Y12783821D01*
X57431427Y12783821D01*
X57574279Y12783821D01*
X57574281Y12783821D01*
X57603545Y12786703D01*
X57603549Y12786705D01*
X57607039Y12787579D01*
X57610106Y12788307D01*
X57613841Y12789143D01*
X57613899Y12789147D01*
X57613954Y12789169D01*
X57622756Y12791138D01*
X57627243Y12790844D01*
X57627683Y12791390D01*
X57642978Y12800466D01*
X57784221Y12871085D01*
X57789114Y12874166D01*
X57791423Y12874935D01*
X57794297Y12877429D01*
X57809106Y12886750D01*
X57818101Y12897123D01*
X57821430Y12900961D01*
X57835638Y12913282D01*
X57844953Y12928083D01*
X57847450Y12930960D01*
X57847450Y12930962D01*
X57847453Y12930964D01*
X57847454Y12930968D01*
X57850368Y12936079D01*
X57850899Y12937360D01*
X57851300Y12938164D01*
X57851303Y12938167D01*
X57922731Y13081025D01*
X57924093Y13084585D01*
X57933238Y13108479D01*
X57933238Y13108482D01*
X57933241Y13108488D01*
X57933241Y13108495D01*
X57934024Y13112025D01*
X57934809Y13115348D01*
X57935683Y13118838D01*
X57935685Y13118842D01*
X57938567Y13148106D01*
X57938567Y13505249D01*
X57935685Y13534513D01*
X57935684Y13534515D01*
X57935684Y13534519D01*
X57934800Y13538048D01*
X57934022Y13541343D01*
X57931872Y13551042D01*
X57935611Y13606404D01*
X57933302Y13606863D01*
X57935685Y13618842D01*
X57935685Y13677369D01*
X57935683Y13677375D01*
X57913288Y13731441D01*
X57913285Y13731445D01*
X57871904Y13772826D01*
X57817835Y13795223D01*
X57817832Y13795224D01*
X57817831Y13795224D01*
X57788567Y13798106D01*
X57002853Y13798106D01*
X57000230Y13797848D01*
X56973589Y13795225D01*
X56970082Y13794346D01*
X56966813Y13793575D01*
X56964376Y13793035D01*
X56963950Y13792831D01*
X56963235Y13792780D01*
X56935772Y13782270D01*
X56792914Y13710842D01*
X56792674Y13710692D01*
X56790251Y13709529D01*
X56789942Y13709405D01*
X56782589Y13705213D01*
X56774835Y13699464D01*
X56768036Y13695184D01*
X56768026Y13695175D01*
X56761478Y13687625D01*
X56749056Y13675203D01*
X56741501Y13668651D01*
X56741492Y13668640D01*
X56737731Y13662667D01*
X56737669Y13662566D01*
X56732174Y13653836D01*
X56729682Y13650962D01*
X56728912Y13648655D01*
X56725832Y13643760D01*
X56723961Y13640020D01*
X56723956Y13640010D01*
X56654401Y13500901D01*
X56643891Y13473434D01*
X56643111Y13469914D01*
X56642340Y13466645D01*
X56641448Y13463086D01*
X56638567Y13433821D01*
X47521419Y13433821D01*
X48632256Y14544657D01*
X48771082Y14735733D01*
X48878307Y14946175D01*
X48951292Y15170799D01*
X48951556Y15172465D01*
X48963646Y15248798D01*
X56141449Y15248798D01*
X56141449Y15190273D01*
X56141450Y15190267D01*
X56163845Y15136201D01*
X56163848Y15136197D01*
X56205229Y15094816D01*
X56205230Y15094816D01*
X56205231Y15094815D01*
X56259303Y15072417D01*
X56288567Y15069535D01*
X56521246Y15069535D01*
X56588285Y15049850D01*
X56616552Y15017228D01*
X56619762Y15015010D01*
X56622582Y15010269D01*
X56634040Y14997046D01*
X56636386Y14991565D01*
X56641068Y14979853D01*
X56641449Y14975986D01*
X56663847Y14921914D01*
X56664486Y14921275D01*
X56669624Y14908423D01*
X56671748Y14886059D01*
X56678464Y14864622D01*
X56674989Y14851950D01*
X56676232Y14838866D01*
X56665928Y14818904D01*
X56665023Y14815604D01*
X56668521Y14814155D01*
X56641450Y14748804D01*
X56641449Y14748801D01*
X56641449Y14748799D01*
X56640163Y14735733D01*
X56638567Y14719531D01*
X56638567Y14636392D01*
X56618882Y14569353D01*
X56566078Y14523598D01*
X56514567Y14512392D01*
X56288567Y14512392D01*
X56259303Y14509510D01*
X56259301Y14509510D01*
X56259298Y14509509D01*
X56205229Y14487112D01*
X56163848Y14445731D01*
X56163845Y14445727D01*
X56141450Y14391661D01*
X56141449Y14391655D01*
X56141449Y14333130D01*
X56141450Y14333124D01*
X56163845Y14279058D01*
X56163848Y14279054D01*
X56205229Y14237673D01*
X56205230Y14237673D01*
X56205231Y14237672D01*
X56259303Y14215274D01*
X56288567Y14212392D01*
X56521246Y14212392D01*
X56588285Y14192707D01*
X56634040Y14139903D01*
X56641237Y14119354D01*
X56663847Y14064770D01*
X56705228Y14023389D01*
X56705232Y14023386D01*
X56750375Y14004687D01*
X56759303Y14000989D01*
X56759304Y14000989D01*
X56817830Y14000989D01*
X56817831Y14000989D01*
X56871903Y14023387D01*
X56913287Y14064771D01*
X56935685Y14118843D01*
X56935685Y14118844D01*
X56939185Y14127293D01*
X56940449Y14126770D01*
X56970986Y14178767D01*
X57033325Y14210322D01*
X57055888Y14212392D01*
X57574278Y14212392D01*
X57574281Y14212392D01*
X57603545Y14215274D01*
X57608522Y14217336D01*
X57613900Y14217718D01*
X57641363Y14228228D01*
X57784221Y14299657D01*
X57784872Y14300068D01*
X57787507Y14301276D01*
X57791416Y14303505D01*
X57791423Y14303507D01*
X57791428Y14303512D01*
X57794583Y14305310D01*
X57802329Y14311057D01*
X57809107Y14315322D01*
X57815654Y14322873D01*
X57828086Y14335306D01*
X57835638Y14341854D01*
X57844959Y14356662D01*
X57847453Y14359537D01*
X57848222Y14361846D01*
X57851303Y14366739D01*
X57922731Y14509597D01*
X57928089Y14523598D01*
X57933238Y14537051D01*
X57933238Y14537054D01*
X57933241Y14537060D01*
X57933241Y14537067D01*
X57934024Y14540597D01*
X57934809Y14543920D01*
X57935683Y14547410D01*
X57935685Y14547414D01*
X57938567Y14576678D01*
X57938567Y14719535D01*
X57935685Y14748799D01*
X57913287Y14802871D01*
X57913286Y14802872D01*
X57913286Y14802873D01*
X57871905Y14844254D01*
X57871901Y14844257D01*
X57817835Y14866652D01*
X57817831Y14866653D01*
X57759303Y14866653D01*
X57759302Y14866653D01*
X57759297Y14866652D01*
X57750397Y14862965D01*
X57735256Y14861338D01*
X57735062Y14861073D01*
X57728743Y14857439D01*
X57726991Y14855414D01*
X57712256Y14847955D01*
X57707362Y14845139D01*
X57705233Y14844258D01*
X57705228Y14844254D01*
X57663847Y14802873D01*
X57641450Y14748804D01*
X57641449Y14748801D01*
X57641449Y14748799D01*
X57640163Y14735733D01*
X57638567Y14719531D01*
X57638567Y14641362D01*
X57625469Y14585894D01*
X57623812Y14582581D01*
X57576219Y14531428D01*
X57568391Y14527153D01*
X57566453Y14526184D01*
X57565077Y14525496D01*
X57509598Y14512392D01*
X57062567Y14512392D01*
X56995528Y14532077D01*
X56949773Y14584881D01*
X56938567Y14636392D01*
X56938567Y14719531D01*
X56938567Y14719535D01*
X56935685Y14748799D01*
X56913287Y14802871D01*
X56908613Y14814155D01*
X56911310Y14815273D01*
X56908950Y14827344D01*
X56898670Y14860127D01*
X56900541Y14870351D01*
X56899704Y14874631D01*
X56905924Y14899768D01*
X56907509Y14908424D01*
X56912645Y14921273D01*
X56913287Y14921914D01*
X56935685Y14975986D01*
X56936066Y14979855D01*
X56940748Y14991566D01*
X56957365Y15012718D01*
X56970986Y15035910D01*
X56978624Y15039777D01*
X56983913Y15046508D01*
X57009326Y15055318D01*
X57033325Y15067465D01*
X57048345Y15068844D01*
X57049929Y15069392D01*
X57051138Y15069100D01*
X57055888Y15069535D01*
X57574278Y15069535D01*
X57574281Y15069535D01*
X57603545Y15072417D01*
X57603552Y15072421D01*
X57604574Y15072676D01*
X57611398Y15074684D01*
X57613900Y15074861D01*
X57620201Y15077273D01*
X57624905Y15078656D01*
X57632271Y15078660D01*
X57647486Y15088433D01*
X57784221Y15156800D01*
X57789115Y15159881D01*
X57791423Y15160650D01*
X57794296Y15163143D01*
X57809107Y15172465D01*
X57815654Y15180016D01*
X57828086Y15192449D01*
X57835638Y15198997D01*
X57844959Y15213805D01*
X57847453Y15216680D01*
X57848222Y15218989D01*
X57851303Y15223882D01*
X57922731Y15366740D01*
X57928089Y15380741D01*
X57933238Y15394194D01*
X57933238Y15394197D01*
X57933241Y15394203D01*
X57933241Y15394210D01*
X57934024Y15397740D01*
X57934809Y15401063D01*
X57935683Y15404553D01*
X57935685Y15404557D01*
X57938567Y15433821D01*
X57938567Y15576678D01*
X57935685Y15605942D01*
X57913287Y15660014D01*
X57913286Y15660015D01*
X57913286Y15660016D01*
X57871905Y15701397D01*
X57871901Y15701400D01*
X57810333Y15726903D01*
X57755930Y15770745D01*
X57733866Y15837039D01*
X57751146Y15904738D01*
X57786097Y15942639D01*
X57791292Y15946321D01*
X57791423Y15946364D01*
X57791729Y15946631D01*
X57796700Y15950152D01*
X57797742Y15950511D01*
X57802340Y15953920D01*
X57804891Y15955527D01*
X57809106Y15958179D01*
X57818101Y15968552D01*
X57821430Y15972390D01*
X57835638Y15984711D01*
X57844953Y15999512D01*
X57847450Y16002389D01*
X57847450Y16002391D01*
X57847453Y16002393D01*
X57847454Y16002397D01*
X57850368Y16007508D01*
X57850899Y16008789D01*
X57851300Y16009593D01*
X57851303Y16009596D01*
X57922731Y16152454D01*
X57923801Y16155250D01*
X57933238Y16179908D01*
X57933238Y16179911D01*
X57933241Y16179917D01*
X57933241Y16179924D01*
X57934024Y16183454D01*
X57934809Y16186777D01*
X57935683Y16190267D01*
X57935685Y16190271D01*
X57938567Y16219535D01*
X57938567Y16505250D01*
X57935685Y16534514D01*
X57935684Y16534516D01*
X57935684Y16534520D01*
X57934800Y16538049D01*
X57934020Y16541352D01*
X57933241Y16544864D01*
X57933241Y16544868D01*
X57933239Y16544874D01*
X57922736Y16572319D01*
X57922733Y16572327D01*
X57851309Y16715177D01*
X57851308Y16715178D01*
X57851303Y16715189D01*
X57839401Y16734096D01*
X57835639Y16740073D01*
X57835636Y16740076D01*
X57791424Y16778420D01*
X57791423Y16778421D01*
X57784742Y16780648D01*
X57735902Y16796929D01*
X57735896Y16796930D01*
X57677522Y16792782D01*
X57625173Y16766607D01*
X57625172Y16766607D01*
X57625172Y16766606D01*
X57618622Y16759054D01*
X57586824Y16722390D01*
X57586824Y16722389D01*
X57568317Y16666871D01*
X57568316Y16666864D01*
X57572284Y16611017D01*
X57571998Y16609707D01*
X57582974Y16581027D01*
X57582975Y16581025D01*
X57587322Y16572332D01*
X57587323Y16572330D01*
X57594012Y16558952D01*
X57601051Y16544874D01*
X57601054Y16544868D01*
X57602339Y16542298D01*
X57602812Y16541352D01*
X57604451Y16538074D01*
X57606228Y16534520D01*
X57625476Y16496023D01*
X57637851Y16427258D01*
X57620260Y16384848D01*
X57635959Y16309516D01*
X57630365Y16239870D01*
X57625463Y16228738D01*
X57623806Y16225426D01*
X57576206Y16174279D01*
X57569344Y16170493D01*
X57569299Y16170470D01*
X57500646Y16157488D01*
X57435872Y16183682D01*
X57395544Y16240738D01*
X57391276Y16256554D01*
X57334127Y16542301D01*
X57335260Y16555118D01*
X57332393Y16558952D01*
X57327006Y16577902D01*
X57292797Y16748952D01*
X57284232Y16777083D01*
X57276053Y16789295D01*
X57270430Y16802871D01*
X57259927Y16813374D01*
X57251664Y16825712D01*
X57249646Y16827058D01*
X57230755Y16842546D01*
X57229043Y16844258D01*
X57226543Y16845293D01*
X57205221Y16856675D01*
X57202968Y16858177D01*
X57202963Y16858179D01*
X57200591Y16858648D01*
X57177202Y16865730D01*
X57174974Y16866653D01*
X57145710Y16869535D01*
X57002853Y16869535D01*
X57000144Y16869269D01*
X56978008Y16867089D01*
X56978005Y16867088D01*
X56973589Y16866653D01*
X56968610Y16864591D01*
X56963235Y16864209D01*
X56935772Y16853699D01*
X56792914Y16782271D01*
X56792267Y16781865D01*
X56789617Y16780648D01*
X56782589Y16776642D01*
X56774835Y16770893D01*
X56768036Y16766613D01*
X56768026Y16766604D01*
X56761478Y16759054D01*
X56749056Y16746632D01*
X56741501Y16740080D01*
X56741492Y16740069D01*
X56737731Y16734096D01*
X56737669Y16733995D01*
X56732174Y16725265D01*
X56729682Y16722391D01*
X56728912Y16720084D01*
X56725832Y16715189D01*
X56723961Y16711449D01*
X56723956Y16711439D01*
X56654401Y16572330D01*
X56643891Y16544863D01*
X56643111Y16541343D01*
X56642340Y16538074D01*
X56641448Y16534515D01*
X56638567Y16505250D01*
X56638567Y16219539D01*
X56640977Y16195057D01*
X56641449Y16190271D01*
X56643512Y16185291D01*
X56643894Y16179916D01*
X56654403Y16152453D01*
X56725832Y16009596D01*
X56726237Y16008952D01*
X56727458Y16006292D01*
X56731476Y15999246D01*
X56737227Y15991493D01*
X56741496Y15984711D01*
X56741497Y15984709D01*
X56749049Y15978160D01*
X56749048Y15978160D01*
X56755713Y15972380D01*
X56768029Y15958179D01*
X56782837Y15948858D01*
X56789981Y15942662D01*
X56789994Y15942652D01*
X56794939Y15938364D01*
X56793680Y15936913D01*
X56795855Y15933525D01*
X56829245Y15898893D01*
X56842848Y15830360D01*
X56817240Y15765353D01*
X56766801Y15726903D01*
X56705231Y15701399D01*
X56705228Y15701397D01*
X56663847Y15660016D01*
X56641450Y15605947D01*
X56641449Y15605940D01*
X56638567Y15576674D01*
X56638567Y15493535D01*
X56618882Y15426496D01*
X56566078Y15380741D01*
X56514567Y15369535D01*
X56288567Y15369535D01*
X56259303Y15366653D01*
X56259301Y15366653D01*
X56259298Y15366652D01*
X56205229Y15344255D01*
X56163848Y15302874D01*
X56163845Y15302870D01*
X56141450Y15248804D01*
X56141449Y15248798D01*
X48963646Y15248798D01*
X48968653Y15280410D01*
X48988239Y15404070D01*
X48988239Y16788617D01*
X49007924Y16855656D01*
X49024553Y16876294D01*
X49183385Y17035125D01*
X49362977Y17269173D01*
X49510482Y17524660D01*
X49620789Y17790964D01*
X56638567Y17790964D01*
X56638567Y17648107D01*
X56641449Y17618843D01*
X56643510Y17613866D01*
X56643893Y17608488D01*
X56645434Y17604462D01*
X56654407Y17581015D01*
X56664918Y17559994D01*
X56677293Y17491229D01*
X56665513Y17458257D01*
X56668520Y17457011D01*
X56641450Y17391661D01*
X56641449Y17391655D01*
X56641449Y17333130D01*
X56641450Y17333124D01*
X56663845Y17279058D01*
X56663848Y17279054D01*
X56705229Y17237673D01*
X56705230Y17237673D01*
X56705231Y17237672D01*
X56759303Y17215274D01*
X56788567Y17212392D01*
X56788571Y17212392D01*
X57788563Y17212392D01*
X57788567Y17212392D01*
X57817831Y17215274D01*
X57871903Y17237672D01*
X57913287Y17279056D01*
X57935685Y17333128D01*
X57935685Y17391656D01*
X57929372Y17406897D01*
X57913288Y17445727D01*
X57913285Y17445731D01*
X57871904Y17487112D01*
X57817835Y17509509D01*
X57817832Y17509510D01*
X57817831Y17509510D01*
X57788567Y17512392D01*
X57788563Y17512392D01*
X57138964Y17512392D01*
X57083509Y17525484D01*
X57038274Y17548102D01*
X57006048Y17571329D01*
X56997503Y17579874D01*
X56974275Y17612101D01*
X56951658Y17657335D01*
X56938567Y17712789D01*
X56938567Y17790960D01*
X56938567Y17790964D01*
X56935685Y17820228D01*
X56913287Y17874300D01*
X56913286Y17874301D01*
X56913286Y17874302D01*
X56871905Y17915683D01*
X56871901Y17915686D01*
X56817835Y17938081D01*
X56817831Y17938082D01*
X56759303Y17938082D01*
X56759302Y17938082D01*
X56759298Y17938081D01*
X56705232Y17915686D01*
X56705228Y17915683D01*
X56663847Y17874302D01*
X56641450Y17820233D01*
X56641449Y17820226D01*
X56639183Y17797215D01*
X56638567Y17790964D01*
X49620789Y17790964D01*
X49623378Y17797215D01*
X49629544Y17820226D01*
X49631119Y17826103D01*
X49652140Y17904556D01*
X49699732Y18082174D01*
X49738239Y18374661D01*
X49738239Y18669673D01*
X49699732Y18962160D01*
X49623378Y19247119D01*
X49510482Y19519674D01*
X49491555Y19552456D01*
X49362977Y19775161D01*
X49183386Y20009208D01*
X49183380Y20009215D01*
X48974786Y20217809D01*
X48974779Y20217815D01*
X48948088Y20238296D01*
X56139744Y20238296D01*
X56143894Y20179913D01*
X56170065Y20127571D01*
X56170067Y20127569D01*
X56170068Y20127568D01*
X56214282Y20089221D01*
X56241133Y20077233D01*
X56923277Y19849851D01*
X56961314Y19837172D01*
X57018689Y19797297D01*
X57045398Y19732734D01*
X57032961Y19663980D01*
X56985327Y19612865D01*
X56961314Y19601899D01*
X56241133Y19361837D01*
X56214282Y19349849D01*
X56170065Y19311500D01*
X56143894Y19259158D01*
X56139744Y19200775D01*
X56158252Y19145252D01*
X56158253Y19145250D01*
X56192341Y19105947D01*
X56196602Y19101034D01*
X56248945Y19074863D01*
X56248947Y19074862D01*
X56307328Y19070713D01*
X56333560Y19076678D01*
X57781424Y19076678D01*
X57781424Y17933820D01*
X57784306Y17904559D01*
X57784307Y17904552D01*
X57806704Y17850483D01*
X57848085Y17809102D01*
X57848089Y17809099D01*
X57902155Y17786704D01*
X57902160Y17786702D01*
X57902161Y17786702D01*
X57960687Y17786702D01*
X57960688Y17786702D01*
X58014760Y17809100D01*
X58056144Y17850484D01*
X58078542Y17904556D01*
X58081424Y17933820D01*
X58081424Y19076678D01*
X58078542Y19105942D01*
X58056144Y19160014D01*
X58056143Y19160015D01*
X58056143Y19160016D01*
X58014762Y19201397D01*
X58014758Y19201400D01*
X57960692Y19223795D01*
X57960688Y19223796D01*
X57902160Y19223796D01*
X57902159Y19223796D01*
X57902155Y19223795D01*
X57848089Y19201400D01*
X57848085Y19201397D01*
X57806704Y19160016D01*
X57784307Y19105947D01*
X57784306Y19105944D01*
X57784306Y19105942D01*
X57781424Y19076678D01*
X56333560Y19076678D01*
X56336001Y19077233D01*
X57836001Y19577233D01*
X57862852Y19589221D01*
X57870949Y19596244D01*
X57880534Y19601036D01*
X57892855Y19615243D01*
X57907067Y19627568D01*
X57911860Y19637156D01*
X57918881Y19645250D01*
X57924829Y19663095D01*
X57933240Y19679916D01*
X57933240Y19679923D01*
X57935541Y19688322D01*
X57936303Y19692152D01*
X57937389Y19700771D01*
X57937388Y19700772D01*
X57937390Y19700774D01*
X57936681Y19710746D01*
X57936681Y19728330D01*
X57937390Y19738296D01*
X57933999Y19748467D01*
X57933240Y19759154D01*
X57924829Y19775976D01*
X57918881Y19793820D01*
X57918878Y19793824D01*
X57914585Y19801356D01*
X57912383Y19804651D01*
X57907065Y19811504D01*
X57899515Y19818052D01*
X57899515Y19818053D01*
X57892852Y19823831D01*
X57880534Y19838034D01*
X57870949Y19842827D01*
X57862852Y19849849D01*
X57836001Y19861837D01*
X56540052Y20293820D01*
X56335996Y20361839D01*
X56307329Y20368357D01*
X56307328Y20368357D01*
X56292732Y20367320D01*
X56248944Y20364208D01*
X56196602Y20338037D01*
X56158252Y20293819D01*
X56139744Y20238296D01*
X48948088Y20238296D01*
X48740732Y20397406D01*
X48485249Y20544909D01*
X48485239Y20544913D01*
X48212700Y20657803D01*
X48212693Y20657805D01*
X48212691Y20657806D01*
X47927732Y20734160D01*
X47878852Y20740596D01*
X47635252Y20772667D01*
X47635245Y20772667D01*
X47340233Y20772667D01*
X47340225Y20772667D01*
X47061824Y20736014D01*
X47047746Y20734160D01*
X46860967Y20684113D01*
X46762787Y20657806D01*
X46762777Y20657803D01*
X46490238Y20544913D01*
X46490228Y20544909D01*
X46234745Y20397406D01*
X46000698Y20217815D01*
X46000691Y20217809D01*
X45792097Y20009215D01*
X45792091Y20009208D01*
X45612500Y19775161D01*
X45464997Y19519678D01*
X45464993Y19519668D01*
X45352103Y19247129D01*
X45352100Y19247119D01*
X45282695Y18988092D01*
X45275747Y18962163D01*
X45275745Y18962152D01*
X45237239Y18669681D01*
X45237239Y18374654D01*
X45259439Y18206037D01*
X45275746Y18082174D01*
X45348916Y17809099D01*
X45352100Y17797216D01*
X45352103Y17797206D01*
X45464993Y17524667D01*
X45464997Y17524657D01*
X45612500Y17269174D01*
X45792090Y17035128D01*
X45792092Y17035126D01*
X45792093Y17035125D01*
X45950921Y16876297D01*
X45984405Y16814975D01*
X45987239Y16788617D01*
X45987239Y16195057D01*
X45967554Y16128018D01*
X45950920Y16107376D01*
X44287529Y14443986D01*
X44226206Y14410501D01*
X44199848Y14407667D01*
X42264710Y14407667D01*
X42264704Y14407667D01*
X42264703Y14407666D01*
X42253055Y14406631D01*
X42145323Y14397054D01*
X41949693Y14341078D01*
X41873497Y14301276D01*
X41769332Y14246865D01*
X41769330Y14246864D01*
X41769329Y14246863D01*
X41611629Y14118277D01*
X41483043Y13960577D01*
X41483041Y13960574D01*
X41443691Y13885242D01*
X41388828Y13780213D01*
X41355195Y13662667D01*
X41342494Y13618277D01*
X41332853Y13584584D01*
X41332852Y13584581D01*
X41328401Y13534513D01*
X41322239Y13465204D01*
X41322239Y12578495D01*
X41322240Y11806667D01*
X41302555Y11739628D01*
X41249752Y11693873D01*
X41198240Y11682667D01*
X39982693Y11682667D01*
X39954303Y11685961D01*
X39920663Y11693873D01*
X39889312Y11701247D01*
X39889300Y11701249D01*
X39796835Y11707667D01*
X39796831Y11707667D01*
X39098647Y11707667D01*
X39098643Y11707667D01*
X39006177Y11701249D01*
X39006161Y11701247D01*
X38789603Y11650313D01*
X38789587Y11650307D01*
X38586070Y11560446D01*
X38402518Y11434710D01*
X38402512Y11434705D01*
X38245201Y11277394D01*
X38245196Y11277388D01*
X38119460Y11093836D01*
X38029599Y10890319D01*
X38029593Y10890303D01*
X37978659Y10673745D01*
X37978657Y10673729D01*
X37972239Y10581263D01*
X37972239Y10033072D01*
X37978657Y9940606D01*
X37978659Y9940590D01*
X38029593Y9724032D01*
X38029595Y9724027D01*
X38029596Y9724024D01*
X38114271Y9532253D01*
X38123342Y9462975D01*
X38114271Y9432083D01*
X38081594Y9358075D01*
X38029596Y9240310D01*
X38029593Y9240303D01*
X37978659Y9023745D01*
X37978657Y9023729D01*
X37972239Y8931263D01*
X37972239Y8383072D01*
X37978657Y8290606D01*
X37978659Y8290590D01*
X38029593Y8074034D01*
X38029596Y8074023D01*
X38048040Y8032250D01*
X38057109Y7962971D01*
X38048040Y7932084D01*
X38029596Y7890312D01*
X38029593Y7890301D01*
X37978659Y7673745D01*
X37978657Y7673729D01*
X37972239Y7581263D01*
X37972239Y7033072D01*
X37978657Y6940606D01*
X37978659Y6940590D01*
X38029593Y6724032D01*
X38029599Y6724016D01*
X38119460Y6520499D01*
X38119461Y6520497D01*
X38119462Y6520496D01*
X38245197Y6336946D01*
X38402518Y6179625D01*
X38440281Y6153757D01*
X38484463Y6099632D01*
X38492369Y6030211D01*
X38488589Y6014569D01*
X38479148Y5984271D01*
X38472739Y5913740D01*
X38472739Y5907167D01*
X39087411Y5907167D01*
X39091570Y5907159D01*
X39098647Y5906667D01*
X39324001Y5906667D01*
X39357680Y5896701D01*
X39390778Y5886982D01*
X39390866Y5886881D01*
X39390999Y5886841D01*
X39414006Y5860176D01*
X39436533Y5834178D01*
X39436565Y5834029D01*
X39436642Y5833940D01*
X39436748Y5833187D01*
X39447739Y5782667D01*
X39447739Y5531167D01*
X39428054Y5464128D01*
X39375250Y5418373D01*
X39323739Y5407167D01*
X38472740Y5407167D01*
X38472740Y5400585D01*
X38479147Y5330065D01*
X38479148Y5330059D01*
X38524800Y5183558D01*
X38525952Y5113697D01*
X38489151Y5054305D01*
X38426082Y5024237D01*
X38406415Y5022667D01*
X34080628Y5022667D01*
X34013589Y5042352D01*
X33992947Y5058986D01*
X32616947Y6434986D01*
X32583462Y6496309D01*
X32588446Y6566001D01*
X32630318Y6621934D01*
X32695782Y6646351D01*
X32704628Y6646667D01*
X33595992Y6646667D01*
X33595993Y6646667D01*
X33809836Y6680537D01*
X34015748Y6747441D01*
X34208658Y6845734D01*
X34247443Y6873913D01*
X34383817Y6972994D01*
X34631171Y7220348D01*
X34692494Y7253833D01*
X34718852Y7256667D01*
X34796835Y7256667D01*
X34833821Y7259235D01*
X34889306Y7263086D01*
X34889312Y7263088D01*
X34889316Y7263088D01*
X35105874Y7314022D01*
X35105874Y7314023D01*
X35105882Y7314024D01*
X35309410Y7403890D01*
X35492960Y7529625D01*
X35650281Y7686946D01*
X35776016Y7870496D01*
X35865882Y8074024D01*
X35883435Y8148656D01*
X35916818Y8290590D01*
X35916818Y8290594D01*
X35916820Y8290600D01*
X35923239Y8383075D01*
X35923239Y8931259D01*
X35922765Y8938081D01*
X35916820Y9023729D01*
X35916820Y9023734D01*
X35916818Y9023740D01*
X35916818Y9023745D01*
X35865884Y9240303D01*
X35865883Y9240305D01*
X35865882Y9240310D01*
X35781206Y9432082D01*
X35772136Y9501359D01*
X35781207Y9532253D01*
X35865882Y9724024D01*
X35882216Y9793471D01*
X35916818Y9940590D01*
X35916818Y9940594D01*
X35916820Y9940600D01*
X35923239Y10033075D01*
X35923239Y10581259D01*
X35921772Y10602388D01*
X35920386Y10622359D01*
X35916820Y10673734D01*
X35916818Y10673740D01*
X35916818Y10673745D01*
X35865884Y10890303D01*
X35865883Y10890305D01*
X35865882Y10890310D01*
X35847437Y10932083D01*
X35838366Y11001357D01*
X35847435Y11032248D01*
X35865882Y11074024D01*
X35870542Y11093838D01*
X35916818Y11290590D01*
X35916818Y11290594D01*
X35916820Y11290600D01*
X35923239Y11383075D01*
X35923239Y11931259D01*
X35916820Y12023734D01*
X35916818Y12023740D01*
X35916818Y12023745D01*
X35865884Y12240303D01*
X35865883Y12240306D01*
X35865882Y12240310D01*
X35776016Y12443838D01*
X35650281Y12627388D01*
X35492960Y12784709D01*
X35492956Y12784712D01*
X35492954Y12784714D01*
X35455198Y12810577D01*
X35411014Y12864703D01*
X35403108Y12934124D01*
X35406890Y12949771D01*
X35416328Y12980059D01*
X35416330Y12980066D01*
X35422739Y13050595D01*
X35422739Y13057167D01*
X34808067Y13057167D01*
X34803907Y13057176D01*
X34796831Y13057667D01*
X34571477Y13057667D01*
X34537797Y13067634D01*
X34504700Y13077352D01*
X34504611Y13077454D01*
X34504479Y13077493D01*
X34481471Y13104159D01*
X34458945Y13130156D01*
X34458912Y13130306D01*
X34458836Y13130394D01*
X34458729Y13131148D01*
X34447739Y13181667D01*
X34447739Y13307167D01*
X34321739Y13307167D01*
X34254700Y13326852D01*
X34208945Y13379656D01*
X34197739Y13431167D01*
X34197739Y13557167D01*
X34697739Y13557167D01*
X35422738Y13557167D01*
X35422738Y13563750D01*
X35416330Y13634270D01*
X35416329Y13634275D01*
X35365757Y13796564D01*
X35277811Y13942045D01*
X35157616Y14062240D01*
X35012134Y14150187D01*
X35012135Y14150187D01*
X34849844Y14200758D01*
X34849845Y14200758D01*
X34779311Y14207167D01*
X34697739Y14207167D01*
X34697739Y13557167D01*
X34197739Y13557167D01*
X34197739Y14207167D01*
X34197738Y14207168D01*
X34116156Y14207167D01*
X34045636Y14200759D01*
X34045631Y14200758D01*
X33883340Y14150186D01*
X33883338Y14150185D01*
X33756524Y14073523D01*
X33688970Y14055687D01*
X33622496Y14077205D01*
X33582467Y14122228D01*
X33562437Y14160574D01*
X33529671Y14200758D01*
X33433848Y14318277D01*
X33318672Y14412190D01*
X33276146Y14446865D01*
X33095788Y14541076D01*
X33095787Y14541077D01*
X33095784Y14541078D01*
X32971357Y14576680D01*
X32900157Y14597053D01*
X32900154Y14597054D01*
X32900152Y14597054D01*
X32833841Y14602950D01*
X32780776Y14607667D01*
X32780771Y14607667D01*
X31714710Y14607667D01*
X31714704Y14607667D01*
X31714703Y14607666D01*
X31703055Y14606631D01*
X31595323Y14597054D01*
X31399693Y14541078D01*
X31219326Y14446862D01*
X31176099Y14411614D01*
X31111703Y14384505D01*
X31042873Y14396514D01*
X31019379Y14411614D01*
X30976151Y14446862D01*
X30976147Y14446864D01*
X30976146Y14446865D01*
X30795788Y14541076D01*
X30795787Y14541077D01*
X30795784Y14541078D01*
X30671357Y14576680D01*
X30600157Y14597053D01*
X30600154Y14597054D01*
X30600152Y14597054D01*
X30533841Y14602950D01*
X30480776Y14607667D01*
X30480771Y14607667D01*
X29414710Y14607667D01*
X29414704Y14607667D01*
X29414703Y14607666D01*
X29403055Y14606631D01*
X29295323Y14597054D01*
X29106350Y14542982D01*
X29036482Y14543465D01*
X28977967Y14581645D01*
X28949382Y14645400D01*
X28948239Y14662198D01*
X28948239Y16770775D01*
X28967924Y16837814D01*
X29020728Y16883569D01*
X29089886Y16893513D01*
X29134238Y16878163D01*
X29167527Y16858943D01*
X29352630Y16782271D01*
X29390453Y16766604D01*
X29391639Y16766113D01*
X29625950Y16703329D01*
X29806325Y16679583D01*
X29866450Y16671667D01*
X29866451Y16671667D01*
X30109028Y16671667D01*
X30157127Y16678000D01*
X30349528Y16703329D01*
X30583839Y16766113D01*
X30807951Y16858943D01*
X31018028Y16980231D01*
X31210477Y17127902D01*
X31382004Y17299429D01*
X31498871Y17451734D01*
X31555296Y17492935D01*
X31625042Y17497090D01*
X31670130Y17476564D01*
X31820181Y17367547D01*
X32009521Y17271072D01*
X32211609Y17205410D01*
X32421493Y17172167D01*
X32633985Y17172167D01*
X32843866Y17205410D01*
X32843869Y17205410D01*
X33045956Y17271072D01*
X33235293Y17367545D01*
X33289455Y17406897D01*
X33289456Y17406897D01*
X32657148Y18039205D01*
X32720732Y18056242D01*
X32834746Y18122068D01*
X32927838Y18215160D01*
X32993664Y18329174D01*
X33010701Y18392759D01*
X33643009Y17760450D01*
X33643009Y17760451D01*
X33682361Y17814613D01*
X33778834Y18003950D01*
X33844496Y18206037D01*
X33844496Y18206040D01*
X33877739Y18415921D01*
X33877739Y18628414D01*
X33844496Y18838295D01*
X33844496Y18838298D01*
X33778834Y19040385D01*
X33682363Y19229718D01*
X33643009Y19283885D01*
X33643008Y19283885D01*
X33010701Y18651577D01*
X32993664Y18715160D01*
X32927838Y18829174D01*
X32834746Y18922266D01*
X32720732Y18988092D01*
X32657146Y19005131D01*
X33289455Y19637439D01*
X33235289Y19676792D01*
X33045956Y19773263D01*
X32843868Y19838925D01*
X32633985Y19872167D01*
X32421493Y19872167D01*
X32211611Y19838925D01*
X32211608Y19838925D01*
X32009521Y19773263D01*
X31820181Y19676788D01*
X31685124Y19578664D01*
X31619318Y19555184D01*
X31551264Y19571010D01*
X31502569Y19621116D01*
X31488239Y19678982D01*
X31488239Y21026054D01*
X31503057Y21076519D01*
X56138567Y21076519D01*
X56138567Y21076518D01*
X56139041Y21074148D01*
X56141449Y21049830D01*
X56141449Y21047413D01*
X56147132Y21033693D01*
X56150045Y21019130D01*
X56158222Y21006919D01*
X56162917Y20995585D01*
X56163845Y20993345D01*
X56163848Y20993339D01*
X56165754Y20991434D01*
X56181109Y20972744D01*
X56182612Y20970500D01*
X56205124Y20952064D01*
X56205231Y20951957D01*
X56205278Y20951938D01*
X56205362Y20951869D01*
X56351884Y20854188D01*
X56397076Y20824060D01*
X56415974Y20808567D01*
X56508202Y20716339D01*
X56531430Y20684113D01*
X56582973Y20581027D01*
X56582980Y20581015D01*
X56598638Y20556140D01*
X56598639Y20556139D01*
X56598640Y20556138D01*
X56642855Y20517792D01*
X56698378Y20499284D01*
X56756758Y20503433D01*
X56809107Y20529607D01*
X56847454Y20573823D01*
X56865961Y20629345D01*
X56861812Y20687725D01*
X56851303Y20715189D01*
X56835286Y20747223D01*
X56822911Y20815988D01*
X56849679Y20880527D01*
X56907089Y20920349D01*
X56946195Y20926677D01*
X57514567Y20926677D01*
X57581606Y20906992D01*
X57627361Y20854188D01*
X57638567Y20802677D01*
X57638567Y20648111D01*
X57641449Y20618845D01*
X57641450Y20618838D01*
X57663847Y20564769D01*
X57705228Y20523388D01*
X57705232Y20523385D01*
X57753398Y20503434D01*
X57759303Y20500988D01*
X57759304Y20500988D01*
X57817830Y20500988D01*
X57817831Y20500988D01*
X57871903Y20523386D01*
X57913287Y20564770D01*
X57935685Y20618842D01*
X57938567Y20648106D01*
X57938567Y21505249D01*
X57935685Y21534513D01*
X57913287Y21588585D01*
X57913286Y21588586D01*
X57913286Y21588587D01*
X57871905Y21629968D01*
X57871901Y21629971D01*
X57817835Y21652366D01*
X57817831Y21652367D01*
X57759303Y21652367D01*
X57759302Y21652367D01*
X57759298Y21652366D01*
X57705232Y21629971D01*
X57705228Y21629968D01*
X57663847Y21588587D01*
X57641450Y21534518D01*
X57641449Y21534511D01*
X57638567Y21505245D01*
X57638567Y21350677D01*
X57618882Y21283638D01*
X57566078Y21237883D01*
X57514567Y21226677D01*
X56286553Y21226677D01*
X56282444Y21226076D01*
X56259306Y21223796D01*
X56259305Y21223796D01*
X56259303Y21223795D01*
X56256799Y21222759D01*
X56245578Y21218112D01*
X56231020Y21215199D01*
X56218809Y21207023D01*
X56207480Y21202330D01*
X56207475Y21202327D01*
X56206902Y21202090D01*
X56205229Y21201397D01*
X56205229Y21201396D01*
X56203312Y21199479D01*
X56184648Y21184146D01*
X56182393Y21182636D01*
X56182388Y21182631D01*
X56181038Y21180606D01*
X56174235Y21170403D01*
X56163847Y21160013D01*
X56158165Y21146297D01*
X56151433Y21136199D01*
X56149927Y21133941D01*
X56149923Y21133931D01*
X56149454Y21131558D01*
X56142377Y21108183D01*
X56141449Y21105943D01*
X56141449Y21103236D01*
X56139092Y21079173D01*
X56138567Y21076519D01*
X31503057Y21076519D01*
X31507924Y21093093D01*
X31524558Y21113735D01*
X36412660Y26001837D01*
X36719809Y26308986D01*
X37036911Y26626088D01*
X37090463Y26699797D01*
X37164172Y26801248D01*
X37262465Y26994158D01*
X37329369Y27200070D01*
X37363239Y27413913D01*
X37363239Y36630421D01*
X37361681Y36640259D01*
X37361681Y36640262D01*
X37361681Y36640263D01*
X37329370Y36844265D01*
X37262463Y37050181D01*
X37214815Y37143694D01*
X37164172Y37243086D01*
X37115430Y37310174D01*
X37036917Y37418239D01*
X37036913Y37418244D01*
X31658815Y42796342D01*
X31658810Y42796346D01*
X31483661Y42923598D01*
X31483660Y42923599D01*
X31483658Y42923600D01*
X31421424Y42955310D01*
X31290748Y43021894D01*
X31290745Y43021895D01*
X31084837Y43088797D01*
X30870998Y43122666D01*
X30870993Y43122666D01*
X30711538Y43122666D01*
X30644499Y43142351D01*
X30598744Y43195155D01*
X30589024Y43227526D01*
X30588109Y43233380D01*
X30585427Y43278412D01*
X30569983Y43349404D01*
X30569417Y43353027D01*
X30570765Y43363288D01*
X30570765Y43398526D01*
X30571225Y43400640D01*
X30585427Y43465922D01*
X30588239Y43513129D01*
X30588239Y43881205D01*
X30585427Y43928412D01*
X30570765Y43995810D01*
X30570765Y44048526D01*
X30582088Y44100574D01*
X30585427Y44115922D01*
X30588239Y44163129D01*
X30588239Y44372667D01*
X30607924Y44439706D01*
X30660728Y44485461D01*
X30712239Y44496667D01*
X36179282Y44496667D01*
X36246321Y44476982D01*
X36275384Y44451028D01*
X36336946Y44375528D01*
X36364055Y44311132D01*
X36352046Y44242302D01*
X36336946Y44218807D01*
X36240544Y44100580D01*
X36146328Y43920213D01*
X36117440Y43819251D01*
X36097074Y43748072D01*
X36090353Y43724584D01*
X36090352Y43724581D01*
X36079739Y43605201D01*
X36079739Y40811570D01*
X36116685Y40578299D01*
X36189672Y40353671D01*
X36268129Y40199692D01*
X36296896Y40143233D01*
X36428454Y39962160D01*
X36435723Y39952156D01*
X36700920Y39686959D01*
X36734405Y39625636D01*
X36737239Y39599278D01*
X36737239Y39374654D01*
X36769310Y39131054D01*
X36775746Y39082174D01*
X36775747Y39082172D01*
X36852100Y38797216D01*
X36852103Y38797206D01*
X36964993Y38524667D01*
X36964997Y38524657D01*
X37112500Y38269174D01*
X37292091Y38035127D01*
X37292097Y38035120D01*
X37500691Y37826526D01*
X37500698Y37826520D01*
X37734745Y37646929D01*
X37990228Y37499426D01*
X37990229Y37499426D01*
X37990232Y37499424D01*
X38262787Y37386528D01*
X38547746Y37310174D01*
X38840233Y37271667D01*
X38840240Y37271667D01*
X39135238Y37271667D01*
X39135245Y37271667D01*
X39427732Y37310174D01*
X39712691Y37386528D01*
X39985246Y37499424D01*
X40240733Y37646929D01*
X40474781Y37826521D01*
X40683385Y38035125D01*
X40862977Y38269173D01*
X41010482Y38524660D01*
X41123378Y38797215D01*
X41199732Y39082174D01*
X41238239Y39374661D01*
X41238239Y39669673D01*
X41199732Y39962160D01*
X41123378Y40247119D01*
X41104248Y40293302D01*
X41018976Y40499168D01*
X41011507Y40568638D01*
X41042782Y40631117D01*
X41076121Y40656527D01*
X41173646Y40707469D01*
X41331348Y40836058D01*
X41459937Y40993760D01*
X41554148Y41174118D01*
X41610125Y41369749D01*
X41620739Y41489130D01*
X41620738Y43605203D01*
X41610125Y43724585D01*
X41554148Y43920216D01*
X41459937Y44100574D01*
X41363531Y44218807D01*
X41331348Y44258277D01*
X41191058Y44372667D01*
X41173646Y44386865D01*
X40994112Y44480646D01*
X40943807Y44529131D01*
X40927700Y44597119D01*
X40950907Y44663022D01*
X40971186Y44683678D01*
X40971157Y44683707D01*
X40974364Y44686915D01*
X40977222Y44689825D01*
X40977430Y44689982D01*
X41063589Y44805074D01*
X41063593Y44805081D01*
X41113835Y44939788D01*
X41113837Y44939795D01*
X41120238Y44999323D01*
X41120239Y44999340D01*
X41120239Y45797167D01*
X40262239Y45797167D01*
X40195200Y45816852D01*
X40149445Y45869656D01*
X40138239Y45921167D01*
X40138239Y46229805D01*
X40157924Y46296844D01*
X40210728Y46342599D01*
X40279886Y46352543D01*
X40343442Y46323518D01*
X40349920Y46317486D01*
X40370239Y46297167D01*
X41120239Y46297167D01*
X41120239Y47094995D01*
X41120238Y47095012D01*
X41113837Y47154540D01*
X41113835Y47154547D01*
X41063593Y47289254D01*
X41063589Y47289261D01*
X40977429Y47404355D01*
X40977426Y47404358D01*
X40862332Y47490518D01*
X40862325Y47490522D01*
X40727618Y47540764D01*
X40727611Y47540766D01*
X40668083Y47547167D01*
X40370239Y47547167D01*
X40370239Y47223500D01*
X40350554Y47156461D01*
X40297750Y47110706D01*
X40228592Y47100762D01*
X40165036Y47129787D01*
X40127262Y47188565D01*
X40123766Y47204102D01*
X40109911Y47291577D01*
X40078050Y47389634D01*
X40053950Y47463806D01*
X40053948Y47463809D01*
X40053948Y47463811D01*
X40032368Y47506163D01*
X40019962Y47530510D01*
X39971735Y47625161D01*
X39937219Y47672668D01*
X39865297Y47771662D01*
X39865293Y47771667D01*
X39735570Y47901390D01*
X39735543Y47901416D01*
X39651001Y47985958D01*
X39566469Y48070490D01*
X51012739Y48070490D01*
X51012739Y48047167D01*
X51737739Y48047167D01*
X52237739Y48047167D01*
X52962738Y48047167D01*
X52962738Y48070475D01*
X52962737Y48070490D01*
X52952594Y48169775D01*
X52899286Y48330649D01*
X52899281Y48330660D01*
X52810314Y48474896D01*
X52810311Y48474900D01*
X52690471Y48594740D01*
X52690467Y48594743D01*
X52546231Y48683710D01*
X52546220Y48683715D01*
X52385345Y48737023D01*
X52286061Y48747167D01*
X52237739Y48747167D01*
X52237739Y48047167D01*
X51737739Y48047167D01*
X51737739Y48747167D01*
X51737738Y48747168D01*
X51689432Y48747167D01*
X51689414Y48747166D01*
X51590131Y48737023D01*
X51429257Y48683715D01*
X51429246Y48683710D01*
X51285010Y48594743D01*
X51285006Y48594740D01*
X51165166Y48474900D01*
X51165163Y48474896D01*
X51076196Y48330660D01*
X51076191Y48330649D01*
X51022883Y48169774D01*
X51012739Y48070490D01*
X39566469Y48070490D01*
X38872365Y48764593D01*
X38872353Y48764607D01*
X38737238Y48899722D01*
X38737233Y48899726D01*
X38590736Y49006161D01*
X38590735Y49006162D01*
X38590733Y49006163D01*
X38524466Y49039928D01*
X38429378Y49088379D01*
X38429375Y49088380D01*
X38318751Y49124323D01*
X48087739Y49124323D01*
X48094140Y49064795D01*
X48094142Y49064788D01*
X48144384Y48930081D01*
X48144388Y48930074D01*
X48230548Y48814980D01*
X48230551Y48814977D01*
X48345645Y48728817D01*
X48345652Y48728813D01*
X48480359Y48678571D01*
X48480366Y48678569D01*
X48539894Y48672168D01*
X48539911Y48672167D01*
X48587739Y48672167D01*
X48587739Y49447167D01*
X48087739Y49447167D01*
X48087739Y49124323D01*
X38318751Y49124323D01*
X38257149Y49144338D01*
X38143895Y49162276D01*
X38078285Y49172668D01*
X37897193Y49172668D01*
X37892082Y49172668D01*
X37892058Y49172667D01*
X33083420Y49172667D01*
X33083396Y49172668D01*
X33078285Y49172668D01*
X32897192Y49172668D01*
X32846236Y49164597D01*
X32718328Y49144338D01*
X32546102Y49088380D01*
X32546099Y49088379D01*
X32384741Y49006161D01*
X32238244Y48899726D01*
X32238239Y48899722D01*
X32162009Y48823491D01*
X32110186Y48771668D01*
X32110183Y48771665D01*
X31457432Y48118913D01*
X30822505Y47483986D01*
X30761182Y47450501D01*
X30734824Y47447667D01*
X30595184Y47447667D01*
X30528145Y47467352D01*
X30482390Y47520156D01*
X30481214Y47522811D01*
X30458018Y47576980D01*
X30340216Y47751032D01*
X30191604Y47899644D01*
X30017552Y48017446D01*
X30017550Y48017447D01*
X30017547Y48017449D01*
X29867207Y48081828D01*
X29824351Y48100180D01*
X29824349Y48100181D01*
X29818921Y48102505D01*
X29819384Y48103587D01*
X29766614Y48139307D01*
X29739115Y48203538D01*
X29738239Y48218250D01*
X29738239Y48803806D01*
X29757924Y48870845D01*
X29774558Y48891487D01*
X29805239Y48922168D01*
X30305239Y48922168D01*
X30359375Y48922168D01*
X30359391Y48922169D01*
X30457822Y48932224D01*
X30617311Y48985074D01*
X30617316Y48985076D01*
X30760319Y49073282D01*
X30879124Y49192087D01*
X30967330Y49335090D01*
X30967332Y49335095D01*
X31020181Y49494584D01*
X31021873Y49511133D01*
X31021873Y49511134D01*
X31030238Y49593015D01*
X31030239Y49593030D01*
X31030239Y49609667D01*
X30305239Y49609667D01*
X30305239Y48922168D01*
X29805239Y48922168D01*
X29805239Y49381347D01*
X29808532Y49409734D01*
X29819320Y49455600D01*
X29825739Y49548075D01*
X29825739Y49735667D01*
X29845424Y49802706D01*
X29898228Y49848461D01*
X29949739Y49859667D01*
X30055239Y49859667D01*
X30055239Y49872668D01*
X30074924Y49939707D01*
X30127728Y49985462D01*
X30179239Y49996668D01*
X30374095Y49996668D01*
X30374103Y49996668D01*
X30502993Y50006811D01*
X30715809Y50060436D01*
X30736891Y50070012D01*
X48087739Y50070012D01*
X48087739Y49747167D01*
X48587739Y49747167D01*
X48587739Y50522167D01*
X48539894Y50522167D01*
X48480366Y50515766D01*
X48480359Y50515764D01*
X48345652Y50465522D01*
X48345645Y50465518D01*
X48230551Y50379358D01*
X48230548Y50379355D01*
X48144388Y50264261D01*
X48144384Y50264254D01*
X48094142Y50129547D01*
X48094140Y50129540D01*
X48087739Y50070012D01*
X30736891Y50070012D01*
X30799755Y50098567D01*
X30851036Y50109667D01*
X31028892Y50109667D01*
X31027162Y50159140D01*
X31034836Y50189117D01*
X31040495Y50219560D01*
X31043519Y50223029D01*
X31044492Y50226827D01*
X31056855Y50238321D01*
X31080470Y50265401D01*
X31096035Y50276183D01*
X31251223Y50431371D01*
X31376207Y50611775D01*
X31466970Y50811597D01*
X31520595Y51024413D01*
X31530739Y51153302D01*
X31530738Y51716031D01*
X31520595Y51844921D01*
X31470842Y52042371D01*
X31473550Y52112186D01*
X31513574Y52169456D01*
X31578206Y52195997D01*
X31591084Y52196667D01*
X48894980Y52196667D01*
X48962019Y52176982D01*
X49007774Y52124178D01*
X49018682Y52064080D01*
X49012239Y51971262D01*
X49012239Y51423072D01*
X49018657Y51330606D01*
X49018659Y51330590D01*
X49069593Y51114033D01*
X49069598Y51114018D01*
X49076672Y51097998D01*
X49087239Y51047910D01*
X49087239Y50643907D01*
X49067554Y50576868D01*
X49014750Y50531113D01*
X48949984Y50520617D01*
X48935567Y50522167D01*
X48887739Y50522167D01*
X48887739Y48672167D01*
X48935567Y48672167D01*
X48935583Y48672168D01*
X48995111Y48678569D01*
X48995118Y48678571D01*
X49129825Y48728813D01*
X49129827Y48728814D01*
X49243521Y48813925D01*
X49308985Y48838342D01*
X49377258Y48823491D01*
X49405513Y48802339D01*
X49488239Y48719613D01*
X49488244Y48719609D01*
X49616026Y48626771D01*
X49634745Y48613171D01*
X49705752Y48576991D01*
X49796099Y48530956D01*
X49796102Y48530955D01*
X49882215Y48502976D01*
X49968330Y48474996D01*
X50051168Y48461876D01*
X50147188Y48446667D01*
X50147193Y48446667D01*
X50328290Y48446667D01*
X50414998Y48460402D01*
X50507148Y48474996D01*
X50679378Y48530956D01*
X50840733Y48613171D01*
X50987240Y48719614D01*
X51115292Y48847666D01*
X51221735Y48994173D01*
X51303950Y49155528D01*
X51359910Y49327758D01*
X51374504Y49419908D01*
X51388239Y49506616D01*
X51388239Y50405128D01*
X51407924Y50472167D01*
X51442159Y50507426D01*
X51532960Y50569625D01*
X51690281Y50726946D01*
X51816016Y50910496D01*
X51905882Y51114024D01*
X51915120Y51153302D01*
X51956818Y51330590D01*
X51956818Y51330594D01*
X51956820Y51330600D01*
X51963239Y51423075D01*
X51963239Y51971259D01*
X51956820Y52063734D01*
X51956818Y52063740D01*
X51956818Y52063745D01*
X51905884Y52280303D01*
X51905883Y52280305D01*
X51905882Y52280310D01*
X51821206Y52472082D01*
X51812136Y52541359D01*
X51821207Y52572253D01*
X51844568Y52625161D01*
X51905882Y52764024D01*
X51907680Y52771668D01*
X51956818Y52980590D01*
X51956818Y52980594D01*
X51956820Y52980600D01*
X51963239Y53073075D01*
X51963239Y53621259D01*
X51962463Y53632434D01*
X51956820Y53713729D01*
X51956820Y53713734D01*
X51956818Y53713740D01*
X51956818Y53713745D01*
X51905884Y53930303D01*
X51905883Y53930306D01*
X51905882Y53930310D01*
X51889463Y53967494D01*
X51816017Y54133836D01*
X51690281Y54317388D01*
X51690276Y54317394D01*
X51532965Y54474705D01*
X51532959Y54474710D01*
X51349407Y54600446D01*
X51145890Y54690307D01*
X51145874Y54690313D01*
X50929316Y54741247D01*
X50929300Y54741249D01*
X50836835Y54747667D01*
X50836831Y54747667D01*
X50138647Y54747667D01*
X50138643Y54747667D01*
X50046177Y54741249D01*
X50046161Y54741247D01*
X49829603Y54690313D01*
X49829587Y54690307D01*
X49626070Y54600446D01*
X49507710Y54519367D01*
X49441278Y54497721D01*
X49437633Y54497667D01*
X28408420Y54497667D01*
X28408396Y54497668D01*
X28403285Y54497668D01*
X28222193Y54497668D01*
X28162572Y54488225D01*
X28043328Y54469338D01*
X27871102Y54413380D01*
X27871099Y54413379D01*
X27709741Y54331161D01*
X27563244Y54224726D01*
X27563239Y54224722D01*
X26110182Y52771665D01*
X26059785Y52702298D01*
X26052214Y52691876D01*
X26027978Y52658519D01*
X26003743Y52625162D01*
X25921527Y52463807D01*
X25921526Y52463804D01*
X25865568Y52291578D01*
X25837238Y52112712D01*
X25837238Y51926511D01*
X25837239Y51926486D01*
X25837239Y51286033D01*
X25817554Y51218994D01*
X25764750Y51173239D01*
X25695592Y51163295D01*
X25681152Y51166257D01*
X25427732Y51234160D01*
X25378852Y51240596D01*
X25135252Y51272667D01*
X25135245Y51272667D01*
X24840233Y51272667D01*
X24840225Y51272667D01*
X24561824Y51236014D01*
X24547746Y51234160D01*
X24405992Y51196178D01*
X24332151Y51176392D01*
X24300058Y51172167D01*
X24223699Y51172167D01*
X24172418Y51183268D01*
X24006634Y51258571D01*
X23864026Y51294505D01*
X23792724Y51312471D01*
X23771132Y51314171D01*
X23663177Y51322667D01*
X23037314Y51322667D01*
X23037299Y51322666D01*
X22907754Y51312471D01*
X22693843Y51258571D01*
X22651520Y51239346D01*
X22582341Y51229543D01*
X22548958Y51239346D01*
X22506634Y51258571D01*
X22364026Y51294505D01*
X22292724Y51312471D01*
X22271132Y51314171D01*
X22163177Y51322667D01*
X21537314Y51322667D01*
X21537299Y51322666D01*
X21407754Y51312471D01*
X21193843Y51258571D01*
X21028060Y51183268D01*
X20976779Y51172167D01*
X20875240Y51172167D01*
X20875240Y51150702D01*
X20855555Y51083663D01*
X20821860Y51048777D01*
X20811677Y51041723D01*
X20811661Y51041709D01*
X20655688Y50885736D01*
X20530065Y50704411D01*
X20438835Y50503563D01*
X20384935Y50289652D01*
X20374739Y50160106D01*
X20374739Y49584243D01*
X20374740Y49584228D01*
X20384935Y49454683D01*
X20438835Y49240772D01*
X20530065Y49039924D01*
X20655688Y48858599D01*
X20811670Y48702617D01*
X20992995Y48576994D01*
X20992996Y48576994D01*
X20993000Y48576991D01*
X21094350Y48530956D01*
X21193843Y48485764D01*
X21193844Y48485764D01*
X21193846Y48485763D01*
X21407754Y48431863D01*
X21537306Y48421667D01*
X22163171Y48421668D01*
X22292724Y48431863D01*
X22506632Y48485763D01*
X22548959Y48504990D01*
X22618135Y48514792D01*
X22641210Y48509126D01*
X22646450Y48507292D01*
X22693846Y48485763D01*
X22744168Y48473084D01*
X22749425Y48471243D01*
X22773460Y48453999D01*
X22798948Y48438982D01*
X22801970Y48433544D01*
X22806195Y48430513D01*
X22812501Y48414598D01*
X22828229Y48386301D01*
X22850346Y48303761D01*
X22848683Y48233911D01*
X22809521Y48176049D01*
X22745293Y48148544D01*
X22730571Y48147667D01*
X22403701Y48147667D01*
X22373155Y48145848D01*
X22356488Y48144855D01*
X22151136Y48100183D01*
X22151125Y48100180D01*
X21957930Y48017449D01*
X21783876Y47899646D01*
X21783871Y47899642D01*
X21635264Y47751035D01*
X21635260Y47751030D01*
X21582223Y47672667D01*
X21525175Y47588378D01*
X21517459Y47576978D01*
X21513283Y47567228D01*
X21494281Y47522854D01*
X21449797Y47468977D01*
X21383246Y47447702D01*
X21380294Y47447667D01*
X21211536Y47447667D01*
X21144497Y47467352D01*
X21138650Y47471349D01*
X21112266Y47490518D01*
X21090733Y47506163D01*
X21076569Y47513380D01*
X20929378Y47588379D01*
X20929375Y47588380D01*
X20757149Y47644338D01*
X20667716Y47658503D01*
X20578285Y47672668D01*
X20397193Y47672668D01*
X20392082Y47672668D01*
X20392058Y47672667D01*
X19871720Y47672667D01*
X19804681Y47692352D01*
X19784039Y47708986D01*
X19776307Y47716718D01*
X19594982Y47842341D01*
X19394134Y47933571D01*
X19251526Y47969505D01*
X19180224Y47987471D01*
X19050672Y47997667D01*
X19050670Y47997667D01*
X18474814Y47997667D01*
X18474799Y47997666D01*
X18345254Y47987471D01*
X18131343Y47933571D01*
X17930495Y47842341D01*
X17749170Y47716718D01*
X17593190Y47560738D01*
X17586134Y47550552D01*
X17531775Y47506655D01*
X17484205Y47497167D01*
X17462739Y47497167D01*
X17462739Y47395628D01*
X17451638Y47344347D01*
X17376335Y47178563D01*
X17322435Y46964652D01*
X17312239Y46835106D01*
X17312239Y46835093D01*
X17312240Y46522167D01*
X17312240Y46209228D01*
X17322435Y46079683D01*
X17376335Y45865772D01*
X17406584Y45799178D01*
X17416387Y45729999D01*
X17403594Y45690487D01*
X17353829Y45595216D01*
X17353829Y45595214D01*
X17333457Y45524016D01*
X17299458Y45405192D01*
X17297853Y45399584D01*
X17297852Y45399581D01*
X17287239Y45280201D01*
X17287239Y44946667D01*
X17267554Y44879628D01*
X17214750Y44833873D01*
X17163239Y44822667D01*
X16986739Y44822667D01*
X16919700Y44842352D01*
X16873945Y44895156D01*
X16862739Y44946667D01*
X16862739Y45728167D01*
X16882424Y45795206D01*
X16935228Y45840961D01*
X16956066Y45845495D01*
X16962739Y45852167D01*
X16962739Y46272167D01*
X16262740Y46272167D01*
X16262740Y46223845D01*
X16272883Y46124560D01*
X16326191Y45963686D01*
X16326196Y45963675D01*
X16390724Y45859060D01*
X16409165Y45791668D01*
X16388243Y45725004D01*
X16334601Y45680234D01*
X16328522Y45677782D01*
X16295653Y45665522D01*
X16295645Y45665518D01*
X16180551Y45579358D01*
X16180548Y45579355D01*
X16094388Y45464261D01*
X16094384Y45464254D01*
X16044142Y45329547D01*
X16044140Y45329540D01*
X16037739Y45270012D01*
X16037739Y44972167D01*
X16073168Y44972167D01*
X16140207Y44952482D01*
X16185962Y44899678D01*
X16195906Y44830520D01*
X16166881Y44766964D01*
X16130581Y44738260D01*
X15984332Y44661865D01*
X15984330Y44661864D01*
X15984329Y44661863D01*
X15826629Y44533277D01*
X15698043Y44375577D01*
X15698041Y44375574D01*
X15656610Y44296259D01*
X15603828Y44195213D01*
X15547853Y43999584D01*
X15547852Y43999581D01*
X15537239Y43880201D01*
X15537239Y42764139D01*
X15537240Y42764133D01*
X15547852Y42644752D01*
X15603828Y42449122D01*
X15603829Y42449119D01*
X15603830Y42449118D01*
X15698041Y42268760D01*
X15723857Y42237099D01*
X15826629Y42111058D01*
X15898424Y42052518D01*
X15937942Y41994898D01*
X15940034Y41925059D01*
X15921994Y41885803D01*
X15917568Y41879415D01*
X15917561Y41879403D01*
X15826335Y41678563D01*
X15772435Y41464652D01*
X15762239Y41335106D01*
X15762239Y40709243D01*
X15762240Y40709228D01*
X15768387Y40631117D01*
X15772435Y40579682D01*
X15775218Y40568638D01*
X15826335Y40365772D01*
X15917565Y40164924D01*
X16043188Y39983599D01*
X16199170Y39827617D01*
X16380495Y39701994D01*
X16380496Y39701994D01*
X16380500Y39701991D01*
X16514614Y39641074D01*
X16581343Y39610764D01*
X16581344Y39610764D01*
X16581346Y39610763D01*
X16795254Y39556863D01*
X16924806Y39546667D01*
X17500671Y39546668D01*
X17630224Y39556863D01*
X17844132Y39610763D01*
X18044978Y39701991D01*
X18226306Y39827616D01*
X18382290Y39983600D01*
X18389343Y39993781D01*
X18443697Y40037678D01*
X18491270Y40047168D01*
X18512739Y40047169D01*
X18512739Y40148708D01*
X18523840Y40199989D01*
X18545248Y40247119D01*
X18599143Y40365774D01*
X18653043Y40579682D01*
X18663239Y40709234D01*
X18663239Y40747667D01*
X18682924Y40814706D01*
X18735728Y40860461D01*
X18787239Y40871667D01*
X18888739Y40871667D01*
X18955778Y40851982D01*
X19001533Y40799178D01*
X19012739Y40747667D01*
X19012739Y40047168D01*
X19036047Y40047168D01*
X19036061Y40047169D01*
X19135346Y40057312D01*
X19296220Y40110620D01*
X19296231Y40110625D01*
X19440467Y40199592D01*
X19440471Y40199595D01*
X19560311Y40319435D01*
X19560314Y40319439D01*
X19649281Y40463675D01*
X19649286Y40463686D01*
X19702594Y40624561D01*
X19712738Y40723846D01*
X19712738Y40795473D01*
X19732422Y40862513D01*
X19785225Y40908269D01*
X19798421Y40913406D01*
X19929372Y40955954D01*
X19929378Y40955956D01*
X20090733Y41038171D01*
X20097007Y41042730D01*
X20103934Y41047761D01*
X20237233Y41144609D01*
X20237231Y41144609D01*
X20237240Y41144614D01*
X20365292Y41272666D01*
X20365292Y41272668D01*
X20374190Y41281565D01*
X20374198Y41281576D01*
X21180153Y42087530D01*
X21241474Y42121013D01*
X21311166Y42116029D01*
X21367099Y42074157D01*
X21391516Y42008693D01*
X21390674Y41982942D01*
X21390052Y41978426D01*
X21390051Y41978414D01*
X21390051Y41978412D01*
X21387239Y41931205D01*
X21387239Y41563129D01*
X21388907Y41535128D01*
X21390051Y41515919D01*
X21390051Y41515918D01*
X21404712Y41448525D01*
X21404712Y41395809D01*
X21390051Y41328417D01*
X21390051Y41328416D01*
X21390051Y41328412D01*
X21387239Y41281205D01*
X21387239Y40913129D01*
X21389223Y40879807D01*
X21390051Y40865917D01*
X21434723Y40660565D01*
X21434726Y40660554D01*
X21517457Y40467359D01*
X21517459Y40467356D01*
X21517460Y40467354D01*
X21635262Y40293302D01*
X21783874Y40144690D01*
X21957926Y40026888D01*
X21957928Y40026887D01*
X21957930Y40026886D01*
X22035242Y39993779D01*
X22151127Y39944154D01*
X22151135Y39944153D01*
X22151136Y39944152D01*
X22356488Y39899480D01*
X22356489Y39899480D01*
X22356494Y39899479D01*
X22403701Y39896667D01*
X22403712Y39896667D01*
X23846766Y39896667D01*
X23846777Y39896667D01*
X23893984Y39899479D01*
X24099351Y39944154D01*
X24292552Y40026888D01*
X24466604Y40144690D01*
X24615216Y40293302D01*
X24733018Y40467354D01*
X24815752Y40660555D01*
X24848603Y40811570D01*
X24860426Y40865917D01*
X24860426Y40865918D01*
X24860427Y40865922D01*
X24863239Y40913129D01*
X24863239Y41122667D01*
X24882924Y41189706D01*
X24935728Y41235461D01*
X24987239Y41246667D01*
X25267058Y41246667D01*
X25267082Y41246666D01*
X25272193Y41246666D01*
X25453284Y41246666D01*
X25453285Y41246666D01*
X25632148Y41274996D01*
X25804378Y41330956D01*
X25965733Y41413171D01*
X26035426Y41463806D01*
X26112240Y41519614D01*
X26240292Y41647666D01*
X26240293Y41647668D01*
X26247353Y41654728D01*
X26247358Y41654735D01*
X26900559Y42307935D01*
X26961881Y42341419D01*
X27031573Y42336435D01*
X27087506Y42294563D01*
X27100016Y42264078D01*
X27100922Y42263038D01*
X27101558Y42260322D01*
X27111089Y42237099D01*
X27112239Y42228713D01*
X27112239Y42213129D01*
X27115051Y42165922D01*
X27130738Y42093807D01*
X27131396Y42089013D01*
X27129712Y42077819D01*
X27129712Y42045809D01*
X27115051Y41978417D01*
X27115051Y41978416D01*
X27115051Y41978412D01*
X27112239Y41931205D01*
X27112239Y41563129D01*
X27113907Y41535128D01*
X27115051Y41515919D01*
X27115051Y41515918D01*
X27129712Y41448525D01*
X27129712Y41395809D01*
X27115051Y41328417D01*
X27115051Y41328416D01*
X27115051Y41328412D01*
X27112239Y41281205D01*
X27112239Y40913129D01*
X27114223Y40879807D01*
X27115051Y40865917D01*
X27159723Y40660565D01*
X27159726Y40660554D01*
X27242457Y40467359D01*
X27242459Y40467356D01*
X27242460Y40467354D01*
X27360262Y40293302D01*
X27508874Y40144690D01*
X27682926Y40026888D01*
X27682928Y40026887D01*
X27682930Y40026886D01*
X27760242Y39993779D01*
X27876127Y39944154D01*
X27876135Y39944153D01*
X27876136Y39944152D01*
X28081488Y39899480D01*
X28081489Y39899480D01*
X28081494Y39899479D01*
X28128701Y39896667D01*
X28128712Y39896667D01*
X29571766Y39896667D01*
X29571777Y39896667D01*
X29618984Y39899479D01*
X29824351Y39944154D01*
X30017552Y40026888D01*
X30191604Y40144690D01*
X30218101Y40171188D01*
X30279422Y40204674D01*
X30349114Y40199692D01*
X30393465Y40171190D01*
X34575920Y35988735D01*
X34609405Y35927412D01*
X34612239Y35901054D01*
X34612239Y28143280D01*
X34592554Y28076241D01*
X34575920Y28055599D01*
X29579307Y23058986D01*
X29517984Y23025501D01*
X29491626Y23022667D01*
X28019647Y23022667D01*
X27865730Y22998291D01*
X27854922Y22997063D01*
X27771169Y22991249D01*
X27554603Y22940313D01*
X27554592Y22940309D01*
X27380503Y22863442D01*
X27311225Y22854371D01*
X27248040Y22884195D01*
X27242737Y22889196D01*
X23774558Y26357375D01*
X23741073Y26418698D01*
X23738239Y26445056D01*
X23738239Y26669667D01*
X23738238Y26669681D01*
X23722506Y26789174D01*
X23699732Y26962160D01*
X23623378Y27247119D01*
X23510482Y27519674D01*
X23362977Y27775161D01*
X23198153Y27989963D01*
X23183386Y28009208D01*
X23183380Y28009215D01*
X22974786Y28217809D01*
X22974779Y28217815D01*
X22740732Y28397406D01*
X22485249Y28544909D01*
X22485239Y28544913D01*
X22212700Y28657803D01*
X22212693Y28657805D01*
X22212691Y28657806D01*
X21927732Y28734160D01*
X21878852Y28740596D01*
X21635252Y28772667D01*
X21635245Y28772667D01*
X21340233Y28772667D01*
X21340225Y28772667D01*
X21061824Y28736014D01*
X21047746Y28734160D01*
X20927547Y28701953D01*
X20762787Y28657806D01*
X20762777Y28657803D01*
X20490238Y28544913D01*
X20490228Y28544909D01*
X20234745Y28397406D01*
X20000698Y28217815D01*
X20000691Y28217809D01*
X19792097Y28009215D01*
X19792091Y28009208D01*
X19612500Y27775161D01*
X19464997Y27519678D01*
X19464993Y27519668D01*
X19352103Y27247129D01*
X19352100Y27247119D01*
X19309576Y27088414D01*
X19275747Y26962163D01*
X19275745Y26962152D01*
X19237239Y26669681D01*
X19237239Y26374654D01*
X19257541Y26220451D01*
X19275746Y26082174D01*
X19331324Y25874752D01*
X19352100Y25797216D01*
X19352103Y25797206D01*
X19464993Y25524667D01*
X19464997Y25524657D01*
X19612500Y25269174D01*
X19792091Y25035127D01*
X19792097Y25035120D01*
X20000691Y24826526D01*
X20000698Y24826520D01*
X20234745Y24646929D01*
X20490228Y24499426D01*
X20490229Y24499426D01*
X20490232Y24499424D01*
X20762787Y24386528D01*
X21047746Y24310174D01*
X21340233Y24271667D01*
X21564850Y24271667D01*
X21631889Y24251982D01*
X21652531Y24235348D01*
X24278031Y21609848D01*
X24311516Y21548525D01*
X24306532Y21478833D01*
X24278031Y21434486D01*
X17803224Y14959680D01*
X17803223Y14959679D01*
X17664396Y14768602D01*
X17582396Y14607666D01*
X17557172Y14558164D01*
X17484185Y14333536D01*
X17447239Y14100265D01*
X17447239Y14031667D01*
X17427554Y13964628D01*
X17374750Y13918873D01*
X17323241Y13907667D01*
X17264712Y13907667D01*
X17264703Y13907666D01*
X17145323Y13897054D01*
X16949693Y13841078D01*
X16904085Y13817254D01*
X16769332Y13746865D01*
X16769330Y13746864D01*
X16769329Y13746863D01*
X16611629Y13618277D01*
X16486812Y13465199D01*
X16483041Y13460574D01*
X16467680Y13431167D01*
X16388828Y13280213D01*
X16332853Y13084584D01*
X16332852Y13084581D01*
X16328237Y13032667D01*
X16322239Y12965204D01*
X16322239Y12023729D01*
X16322240Y11131667D01*
X16302555Y11064628D01*
X16249752Y11018873D01*
X16198240Y11007667D01*
X14982693Y11007667D01*
X14954303Y11010961D01*
X14920663Y11018873D01*
X14889312Y11026247D01*
X14889300Y11026249D01*
X14796835Y11032667D01*
X14796831Y11032667D01*
X14098647Y11032667D01*
X14098643Y11032667D01*
X14006177Y11026249D01*
X14006161Y11026247D01*
X13789603Y10975313D01*
X13789587Y10975307D01*
X13586070Y10885446D01*
X13402518Y10759710D01*
X13402512Y10759705D01*
X13245201Y10602394D01*
X13245196Y10602388D01*
X13119460Y10418836D01*
X13029599Y10215319D01*
X13029593Y10215303D01*
X12978659Y9998745D01*
X12978657Y9998729D01*
X12972239Y9906263D01*
X500500Y9906263D01*
X500500Y29088017D01*
X520185Y29155056D01*
X572989Y29200811D01*
X642147Y29210755D01*
X705703Y29181730D01*
X712178Y29175701D01*
X1153717Y28734161D01*
X1590230Y28297648D01*
X1590235Y28297644D01*
X1744576Y28185510D01*
X1781306Y28158824D01*
X1991747Y28051599D01*
X2060071Y28029399D01*
X2117746Y27989963D01*
X2144945Y27925605D01*
X2145266Y27900488D01*
X2137239Y27810201D01*
X2137239Y25994139D01*
X2137240Y25994133D01*
X2147852Y25874752D01*
X2203828Y25679122D01*
X2203829Y25679119D01*
X2203830Y25679118D01*
X2298041Y25498760D01*
X2298043Y25498758D01*
X2426629Y25341058D01*
X2507446Y25275161D01*
X2584332Y25212469D01*
X2764690Y25118258D01*
X2960321Y25062281D01*
X3079702Y25051667D01*
X4895775Y25051668D01*
X5015157Y25062281D01*
X5210788Y25118258D01*
X5391146Y25212469D01*
X5548848Y25341058D01*
X5561054Y25356029D01*
X5618676Y25395545D01*
X5657156Y25401667D01*
X8934850Y25401667D01*
X9001889Y25381982D01*
X9022531Y25365348D01*
X10200920Y24186959D01*
X10234405Y24125636D01*
X10237239Y24099278D01*
X10237239Y23874654D01*
X10269310Y23631054D01*
X10275746Y23582174D01*
X10275747Y23582172D01*
X10352100Y23297216D01*
X10352103Y23297206D01*
X10464993Y23024667D01*
X10464997Y23024657D01*
X10612500Y22769174D01*
X10792091Y22535127D01*
X10792097Y22535120D01*
X11000691Y22326526D01*
X11000698Y22326520D01*
X11234745Y22146929D01*
X11490228Y21999426D01*
X11490229Y21999426D01*
X11490232Y21999424D01*
X11762787Y21886528D01*
X12047746Y21810174D01*
X12340233Y21771667D01*
X12340240Y21771667D01*
X12635238Y21771667D01*
X12635245Y21771667D01*
X12927732Y21810174D01*
X13212691Y21886528D01*
X13485246Y21999424D01*
X13740733Y22146929D01*
X13974781Y22326521D01*
X14183385Y22535125D01*
X14362977Y22769173D01*
X14510482Y23024660D01*
X14623378Y23297215D01*
X14699732Y23582174D01*
X14738239Y23874661D01*
X14738239Y24169673D01*
X14699732Y24462160D01*
X14623378Y24747119D01*
X14510482Y25019674D01*
X14501564Y25035120D01*
X14362977Y25275161D01*
X14183386Y25509208D01*
X14183380Y25509215D01*
X13974786Y25717809D01*
X13974779Y25717815D01*
X13740732Y25897406D01*
X13485249Y26044909D01*
X13485239Y26044913D01*
X13212700Y26157803D01*
X13212693Y26157805D01*
X13212691Y26157806D01*
X12927732Y26234160D01*
X12878852Y26240596D01*
X12635252Y26272667D01*
X12635245Y26272667D01*
X12410628Y26272667D01*
X12343589Y26292352D01*
X12322947Y26308986D01*
X10585250Y28046683D01*
X10578482Y28051600D01*
X10394173Y28185510D01*
X10183735Y28292734D01*
X9959107Y28365721D01*
X9725836Y28402667D01*
X9725831Y28402667D01*
X5739132Y28402667D01*
X5672093Y28422352D01*
X5626338Y28475156D01*
X5616394Y28544314D01*
X5631745Y28588667D01*
X5650959Y28621948D01*
X5650959Y28621949D01*
X5650963Y28621955D01*
X5743793Y28846067D01*
X5806577Y29080378D01*
X5838239Y29320879D01*
X5838239Y29563455D01*
X5806577Y29803956D01*
X5743793Y30038267D01*
X5650963Y30262379D01*
X5529675Y30472456D01*
X5403661Y30636681D01*
X5378467Y30701850D01*
X5392505Y30770295D01*
X5403661Y30787653D01*
X5404838Y30789188D01*
X5529675Y30951878D01*
X5650963Y31161955D01*
X5743793Y31386067D01*
X5806577Y31620378D01*
X5838239Y31860879D01*
X5838239Y32103455D01*
X5806577Y32343956D01*
X5743793Y32578267D01*
X5650963Y32802379D01*
X5529675Y33012456D01*
X5382004Y33204905D01*
X5381999Y33204911D01*
X5210482Y33376428D01*
X5058173Y33493299D01*
X5016971Y33549727D01*
X5012816Y33619473D01*
X5033342Y33664561D01*
X5142361Y33814613D01*
X5238834Y34003950D01*
X5304496Y34206037D01*
X5304496Y34206040D01*
X5337739Y34415921D01*
X5337739Y34628414D01*
X5304496Y34838295D01*
X5304496Y34838298D01*
X5238834Y35040385D01*
X5142363Y35229718D01*
X5103009Y35283885D01*
X5103008Y35283885D01*
X4470701Y34651578D01*
X4453664Y34715160D01*
X4387838Y34829174D01*
X4294746Y34922266D01*
X4180732Y34988092D01*
X4117146Y35005131D01*
X4749455Y35637439D01*
X4695289Y35676792D01*
X4505956Y35773263D01*
X4303868Y35838925D01*
X4093985Y35872167D01*
X3881493Y35872167D01*
X3671611Y35838925D01*
X3671608Y35838925D01*
X3469521Y35773263D01*
X3280185Y35676791D01*
X3185124Y35607725D01*
X3119317Y35584246D01*
X3051263Y35600072D01*
X3002569Y35650178D01*
X2988239Y35708044D01*
X2988239Y43349278D01*
X3007924Y43416317D01*
X3024558Y43436959D01*
X6408089Y46820490D01*
X16262739Y46820490D01*
X16262739Y46772167D01*
X16962739Y46772167D01*
X16962739Y47497168D01*
X16939432Y47497167D01*
X16939413Y47497166D01*
X16840131Y47487023D01*
X16679257Y47433715D01*
X16679246Y47433710D01*
X16535010Y47344743D01*
X16535006Y47344740D01*
X16415166Y47224900D01*
X16415163Y47224896D01*
X16326196Y47080660D01*
X16326191Y47080649D01*
X16272883Y46919774D01*
X16262739Y46820490D01*
X6408089Y46820490D01*
X11283089Y51695490D01*
X20875239Y51695490D01*
X20875239Y51672167D01*
X21600239Y51672167D01*
X21600239Y52372167D01*
X22100239Y52372167D01*
X22100239Y51672167D01*
X23100239Y51672167D01*
X23600239Y51672167D01*
X24325238Y51672167D01*
X24325238Y51695475D01*
X24325237Y51695490D01*
X24315094Y51794775D01*
X24261786Y51955649D01*
X24261781Y51955660D01*
X24172814Y52099896D01*
X24172811Y52099900D01*
X24052971Y52219740D01*
X24052967Y52219743D01*
X23908731Y52308710D01*
X23908720Y52308715D01*
X23747845Y52362023D01*
X23648561Y52372167D01*
X23600239Y52372167D01*
X23600239Y51672167D01*
X23100239Y51672167D01*
X23100239Y52372167D01*
X23100238Y52372168D01*
X23051932Y52372167D01*
X23051914Y52372166D01*
X22952631Y52362023D01*
X22791757Y52308715D01*
X22791746Y52308710D01*
X22665336Y52230738D01*
X22597944Y52212297D01*
X22535142Y52230738D01*
X22408731Y52308710D01*
X22408720Y52308715D01*
X22247845Y52362023D01*
X22148561Y52372167D01*
X22100239Y52372167D01*
X21600239Y52372167D01*
X21600238Y52372168D01*
X21551932Y52372167D01*
X21551914Y52372166D01*
X21452631Y52362023D01*
X21291757Y52308715D01*
X21291746Y52308710D01*
X21147510Y52219743D01*
X21147506Y52219740D01*
X21027666Y52099900D01*
X21027663Y52099896D01*
X20938696Y51955660D01*
X20938691Y51955649D01*
X20885383Y51794774D01*
X20875239Y51695490D01*
X11283089Y51695490D01*
X15572947Y55985348D01*
X15634270Y56018833D01*
X15660628Y56021667D01*
X52814850Y56021667D01*
X52881889Y56001982D01*
G37*
%TD.AperFunction*%
%TD*%
M02*
